<?xml version="1.0" encoding="utf-8" standalone="no"?>
<!DOCTYPE svg PUBLIC "-//W3C//DTD SVG 1.1//EN"
  "http://www.w3.org/Graphics/SVG/1.1/DTD/svg11.dtd">
<!-- Created with matplotlib (https://matplotlib.org/) -->
<svg height="291.674375pt" version="1.1" viewBox="0 0 493.861875 291.674375" width="493.861875pt" xmlns="http://www.w3.org/2000/svg" xmlns:xlink="http://www.w3.org/1999/xlink">
 <metadata>
  <rdf:RDF xmlns:cc="http://creativecommons.org/ns#" xmlns:dc="http://purl.org/dc/elements/1.1/" xmlns:rdf="http://www.w3.org/1999/02/22-rdf-syntax-ns#">
   <cc:Work>
    <dc:type rdf:resource="http://purl.org/dc/dcmitype/StillImage"/>
    <dc:date>2021-02-20T15:29:28.817041</dc:date>
    <dc:format>image/svg+xml</dc:format>
    <dc:creator>
     <cc:Agent>
      <dc:title>Matplotlib v3.3.2, https://matplotlib.org/</dc:title>
     </cc:Agent>
    </dc:creator>
   </cc:Work>
  </rdf:RDF>
 </metadata>
 <defs>
  <style type="text/css">*{stroke-linecap:butt;stroke-linejoin:round;}</style>
 </defs>
 <g id="figure_1">
  <g id="patch_1">
   <path d="M 0 291.674375 
L 493.861875 291.674375 
L 493.861875 0 
L 0 0 
z
" style="fill:none;"/>
  </g>
  <g id="axes_1">
   <g id="patch_2">
    <path d="M 78.730937 254.118125 
L 246.343437 254.118125 
L 246.343437 22.318125 
L 78.730937 22.318125 
z
" style="fill:#ffffff;"/>
   </g>
   <g id="PathCollection_1">
    <defs>
     <path d="M 0 3 
C 0.795609 3 1.55874 2.683901 2.12132 2.12132 
C 2.683901 1.55874 3 0.795609 3 0 
C 3 -0.795609 2.683901 -1.55874 2.12132 -2.12132 
C 1.55874 -2.683901 0.795609 -3 0 -3 
C -0.795609 -3 -1.55874 -2.683901 -2.12132 -2.12132 
C -2.683901 -1.55874 -3 -0.795609 -3 0 
C -3 0.795609 -2.683901 1.55874 -2.12132 2.12132 
C -1.55874 2.683901 -0.795609 3 0 3 
z
" id="m3e2255eaa8" style="stroke:#1f77b4;stroke-opacity:0.8;"/>
    </defs>
    <g clip-path="url(#pbe36cd39e3)">
     <use style="fill:#1f77b4;fill-opacity:0.8;stroke:#1f77b4;stroke-opacity:0.8;" x="181.877091" xlink:href="#m3e2255eaa8" y="173.339337"/>
     <use style="fill:#1f77b4;fill-opacity:0.8;stroke:#1f77b4;stroke-opacity:0.8;" x="104.517476" xlink:href="#m3e2255eaa8" y="32.854489"/>
     <use style="fill:#1f77b4;fill-opacity:0.8;stroke:#1f77b4;stroke-opacity:0.8;" x="117.410745" xlink:href="#m3e2255eaa8" y="173.339337"/>
     <use style="fill:#1f77b4;fill-opacity:0.8;stroke:#1f77b4;stroke-opacity:0.8;" x="181.877091" xlink:href="#m3e2255eaa8" y="32.854489"/>
     <use style="fill:#1f77b4;fill-opacity:0.8;stroke:#1f77b4;stroke-opacity:0.8;" x="207.66363" xlink:href="#m3e2255eaa8" y="103.096913"/>
     <use style="fill:#1f77b4;fill-opacity:0.8;stroke:#1f77b4;stroke-opacity:0.8;" x="168.983822" xlink:href="#m3e2255eaa8" y="32.854489"/>
     <use style="fill:#1f77b4;fill-opacity:0.8;stroke:#1f77b4;stroke-opacity:0.8;" x="220.556899" xlink:href="#m3e2255eaa8" y="32.854489"/>
     <use style="fill:#1f77b4;fill-opacity:0.8;stroke:#1f77b4;stroke-opacity:0.8;" x="168.983822" xlink:href="#m3e2255eaa8" y="103.096913"/>
     <use style="fill:#1f77b4;fill-opacity:0.8;stroke:#1f77b4;stroke-opacity:0.8;" x="117.410745" xlink:href="#m3e2255eaa8" y="173.339337"/>
     <use style="fill:#1f77b4;fill-opacity:0.8;stroke:#1f77b4;stroke-opacity:0.8;" x="156.090553" xlink:href="#m3e2255eaa8" y="173.339337"/>
     <use style="fill:#1f77b4;fill-opacity:0.8;stroke:#1f77b4;stroke-opacity:0.8;" x="156.090553" xlink:href="#m3e2255eaa8" y="103.096913"/>
     <use style="fill:#1f77b4;fill-opacity:0.8;stroke:#1f77b4;stroke-opacity:0.8;" x="207.66363" xlink:href="#m3e2255eaa8" y="32.854489"/>
     <use style="fill:#1f77b4;fill-opacity:0.8;stroke:#1f77b4;stroke-opacity:0.8;" x="130.304014" xlink:href="#m3e2255eaa8" y="173.339337"/>
     <use style="fill:#1f77b4;fill-opacity:0.8;stroke:#1f77b4;stroke-opacity:0.8;" x="168.983822" xlink:href="#m3e2255eaa8" y="173.339337"/>
     <use style="fill:#1f77b4;fill-opacity:0.8;stroke:#1f77b4;stroke-opacity:0.8;" x="168.983822" xlink:href="#m3e2255eaa8" y="173.339337"/>
     <use style="fill:#1f77b4;fill-opacity:0.8;stroke:#1f77b4;stroke-opacity:0.8;" x="194.770361" xlink:href="#m3e2255eaa8" y="103.096913"/>
     <use style="fill:#1f77b4;fill-opacity:0.8;stroke:#1f77b4;stroke-opacity:0.8;" x="156.090553" xlink:href="#m3e2255eaa8" y="243.581761"/>
     <use style="fill:#1f77b4;fill-opacity:0.8;stroke:#1f77b4;stroke-opacity:0.8;" x="143.197284" xlink:href="#m3e2255eaa8" y="173.339337"/>
     <use style="fill:#1f77b4;fill-opacity:0.8;stroke:#1f77b4;stroke-opacity:0.8;" x="194.770361" xlink:href="#m3e2255eaa8" y="243.581761"/>
     <use style="fill:#1f77b4;fill-opacity:0.8;stroke:#1f77b4;stroke-opacity:0.8;" x="78.730937" xlink:href="#m3e2255eaa8" y="173.339337"/>
     <use style="fill:#1f77b4;fill-opacity:0.8;stroke:#1f77b4;stroke-opacity:0.8;" x="130.304014" xlink:href="#m3e2255eaa8" y="173.339337"/>
     <use style="fill:#1f77b4;fill-opacity:0.8;stroke:#1f77b4;stroke-opacity:0.8;" x="246.343437" xlink:href="#m3e2255eaa8" y="32.854489"/>
     <use style="fill:#1f77b4;fill-opacity:0.8;stroke:#1f77b4;stroke-opacity:0.8;" x="156.090553" xlink:href="#m3e2255eaa8" y="103.096913"/>
     <use style="fill:#1f77b4;fill-opacity:0.8;stroke:#1f77b4;stroke-opacity:0.8;" x="156.090553" xlink:href="#m3e2255eaa8" y="32.854489"/>
     <use style="fill:#1f77b4;fill-opacity:0.8;stroke:#1f77b4;stroke-opacity:0.8;" x="156.090553" xlink:href="#m3e2255eaa8" y="103.096913"/>
     <use style="fill:#1f77b4;fill-opacity:0.8;stroke:#1f77b4;stroke-opacity:0.8;" x="156.090553" xlink:href="#m3e2255eaa8" y="173.339337"/>
     <use style="fill:#1f77b4;fill-opacity:0.8;stroke:#1f77b4;stroke-opacity:0.8;" x="143.197284" xlink:href="#m3e2255eaa8" y="32.854489"/>
     <use style="fill:#1f77b4;fill-opacity:0.8;stroke:#1f77b4;stroke-opacity:0.8;" x="130.304014" xlink:href="#m3e2255eaa8" y="103.096913"/>
     <use style="fill:#1f77b4;fill-opacity:0.8;stroke:#1f77b4;stroke-opacity:0.8;" x="143.197284" xlink:href="#m3e2255eaa8" y="32.854489"/>
     <use style="fill:#1f77b4;fill-opacity:0.8;stroke:#1f77b4;stroke-opacity:0.8;" x="156.090553" xlink:href="#m3e2255eaa8" y="103.096913"/>
     <use style="fill:#1f77b4;fill-opacity:0.8;stroke:#1f77b4;stroke-opacity:0.8;" x="156.090553" xlink:href="#m3e2255eaa8" y="103.096913"/>
     <use style="fill:#1f77b4;fill-opacity:0.8;stroke:#1f77b4;stroke-opacity:0.8;" x="130.304014" xlink:href="#m3e2255eaa8" y="32.854489"/>
     <use style="fill:#1f77b4;fill-opacity:0.8;stroke:#1f77b4;stroke-opacity:0.8;" x="168.983822" xlink:href="#m3e2255eaa8" y="103.096913"/>
     <use style="fill:#1f77b4;fill-opacity:0.8;stroke:#1f77b4;stroke-opacity:0.8;" x="168.983822" xlink:href="#m3e2255eaa8" y="243.581761"/>
     <use style="fill:#1f77b4;fill-opacity:0.8;stroke:#1f77b4;stroke-opacity:0.8;" x="143.197284" xlink:href="#m3e2255eaa8" y="103.096913"/>
     <use style="fill:#1f77b4;fill-opacity:0.8;stroke:#1f77b4;stroke-opacity:0.8;" x="143.197284" xlink:href="#m3e2255eaa8" y="243.581761"/>
     <use style="fill:#1f77b4;fill-opacity:0.8;stroke:#1f77b4;stroke-opacity:0.8;" x="130.304014" xlink:href="#m3e2255eaa8" y="173.339337"/>
     <use style="fill:#1f77b4;fill-opacity:0.8;stroke:#1f77b4;stroke-opacity:0.8;" x="156.090553" xlink:href="#m3e2255eaa8" y="103.096913"/>
     <use style="fill:#1f77b4;fill-opacity:0.8;stroke:#1f77b4;stroke-opacity:0.8;" x="143.197284" xlink:href="#m3e2255eaa8" y="173.339337"/>
     <use style="fill:#1f77b4;fill-opacity:0.8;stroke:#1f77b4;stroke-opacity:0.8;" x="130.304014" xlink:href="#m3e2255eaa8" y="173.339337"/>
     <use style="fill:#1f77b4;fill-opacity:0.8;stroke:#1f77b4;stroke-opacity:0.8;" x="91.624207" xlink:href="#m3e2255eaa8" y="32.854489"/>
    </g>
   </g>
   <g id="PolyCollection_1">
    <path clip-path="url(#pbe36cd39e3)" d="M 78.730937 90.463337 
L 78.730937 201.60388 
L 80.423993 200.082852 
L 82.117049 198.559086 
L 83.810104 196.948615 
L 85.50316 195.521295 
L 87.196215 194.000649 
L 88.889271 192.478142 
L 90.582326 190.918573 
L 92.275382 189.359004 
L 93.968437 187.799436 
L 95.661493 186.236989 
L 97.354549 184.754094 
L 99.047604 183.240372 
L 100.74066 181.556289 
L 102.433715 179.99383 
L 104.126771 178.378722 
L 105.819826 176.745343 
L 107.512882 175.111964 
L 109.205937 173.751285 
L 110.898993 172.190688 
L 112.592049 170.641239 
L 114.285104 169.084612 
L 115.97816 167.525043 
L 117.671215 166.01611 
L 119.364271 164.849275 
L 121.057326 163.60916 
L 122.750382 162.089199 
L 124.443437 160.574479 
L 126.136493 159.166456 
L 127.829549 157.697073 
L 129.522604 156.162728 
L 131.21566 155.169764 
L 132.908715 154.209565 
L 134.601771 152.815464 
L 136.294826 151.563738 
L 137.987882 150.428338 
L 139.680937 149.299988 
L 141.373993 148.175479 
L 143.067049 147.378229 
L 144.760104 146.304919 
L 146.45316 145.544834 
L 148.146215 144.677108 
L 149.839271 143.99644 
L 151.532326 142.706435 
L 153.225382 142.406053 
L 154.918437 142.190774 
L 156.611493 141.674032 
L 158.304549 140.874835 
L 159.997604 141.088519 
L 161.69066 140.685547 
L 163.383715 140.375072 
L 165.076771 140.332242 
L 166.769826 140.630114 
L 168.462882 140.758138 
L 170.155937 140.580427 
L 171.848993 140.975259 
L 173.542049 141.157119 
L 175.235104 141.293392 
L 176.92816 141.423787 
L 178.621215 141.554182 
L 180.314271 141.797324 
L 182.007326 141.832862 
L 183.700382 141.968403 
L 185.393437 142.595386 
L 187.086493 142.655909 
L 188.779549 142.670921 
L 190.472604 143.654147 
L 192.16566 144.42489 
L 193.858715 145.106562 
L 195.551771 146.047912 
L 197.244826 146.682241 
L 198.937882 147.501901 
L 200.630937 148.238237 
L 202.323993 148.222622 
L 204.017049 148.211842 
L 205.710104 148.502769 
L 207.40316 148.687226 
L 209.096215 149.071576 
L 210.789271 149.45416 
L 212.482326 149.82743 
L 214.175382 150.200701 
L 215.868437 150.573972 
L 217.561493 151.277255 
L 219.254549 152.211696 
L 220.947604 153.146137 
L 222.64066 154.080578 
L 224.333715 154.675006 
L 226.026771 155.074526 
L 227.719826 155.483018 
L 229.412882 156.209718 
L 231.105937 156.551414 
L 232.798993 156.882928 
L 234.492049 157.214441 
L 236.185104 157.545955 
L 237.87816 158.290148 
L 239.571215 158.624357 
L 241.264271 158.958566 
L 242.957326 159.292775 
L 244.650382 160.028826 
L 246.343437 160.814685 
L 246.343437 34.885192 
L 246.343437 34.885192 
L 244.650382 36.773046 
L 242.957326 38.457622 
L 241.264271 40.145652 
L 239.571215 41.833683 
L 237.87816 43.521713 
L 236.185104 45.191407 
L 234.492049 46.576259 
L 232.798993 48.553994 
L 231.105937 50.103709 
L 229.412882 51.453289 
L 227.719826 52.802869 
L 226.026771 54.152448 
L 224.333715 55.502028 
L 222.64066 56.892421 
L 220.947604 58.517383 
L 219.254549 60.431012 
L 217.561493 61.971345 
L 215.868437 63.196634 
L 214.175382 64.420056 
L 212.482326 66.13449 
L 210.789271 67.418871 
L 209.096215 68.820031 
L 207.40316 70.226417 
L 205.710104 71.589236 
L 204.017049 73.05757 
L 202.323993 74.570869 
L 200.630937 76.027405 
L 198.937882 77.20039 
L 197.244826 78.205503 
L 195.551771 79.083614 
L 193.858715 80.505 
L 192.16566 81.975354 
L 190.472604 83.027845 
L 188.779549 84.316289 
L 187.086493 85.545432 
L 185.393437 86.474638 
L 183.700382 87.508014 
L 182.007326 88.517068 
L 180.314271 89.845314 
L 178.621215 90.859556 
L 176.92816 91.483506 
L 175.235104 92.580712 
L 173.542049 93.748281 
L 171.848993 94.919829 
L 170.155937 96.08654 
L 168.462882 97.053415 
L 166.769826 98.145209 
L 165.076771 98.997922 
L 163.383715 99.628517 
L 161.69066 100.501677 
L 159.997604 100.874194 
L 158.304549 101.370459 
L 156.611493 101.791038 
L 154.918437 102.677177 
L 153.225382 103.222561 
L 151.532326 103.451651 
L 149.839271 104.09961 
L 148.146215 104.443701 
L 146.45316 104.787672 
L 144.760104 104.960666 
L 143.067049 105.324035 
L 141.373993 105.336429 
L 139.680937 105.091644 
L 137.987882 105.414619 
L 136.294826 105.45524 
L 134.601771 105.281644 
L 132.908715 105.346833 
L 131.21566 105.435018 
L 129.522604 105.100911 
L 127.829549 104.717123 
L 126.136493 104.312853 
L 124.443437 103.926438 
L 122.750382 103.551725 
L 121.057326 103.1822 
L 119.364271 102.808015 
L 117.671215 102.431328 
L 115.97816 102.051182 
L 114.285104 101.671262 
L 112.592049 101.293601 
L 110.898993 100.919391 
L 109.205937 100.54518 
L 107.512882 100.049929 
L 105.819826 99.508706 
L 104.126771 98.84271 
L 102.433715 98.240089 
L 100.74066 97.676571 
L 99.047604 97.255912 
L 97.354549 96.835252 
L 95.661493 95.979413 
L 93.968437 95.564518 
L 92.275382 95.297772 
L 90.582326 94.78339 
L 88.889271 94.429037 
L 87.196215 93.890733 
L 85.50316 93.080313 
L 83.810104 92.201918 
L 82.117049 91.476903 
L 80.423993 90.967391 
L 78.730937 90.463337 
z
" style="fill:#1f77b4;fill-opacity:0.15;"/>
   </g>
   <g id="matplotlib.axis_1">
    <g id="xtick_1">
     <g id="line2d_1">
      <defs>
       <path d="M 0 0 
L 0 3.5 
" id="m224c689834" style="stroke:#000000;stroke-width:0.8;"/>
      </defs>
      <g>
       <use style="stroke:#000000;stroke-width:0.8;" x="104.517476" xlink:href="#m224c689834" y="254.118125"/>
      </g>
     </g>
     <g id="text_1">
      <!-- 2 -->
      <g transform="translate(101.336226 268.716562)scale(0.1 -0.1)">
       <defs>
        <path d="M 19.1875 8.296875 
L 53.609375 8.296875 
L 53.609375 0 
L 7.328125 0 
L 7.328125 8.296875 
Q 12.9375 14.109375 22.625 23.890625 
Q 32.328125 33.6875 34.8125 36.53125 
Q 39.546875 41.84375 41.421875 45.53125 
Q 43.3125 49.21875 43.3125 52.78125 
Q 43.3125 58.59375 39.234375 62.25 
Q 35.15625 65.921875 28.609375 65.921875 
Q 23.96875 65.921875 18.8125 64.3125 
Q 13.671875 62.703125 7.8125 59.421875 
L 7.8125 69.390625 
Q 13.765625 71.78125 18.9375 73 
Q 24.125 74.21875 28.421875 74.21875 
Q 39.75 74.21875 46.484375 68.546875 
Q 53.21875 62.890625 53.21875 53.421875 
Q 53.21875 48.921875 51.53125 44.890625 
Q 49.859375 40.875 45.40625 35.40625 
Q 44.1875 33.984375 37.640625 27.21875 
Q 31.109375 20.453125 19.1875 8.296875 
z
" id="DejaVuSans-50"/>
       </defs>
       <use xlink:href="#DejaVuSans-50"/>
      </g>
     </g>
    </g>
    <g id="xtick_2">
     <g id="line2d_2">
      <g>
       <use style="stroke:#000000;stroke-width:0.8;" x="156.090553" xlink:href="#m224c689834" y="254.118125"/>
      </g>
     </g>
     <g id="text_2">
      <!-- 3 -->
      <g transform="translate(152.909303 268.716562)scale(0.1 -0.1)">
       <defs>
        <path d="M 40.578125 39.3125 
Q 47.65625 37.796875 51.625 33 
Q 55.609375 28.21875 55.609375 21.1875 
Q 55.609375 10.40625 48.1875 4.484375 
Q 40.765625 -1.421875 27.09375 -1.421875 
Q 22.515625 -1.421875 17.65625 -0.515625 
Q 12.796875 0.390625 7.625 2.203125 
L 7.625 11.71875 
Q 11.71875 9.328125 16.59375 8.109375 
Q 21.484375 6.890625 26.8125 6.890625 
Q 36.078125 6.890625 40.9375 10.546875 
Q 45.796875 14.203125 45.796875 21.1875 
Q 45.796875 27.640625 41.28125 31.265625 
Q 36.765625 34.90625 28.71875 34.90625 
L 20.21875 34.90625 
L 20.21875 43.015625 
L 29.109375 43.015625 
Q 36.375 43.015625 40.234375 45.921875 
Q 44.09375 48.828125 44.09375 54.296875 
Q 44.09375 59.90625 40.109375 62.90625 
Q 36.140625 65.921875 28.71875 65.921875 
Q 24.65625 65.921875 20.015625 65.03125 
Q 15.375 64.15625 9.8125 62.3125 
L 9.8125 71.09375 
Q 15.4375 72.65625 20.34375 73.4375 
Q 25.25 74.21875 29.59375 74.21875 
Q 40.828125 74.21875 47.359375 69.109375 
Q 53.90625 64.015625 53.90625 55.328125 
Q 53.90625 49.265625 50.4375 45.09375 
Q 46.96875 40.921875 40.578125 39.3125 
z
" id="DejaVuSans-51"/>
       </defs>
       <use xlink:href="#DejaVuSans-51"/>
      </g>
     </g>
    </g>
    <g id="xtick_3">
     <g id="line2d_3">
      <g>
       <use style="stroke:#000000;stroke-width:0.8;" x="207.66363" xlink:href="#m224c689834" y="254.118125"/>
      </g>
     </g>
     <g id="text_3">
      <!-- 4 -->
      <g transform="translate(204.48238 268.716562)scale(0.1 -0.1)">
       <defs>
        <path d="M 37.796875 64.3125 
L 12.890625 25.390625 
L 37.796875 25.390625 
z
M 35.203125 72.90625 
L 47.609375 72.90625 
L 47.609375 25.390625 
L 58.015625 25.390625 
L 58.015625 17.1875 
L 47.609375 17.1875 
L 47.609375 0 
L 37.796875 0 
L 37.796875 17.1875 
L 4.890625 17.1875 
L 4.890625 26.703125 
z
" id="DejaVuSans-52"/>
       </defs>
       <use xlink:href="#DejaVuSans-52"/>
      </g>
     </g>
    </g>
    <g id="text_4">
     <!-- E -->
     <g transform="translate(159.377812 282.394687)scale(0.1 -0.1)">
      <defs>
       <path d="M 9.8125 72.90625 
L 55.90625 72.90625 
L 55.90625 64.59375 
L 19.671875 64.59375 
L 19.671875 43.015625 
L 54.390625 43.015625 
L 54.390625 34.71875 
L 19.671875 34.71875 
L 19.671875 8.296875 
L 56.78125 8.296875 
L 56.78125 0 
L 9.8125 0 
z
" id="DejaVuSans-69"/>
      </defs>
      <use xlink:href="#DejaVuSans-69"/>
     </g>
    </g>
   </g>
   <g id="matplotlib.axis_2">
    <g id="ytick_1">
     <g id="line2d_4">
      <defs>
       <path d="M 0 0 
L -3.5 0 
" id="mf669ca7d9a" style="stroke:#000000;stroke-width:0.8;"/>
      </defs>
      <g>
       <use style="stroke:#000000;stroke-width:0.8;" x="78.730937" xlink:href="#mf669ca7d9a" y="243.581761"/>
      </g>
     </g>
     <g id="text_5">
      <!-- 4.0 -->
      <g transform="translate(55.827812 247.38098)scale(0.1 -0.1)">
       <defs>
        <path d="M 10.6875 12.40625 
L 21 12.40625 
L 21 0 
L 10.6875 0 
z
" id="DejaVuSans-46"/>
        <path d="M 31.78125 66.40625 
Q 24.171875 66.40625 20.328125 58.90625 
Q 16.5 51.421875 16.5 36.375 
Q 16.5 21.390625 20.328125 13.890625 
Q 24.171875 6.390625 31.78125 6.390625 
Q 39.453125 6.390625 43.28125 13.890625 
Q 47.125 21.390625 47.125 36.375 
Q 47.125 51.421875 43.28125 58.90625 
Q 39.453125 66.40625 31.78125 66.40625 
z
M 31.78125 74.21875 
Q 44.046875 74.21875 50.515625 64.515625 
Q 56.984375 54.828125 56.984375 36.375 
Q 56.984375 17.96875 50.515625 8.265625 
Q 44.046875 -1.421875 31.78125 -1.421875 
Q 19.53125 -1.421875 13.0625 8.265625 
Q 6.59375 17.96875 6.59375 36.375 
Q 6.59375 54.828125 13.0625 64.515625 
Q 19.53125 74.21875 31.78125 74.21875 
z
" id="DejaVuSans-48"/>
       </defs>
       <use xlink:href="#DejaVuSans-52"/>
       <use x="63.623047" xlink:href="#DejaVuSans-46"/>
       <use x="95.410156" xlink:href="#DejaVuSans-48"/>
      </g>
     </g>
    </g>
    <g id="ytick_2">
     <g id="line2d_5">
      <g>
       <use style="stroke:#000000;stroke-width:0.8;" x="78.730937" xlink:href="#mf669ca7d9a" y="208.460549"/>
      </g>
     </g>
     <g id="text_6">
      <!-- 4.5 -->
      <g transform="translate(55.827812 212.259768)scale(0.1 -0.1)">
       <defs>
        <path d="M 10.796875 72.90625 
L 49.515625 72.90625 
L 49.515625 64.59375 
L 19.828125 64.59375 
L 19.828125 46.734375 
Q 21.96875 47.46875 24.109375 47.828125 
Q 26.265625 48.1875 28.421875 48.1875 
Q 40.625 48.1875 47.75 41.5 
Q 54.890625 34.8125 54.890625 23.390625 
Q 54.890625 11.625 47.5625 5.09375 
Q 40.234375 -1.421875 26.90625 -1.421875 
Q 22.3125 -1.421875 17.546875 -0.640625 
Q 12.796875 0.140625 7.71875 1.703125 
L 7.71875 11.625 
Q 12.109375 9.234375 16.796875 8.0625 
Q 21.484375 6.890625 26.703125 6.890625 
Q 35.15625 6.890625 40.078125 11.328125 
Q 45.015625 15.765625 45.015625 23.390625 
Q 45.015625 31 40.078125 35.4375 
Q 35.15625 39.890625 26.703125 39.890625 
Q 22.75 39.890625 18.8125 39.015625 
Q 14.890625 38.140625 10.796875 36.28125 
z
" id="DejaVuSans-53"/>
       </defs>
       <use xlink:href="#DejaVuSans-52"/>
       <use x="63.623047" xlink:href="#DejaVuSans-46"/>
       <use x="95.410156" xlink:href="#DejaVuSans-53"/>
      </g>
     </g>
    </g>
    <g id="ytick_3">
     <g id="line2d_6">
      <g>
       <use style="stroke:#000000;stroke-width:0.8;" x="78.730937" xlink:href="#mf669ca7d9a" y="173.339337"/>
      </g>
     </g>
     <g id="text_7">
      <!-- 5.0 -->
      <g transform="translate(55.827812 177.138556)scale(0.1 -0.1)">
       <use xlink:href="#DejaVuSans-53"/>
       <use x="63.623047" xlink:href="#DejaVuSans-46"/>
       <use x="95.410156" xlink:href="#DejaVuSans-48"/>
      </g>
     </g>
    </g>
    <g id="ytick_4">
     <g id="line2d_7">
      <g>
       <use style="stroke:#000000;stroke-width:0.8;" x="78.730937" xlink:href="#mf669ca7d9a" y="138.218125"/>
      </g>
     </g>
     <g id="text_8">
      <!-- 5.5 -->
      <g transform="translate(55.827812 142.017344)scale(0.1 -0.1)">
       <use xlink:href="#DejaVuSans-53"/>
       <use x="63.623047" xlink:href="#DejaVuSans-46"/>
       <use x="95.410156" xlink:href="#DejaVuSans-53"/>
      </g>
     </g>
    </g>
    <g id="ytick_5">
     <g id="line2d_8">
      <g>
       <use style="stroke:#000000;stroke-width:0.8;" x="78.730937" xlink:href="#mf669ca7d9a" y="103.096913"/>
      </g>
     </g>
     <g id="text_9">
      <!-- 6.0 -->
      <g transform="translate(55.827812 106.896132)scale(0.1 -0.1)">
       <defs>
        <path d="M 33.015625 40.375 
Q 26.375 40.375 22.484375 35.828125 
Q 18.609375 31.296875 18.609375 23.390625 
Q 18.609375 15.53125 22.484375 10.953125 
Q 26.375 6.390625 33.015625 6.390625 
Q 39.65625 6.390625 43.53125 10.953125 
Q 47.40625 15.53125 47.40625 23.390625 
Q 47.40625 31.296875 43.53125 35.828125 
Q 39.65625 40.375 33.015625 40.375 
z
M 52.59375 71.296875 
L 52.59375 62.3125 
Q 48.875 64.0625 45.09375 64.984375 
Q 41.3125 65.921875 37.59375 65.921875 
Q 27.828125 65.921875 22.671875 59.328125 
Q 17.53125 52.734375 16.796875 39.40625 
Q 19.671875 43.65625 24.015625 45.921875 
Q 28.375 48.1875 33.59375 48.1875 
Q 44.578125 48.1875 50.953125 41.515625 
Q 57.328125 34.859375 57.328125 23.390625 
Q 57.328125 12.15625 50.6875 5.359375 
Q 44.046875 -1.421875 33.015625 -1.421875 
Q 20.359375 -1.421875 13.671875 8.265625 
Q 6.984375 17.96875 6.984375 36.375 
Q 6.984375 53.65625 15.1875 63.9375 
Q 23.390625 74.21875 37.203125 74.21875 
Q 40.921875 74.21875 44.703125 73.484375 
Q 48.484375 72.75 52.59375 71.296875 
z
" id="DejaVuSans-54"/>
       </defs>
       <use xlink:href="#DejaVuSans-54"/>
       <use x="63.623047" xlink:href="#DejaVuSans-46"/>
       <use x="95.410156" xlink:href="#DejaVuSans-48"/>
      </g>
     </g>
    </g>
    <g id="ytick_6">
     <g id="line2d_9">
      <g>
       <use style="stroke:#000000;stroke-width:0.8;" x="78.730937" xlink:href="#mf669ca7d9a" y="67.975701"/>
      </g>
     </g>
     <g id="text_10">
      <!-- 6.5 -->
      <g transform="translate(55.827812 71.77492)scale(0.1 -0.1)">
       <use xlink:href="#DejaVuSans-54"/>
       <use x="63.623047" xlink:href="#DejaVuSans-46"/>
       <use x="95.410156" xlink:href="#DejaVuSans-53"/>
      </g>
     </g>
    </g>
    <g id="ytick_7">
     <g id="line2d_10">
      <g>
       <use style="stroke:#000000;stroke-width:0.8;" x="78.730937" xlink:href="#mf669ca7d9a" y="32.854489"/>
      </g>
     </g>
     <g id="text_11">
      <!-- 7.0 -->
      <g transform="translate(55.827812 36.653707)scale(0.1 -0.1)">
       <defs>
        <path d="M 8.203125 72.90625 
L 55.078125 72.90625 
L 55.078125 68.703125 
L 28.609375 0 
L 18.3125 0 
L 43.21875 64.59375 
L 8.203125 64.59375 
z
" id="DejaVuSans-55"/>
       </defs>
       <use xlink:href="#DejaVuSans-55"/>
       <use x="63.623047" xlink:href="#DejaVuSans-46"/>
       <use x="95.410156" xlink:href="#DejaVuSans-48"/>
      </g>
     </g>
    </g>
    <g id="text_12">
     <!-- Offering2 -->
     <g transform="translate(49.748125 161.719687)rotate(-90)scale(0.1 -0.1)">
      <defs>
       <path d="M 39.40625 66.21875 
Q 28.65625 66.21875 22.328125 58.203125 
Q 16.015625 50.203125 16.015625 36.375 
Q 16.015625 22.609375 22.328125 14.59375 
Q 28.65625 6.59375 39.40625 6.59375 
Q 50.140625 6.59375 56.421875 14.59375 
Q 62.703125 22.609375 62.703125 36.375 
Q 62.703125 50.203125 56.421875 58.203125 
Q 50.140625 66.21875 39.40625 66.21875 
z
M 39.40625 74.21875 
Q 54.734375 74.21875 63.90625 63.9375 
Q 73.09375 53.65625 73.09375 36.375 
Q 73.09375 19.140625 63.90625 8.859375 
Q 54.734375 -1.421875 39.40625 -1.421875 
Q 24.03125 -1.421875 14.8125 8.828125 
Q 5.609375 19.09375 5.609375 36.375 
Q 5.609375 53.65625 14.8125 63.9375 
Q 24.03125 74.21875 39.40625 74.21875 
z
" id="DejaVuSans-79"/>
       <path d="M 37.109375 75.984375 
L 37.109375 68.5 
L 28.515625 68.5 
Q 23.6875 68.5 21.796875 66.546875 
Q 19.921875 64.59375 19.921875 59.515625 
L 19.921875 54.6875 
L 34.71875 54.6875 
L 34.71875 47.703125 
L 19.921875 47.703125 
L 19.921875 0 
L 10.890625 0 
L 10.890625 47.703125 
L 2.296875 47.703125 
L 2.296875 54.6875 
L 10.890625 54.6875 
L 10.890625 58.5 
Q 10.890625 67.625 15.140625 71.796875 
Q 19.390625 75.984375 28.609375 75.984375 
z
" id="DejaVuSans-102"/>
       <path d="M 56.203125 29.59375 
L 56.203125 25.203125 
L 14.890625 25.203125 
Q 15.484375 15.921875 20.484375 11.0625 
Q 25.484375 6.203125 34.421875 6.203125 
Q 39.59375 6.203125 44.453125 7.46875 
Q 49.3125 8.734375 54.109375 11.28125 
L 54.109375 2.78125 
Q 49.265625 0.734375 44.1875 -0.34375 
Q 39.109375 -1.421875 33.890625 -1.421875 
Q 20.796875 -1.421875 13.15625 6.1875 
Q 5.515625 13.8125 5.515625 26.8125 
Q 5.515625 40.234375 12.765625 48.109375 
Q 20.015625 56 32.328125 56 
Q 43.359375 56 49.78125 48.890625 
Q 56.203125 41.796875 56.203125 29.59375 
z
M 47.21875 32.234375 
Q 47.125 39.59375 43.09375 43.984375 
Q 39.0625 48.390625 32.421875 48.390625 
Q 24.90625 48.390625 20.390625 44.140625 
Q 15.875 39.890625 15.1875 32.171875 
z
" id="DejaVuSans-101"/>
       <path d="M 41.109375 46.296875 
Q 39.59375 47.171875 37.8125 47.578125 
Q 36.03125 48 33.890625 48 
Q 26.265625 48 22.1875 43.046875 
Q 18.109375 38.09375 18.109375 28.8125 
L 18.109375 0 
L 9.078125 0 
L 9.078125 54.6875 
L 18.109375 54.6875 
L 18.109375 46.1875 
Q 20.953125 51.171875 25.484375 53.578125 
Q 30.03125 56 36.53125 56 
Q 37.453125 56 38.578125 55.875 
Q 39.703125 55.765625 41.0625 55.515625 
z
" id="DejaVuSans-114"/>
       <path d="M 9.421875 54.6875 
L 18.40625 54.6875 
L 18.40625 0 
L 9.421875 0 
z
M 9.421875 75.984375 
L 18.40625 75.984375 
L 18.40625 64.59375 
L 9.421875 64.59375 
z
" id="DejaVuSans-105"/>
       <path d="M 54.890625 33.015625 
L 54.890625 0 
L 45.90625 0 
L 45.90625 32.71875 
Q 45.90625 40.484375 42.875 44.328125 
Q 39.84375 48.1875 33.796875 48.1875 
Q 26.515625 48.1875 22.3125 43.546875 
Q 18.109375 38.921875 18.109375 30.90625 
L 18.109375 0 
L 9.078125 0 
L 9.078125 54.6875 
L 18.109375 54.6875 
L 18.109375 46.1875 
Q 21.34375 51.125 25.703125 53.5625 
Q 30.078125 56 35.796875 56 
Q 45.21875 56 50.046875 50.171875 
Q 54.890625 44.34375 54.890625 33.015625 
z
" id="DejaVuSans-110"/>
       <path d="M 45.40625 27.984375 
Q 45.40625 37.75 41.375 43.109375 
Q 37.359375 48.484375 30.078125 48.484375 
Q 22.859375 48.484375 18.828125 43.109375 
Q 14.796875 37.75 14.796875 27.984375 
Q 14.796875 18.265625 18.828125 12.890625 
Q 22.859375 7.515625 30.078125 7.515625 
Q 37.359375 7.515625 41.375 12.890625 
Q 45.40625 18.265625 45.40625 27.984375 
z
M 54.390625 6.78125 
Q 54.390625 -7.171875 48.1875 -13.984375 
Q 42 -20.796875 29.203125 -20.796875 
Q 24.46875 -20.796875 20.265625 -20.09375 
Q 16.0625 -19.390625 12.109375 -17.921875 
L 12.109375 -9.1875 
Q 16.0625 -11.328125 19.921875 -12.34375 
Q 23.78125 -13.375 27.78125 -13.375 
Q 36.625 -13.375 41.015625 -8.765625 
Q 45.40625 -4.15625 45.40625 5.171875 
L 45.40625 9.625 
Q 42.625 4.78125 38.28125 2.390625 
Q 33.9375 0 27.875 0 
Q 17.828125 0 11.671875 7.65625 
Q 5.515625 15.328125 5.515625 27.984375 
Q 5.515625 40.671875 11.671875 48.328125 
Q 17.828125 56 27.875 56 
Q 33.9375 56 38.28125 53.609375 
Q 42.625 51.21875 45.40625 46.390625 
L 45.40625 54.6875 
L 54.390625 54.6875 
z
" id="DejaVuSans-103"/>
      </defs>
      <use xlink:href="#DejaVuSans-79"/>
      <use x="78.710938" xlink:href="#DejaVuSans-102"/>
      <use x="113.916016" xlink:href="#DejaVuSans-102"/>
      <use x="149.121094" xlink:href="#DejaVuSans-101"/>
      <use x="210.644531" xlink:href="#DejaVuSans-114"/>
      <use x="251.757812" xlink:href="#DejaVuSans-105"/>
      <use x="279.541016" xlink:href="#DejaVuSans-110"/>
      <use x="342.919922" xlink:href="#DejaVuSans-103"/>
      <use x="406.396484" xlink:href="#DejaVuSans-50"/>
     </g>
    </g>
   </g>
   <g id="line2d_11">
    <path clip-path="url(#pbe36cd39e3)" d="M 78.730937 149.184132 
L 80.423993 148.580573 
L 82.117049 147.977014 
L 83.810104 147.373455 
L 85.50316 146.769895 
L 87.196215 146.166336 
L 88.889271 145.562777 
L 90.582326 144.959218 
L 92.275382 144.355659 
L 93.968437 143.7521 
L 95.661493 143.148541 
L 97.354549 142.544982 
L 99.047604 141.941423 
L 100.74066 141.337864 
L 102.433715 140.734305 
L 104.126771 140.130745 
L 105.819826 139.527186 
L 107.512882 138.923627 
L 109.205937 138.320068 
L 110.898993 137.716509 
L 112.592049 137.11295 
L 114.285104 136.509391 
L 115.97816 135.905832 
L 117.671215 135.302273 
L 119.364271 134.698714 
L 121.057326 134.095155 
L 122.750382 133.491595 
L 124.443437 132.888036 
L 126.136493 132.284477 
L 127.829549 131.680918 
L 129.522604 131.077359 
L 131.21566 130.4738 
L 132.908715 129.870241 
L 134.601771 129.266682 
L 136.294826 128.663123 
L 137.987882 128.059564 
L 139.680937 127.456005 
L 141.373993 126.852445 
L 143.067049 126.248886 
L 144.760104 125.645327 
L 146.45316 125.041768 
L 148.146215 124.438209 
L 149.839271 123.83465 
L 151.532326 123.231091 
L 153.225382 122.627532 
L 154.918437 122.023973 
L 156.611493 121.420414 
L 158.304549 120.816855 
L 159.997604 120.213295 
L 161.69066 119.609736 
L 163.383715 119.006177 
L 165.076771 118.402618 
L 166.769826 117.799059 
L 168.462882 117.1955 
L 170.155937 116.591941 
L 171.848993 115.988382 
L 173.542049 115.384823 
L 175.235104 114.781264 
L 176.92816 114.177705 
L 178.621215 113.574146 
L 180.314271 112.970586 
L 182.007326 112.367027 
L 183.700382 111.763468 
L 185.393437 111.159909 
L 187.086493 110.55635 
L 188.779549 109.952791 
L 190.472604 109.349232 
L 192.16566 108.745673 
L 193.858715 108.142114 
L 195.551771 107.538555 
L 197.244826 106.934996 
L 198.937882 106.331436 
L 200.630937 105.727877 
L 202.323993 105.124318 
L 204.017049 104.520759 
L 205.710104 103.9172 
L 207.40316 103.313641 
L 209.096215 102.710082 
L 210.789271 102.106523 
L 212.482326 101.502964 
L 214.175382 100.899405 
L 215.868437 100.295846 
L 217.561493 99.692286 
L 219.254549 99.088727 
L 220.947604 98.485168 
L 222.64066 97.881609 
L 224.333715 97.27805 
L 226.026771 96.674491 
L 227.719826 96.070932 
L 229.412882 95.467373 
L 231.105937 94.863814 
L 232.798993 94.260255 
L 234.492049 93.656696 
L 236.185104 93.053136 
L 237.87816 92.449577 
L 239.571215 91.846018 
L 241.264271 91.242459 
L 242.957326 90.6389 
L 244.650382 90.035341 
L 246.343437 89.431782 
" style="fill:none;stroke:#1f77b4;stroke-linecap:square;stroke-width:2.25;"/>
   </g>
   <g id="patch_3">
    <path d="M 78.730937 254.118125 
L 78.730937 22.318125 
" style="fill:none;stroke:#000000;stroke-linecap:square;stroke-linejoin:miter;stroke-width:0.8;"/>
   </g>
   <g id="patch_4">
    <path d="M 246.343437 254.118125 
L 246.343437 22.318125 
" style="fill:none;stroke:#000000;stroke-linecap:square;stroke-linejoin:miter;stroke-width:0.8;"/>
   </g>
   <g id="patch_5">
    <path d="M 78.730937 254.118125 
L 246.343437 254.118125 
" style="fill:none;stroke:#000000;stroke-linecap:square;stroke-linejoin:miter;stroke-width:0.8;"/>
   </g>
   <g id="patch_6">
    <path d="M 78.730937 22.318125 
L 246.343437 22.318125 
" style="fill:none;stroke:#000000;stroke-linecap:square;stroke-linejoin:miter;stroke-width:0.8;"/>
   </g>
   <g id="text_13">
    <!-- Group A -->
    <g transform="translate(78.730937 16.318125)scale(0.12 -0.12)">
     <defs>
      <path d="M 59.515625 10.40625 
L 59.515625 29.984375 
L 43.40625 29.984375 
L 43.40625 38.09375 
L 69.28125 38.09375 
L 69.28125 6.78125 
Q 63.578125 2.734375 56.6875 0.65625 
Q 49.8125 -1.421875 42 -1.421875 
Q 24.90625 -1.421875 15.25 8.5625 
Q 5.609375 18.5625 5.609375 36.375 
Q 5.609375 54.25 15.25 64.234375 
Q 24.90625 74.21875 42 74.21875 
Q 49.125 74.21875 55.546875 72.453125 
Q 61.96875 70.703125 67.390625 67.28125 
L 67.390625 56.78125 
Q 61.921875 61.421875 55.765625 63.765625 
Q 49.609375 66.109375 42.828125 66.109375 
Q 29.4375 66.109375 22.71875 58.640625 
Q 16.015625 51.171875 16.015625 36.375 
Q 16.015625 21.625 22.71875 14.15625 
Q 29.4375 6.6875 42.828125 6.6875 
Q 48.046875 6.6875 52.140625 7.59375 
Q 56.25 8.5 59.515625 10.40625 
z
" id="DejaVuSans-71"/>
      <path d="M 30.609375 48.390625 
Q 23.390625 48.390625 19.1875 42.75 
Q 14.984375 37.109375 14.984375 27.296875 
Q 14.984375 17.484375 19.15625 11.84375 
Q 23.34375 6.203125 30.609375 6.203125 
Q 37.796875 6.203125 41.984375 11.859375 
Q 46.1875 17.53125 46.1875 27.296875 
Q 46.1875 37.015625 41.984375 42.703125 
Q 37.796875 48.390625 30.609375 48.390625 
z
M 30.609375 56 
Q 42.328125 56 49.015625 48.375 
Q 55.71875 40.765625 55.71875 27.296875 
Q 55.71875 13.875 49.015625 6.21875 
Q 42.328125 -1.421875 30.609375 -1.421875 
Q 18.84375 -1.421875 12.171875 6.21875 
Q 5.515625 13.875 5.515625 27.296875 
Q 5.515625 40.765625 12.171875 48.375 
Q 18.84375 56 30.609375 56 
z
" id="DejaVuSans-111"/>
      <path d="M 8.5 21.578125 
L 8.5 54.6875 
L 17.484375 54.6875 
L 17.484375 21.921875 
Q 17.484375 14.15625 20.5 10.265625 
Q 23.53125 6.390625 29.59375 6.390625 
Q 36.859375 6.390625 41.078125 11.03125 
Q 45.3125 15.671875 45.3125 23.6875 
L 45.3125 54.6875 
L 54.296875 54.6875 
L 54.296875 0 
L 45.3125 0 
L 45.3125 8.40625 
Q 42.046875 3.421875 37.71875 1 
Q 33.40625 -1.421875 27.6875 -1.421875 
Q 18.265625 -1.421875 13.375 4.4375 
Q 8.5 10.296875 8.5 21.578125 
z
M 31.109375 56 
z
" id="DejaVuSans-117"/>
      <path d="M 18.109375 8.203125 
L 18.109375 -20.796875 
L 9.078125 -20.796875 
L 9.078125 54.6875 
L 18.109375 54.6875 
L 18.109375 46.390625 
Q 20.953125 51.265625 25.265625 53.625 
Q 29.59375 56 35.59375 56 
Q 45.5625 56 51.78125 48.09375 
Q 58.015625 40.1875 58.015625 27.296875 
Q 58.015625 14.40625 51.78125 6.484375 
Q 45.5625 -1.421875 35.59375 -1.421875 
Q 29.59375 -1.421875 25.265625 0.953125 
Q 20.953125 3.328125 18.109375 8.203125 
z
M 48.6875 27.296875 
Q 48.6875 37.203125 44.609375 42.84375 
Q 40.53125 48.484375 33.40625 48.484375 
Q 26.265625 48.484375 22.1875 42.84375 
Q 18.109375 37.203125 18.109375 27.296875 
Q 18.109375 17.390625 22.1875 11.75 
Q 26.265625 6.109375 33.40625 6.109375 
Q 40.53125 6.109375 44.609375 11.75 
Q 48.6875 17.390625 48.6875 27.296875 
z
" id="DejaVuSans-112"/>
      <path id="DejaVuSans-32"/>
      <path d="M 34.1875 63.1875 
L 20.796875 26.90625 
L 47.609375 26.90625 
z
M 28.609375 72.90625 
L 39.796875 72.90625 
L 67.578125 0 
L 57.328125 0 
L 50.6875 18.703125 
L 17.828125 18.703125 
L 11.1875 0 
L 0.78125 0 
z
" id="DejaVuSans-65"/>
     </defs>
     <use xlink:href="#DejaVuSans-71"/>
     <use x="77.490234" xlink:href="#DejaVuSans-114"/>
     <use x="116.353516" xlink:href="#DejaVuSans-111"/>
     <use x="177.535156" xlink:href="#DejaVuSans-117"/>
     <use x="240.914062" xlink:href="#DejaVuSans-112"/>
     <use x="304.390625" xlink:href="#DejaVuSans-32"/>
     <use x="336.177734" xlink:href="#DejaVuSans-65"/>
    </g>
   </g>
  </g>
  <g id="axes_2">
   <g id="patch_7">
    <path d="M 284.518437 254.118125 
L 452.130937 254.118125 
L 452.130937 22.318125 
L 284.518437 22.318125 
z
" style="fill:#ffffff;"/>
   </g>
   <g id="PathCollection_2">
    <g clip-path="url(#p8d671d262b)">
     <use style="fill:#1f77b4;fill-opacity:0.8;stroke:#1f77b4;stroke-opacity:0.8;" x="284.518437" xlink:href="#m3e2255eaa8" y="159.678449"/>
     <use style="fill:#1f77b4;fill-opacity:0.8;stroke:#1f77b4;stroke-opacity:0.8;" x="297.411707" xlink:href="#m3e2255eaa8" y="117.726792"/>
     <use style="fill:#1f77b4;fill-opacity:0.8;stroke:#1f77b4;stroke-opacity:0.8;" x="413.45113" xlink:href="#m3e2255eaa8" y="75.775136"/>
     <use style="fill:#1f77b4;fill-opacity:0.8;stroke:#1f77b4;stroke-opacity:0.8;" x="374.771322" xlink:href="#m3e2255eaa8" y="117.726792"/>
     <use style="fill:#1f77b4;fill-opacity:0.8;stroke:#1f77b4;stroke-opacity:0.8;" x="348.984784" xlink:href="#m3e2255eaa8" y="75.775136"/>
     <use style="fill:#1f77b4;fill-opacity:0.8;stroke:#1f77b4;stroke-opacity:0.8;" x="413.45113" xlink:href="#m3e2255eaa8" y="75.775136"/>
     <use style="fill:#1f77b4;fill-opacity:0.8;stroke:#1f77b4;stroke-opacity:0.8;" x="348.984784" xlink:href="#m3e2255eaa8" y="75.775136"/>
     <use style="fill:#1f77b4;fill-opacity:0.8;stroke:#1f77b4;stroke-opacity:0.8;" x="374.771322" xlink:href="#m3e2255eaa8" y="243.581761"/>
     <use style="fill:#1f77b4;fill-opacity:0.8;stroke:#1f77b4;stroke-opacity:0.8;" x="374.771322" xlink:href="#m3e2255eaa8" y="33.82348"/>
     <use style="fill:#1f77b4;fill-opacity:0.8;stroke:#1f77b4;stroke-opacity:0.8;" x="400.557861" xlink:href="#m3e2255eaa8" y="33.82348"/>
     <use style="fill:#1f77b4;fill-opacity:0.8;stroke:#1f77b4;stroke-opacity:0.8;" x="374.771322" xlink:href="#m3e2255eaa8" y="117.726792"/>
     <use style="fill:#1f77b4;fill-opacity:0.8;stroke:#1f77b4;stroke-opacity:0.8;" x="413.45113" xlink:href="#m3e2255eaa8" y="75.775136"/>
     <use style="fill:#1f77b4;fill-opacity:0.8;stroke:#1f77b4;stroke-opacity:0.8;" x="374.771322" xlink:href="#m3e2255eaa8" y="159.678449"/>
     <use style="fill:#1f77b4;fill-opacity:0.8;stroke:#1f77b4;stroke-opacity:0.8;" x="426.344399" xlink:href="#m3e2255eaa8" y="75.775136"/>
     <use style="fill:#1f77b4;fill-opacity:0.8;stroke:#1f77b4;stroke-opacity:0.8;" x="387.664591" xlink:href="#m3e2255eaa8" y="75.775136"/>
     <use style="fill:#1f77b4;fill-opacity:0.8;stroke:#1f77b4;stroke-opacity:0.8;" x="426.344399" xlink:href="#m3e2255eaa8" y="75.775136"/>
     <use style="fill:#1f77b4;fill-opacity:0.8;stroke:#1f77b4;stroke-opacity:0.8;" x="387.664591" xlink:href="#m3e2255eaa8" y="117.726792"/>
     <use style="fill:#1f77b4;fill-opacity:0.8;stroke:#1f77b4;stroke-opacity:0.8;" x="348.984784" xlink:href="#m3e2255eaa8" y="75.775136"/>
     <use style="fill:#1f77b4;fill-opacity:0.8;stroke:#1f77b4;stroke-opacity:0.8;" x="400.557861" xlink:href="#m3e2255eaa8" y="33.82348"/>
     <use style="fill:#1f77b4;fill-opacity:0.8;stroke:#1f77b4;stroke-opacity:0.8;" x="310.304976" xlink:href="#m3e2255eaa8" y="243.581761"/>
     <use style="fill:#1f77b4;fill-opacity:0.8;stroke:#1f77b4;stroke-opacity:0.8;" x="452.130937" xlink:href="#m3e2255eaa8" y="117.726792"/>
     <use style="fill:#1f77b4;fill-opacity:0.8;stroke:#1f77b4;stroke-opacity:0.8;" x="348.984784" xlink:href="#m3e2255eaa8" y="75.775136"/>
     <use style="fill:#1f77b4;fill-opacity:0.8;stroke:#1f77b4;stroke-opacity:0.8;" x="400.557861" xlink:href="#m3e2255eaa8" y="33.82348"/>
     <use style="fill:#1f77b4;fill-opacity:0.8;stroke:#1f77b4;stroke-opacity:0.8;" x="413.45113" xlink:href="#m3e2255eaa8" y="159.678449"/>
     <use style="fill:#1f77b4;fill-opacity:0.8;stroke:#1f77b4;stroke-opacity:0.8;" x="413.45113" xlink:href="#m3e2255eaa8" y="117.726792"/>
     <use style="fill:#1f77b4;fill-opacity:0.8;stroke:#1f77b4;stroke-opacity:0.8;" x="348.984784" xlink:href="#m3e2255eaa8" y="75.775136"/>
     <use style="fill:#1f77b4;fill-opacity:0.8;stroke:#1f77b4;stroke-opacity:0.8;" x="348.984784" xlink:href="#m3e2255eaa8" y="75.775136"/>
     <use style="fill:#1f77b4;fill-opacity:0.8;stroke:#1f77b4;stroke-opacity:0.8;" x="348.984784" xlink:href="#m3e2255eaa8" y="75.775136"/>
     <use style="fill:#1f77b4;fill-opacity:0.8;stroke:#1f77b4;stroke-opacity:0.8;" x="413.45113" xlink:href="#m3e2255eaa8" y="75.775136"/>
     <use style="fill:#1f77b4;fill-opacity:0.8;stroke:#1f77b4;stroke-opacity:0.8;" x="413.45113" xlink:href="#m3e2255eaa8" y="75.775136"/>
     <use style="fill:#1f77b4;fill-opacity:0.8;stroke:#1f77b4;stroke-opacity:0.8;" x="284.518437" xlink:href="#m3e2255eaa8" y="117.726792"/>
     <use style="fill:#1f77b4;fill-opacity:0.8;stroke:#1f77b4;stroke-opacity:0.8;" x="361.878053" xlink:href="#m3e2255eaa8" y="117.726792"/>
     <use style="fill:#1f77b4;fill-opacity:0.8;stroke:#1f77b4;stroke-opacity:0.8;" x="387.664591" xlink:href="#m3e2255eaa8" y="117.726792"/>
     <use style="fill:#1f77b4;fill-opacity:0.8;stroke:#1f77b4;stroke-opacity:0.8;" x="348.984784" xlink:href="#m3e2255eaa8" y="117.726792"/>
     <use style="fill:#1f77b4;fill-opacity:0.8;stroke:#1f77b4;stroke-opacity:0.8;" x="374.771322" xlink:href="#m3e2255eaa8" y="75.775136"/>
     <use style="fill:#1f77b4;fill-opacity:0.8;stroke:#1f77b4;stroke-opacity:0.8;" x="361.878053" xlink:href="#m3e2255eaa8" y="75.775136"/>
     <use style="fill:#1f77b4;fill-opacity:0.8;stroke:#1f77b4;stroke-opacity:0.8;" x="348.984784" xlink:href="#m3e2255eaa8" y="117.726792"/>
     <use style="fill:#1f77b4;fill-opacity:0.8;stroke:#1f77b4;stroke-opacity:0.8;" x="400.557861" xlink:href="#m3e2255eaa8" y="33.82348"/>
     <use style="fill:#1f77b4;fill-opacity:0.8;stroke:#1f77b4;stroke-opacity:0.8;" x="348.984784" xlink:href="#m3e2255eaa8" y="75.775136"/>
     <use style="fill:#1f77b4;fill-opacity:0.8;stroke:#1f77b4;stroke-opacity:0.8;" x="348.984784" xlink:href="#m3e2255eaa8" y="117.726792"/>
     <use style="fill:#1f77b4;fill-opacity:0.8;stroke:#1f77b4;stroke-opacity:0.8;" x="348.984784" xlink:href="#m3e2255eaa8" y="33.82348"/>
     <use style="fill:#1f77b4;fill-opacity:0.8;stroke:#1f77b4;stroke-opacity:0.8;" x="413.45113" xlink:href="#m3e2255eaa8" y="33.82348"/>
    </g>
   </g>
   <g id="PolyCollection_2">
    <path clip-path="url(#p8d671d262b)" d="M 284.518437 96.847896 
L 284.518437 170.456336 
L 286.211493 169.254154 
L 287.904549 168.017555 
L 289.597604 166.620157 
L 291.29066 165.193359 
L 292.983715 163.766561 
L 294.676771 162.367681 
L 296.369826 161.131379 
L 298.062882 159.887075 
L 299.755937 158.642771 
L 301.448993 157.334636 
L 303.142049 156.161921 
L 304.835104 154.930224 
L 306.52816 153.780219 
L 308.221215 152.704466 
L 309.914271 151.431476 
L 311.607326 150.001985 
L 313.300382 148.87993 
L 314.993437 147.750337 
L 316.686493 146.422401 
L 318.379549 145.045703 
L 320.072604 143.859999 
L 321.76566 142.726351 
L 323.458715 141.584033 
L 325.151771 140.200813 
L 326.844826 138.862299 
L 328.537882 137.625054 
L 330.230937 136.415188 
L 331.923993 135.151203 
L 333.617049 133.924003 
L 335.310104 132.761899 
L 337.00316 131.658978 
L 338.696215 130.556057 
L 340.389271 129.450259 
L 342.082326 127.817678 
L 343.775382 126.638591 
L 345.468437 125.68396 
L 347.161493 124.602925 
L 348.854549 123.329111 
L 350.547604 122.048864 
L 352.24066 121.09648 
L 353.933715 119.750927 
L 355.626771 118.650349 
L 357.319826 117.947201 
L 359.012882 117.129136 
L 360.705938 116.038887 
L 362.398993 115.226124 
L 364.092049 114.300872 
L 365.785104 113.231581 
L 367.47816 112.238263 
L 369.171215 111.20658 
L 370.864271 110.677183 
L 372.557326 109.765063 
L 374.250382 109.111443 
L 375.943437 108.516321 
L 377.636493 107.672132 
L 379.329549 106.831721 
L 381.022604 106.33451 
L 382.71566 105.402366 
L 384.408715 104.819971 
L 386.101771 104.151403 
L 387.794826 103.391816 
L 389.487882 102.698721 
L 391.180937 102.224069 
L 392.873993 101.686068 
L 394.567049 101.353752 
L 396.260104 101.040593 
L 397.95316 100.446775 
L 399.646215 99.808484 
L 401.339271 99.305651 
L 403.032326 98.767676 
L 404.725382 98.357426 
L 406.418437 97.729322 
L 408.111493 97.428226 
L 409.804549 97.222996 
L 411.497604 97.034543 
L 413.19066 96.859675 
L 414.883715 96.466681 
L 416.576771 96.282405 
L 418.269826 96.348583 
L 419.962882 96.2457 
L 421.655937 96.002306 
L 423.348993 95.778988 
L 425.042049 95.648286 
L 426.735104 95.51176 
L 428.42816 95.288876 
L 430.121215 95.020635 
L 431.814271 94.780269 
L 433.507326 94.659971 
L 435.200382 94.4167 
L 436.893438 94.338052 
L 438.586493 94.29908 
L 440.279549 94.028653 
L 441.972604 93.804565 
L 443.66566 93.706056 
L 445.358715 93.607547 
L 447.051771 93.488763 
L 448.744826 93.327335 
L 450.437882 93.162383 
L 452.130937 92.91308 
L 452.130937 32.854489 
L 452.130937 32.854489 
L 450.437882 34.486321 
L 448.744826 35.897558 
L 447.051771 36.979897 
L 445.358715 38.026342 
L 443.66566 39.072786 
L 441.972604 40.119231 
L 440.279549 41.205031 
L 438.586493 42.731624 
L 436.893438 44.195578 
L 435.200382 45.173611 
L 433.507326 46.263812 
L 431.814271 47.596143 
L 430.121215 49.003476 
L 428.42816 49.98447 
L 426.735104 50.965463 
L 425.042049 52.125744 
L 423.348993 53.320596 
L 421.655937 54.679743 
L 419.962882 55.603588 
L 418.269826 56.65114 
L 416.576771 57.864258 
L 414.883715 58.963112 
L 413.19066 60.02718 
L 411.497604 61.134909 
L 409.804549 62.348112 
L 408.111493 63.505387 
L 406.418437 64.641638 
L 404.725382 65.816935 
L 403.032326 66.647745 
L 401.339271 67.669696 
L 399.646215 68.89246 
L 397.95316 69.785645 
L 396.260104 70.828313 
L 394.567049 71.816393 
L 392.873993 72.707225 
L 391.180937 73.561021 
L 389.487882 74.420344 
L 387.794826 75.519774 
L 386.101771 76.444145 
L 384.408715 77.032416 
L 382.71566 77.787437 
L 381.022604 78.424879 
L 379.329549 79.102214 
L 377.636493 79.863572 
L 375.943437 80.434167 
L 374.250382 81.156762 
L 372.557326 81.707081 
L 370.864271 82.271042 
L 369.171215 82.791118 
L 367.47816 83.307524 
L 365.785104 84.088546 
L 364.092049 84.520833 
L 362.398993 85.03626 
L 360.705938 85.378058 
L 359.012882 85.722903 
L 357.319826 86.138976 
L 355.626771 86.619755 
L 353.933715 87.124559 
L 352.24066 87.581572 
L 350.547604 88.055157 
L 348.854549 88.232478 
L 347.161493 88.454102 
L 345.468437 88.749516 
L 343.775382 89.010777 
L 342.082326 89.113176 
L 340.389271 89.416912 
L 338.696215 89.622761 
L 337.00316 89.886831 
L 335.310104 90.241942 
L 333.617049 90.233904 
L 331.923993 90.535438 
L 330.230937 90.886219 
L 328.537882 91.240396 
L 326.844826 91.378 
L 325.151771 91.73728 
L 323.458715 92.107174 
L 321.76566 92.409288 
L 320.072604 92.364208 
L 318.379549 92.825684 
L 316.686493 93.129687 
L 314.993437 93.101142 
L 313.300382 93.221031 
L 311.607326 93.596094 
L 309.914271 93.972574 
L 308.221215 94.325649 
L 306.52816 94.50726 
L 304.835104 94.666562 
L 303.142049 94.815459 
L 301.448993 94.964357 
L 299.755937 95.117422 
L 298.062882 95.256045 
L 296.369826 95.411838 
L 294.676771 95.670764 
L 292.983715 95.92969 
L 291.29066 96.123842 
L 289.597604 96.306577 
L 287.904549 96.540517 
L 286.211493 96.712556 
L 284.518437 96.847896 
z
" style="fill:#1f77b4;fill-opacity:0.15;"/>
   </g>
   <g id="matplotlib.axis_3">
    <g id="xtick_4">
     <g id="line2d_12">
      <g>
       <use style="stroke:#000000;stroke-width:0.8;" x="323.198245" xlink:href="#m224c689834" y="254.118125"/>
      </g>
     </g>
     <g id="text_14">
      <!-- 2 -->
      <g transform="translate(320.016995 268.716562)scale(0.1 -0.1)">
       <use xlink:href="#DejaVuSans-50"/>
      </g>
     </g>
    </g>
    <g id="xtick_5">
     <g id="line2d_13">
      <g>
       <use style="stroke:#000000;stroke-width:0.8;" x="374.771322" xlink:href="#m224c689834" y="254.118125"/>
      </g>
     </g>
     <g id="text_15">
      <!-- 3 -->
      <g transform="translate(371.590072 268.716562)scale(0.1 -0.1)">
       <use xlink:href="#DejaVuSans-51"/>
      </g>
     </g>
    </g>
    <g id="xtick_6">
     <g id="line2d_14">
      <g>
       <use style="stroke:#000000;stroke-width:0.8;" x="426.344399" xlink:href="#m224c689834" y="254.118125"/>
      </g>
     </g>
     <g id="text_16">
      <!-- 4 -->
      <g transform="translate(423.163149 268.716562)scale(0.1 -0.1)">
       <use xlink:href="#DejaVuSans-52"/>
      </g>
     </g>
    </g>
    <g id="text_17">
     <!-- E -->
     <g transform="translate(365.165312 282.394687)scale(0.1 -0.1)">
      <use xlink:href="#DejaVuSans-69"/>
     </g>
    </g>
   </g>
   <g id="matplotlib.axis_4">
    <g id="ytick_8">
     <g id="line2d_15">
      <g>
       <use style="stroke:#000000;stroke-width:0.8;" x="284.518437" xlink:href="#mf669ca7d9a" y="243.581761"/>
      </g>
     </g>
     <g id="text_18">
      <!-- 2 -->
      <g transform="translate(271.155937 247.38098)scale(0.1 -0.1)">
       <use xlink:href="#DejaVuSans-50"/>
      </g>
     </g>
    </g>
    <g id="ytick_9">
     <g id="line2d_16">
      <g>
       <use style="stroke:#000000;stroke-width:0.8;" x="284.518437" xlink:href="#mf669ca7d9a" y="201.630105"/>
      </g>
     </g>
     <g id="text_19">
      <!-- 3 -->
      <g transform="translate(271.155937 205.429324)scale(0.1 -0.1)">
       <use xlink:href="#DejaVuSans-51"/>
      </g>
     </g>
    </g>
    <g id="ytick_10">
     <g id="line2d_17">
      <g>
       <use style="stroke:#000000;stroke-width:0.8;" x="284.518437" xlink:href="#mf669ca7d9a" y="159.678449"/>
      </g>
     </g>
     <g id="text_20">
      <!-- 4 -->
      <g transform="translate(271.155937 163.477667)scale(0.1 -0.1)">
       <use xlink:href="#DejaVuSans-52"/>
      </g>
     </g>
    </g>
    <g id="ytick_11">
     <g id="line2d_18">
      <g>
       <use style="stroke:#000000;stroke-width:0.8;" x="284.518437" xlink:href="#mf669ca7d9a" y="117.726792"/>
      </g>
     </g>
     <g id="text_21">
      <!-- 5 -->
      <g transform="translate(271.155937 121.526011)scale(0.1 -0.1)">
       <use xlink:href="#DejaVuSans-53"/>
      </g>
     </g>
    </g>
    <g id="ytick_12">
     <g id="line2d_19">
      <g>
       <use style="stroke:#000000;stroke-width:0.8;" x="284.518437" xlink:href="#mf669ca7d9a" y="75.775136"/>
      </g>
     </g>
     <g id="text_22">
      <!-- 6 -->
      <g transform="translate(271.155937 79.574355)scale(0.1 -0.1)">
       <use xlink:href="#DejaVuSans-54"/>
      </g>
     </g>
    </g>
    <g id="ytick_13">
     <g id="line2d_20">
      <g>
       <use style="stroke:#000000;stroke-width:0.8;" x="284.518437" xlink:href="#mf669ca7d9a" y="33.82348"/>
      </g>
     </g>
     <g id="text_23">
      <!-- 7 -->
      <g transform="translate(271.155937 37.622698)scale(0.1 -0.1)">
       <use xlink:href="#DejaVuSans-55"/>
      </g>
     </g>
    </g>
    <g id="text_24">
     <!-- Offering2 -->
     <g transform="translate(265.07625 161.719687)rotate(-90)scale(0.1 -0.1)">
      <use xlink:href="#DejaVuSans-79"/>
      <use x="78.710938" xlink:href="#DejaVuSans-102"/>
      <use x="113.916016" xlink:href="#DejaVuSans-102"/>
      <use x="149.121094" xlink:href="#DejaVuSans-101"/>
      <use x="210.644531" xlink:href="#DejaVuSans-114"/>
      <use x="251.757812" xlink:href="#DejaVuSans-105"/>
      <use x="279.541016" xlink:href="#DejaVuSans-110"/>
      <use x="342.919922" xlink:href="#DejaVuSans-103"/>
      <use x="406.396484" xlink:href="#DejaVuSans-50"/>
     </g>
    </g>
   </g>
   <g id="line2d_21">
    <path clip-path="url(#p8d671d262b)" d="M 284.518437 130.503423 
L 286.211493 129.828192 
L 287.904549 129.15296 
L 289.597604 128.477729 
L 291.29066 127.802498 
L 292.983715 127.127267 
L 294.676771 126.452035 
L 296.369826 125.776804 
L 298.062882 125.101573 
L 299.755937 124.426341 
L 301.448993 123.75111 
L 303.142049 123.075879 
L 304.835104 122.400648 
L 306.52816 121.725416 
L 308.221215 121.050185 
L 309.914271 120.374954 
L 311.607326 119.699723 
L 313.300382 119.024491 
L 314.993437 118.34926 
L 316.686493 117.674029 
L 318.379549 116.998798 
L 320.072604 116.323566 
L 321.76566 115.648335 
L 323.458715 114.973104 
L 325.151771 114.297872 
L 326.844826 113.622641 
L 328.537882 112.94741 
L 330.230937 112.272179 
L 331.923993 111.596947 
L 333.617049 110.921716 
L 335.310104 110.246485 
L 337.00316 109.571254 
L 338.696215 108.896022 
L 340.389271 108.220791 
L 342.082326 107.54556 
L 343.775382 106.870328 
L 345.468437 106.195097 
L 347.161493 105.519866 
L 348.854549 104.844635 
L 350.547604 104.169403 
L 352.24066 103.494172 
L 353.933715 102.818941 
L 355.626771 102.14371 
L 357.319826 101.468478 
L 359.012882 100.793247 
L 360.705938 100.118016 
L 362.398993 99.442785 
L 364.092049 98.767553 
L 365.785104 98.092322 
L 367.47816 97.417091 
L 369.171215 96.741859 
L 370.864271 96.066628 
L 372.557326 95.391397 
L 374.250382 94.716166 
L 375.943437 94.040934 
L 377.636493 93.365703 
L 379.329549 92.690472 
L 381.022604 92.015241 
L 382.71566 91.340009 
L 384.408715 90.664778 
L 386.101771 89.989547 
L 387.794826 89.314316 
L 389.487882 88.639084 
L 391.180937 87.963853 
L 392.873993 87.288622 
L 394.567049 86.61339 
L 396.260104 85.938159 
L 397.95316 85.262928 
L 399.646215 84.587697 
L 401.339271 83.912465 
L 403.032326 83.237234 
L 404.725382 82.562003 
L 406.418437 81.886772 
L 408.111493 81.21154 
L 409.804549 80.536309 
L 411.497604 79.861078 
L 413.19066 79.185846 
L 414.883715 78.510615 
L 416.576771 77.835384 
L 418.269826 77.160153 
L 419.962882 76.484921 
L 421.655937 75.80969 
L 423.348993 75.134459 
L 425.042049 74.459228 
L 426.735104 73.783996 
L 428.42816 73.108765 
L 430.121215 72.433534 
L 431.814271 71.758303 
L 433.507326 71.083071 
L 435.200382 70.40784 
L 436.893438 69.732609 
L 438.586493 69.057377 
L 440.279549 68.382146 
L 441.972604 67.706915 
L 443.66566 67.031684 
L 445.358715 66.356452 
L 447.051771 65.681221 
L 448.744826 65.00599 
L 450.437882 64.330759 
L 452.130937 63.655527 
" style="fill:none;stroke:#1f77b4;stroke-linecap:square;stroke-width:2.25;"/>
   </g>
   <g id="patch_8">
    <path d="M 284.518437 254.118125 
L 284.518437 22.318125 
" style="fill:none;stroke:#000000;stroke-linecap:square;stroke-linejoin:miter;stroke-width:0.8;"/>
   </g>
   <g id="patch_9">
    <path d="M 452.130937 254.118125 
L 452.130937 22.318125 
" style="fill:none;stroke:#000000;stroke-linecap:square;stroke-linejoin:miter;stroke-width:0.8;"/>
   </g>
   <g id="patch_10">
    <path d="M 284.518437 254.118125 
L 452.130937 254.118125 
" style="fill:none;stroke:#000000;stroke-linecap:square;stroke-linejoin:miter;stroke-width:0.8;"/>
   </g>
   <g id="patch_11">
    <path d="M 284.518437 22.318125 
L 452.130937 22.318125 
" style="fill:none;stroke:#000000;stroke-linecap:square;stroke-linejoin:miter;stroke-width:0.8;"/>
   </g>
   <g id="text_25">
    <!-- Group B -->
    <g transform="translate(284.518437 16.318125)scale(0.12 -0.12)">
     <defs>
      <path d="M 19.671875 34.8125 
L 19.671875 8.109375 
L 35.5 8.109375 
Q 43.453125 8.109375 47.28125 11.40625 
Q 51.125 14.703125 51.125 21.484375 
Q 51.125 28.328125 47.28125 31.5625 
Q 43.453125 34.8125 35.5 34.8125 
z
M 19.671875 64.796875 
L 19.671875 42.828125 
L 34.28125 42.828125 
Q 41.5 42.828125 45.03125 45.53125 
Q 48.578125 48.25 48.578125 53.8125 
Q 48.578125 59.328125 45.03125 62.0625 
Q 41.5 64.796875 34.28125 64.796875 
z
M 9.8125 72.90625 
L 35.015625 72.90625 
Q 46.296875 72.90625 52.390625 68.21875 
Q 58.5 63.53125 58.5 54.890625 
Q 58.5 48.1875 55.375 44.234375 
Q 52.25 40.28125 46.1875 39.3125 
Q 53.46875 37.75 57.5 32.78125 
Q 61.53125 27.828125 61.53125 20.40625 
Q 61.53125 10.640625 54.890625 5.3125 
Q 48.25 0 35.984375 0 
L 9.8125 0 
z
" id="DejaVuSans-66"/>
     </defs>
     <use xlink:href="#DejaVuSans-71"/>
     <use x="77.490234" xlink:href="#DejaVuSans-114"/>
     <use x="116.353516" xlink:href="#DejaVuSans-111"/>
     <use x="177.535156" xlink:href="#DejaVuSans-117"/>
     <use x="240.914062" xlink:href="#DejaVuSans-112"/>
     <use x="304.390625" xlink:href="#DejaVuSans-32"/>
     <use x="336.177734" xlink:href="#DejaVuSans-66"/>
    </g>
   </g>
  </g>
  <g id="text_26">
   <!-- How probable is it that you would accept the chatbots offer to help find a bike? -->
   <g transform="translate(7.2 22.79625)scale(0.12 -0.12)">
    <defs>
     <path d="M 9.8125 72.90625 
L 19.671875 72.90625 
L 19.671875 43.015625 
L 55.515625 43.015625 
L 55.515625 72.90625 
L 65.375 72.90625 
L 65.375 0 
L 55.515625 0 
L 55.515625 34.71875 
L 19.671875 34.71875 
L 19.671875 0 
L 9.8125 0 
z
" id="DejaVuSans-72"/>
     <path d="M 4.203125 54.6875 
L 13.1875 54.6875 
L 24.421875 12.015625 
L 35.59375 54.6875 
L 46.1875 54.6875 
L 57.421875 12.015625 
L 68.609375 54.6875 
L 77.59375 54.6875 
L 63.28125 0 
L 52.6875 0 
L 40.921875 44.828125 
L 29.109375 0 
L 18.5 0 
z
" id="DejaVuSans-119"/>
     <path d="M 48.6875 27.296875 
Q 48.6875 37.203125 44.609375 42.84375 
Q 40.53125 48.484375 33.40625 48.484375 
Q 26.265625 48.484375 22.1875 42.84375 
Q 18.109375 37.203125 18.109375 27.296875 
Q 18.109375 17.390625 22.1875 11.75 
Q 26.265625 6.109375 33.40625 6.109375 
Q 40.53125 6.109375 44.609375 11.75 
Q 48.6875 17.390625 48.6875 27.296875 
z
M 18.109375 46.390625 
Q 20.953125 51.265625 25.265625 53.625 
Q 29.59375 56 35.59375 56 
Q 45.5625 56 51.78125 48.09375 
Q 58.015625 40.1875 58.015625 27.296875 
Q 58.015625 14.40625 51.78125 6.484375 
Q 45.5625 -1.421875 35.59375 -1.421875 
Q 29.59375 -1.421875 25.265625 0.953125 
Q 20.953125 3.328125 18.109375 8.203125 
L 18.109375 0 
L 9.078125 0 
L 9.078125 75.984375 
L 18.109375 75.984375 
z
" id="DejaVuSans-98"/>
     <path d="M 34.28125 27.484375 
Q 23.390625 27.484375 19.1875 25 
Q 14.984375 22.515625 14.984375 16.5 
Q 14.984375 11.71875 18.140625 8.90625 
Q 21.296875 6.109375 26.703125 6.109375 
Q 34.1875 6.109375 38.703125 11.40625 
Q 43.21875 16.703125 43.21875 25.484375 
L 43.21875 27.484375 
z
M 52.203125 31.203125 
L 52.203125 0 
L 43.21875 0 
L 43.21875 8.296875 
Q 40.140625 3.328125 35.546875 0.953125 
Q 30.953125 -1.421875 24.3125 -1.421875 
Q 15.921875 -1.421875 10.953125 3.296875 
Q 6 8.015625 6 15.921875 
Q 6 25.140625 12.171875 29.828125 
Q 18.359375 34.515625 30.609375 34.515625 
L 43.21875 34.515625 
L 43.21875 35.40625 
Q 43.21875 41.609375 39.140625 45 
Q 35.0625 48.390625 27.6875 48.390625 
Q 23 48.390625 18.546875 47.265625 
Q 14.109375 46.140625 10.015625 43.890625 
L 10.015625 52.203125 
Q 14.9375 54.109375 19.578125 55.046875 
Q 24.21875 56 28.609375 56 
Q 40.484375 56 46.34375 49.84375 
Q 52.203125 43.703125 52.203125 31.203125 
z
" id="DejaVuSans-97"/>
     <path d="M 9.421875 75.984375 
L 18.40625 75.984375 
L 18.40625 0 
L 9.421875 0 
z
" id="DejaVuSans-108"/>
     <path d="M 44.28125 53.078125 
L 44.28125 44.578125 
Q 40.484375 46.53125 36.375 47.5 
Q 32.28125 48.484375 27.875 48.484375 
Q 21.1875 48.484375 17.84375 46.4375 
Q 14.5 44.390625 14.5 40.28125 
Q 14.5 37.15625 16.890625 35.375 
Q 19.28125 33.59375 26.515625 31.984375 
L 29.59375 31.296875 
Q 39.15625 29.25 43.1875 25.515625 
Q 47.21875 21.78125 47.21875 15.09375 
Q 47.21875 7.46875 41.1875 3.015625 
Q 35.15625 -1.421875 24.609375 -1.421875 
Q 20.21875 -1.421875 15.453125 -0.5625 
Q 10.6875 0.296875 5.421875 2 
L 5.421875 11.28125 
Q 10.40625 8.6875 15.234375 7.390625 
Q 20.0625 6.109375 24.8125 6.109375 
Q 31.15625 6.109375 34.5625 8.28125 
Q 37.984375 10.453125 37.984375 14.40625 
Q 37.984375 18.0625 35.515625 20.015625 
Q 33.0625 21.96875 24.703125 23.78125 
L 21.578125 24.515625 
Q 13.234375 26.265625 9.515625 29.90625 
Q 5.8125 33.546875 5.8125 39.890625 
Q 5.8125 47.609375 11.28125 51.796875 
Q 16.75 56 26.8125 56 
Q 31.78125 56 36.171875 55.265625 
Q 40.578125 54.546875 44.28125 53.078125 
z
" id="DejaVuSans-115"/>
     <path d="M 18.3125 70.21875 
L 18.3125 54.6875 
L 36.8125 54.6875 
L 36.8125 47.703125 
L 18.3125 47.703125 
L 18.3125 18.015625 
Q 18.3125 11.328125 20.140625 9.421875 
Q 21.96875 7.515625 27.59375 7.515625 
L 36.8125 7.515625 
L 36.8125 0 
L 27.59375 0 
Q 17.1875 0 13.234375 3.875 
Q 9.28125 7.765625 9.28125 18.015625 
L 9.28125 47.703125 
L 2.6875 47.703125 
L 2.6875 54.6875 
L 9.28125 54.6875 
L 9.28125 70.21875 
z
" id="DejaVuSans-116"/>
     <path d="M 54.890625 33.015625 
L 54.890625 0 
L 45.90625 0 
L 45.90625 32.71875 
Q 45.90625 40.484375 42.875 44.328125 
Q 39.84375 48.1875 33.796875 48.1875 
Q 26.515625 48.1875 22.3125 43.546875 
Q 18.109375 38.921875 18.109375 30.90625 
L 18.109375 0 
L 9.078125 0 
L 9.078125 75.984375 
L 18.109375 75.984375 
L 18.109375 46.1875 
Q 21.34375 51.125 25.703125 53.5625 
Q 30.078125 56 35.796875 56 
Q 45.21875 56 50.046875 50.171875 
Q 54.890625 44.34375 54.890625 33.015625 
z
" id="DejaVuSans-104"/>
     <path d="M 32.171875 -5.078125 
Q 28.375 -14.84375 24.75 -17.8125 
Q 21.140625 -20.796875 15.09375 -20.796875 
L 7.90625 -20.796875 
L 7.90625 -13.28125 
L 13.1875 -13.28125 
Q 16.890625 -13.28125 18.9375 -11.515625 
Q 21 -9.765625 23.484375 -3.21875 
L 25.09375 0.875 
L 2.984375 54.6875 
L 12.5 54.6875 
L 29.59375 11.921875 
L 46.6875 54.6875 
L 56.203125 54.6875 
z
" id="DejaVuSans-121"/>
     <path d="M 45.40625 46.390625 
L 45.40625 75.984375 
L 54.390625 75.984375 
L 54.390625 0 
L 45.40625 0 
L 45.40625 8.203125 
Q 42.578125 3.328125 38.25 0.953125 
Q 33.9375 -1.421875 27.875 -1.421875 
Q 17.96875 -1.421875 11.734375 6.484375 
Q 5.515625 14.40625 5.515625 27.296875 
Q 5.515625 40.1875 11.734375 48.09375 
Q 17.96875 56 27.875 56 
Q 33.9375 56 38.25 53.625 
Q 42.578125 51.265625 45.40625 46.390625 
z
M 14.796875 27.296875 
Q 14.796875 17.390625 18.875 11.75 
Q 22.953125 6.109375 30.078125 6.109375 
Q 37.203125 6.109375 41.296875 11.75 
Q 45.40625 17.390625 45.40625 27.296875 
Q 45.40625 37.203125 41.296875 42.84375 
Q 37.203125 48.484375 30.078125 48.484375 
Q 22.953125 48.484375 18.875 42.84375 
Q 14.796875 37.203125 14.796875 27.296875 
z
" id="DejaVuSans-100"/>
     <path d="M 48.78125 52.59375 
L 48.78125 44.1875 
Q 44.96875 46.296875 41.140625 47.34375 
Q 37.3125 48.390625 33.40625 48.390625 
Q 24.65625 48.390625 19.8125 42.84375 
Q 14.984375 37.3125 14.984375 27.296875 
Q 14.984375 17.28125 19.8125 11.734375 
Q 24.65625 6.203125 33.40625 6.203125 
Q 37.3125 6.203125 41.140625 7.25 
Q 44.96875 8.296875 48.78125 10.40625 
L 48.78125 2.09375 
Q 45.015625 0.34375 40.984375 -0.53125 
Q 36.96875 -1.421875 32.421875 -1.421875 
Q 20.0625 -1.421875 12.78125 6.34375 
Q 5.515625 14.109375 5.515625 27.296875 
Q 5.515625 40.671875 12.859375 48.328125 
Q 20.21875 56 33.015625 56 
Q 37.15625 56 41.109375 55.140625 
Q 45.0625 54.296875 48.78125 52.59375 
z
" id="DejaVuSans-99"/>
     <path d="M 12.703125 72.90625 
L 23 72.90625 
L 23 65.484375 
L 14.984375 49.90625 
L 8.6875 49.90625 
L 12.703125 65.484375 
z
" id="DejaVuSans-8217"/>
     <path d="M 9.078125 75.984375 
L 18.109375 75.984375 
L 18.109375 31.109375 
L 44.921875 54.6875 
L 56.390625 54.6875 
L 27.390625 29.109375 
L 57.625 0 
L 45.90625 0 
L 18.109375 26.703125 
L 18.109375 0 
L 9.078125 0 
z
" id="DejaVuSans-107"/>
     <path d="M 19.09375 12.40625 
L 29 12.40625 
L 29 0 
L 19.09375 0 
z
M 28.71875 19.578125 
L 19.390625 19.578125 
L 19.390625 27.09375 
Q 19.390625 32.03125 20.75 35.203125 
Q 22.125 38.375 26.515625 42.578125 
L 30.90625 46.921875 
Q 33.6875 49.515625 34.9375 51.8125 
Q 36.1875 54.109375 36.1875 56.5 
Q 36.1875 60.84375 32.984375 63.53125 
Q 29.78125 66.21875 24.515625 66.21875 
Q 20.65625 66.21875 16.28125 64.5 
Q 11.921875 62.796875 7.171875 59.515625 
L 7.171875 68.703125 
Q 11.765625 71.484375 16.46875 72.84375 
Q 21.1875 74.21875 26.21875 74.21875 
Q 35.203125 74.21875 40.640625 69.484375 
Q 46.09375 64.75 46.09375 56.984375 
Q 46.09375 53.265625 44.328125 49.921875 
Q 42.578125 46.578125 38.1875 42.390625 
L 33.890625 38.1875 
Q 31.59375 35.890625 30.640625 34.59375 
Q 29.6875 33.296875 29.296875 32.078125 
Q 29 31.0625 28.859375 29.59375 
Q 28.71875 28.125 28.71875 25.59375 
z
" id="DejaVuSans-63"/>
    </defs>
    <use xlink:href="#DejaVuSans-72"/>
    <use x="75.195312" xlink:href="#DejaVuSans-111"/>
    <use x="136.376953" xlink:href="#DejaVuSans-119"/>
    <use x="218.164062" xlink:href="#DejaVuSans-32"/>
    <use x="249.951172" xlink:href="#DejaVuSans-112"/>
    <use x="313.427734" xlink:href="#DejaVuSans-114"/>
    <use x="352.291016" xlink:href="#DejaVuSans-111"/>
    <use x="413.472656" xlink:href="#DejaVuSans-98"/>
    <use x="476.949219" xlink:href="#DejaVuSans-97"/>
    <use x="538.228516" xlink:href="#DejaVuSans-98"/>
    <use x="601.705078" xlink:href="#DejaVuSans-108"/>
    <use x="629.488281" xlink:href="#DejaVuSans-101"/>
    <use x="691.011719" xlink:href="#DejaVuSans-32"/>
    <use x="722.798828" xlink:href="#DejaVuSans-105"/>
    <use x="750.582031" xlink:href="#DejaVuSans-115"/>
    <use x="802.681641" xlink:href="#DejaVuSans-32"/>
    <use x="834.46875" xlink:href="#DejaVuSans-105"/>
    <use x="862.251953" xlink:href="#DejaVuSans-116"/>
    <use x="901.460938" xlink:href="#DejaVuSans-32"/>
    <use x="933.248047" xlink:href="#DejaVuSans-116"/>
    <use x="972.457031" xlink:href="#DejaVuSans-104"/>
    <use x="1035.835938" xlink:href="#DejaVuSans-97"/>
    <use x="1097.115234" xlink:href="#DejaVuSans-116"/>
    <use x="1136.324219" xlink:href="#DejaVuSans-32"/>
    <use x="1168.111328" xlink:href="#DejaVuSans-121"/>
    <use x="1227.291016" xlink:href="#DejaVuSans-111"/>
    <use x="1288.472656" xlink:href="#DejaVuSans-117"/>
    <use x="1351.851562" xlink:href="#DejaVuSans-32"/>
    <use x="1383.638672" xlink:href="#DejaVuSans-119"/>
    <use x="1465.425781" xlink:href="#DejaVuSans-111"/>
    <use x="1526.607422" xlink:href="#DejaVuSans-117"/>
    <use x="1589.986328" xlink:href="#DejaVuSans-108"/>
    <use x="1617.769531" xlink:href="#DejaVuSans-100"/>
    <use x="1681.246094" xlink:href="#DejaVuSans-32"/>
    <use x="1713.033203" xlink:href="#DejaVuSans-97"/>
    <use x="1774.3125" xlink:href="#DejaVuSans-99"/>
    <use x="1829.292969" xlink:href="#DejaVuSans-99"/>
    <use x="1884.273438" xlink:href="#DejaVuSans-101"/>
    <use x="1945.796875" xlink:href="#DejaVuSans-112"/>
    <use x="2009.273438" xlink:href="#DejaVuSans-116"/>
    <use x="2048.482422" xlink:href="#DejaVuSans-32"/>
    <use x="2080.269531" xlink:href="#DejaVuSans-116"/>
    <use x="2119.478516" xlink:href="#DejaVuSans-104"/>
    <use x="2182.857422" xlink:href="#DejaVuSans-101"/>
    <use x="2244.380859" xlink:href="#DejaVuSans-32"/>
    <use x="2276.167969" xlink:href="#DejaVuSans-99"/>
    <use x="2331.148438" xlink:href="#DejaVuSans-104"/>
    <use x="2394.527344" xlink:href="#DejaVuSans-97"/>
    <use x="2455.806641" xlink:href="#DejaVuSans-116"/>
    <use x="2495.015625" xlink:href="#DejaVuSans-98"/>
    <use x="2558.492188" xlink:href="#DejaVuSans-111"/>
    <use x="2619.673828" xlink:href="#DejaVuSans-116"/>
    <use x="2658.882812" xlink:href="#DejaVuSans-8217"/>
    <use x="2690.669922" xlink:href="#DejaVuSans-115"/>
    <use x="2742.769531" xlink:href="#DejaVuSans-32"/>
    <use x="2774.556641" xlink:href="#DejaVuSans-111"/>
    <use x="2835.738281" xlink:href="#DejaVuSans-102"/>
    <use x="2870.943359" xlink:href="#DejaVuSans-102"/>
    <use x="2906.148438" xlink:href="#DejaVuSans-101"/>
    <use x="2967.671875" xlink:href="#DejaVuSans-114"/>
    <use x="3008.785156" xlink:href="#DejaVuSans-32"/>
    <use x="3040.572266" xlink:href="#DejaVuSans-116"/>
    <use x="3079.78125" xlink:href="#DejaVuSans-111"/>
    <use x="3140.962891" xlink:href="#DejaVuSans-32"/>
    <use x="3172.75" xlink:href="#DejaVuSans-104"/>
    <use x="3236.128906" xlink:href="#DejaVuSans-101"/>
    <use x="3297.652344" xlink:href="#DejaVuSans-108"/>
    <use x="3325.435547" xlink:href="#DejaVuSans-112"/>
    <use x="3388.912109" xlink:href="#DejaVuSans-32"/>
    <use x="3420.699219" xlink:href="#DejaVuSans-102"/>
    <use x="3455.904297" xlink:href="#DejaVuSans-105"/>
    <use x="3483.6875" xlink:href="#DejaVuSans-110"/>
    <use x="3547.066406" xlink:href="#DejaVuSans-100"/>
    <use x="3610.542969" xlink:href="#DejaVuSans-32"/>
    <use x="3642.330078" xlink:href="#DejaVuSans-97"/>
    <use x="3703.609375" xlink:href="#DejaVuSans-32"/>
    <use x="3735.396484" xlink:href="#DejaVuSans-98"/>
    <use x="3798.873047" xlink:href="#DejaVuSans-105"/>
    <use x="3826.65625" xlink:href="#DejaVuSans-107"/>
    <use x="3880.941406" xlink:href="#DejaVuSans-101"/>
    <use x="3942.464844" xlink:href="#DejaVuSans-63"/>
   </g>
  </g>
 </g>
 <defs>
  <clipPath id="pbe36cd39e3">
   <rect height="231.8" width="167.6125" x="78.730937" y="22.318125"/>
  </clipPath>
  <clipPath id="p8d671d262b">
   <rect height="231.8" width="167.6125" x="284.518437" y="22.318125"/>
  </clipPath>
 </defs>
</svg>
