<?xml version="1.0" encoding="utf-8" standalone="no"?>
<!DOCTYPE svg PUBLIC "-//W3C//DTD SVG 1.1//EN"
  "http://www.w3.org/Graphics/SVG/1.1/DTD/svg11.dtd">
<!-- Created with matplotlib (https://matplotlib.org/) -->
<svg height="291.674375pt" version="1.1" viewBox="0 0 424.38125 291.674375" width="424.38125pt" xmlns="http://www.w3.org/2000/svg" xmlns:xlink="http://www.w3.org/1999/xlink">
 <metadata>
  <rdf:RDF xmlns:cc="http://creativecommons.org/ns#" xmlns:dc="http://purl.org/dc/elements/1.1/" xmlns:rdf="http://www.w3.org/1999/02/22-rdf-syntax-ns#">
   <cc:Work>
    <dc:type rdf:resource="http://purl.org/dc/dcmitype/StillImage"/>
    <dc:date>2021-02-20T15:29:23.226422</dc:date>
    <dc:format>image/svg+xml</dc:format>
    <dc:creator>
     <cc:Agent>
      <dc:title>Matplotlib v3.3.2, https://matplotlib.org/</dc:title>
     </cc:Agent>
    </dc:creator>
   </cc:Work>
  </rdf:RDF>
 </metadata>
 <defs>
  <style type="text/css">*{stroke-linecap:butt;stroke-linejoin:round;}</style>
 </defs>
 <g id="figure_1">
  <g id="patch_1">
   <path d="M 0 291.674375 
L 424.38125 291.674375 
L 424.38125 0 
L 0 0 
z
" style="fill:none;"/>
  </g>
  <g id="axes_1">
   <g id="patch_2">
    <path d="M 43.78125 254.118125 
L 206.58125 254.118125 
L 206.58125 22.318125 
L 43.78125 22.318125 
z
" style="fill:#ffffff;"/>
   </g>
   <g id="PathCollection_1">
    <defs>
     <path d="M 0 3 
C 0.795609 3 1.55874 2.683901 2.12132 2.12132 
C 2.683901 1.55874 3 0.795609 3 0 
C 3 -0.795609 2.683901 -1.55874 2.12132 -2.12132 
C 1.55874 -2.683901 0.795609 -3 0 -3 
C -0.795609 -3 -1.55874 -2.683901 -2.12132 -2.12132 
C -2.683901 -1.55874 -3 -0.795609 -3 0 
C -3 0.795609 -2.683901 1.55874 -2.12132 2.12132 
C -1.55874 2.683901 -0.795609 3 0 3 
z
" id="m1403f07e65" style="stroke:#1f77b4;stroke-opacity:0.8;"/>
    </defs>
    <g clip-path="url(#p9548814f27)">
     <use style="fill:#1f77b4;fill-opacity:0.8;stroke:#1f77b4;stroke-opacity:0.8;" x="143.965865" xlink:href="#m1403f07e65" y="185.860285"/>
     <use style="fill:#1f77b4;fill-opacity:0.8;stroke:#1f77b4;stroke-opacity:0.8;" x="68.827404" xlink:href="#m1403f07e65" y="128.138809"/>
     <use style="fill:#1f77b4;fill-opacity:0.8;stroke:#1f77b4;stroke-opacity:0.8;" x="81.350481" xlink:href="#m1403f07e65" y="128.138809"/>
     <use style="fill:#1f77b4;fill-opacity:0.8;stroke:#1f77b4;stroke-opacity:0.8;" x="143.965865" xlink:href="#m1403f07e65" y="70.417333"/>
     <use style="fill:#1f77b4;fill-opacity:0.8;stroke:#1f77b4;stroke-opacity:0.8;" x="169.012019" xlink:href="#m1403f07e65" y="70.417333"/>
     <use style="fill:#1f77b4;fill-opacity:0.8;stroke:#1f77b4;stroke-opacity:0.8;" x="131.442788" xlink:href="#m1403f07e65" y="70.417333"/>
     <use style="fill:#1f77b4;fill-opacity:0.8;stroke:#1f77b4;stroke-opacity:0.8;" x="181.535096" xlink:href="#m1403f07e65" y="70.417333"/>
     <use style="fill:#1f77b4;fill-opacity:0.8;stroke:#1f77b4;stroke-opacity:0.8;" x="131.442788" xlink:href="#m1403f07e65" y="128.138809"/>
     <use style="fill:#1f77b4;fill-opacity:0.8;stroke:#1f77b4;stroke-opacity:0.8;" x="81.350481" xlink:href="#m1403f07e65" y="128.138809"/>
     <use style="fill:#1f77b4;fill-opacity:0.8;stroke:#1f77b4;stroke-opacity:0.8;" x="118.919712" xlink:href="#m1403f07e65" y="70.417333"/>
     <use style="fill:#1f77b4;fill-opacity:0.8;stroke:#1f77b4;stroke-opacity:0.8;" x="118.919712" xlink:href="#m1403f07e65" y="128.138809"/>
     <use style="fill:#1f77b4;fill-opacity:0.8;stroke:#1f77b4;stroke-opacity:0.8;" x="169.012019" xlink:href="#m1403f07e65" y="70.417333"/>
     <use style="fill:#1f77b4;fill-opacity:0.8;stroke:#1f77b4;stroke-opacity:0.8;" x="93.873558" xlink:href="#m1403f07e65" y="128.138809"/>
     <use style="fill:#1f77b4;fill-opacity:0.8;stroke:#1f77b4;stroke-opacity:0.8;" x="131.442788" xlink:href="#m1403f07e65" y="70.417333"/>
     <use style="fill:#1f77b4;fill-opacity:0.8;stroke:#1f77b4;stroke-opacity:0.8;" x="131.442788" xlink:href="#m1403f07e65" y="128.138809"/>
     <use style="fill:#1f77b4;fill-opacity:0.8;stroke:#1f77b4;stroke-opacity:0.8;" x="156.488942" xlink:href="#m1403f07e65" y="128.138809"/>
     <use style="fill:#1f77b4;fill-opacity:0.8;stroke:#1f77b4;stroke-opacity:0.8;" x="118.919712" xlink:href="#m1403f07e65" y="128.138809"/>
     <use style="fill:#1f77b4;fill-opacity:0.8;stroke:#1f77b4;stroke-opacity:0.8;" x="106.396635" xlink:href="#m1403f07e65" y="128.138809"/>
     <use style="fill:#1f77b4;fill-opacity:0.8;stroke:#1f77b4;stroke-opacity:0.8;" x="156.488942" xlink:href="#m1403f07e65" y="70.417333"/>
     <use style="fill:#1f77b4;fill-opacity:0.8;stroke:#1f77b4;stroke-opacity:0.8;" x="43.78125" xlink:href="#m1403f07e65" y="243.581761"/>
     <use style="fill:#1f77b4;fill-opacity:0.8;stroke:#1f77b4;stroke-opacity:0.8;" x="93.873558" xlink:href="#m1403f07e65" y="70.417333"/>
     <use style="fill:#1f77b4;fill-opacity:0.8;stroke:#1f77b4;stroke-opacity:0.8;" x="206.58125" xlink:href="#m1403f07e65" y="70.417333"/>
     <use style="fill:#1f77b4;fill-opacity:0.8;stroke:#1f77b4;stroke-opacity:0.8;" x="118.919712" xlink:href="#m1403f07e65" y="128.138809"/>
     <use style="fill:#1f77b4;fill-opacity:0.8;stroke:#1f77b4;stroke-opacity:0.8;" x="118.919712" xlink:href="#m1403f07e65" y="128.138809"/>
     <use style="fill:#1f77b4;fill-opacity:0.8;stroke:#1f77b4;stroke-opacity:0.8;" x="118.919712" xlink:href="#m1403f07e65" y="128.138809"/>
     <use style="fill:#1f77b4;fill-opacity:0.8;stroke:#1f77b4;stroke-opacity:0.8;" x="118.919712" xlink:href="#m1403f07e65" y="128.138809"/>
     <use style="fill:#1f77b4;fill-opacity:0.8;stroke:#1f77b4;stroke-opacity:0.8;" x="106.396635" xlink:href="#m1403f07e65" y="70.417333"/>
     <use style="fill:#1f77b4;fill-opacity:0.8;stroke:#1f77b4;stroke-opacity:0.8;" x="93.873558" xlink:href="#m1403f07e65" y="70.417333"/>
     <use style="fill:#1f77b4;fill-opacity:0.8;stroke:#1f77b4;stroke-opacity:0.8;" x="106.396635" xlink:href="#m1403f07e65" y="128.138809"/>
     <use style="fill:#1f77b4;fill-opacity:0.8;stroke:#1f77b4;stroke-opacity:0.8;" x="118.919712" xlink:href="#m1403f07e65" y="70.417333"/>
     <use style="fill:#1f77b4;fill-opacity:0.8;stroke:#1f77b4;stroke-opacity:0.8;" x="118.919712" xlink:href="#m1403f07e65" y="128.138809"/>
     <use style="fill:#1f77b4;fill-opacity:0.8;stroke:#1f77b4;stroke-opacity:0.8;" x="93.873558" xlink:href="#m1403f07e65" y="128.138809"/>
     <use style="fill:#1f77b4;fill-opacity:0.8;stroke:#1f77b4;stroke-opacity:0.8;" x="131.442788" xlink:href="#m1403f07e65" y="128.138809"/>
     <use style="fill:#1f77b4;fill-opacity:0.8;stroke:#1f77b4;stroke-opacity:0.8;" x="131.442788" xlink:href="#m1403f07e65" y="128.138809"/>
     <use style="fill:#1f77b4;fill-opacity:0.8;stroke:#1f77b4;stroke-opacity:0.8;" x="106.396635" xlink:href="#m1403f07e65" y="70.417333"/>
     <use style="fill:#1f77b4;fill-opacity:0.8;stroke:#1f77b4;stroke-opacity:0.8;" x="106.396635" xlink:href="#m1403f07e65" y="185.860285"/>
     <use style="fill:#1f77b4;fill-opacity:0.8;stroke:#1f77b4;stroke-opacity:0.8;" x="93.873558" xlink:href="#m1403f07e65" y="128.138809"/>
     <use style="fill:#1f77b4;fill-opacity:0.8;stroke:#1f77b4;stroke-opacity:0.8;" x="118.919712" xlink:href="#m1403f07e65" y="70.417333"/>
     <use style="fill:#1f77b4;fill-opacity:0.8;stroke:#1f77b4;stroke-opacity:0.8;" x="106.396635" xlink:href="#m1403f07e65" y="70.417333"/>
     <use style="fill:#1f77b4;fill-opacity:0.8;stroke:#1f77b4;stroke-opacity:0.8;" x="93.873558" xlink:href="#m1403f07e65" y="128.138809"/>
     <use style="fill:#1f77b4;fill-opacity:0.8;stroke:#1f77b4;stroke-opacity:0.8;" x="56.304327" xlink:href="#m1403f07e65" y="70.417333"/>
    </g>
   </g>
   <g id="PolyCollection_1">
    <path clip-path="url(#p9548814f27)" d="M 43.78125 108.406606 
L 43.78125 182.844376 
L 45.425694 181.381259 
L 47.070139 179.918142 
L 48.714583 178.448133 
L 50.359028 176.918737 
L 52.003472 175.343447 
L 53.647917 173.969893 
L 55.292361 172.578154 
L 56.936806 170.996877 
L 58.58125 169.304824 
L 60.225694 167.890722 
L 61.870139 166.713367 
L 63.514583 165.256164 
L 65.159028 163.792982 
L 66.803472 162.326195 
L 68.447917 160.855102 
L 70.092361 159.384008 
L 71.736806 157.912915 
L 73.38125 156.444253 
L 75.025694 154.980896 
L 76.670139 153.616553 
L 78.314583 152.279156 
L 79.959028 150.945091 
L 81.603472 149.607364 
L 83.247917 148.229099 
L 84.892361 146.801705 
L 86.536806 145.398132 
L 88.18125 144.044043 
L 89.825694 142.739887 
L 91.470139 141.29344 
L 93.114583 139.91699 
L 94.759028 138.591019 
L 96.403472 137.193274 
L 98.047917 135.926427 
L 99.692361 134.535862 
L 101.336806 133.123924 
L 102.98125 131.998803 
L 104.625694 130.724557 
L 106.270139 129.342133 
L 107.914583 128.148514 
L 109.559028 126.890635 
L 111.203472 125.552303 
L 112.847917 124.369194 
L 114.492361 123.070862 
L 116.136806 121.970936 
L 117.78125 120.941502 
L 119.425694 119.784161 
L 121.070139 119.08323 
L 122.714583 118.303053 
L 124.359028 117.278459 
L 126.003472 116.971583 
L 127.647917 116.45462 
L 129.292361 115.791833 
L 130.936806 115.237709 
L 132.58125 114.476499 
L 134.225694 114.252702 
L 135.870139 113.776932 
L 137.514583 113.348169 
L 139.159028 112.972101 
L 140.803472 112.762407 
L 142.447917 112.310634 
L 144.092361 111.861437 
L 145.736806 111.372392 
L 147.38125 110.958318 
L 149.025694 110.84857 
L 150.670139 110.690264 
L 152.314583 110.661981 
L 153.959028 110.562139 
L 155.603472 110.49252 
L 157.247917 110.526788 
L 158.892361 110.559829 
L 160.536806 110.592725 
L 162.18125 110.625622 
L 163.825694 110.658518 
L 165.470139 110.679824 
L 167.114583 110.724071 
L 168.759028 110.757208 
L 170.403472 110.790105 
L 172.047917 110.823002 
L 173.692361 110.855898 
L 175.336806 110.888795 
L 176.98125 110.921691 
L 178.625694 110.954588 
L 180.270139 110.987485 
L 181.914583 111.020381 
L 183.559028 111.053278 
L 185.203472 111.086175 
L 186.847917 111.119071 
L 188.492361 111.151968 
L 190.136806 111.184864 
L 191.78125 111.217761 
L 193.425694 111.250658 
L 195.070139 111.283554 
L 196.714583 111.316451 
L 198.359028 111.349348 
L 200.003472 111.382244 
L 201.647917 111.415141 
L 203.292361 111.446534 
L 204.936806 111.476083 
L 206.58125 111.390092 
L 206.58125 32.854489 
L 206.58125 32.854489 
L 204.936806 34.300321 
L 203.292361 35.752529 
L 201.647917 37.204737 
L 200.003472 38.656946 
L 198.359028 40.153509 
L 196.714583 41.695748 
L 195.070139 43.314749 
L 193.425694 44.872573 
L 191.78125 46.198452 
L 190.136806 47.759505 
L 188.492361 49.324198 
L 186.847917 50.722732 
L 185.203472 52.025781 
L 183.559028 53.259958 
L 181.914583 54.51612 
L 180.270139 55.63143 
L 178.625694 57.219133 
L 176.98125 58.525387 
L 175.336806 59.933327 
L 173.692361 61.148657 
L 172.047917 62.427088 
L 170.403472 63.823404 
L 168.759028 65.421411 
L 167.114583 66.828442 
L 165.470139 68.136277 
L 163.825694 69.444113 
L 162.18125 70.751949 
L 160.536806 72.071037 
L 158.892361 73.768615 
L 157.247917 75.023606 
L 155.603472 76.3349 
L 153.959028 77.777723 
L 152.314583 79.063287 
L 150.670139 80.595271 
L 149.025694 81.672622 
L 147.38125 82.939209 
L 145.736806 84.055218 
L 144.092361 85.473941 
L 142.447917 86.541166 
L 140.803472 87.764993 
L 139.159028 88.703151 
L 137.514583 89.651656 
L 135.870139 90.57384 
L 134.225694 91.513798 
L 132.58125 92.433629 
L 130.936806 93.354057 
L 129.292361 94.167841 
L 127.647917 95.114212 
L 126.003472 95.932156 
L 124.359028 96.460756 
L 122.714583 97.268261 
L 121.070139 97.983235 
L 119.425694 98.431866 
L 117.78125 98.797516 
L 116.136806 98.956251 
L 114.492361 99.416389 
L 112.847917 100.127704 
L 111.203472 100.441197 
L 109.559028 100.816409 
L 107.914583 101.170115 
L 106.270139 101.463412 
L 104.625694 101.981031 
L 102.98125 102.368512 
L 101.336806 102.217873 
L 99.692361 102.266234 
L 98.047917 102.402901 
L 96.403472 102.720053 
L 94.759028 103.042146 
L 93.114583 103.354004 
L 91.470139 103.671117 
L 89.825694 104.062168 
L 88.18125 104.303601 
L 86.536806 104.614425 
L 84.892361 104.580149 
L 83.247917 104.741416 
L 81.603472 104.911943 
L 79.959028 105.080315 
L 78.314583 105.402301 
L 76.670139 105.466483 
L 75.025694 105.730471 
L 73.38125 105.996466 
L 71.736806 106.259689 
L 70.092361 106.524298 
L 68.447917 106.788907 
L 66.803472 106.931811 
L 65.159028 106.800298 
L 63.514583 106.792814 
L 61.870139 106.785136 
L 60.225694 106.776137 
L 58.58125 106.954811 
L 56.936806 107.279184 
L 55.292361 107.603166 
L 53.647917 107.92312 
L 52.003472 108.243075 
L 50.359028 108.350141 
L 48.714583 108.317057 
L 47.070139 108.321249 
L 45.425694 108.309241 
L 43.78125 108.406606 
z
" style="fill:#1f77b4;fill-opacity:0.15;"/>
   </g>
   <g id="matplotlib.axis_1">
    <g id="xtick_1">
     <g id="line2d_1">
      <defs>
       <path d="M 0 0 
L 0 3.5 
" id="m2b256656fa" style="stroke:#000000;stroke-width:0.8;"/>
      </defs>
      <g>
       <use style="stroke:#000000;stroke-width:0.8;" x="68.827404" xlink:href="#m2b256656fa" y="254.118125"/>
      </g>
     </g>
     <g id="text_1">
      <!-- 2 -->
      <g transform="translate(65.646154 268.716562)scale(0.1 -0.1)">
       <defs>
        <path d="M 19.1875 8.296875 
L 53.609375 8.296875 
L 53.609375 0 
L 7.328125 0 
L 7.328125 8.296875 
Q 12.9375 14.109375 22.625 23.890625 
Q 32.328125 33.6875 34.8125 36.53125 
Q 39.546875 41.84375 41.421875 45.53125 
Q 43.3125 49.21875 43.3125 52.78125 
Q 43.3125 58.59375 39.234375 62.25 
Q 35.15625 65.921875 28.609375 65.921875 
Q 23.96875 65.921875 18.8125 64.3125 
Q 13.671875 62.703125 7.8125 59.421875 
L 7.8125 69.390625 
Q 13.765625 71.78125 18.9375 73 
Q 24.125 74.21875 28.421875 74.21875 
Q 39.75 74.21875 46.484375 68.546875 
Q 53.21875 62.890625 53.21875 53.421875 
Q 53.21875 48.921875 51.53125 44.890625 
Q 49.859375 40.875 45.40625 35.40625 
Q 44.1875 33.984375 37.640625 27.21875 
Q 31.109375 20.453125 19.1875 8.296875 
z
" id="DejaVuSans-50"/>
       </defs>
       <use xlink:href="#DejaVuSans-50"/>
      </g>
     </g>
    </g>
    <g id="xtick_2">
     <g id="line2d_2">
      <g>
       <use style="stroke:#000000;stroke-width:0.8;" x="118.919712" xlink:href="#m2b256656fa" y="254.118125"/>
      </g>
     </g>
     <g id="text_2">
      <!-- 3 -->
      <g transform="translate(115.738462 268.716562)scale(0.1 -0.1)">
       <defs>
        <path d="M 40.578125 39.3125 
Q 47.65625 37.796875 51.625 33 
Q 55.609375 28.21875 55.609375 21.1875 
Q 55.609375 10.40625 48.1875 4.484375 
Q 40.765625 -1.421875 27.09375 -1.421875 
Q 22.515625 -1.421875 17.65625 -0.515625 
Q 12.796875 0.390625 7.625 2.203125 
L 7.625 11.71875 
Q 11.71875 9.328125 16.59375 8.109375 
Q 21.484375 6.890625 26.8125 6.890625 
Q 36.078125 6.890625 40.9375 10.546875 
Q 45.796875 14.203125 45.796875 21.1875 
Q 45.796875 27.640625 41.28125 31.265625 
Q 36.765625 34.90625 28.71875 34.90625 
L 20.21875 34.90625 
L 20.21875 43.015625 
L 29.109375 43.015625 
Q 36.375 43.015625 40.234375 45.921875 
Q 44.09375 48.828125 44.09375 54.296875 
Q 44.09375 59.90625 40.109375 62.90625 
Q 36.140625 65.921875 28.71875 65.921875 
Q 24.65625 65.921875 20.015625 65.03125 
Q 15.375 64.15625 9.8125 62.3125 
L 9.8125 71.09375 
Q 15.4375 72.65625 20.34375 73.4375 
Q 25.25 74.21875 29.59375 74.21875 
Q 40.828125 74.21875 47.359375 69.109375 
Q 53.90625 64.015625 53.90625 55.328125 
Q 53.90625 49.265625 50.4375 45.09375 
Q 46.96875 40.921875 40.578125 39.3125 
z
" id="DejaVuSans-51"/>
       </defs>
       <use xlink:href="#DejaVuSans-51"/>
      </g>
     </g>
    </g>
    <g id="xtick_3">
     <g id="line2d_3">
      <g>
       <use style="stroke:#000000;stroke-width:0.8;" x="169.012019" xlink:href="#m2b256656fa" y="254.118125"/>
      </g>
     </g>
     <g id="text_3">
      <!-- 4 -->
      <g transform="translate(165.830769 268.716562)scale(0.1 -0.1)">
       <defs>
        <path d="M 37.796875 64.3125 
L 12.890625 25.390625 
L 37.796875 25.390625 
z
M 35.203125 72.90625 
L 47.609375 72.90625 
L 47.609375 25.390625 
L 58.015625 25.390625 
L 58.015625 17.1875 
L 47.609375 17.1875 
L 47.609375 0 
L 37.796875 0 
L 37.796875 17.1875 
L 4.890625 17.1875 
L 4.890625 26.703125 
z
" id="DejaVuSans-52"/>
       </defs>
       <use xlink:href="#DejaVuSans-52"/>
      </g>
     </g>
    </g>
    <g id="text_4">
     <!-- E -->
     <g transform="translate(122.021875 282.394687)scale(0.1 -0.1)">
      <defs>
       <path d="M 9.8125 72.90625 
L 55.90625 72.90625 
L 55.90625 64.59375 
L 19.671875 64.59375 
L 19.671875 43.015625 
L 54.390625 43.015625 
L 54.390625 34.71875 
L 19.671875 34.71875 
L 19.671875 8.296875 
L 56.78125 8.296875 
L 56.78125 0 
L 9.8125 0 
z
" id="DejaVuSans-69"/>
      </defs>
      <use xlink:href="#DejaVuSans-69"/>
     </g>
    </g>
   </g>
   <g id="matplotlib.axis_2">
    <g id="ytick_1">
     <g id="line2d_4">
      <defs>
       <path d="M 0 0 
L -3.5 0 
" id="mfff140f01b" style="stroke:#000000;stroke-width:0.8;"/>
      </defs>
      <g>
       <use style="stroke:#000000;stroke-width:0.8;" x="43.78125" xlink:href="#mfff140f01b" y="243.581761"/>
      </g>
     </g>
     <g id="text_5">
      <!-- 2.0 -->
      <g transform="translate(20.878125 247.38098)scale(0.1 -0.1)">
       <defs>
        <path d="M 10.6875 12.40625 
L 21 12.40625 
L 21 0 
L 10.6875 0 
z
" id="DejaVuSans-46"/>
        <path d="M 31.78125 66.40625 
Q 24.171875 66.40625 20.328125 58.90625 
Q 16.5 51.421875 16.5 36.375 
Q 16.5 21.390625 20.328125 13.890625 
Q 24.171875 6.390625 31.78125 6.390625 
Q 39.453125 6.390625 43.28125 13.890625 
Q 47.125 21.390625 47.125 36.375 
Q 47.125 51.421875 43.28125 58.90625 
Q 39.453125 66.40625 31.78125 66.40625 
z
M 31.78125 74.21875 
Q 44.046875 74.21875 50.515625 64.515625 
Q 56.984375 54.828125 56.984375 36.375 
Q 56.984375 17.96875 50.515625 8.265625 
Q 44.046875 -1.421875 31.78125 -1.421875 
Q 19.53125 -1.421875 13.0625 8.265625 
Q 6.59375 17.96875 6.59375 36.375 
Q 6.59375 54.828125 13.0625 64.515625 
Q 19.53125 74.21875 31.78125 74.21875 
z
" id="DejaVuSans-48"/>
       </defs>
       <use xlink:href="#DejaVuSans-50"/>
       <use x="63.623047" xlink:href="#DejaVuSans-46"/>
       <use x="95.410156" xlink:href="#DejaVuSans-48"/>
      </g>
     </g>
    </g>
    <g id="ytick_2">
     <g id="line2d_5">
      <g>
       <use style="stroke:#000000;stroke-width:0.8;" x="43.78125" xlink:href="#mfff140f01b" y="214.721023"/>
      </g>
     </g>
     <g id="text_6">
      <!-- 2.5 -->
      <g transform="translate(20.878125 218.520242)scale(0.1 -0.1)">
       <defs>
        <path d="M 10.796875 72.90625 
L 49.515625 72.90625 
L 49.515625 64.59375 
L 19.828125 64.59375 
L 19.828125 46.734375 
Q 21.96875 47.46875 24.109375 47.828125 
Q 26.265625 48.1875 28.421875 48.1875 
Q 40.625 48.1875 47.75 41.5 
Q 54.890625 34.8125 54.890625 23.390625 
Q 54.890625 11.625 47.5625 5.09375 
Q 40.234375 -1.421875 26.90625 -1.421875 
Q 22.3125 -1.421875 17.546875 -0.640625 
Q 12.796875 0.140625 7.71875 1.703125 
L 7.71875 11.625 
Q 12.109375 9.234375 16.796875 8.0625 
Q 21.484375 6.890625 26.703125 6.890625 
Q 35.15625 6.890625 40.078125 11.328125 
Q 45.015625 15.765625 45.015625 23.390625 
Q 45.015625 31 40.078125 35.4375 
Q 35.15625 39.890625 26.703125 39.890625 
Q 22.75 39.890625 18.8125 39.015625 
Q 14.890625 38.140625 10.796875 36.28125 
z
" id="DejaVuSans-53"/>
       </defs>
       <use xlink:href="#DejaVuSans-50"/>
       <use x="63.623047" xlink:href="#DejaVuSans-46"/>
       <use x="95.410156" xlink:href="#DejaVuSans-53"/>
      </g>
     </g>
    </g>
    <g id="ytick_3">
     <g id="line2d_6">
      <g>
       <use style="stroke:#000000;stroke-width:0.8;" x="43.78125" xlink:href="#mfff140f01b" y="185.860285"/>
      </g>
     </g>
     <g id="text_7">
      <!-- 3.0 -->
      <g transform="translate(20.878125 189.659504)scale(0.1 -0.1)">
       <use xlink:href="#DejaVuSans-51"/>
       <use x="63.623047" xlink:href="#DejaVuSans-46"/>
       <use x="95.410156" xlink:href="#DejaVuSans-48"/>
      </g>
     </g>
    </g>
    <g id="ytick_4">
     <g id="line2d_7">
      <g>
       <use style="stroke:#000000;stroke-width:0.8;" x="43.78125" xlink:href="#mfff140f01b" y="156.999547"/>
      </g>
     </g>
     <g id="text_8">
      <!-- 3.5 -->
      <g transform="translate(20.878125 160.798766)scale(0.1 -0.1)">
       <use xlink:href="#DejaVuSans-51"/>
       <use x="63.623047" xlink:href="#DejaVuSans-46"/>
       <use x="95.410156" xlink:href="#DejaVuSans-53"/>
      </g>
     </g>
    </g>
    <g id="ytick_5">
     <g id="line2d_8">
      <g>
       <use style="stroke:#000000;stroke-width:0.8;" x="43.78125" xlink:href="#mfff140f01b" y="128.138809"/>
      </g>
     </g>
     <g id="text_9">
      <!-- 4.0 -->
      <g transform="translate(20.878125 131.938028)scale(0.1 -0.1)">
       <use xlink:href="#DejaVuSans-52"/>
       <use x="63.623047" xlink:href="#DejaVuSans-46"/>
       <use x="95.410156" xlink:href="#DejaVuSans-48"/>
      </g>
     </g>
    </g>
    <g id="ytick_6">
     <g id="line2d_9">
      <g>
       <use style="stroke:#000000;stroke-width:0.8;" x="43.78125" xlink:href="#mfff140f01b" y="99.278071"/>
      </g>
     </g>
     <g id="text_10">
      <!-- 4.5 -->
      <g transform="translate(20.878125 103.07729)scale(0.1 -0.1)">
       <use xlink:href="#DejaVuSans-52"/>
       <use x="63.623047" xlink:href="#DejaVuSans-46"/>
       <use x="95.410156" xlink:href="#DejaVuSans-53"/>
      </g>
     </g>
    </g>
    <g id="ytick_7">
     <g id="line2d_10">
      <g>
       <use style="stroke:#000000;stroke-width:0.8;" x="43.78125" xlink:href="#mfff140f01b" y="70.417333"/>
      </g>
     </g>
     <g id="text_11">
      <!-- 5.0 -->
      <g transform="translate(20.878125 74.216552)scale(0.1 -0.1)">
       <use xlink:href="#DejaVuSans-53"/>
       <use x="63.623047" xlink:href="#DejaVuSans-46"/>
       <use x="95.410156" xlink:href="#DejaVuSans-48"/>
      </g>
     </g>
    </g>
    <g id="ytick_8">
     <g id="line2d_11">
      <g>
       <use style="stroke:#000000;stroke-width:0.8;" x="43.78125" xlink:href="#mfff140f01b" y="41.556595"/>
      </g>
     </g>
     <g id="text_12">
      <!-- 5.5 -->
      <g transform="translate(20.878125 45.355814)scale(0.1 -0.1)">
       <use xlink:href="#DejaVuSans-53"/>
       <use x="63.623047" xlink:href="#DejaVuSans-46"/>
       <use x="95.410156" xlink:href="#DejaVuSans-53"/>
      </g>
     </g>
    </g>
    <g id="text_13">
     <!-- Expectation1 -->
     <g transform="translate(14.798438 171.119687)rotate(-90)scale(0.1 -0.1)">
      <defs>
       <path d="M 54.890625 54.6875 
L 35.109375 28.078125 
L 55.90625 0 
L 45.3125 0 
L 29.390625 21.484375 
L 13.484375 0 
L 2.875 0 
L 24.125 28.609375 
L 4.6875 54.6875 
L 15.28125 54.6875 
L 29.78125 35.203125 
L 44.28125 54.6875 
z
" id="DejaVuSans-120"/>
       <path d="M 18.109375 8.203125 
L 18.109375 -20.796875 
L 9.078125 -20.796875 
L 9.078125 54.6875 
L 18.109375 54.6875 
L 18.109375 46.390625 
Q 20.953125 51.265625 25.265625 53.625 
Q 29.59375 56 35.59375 56 
Q 45.5625 56 51.78125 48.09375 
Q 58.015625 40.1875 58.015625 27.296875 
Q 58.015625 14.40625 51.78125 6.484375 
Q 45.5625 -1.421875 35.59375 -1.421875 
Q 29.59375 -1.421875 25.265625 0.953125 
Q 20.953125 3.328125 18.109375 8.203125 
z
M 48.6875 27.296875 
Q 48.6875 37.203125 44.609375 42.84375 
Q 40.53125 48.484375 33.40625 48.484375 
Q 26.265625 48.484375 22.1875 42.84375 
Q 18.109375 37.203125 18.109375 27.296875 
Q 18.109375 17.390625 22.1875 11.75 
Q 26.265625 6.109375 33.40625 6.109375 
Q 40.53125 6.109375 44.609375 11.75 
Q 48.6875 17.390625 48.6875 27.296875 
z
" id="DejaVuSans-112"/>
       <path d="M 56.203125 29.59375 
L 56.203125 25.203125 
L 14.890625 25.203125 
Q 15.484375 15.921875 20.484375 11.0625 
Q 25.484375 6.203125 34.421875 6.203125 
Q 39.59375 6.203125 44.453125 7.46875 
Q 49.3125 8.734375 54.109375 11.28125 
L 54.109375 2.78125 
Q 49.265625 0.734375 44.1875 -0.34375 
Q 39.109375 -1.421875 33.890625 -1.421875 
Q 20.796875 -1.421875 13.15625 6.1875 
Q 5.515625 13.8125 5.515625 26.8125 
Q 5.515625 40.234375 12.765625 48.109375 
Q 20.015625 56 32.328125 56 
Q 43.359375 56 49.78125 48.890625 
Q 56.203125 41.796875 56.203125 29.59375 
z
M 47.21875 32.234375 
Q 47.125 39.59375 43.09375 43.984375 
Q 39.0625 48.390625 32.421875 48.390625 
Q 24.90625 48.390625 20.390625 44.140625 
Q 15.875 39.890625 15.1875 32.171875 
z
" id="DejaVuSans-101"/>
       <path d="M 48.78125 52.59375 
L 48.78125 44.1875 
Q 44.96875 46.296875 41.140625 47.34375 
Q 37.3125 48.390625 33.40625 48.390625 
Q 24.65625 48.390625 19.8125 42.84375 
Q 14.984375 37.3125 14.984375 27.296875 
Q 14.984375 17.28125 19.8125 11.734375 
Q 24.65625 6.203125 33.40625 6.203125 
Q 37.3125 6.203125 41.140625 7.25 
Q 44.96875 8.296875 48.78125 10.40625 
L 48.78125 2.09375 
Q 45.015625 0.34375 40.984375 -0.53125 
Q 36.96875 -1.421875 32.421875 -1.421875 
Q 20.0625 -1.421875 12.78125 6.34375 
Q 5.515625 14.109375 5.515625 27.296875 
Q 5.515625 40.671875 12.859375 48.328125 
Q 20.21875 56 33.015625 56 
Q 37.15625 56 41.109375 55.140625 
Q 45.0625 54.296875 48.78125 52.59375 
z
" id="DejaVuSans-99"/>
       <path d="M 18.3125 70.21875 
L 18.3125 54.6875 
L 36.8125 54.6875 
L 36.8125 47.703125 
L 18.3125 47.703125 
L 18.3125 18.015625 
Q 18.3125 11.328125 20.140625 9.421875 
Q 21.96875 7.515625 27.59375 7.515625 
L 36.8125 7.515625 
L 36.8125 0 
L 27.59375 0 
Q 17.1875 0 13.234375 3.875 
Q 9.28125 7.765625 9.28125 18.015625 
L 9.28125 47.703125 
L 2.6875 47.703125 
L 2.6875 54.6875 
L 9.28125 54.6875 
L 9.28125 70.21875 
z
" id="DejaVuSans-116"/>
       <path d="M 34.28125 27.484375 
Q 23.390625 27.484375 19.1875 25 
Q 14.984375 22.515625 14.984375 16.5 
Q 14.984375 11.71875 18.140625 8.90625 
Q 21.296875 6.109375 26.703125 6.109375 
Q 34.1875 6.109375 38.703125 11.40625 
Q 43.21875 16.703125 43.21875 25.484375 
L 43.21875 27.484375 
z
M 52.203125 31.203125 
L 52.203125 0 
L 43.21875 0 
L 43.21875 8.296875 
Q 40.140625 3.328125 35.546875 0.953125 
Q 30.953125 -1.421875 24.3125 -1.421875 
Q 15.921875 -1.421875 10.953125 3.296875 
Q 6 8.015625 6 15.921875 
Q 6 25.140625 12.171875 29.828125 
Q 18.359375 34.515625 30.609375 34.515625 
L 43.21875 34.515625 
L 43.21875 35.40625 
Q 43.21875 41.609375 39.140625 45 
Q 35.0625 48.390625 27.6875 48.390625 
Q 23 48.390625 18.546875 47.265625 
Q 14.109375 46.140625 10.015625 43.890625 
L 10.015625 52.203125 
Q 14.9375 54.109375 19.578125 55.046875 
Q 24.21875 56 28.609375 56 
Q 40.484375 56 46.34375 49.84375 
Q 52.203125 43.703125 52.203125 31.203125 
z
" id="DejaVuSans-97"/>
       <path d="M 9.421875 54.6875 
L 18.40625 54.6875 
L 18.40625 0 
L 9.421875 0 
z
M 9.421875 75.984375 
L 18.40625 75.984375 
L 18.40625 64.59375 
L 9.421875 64.59375 
z
" id="DejaVuSans-105"/>
       <path d="M 30.609375 48.390625 
Q 23.390625 48.390625 19.1875 42.75 
Q 14.984375 37.109375 14.984375 27.296875 
Q 14.984375 17.484375 19.15625 11.84375 
Q 23.34375 6.203125 30.609375 6.203125 
Q 37.796875 6.203125 41.984375 11.859375 
Q 46.1875 17.53125 46.1875 27.296875 
Q 46.1875 37.015625 41.984375 42.703125 
Q 37.796875 48.390625 30.609375 48.390625 
z
M 30.609375 56 
Q 42.328125 56 49.015625 48.375 
Q 55.71875 40.765625 55.71875 27.296875 
Q 55.71875 13.875 49.015625 6.21875 
Q 42.328125 -1.421875 30.609375 -1.421875 
Q 18.84375 -1.421875 12.171875 6.21875 
Q 5.515625 13.875 5.515625 27.296875 
Q 5.515625 40.765625 12.171875 48.375 
Q 18.84375 56 30.609375 56 
z
" id="DejaVuSans-111"/>
       <path d="M 54.890625 33.015625 
L 54.890625 0 
L 45.90625 0 
L 45.90625 32.71875 
Q 45.90625 40.484375 42.875 44.328125 
Q 39.84375 48.1875 33.796875 48.1875 
Q 26.515625 48.1875 22.3125 43.546875 
Q 18.109375 38.921875 18.109375 30.90625 
L 18.109375 0 
L 9.078125 0 
L 9.078125 54.6875 
L 18.109375 54.6875 
L 18.109375 46.1875 
Q 21.34375 51.125 25.703125 53.5625 
Q 30.078125 56 35.796875 56 
Q 45.21875 56 50.046875 50.171875 
Q 54.890625 44.34375 54.890625 33.015625 
z
" id="DejaVuSans-110"/>
       <path d="M 12.40625 8.296875 
L 28.515625 8.296875 
L 28.515625 63.921875 
L 10.984375 60.40625 
L 10.984375 69.390625 
L 28.421875 72.90625 
L 38.28125 72.90625 
L 38.28125 8.296875 
L 54.390625 8.296875 
L 54.390625 0 
L 12.40625 0 
z
" id="DejaVuSans-49"/>
      </defs>
      <use xlink:href="#DejaVuSans-69"/>
      <use x="63.183594" xlink:href="#DejaVuSans-120"/>
      <use x="122.363281" xlink:href="#DejaVuSans-112"/>
      <use x="185.839844" xlink:href="#DejaVuSans-101"/>
      <use x="247.363281" xlink:href="#DejaVuSans-99"/>
      <use x="302.34375" xlink:href="#DejaVuSans-116"/>
      <use x="341.552734" xlink:href="#DejaVuSans-97"/>
      <use x="402.832031" xlink:href="#DejaVuSans-116"/>
      <use x="442.041016" xlink:href="#DejaVuSans-105"/>
      <use x="469.824219" xlink:href="#DejaVuSans-111"/>
      <use x="531.005859" xlink:href="#DejaVuSans-110"/>
      <use x="594.384766" xlink:href="#DejaVuSans-49"/>
     </g>
    </g>
   </g>
   <g id="line2d_12">
    <path clip-path="url(#p9548814f27)" d="M 43.78125 144.92379 
L 45.425694 144.146415 
L 47.070139 143.369039 
L 48.714583 142.591664 
L 50.359028 141.814288 
L 52.003472 141.036912 
L 53.647917 140.259537 
L 55.292361 139.482161 
L 56.936806 138.704786 
L 58.58125 137.92741 
L 60.225694 137.150035 
L 61.870139 136.372659 
L 63.514583 135.595283 
L 65.159028 134.817908 
L 66.803472 134.040532 
L 68.447917 133.263157 
L 70.092361 132.485781 
L 71.736806 131.708405 
L 73.38125 130.93103 
L 75.025694 130.153654 
L 76.670139 129.376279 
L 78.314583 128.598903 
L 79.959028 127.821528 
L 81.603472 127.044152 
L 83.247917 126.266776 
L 84.892361 125.489401 
L 86.536806 124.712025 
L 88.18125 123.93465 
L 89.825694 123.157274 
L 91.470139 122.379899 
L 93.114583 121.602523 
L 94.759028 120.825147 
L 96.403472 120.047772 
L 98.047917 119.270396 
L 99.692361 118.493021 
L 101.336806 117.715645 
L 102.98125 116.93827 
L 104.625694 116.160894 
L 106.270139 115.383518 
L 107.914583 114.606143 
L 109.559028 113.828767 
L 111.203472 113.051392 
L 112.847917 112.274016 
L 114.492361 111.49664 
L 116.136806 110.719265 
L 117.78125 109.941889 
L 119.425694 109.164514 
L 121.070139 108.387138 
L 122.714583 107.609763 
L 124.359028 106.832387 
L 126.003472 106.055011 
L 127.647917 105.277636 
L 129.292361 104.50026 
L 130.936806 103.722885 
L 132.58125 102.945509 
L 134.225694 102.168134 
L 135.870139 101.390758 
L 137.514583 100.613382 
L 139.159028 99.836007 
L 140.803472 99.058631 
L 142.447917 98.281256 
L 144.092361 97.50388 
L 145.736806 96.726504 
L 147.38125 95.949129 
L 149.025694 95.171753 
L 150.670139 94.394378 
L 152.314583 93.617002 
L 153.959028 92.839627 
L 155.603472 92.062251 
L 157.247917 91.284875 
L 158.892361 90.5075 
L 160.536806 89.730124 
L 162.18125 88.952749 
L 163.825694 88.175373 
L 165.470139 87.397998 
L 167.114583 86.620622 
L 168.759028 85.843246 
L 170.403472 85.065871 
L 172.047917 84.288495 
L 173.692361 83.51112 
L 175.336806 82.733744 
L 176.98125 81.956369 
L 178.625694 81.178993 
L 180.270139 80.401617 
L 181.914583 79.624242 
L 183.559028 78.846866 
L 185.203472 78.069491 
L 186.847917 77.292115 
L 188.492361 76.514739 
L 190.136806 75.737364 
L 191.78125 74.959988 
L 193.425694 74.182613 
L 195.070139 73.405237 
L 196.714583 72.627862 
L 198.359028 71.850486 
L 200.003472 71.07311 
L 201.647917 70.295735 
L 203.292361 69.518359 
L 204.936806 68.740984 
L 206.58125 67.963608 
" style="fill:none;stroke:#1f77b4;stroke-linecap:square;stroke-width:2.25;"/>
   </g>
   <g id="patch_3">
    <path d="M 43.78125 254.118125 
L 43.78125 22.318125 
" style="fill:none;stroke:#000000;stroke-linecap:square;stroke-linejoin:miter;stroke-width:0.8;"/>
   </g>
   <g id="patch_4">
    <path d="M 206.58125 254.118125 
L 206.58125 22.318125 
" style="fill:none;stroke:#000000;stroke-linecap:square;stroke-linejoin:miter;stroke-width:0.8;"/>
   </g>
   <g id="patch_5">
    <path d="M 43.78125 254.118125 
L 206.58125 254.118125 
" style="fill:none;stroke:#000000;stroke-linecap:square;stroke-linejoin:miter;stroke-width:0.8;"/>
   </g>
   <g id="patch_6">
    <path d="M 43.78125 22.318125 
L 206.58125 22.318125 
" style="fill:none;stroke:#000000;stroke-linecap:square;stroke-linejoin:miter;stroke-width:0.8;"/>
   </g>
   <g id="text_14">
    <!-- Group A -->
    <g transform="translate(43.78125 16.318125)scale(0.12 -0.12)">
     <defs>
      <path d="M 59.515625 10.40625 
L 59.515625 29.984375 
L 43.40625 29.984375 
L 43.40625 38.09375 
L 69.28125 38.09375 
L 69.28125 6.78125 
Q 63.578125 2.734375 56.6875 0.65625 
Q 49.8125 -1.421875 42 -1.421875 
Q 24.90625 -1.421875 15.25 8.5625 
Q 5.609375 18.5625 5.609375 36.375 
Q 5.609375 54.25 15.25 64.234375 
Q 24.90625 74.21875 42 74.21875 
Q 49.125 74.21875 55.546875 72.453125 
Q 61.96875 70.703125 67.390625 67.28125 
L 67.390625 56.78125 
Q 61.921875 61.421875 55.765625 63.765625 
Q 49.609375 66.109375 42.828125 66.109375 
Q 29.4375 66.109375 22.71875 58.640625 
Q 16.015625 51.171875 16.015625 36.375 
Q 16.015625 21.625 22.71875 14.15625 
Q 29.4375 6.6875 42.828125 6.6875 
Q 48.046875 6.6875 52.140625 7.59375 
Q 56.25 8.5 59.515625 10.40625 
z
" id="DejaVuSans-71"/>
      <path d="M 41.109375 46.296875 
Q 39.59375 47.171875 37.8125 47.578125 
Q 36.03125 48 33.890625 48 
Q 26.265625 48 22.1875 43.046875 
Q 18.109375 38.09375 18.109375 28.8125 
L 18.109375 0 
L 9.078125 0 
L 9.078125 54.6875 
L 18.109375 54.6875 
L 18.109375 46.1875 
Q 20.953125 51.171875 25.484375 53.578125 
Q 30.03125 56 36.53125 56 
Q 37.453125 56 38.578125 55.875 
Q 39.703125 55.765625 41.0625 55.515625 
z
" id="DejaVuSans-114"/>
      <path d="M 8.5 21.578125 
L 8.5 54.6875 
L 17.484375 54.6875 
L 17.484375 21.921875 
Q 17.484375 14.15625 20.5 10.265625 
Q 23.53125 6.390625 29.59375 6.390625 
Q 36.859375 6.390625 41.078125 11.03125 
Q 45.3125 15.671875 45.3125 23.6875 
L 45.3125 54.6875 
L 54.296875 54.6875 
L 54.296875 0 
L 45.3125 0 
L 45.3125 8.40625 
Q 42.046875 3.421875 37.71875 1 
Q 33.40625 -1.421875 27.6875 -1.421875 
Q 18.265625 -1.421875 13.375 4.4375 
Q 8.5 10.296875 8.5 21.578125 
z
M 31.109375 56 
z
" id="DejaVuSans-117"/>
      <path id="DejaVuSans-32"/>
      <path d="M 34.1875 63.1875 
L 20.796875 26.90625 
L 47.609375 26.90625 
z
M 28.609375 72.90625 
L 39.796875 72.90625 
L 67.578125 0 
L 57.328125 0 
L 50.6875 18.703125 
L 17.828125 18.703125 
L 11.1875 0 
L 0.78125 0 
z
" id="DejaVuSans-65"/>
     </defs>
     <use xlink:href="#DejaVuSans-71"/>
     <use x="77.490234" xlink:href="#DejaVuSans-114"/>
     <use x="116.353516" xlink:href="#DejaVuSans-111"/>
     <use x="177.535156" xlink:href="#DejaVuSans-117"/>
     <use x="240.914062" xlink:href="#DejaVuSans-112"/>
     <use x="304.390625" xlink:href="#DejaVuSans-32"/>
     <use x="336.177734" xlink:href="#DejaVuSans-65"/>
    </g>
   </g>
  </g>
  <g id="axes_2">
   <g id="patch_7">
    <path d="M 254.38125 254.118125 
L 417.18125 254.118125 
L 417.18125 22.318125 
L 254.38125 22.318125 
z
" style="fill:#ffffff;"/>
   </g>
   <g id="PathCollection_2">
    <g clip-path="url(#p7cf92d0e70)">
     <use style="fill:#1f77b4;fill-opacity:0.8;stroke:#1f77b4;stroke-opacity:0.8;" x="254.38125" xlink:href="#m1403f07e65" y="103.096913"/>
     <use style="fill:#1f77b4;fill-opacity:0.8;stroke:#1f77b4;stroke-opacity:0.8;" x="266.904327" xlink:href="#m1403f07e65" y="103.096913"/>
     <use style="fill:#1f77b4;fill-opacity:0.8;stroke:#1f77b4;stroke-opacity:0.8;" x="379.612019" xlink:href="#m1403f07e65" y="103.096913"/>
     <use style="fill:#1f77b4;fill-opacity:0.8;stroke:#1f77b4;stroke-opacity:0.8;" x="342.042788" xlink:href="#m1403f07e65" y="32.854489"/>
     <use style="fill:#1f77b4;fill-opacity:0.8;stroke:#1f77b4;stroke-opacity:0.8;" x="316.996635" xlink:href="#m1403f07e65" y="32.854489"/>
     <use style="fill:#1f77b4;fill-opacity:0.8;stroke:#1f77b4;stroke-opacity:0.8;" x="379.612019" xlink:href="#m1403f07e65" y="103.096913"/>
     <use style="fill:#1f77b4;fill-opacity:0.8;stroke:#1f77b4;stroke-opacity:0.8;" x="316.996635" xlink:href="#m1403f07e65" y="32.854489"/>
     <use style="fill:#1f77b4;fill-opacity:0.8;stroke:#1f77b4;stroke-opacity:0.8;" x="342.042788" xlink:href="#m1403f07e65" y="173.339337"/>
     <use style="fill:#1f77b4;fill-opacity:0.8;stroke:#1f77b4;stroke-opacity:0.8;" x="342.042788" xlink:href="#m1403f07e65" y="32.854489"/>
     <use style="fill:#1f77b4;fill-opacity:0.8;stroke:#1f77b4;stroke-opacity:0.8;" x="367.088942" xlink:href="#m1403f07e65" y="103.096913"/>
     <use style="fill:#1f77b4;fill-opacity:0.8;stroke:#1f77b4;stroke-opacity:0.8;" x="342.042788" xlink:href="#m1403f07e65" y="103.096913"/>
     <use style="fill:#1f77b4;fill-opacity:0.8;stroke:#1f77b4;stroke-opacity:0.8;" x="379.612019" xlink:href="#m1403f07e65" y="103.096913"/>
     <use style="fill:#1f77b4;fill-opacity:0.8;stroke:#1f77b4;stroke-opacity:0.8;" x="342.042788" xlink:href="#m1403f07e65" y="103.096913"/>
     <use style="fill:#1f77b4;fill-opacity:0.8;stroke:#1f77b4;stroke-opacity:0.8;" x="392.135096" xlink:href="#m1403f07e65" y="103.096913"/>
     <use style="fill:#1f77b4;fill-opacity:0.8;stroke:#1f77b4;stroke-opacity:0.8;" x="354.565865" xlink:href="#m1403f07e65" y="243.581761"/>
     <use style="fill:#1f77b4;fill-opacity:0.8;stroke:#1f77b4;stroke-opacity:0.8;" x="392.135096" xlink:href="#m1403f07e65" y="103.096913"/>
     <use style="fill:#1f77b4;fill-opacity:0.8;stroke:#1f77b4;stroke-opacity:0.8;" x="354.565865" xlink:href="#m1403f07e65" y="32.854489"/>
     <use style="fill:#1f77b4;fill-opacity:0.8;stroke:#1f77b4;stroke-opacity:0.8;" x="316.996635" xlink:href="#m1403f07e65" y="103.096913"/>
     <use style="fill:#1f77b4;fill-opacity:0.8;stroke:#1f77b4;stroke-opacity:0.8;" x="367.088942" xlink:href="#m1403f07e65" y="103.096913"/>
     <use style="fill:#1f77b4;fill-opacity:0.8;stroke:#1f77b4;stroke-opacity:0.8;" x="279.427404" xlink:href="#m1403f07e65" y="243.581761"/>
     <use style="fill:#1f77b4;fill-opacity:0.8;stroke:#1f77b4;stroke-opacity:0.8;" x="417.18125" xlink:href="#m1403f07e65" y="103.096913"/>
     <use style="fill:#1f77b4;fill-opacity:0.8;stroke:#1f77b4;stroke-opacity:0.8;" x="316.996635" xlink:href="#m1403f07e65" y="32.854489"/>
     <use style="fill:#1f77b4;fill-opacity:0.8;stroke:#1f77b4;stroke-opacity:0.8;" x="367.088942" xlink:href="#m1403f07e65" y="32.854489"/>
     <use style="fill:#1f77b4;fill-opacity:0.8;stroke:#1f77b4;stroke-opacity:0.8;" x="379.612019" xlink:href="#m1403f07e65" y="103.096913"/>
     <use style="fill:#1f77b4;fill-opacity:0.8;stroke:#1f77b4;stroke-opacity:0.8;" x="379.612019" xlink:href="#m1403f07e65" y="32.854489"/>
     <use style="fill:#1f77b4;fill-opacity:0.8;stroke:#1f77b4;stroke-opacity:0.8;" x="316.996635" xlink:href="#m1403f07e65" y="103.096913"/>
     <use style="fill:#1f77b4;fill-opacity:0.8;stroke:#1f77b4;stroke-opacity:0.8;" x="316.996635" xlink:href="#m1403f07e65" y="32.854489"/>
     <use style="fill:#1f77b4;fill-opacity:0.8;stroke:#1f77b4;stroke-opacity:0.8;" x="316.996635" xlink:href="#m1403f07e65" y="103.096913"/>
     <use style="fill:#1f77b4;fill-opacity:0.8;stroke:#1f77b4;stroke-opacity:0.8;" x="379.612019" xlink:href="#m1403f07e65" y="173.339337"/>
     <use style="fill:#1f77b4;fill-opacity:0.8;stroke:#1f77b4;stroke-opacity:0.8;" x="379.612019" xlink:href="#m1403f07e65" y="103.096913"/>
     <use style="fill:#1f77b4;fill-opacity:0.8;stroke:#1f77b4;stroke-opacity:0.8;" x="254.38125" xlink:href="#m1403f07e65" y="32.854489"/>
     <use style="fill:#1f77b4;fill-opacity:0.8;stroke:#1f77b4;stroke-opacity:0.8;" x="329.519712" xlink:href="#m1403f07e65" y="103.096913"/>
     <use style="fill:#1f77b4;fill-opacity:0.8;stroke:#1f77b4;stroke-opacity:0.8;" x="354.565865" xlink:href="#m1403f07e65" y="103.096913"/>
     <use style="fill:#1f77b4;fill-opacity:0.8;stroke:#1f77b4;stroke-opacity:0.8;" x="316.996635" xlink:href="#m1403f07e65" y="103.096913"/>
     <use style="fill:#1f77b4;fill-opacity:0.8;stroke:#1f77b4;stroke-opacity:0.8;" x="342.042788" xlink:href="#m1403f07e65" y="32.854489"/>
     <use style="fill:#1f77b4;fill-opacity:0.8;stroke:#1f77b4;stroke-opacity:0.8;" x="329.519712" xlink:href="#m1403f07e65" y="103.096913"/>
     <use style="fill:#1f77b4;fill-opacity:0.8;stroke:#1f77b4;stroke-opacity:0.8;" x="316.996635" xlink:href="#m1403f07e65" y="103.096913"/>
     <use style="fill:#1f77b4;fill-opacity:0.8;stroke:#1f77b4;stroke-opacity:0.8;" x="367.088942" xlink:href="#m1403f07e65" y="32.854489"/>
     <use style="fill:#1f77b4;fill-opacity:0.8;stroke:#1f77b4;stroke-opacity:0.8;" x="316.996635" xlink:href="#m1403f07e65" y="103.096913"/>
     <use style="fill:#1f77b4;fill-opacity:0.8;stroke:#1f77b4;stroke-opacity:0.8;" x="316.996635" xlink:href="#m1403f07e65" y="32.854489"/>
     <use style="fill:#1f77b4;fill-opacity:0.8;stroke:#1f77b4;stroke-opacity:0.8;" x="316.996635" xlink:href="#m1403f07e65" y="32.854489"/>
     <use style="fill:#1f77b4;fill-opacity:0.8;stroke:#1f77b4;stroke-opacity:0.8;" x="379.612019" xlink:href="#m1403f07e65" y="103.096913"/>
    </g>
   </g>
   <g id="PolyCollection_2">
    <path clip-path="url(#p7cf92d0e70)" d="M 254.38125 35.93947 
L 254.38125 132.363909 
L 256.025694 131.536186 
L 257.670139 130.708463 
L 259.314583 129.88074 
L 260.959028 129.053017 
L 262.603472 128.225294 
L 264.247917 127.397572 
L 265.892361 126.569849 
L 267.536806 126.151972 
L 269.18125 125.792894 
L 270.825694 125.433816 
L 272.470139 125.0101 
L 274.114583 124.372498 
L 275.759028 123.951256 
L 277.403472 123.530015 
L 279.047917 123.107822 
L 280.692361 122.677805 
L 282.336806 122.240085 
L 283.98125 121.59029 
L 285.625694 121.291541 
L 287.270139 120.979103 
L 288.914583 120.556453 
L 290.559028 119.740662 
L 292.203472 118.891045 
L 293.847917 118.03206 
L 295.492361 117.173075 
L 297.136806 116.523928 
L 298.78125 115.790325 
L 300.425694 114.869229 
L 302.070139 114.34116 
L 303.714583 113.928502 
L 305.359028 113.478914 
L 307.003472 112.599247 
L 308.647917 112.346234 
L 310.292361 112.145308 
L 311.936806 111.793502 
L 313.58125 111.515426 
L 315.225694 111.13943 
L 316.870139 110.735439 
L 318.514583 110.811502 
L 320.159028 110.758329 
L 321.803472 109.927175 
L 323.447917 109.099404 
L 325.092361 108.907011 
L 326.736806 108.515745 
L 328.38125 108.350904 
L 330.025694 108.074285 
L 331.670139 107.875976 
L 333.314583 107.691391 
L 334.959028 106.965181 
L 336.603472 106.940592 
L 338.247917 106.838667 
L 339.892361 106.456414 
L 341.536806 106.068973 
L 343.18125 105.677565 
L 344.825694 105.286157 
L 346.470139 104.893876 
L 348.114583 104.972666 
L 349.759028 104.905168 
L 351.403472 104.786864 
L 353.047917 105.091717 
L 354.692361 105.254892 
L 356.336806 105.406266 
L 357.98125 106.000245 
L 359.625694 106.214987 
L 361.270139 106.471439 
L 362.914583 107.103579 
L 364.559028 107.329605 
L 366.203472 107.992302 
L 367.847917 108.436796 
L 369.492361 108.885037 
L 371.136806 109.524171 
L 372.78125 110.196594 
L 374.425694 110.869017 
L 376.070139 111.016461 
L 377.714583 112.015771 
L 379.359028 112.575204 
L 381.003472 113.341168 
L 382.647917 113.929587 
L 384.292361 114.594807 
L 385.936806 115.276752 
L 387.58125 116.13848 
L 389.225694 116.93623 
L 390.870139 117.365057 
L 392.514583 118.283421 
L 394.159028 119.009943 
L 395.803472 119.643897 
L 397.447917 120.3245 
L 399.092361 121.180824 
L 400.736806 122.147261 
L 402.38125 123.113699 
L 404.025694 124.077762 
L 405.670139 125.011549 
L 407.314583 125.998758 
L 408.959028 126.973234 
L 410.603472 127.936996 
L 412.247917 128.900758 
L 413.892361 129.602653 
L 415.536806 130.211562 
L 417.18125 130.820048 
L 417.18125 62.224677 
L 417.18125 62.224677 
L 415.536806 62.708669 
L 413.892361 63.525701 
L 412.247917 64.196154 
L 410.603472 64.501684 
L 408.959028 64.807214 
L 407.314583 65.117092 
L 405.670139 65.431621 
L 404.025694 66.129107 
L 402.38125 66.902502 
L 400.736806 67.778851 
L 399.092361 68.592863 
L 397.447917 69.303795 
L 395.803472 69.780017 
L 394.159028 69.965423 
L 392.514583 70.484081 
L 390.870139 70.651265 
L 389.225694 71.28307 
L 387.58125 71.792262 
L 385.936806 71.840115 
L 384.292361 72.277662 
L 382.647917 72.494577 
L 381.003472 72.60281 
L 379.359028 73.208967 
L 377.714583 73.338888 
L 376.070139 74.125599 
L 374.425694 74.811176 
L 372.78125 74.923331 
L 371.136806 75.139723 
L 369.492361 75.359011 
L 367.847917 75.370064 
L 366.203472 75.748622 
L 364.559028 75.937758 
L 362.914583 76.30055 
L 361.270139 76.362916 
L 359.625694 76.467805 
L 357.98125 76.580504 
L 356.336806 76.349937 
L 354.692361 76.372917 
L 353.047917 75.974348 
L 351.403472 75.769899 
L 349.759028 75.754511 
L 348.114583 75.590358 
L 346.470139 75.277436 
L 344.825694 75.059446 
L 343.18125 74.767193 
L 341.536806 74.473819 
L 339.892361 74.360954 
L 338.247917 74.155047 
L 336.603472 73.526638 
L 334.959028 72.990841 
L 333.314583 72.650572 
L 331.670139 72.253058 
L 330.025694 71.829636 
L 328.38125 71.020159 
L 326.736806 70.481405 
L 325.092361 70.035658 
L 323.447917 69.460683 
L 321.803472 68.951349 
L 320.159028 68.265858 
L 318.514583 67.652603 
L 316.870139 66.913635 
L 315.225694 66.217534 
L 313.58125 65.350951 
L 311.936806 64.574372 
L 310.292361 63.924343 
L 308.647917 63.284304 
L 307.003472 62.645737 
L 305.359028 61.998567 
L 303.714583 61.278609 
L 302.070139 60.589095 
L 300.425694 59.902018 
L 298.78125 59.224572 
L 297.136806 58.543699 
L 295.492361 57.850168 
L 293.847917 56.664485 
L 292.203472 55.491877 
L 290.559028 54.918429 
L 288.914583 54.349467 
L 287.270139 53.78761 
L 285.625694 53.225754 
L 283.98125 52.22894 
L 282.336806 51.220238 
L 280.692361 50.211537 
L 279.047917 49.202836 
L 277.403472 48.194134 
L 275.759028 47.115625 
L 274.114583 46.01486 
L 272.470139 44.914096 
L 270.825694 44.087207 
L 269.18125 43.264604 
L 267.536806 42.446551 
L 265.892361 41.632636 
L 264.247917 40.819327 
L 262.603472 40.006017 
L 260.959028 39.192708 
L 259.314583 38.379399 
L 257.670139 37.566089 
L 256.025694 36.75278 
L 254.38125 35.93947 
z
" style="fill:#1f77b4;fill-opacity:0.15;"/>
   </g>
   <g id="matplotlib.axis_3">
    <g id="xtick_4">
     <g id="line2d_13">
      <g>
       <use style="stroke:#000000;stroke-width:0.8;" x="291.950481" xlink:href="#m2b256656fa" y="254.118125"/>
      </g>
     </g>
     <g id="text_15">
      <!-- 2 -->
      <g transform="translate(288.769231 268.716562)scale(0.1 -0.1)">
       <use xlink:href="#DejaVuSans-50"/>
      </g>
     </g>
    </g>
    <g id="xtick_5">
     <g id="line2d_14">
      <g>
       <use style="stroke:#000000;stroke-width:0.8;" x="342.042788" xlink:href="#m2b256656fa" y="254.118125"/>
      </g>
     </g>
     <g id="text_16">
      <!-- 3 -->
      <g transform="translate(338.861538 268.716562)scale(0.1 -0.1)">
       <use xlink:href="#DejaVuSans-51"/>
      </g>
     </g>
    </g>
    <g id="xtick_6">
     <g id="line2d_15">
      <g>
       <use style="stroke:#000000;stroke-width:0.8;" x="392.135096" xlink:href="#m2b256656fa" y="254.118125"/>
      </g>
     </g>
     <g id="text_17">
      <!-- 4 -->
      <g transform="translate(388.953846 268.716562)scale(0.1 -0.1)">
       <use xlink:href="#DejaVuSans-52"/>
      </g>
     </g>
    </g>
    <g id="text_18">
     <!-- E -->
     <g transform="translate(332.621875 282.394687)scale(0.1 -0.1)">
      <use xlink:href="#DejaVuSans-69"/>
     </g>
    </g>
   </g>
   <g id="matplotlib.axis_4">
    <g id="ytick_9">
     <g id="line2d_16">
      <g>
       <use style="stroke:#000000;stroke-width:0.8;" x="254.38125" xlink:href="#mfff140f01b" y="243.581761"/>
      </g>
     </g>
     <g id="text_19">
      <!-- 2.0 -->
      <g transform="translate(231.478125 247.38098)scale(0.1 -0.1)">
       <use xlink:href="#DejaVuSans-50"/>
       <use x="63.623047" xlink:href="#DejaVuSans-46"/>
       <use x="95.410156" xlink:href="#DejaVuSans-48"/>
      </g>
     </g>
    </g>
    <g id="ytick_10">
     <g id="line2d_17">
      <g>
       <use style="stroke:#000000;stroke-width:0.8;" x="254.38125" xlink:href="#mfff140f01b" y="208.460549"/>
      </g>
     </g>
     <g id="text_20">
      <!-- 2.5 -->
      <g transform="translate(231.478125 212.259768)scale(0.1 -0.1)">
       <use xlink:href="#DejaVuSans-50"/>
       <use x="63.623047" xlink:href="#DejaVuSans-46"/>
       <use x="95.410156" xlink:href="#DejaVuSans-53"/>
      </g>
     </g>
    </g>
    <g id="ytick_11">
     <g id="line2d_18">
      <g>
       <use style="stroke:#000000;stroke-width:0.8;" x="254.38125" xlink:href="#mfff140f01b" y="173.339337"/>
      </g>
     </g>
     <g id="text_21">
      <!-- 3.0 -->
      <g transform="translate(231.478125 177.138556)scale(0.1 -0.1)">
       <use xlink:href="#DejaVuSans-51"/>
       <use x="63.623047" xlink:href="#DejaVuSans-46"/>
       <use x="95.410156" xlink:href="#DejaVuSans-48"/>
      </g>
     </g>
    </g>
    <g id="ytick_12">
     <g id="line2d_19">
      <g>
       <use style="stroke:#000000;stroke-width:0.8;" x="254.38125" xlink:href="#mfff140f01b" y="138.218125"/>
      </g>
     </g>
     <g id="text_22">
      <!-- 3.5 -->
      <g transform="translate(231.478125 142.017344)scale(0.1 -0.1)">
       <use xlink:href="#DejaVuSans-51"/>
       <use x="63.623047" xlink:href="#DejaVuSans-46"/>
       <use x="95.410156" xlink:href="#DejaVuSans-53"/>
      </g>
     </g>
    </g>
    <g id="ytick_13">
     <g id="line2d_20">
      <g>
       <use style="stroke:#000000;stroke-width:0.8;" x="254.38125" xlink:href="#mfff140f01b" y="103.096913"/>
      </g>
     </g>
     <g id="text_23">
      <!-- 4.0 -->
      <g transform="translate(231.478125 106.896132)scale(0.1 -0.1)">
       <use xlink:href="#DejaVuSans-52"/>
       <use x="63.623047" xlink:href="#DejaVuSans-46"/>
       <use x="95.410156" xlink:href="#DejaVuSans-48"/>
      </g>
     </g>
    </g>
    <g id="ytick_14">
     <g id="line2d_21">
      <g>
       <use style="stroke:#000000;stroke-width:0.8;" x="254.38125" xlink:href="#mfff140f01b" y="67.975701"/>
      </g>
     </g>
     <g id="text_24">
      <!-- 4.5 -->
      <g transform="translate(231.478125 71.77492)scale(0.1 -0.1)">
       <use xlink:href="#DejaVuSans-52"/>
       <use x="63.623047" xlink:href="#DejaVuSans-46"/>
       <use x="95.410156" xlink:href="#DejaVuSans-53"/>
      </g>
     </g>
    </g>
    <g id="ytick_15">
     <g id="line2d_22">
      <g>
       <use style="stroke:#000000;stroke-width:0.8;" x="254.38125" xlink:href="#mfff140f01b" y="32.854489"/>
      </g>
     </g>
     <g id="text_25">
      <!-- 5.0 -->
      <g transform="translate(231.478125 36.653707)scale(0.1 -0.1)">
       <use xlink:href="#DejaVuSans-53"/>
       <use x="63.623047" xlink:href="#DejaVuSans-46"/>
       <use x="95.410156" xlink:href="#DejaVuSans-48"/>
      </g>
     </g>
    </g>
    <g id="text_26">
     <!-- Expectation1 -->
     <g transform="translate(225.398437 171.119687)rotate(-90)scale(0.1 -0.1)">
      <use xlink:href="#DejaVuSans-69"/>
      <use x="63.183594" xlink:href="#DejaVuSans-120"/>
      <use x="122.363281" xlink:href="#DejaVuSans-112"/>
      <use x="185.839844" xlink:href="#DejaVuSans-101"/>
      <use x="247.363281" xlink:href="#DejaVuSans-99"/>
      <use x="302.34375" xlink:href="#DejaVuSans-116"/>
      <use x="341.552734" xlink:href="#DejaVuSans-97"/>
      <use x="402.832031" xlink:href="#DejaVuSans-116"/>
      <use x="442.041016" xlink:href="#DejaVuSans-105"/>
      <use x="469.824219" xlink:href="#DejaVuSans-111"/>
      <use x="531.005859" xlink:href="#DejaVuSans-110"/>
      <use x="594.384766" xlink:href="#DejaVuSans-49"/>
     </g>
    </g>
   </g>
   <g id="line2d_23">
    <path clip-path="url(#p7cf92d0e70)" d="M 254.38125 82.258751 
L 256.025694 82.399627 
L 257.670139 82.540502 
L 259.314583 82.681377 
L 260.959028 82.822253 
L 262.603472 82.963128 
L 264.247917 83.104003 
L 265.892361 83.244879 
L 267.536806 83.385754 
L 269.18125 83.526629 
L 270.825694 83.667505 
L 272.470139 83.80838 
L 274.114583 83.949255 
L 275.759028 84.090131 
L 277.403472 84.231006 
L 279.047917 84.371881 
L 280.692361 84.512757 
L 282.336806 84.653632 
L 283.98125 84.794507 
L 285.625694 84.935383 
L 287.270139 85.076258 
L 288.914583 85.217133 
L 290.559028 85.358009 
L 292.203472 85.498884 
L 293.847917 85.639759 
L 295.492361 85.780635 
L 297.136806 85.92151 
L 298.78125 86.062385 
L 300.425694 86.203261 
L 302.070139 86.344136 
L 303.714583 86.485011 
L 305.359028 86.625887 
L 307.003472 86.766762 
L 308.647917 86.907637 
L 310.292361 87.048513 
L 311.936806 87.189388 
L 313.58125 87.330263 
L 315.225694 87.471139 
L 316.870139 87.612014 
L 318.514583 87.752889 
L 320.159028 87.893765 
L 321.803472 88.03464 
L 323.447917 88.175515 
L 325.092361 88.316391 
L 326.736806 88.457266 
L 328.38125 88.598141 
L 330.025694 88.739017 
L 331.670139 88.879892 
L 333.314583 89.020767 
L 334.959028 89.161643 
L 336.603472 89.302518 
L 338.247917 89.443393 
L 339.892361 89.584269 
L 341.536806 89.725144 
L 343.18125 89.866019 
L 344.825694 90.006895 
L 346.470139 90.14777 
L 348.114583 90.288645 
L 349.759028 90.429521 
L 351.403472 90.570396 
L 353.047917 90.711271 
L 354.692361 90.852147 
L 356.336806 90.993022 
L 357.98125 91.133897 
L 359.625694 91.274773 
L 361.270139 91.415648 
L 362.914583 91.556523 
L 364.559028 91.697399 
L 366.203472 91.838274 
L 367.847917 91.979149 
L 369.492361 92.120025 
L 371.136806 92.2609 
L 372.78125 92.401775 
L 374.425694 92.542651 
L 376.070139 92.683526 
L 377.714583 92.824401 
L 379.359028 92.965277 
L 381.003472 93.106152 
L 382.647917 93.247027 
L 384.292361 93.387903 
L 385.936806 93.528778 
L 387.58125 93.669653 
L 389.225694 93.810529 
L 390.870139 93.951404 
L 392.514583 94.092279 
L 394.159028 94.233155 
L 395.803472 94.37403 
L 397.447917 94.514905 
L 399.092361 94.655781 
L 400.736806 94.796656 
L 402.38125 94.937531 
L 404.025694 95.078407 
L 405.670139 95.219282 
L 407.314583 95.360157 
L 408.959028 95.501033 
L 410.603472 95.641908 
L 412.247917 95.782783 
L 413.892361 95.923659 
L 415.536806 96.064534 
L 417.18125 96.205409 
" style="fill:none;stroke:#1f77b4;stroke-linecap:square;stroke-width:2.25;"/>
   </g>
   <g id="patch_8">
    <path d="M 254.38125 254.118125 
L 254.38125 22.318125 
" style="fill:none;stroke:#000000;stroke-linecap:square;stroke-linejoin:miter;stroke-width:0.8;"/>
   </g>
   <g id="patch_9">
    <path d="M 417.18125 254.118125 
L 417.18125 22.318125 
" style="fill:none;stroke:#000000;stroke-linecap:square;stroke-linejoin:miter;stroke-width:0.8;"/>
   </g>
   <g id="patch_10">
    <path d="M 254.38125 254.118125 
L 417.18125 254.118125 
" style="fill:none;stroke:#000000;stroke-linecap:square;stroke-linejoin:miter;stroke-width:0.8;"/>
   </g>
   <g id="patch_11">
    <path d="M 254.38125 22.318125 
L 417.18125 22.318125 
" style="fill:none;stroke:#000000;stroke-linecap:square;stroke-linejoin:miter;stroke-width:0.8;"/>
   </g>
   <g id="text_27">
    <!-- Group B -->
    <g transform="translate(254.38125 16.318125)scale(0.12 -0.12)">
     <defs>
      <path d="M 19.671875 34.8125 
L 19.671875 8.109375 
L 35.5 8.109375 
Q 43.453125 8.109375 47.28125 11.40625 
Q 51.125 14.703125 51.125 21.484375 
Q 51.125 28.328125 47.28125 31.5625 
Q 43.453125 34.8125 35.5 34.8125 
z
M 19.671875 64.796875 
L 19.671875 42.828125 
L 34.28125 42.828125 
Q 41.5 42.828125 45.03125 45.53125 
Q 48.578125 48.25 48.578125 53.8125 
Q 48.578125 59.328125 45.03125 62.0625 
Q 41.5 64.796875 34.28125 64.796875 
z
M 9.8125 72.90625 
L 35.015625 72.90625 
Q 46.296875 72.90625 52.390625 68.21875 
Q 58.5 63.53125 58.5 54.890625 
Q 58.5 48.1875 55.375 44.234375 
Q 52.25 40.28125 46.1875 39.3125 
Q 53.46875 37.75 57.5 32.78125 
Q 61.53125 27.828125 61.53125 20.40625 
Q 61.53125 10.640625 54.890625 5.3125 
Q 48.25 0 35.984375 0 
L 9.8125 0 
z
" id="DejaVuSans-66"/>
     </defs>
     <use xlink:href="#DejaVuSans-71"/>
     <use x="77.490234" xlink:href="#DejaVuSans-114"/>
     <use x="116.353516" xlink:href="#DejaVuSans-111"/>
     <use x="177.535156" xlink:href="#DejaVuSans-117"/>
     <use x="240.914062" xlink:href="#DejaVuSans-112"/>
     <use x="304.390625" xlink:href="#DejaVuSans-32"/>
     <use x="336.177734" xlink:href="#DejaVuSans-66"/>
    </g>
   </g>
  </g>
  <g id="text_28">
   <!-- The chatbot's messages met my expectations. -->
   <g transform="translate(71.6825 22.79625)scale(0.12 -0.12)">
    <defs>
     <path d="M -0.296875 72.90625 
L 61.375 72.90625 
L 61.375 64.59375 
L 35.5 64.59375 
L 35.5 0 
L 25.59375 0 
L 25.59375 64.59375 
L -0.296875 64.59375 
z
" id="DejaVuSans-84"/>
     <path d="M 54.890625 33.015625 
L 54.890625 0 
L 45.90625 0 
L 45.90625 32.71875 
Q 45.90625 40.484375 42.875 44.328125 
Q 39.84375 48.1875 33.796875 48.1875 
Q 26.515625 48.1875 22.3125 43.546875 
Q 18.109375 38.921875 18.109375 30.90625 
L 18.109375 0 
L 9.078125 0 
L 9.078125 75.984375 
L 18.109375 75.984375 
L 18.109375 46.1875 
Q 21.34375 51.125 25.703125 53.5625 
Q 30.078125 56 35.796875 56 
Q 45.21875 56 50.046875 50.171875 
Q 54.890625 44.34375 54.890625 33.015625 
z
" id="DejaVuSans-104"/>
     <path d="M 48.6875 27.296875 
Q 48.6875 37.203125 44.609375 42.84375 
Q 40.53125 48.484375 33.40625 48.484375 
Q 26.265625 48.484375 22.1875 42.84375 
Q 18.109375 37.203125 18.109375 27.296875 
Q 18.109375 17.390625 22.1875 11.75 
Q 26.265625 6.109375 33.40625 6.109375 
Q 40.53125 6.109375 44.609375 11.75 
Q 48.6875 17.390625 48.6875 27.296875 
z
M 18.109375 46.390625 
Q 20.953125 51.265625 25.265625 53.625 
Q 29.59375 56 35.59375 56 
Q 45.5625 56 51.78125 48.09375 
Q 58.015625 40.1875 58.015625 27.296875 
Q 58.015625 14.40625 51.78125 6.484375 
Q 45.5625 -1.421875 35.59375 -1.421875 
Q 29.59375 -1.421875 25.265625 0.953125 
Q 20.953125 3.328125 18.109375 8.203125 
L 18.109375 0 
L 9.078125 0 
L 9.078125 75.984375 
L 18.109375 75.984375 
z
" id="DejaVuSans-98"/>
     <path d="M 17.921875 72.90625 
L 17.921875 45.796875 
L 9.625 45.796875 
L 9.625 72.90625 
z
" id="DejaVuSans-39"/>
     <path d="M 44.28125 53.078125 
L 44.28125 44.578125 
Q 40.484375 46.53125 36.375 47.5 
Q 32.28125 48.484375 27.875 48.484375 
Q 21.1875 48.484375 17.84375 46.4375 
Q 14.5 44.390625 14.5 40.28125 
Q 14.5 37.15625 16.890625 35.375 
Q 19.28125 33.59375 26.515625 31.984375 
L 29.59375 31.296875 
Q 39.15625 29.25 43.1875 25.515625 
Q 47.21875 21.78125 47.21875 15.09375 
Q 47.21875 7.46875 41.1875 3.015625 
Q 35.15625 -1.421875 24.609375 -1.421875 
Q 20.21875 -1.421875 15.453125 -0.5625 
Q 10.6875 0.296875 5.421875 2 
L 5.421875 11.28125 
Q 10.40625 8.6875 15.234375 7.390625 
Q 20.0625 6.109375 24.8125 6.109375 
Q 31.15625 6.109375 34.5625 8.28125 
Q 37.984375 10.453125 37.984375 14.40625 
Q 37.984375 18.0625 35.515625 20.015625 
Q 33.0625 21.96875 24.703125 23.78125 
L 21.578125 24.515625 
Q 13.234375 26.265625 9.515625 29.90625 
Q 5.8125 33.546875 5.8125 39.890625 
Q 5.8125 47.609375 11.28125 51.796875 
Q 16.75 56 26.8125 56 
Q 31.78125 56 36.171875 55.265625 
Q 40.578125 54.546875 44.28125 53.078125 
z
" id="DejaVuSans-115"/>
     <path d="M 52 44.1875 
Q 55.375 50.25 60.0625 53.125 
Q 64.75 56 71.09375 56 
Q 79.640625 56 84.28125 50.015625 
Q 88.921875 44.046875 88.921875 33.015625 
L 88.921875 0 
L 79.890625 0 
L 79.890625 32.71875 
Q 79.890625 40.578125 77.09375 44.375 
Q 74.3125 48.1875 68.609375 48.1875 
Q 61.625 48.1875 57.5625 43.546875 
Q 53.515625 38.921875 53.515625 30.90625 
L 53.515625 0 
L 44.484375 0 
L 44.484375 32.71875 
Q 44.484375 40.625 41.703125 44.40625 
Q 38.921875 48.1875 33.109375 48.1875 
Q 26.21875 48.1875 22.15625 43.53125 
Q 18.109375 38.875 18.109375 30.90625 
L 18.109375 0 
L 9.078125 0 
L 9.078125 54.6875 
L 18.109375 54.6875 
L 18.109375 46.1875 
Q 21.1875 51.21875 25.484375 53.609375 
Q 29.78125 56 35.6875 56 
Q 41.65625 56 45.828125 52.96875 
Q 50 49.953125 52 44.1875 
z
" id="DejaVuSans-109"/>
     <path d="M 45.40625 27.984375 
Q 45.40625 37.75 41.375 43.109375 
Q 37.359375 48.484375 30.078125 48.484375 
Q 22.859375 48.484375 18.828125 43.109375 
Q 14.796875 37.75 14.796875 27.984375 
Q 14.796875 18.265625 18.828125 12.890625 
Q 22.859375 7.515625 30.078125 7.515625 
Q 37.359375 7.515625 41.375 12.890625 
Q 45.40625 18.265625 45.40625 27.984375 
z
M 54.390625 6.78125 
Q 54.390625 -7.171875 48.1875 -13.984375 
Q 42 -20.796875 29.203125 -20.796875 
Q 24.46875 -20.796875 20.265625 -20.09375 
Q 16.0625 -19.390625 12.109375 -17.921875 
L 12.109375 -9.1875 
Q 16.0625 -11.328125 19.921875 -12.34375 
Q 23.78125 -13.375 27.78125 -13.375 
Q 36.625 -13.375 41.015625 -8.765625 
Q 45.40625 -4.15625 45.40625 5.171875 
L 45.40625 9.625 
Q 42.625 4.78125 38.28125 2.390625 
Q 33.9375 0 27.875 0 
Q 17.828125 0 11.671875 7.65625 
Q 5.515625 15.328125 5.515625 27.984375 
Q 5.515625 40.671875 11.671875 48.328125 
Q 17.828125 56 27.875 56 
Q 33.9375 56 38.28125 53.609375 
Q 42.625 51.21875 45.40625 46.390625 
L 45.40625 54.6875 
L 54.390625 54.6875 
z
" id="DejaVuSans-103"/>
     <path d="M 32.171875 -5.078125 
Q 28.375 -14.84375 24.75 -17.8125 
Q 21.140625 -20.796875 15.09375 -20.796875 
L 7.90625 -20.796875 
L 7.90625 -13.28125 
L 13.1875 -13.28125 
Q 16.890625 -13.28125 18.9375 -11.515625 
Q 21 -9.765625 23.484375 -3.21875 
L 25.09375 0.875 
L 2.984375 54.6875 
L 12.5 54.6875 
L 29.59375 11.921875 
L 46.6875 54.6875 
L 56.203125 54.6875 
z
" id="DejaVuSans-121"/>
    </defs>
    <use xlink:href="#DejaVuSans-84"/>
    <use x="61.083984" xlink:href="#DejaVuSans-104"/>
    <use x="124.462891" xlink:href="#DejaVuSans-101"/>
    <use x="185.986328" xlink:href="#DejaVuSans-32"/>
    <use x="217.773438" xlink:href="#DejaVuSans-99"/>
    <use x="272.753906" xlink:href="#DejaVuSans-104"/>
    <use x="336.132812" xlink:href="#DejaVuSans-97"/>
    <use x="397.412109" xlink:href="#DejaVuSans-116"/>
    <use x="436.621094" xlink:href="#DejaVuSans-98"/>
    <use x="500.097656" xlink:href="#DejaVuSans-111"/>
    <use x="561.279297" xlink:href="#DejaVuSans-116"/>
    <use x="600.488281" xlink:href="#DejaVuSans-39"/>
    <use x="627.978516" xlink:href="#DejaVuSans-115"/>
    <use x="680.078125" xlink:href="#DejaVuSans-32"/>
    <use x="711.865234" xlink:href="#DejaVuSans-109"/>
    <use x="809.277344" xlink:href="#DejaVuSans-101"/>
    <use x="870.800781" xlink:href="#DejaVuSans-115"/>
    <use x="922.900391" xlink:href="#DejaVuSans-115"/>
    <use x="975" xlink:href="#DejaVuSans-97"/>
    <use x="1036.279297" xlink:href="#DejaVuSans-103"/>
    <use x="1099.755859" xlink:href="#DejaVuSans-101"/>
    <use x="1161.279297" xlink:href="#DejaVuSans-115"/>
    <use x="1213.378906" xlink:href="#DejaVuSans-32"/>
    <use x="1245.166016" xlink:href="#DejaVuSans-109"/>
    <use x="1342.578125" xlink:href="#DejaVuSans-101"/>
    <use x="1404.101562" xlink:href="#DejaVuSans-116"/>
    <use x="1443.310547" xlink:href="#DejaVuSans-32"/>
    <use x="1475.097656" xlink:href="#DejaVuSans-109"/>
    <use x="1572.509766" xlink:href="#DejaVuSans-121"/>
    <use x="1631.689453" xlink:href="#DejaVuSans-32"/>
    <use x="1663.476562" xlink:href="#DejaVuSans-101"/>
    <use x="1723.25" xlink:href="#DejaVuSans-120"/>
    <use x="1782.429688" xlink:href="#DejaVuSans-112"/>
    <use x="1845.90625" xlink:href="#DejaVuSans-101"/>
    <use x="1907.429688" xlink:href="#DejaVuSans-99"/>
    <use x="1962.410156" xlink:href="#DejaVuSans-116"/>
    <use x="2001.619141" xlink:href="#DejaVuSans-97"/>
    <use x="2062.898438" xlink:href="#DejaVuSans-116"/>
    <use x="2102.107422" xlink:href="#DejaVuSans-105"/>
    <use x="2129.890625" xlink:href="#DejaVuSans-111"/>
    <use x="2191.072266" xlink:href="#DejaVuSans-110"/>
    <use x="2254.451172" xlink:href="#DejaVuSans-115"/>
    <use x="2306.550781" xlink:href="#DejaVuSans-46"/>
   </g>
  </g>
 </g>
 <defs>
  <clipPath id="p9548814f27">
   <rect height="231.8" width="162.8" x="43.78125" y="22.318125"/>
  </clipPath>
  <clipPath id="p7cf92d0e70">
   <rect height="231.8" width="162.8" x="254.38125" y="22.318125"/>
  </clipPath>
 </defs>
</svg>
