<?xml version="1.0" encoding="utf-8" standalone="no"?>
<!DOCTYPE svg PUBLIC "-//W3C//DTD SVG 1.1//EN"
  "http://www.w3.org/Graphics/SVG/1.1/DTD/svg11.dtd">
<!-- Created with matplotlib (https://matplotlib.org/) -->
<svg height="291.674375pt" version="1.1" viewBox="0 0 424.465625 291.674375" width="424.465625pt" xmlns="http://www.w3.org/2000/svg" xmlns:xlink="http://www.w3.org/1999/xlink">
 <metadata>
  <rdf:RDF xmlns:cc="http://creativecommons.org/ns#" xmlns:dc="http://purl.org/dc/elements/1.1/" xmlns:rdf="http://www.w3.org/1999/02/22-rdf-syntax-ns#">
   <cc:Work>
    <dc:type rdf:resource="http://purl.org/dc/dcmitype/StillImage"/>
    <dc:date>2021-02-20T15:29:26.925592</dc:date>
    <dc:format>image/svg+xml</dc:format>
    <dc:creator>
     <cc:Agent>
      <dc:title>Matplotlib v3.3.2, https://matplotlib.org/</dc:title>
     </cc:Agent>
    </dc:creator>
   </cc:Work>
  </rdf:RDF>
 </metadata>
 <defs>
  <style type="text/css">*{stroke-linecap:butt;stroke-linejoin:round;}</style>
 </defs>
 <g id="figure_1">
  <g id="patch_1">
   <path d="M 0 291.674375 
L 424.465625 291.674375 
L 424.465625 0 
L 0 0 
z
" style="fill:none;"/>
  </g>
  <g id="axes_1">
   <g id="patch_2">
    <path d="M 34.240625 254.118125 
L 201.853125 254.118125 
L 201.853125 22.318125 
L 34.240625 22.318125 
z
" style="fill:#ffffff;"/>
   </g>
   <g id="PathCollection_1">
    <defs>
     <path d="M 0 3 
C 0.795609 3 1.55874 2.683901 2.12132 2.12132 
C 2.683901 1.55874 3 0.795609 3 0 
C 3 -0.795609 2.683901 -1.55874 2.12132 -2.12132 
C 1.55874 -2.683901 0.795609 -3 0 -3 
C -0.795609 -3 -1.55874 -2.683901 -2.12132 -2.12132 
C -2.683901 -1.55874 -3 -0.795609 -3 0 
C -3 0.795609 -2.683901 1.55874 -2.12132 2.12132 
C -1.55874 2.683901 -0.795609 3 0 3 
z
" id="m970571ef40" style="stroke:#1f77b4;stroke-opacity:0.8;"/>
    </defs>
    <g clip-path="url(#p789054f617)">
     <use style="fill:#1f77b4;fill-opacity:0.8;stroke:#1f77b4;stroke-opacity:0.8;" x="137.386779" xlink:href="#m970571ef40" y="62.12868"/>
     <use style="fill:#1f77b4;fill-opacity:0.8;stroke:#1f77b4;stroke-opacity:0.8;" x="60.027163" xlink:href="#m970571ef40" y="62.12868"/>
     <use style="fill:#1f77b4;fill-opacity:0.8;stroke:#1f77b4;stroke-opacity:0.8;" x="72.920433" xlink:href="#m970571ef40" y="152.85522"/>
     <use style="fill:#1f77b4;fill-opacity:0.8;stroke:#1f77b4;stroke-opacity:0.8;" x="137.386779" xlink:href="#m970571ef40" y="62.12868"/>
     <use style="fill:#1f77b4;fill-opacity:0.8;stroke:#1f77b4;stroke-opacity:0.8;" x="163.173317" xlink:href="#m970571ef40" y="62.12868"/>
     <use style="fill:#1f77b4;fill-opacity:0.8;stroke:#1f77b4;stroke-opacity:0.8;" x="124.49351" xlink:href="#m970571ef40" y="107.49195"/>
     <use style="fill:#1f77b4;fill-opacity:0.8;stroke:#1f77b4;stroke-opacity:0.8;" x="176.066587" xlink:href="#m970571ef40" y="62.12868"/>
     <use style="fill:#1f77b4;fill-opacity:0.8;stroke:#1f77b4;stroke-opacity:0.8;" x="124.49351" xlink:href="#m970571ef40" y="243.581761"/>
     <use style="fill:#1f77b4;fill-opacity:0.8;stroke:#1f77b4;stroke-opacity:0.8;" x="72.920433" xlink:href="#m970571ef40" y="152.85522"/>
     <use style="fill:#1f77b4;fill-opacity:0.8;stroke:#1f77b4;stroke-opacity:0.8;" x="111.60024" xlink:href="#m970571ef40" y="107.49195"/>
     <use style="fill:#1f77b4;fill-opacity:0.8;stroke:#1f77b4;stroke-opacity:0.8;" x="111.60024" xlink:href="#m970571ef40" y="62.12868"/>
     <use style="fill:#1f77b4;fill-opacity:0.8;stroke:#1f77b4;stroke-opacity:0.8;" x="163.173317" xlink:href="#m970571ef40" y="62.12868"/>
     <use style="fill:#1f77b4;fill-opacity:0.8;stroke:#1f77b4;stroke-opacity:0.8;" x="85.813702" xlink:href="#m970571ef40" y="198.218491"/>
     <use style="fill:#1f77b4;fill-opacity:0.8;stroke:#1f77b4;stroke-opacity:0.8;" x="124.49351" xlink:href="#m970571ef40" y="62.12868"/>
     <use style="fill:#1f77b4;fill-opacity:0.8;stroke:#1f77b4;stroke-opacity:0.8;" x="124.49351" xlink:href="#m970571ef40" y="107.49195"/>
     <use style="fill:#1f77b4;fill-opacity:0.8;stroke:#1f77b4;stroke-opacity:0.8;" x="150.280048" xlink:href="#m970571ef40" y="107.49195"/>
     <use style="fill:#1f77b4;fill-opacity:0.8;stroke:#1f77b4;stroke-opacity:0.8;" x="111.60024" xlink:href="#m970571ef40" y="152.85522"/>
     <use style="fill:#1f77b4;fill-opacity:0.8;stroke:#1f77b4;stroke-opacity:0.8;" x="98.706971" xlink:href="#m970571ef40" y="62.12868"/>
     <use style="fill:#1f77b4;fill-opacity:0.8;stroke:#1f77b4;stroke-opacity:0.8;" x="150.280048" xlink:href="#m970571ef40" y="243.581761"/>
     <use style="fill:#1f77b4;fill-opacity:0.8;stroke:#1f77b4;stroke-opacity:0.8;" x="34.240625" xlink:href="#m970571ef40" y="198.218491"/>
     <use style="fill:#1f77b4;fill-opacity:0.8;stroke:#1f77b4;stroke-opacity:0.8;" x="85.813702" xlink:href="#m970571ef40" y="107.49195"/>
     <use style="fill:#1f77b4;fill-opacity:0.8;stroke:#1f77b4;stroke-opacity:0.8;" x="201.853125" xlink:href="#m970571ef40" y="62.12868"/>
     <use style="fill:#1f77b4;fill-opacity:0.8;stroke:#1f77b4;stroke-opacity:0.8;" x="111.60024" xlink:href="#m970571ef40" y="107.49195"/>
     <use style="fill:#1f77b4;fill-opacity:0.8;stroke:#1f77b4;stroke-opacity:0.8;" x="111.60024" xlink:href="#m970571ef40" y="107.49195"/>
     <use style="fill:#1f77b4;fill-opacity:0.8;stroke:#1f77b4;stroke-opacity:0.8;" x="111.60024" xlink:href="#m970571ef40" y="107.49195"/>
     <use style="fill:#1f77b4;fill-opacity:0.8;stroke:#1f77b4;stroke-opacity:0.8;" x="111.60024" xlink:href="#m970571ef40" y="62.12868"/>
     <use style="fill:#1f77b4;fill-opacity:0.8;stroke:#1f77b4;stroke-opacity:0.8;" x="98.706971" xlink:href="#m970571ef40" y="62.12868"/>
     <use style="fill:#1f77b4;fill-opacity:0.8;stroke:#1f77b4;stroke-opacity:0.8;" x="85.813702" xlink:href="#m970571ef40" y="62.12868"/>
     <use style="fill:#1f77b4;fill-opacity:0.8;stroke:#1f77b4;stroke-opacity:0.8;" x="98.706971" xlink:href="#m970571ef40" y="107.49195"/>
     <use style="fill:#1f77b4;fill-opacity:0.8;stroke:#1f77b4;stroke-opacity:0.8;" x="111.60024" xlink:href="#m970571ef40" y="62.12868"/>
     <use style="fill:#1f77b4;fill-opacity:0.8;stroke:#1f77b4;stroke-opacity:0.8;" x="111.60024" xlink:href="#m970571ef40" y="107.49195"/>
     <use style="fill:#1f77b4;fill-opacity:0.8;stroke:#1f77b4;stroke-opacity:0.8;" x="85.813702" xlink:href="#m970571ef40" y="107.49195"/>
     <use style="fill:#1f77b4;fill-opacity:0.8;stroke:#1f77b4;stroke-opacity:0.8;" x="124.49351" xlink:href="#m970571ef40" y="62.12868"/>
     <use style="fill:#1f77b4;fill-opacity:0.8;stroke:#1f77b4;stroke-opacity:0.8;" x="124.49351" xlink:href="#m970571ef40" y="107.49195"/>
     <use style="fill:#1f77b4;fill-opacity:0.8;stroke:#1f77b4;stroke-opacity:0.8;" x="98.706971" xlink:href="#m970571ef40" y="107.49195"/>
     <use style="fill:#1f77b4;fill-opacity:0.8;stroke:#1f77b4;stroke-opacity:0.8;" x="98.706971" xlink:href="#m970571ef40" y="107.49195"/>
     <use style="fill:#1f77b4;fill-opacity:0.8;stroke:#1f77b4;stroke-opacity:0.8;" x="85.813702" xlink:href="#m970571ef40" y="107.49195"/>
     <use style="fill:#1f77b4;fill-opacity:0.8;stroke:#1f77b4;stroke-opacity:0.8;" x="111.60024" xlink:href="#m970571ef40" y="107.49195"/>
     <use style="fill:#1f77b4;fill-opacity:0.8;stroke:#1f77b4;stroke-opacity:0.8;" x="98.706971" xlink:href="#m970571ef40" y="107.49195"/>
     <use style="fill:#1f77b4;fill-opacity:0.8;stroke:#1f77b4;stroke-opacity:0.8;" x="85.813702" xlink:href="#m970571ef40" y="107.49195"/>
     <use style="fill:#1f77b4;fill-opacity:0.8;stroke:#1f77b4;stroke-opacity:0.8;" x="47.133894" xlink:href="#m970571ef40" y="107.49195"/>
    </g>
   </g>
   <g id="PolyCollection_1">
    <path clip-path="url(#p789054f617)" d="M 34.240625 94.204285 
L 34.240625 164.881271 
L 35.933681 163.742127 
L 37.626736 162.602983 
L 39.319792 161.461031 
L 41.012847 160.146748 
L 42.705903 158.839442 
L 44.398958 157.528647 
L 46.092014 156.217852 
L 47.785069 154.907058 
L 49.478125 153.664518 
L 51.171181 152.631403 
L 52.864236 151.598288 
L 54.557292 150.285667 
L 56.250347 149.033072 
L 57.943403 147.598099 
L 59.636458 146.259154 
L 61.329514 145.001009 
L 63.022569 143.981109 
L 64.715625 142.765527 
L 66.408681 141.506204 
L 68.101736 140.491453 
L 69.794792 139.427744 
L 71.487847 138.193959 
L 73.180903 137.005837 
L 74.873958 136.054665 
L 76.567014 135.146139 
L 78.260069 134.186326 
L 79.953125 133.215501 
L 81.646181 132.450955 
L 83.339236 131.650118 
L 85.032292 130.9031 
L 86.725347 130.016256 
L 88.418403 129.094696 
L 90.111458 128.125657 
L 91.804514 127.341954 
L 93.497569 126.610163 
L 95.190625 125.948971 
L 96.883681 124.977838 
L 98.576736 124.40158 
L 100.269792 123.646977 
L 101.962847 122.696944 
L 103.655903 122.415143 
L 105.348958 121.684993 
L 107.042014 121.007706 
L 108.735069 120.791668 
L 110.428125 120.654746 
L 112.121181 120.081168 
L 113.814236 120.581396 
L 115.507292 120.069072 
L 117.200347 119.425881 
L 118.893403 119.203751 
L 120.586458 118.805422 
L 122.279514 118.315792 
L 123.972569 117.865173 
L 125.665625 118.165151 
L 127.358681 118.092576 
L 129.051736 117.91089 
L 130.744792 117.933484 
L 132.437847 117.688267 
L 134.130903 117.323118 
L 135.823958 117.697078 
L 137.517014 117.538484 
L 139.210069 117.332026 
L 140.903125 117.024783 
L 142.596181 116.682811 
L 144.289236 117.097035 
L 145.982292 117.495499 
L 147.675347 117.187194 
L 149.368403 117.107685 
L 151.061458 117.089731 
L 152.754514 117.296857 
L 154.447569 117.831816 
L 156.140625 118.366775 
L 157.833681 118.901734 
L 159.526736 119.334275 
L 161.219792 119.475916 
L 162.912847 119.558969 
L 164.605903 119.923614 
L 166.298958 120.045749 
L 167.992014 119.83336 
L 169.685069 119.879356 
L 171.378125 119.957394 
L 173.071181 120.138044 
L 174.764236 120.474255 
L 176.457292 120.810466 
L 178.150347 121.146676 
L 179.843403 121.333234 
L 181.536458 121.35486 
L 183.229514 121.459394 
L 184.922569 121.720721 
L 186.615625 121.982048 
L 188.308681 122.243376 
L 190.001736 122.504703 
L 191.694792 122.861646 
L 193.387847 123.298809 
L 195.080903 123.735971 
L 196.773958 124.173134 
L 198.467014 124.610297 
L 200.160069 125.04746 
L 201.853125 125.484623 
L 201.853125 32.854489 
L 201.853125 32.854489 
L 200.160069 34.117932 
L 198.467014 35.332871 
L 196.773958 36.515926 
L 195.080903 37.51286 
L 193.387847 38.510241 
L 191.694792 39.64806 
L 190.001736 40.897995 
L 188.308681 42.150308 
L 186.615625 43.406953 
L 184.922569 44.663597 
L 183.229514 45.922617 
L 181.536458 47.139755 
L 179.843403 48.366368 
L 178.150347 49.548895 
L 176.457292 50.709924 
L 174.764236 51.870953 
L 173.071181 53.032961 
L 171.378125 54.193732 
L 169.685069 55.463618 
L 167.992014 56.76965 
L 166.298958 58.031914 
L 164.605903 59.237513 
L 162.912847 60.447472 
L 161.219792 61.629379 
L 159.526736 62.961824 
L 157.833681 63.952674 
L 156.140625 65.043989 
L 154.447569 66.191306 
L 152.754514 67.356304 
L 151.061458 68.602264 
L 149.368403 69.783985 
L 147.675347 70.782623 
L 145.982292 71.927294 
L 144.289236 73.071249 
L 142.596181 74.21815 
L 140.903125 75.365845 
L 139.210069 76.387369 
L 137.517014 77.325332 
L 135.823958 78.448617 
L 134.130903 79.197642 
L 132.437847 80.186182 
L 130.744792 81.448409 
L 129.051736 82.35 
L 127.358681 83.42909 
L 125.665625 84.422844 
L 123.972569 85.29938 
L 122.279514 86.205746 
L 120.586458 87.052419 
L 118.893403 87.919968 
L 117.200347 89.015044 
L 115.507292 89.744485 
L 113.814236 90.591586 
L 112.121181 91.376591 
L 110.428125 92.079626 
L 108.735069 92.776132 
L 107.042014 93.558826 
L 105.348958 94.323504 
L 103.655903 94.83268 
L 101.962847 95.542352 
L 100.269792 95.965658 
L 98.576736 96.204277 
L 96.883681 96.783324 
L 95.190625 97.215923 
L 93.497569 97.340892 
L 91.804514 97.722076 
L 90.111458 97.668482 
L 88.418403 97.882679 
L 86.725347 98.097054 
L 85.032292 98.322054 
L 83.339236 98.547054 
L 81.646181 98.770706 
L 79.953125 98.954201 
L 78.260069 98.896665 
L 76.567014 98.626885 
L 74.873958 98.493159 
L 73.180903 98.035671 
L 71.487847 97.851689 
L 69.794792 97.472193 
L 68.101736 97.574164 
L 66.408681 97.721238 
L 64.715625 97.575697 
L 63.022569 97.421135 
L 61.329514 97.274478 
L 59.636458 97.120146 
L 57.943403 97.016213 
L 56.250347 96.78739 
L 54.557292 96.561681 
L 52.864236 96.502121 
L 51.171181 96.345762 
L 49.478125 96.078818 
L 47.785069 95.804431 
L 46.092014 95.524404 
L 44.398958 95.270335 
L 42.705903 95.28903 
L 41.012847 95.307725 
L 39.319792 95.080431 
L 37.626736 94.785277 
L 35.933681 94.493837 
L 34.240625 94.204285 
z
" style="fill:#1f77b4;fill-opacity:0.15;"/>
   </g>
   <g id="matplotlib.axis_1">
    <g id="xtick_1">
     <g id="line2d_1">
      <defs>
       <path d="M 0 0 
L 0 3.5 
" id="mb4b2f12b2d" style="stroke:#000000;stroke-width:0.8;"/>
      </defs>
      <g>
       <use style="stroke:#000000;stroke-width:0.8;" x="60.027163" xlink:href="#mb4b2f12b2d" y="254.118125"/>
      </g>
     </g>
     <g id="text_1">
      <!-- 2 -->
      <g transform="translate(56.845913 268.716562)scale(0.1 -0.1)">
       <defs>
        <path d="M 19.1875 8.296875 
L 53.609375 8.296875 
L 53.609375 0 
L 7.328125 0 
L 7.328125 8.296875 
Q 12.9375 14.109375 22.625 23.890625 
Q 32.328125 33.6875 34.8125 36.53125 
Q 39.546875 41.84375 41.421875 45.53125 
Q 43.3125 49.21875 43.3125 52.78125 
Q 43.3125 58.59375 39.234375 62.25 
Q 35.15625 65.921875 28.609375 65.921875 
Q 23.96875 65.921875 18.8125 64.3125 
Q 13.671875 62.703125 7.8125 59.421875 
L 7.8125 69.390625 
Q 13.765625 71.78125 18.9375 73 
Q 24.125 74.21875 28.421875 74.21875 
Q 39.75 74.21875 46.484375 68.546875 
Q 53.21875 62.890625 53.21875 53.421875 
Q 53.21875 48.921875 51.53125 44.890625 
Q 49.859375 40.875 45.40625 35.40625 
Q 44.1875 33.984375 37.640625 27.21875 
Q 31.109375 20.453125 19.1875 8.296875 
z
" id="DejaVuSans-50"/>
       </defs>
       <use xlink:href="#DejaVuSans-50"/>
      </g>
     </g>
    </g>
    <g id="xtick_2">
     <g id="line2d_2">
      <g>
       <use style="stroke:#000000;stroke-width:0.8;" x="111.60024" xlink:href="#mb4b2f12b2d" y="254.118125"/>
      </g>
     </g>
     <g id="text_2">
      <!-- 3 -->
      <g transform="translate(108.41899 268.716562)scale(0.1 -0.1)">
       <defs>
        <path d="M 40.578125 39.3125 
Q 47.65625 37.796875 51.625 33 
Q 55.609375 28.21875 55.609375 21.1875 
Q 55.609375 10.40625 48.1875 4.484375 
Q 40.765625 -1.421875 27.09375 -1.421875 
Q 22.515625 -1.421875 17.65625 -0.515625 
Q 12.796875 0.390625 7.625 2.203125 
L 7.625 11.71875 
Q 11.71875 9.328125 16.59375 8.109375 
Q 21.484375 6.890625 26.8125 6.890625 
Q 36.078125 6.890625 40.9375 10.546875 
Q 45.796875 14.203125 45.796875 21.1875 
Q 45.796875 27.640625 41.28125 31.265625 
Q 36.765625 34.90625 28.71875 34.90625 
L 20.21875 34.90625 
L 20.21875 43.015625 
L 29.109375 43.015625 
Q 36.375 43.015625 40.234375 45.921875 
Q 44.09375 48.828125 44.09375 54.296875 
Q 44.09375 59.90625 40.109375 62.90625 
Q 36.140625 65.921875 28.71875 65.921875 
Q 24.65625 65.921875 20.015625 65.03125 
Q 15.375 64.15625 9.8125 62.3125 
L 9.8125 71.09375 
Q 15.4375 72.65625 20.34375 73.4375 
Q 25.25 74.21875 29.59375 74.21875 
Q 40.828125 74.21875 47.359375 69.109375 
Q 53.90625 64.015625 53.90625 55.328125 
Q 53.90625 49.265625 50.4375 45.09375 
Q 46.96875 40.921875 40.578125 39.3125 
z
" id="DejaVuSans-51"/>
       </defs>
       <use xlink:href="#DejaVuSans-51"/>
      </g>
     </g>
    </g>
    <g id="xtick_3">
     <g id="line2d_3">
      <g>
       <use style="stroke:#000000;stroke-width:0.8;" x="163.173317" xlink:href="#mb4b2f12b2d" y="254.118125"/>
      </g>
     </g>
     <g id="text_3">
      <!-- 4 -->
      <g transform="translate(159.992067 268.716562)scale(0.1 -0.1)">
       <defs>
        <path d="M 37.796875 64.3125 
L 12.890625 25.390625 
L 37.796875 25.390625 
z
M 35.203125 72.90625 
L 47.609375 72.90625 
L 47.609375 25.390625 
L 58.015625 25.390625 
L 58.015625 17.1875 
L 47.609375 17.1875 
L 47.609375 0 
L 37.796875 0 
L 37.796875 17.1875 
L 4.890625 17.1875 
L 4.890625 26.703125 
z
" id="DejaVuSans-52"/>
       </defs>
       <use xlink:href="#DejaVuSans-52"/>
      </g>
     </g>
    </g>
    <g id="text_4">
     <!-- E -->
     <g transform="translate(114.8875 282.394687)scale(0.1 -0.1)">
      <defs>
       <path d="M 9.8125 72.90625 
L 55.90625 72.90625 
L 55.90625 64.59375 
L 19.671875 64.59375 
L 19.671875 43.015625 
L 54.390625 43.015625 
L 54.390625 34.71875 
L 19.671875 34.71875 
L 19.671875 8.296875 
L 56.78125 8.296875 
L 56.78125 0 
L 9.8125 0 
z
" id="DejaVuSans-69"/>
      </defs>
      <use xlink:href="#DejaVuSans-69"/>
     </g>
    </g>
   </g>
   <g id="matplotlib.axis_2">
    <g id="ytick_1">
     <g id="line2d_4">
      <defs>
       <path d="M 0 0 
L -3.5 0 
" id="mca8935a353" style="stroke:#000000;stroke-width:0.8;"/>
      </defs>
      <g>
       <use style="stroke:#000000;stroke-width:0.8;" x="34.240625" xlink:href="#mca8935a353" y="243.581761"/>
      </g>
     </g>
     <g id="text_5">
      <!-- 1 -->
      <g transform="translate(20.878125 247.38098)scale(0.1 -0.1)">
       <defs>
        <path d="M 12.40625 8.296875 
L 28.515625 8.296875 
L 28.515625 63.921875 
L 10.984375 60.40625 
L 10.984375 69.390625 
L 28.421875 72.90625 
L 38.28125 72.90625 
L 38.28125 8.296875 
L 54.390625 8.296875 
L 54.390625 0 
L 12.40625 0 
z
" id="DejaVuSans-49"/>
       </defs>
       <use xlink:href="#DejaVuSans-49"/>
      </g>
     </g>
    </g>
    <g id="ytick_2">
     <g id="line2d_5">
      <g>
       <use style="stroke:#000000;stroke-width:0.8;" x="34.240625" xlink:href="#mca8935a353" y="198.218491"/>
      </g>
     </g>
     <g id="text_6">
      <!-- 2 -->
      <g transform="translate(20.878125 202.01771)scale(0.1 -0.1)">
       <use xlink:href="#DejaVuSans-50"/>
      </g>
     </g>
    </g>
    <g id="ytick_3">
     <g id="line2d_6">
      <g>
       <use style="stroke:#000000;stroke-width:0.8;" x="34.240625" xlink:href="#mca8935a353" y="152.85522"/>
      </g>
     </g>
     <g id="text_7">
      <!-- 3 -->
      <g transform="translate(20.878125 156.654439)scale(0.1 -0.1)">
       <use xlink:href="#DejaVuSans-51"/>
      </g>
     </g>
    </g>
    <g id="ytick_4">
     <g id="line2d_7">
      <g>
       <use style="stroke:#000000;stroke-width:0.8;" x="34.240625" xlink:href="#mca8935a353" y="107.49195"/>
      </g>
     </g>
     <g id="text_8">
      <!-- 4 -->
      <g transform="translate(20.878125 111.291169)scale(0.1 -0.1)">
       <use xlink:href="#DejaVuSans-52"/>
      </g>
     </g>
    </g>
    <g id="ytick_5">
     <g id="line2d_8">
      <g>
       <use style="stroke:#000000;stroke-width:0.8;" x="34.240625" xlink:href="#mca8935a353" y="62.12868"/>
      </g>
     </g>
     <g id="text_9">
      <!-- 5 -->
      <g transform="translate(20.878125 65.927898)scale(0.1 -0.1)">
       <defs>
        <path d="M 10.796875 72.90625 
L 49.515625 72.90625 
L 49.515625 64.59375 
L 19.828125 64.59375 
L 19.828125 46.734375 
Q 21.96875 47.46875 24.109375 47.828125 
Q 26.265625 48.1875 28.421875 48.1875 
Q 40.625 48.1875 47.75 41.5 
Q 54.890625 34.8125 54.890625 23.390625 
Q 54.890625 11.625 47.5625 5.09375 
Q 40.234375 -1.421875 26.90625 -1.421875 
Q 22.3125 -1.421875 17.546875 -0.640625 
Q 12.796875 0.140625 7.71875 1.703125 
L 7.71875 11.625 
Q 12.109375 9.234375 16.796875 8.0625 
Q 21.484375 6.890625 26.703125 6.890625 
Q 35.15625 6.890625 40.078125 11.328125 
Q 45.015625 15.765625 45.015625 23.390625 
Q 45.015625 31 40.078125 35.4375 
Q 35.15625 39.890625 26.703125 39.890625 
Q 22.75 39.890625 18.8125 39.015625 
Q 14.890625 38.140625 10.796875 36.28125 
z
" id="DejaVuSans-53"/>
       </defs>
       <use xlink:href="#DejaVuSans-53"/>
      </g>
     </g>
    </g>
    <g id="text_10">
     <!-- Trust8 -->
     <g transform="translate(14.798438 153.504844)rotate(-90)scale(0.1 -0.1)">
      <defs>
       <path d="M -0.296875 72.90625 
L 61.375 72.90625 
L 61.375 64.59375 
L 35.5 64.59375 
L 35.5 0 
L 25.59375 0 
L 25.59375 64.59375 
L -0.296875 64.59375 
z
" id="DejaVuSans-84"/>
       <path d="M 41.109375 46.296875 
Q 39.59375 47.171875 37.8125 47.578125 
Q 36.03125 48 33.890625 48 
Q 26.265625 48 22.1875 43.046875 
Q 18.109375 38.09375 18.109375 28.8125 
L 18.109375 0 
L 9.078125 0 
L 9.078125 54.6875 
L 18.109375 54.6875 
L 18.109375 46.1875 
Q 20.953125 51.171875 25.484375 53.578125 
Q 30.03125 56 36.53125 56 
Q 37.453125 56 38.578125 55.875 
Q 39.703125 55.765625 41.0625 55.515625 
z
" id="DejaVuSans-114"/>
       <path d="M 8.5 21.578125 
L 8.5 54.6875 
L 17.484375 54.6875 
L 17.484375 21.921875 
Q 17.484375 14.15625 20.5 10.265625 
Q 23.53125 6.390625 29.59375 6.390625 
Q 36.859375 6.390625 41.078125 11.03125 
Q 45.3125 15.671875 45.3125 23.6875 
L 45.3125 54.6875 
L 54.296875 54.6875 
L 54.296875 0 
L 45.3125 0 
L 45.3125 8.40625 
Q 42.046875 3.421875 37.71875 1 
Q 33.40625 -1.421875 27.6875 -1.421875 
Q 18.265625 -1.421875 13.375 4.4375 
Q 8.5 10.296875 8.5 21.578125 
z
M 31.109375 56 
z
" id="DejaVuSans-117"/>
       <path d="M 44.28125 53.078125 
L 44.28125 44.578125 
Q 40.484375 46.53125 36.375 47.5 
Q 32.28125 48.484375 27.875 48.484375 
Q 21.1875 48.484375 17.84375 46.4375 
Q 14.5 44.390625 14.5 40.28125 
Q 14.5 37.15625 16.890625 35.375 
Q 19.28125 33.59375 26.515625 31.984375 
L 29.59375 31.296875 
Q 39.15625 29.25 43.1875 25.515625 
Q 47.21875 21.78125 47.21875 15.09375 
Q 47.21875 7.46875 41.1875 3.015625 
Q 35.15625 -1.421875 24.609375 -1.421875 
Q 20.21875 -1.421875 15.453125 -0.5625 
Q 10.6875 0.296875 5.421875 2 
L 5.421875 11.28125 
Q 10.40625 8.6875 15.234375 7.390625 
Q 20.0625 6.109375 24.8125 6.109375 
Q 31.15625 6.109375 34.5625 8.28125 
Q 37.984375 10.453125 37.984375 14.40625 
Q 37.984375 18.0625 35.515625 20.015625 
Q 33.0625 21.96875 24.703125 23.78125 
L 21.578125 24.515625 
Q 13.234375 26.265625 9.515625 29.90625 
Q 5.8125 33.546875 5.8125 39.890625 
Q 5.8125 47.609375 11.28125 51.796875 
Q 16.75 56 26.8125 56 
Q 31.78125 56 36.171875 55.265625 
Q 40.578125 54.546875 44.28125 53.078125 
z
" id="DejaVuSans-115"/>
       <path d="M 18.3125 70.21875 
L 18.3125 54.6875 
L 36.8125 54.6875 
L 36.8125 47.703125 
L 18.3125 47.703125 
L 18.3125 18.015625 
Q 18.3125 11.328125 20.140625 9.421875 
Q 21.96875 7.515625 27.59375 7.515625 
L 36.8125 7.515625 
L 36.8125 0 
L 27.59375 0 
Q 17.1875 0 13.234375 3.875 
Q 9.28125 7.765625 9.28125 18.015625 
L 9.28125 47.703125 
L 2.6875 47.703125 
L 2.6875 54.6875 
L 9.28125 54.6875 
L 9.28125 70.21875 
z
" id="DejaVuSans-116"/>
       <path d="M 31.78125 34.625 
Q 24.75 34.625 20.71875 30.859375 
Q 16.703125 27.09375 16.703125 20.515625 
Q 16.703125 13.921875 20.71875 10.15625 
Q 24.75 6.390625 31.78125 6.390625 
Q 38.8125 6.390625 42.859375 10.171875 
Q 46.921875 13.96875 46.921875 20.515625 
Q 46.921875 27.09375 42.890625 30.859375 
Q 38.875 34.625 31.78125 34.625 
z
M 21.921875 38.8125 
Q 15.578125 40.375 12.03125 44.71875 
Q 8.5 49.078125 8.5 55.328125 
Q 8.5 64.0625 14.71875 69.140625 
Q 20.953125 74.21875 31.78125 74.21875 
Q 42.671875 74.21875 48.875 69.140625 
Q 55.078125 64.0625 55.078125 55.328125 
Q 55.078125 49.078125 51.53125 44.71875 
Q 48 40.375 41.703125 38.8125 
Q 48.828125 37.15625 52.796875 32.3125 
Q 56.78125 27.484375 56.78125 20.515625 
Q 56.78125 9.90625 50.3125 4.234375 
Q 43.84375 -1.421875 31.78125 -1.421875 
Q 19.734375 -1.421875 13.25 4.234375 
Q 6.78125 9.90625 6.78125 20.515625 
Q 6.78125 27.484375 10.78125 32.3125 
Q 14.796875 37.15625 21.921875 38.8125 
z
M 18.3125 54.390625 
Q 18.3125 48.734375 21.84375 45.5625 
Q 25.390625 42.390625 31.78125 42.390625 
Q 38.140625 42.390625 41.71875 45.5625 
Q 45.3125 48.734375 45.3125 54.390625 
Q 45.3125 60.0625 41.71875 63.234375 
Q 38.140625 66.40625 31.78125 66.40625 
Q 25.390625 66.40625 21.84375 63.234375 
Q 18.3125 60.0625 18.3125 54.390625 
z
" id="DejaVuSans-56"/>
      </defs>
      <use xlink:href="#DejaVuSans-84"/>
      <use x="46.333984" xlink:href="#DejaVuSans-114"/>
      <use x="87.447266" xlink:href="#DejaVuSans-117"/>
      <use x="150.826172" xlink:href="#DejaVuSans-115"/>
      <use x="202.925781" xlink:href="#DejaVuSans-116"/>
      <use x="242.134766" xlink:href="#DejaVuSans-56"/>
     </g>
    </g>
   </g>
   <g id="line2d_9">
    <path clip-path="url(#p789054f617)" d="M 34.240625 134.076662 
L 35.933681 133.438632 
L 37.626736 132.800601 
L 39.319792 132.162571 
L 41.012847 131.524541 
L 42.705903 130.88651 
L 44.398958 130.24848 
L 46.092014 129.61045 
L 47.785069 128.972419 
L 49.478125 128.334389 
L 51.171181 127.696358 
L 52.864236 127.058328 
L 54.557292 126.420298 
L 56.250347 125.782267 
L 57.943403 125.144237 
L 59.636458 124.506207 
L 61.329514 123.868176 
L 63.022569 123.230146 
L 64.715625 122.592116 
L 66.408681 121.954085 
L 68.101736 121.316055 
L 69.794792 120.678024 
L 71.487847 120.039994 
L 73.180903 119.401964 
L 74.873958 118.763933 
L 76.567014 118.125903 
L 78.260069 117.487873 
L 79.953125 116.849842 
L 81.646181 116.211812 
L 83.339236 115.573781 
L 85.032292 114.935751 
L 86.725347 114.297721 
L 88.418403 113.65969 
L 90.111458 113.02166 
L 91.804514 112.38363 
L 93.497569 111.745599 
L 95.190625 111.107569 
L 96.883681 110.469538 
L 98.576736 109.831508 
L 100.269792 109.193478 
L 101.962847 108.555447 
L 103.655903 107.917417 
L 105.348958 107.279387 
L 107.042014 106.641356 
L 108.735069 106.003326 
L 110.428125 105.365295 
L 112.121181 104.727265 
L 113.814236 104.089235 
L 115.507292 103.451204 
L 117.200347 102.813174 
L 118.893403 102.175144 
L 120.586458 101.537113 
L 122.279514 100.899083 
L 123.972569 100.261053 
L 125.665625 99.623022 
L 127.358681 98.984992 
L 129.051736 98.346961 
L 130.744792 97.708931 
L 132.437847 97.070901 
L 134.130903 96.43287 
L 135.823958 95.79484 
L 137.517014 95.15681 
L 139.210069 94.518779 
L 140.903125 93.880749 
L 142.596181 93.242718 
L 144.289236 92.604688 
L 145.982292 91.966658 
L 147.675347 91.328627 
L 149.368403 90.690597 
L 151.061458 90.052567 
L 152.754514 89.414536 
L 154.447569 88.776506 
L 156.140625 88.138475 
L 157.833681 87.500445 
L 159.526736 86.862415 
L 161.219792 86.224384 
L 162.912847 85.586354 
L 164.605903 84.948324 
L 166.298958 84.310293 
L 167.992014 83.672263 
L 169.685069 83.034232 
L 171.378125 82.396202 
L 173.071181 81.758172 
L 174.764236 81.120141 
L 176.457292 80.482111 
L 178.150347 79.844081 
L 179.843403 79.20605 
L 181.536458 78.56802 
L 183.229514 77.929989 
L 184.922569 77.291959 
L 186.615625 76.653929 
L 188.308681 76.015898 
L 190.001736 75.377868 
L 191.694792 74.739838 
L 193.387847 74.101807 
L 195.080903 73.463777 
L 196.773958 72.825747 
L 198.467014 72.187716 
L 200.160069 71.549686 
L 201.853125 70.911655 
" style="fill:none;stroke:#1f77b4;stroke-linecap:square;stroke-width:2.25;"/>
   </g>
   <g id="patch_3">
    <path d="M 34.240625 254.118125 
L 34.240625 22.318125 
" style="fill:none;stroke:#000000;stroke-linecap:square;stroke-linejoin:miter;stroke-width:0.8;"/>
   </g>
   <g id="patch_4">
    <path d="M 201.853125 254.118125 
L 201.853125 22.318125 
" style="fill:none;stroke:#000000;stroke-linecap:square;stroke-linejoin:miter;stroke-width:0.8;"/>
   </g>
   <g id="patch_5">
    <path d="M 34.240625 254.118125 
L 201.853125 254.118125 
" style="fill:none;stroke:#000000;stroke-linecap:square;stroke-linejoin:miter;stroke-width:0.8;"/>
   </g>
   <g id="patch_6">
    <path d="M 34.240625 22.318125 
L 201.853125 22.318125 
" style="fill:none;stroke:#000000;stroke-linecap:square;stroke-linejoin:miter;stroke-width:0.8;"/>
   </g>
   <g id="text_11">
    <!-- Group A -->
    <g transform="translate(34.240625 16.318125)scale(0.12 -0.12)">
     <defs>
      <path d="M 59.515625 10.40625 
L 59.515625 29.984375 
L 43.40625 29.984375 
L 43.40625 38.09375 
L 69.28125 38.09375 
L 69.28125 6.78125 
Q 63.578125 2.734375 56.6875 0.65625 
Q 49.8125 -1.421875 42 -1.421875 
Q 24.90625 -1.421875 15.25 8.5625 
Q 5.609375 18.5625 5.609375 36.375 
Q 5.609375 54.25 15.25 64.234375 
Q 24.90625 74.21875 42 74.21875 
Q 49.125 74.21875 55.546875 72.453125 
Q 61.96875 70.703125 67.390625 67.28125 
L 67.390625 56.78125 
Q 61.921875 61.421875 55.765625 63.765625 
Q 49.609375 66.109375 42.828125 66.109375 
Q 29.4375 66.109375 22.71875 58.640625 
Q 16.015625 51.171875 16.015625 36.375 
Q 16.015625 21.625 22.71875 14.15625 
Q 29.4375 6.6875 42.828125 6.6875 
Q 48.046875 6.6875 52.140625 7.59375 
Q 56.25 8.5 59.515625 10.40625 
z
" id="DejaVuSans-71"/>
      <path d="M 30.609375 48.390625 
Q 23.390625 48.390625 19.1875 42.75 
Q 14.984375 37.109375 14.984375 27.296875 
Q 14.984375 17.484375 19.15625 11.84375 
Q 23.34375 6.203125 30.609375 6.203125 
Q 37.796875 6.203125 41.984375 11.859375 
Q 46.1875 17.53125 46.1875 27.296875 
Q 46.1875 37.015625 41.984375 42.703125 
Q 37.796875 48.390625 30.609375 48.390625 
z
M 30.609375 56 
Q 42.328125 56 49.015625 48.375 
Q 55.71875 40.765625 55.71875 27.296875 
Q 55.71875 13.875 49.015625 6.21875 
Q 42.328125 -1.421875 30.609375 -1.421875 
Q 18.84375 -1.421875 12.171875 6.21875 
Q 5.515625 13.875 5.515625 27.296875 
Q 5.515625 40.765625 12.171875 48.375 
Q 18.84375 56 30.609375 56 
z
" id="DejaVuSans-111"/>
      <path d="M 18.109375 8.203125 
L 18.109375 -20.796875 
L 9.078125 -20.796875 
L 9.078125 54.6875 
L 18.109375 54.6875 
L 18.109375 46.390625 
Q 20.953125 51.265625 25.265625 53.625 
Q 29.59375 56 35.59375 56 
Q 45.5625 56 51.78125 48.09375 
Q 58.015625 40.1875 58.015625 27.296875 
Q 58.015625 14.40625 51.78125 6.484375 
Q 45.5625 -1.421875 35.59375 -1.421875 
Q 29.59375 -1.421875 25.265625 0.953125 
Q 20.953125 3.328125 18.109375 8.203125 
z
M 48.6875 27.296875 
Q 48.6875 37.203125 44.609375 42.84375 
Q 40.53125 48.484375 33.40625 48.484375 
Q 26.265625 48.484375 22.1875 42.84375 
Q 18.109375 37.203125 18.109375 27.296875 
Q 18.109375 17.390625 22.1875 11.75 
Q 26.265625 6.109375 33.40625 6.109375 
Q 40.53125 6.109375 44.609375 11.75 
Q 48.6875 17.390625 48.6875 27.296875 
z
" id="DejaVuSans-112"/>
      <path id="DejaVuSans-32"/>
      <path d="M 34.1875 63.1875 
L 20.796875 26.90625 
L 47.609375 26.90625 
z
M 28.609375 72.90625 
L 39.796875 72.90625 
L 67.578125 0 
L 57.328125 0 
L 50.6875 18.703125 
L 17.828125 18.703125 
L 11.1875 0 
L 0.78125 0 
z
" id="DejaVuSans-65"/>
     </defs>
     <use xlink:href="#DejaVuSans-71"/>
     <use x="77.490234" xlink:href="#DejaVuSans-114"/>
     <use x="116.353516" xlink:href="#DejaVuSans-111"/>
     <use x="177.535156" xlink:href="#DejaVuSans-117"/>
     <use x="240.914062" xlink:href="#DejaVuSans-112"/>
     <use x="304.390625" xlink:href="#DejaVuSans-32"/>
     <use x="336.177734" xlink:href="#DejaVuSans-65"/>
    </g>
   </g>
  </g>
  <g id="axes_2">
   <g id="patch_7">
    <path d="M 249.653125 254.118125 
L 417.265625 254.118125 
L 417.265625 22.318125 
L 249.653125 22.318125 
z
" style="fill:#ffffff;"/>
   </g>
   <g id="PathCollection_2">
    <g clip-path="url(#p51410847dc)">
     <use style="fill:#1f77b4;fill-opacity:0.8;stroke:#1f77b4;stroke-opacity:0.8;" x="249.653125" xlink:href="#m970571ef40" y="85.536307"/>
     <use style="fill:#1f77b4;fill-opacity:0.8;stroke:#1f77b4;stroke-opacity:0.8;" x="262.546394" xlink:href="#m970571ef40" y="85.536307"/>
     <use style="fill:#1f77b4;fill-opacity:0.8;stroke:#1f77b4;stroke-opacity:0.8;" x="378.585817" xlink:href="#m970571ef40" y="32.854489"/>
     <use style="fill:#1f77b4;fill-opacity:0.8;stroke:#1f77b4;stroke-opacity:0.8;" x="339.90601" xlink:href="#m970571ef40" y="190.899943"/>
     <use style="fill:#1f77b4;fill-opacity:0.8;stroke:#1f77b4;stroke-opacity:0.8;" x="314.119471" xlink:href="#m970571ef40" y="85.536307"/>
     <use style="fill:#1f77b4;fill-opacity:0.8;stroke:#1f77b4;stroke-opacity:0.8;" x="378.585817" xlink:href="#m970571ef40" y="85.536307"/>
     <use style="fill:#1f77b4;fill-opacity:0.8;stroke:#1f77b4;stroke-opacity:0.8;" x="314.119471" xlink:href="#m970571ef40" y="85.536307"/>
     <use style="fill:#1f77b4;fill-opacity:0.8;stroke:#1f77b4;stroke-opacity:0.8;" x="339.90601" xlink:href="#m970571ef40" y="243.581761"/>
     <use style="fill:#1f77b4;fill-opacity:0.8;stroke:#1f77b4;stroke-opacity:0.8;" x="339.90601" xlink:href="#m970571ef40" y="32.854489"/>
     <use style="fill:#1f77b4;fill-opacity:0.8;stroke:#1f77b4;stroke-opacity:0.8;" x="365.692548" xlink:href="#m970571ef40" y="85.536307"/>
     <use style="fill:#1f77b4;fill-opacity:0.8;stroke:#1f77b4;stroke-opacity:0.8;" x="339.90601" xlink:href="#m970571ef40" y="85.536307"/>
     <use style="fill:#1f77b4;fill-opacity:0.8;stroke:#1f77b4;stroke-opacity:0.8;" x="378.585817" xlink:href="#m970571ef40" y="85.536307"/>
     <use style="fill:#1f77b4;fill-opacity:0.8;stroke:#1f77b4;stroke-opacity:0.8;" x="339.90601" xlink:href="#m970571ef40" y="85.536307"/>
     <use style="fill:#1f77b4;fill-opacity:0.8;stroke:#1f77b4;stroke-opacity:0.8;" x="391.479087" xlink:href="#m970571ef40" y="32.854489"/>
     <use style="fill:#1f77b4;fill-opacity:0.8;stroke:#1f77b4;stroke-opacity:0.8;" x="352.799279" xlink:href="#m970571ef40" y="32.854489"/>
     <use style="fill:#1f77b4;fill-opacity:0.8;stroke:#1f77b4;stroke-opacity:0.8;" x="391.479087" xlink:href="#m970571ef40" y="85.536307"/>
     <use style="fill:#1f77b4;fill-opacity:0.8;stroke:#1f77b4;stroke-opacity:0.8;" x="352.799279" xlink:href="#m970571ef40" y="85.536307"/>
     <use style="fill:#1f77b4;fill-opacity:0.8;stroke:#1f77b4;stroke-opacity:0.8;" x="314.119471" xlink:href="#m970571ef40" y="85.536307"/>
     <use style="fill:#1f77b4;fill-opacity:0.8;stroke:#1f77b4;stroke-opacity:0.8;" x="365.692548" xlink:href="#m970571ef40" y="32.854489"/>
     <use style="fill:#1f77b4;fill-opacity:0.8;stroke:#1f77b4;stroke-opacity:0.8;" x="275.439663" xlink:href="#m970571ef40" y="243.581761"/>
     <use style="fill:#1f77b4;fill-opacity:0.8;stroke:#1f77b4;stroke-opacity:0.8;" x="417.265625" xlink:href="#m970571ef40" y="85.536307"/>
     <use style="fill:#1f77b4;fill-opacity:0.8;stroke:#1f77b4;stroke-opacity:0.8;" x="314.119471" xlink:href="#m970571ef40" y="32.854489"/>
     <use style="fill:#1f77b4;fill-opacity:0.8;stroke:#1f77b4;stroke-opacity:0.8;" x="365.692548" xlink:href="#m970571ef40" y="85.536307"/>
     <use style="fill:#1f77b4;fill-opacity:0.8;stroke:#1f77b4;stroke-opacity:0.8;" x="378.585817" xlink:href="#m970571ef40" y="85.536307"/>
     <use style="fill:#1f77b4;fill-opacity:0.8;stroke:#1f77b4;stroke-opacity:0.8;" x="378.585817" xlink:href="#m970571ef40" y="85.536307"/>
     <use style="fill:#1f77b4;fill-opacity:0.8;stroke:#1f77b4;stroke-opacity:0.8;" x="314.119471" xlink:href="#m970571ef40" y="85.536307"/>
     <use style="fill:#1f77b4;fill-opacity:0.8;stroke:#1f77b4;stroke-opacity:0.8;" x="314.119471" xlink:href="#m970571ef40" y="32.854489"/>
     <use style="fill:#1f77b4;fill-opacity:0.8;stroke:#1f77b4;stroke-opacity:0.8;" x="314.119471" xlink:href="#m970571ef40" y="32.854489"/>
     <use style="fill:#1f77b4;fill-opacity:0.8;stroke:#1f77b4;stroke-opacity:0.8;" x="378.585817" xlink:href="#m970571ef40" y="138.218125"/>
     <use style="fill:#1f77b4;fill-opacity:0.8;stroke:#1f77b4;stroke-opacity:0.8;" x="378.585817" xlink:href="#m970571ef40" y="32.854489"/>
     <use style="fill:#1f77b4;fill-opacity:0.8;stroke:#1f77b4;stroke-opacity:0.8;" x="249.653125" xlink:href="#m970571ef40" y="85.536307"/>
     <use style="fill:#1f77b4;fill-opacity:0.8;stroke:#1f77b4;stroke-opacity:0.8;" x="327.01274" xlink:href="#m970571ef40" y="85.536307"/>
     <use style="fill:#1f77b4;fill-opacity:0.8;stroke:#1f77b4;stroke-opacity:0.8;" x="352.799279" xlink:href="#m970571ef40" y="85.536307"/>
     <use style="fill:#1f77b4;fill-opacity:0.8;stroke:#1f77b4;stroke-opacity:0.8;" x="314.119471" xlink:href="#m970571ef40" y="85.536307"/>
     <use style="fill:#1f77b4;fill-opacity:0.8;stroke:#1f77b4;stroke-opacity:0.8;" x="339.90601" xlink:href="#m970571ef40" y="85.536307"/>
     <use style="fill:#1f77b4;fill-opacity:0.8;stroke:#1f77b4;stroke-opacity:0.8;" x="327.01274" xlink:href="#m970571ef40" y="138.218125"/>
     <use style="fill:#1f77b4;fill-opacity:0.8;stroke:#1f77b4;stroke-opacity:0.8;" x="314.119471" xlink:href="#m970571ef40" y="32.854489"/>
     <use style="fill:#1f77b4;fill-opacity:0.8;stroke:#1f77b4;stroke-opacity:0.8;" x="365.692548" xlink:href="#m970571ef40" y="32.854489"/>
     <use style="fill:#1f77b4;fill-opacity:0.8;stroke:#1f77b4;stroke-opacity:0.8;" x="314.119471" xlink:href="#m970571ef40" y="138.218125"/>
     <use style="fill:#1f77b4;fill-opacity:0.8;stroke:#1f77b4;stroke-opacity:0.8;" x="314.119471" xlink:href="#m970571ef40" y="85.536307"/>
     <use style="fill:#1f77b4;fill-opacity:0.8;stroke:#1f77b4;stroke-opacity:0.8;" x="314.119471" xlink:href="#m970571ef40" y="32.854489"/>
     <use style="fill:#1f77b4;fill-opacity:0.8;stroke:#1f77b4;stroke-opacity:0.8;" x="378.585817" xlink:href="#m970571ef40" y="85.536307"/>
    </g>
   </g>
   <g id="PolyCollection_2">
    <path clip-path="url(#p51410847dc)" d="M 249.653125 69.494249 
L 249.653125 150.136815 
L 251.346181 149.036348 
L 253.039236 147.925637 
L 254.732292 146.814927 
L 256.425347 145.808665 
L 258.118403 144.860031 
L 259.811458 143.911396 
L 261.504514 142.892665 
L 263.197569 141.697998 
L 264.890625 140.527213 
L 266.583681 139.397848 
L 268.276736 138.182291 
L 269.969792 136.966733 
L 271.662847 135.746901 
L 273.355903 134.534454 
L 275.048958 133.41538 
L 276.742014 132.296307 
L 278.435069 131.446431 
L 280.128125 130.322299 
L 281.821181 129.111569 
L 283.514236 128.050588 
L 285.207292 127.201793 
L 286.900347 126.347232 
L 288.593403 125.49267 
L 290.286458 124.472282 
L 291.979514 123.251491 
L 293.672569 122.0307 
L 295.365625 120.808554 
L 297.058681 119.582032 
L 298.751736 118.745803 
L 300.444792 117.939501 
L 302.137847 117.133199 
L 303.830903 116.326897 
L 305.523958 115.520595 
L 307.217014 114.538552 
L 308.910069 113.468063 
L 310.603125 112.540773 
L 312.296181 111.74366 
L 313.989236 110.997631 
L 315.682292 110.242896 
L 317.375347 109.104103 
L 319.068403 108.253029 
L 320.761458 107.526071 
L 322.454514 107.022588 
L 324.147569 106.220477 
L 325.840625 105.450681 
L 327.533681 104.492045 
L 329.226736 104.162867 
L 330.919792 103.086387 
L 332.612847 102.301876 
L 334.305903 101.441579 
L 335.998958 100.650948 
L 337.692014 99.729925 
L 339.385069 99.045341 
L 341.078125 98.374413 
L 342.771181 97.851905 
L 344.464236 97.342971 
L 346.157292 96.993717 
L 347.850347 96.616631 
L 349.543403 96.030604 
L 351.236458 95.515375 
L 352.929514 95.218628 
L 354.622569 95.098383 
L 356.315625 94.816119 
L 358.008681 94.698081 
L 359.701736 94.376171 
L 361.394792 94.045154 
L 363.087847 93.717319 
L 364.780903 93.555333 
L 366.473958 93.34276 
L 368.167014 93.352738 
L 369.860069 93.203051 
L 371.553125 93.030268 
L 373.246181 93.2099 
L 374.939236 92.993816 
L 376.632292 92.747003 
L 378.325347 92.52406 
L 380.018403 92.282861 
L 381.711458 92.34778 
L 383.404514 92.158965 
L 385.097569 92.163882 
L 386.790625 92.206541 
L 388.483681 92.193067 
L 390.176736 92.198531 
L 391.869792 92.203995 
L 393.562847 92.07836 
L 395.255903 92.164623 
L 396.948958 92.096192 
L 398.642014 92.086039 
L 400.335069 91.979709 
L 402.028125 91.720727 
L 403.721181 91.75981 
L 405.414236 91.652978 
L 407.107292 91.578913 
L 408.800347 91.606216 
L 410.493403 91.770376 
L 412.186458 91.983599 
L 413.879514 92.196822 
L 415.572569 92.354083 
L 417.265625 92.31621 
L 417.265625 35.689326 
L 417.265625 35.689326 
L 415.572569 36.841972 
L 413.879514 38.192727 
L 412.186458 39.250643 
L 410.493403 40.243948 
L 408.800347 41.236181 
L 407.107292 42.19838 
L 405.414236 43.277207 
L 403.721181 44.208215 
L 402.028125 45.358355 
L 400.335069 46.537102 
L 398.642014 47.800236 
L 396.948958 48.7859 
L 395.255903 49.791188 
L 393.562847 51.008644 
L 391.869792 52.226894 
L 390.176736 53.17039 
L 388.483681 53.84077 
L 386.790625 54.652065 
L 385.097569 55.563673 
L 383.404514 56.79325 
L 381.711458 57.629408 
L 380.018403 58.197529 
L 378.325347 59.034994 
L 376.632292 59.637573 
L 374.939236 60.172416 
L 373.246181 61.141634 
L 371.553125 61.713334 
L 369.860069 62.2849 
L 368.167014 62.97321 
L 366.473958 63.647223 
L 364.780903 64.263243 
L 363.087847 64.736167 
L 361.394792 65.047587 
L 359.701736 65.688373 
L 358.008681 66.12862 
L 356.315625 66.595433 
L 354.622569 67.159402 
L 352.929514 67.527651 
L 351.236458 67.991536 
L 349.543403 68.550561 
L 347.850347 68.70297 
L 346.157292 68.988638 
L 344.464236 69.299982 
L 342.771181 69.719715 
L 341.078125 69.96388 
L 339.385069 70.206076 
L 337.692014 70.448705 
L 335.998958 70.570856 
L 334.305903 70.758712 
L 332.612847 70.882638 
L 330.919792 70.724942 
L 329.226736 70.729453 
L 327.533681 70.994698 
L 325.840625 71.167683 
L 324.147569 71.13936 
L 322.454514 71.230827 
L 320.761458 71.285199 
L 319.068403 71.334593 
L 317.375347 71.315995 
L 315.682292 71.2803 
L 313.989236 71.16456 
L 312.296181 71.079455 
L 310.603125 71.037267 
L 308.910069 71.111024 
L 307.217014 71.040286 
L 305.523958 71.037164 
L 303.830903 71.060611 
L 302.137847 70.966871 
L 300.444792 70.836014 
L 298.751736 70.873928 
L 297.058681 70.876327 
L 295.365625 70.979554 
L 293.672569 70.954684 
L 291.979514 70.929813 
L 290.286458 70.903602 
L 288.593403 70.847951 
L 286.900347 70.718726 
L 285.207292 70.648212 
L 283.514236 70.498068 
L 281.821181 70.403794 
L 280.128125 70.276116 
L 278.435069 70.214378 
L 276.742014 70.138079 
L 275.048958 70.147537 
L 273.355903 70.103985 
L 271.662847 70.060432 
L 269.969792 70.000824 
L 268.276736 69.875788 
L 266.583681 69.752404 
L 264.890625 69.845257 
L 263.197569 69.84599 
L 261.504514 69.801644 
L 259.811458 69.757297 
L 258.118403 69.712951 
L 256.425347 69.668604 
L 254.732292 69.624907 
L 253.039236 69.581354 
L 251.346181 69.537802 
L 249.653125 69.494249 
z
" style="fill:#1f77b4;fill-opacity:0.15;"/>
   </g>
   <g id="matplotlib.axis_3">
    <g id="xtick_4">
     <g id="line2d_10">
      <g>
       <use style="stroke:#000000;stroke-width:0.8;" x="288.332933" xlink:href="#mb4b2f12b2d" y="254.118125"/>
      </g>
     </g>
     <g id="text_12">
      <!-- 2 -->
      <g transform="translate(285.151683 268.716562)scale(0.1 -0.1)">
       <use xlink:href="#DejaVuSans-50"/>
      </g>
     </g>
    </g>
    <g id="xtick_5">
     <g id="line2d_11">
      <g>
       <use style="stroke:#000000;stroke-width:0.8;" x="339.90601" xlink:href="#mb4b2f12b2d" y="254.118125"/>
      </g>
     </g>
     <g id="text_13">
      <!-- 3 -->
      <g transform="translate(336.72476 268.716562)scale(0.1 -0.1)">
       <use xlink:href="#DejaVuSans-51"/>
      </g>
     </g>
    </g>
    <g id="xtick_6">
     <g id="line2d_12">
      <g>
       <use style="stroke:#000000;stroke-width:0.8;" x="391.479087" xlink:href="#mb4b2f12b2d" y="254.118125"/>
      </g>
     </g>
     <g id="text_14">
      <!-- 4 -->
      <g transform="translate(388.297837 268.716562)scale(0.1 -0.1)">
       <use xlink:href="#DejaVuSans-52"/>
      </g>
     </g>
    </g>
    <g id="text_15">
     <!-- E -->
     <g transform="translate(330.3 282.394687)scale(0.1 -0.1)">
      <use xlink:href="#DejaVuSans-69"/>
     </g>
    </g>
   </g>
   <g id="matplotlib.axis_4">
    <g id="ytick_6">
     <g id="line2d_13">
      <g>
       <use style="stroke:#000000;stroke-width:0.8;" x="249.653125" xlink:href="#mca8935a353" y="243.581761"/>
      </g>
     </g>
     <g id="text_16">
      <!-- 1.0 -->
      <g transform="translate(226.75 247.38098)scale(0.1 -0.1)">
       <defs>
        <path d="M 10.6875 12.40625 
L 21 12.40625 
L 21 0 
L 10.6875 0 
z
" id="DejaVuSans-46"/>
        <path d="M 31.78125 66.40625 
Q 24.171875 66.40625 20.328125 58.90625 
Q 16.5 51.421875 16.5 36.375 
Q 16.5 21.390625 20.328125 13.890625 
Q 24.171875 6.390625 31.78125 6.390625 
Q 39.453125 6.390625 43.28125 13.890625 
Q 47.125 21.390625 47.125 36.375 
Q 47.125 51.421875 43.28125 58.90625 
Q 39.453125 66.40625 31.78125 66.40625 
z
M 31.78125 74.21875 
Q 44.046875 74.21875 50.515625 64.515625 
Q 56.984375 54.828125 56.984375 36.375 
Q 56.984375 17.96875 50.515625 8.265625 
Q 44.046875 -1.421875 31.78125 -1.421875 
Q 19.53125 -1.421875 13.0625 8.265625 
Q 6.59375 17.96875 6.59375 36.375 
Q 6.59375 54.828125 13.0625 64.515625 
Q 19.53125 74.21875 31.78125 74.21875 
z
" id="DejaVuSans-48"/>
       </defs>
       <use xlink:href="#DejaVuSans-49"/>
       <use x="63.623047" xlink:href="#DejaVuSans-46"/>
       <use x="95.410156" xlink:href="#DejaVuSans-48"/>
      </g>
     </g>
    </g>
    <g id="ytick_7">
     <g id="line2d_14">
      <g>
       <use style="stroke:#000000;stroke-width:0.8;" x="249.653125" xlink:href="#mca8935a353" y="217.240852"/>
      </g>
     </g>
     <g id="text_17">
      <!-- 1.5 -->
      <g transform="translate(226.75 221.040071)scale(0.1 -0.1)">
       <use xlink:href="#DejaVuSans-49"/>
       <use x="63.623047" xlink:href="#DejaVuSans-46"/>
       <use x="95.410156" xlink:href="#DejaVuSans-53"/>
      </g>
     </g>
    </g>
    <g id="ytick_8">
     <g id="line2d_15">
      <g>
       <use style="stroke:#000000;stroke-width:0.8;" x="249.653125" xlink:href="#mca8935a353" y="190.899943"/>
      </g>
     </g>
     <g id="text_18">
      <!-- 2.0 -->
      <g transform="translate(226.75 194.699162)scale(0.1 -0.1)">
       <use xlink:href="#DejaVuSans-50"/>
       <use x="63.623047" xlink:href="#DejaVuSans-46"/>
       <use x="95.410156" xlink:href="#DejaVuSans-48"/>
      </g>
     </g>
    </g>
    <g id="ytick_9">
     <g id="line2d_16">
      <g>
       <use style="stroke:#000000;stroke-width:0.8;" x="249.653125" xlink:href="#mca8935a353" y="164.559034"/>
      </g>
     </g>
     <g id="text_19">
      <!-- 2.5 -->
      <g transform="translate(226.75 168.358253)scale(0.1 -0.1)">
       <use xlink:href="#DejaVuSans-50"/>
       <use x="63.623047" xlink:href="#DejaVuSans-46"/>
       <use x="95.410156" xlink:href="#DejaVuSans-53"/>
      </g>
     </g>
    </g>
    <g id="ytick_10">
     <g id="line2d_17">
      <g>
       <use style="stroke:#000000;stroke-width:0.8;" x="249.653125" xlink:href="#mca8935a353" y="138.218125"/>
      </g>
     </g>
     <g id="text_20">
      <!-- 3.0 -->
      <g transform="translate(226.75 142.017344)scale(0.1 -0.1)">
       <use xlink:href="#DejaVuSans-51"/>
       <use x="63.623047" xlink:href="#DejaVuSans-46"/>
       <use x="95.410156" xlink:href="#DejaVuSans-48"/>
      </g>
     </g>
    </g>
    <g id="ytick_11">
     <g id="line2d_18">
      <g>
       <use style="stroke:#000000;stroke-width:0.8;" x="249.653125" xlink:href="#mca8935a353" y="111.877216"/>
      </g>
     </g>
     <g id="text_21">
      <!-- 3.5 -->
      <g transform="translate(226.75 115.676435)scale(0.1 -0.1)">
       <use xlink:href="#DejaVuSans-51"/>
       <use x="63.623047" xlink:href="#DejaVuSans-46"/>
       <use x="95.410156" xlink:href="#DejaVuSans-53"/>
      </g>
     </g>
    </g>
    <g id="ytick_12">
     <g id="line2d_19">
      <g>
       <use style="stroke:#000000;stroke-width:0.8;" x="249.653125" xlink:href="#mca8935a353" y="85.536307"/>
      </g>
     </g>
     <g id="text_22">
      <!-- 4.0 -->
      <g transform="translate(226.75 89.335526)scale(0.1 -0.1)">
       <use xlink:href="#DejaVuSans-52"/>
       <use x="63.623047" xlink:href="#DejaVuSans-46"/>
       <use x="95.410156" xlink:href="#DejaVuSans-48"/>
      </g>
     </g>
    </g>
    <g id="ytick_13">
     <g id="line2d_20">
      <g>
       <use style="stroke:#000000;stroke-width:0.8;" x="249.653125" xlink:href="#mca8935a353" y="59.195398"/>
      </g>
     </g>
     <g id="text_23">
      <!-- 4.5 -->
      <g transform="translate(226.75 62.994616)scale(0.1 -0.1)">
       <use xlink:href="#DejaVuSans-52"/>
       <use x="63.623047" xlink:href="#DejaVuSans-46"/>
       <use x="95.410156" xlink:href="#DejaVuSans-53"/>
      </g>
     </g>
    </g>
    <g id="ytick_14">
     <g id="line2d_21">
      <g>
       <use style="stroke:#000000;stroke-width:0.8;" x="249.653125" xlink:href="#mca8935a353" y="32.854489"/>
      </g>
     </g>
     <g id="text_24">
      <!-- 5.0 -->
      <g transform="translate(226.75 36.653707)scale(0.1 -0.1)">
       <use xlink:href="#DejaVuSans-53"/>
       <use x="63.623047" xlink:href="#DejaVuSans-46"/>
       <use x="95.410156" xlink:href="#DejaVuSans-48"/>
      </g>
     </g>
    </g>
    <g id="text_25">
     <!-- Trust8 -->
     <g transform="translate(220.670312 153.504844)rotate(-90)scale(0.1 -0.1)">
      <use xlink:href="#DejaVuSans-84"/>
      <use x="46.333984" xlink:href="#DejaVuSans-114"/>
      <use x="87.447266" xlink:href="#DejaVuSans-117"/>
      <use x="150.826172" xlink:href="#DejaVuSans-115"/>
      <use x="202.925781" xlink:href="#DejaVuSans-116"/>
      <use x="242.134766" xlink:href="#DejaVuSans-56"/>
     </g>
    </g>
   </g>
   <g id="line2d_22">
    <path clip-path="url(#p51410847dc)" d="M 249.653125 104.240193 
L 251.346181 103.863232 
L 253.039236 103.486272 
L 254.732292 103.109311 
L 256.425347 102.73235 
L 258.118403 102.355389 
L 259.811458 101.978428 
L 261.504514 101.601467 
L 263.197569 101.224506 
L 264.890625 100.847545 
L 266.583681 100.470584 
L 268.276736 100.093623 
L 269.969792 99.716663 
L 271.662847 99.339702 
L 273.355903 98.962741 
L 275.048958 98.58578 
L 276.742014 98.208819 
L 278.435069 97.831858 
L 280.128125 97.454897 
L 281.821181 97.077936 
L 283.514236 96.700975 
L 285.207292 96.324014 
L 286.900347 95.947054 
L 288.593403 95.570093 
L 290.286458 95.193132 
L 291.979514 94.816171 
L 293.672569 94.43921 
L 295.365625 94.062249 
L 297.058681 93.685288 
L 298.751736 93.308327 
L 300.444792 92.931366 
L 302.137847 92.554405 
L 303.830903 92.177445 
L 305.523958 91.800484 
L 307.217014 91.423523 
L 308.910069 91.046562 
L 310.603125 90.669601 
L 312.296181 90.29264 
L 313.989236 89.915679 
L 315.682292 89.538718 
L 317.375347 89.161757 
L 319.068403 88.784796 
L 320.761458 88.407836 
L 322.454514 88.030875 
L 324.147569 87.653914 
L 325.840625 87.276953 
L 327.533681 86.899992 
L 329.226736 86.523031 
L 330.919792 86.14607 
L 332.612847 85.769109 
L 334.305903 85.392148 
L 335.998958 85.015187 
L 337.692014 84.638227 
L 339.385069 84.261266 
L 341.078125 83.884305 
L 342.771181 83.507344 
L 344.464236 83.130383 
L 346.157292 82.753422 
L 347.850347 82.376461 
L 349.543403 81.9995 
L 351.236458 81.622539 
L 352.929514 81.245578 
L 354.622569 80.868618 
L 356.315625 80.491657 
L 358.008681 80.114696 
L 359.701736 79.737735 
L 361.394792 79.360774 
L 363.087847 78.983813 
L 364.780903 78.606852 
L 366.473958 78.229891 
L 368.167014 77.85293 
L 369.860069 77.475969 
L 371.553125 77.099009 
L 373.246181 76.722048 
L 374.939236 76.345087 
L 376.632292 75.968126 
L 378.325347 75.591165 
L 380.018403 75.214204 
L 381.711458 74.837243 
L 383.404514 74.460282 
L 385.097569 74.083321 
L 386.790625 73.70636 
L 388.483681 73.3294 
L 390.176736 72.952439 
L 391.869792 72.575478 
L 393.562847 72.198517 
L 395.255903 71.821556 
L 396.948958 71.444595 
L 398.642014 71.067634 
L 400.335069 70.690673 
L 402.028125 70.313712 
L 403.721181 69.936752 
L 405.414236 69.559791 
L 407.107292 69.18283 
L 408.800347 68.805869 
L 410.493403 68.428908 
L 412.186458 68.051947 
L 413.879514 67.674986 
L 415.572569 67.298025 
L 417.265625 66.921064 
" style="fill:none;stroke:#1f77b4;stroke-linecap:square;stroke-width:2.25;"/>
   </g>
   <g id="patch_8">
    <path d="M 249.653125 254.118125 
L 249.653125 22.318125 
" style="fill:none;stroke:#000000;stroke-linecap:square;stroke-linejoin:miter;stroke-width:0.8;"/>
   </g>
   <g id="patch_9">
    <path d="M 417.265625 254.118125 
L 417.265625 22.318125 
" style="fill:none;stroke:#000000;stroke-linecap:square;stroke-linejoin:miter;stroke-width:0.8;"/>
   </g>
   <g id="patch_10">
    <path d="M 249.653125 254.118125 
L 417.265625 254.118125 
" style="fill:none;stroke:#000000;stroke-linecap:square;stroke-linejoin:miter;stroke-width:0.8;"/>
   </g>
   <g id="patch_11">
    <path d="M 249.653125 22.318125 
L 417.265625 22.318125 
" style="fill:none;stroke:#000000;stroke-linecap:square;stroke-linejoin:miter;stroke-width:0.8;"/>
   </g>
   <g id="text_26">
    <!-- Group B -->
    <g transform="translate(249.653125 16.318125)scale(0.12 -0.12)">
     <defs>
      <path d="M 19.671875 34.8125 
L 19.671875 8.109375 
L 35.5 8.109375 
Q 43.453125 8.109375 47.28125 11.40625 
Q 51.125 14.703125 51.125 21.484375 
Q 51.125 28.328125 47.28125 31.5625 
Q 43.453125 34.8125 35.5 34.8125 
z
M 19.671875 64.796875 
L 19.671875 42.828125 
L 34.28125 42.828125 
Q 41.5 42.828125 45.03125 45.53125 
Q 48.578125 48.25 48.578125 53.8125 
Q 48.578125 59.328125 45.03125 62.0625 
Q 41.5 64.796875 34.28125 64.796875 
z
M 9.8125 72.90625 
L 35.015625 72.90625 
Q 46.296875 72.90625 52.390625 68.21875 
Q 58.5 63.53125 58.5 54.890625 
Q 58.5 48.1875 55.375 44.234375 
Q 52.25 40.28125 46.1875 39.3125 
Q 53.46875 37.75 57.5 32.78125 
Q 61.53125 27.828125 61.53125 20.40625 
Q 61.53125 10.640625 54.890625 5.3125 
Q 48.25 0 35.984375 0 
L 9.8125 0 
z
" id="DejaVuSans-66"/>
     </defs>
     <use xlink:href="#DejaVuSans-71"/>
     <use x="77.490234" xlink:href="#DejaVuSans-114"/>
     <use x="116.353516" xlink:href="#DejaVuSans-111"/>
     <use x="177.535156" xlink:href="#DejaVuSans-117"/>
     <use x="240.914062" xlink:href="#DejaVuSans-112"/>
     <use x="304.390625" xlink:href="#DejaVuSans-32"/>
     <use x="336.177734" xlink:href="#DejaVuSans-66"/>
    </g>
   </g>
  </g>
  <g id="text_27">
   <!-- I trust the bike chatbot. -->
   <g transform="translate(141.427813 22.79625)scale(0.12 -0.12)">
    <defs>
     <path d="M 9.8125 72.90625 
L 19.671875 72.90625 
L 19.671875 0 
L 9.8125 0 
z
" id="DejaVuSans-73"/>
     <path d="M 54.890625 33.015625 
L 54.890625 0 
L 45.90625 0 
L 45.90625 32.71875 
Q 45.90625 40.484375 42.875 44.328125 
Q 39.84375 48.1875 33.796875 48.1875 
Q 26.515625 48.1875 22.3125 43.546875 
Q 18.109375 38.921875 18.109375 30.90625 
L 18.109375 0 
L 9.078125 0 
L 9.078125 75.984375 
L 18.109375 75.984375 
L 18.109375 46.1875 
Q 21.34375 51.125 25.703125 53.5625 
Q 30.078125 56 35.796875 56 
Q 45.21875 56 50.046875 50.171875 
Q 54.890625 44.34375 54.890625 33.015625 
z
" id="DejaVuSans-104"/>
     <path d="M 56.203125 29.59375 
L 56.203125 25.203125 
L 14.890625 25.203125 
Q 15.484375 15.921875 20.484375 11.0625 
Q 25.484375 6.203125 34.421875 6.203125 
Q 39.59375 6.203125 44.453125 7.46875 
Q 49.3125 8.734375 54.109375 11.28125 
L 54.109375 2.78125 
Q 49.265625 0.734375 44.1875 -0.34375 
Q 39.109375 -1.421875 33.890625 -1.421875 
Q 20.796875 -1.421875 13.15625 6.1875 
Q 5.515625 13.8125 5.515625 26.8125 
Q 5.515625 40.234375 12.765625 48.109375 
Q 20.015625 56 32.328125 56 
Q 43.359375 56 49.78125 48.890625 
Q 56.203125 41.796875 56.203125 29.59375 
z
M 47.21875 32.234375 
Q 47.125 39.59375 43.09375 43.984375 
Q 39.0625 48.390625 32.421875 48.390625 
Q 24.90625 48.390625 20.390625 44.140625 
Q 15.875 39.890625 15.1875 32.171875 
z
" id="DejaVuSans-101"/>
     <path d="M 48.6875 27.296875 
Q 48.6875 37.203125 44.609375 42.84375 
Q 40.53125 48.484375 33.40625 48.484375 
Q 26.265625 48.484375 22.1875 42.84375 
Q 18.109375 37.203125 18.109375 27.296875 
Q 18.109375 17.390625 22.1875 11.75 
Q 26.265625 6.109375 33.40625 6.109375 
Q 40.53125 6.109375 44.609375 11.75 
Q 48.6875 17.390625 48.6875 27.296875 
z
M 18.109375 46.390625 
Q 20.953125 51.265625 25.265625 53.625 
Q 29.59375 56 35.59375 56 
Q 45.5625 56 51.78125 48.09375 
Q 58.015625 40.1875 58.015625 27.296875 
Q 58.015625 14.40625 51.78125 6.484375 
Q 45.5625 -1.421875 35.59375 -1.421875 
Q 29.59375 -1.421875 25.265625 0.953125 
Q 20.953125 3.328125 18.109375 8.203125 
L 18.109375 0 
L 9.078125 0 
L 9.078125 75.984375 
L 18.109375 75.984375 
z
" id="DejaVuSans-98"/>
     <path d="M 9.421875 54.6875 
L 18.40625 54.6875 
L 18.40625 0 
L 9.421875 0 
z
M 9.421875 75.984375 
L 18.40625 75.984375 
L 18.40625 64.59375 
L 9.421875 64.59375 
z
" id="DejaVuSans-105"/>
     <path d="M 9.078125 75.984375 
L 18.109375 75.984375 
L 18.109375 31.109375 
L 44.921875 54.6875 
L 56.390625 54.6875 
L 27.390625 29.109375 
L 57.625 0 
L 45.90625 0 
L 18.109375 26.703125 
L 18.109375 0 
L 9.078125 0 
z
" id="DejaVuSans-107"/>
     <path d="M 48.78125 52.59375 
L 48.78125 44.1875 
Q 44.96875 46.296875 41.140625 47.34375 
Q 37.3125 48.390625 33.40625 48.390625 
Q 24.65625 48.390625 19.8125 42.84375 
Q 14.984375 37.3125 14.984375 27.296875 
Q 14.984375 17.28125 19.8125 11.734375 
Q 24.65625 6.203125 33.40625 6.203125 
Q 37.3125 6.203125 41.140625 7.25 
Q 44.96875 8.296875 48.78125 10.40625 
L 48.78125 2.09375 
Q 45.015625 0.34375 40.984375 -0.53125 
Q 36.96875 -1.421875 32.421875 -1.421875 
Q 20.0625 -1.421875 12.78125 6.34375 
Q 5.515625 14.109375 5.515625 27.296875 
Q 5.515625 40.671875 12.859375 48.328125 
Q 20.21875 56 33.015625 56 
Q 37.15625 56 41.109375 55.140625 
Q 45.0625 54.296875 48.78125 52.59375 
z
" id="DejaVuSans-99"/>
     <path d="M 34.28125 27.484375 
Q 23.390625 27.484375 19.1875 25 
Q 14.984375 22.515625 14.984375 16.5 
Q 14.984375 11.71875 18.140625 8.90625 
Q 21.296875 6.109375 26.703125 6.109375 
Q 34.1875 6.109375 38.703125 11.40625 
Q 43.21875 16.703125 43.21875 25.484375 
L 43.21875 27.484375 
z
M 52.203125 31.203125 
L 52.203125 0 
L 43.21875 0 
L 43.21875 8.296875 
Q 40.140625 3.328125 35.546875 0.953125 
Q 30.953125 -1.421875 24.3125 -1.421875 
Q 15.921875 -1.421875 10.953125 3.296875 
Q 6 8.015625 6 15.921875 
Q 6 25.140625 12.171875 29.828125 
Q 18.359375 34.515625 30.609375 34.515625 
L 43.21875 34.515625 
L 43.21875 35.40625 
Q 43.21875 41.609375 39.140625 45 
Q 35.0625 48.390625 27.6875 48.390625 
Q 23 48.390625 18.546875 47.265625 
Q 14.109375 46.140625 10.015625 43.890625 
L 10.015625 52.203125 
Q 14.9375 54.109375 19.578125 55.046875 
Q 24.21875 56 28.609375 56 
Q 40.484375 56 46.34375 49.84375 
Q 52.203125 43.703125 52.203125 31.203125 
z
" id="DejaVuSans-97"/>
    </defs>
    <use xlink:href="#DejaVuSans-73"/>
    <use x="29.492188" xlink:href="#DejaVuSans-32"/>
    <use x="61.279297" xlink:href="#DejaVuSans-116"/>
    <use x="100.488281" xlink:href="#DejaVuSans-114"/>
    <use x="141.601562" xlink:href="#DejaVuSans-117"/>
    <use x="204.980469" xlink:href="#DejaVuSans-115"/>
    <use x="257.080078" xlink:href="#DejaVuSans-116"/>
    <use x="296.289062" xlink:href="#DejaVuSans-32"/>
    <use x="328.076172" xlink:href="#DejaVuSans-116"/>
    <use x="367.285156" xlink:href="#DejaVuSans-104"/>
    <use x="430.664062" xlink:href="#DejaVuSans-101"/>
    <use x="492.1875" xlink:href="#DejaVuSans-32"/>
    <use x="523.974609" xlink:href="#DejaVuSans-98"/>
    <use x="587.451172" xlink:href="#DejaVuSans-105"/>
    <use x="615.234375" xlink:href="#DejaVuSans-107"/>
    <use x="669.519531" xlink:href="#DejaVuSans-101"/>
    <use x="731.042969" xlink:href="#DejaVuSans-32"/>
    <use x="762.830078" xlink:href="#DejaVuSans-99"/>
    <use x="817.810547" xlink:href="#DejaVuSans-104"/>
    <use x="881.189453" xlink:href="#DejaVuSans-97"/>
    <use x="942.46875" xlink:href="#DejaVuSans-116"/>
    <use x="981.677734" xlink:href="#DejaVuSans-98"/>
    <use x="1045.154297" xlink:href="#DejaVuSans-111"/>
    <use x="1106.335938" xlink:href="#DejaVuSans-116"/>
    <use x="1145.544922" xlink:href="#DejaVuSans-46"/>
   </g>
  </g>
 </g>
 <defs>
  <clipPath id="p789054f617">
   <rect height="231.8" width="167.6125" x="34.240625" y="22.318125"/>
  </clipPath>
  <clipPath id="p51410847dc">
   <rect height="231.8" width="167.6125" x="249.653125" y="22.318125"/>
  </clipPath>
 </defs>
</svg>
