<?xml version="1.0" encoding="utf-8" standalone="no"?>
<!DOCTYPE svg PUBLIC "-//W3C//DTD SVG 1.1//EN"
  "http://www.w3.org/Graphics/SVG/1.1/DTD/svg11.dtd">
<!-- Created with matplotlib (https://matplotlib.org/) -->
<svg height="291.674375pt" version="1.1" viewBox="0 0 515.07375 291.674375" width="515.07375pt" xmlns="http://www.w3.org/2000/svg" xmlns:xlink="http://www.w3.org/1999/xlink">
 <metadata>
  <rdf:RDF xmlns:cc="http://creativecommons.org/ns#" xmlns:dc="http://purl.org/dc/elements/1.1/" xmlns:rdf="http://www.w3.org/1999/02/22-rdf-syntax-ns#">
   <cc:Work>
    <dc:type rdf:resource="http://purl.org/dc/dcmitype/StillImage"/>
    <dc:date>2021-02-20T15:29:28.349544</dc:date>
    <dc:format>image/svg+xml</dc:format>
    <dc:creator>
     <cc:Agent>
      <dc:title>Matplotlib v3.3.2, https://matplotlib.org/</dc:title>
     </cc:Agent>
    </dc:creator>
   </cc:Work>
  </rdf:RDF>
 </metadata>
 <defs>
  <style type="text/css">*{stroke-linecap:butt;stroke-linejoin:round;}</style>
 </defs>
 <g id="figure_1">
  <g id="patch_1">
   <path d="M 0 291.674375 
L 515.07375 291.674375 
L 515.07375 0 
L 0 0 
z
" style="fill:none;"/>
  </g>
  <g id="axes_1">
   <g id="patch_2">
    <path d="M 79.711875 254.118125 
L 252.136875 254.118125 
L 252.136875 22.318125 
L 79.711875 22.318125 
z
" style="fill:#ffffff;"/>
   </g>
   <g id="PathCollection_1">
    <defs>
     <path d="M 0 3 
C 0.795609 3 1.55874 2.683901 2.12132 2.12132 
C 2.683901 1.55874 3 0.795609 3 0 
C 3 -0.795609 2.683901 -1.55874 2.12132 -2.12132 
C 1.55874 -2.683901 0.795609 -3 0 -3 
C -0.795609 -3 -1.55874 -2.683901 -2.12132 -2.12132 
C -2.683901 -1.55874 -3 -0.795609 -3 0 
C -3 0.795609 -2.683901 1.55874 -2.12132 2.12132 
C -1.55874 2.683901 -0.795609 3 0 3 
z
" id="m6a5050c59a" style="stroke:#1f77b4;stroke-opacity:0.8;"/>
    </defs>
    <g clip-path="url(#pdced99b97e)">
     <use style="fill:#1f77b4;fill-opacity:0.8;stroke:#1f77b4;stroke-opacity:0.8;" x="185.819567" xlink:href="#m6a5050c59a" y="149.836276"/>
     <use style="fill:#1f77b4;fill-opacity:0.8;stroke:#1f77b4;stroke-opacity:0.8;" x="106.238798" xlink:href="#m6a5050c59a" y="102.963533"/>
     <use style="fill:#1f77b4;fill-opacity:0.8;stroke:#1f77b4;stroke-opacity:0.8;" x="119.50226" xlink:href="#m6a5050c59a" y="102.963533"/>
     <use style="fill:#1f77b4;fill-opacity:0.8;stroke:#1f77b4;stroke-opacity:0.8;" x="185.819567" xlink:href="#m6a5050c59a" y="102.963533"/>
     <use style="fill:#1f77b4;fill-opacity:0.8;stroke:#1f77b4;stroke-opacity:0.8;" x="212.34649" xlink:href="#m6a5050c59a" y="56.09079"/>
     <use style="fill:#1f77b4;fill-opacity:0.8;stroke:#1f77b4;stroke-opacity:0.8;" x="172.556106" xlink:href="#m6a5050c59a" y="56.09079"/>
     <use style="fill:#1f77b4;fill-opacity:0.8;stroke:#1f77b4;stroke-opacity:0.8;" x="225.609952" xlink:href="#m6a5050c59a" y="56.09079"/>
     <use style="fill:#1f77b4;fill-opacity:0.8;stroke:#1f77b4;stroke-opacity:0.8;" x="172.556106" xlink:href="#m6a5050c59a" y="102.963533"/>
     <use style="fill:#1f77b4;fill-opacity:0.8;stroke:#1f77b4;stroke-opacity:0.8;" x="119.50226" xlink:href="#m6a5050c59a" y="149.836276"/>
     <use style="fill:#1f77b4;fill-opacity:0.8;stroke:#1f77b4;stroke-opacity:0.8;" x="159.292644" xlink:href="#m6a5050c59a" y="149.836276"/>
     <use style="fill:#1f77b4;fill-opacity:0.8;stroke:#1f77b4;stroke-opacity:0.8;" x="159.292644" xlink:href="#m6a5050c59a" y="56.09079"/>
     <use style="fill:#1f77b4;fill-opacity:0.8;stroke:#1f77b4;stroke-opacity:0.8;" x="212.34649" xlink:href="#m6a5050c59a" y="56.09079"/>
     <use style="fill:#1f77b4;fill-opacity:0.8;stroke:#1f77b4;stroke-opacity:0.8;" x="132.765721" xlink:href="#m6a5050c59a" y="56.09079"/>
     <use style="fill:#1f77b4;fill-opacity:0.8;stroke:#1f77b4;stroke-opacity:0.8;" x="172.556106" xlink:href="#m6a5050c59a" y="149.836276"/>
     <use style="fill:#1f77b4;fill-opacity:0.8;stroke:#1f77b4;stroke-opacity:0.8;" x="172.556106" xlink:href="#m6a5050c59a" y="196.709019"/>
     <use style="fill:#1f77b4;fill-opacity:0.8;stroke:#1f77b4;stroke-opacity:0.8;" x="199.083029" xlink:href="#m6a5050c59a" y="149.836276"/>
     <use style="fill:#1f77b4;fill-opacity:0.8;stroke:#1f77b4;stroke-opacity:0.8;" x="159.292644" xlink:href="#m6a5050c59a" y="149.836276"/>
     <use style="fill:#1f77b4;fill-opacity:0.8;stroke:#1f77b4;stroke-opacity:0.8;" x="146.029183" xlink:href="#m6a5050c59a" y="196.709019"/>
     <use style="fill:#1f77b4;fill-opacity:0.8;stroke:#1f77b4;stroke-opacity:0.8;" x="199.083029" xlink:href="#m6a5050c59a" y="56.09079"/>
     <use style="fill:#1f77b4;fill-opacity:0.8;stroke:#1f77b4;stroke-opacity:0.8;" x="79.711875" xlink:href="#m6a5050c59a" y="243.581761"/>
     <use style="fill:#1f77b4;fill-opacity:0.8;stroke:#1f77b4;stroke-opacity:0.8;" x="132.765721" xlink:href="#m6a5050c59a" y="102.963533"/>
     <use style="fill:#1f77b4;fill-opacity:0.8;stroke:#1f77b4;stroke-opacity:0.8;" x="252.136875" xlink:href="#m6a5050c59a" y="56.09079"/>
     <use style="fill:#1f77b4;fill-opacity:0.8;stroke:#1f77b4;stroke-opacity:0.8;" x="159.292644" xlink:href="#m6a5050c59a" y="102.963533"/>
     <use style="fill:#1f77b4;fill-opacity:0.8;stroke:#1f77b4;stroke-opacity:0.8;" x="159.292644" xlink:href="#m6a5050c59a" y="56.09079"/>
     <use style="fill:#1f77b4;fill-opacity:0.8;stroke:#1f77b4;stroke-opacity:0.8;" x="159.292644" xlink:href="#m6a5050c59a" y="56.09079"/>
     <use style="fill:#1f77b4;fill-opacity:0.8;stroke:#1f77b4;stroke-opacity:0.8;" x="159.292644" xlink:href="#m6a5050c59a" y="196.709019"/>
     <use style="fill:#1f77b4;fill-opacity:0.8;stroke:#1f77b4;stroke-opacity:0.8;" x="146.029183" xlink:href="#m6a5050c59a" y="56.09079"/>
     <use style="fill:#1f77b4;fill-opacity:0.8;stroke:#1f77b4;stroke-opacity:0.8;" x="132.765721" xlink:href="#m6a5050c59a" y="102.963533"/>
     <use style="fill:#1f77b4;fill-opacity:0.8;stroke:#1f77b4;stroke-opacity:0.8;" x="146.029183" xlink:href="#m6a5050c59a" y="56.09079"/>
     <use style="fill:#1f77b4;fill-opacity:0.8;stroke:#1f77b4;stroke-opacity:0.8;" x="159.292644" xlink:href="#m6a5050c59a" y="149.836276"/>
     <use style="fill:#1f77b4;fill-opacity:0.8;stroke:#1f77b4;stroke-opacity:0.8;" x="159.292644" xlink:href="#m6a5050c59a" y="102.963533"/>
     <use style="fill:#1f77b4;fill-opacity:0.8;stroke:#1f77b4;stroke-opacity:0.8;" x="132.765721" xlink:href="#m6a5050c59a" y="102.963533"/>
     <use style="fill:#1f77b4;fill-opacity:0.8;stroke:#1f77b4;stroke-opacity:0.8;" x="172.556106" xlink:href="#m6a5050c59a" y="149.836276"/>
     <use style="fill:#1f77b4;fill-opacity:0.8;stroke:#1f77b4;stroke-opacity:0.8;" x="172.556106" xlink:href="#m6a5050c59a" y="149.836276"/>
     <use style="fill:#1f77b4;fill-opacity:0.8;stroke:#1f77b4;stroke-opacity:0.8;" x="146.029183" xlink:href="#m6a5050c59a" y="149.836276"/>
     <use style="fill:#1f77b4;fill-opacity:0.8;stroke:#1f77b4;stroke-opacity:0.8;" x="146.029183" xlink:href="#m6a5050c59a" y="149.836276"/>
     <use style="fill:#1f77b4;fill-opacity:0.8;stroke:#1f77b4;stroke-opacity:0.8;" x="132.765721" xlink:href="#m6a5050c59a" y="149.836276"/>
     <use style="fill:#1f77b4;fill-opacity:0.8;stroke:#1f77b4;stroke-opacity:0.8;" x="159.292644" xlink:href="#m6a5050c59a" y="149.836276"/>
     <use style="fill:#1f77b4;fill-opacity:0.8;stroke:#1f77b4;stroke-opacity:0.8;" x="146.029183" xlink:href="#m6a5050c59a" y="149.836276"/>
     <use style="fill:#1f77b4;fill-opacity:0.8;stroke:#1f77b4;stroke-opacity:0.8;" x="132.765721" xlink:href="#m6a5050c59a" y="149.836276"/>
     <use style="fill:#1f77b4;fill-opacity:0.8;stroke:#1f77b4;stroke-opacity:0.8;" x="92.975337" xlink:href="#m6a5050c59a" y="102.963533"/>
    </g>
   </g>
   <g id="PolyCollection_1">
    <path clip-path="url(#pdced99b97e)" d="M 79.711875 117.924243 
L 79.711875 195.488973 
L 81.453542 193.788239 
L 83.195208 192.087504 
L 84.936875 190.38677 
L 86.678542 188.681479 
L 88.420208 186.974422 
L 90.161875 185.267364 
L 91.903542 183.656725 
L 93.645208 182.153179 
L 95.386875 180.704828 
L 97.128542 179.256477 
L 98.870208 177.808127 
L 100.611875 176.359776 
L 102.353542 174.911425 
L 104.095208 173.463075 
L 105.836875 172.014724 
L 107.578542 170.566373 
L 109.320208 169.002705 
L 111.061875 167.659818 
L 112.803542 165.97637 
L 114.545208 164.49195 
L 116.286875 163.027111 
L 118.028542 161.295065 
L 119.770208 159.627058 
L 121.511875 157.959051 
L 123.253542 156.313206 
L 124.995208 154.927722 
L 126.736875 153.292128 
L 128.478542 151.675731 
L 130.220208 150.259377 
L 131.961875 148.915527 
L 133.703542 147.934734 
L 135.445208 146.721639 
L 137.186875 145.780205 
L 138.928542 144.461331 
L 140.670208 143.173466 
L 142.411875 141.935186 
L 144.153542 140.777506 
L 145.895208 139.454932 
L 147.636875 137.988582 
L 149.378542 136.617218 
L 151.120208 135.629622 
L 152.861875 134.746557 
L 154.603542 133.812167 
L 156.345208 132.76606 
L 158.086875 131.714574 
L 159.828542 130.931774 
L 161.570208 129.677715 
L 163.311875 128.845184 
L 165.053542 128.027141 
L 166.795208 127.25133 
L 168.536875 126.66072 
L 170.278542 126.170408 
L 172.020208 125.383751 
L 173.761875 124.884826 
L 175.503542 124.304397 
L 177.245208 123.88899 
L 178.986875 123.25493 
L 180.728542 122.885974 
L 182.470208 122.596779 
L 184.211875 122.361073 
L 185.953542 122.173925 
L 187.695208 121.983179 
L 189.436875 121.793677 
L 191.178542 121.610847 
L 192.920208 121.421327 
L 194.661875 121.231807 
L 196.403542 121.042286 
L 198.145208 120.845315 
L 199.886875 120.339112 
L 201.628542 120.408662 
L 203.370208 120.284205 
L 205.111875 120.094684 
L 206.853542 119.905164 
L 208.595208 119.715644 
L 210.336875 119.526123 
L 212.078542 119.332511 
L 213.820208 119.025007 
L 215.561875 118.95221 
L 217.303542 118.768042 
L 219.045208 118.578522 
L 220.786875 118.479525 
L 222.528542 118.40253 
L 224.270208 118.306602 
L 226.011875 118.119247 
L 227.753542 117.931892 
L 229.495208 117.789313 
L 231.236875 117.786486 
L 232.978542 117.783659 
L 234.720208 117.780832 
L 236.461875 117.778005 
L 238.203542 117.780301 
L 239.945208 117.662115 
L 241.686875 117.589852 
L 243.428542 117.517588 
L 245.170208 117.445324 
L 246.911875 117.373061 
L 248.653542 117.300797 
L 250.395208 117.228533 
L 252.136875 117.15627 
L 252.136875 32.854489 
L 252.136875 32.854489 
L 250.395208 34.479329 
L 248.653542 36.10296 
L 246.911875 37.630512 
L 245.170208 39.159078 
L 243.428542 40.717752 
L 241.686875 42.340413 
L 239.945208 44.012312 
L 238.203542 45.684211 
L 236.461875 47.356111 
L 234.720208 49.02801 
L 232.978542 50.533612 
L 231.236875 52.038955 
L 229.495208 53.305428 
L 227.753542 54.759414 
L 226.011875 56.241707 
L 224.270208 57.782903 
L 222.528542 59.37646 
L 220.786875 60.647434 
L 219.045208 62.057171 
L 217.303542 63.708056 
L 215.561875 65.138712 
L 213.820208 66.675833 
L 212.078542 68.15818 
L 210.336875 69.678351 
L 208.595208 71.205594 
L 206.853542 72.732838 
L 205.111875 74.233645 
L 203.370208 75.371764 
L 201.628542 76.520598 
L 199.886875 77.909131 
L 198.145208 79.276605 
L 196.403542 80.509498 
L 194.661875 81.913861 
L 192.920208 82.982128 
L 191.178542 84.055539 
L 189.436875 85.446398 
L 187.695208 86.687508 
L 185.953542 87.903855 
L 184.211875 89.008513 
L 182.470208 90.093524 
L 180.728542 91.004735 
L 178.986875 92.270426 
L 177.245208 93.559886 
L 175.503542 94.567167 
L 173.761875 95.401381 
L 172.020208 96.200315 
L 170.278542 96.947389 
L 168.536875 97.863616 
L 166.795208 98.813957 
L 165.053542 99.621252 
L 163.311875 100.392801 
L 161.570208 101.368101 
L 159.828542 101.94417 
L 158.086875 102.757391 
L 156.345208 103.578539 
L 154.603542 104.317734 
L 152.861875 105.114271 
L 151.120208 105.485942 
L 149.378542 106.091398 
L 147.636875 106.745787 
L 145.895208 107.237441 
L 144.153542 107.821747 
L 142.411875 108.416323 
L 140.670208 108.988076 
L 138.928542 109.476269 
L 137.186875 110.045288 
L 135.445208 110.637679 
L 133.703542 110.884301 
L 131.961875 111.381488 
L 130.220208 111.808492 
L 128.478542 112.424188 
L 126.736875 112.918908 
L 124.995208 113.211799 
L 123.253542 113.413641 
L 121.511875 113.684922 
L 119.770208 113.694385 
L 118.028542 114.104085 
L 116.286875 114.264576 
L 114.545208 114.28 
L 112.803542 114.114764 
L 111.061875 114.561782 
L 109.320208 114.851768 
L 107.578542 115.297405 
L 105.836875 115.441635 
L 104.095208 115.453619 
L 102.353542 115.760963 
L 100.611875 116.186915 
L 98.870208 116.635707 
L 97.128542 116.815845 
L 95.386875 116.968361 
L 93.645208 117.171891 
L 91.903542 117.475495 
L 90.161875 117.611435 
L 88.420208 117.697408 
L 86.678542 117.853881 
L 84.936875 117.857578 
L 83.195208 117.861276 
L 81.453542 117.864973 
L 79.711875 117.924243 
z
" style="fill:#1f77b4;fill-opacity:0.15;"/>
   </g>
   <g id="matplotlib.axis_1">
    <g id="xtick_1">
     <g id="line2d_1">
      <defs>
       <path d="M 0 0 
L 0 3.5 
" id="m831c4ee81a" style="stroke:#000000;stroke-width:0.8;"/>
      </defs>
      <g>
       <use style="stroke:#000000;stroke-width:0.8;" x="106.238798" xlink:href="#m831c4ee81a" y="254.118125"/>
      </g>
     </g>
     <g id="text_1">
      <!-- 2 -->
      <g transform="translate(103.057548 268.716562)scale(0.1 -0.1)">
       <defs>
        <path d="M 19.1875 8.296875 
L 53.609375 8.296875 
L 53.609375 0 
L 7.328125 0 
L 7.328125 8.296875 
Q 12.9375 14.109375 22.625 23.890625 
Q 32.328125 33.6875 34.8125 36.53125 
Q 39.546875 41.84375 41.421875 45.53125 
Q 43.3125 49.21875 43.3125 52.78125 
Q 43.3125 58.59375 39.234375 62.25 
Q 35.15625 65.921875 28.609375 65.921875 
Q 23.96875 65.921875 18.8125 64.3125 
Q 13.671875 62.703125 7.8125 59.421875 
L 7.8125 69.390625 
Q 13.765625 71.78125 18.9375 73 
Q 24.125 74.21875 28.421875 74.21875 
Q 39.75 74.21875 46.484375 68.546875 
Q 53.21875 62.890625 53.21875 53.421875 
Q 53.21875 48.921875 51.53125 44.890625 
Q 49.859375 40.875 45.40625 35.40625 
Q 44.1875 33.984375 37.640625 27.21875 
Q 31.109375 20.453125 19.1875 8.296875 
z
" id="DejaVuSans-50"/>
       </defs>
       <use xlink:href="#DejaVuSans-50"/>
      </g>
     </g>
    </g>
    <g id="xtick_2">
     <g id="line2d_2">
      <g>
       <use style="stroke:#000000;stroke-width:0.8;" x="159.292644" xlink:href="#m831c4ee81a" y="254.118125"/>
      </g>
     </g>
     <g id="text_2">
      <!-- 3 -->
      <g transform="translate(156.111394 268.716562)scale(0.1 -0.1)">
       <defs>
        <path d="M 40.578125 39.3125 
Q 47.65625 37.796875 51.625 33 
Q 55.609375 28.21875 55.609375 21.1875 
Q 55.609375 10.40625 48.1875 4.484375 
Q 40.765625 -1.421875 27.09375 -1.421875 
Q 22.515625 -1.421875 17.65625 -0.515625 
Q 12.796875 0.390625 7.625 2.203125 
L 7.625 11.71875 
Q 11.71875 9.328125 16.59375 8.109375 
Q 21.484375 6.890625 26.8125 6.890625 
Q 36.078125 6.890625 40.9375 10.546875 
Q 45.796875 14.203125 45.796875 21.1875 
Q 45.796875 27.640625 41.28125 31.265625 
Q 36.765625 34.90625 28.71875 34.90625 
L 20.21875 34.90625 
L 20.21875 43.015625 
L 29.109375 43.015625 
Q 36.375 43.015625 40.234375 45.921875 
Q 44.09375 48.828125 44.09375 54.296875 
Q 44.09375 59.90625 40.109375 62.90625 
Q 36.140625 65.921875 28.71875 65.921875 
Q 24.65625 65.921875 20.015625 65.03125 
Q 15.375 64.15625 9.8125 62.3125 
L 9.8125 71.09375 
Q 15.4375 72.65625 20.34375 73.4375 
Q 25.25 74.21875 29.59375 74.21875 
Q 40.828125 74.21875 47.359375 69.109375 
Q 53.90625 64.015625 53.90625 55.328125 
Q 53.90625 49.265625 50.4375 45.09375 
Q 46.96875 40.921875 40.578125 39.3125 
z
" id="DejaVuSans-51"/>
       </defs>
       <use xlink:href="#DejaVuSans-51"/>
      </g>
     </g>
    </g>
    <g id="xtick_3">
     <g id="line2d_3">
      <g>
       <use style="stroke:#000000;stroke-width:0.8;" x="212.34649" xlink:href="#m831c4ee81a" y="254.118125"/>
      </g>
     </g>
     <g id="text_3">
      <!-- 4 -->
      <g transform="translate(209.16524 268.716562)scale(0.1 -0.1)">
       <defs>
        <path d="M 37.796875 64.3125 
L 12.890625 25.390625 
L 37.796875 25.390625 
z
M 35.203125 72.90625 
L 47.609375 72.90625 
L 47.609375 25.390625 
L 58.015625 25.390625 
L 58.015625 17.1875 
L 47.609375 17.1875 
L 47.609375 0 
L 37.796875 0 
L 37.796875 17.1875 
L 4.890625 17.1875 
L 4.890625 26.703125 
z
" id="DejaVuSans-52"/>
       </defs>
       <use xlink:href="#DejaVuSans-52"/>
      </g>
     </g>
    </g>
    <g id="text_4">
     <!-- E -->
     <g transform="translate(162.765 282.394687)scale(0.1 -0.1)">
      <defs>
       <path d="M 9.8125 72.90625 
L 55.90625 72.90625 
L 55.90625 64.59375 
L 19.671875 64.59375 
L 19.671875 43.015625 
L 54.390625 43.015625 
L 54.390625 34.71875 
L 19.671875 34.71875 
L 19.671875 8.296875 
L 56.78125 8.296875 
L 56.78125 0 
L 9.8125 0 
z
" id="DejaVuSans-69"/>
      </defs>
      <use xlink:href="#DejaVuSans-69"/>
     </g>
    </g>
   </g>
   <g id="matplotlib.axis_2">
    <g id="ytick_1">
     <g id="line2d_4">
      <defs>
       <path d="M 0 0 
L -3.5 0 
" id="mc14c5e11f6" style="stroke:#000000;stroke-width:0.8;"/>
      </defs>
      <g>
       <use style="stroke:#000000;stroke-width:0.8;" x="79.711875" xlink:href="#mc14c5e11f6" y="243.581761"/>
      </g>
     </g>
     <g id="text_5">
      <!-- 3 -->
      <g transform="translate(66.349375 247.38098)scale(0.1 -0.1)">
       <use xlink:href="#DejaVuSans-51"/>
      </g>
     </g>
    </g>
    <g id="ytick_2">
     <g id="line2d_5">
      <g>
       <use style="stroke:#000000;stroke-width:0.8;" x="79.711875" xlink:href="#mc14c5e11f6" y="196.709019"/>
      </g>
     </g>
     <g id="text_6">
      <!-- 4 -->
      <g transform="translate(66.349375 200.508237)scale(0.1 -0.1)">
       <use xlink:href="#DejaVuSans-52"/>
      </g>
     </g>
    </g>
    <g id="ytick_3">
     <g id="line2d_6">
      <g>
       <use style="stroke:#000000;stroke-width:0.8;" x="79.711875" xlink:href="#mc14c5e11f6" y="149.836276"/>
      </g>
     </g>
     <g id="text_7">
      <!-- 5 -->
      <g transform="translate(66.349375 153.635495)scale(0.1 -0.1)">
       <defs>
        <path d="M 10.796875 72.90625 
L 49.515625 72.90625 
L 49.515625 64.59375 
L 19.828125 64.59375 
L 19.828125 46.734375 
Q 21.96875 47.46875 24.109375 47.828125 
Q 26.265625 48.1875 28.421875 48.1875 
Q 40.625 48.1875 47.75 41.5 
Q 54.890625 34.8125 54.890625 23.390625 
Q 54.890625 11.625 47.5625 5.09375 
Q 40.234375 -1.421875 26.90625 -1.421875 
Q 22.3125 -1.421875 17.546875 -0.640625 
Q 12.796875 0.140625 7.71875 1.703125 
L 7.71875 11.625 
Q 12.109375 9.234375 16.796875 8.0625 
Q 21.484375 6.890625 26.703125 6.890625 
Q 35.15625 6.890625 40.078125 11.328125 
Q 45.015625 15.765625 45.015625 23.390625 
Q 45.015625 31 40.078125 35.4375 
Q 35.15625 39.890625 26.703125 39.890625 
Q 22.75 39.890625 18.8125 39.015625 
Q 14.890625 38.140625 10.796875 36.28125 
z
" id="DejaVuSans-53"/>
       </defs>
       <use xlink:href="#DejaVuSans-53"/>
      </g>
     </g>
    </g>
    <g id="ytick_4">
     <g id="line2d_7">
      <g>
       <use style="stroke:#000000;stroke-width:0.8;" x="79.711875" xlink:href="#mc14c5e11f6" y="102.963533"/>
      </g>
     </g>
     <g id="text_8">
      <!-- 6 -->
      <g transform="translate(66.349375 106.762752)scale(0.1 -0.1)">
       <defs>
        <path d="M 33.015625 40.375 
Q 26.375 40.375 22.484375 35.828125 
Q 18.609375 31.296875 18.609375 23.390625 
Q 18.609375 15.53125 22.484375 10.953125 
Q 26.375 6.390625 33.015625 6.390625 
Q 39.65625 6.390625 43.53125 10.953125 
Q 47.40625 15.53125 47.40625 23.390625 
Q 47.40625 31.296875 43.53125 35.828125 
Q 39.65625 40.375 33.015625 40.375 
z
M 52.59375 71.296875 
L 52.59375 62.3125 
Q 48.875 64.0625 45.09375 64.984375 
Q 41.3125 65.921875 37.59375 65.921875 
Q 27.828125 65.921875 22.671875 59.328125 
Q 17.53125 52.734375 16.796875 39.40625 
Q 19.671875 43.65625 24.015625 45.921875 
Q 28.375 48.1875 33.59375 48.1875 
Q 44.578125 48.1875 50.953125 41.515625 
Q 57.328125 34.859375 57.328125 23.390625 
Q 57.328125 12.15625 50.6875 5.359375 
Q 44.046875 -1.421875 33.015625 -1.421875 
Q 20.359375 -1.421875 13.671875 8.265625 
Q 6.984375 17.96875 6.984375 36.375 
Q 6.984375 53.65625 15.1875 63.9375 
Q 23.390625 74.21875 37.203125 74.21875 
Q 40.921875 74.21875 44.703125 73.484375 
Q 48.484375 72.75 52.59375 71.296875 
z
" id="DejaVuSans-54"/>
       </defs>
       <use xlink:href="#DejaVuSans-54"/>
      </g>
     </g>
    </g>
    <g id="ytick_5">
     <g id="line2d_8">
      <g>
       <use style="stroke:#000000;stroke-width:0.8;" x="79.711875" xlink:href="#mc14c5e11f6" y="56.09079"/>
      </g>
     </g>
     <g id="text_9">
      <!-- 7 -->
      <g transform="translate(66.349375 59.890009)scale(0.1 -0.1)">
       <defs>
        <path d="M 8.203125 72.90625 
L 55.078125 72.90625 
L 55.078125 68.703125 
L 28.609375 0 
L 18.3125 0 
L 43.21875 64.59375 
L 8.203125 64.59375 
z
" id="DejaVuSans-55"/>
       </defs>
       <use xlink:href="#DejaVuSans-55"/>
      </g>
     </g>
    </g>
    <g id="text_10">
     <!-- Offering1 -->
     <g transform="translate(60.269687 161.719687)rotate(-90)scale(0.1 -0.1)">
      <defs>
       <path d="M 39.40625 66.21875 
Q 28.65625 66.21875 22.328125 58.203125 
Q 16.015625 50.203125 16.015625 36.375 
Q 16.015625 22.609375 22.328125 14.59375 
Q 28.65625 6.59375 39.40625 6.59375 
Q 50.140625 6.59375 56.421875 14.59375 
Q 62.703125 22.609375 62.703125 36.375 
Q 62.703125 50.203125 56.421875 58.203125 
Q 50.140625 66.21875 39.40625 66.21875 
z
M 39.40625 74.21875 
Q 54.734375 74.21875 63.90625 63.9375 
Q 73.09375 53.65625 73.09375 36.375 
Q 73.09375 19.140625 63.90625 8.859375 
Q 54.734375 -1.421875 39.40625 -1.421875 
Q 24.03125 -1.421875 14.8125 8.828125 
Q 5.609375 19.09375 5.609375 36.375 
Q 5.609375 53.65625 14.8125 63.9375 
Q 24.03125 74.21875 39.40625 74.21875 
z
" id="DejaVuSans-79"/>
       <path d="M 37.109375 75.984375 
L 37.109375 68.5 
L 28.515625 68.5 
Q 23.6875 68.5 21.796875 66.546875 
Q 19.921875 64.59375 19.921875 59.515625 
L 19.921875 54.6875 
L 34.71875 54.6875 
L 34.71875 47.703125 
L 19.921875 47.703125 
L 19.921875 0 
L 10.890625 0 
L 10.890625 47.703125 
L 2.296875 47.703125 
L 2.296875 54.6875 
L 10.890625 54.6875 
L 10.890625 58.5 
Q 10.890625 67.625 15.140625 71.796875 
Q 19.390625 75.984375 28.609375 75.984375 
z
" id="DejaVuSans-102"/>
       <path d="M 56.203125 29.59375 
L 56.203125 25.203125 
L 14.890625 25.203125 
Q 15.484375 15.921875 20.484375 11.0625 
Q 25.484375 6.203125 34.421875 6.203125 
Q 39.59375 6.203125 44.453125 7.46875 
Q 49.3125 8.734375 54.109375 11.28125 
L 54.109375 2.78125 
Q 49.265625 0.734375 44.1875 -0.34375 
Q 39.109375 -1.421875 33.890625 -1.421875 
Q 20.796875 -1.421875 13.15625 6.1875 
Q 5.515625 13.8125 5.515625 26.8125 
Q 5.515625 40.234375 12.765625 48.109375 
Q 20.015625 56 32.328125 56 
Q 43.359375 56 49.78125 48.890625 
Q 56.203125 41.796875 56.203125 29.59375 
z
M 47.21875 32.234375 
Q 47.125 39.59375 43.09375 43.984375 
Q 39.0625 48.390625 32.421875 48.390625 
Q 24.90625 48.390625 20.390625 44.140625 
Q 15.875 39.890625 15.1875 32.171875 
z
" id="DejaVuSans-101"/>
       <path d="M 41.109375 46.296875 
Q 39.59375 47.171875 37.8125 47.578125 
Q 36.03125 48 33.890625 48 
Q 26.265625 48 22.1875 43.046875 
Q 18.109375 38.09375 18.109375 28.8125 
L 18.109375 0 
L 9.078125 0 
L 9.078125 54.6875 
L 18.109375 54.6875 
L 18.109375 46.1875 
Q 20.953125 51.171875 25.484375 53.578125 
Q 30.03125 56 36.53125 56 
Q 37.453125 56 38.578125 55.875 
Q 39.703125 55.765625 41.0625 55.515625 
z
" id="DejaVuSans-114"/>
       <path d="M 9.421875 54.6875 
L 18.40625 54.6875 
L 18.40625 0 
L 9.421875 0 
z
M 9.421875 75.984375 
L 18.40625 75.984375 
L 18.40625 64.59375 
L 9.421875 64.59375 
z
" id="DejaVuSans-105"/>
       <path d="M 54.890625 33.015625 
L 54.890625 0 
L 45.90625 0 
L 45.90625 32.71875 
Q 45.90625 40.484375 42.875 44.328125 
Q 39.84375 48.1875 33.796875 48.1875 
Q 26.515625 48.1875 22.3125 43.546875 
Q 18.109375 38.921875 18.109375 30.90625 
L 18.109375 0 
L 9.078125 0 
L 9.078125 54.6875 
L 18.109375 54.6875 
L 18.109375 46.1875 
Q 21.34375 51.125 25.703125 53.5625 
Q 30.078125 56 35.796875 56 
Q 45.21875 56 50.046875 50.171875 
Q 54.890625 44.34375 54.890625 33.015625 
z
" id="DejaVuSans-110"/>
       <path d="M 45.40625 27.984375 
Q 45.40625 37.75 41.375 43.109375 
Q 37.359375 48.484375 30.078125 48.484375 
Q 22.859375 48.484375 18.828125 43.109375 
Q 14.796875 37.75 14.796875 27.984375 
Q 14.796875 18.265625 18.828125 12.890625 
Q 22.859375 7.515625 30.078125 7.515625 
Q 37.359375 7.515625 41.375 12.890625 
Q 45.40625 18.265625 45.40625 27.984375 
z
M 54.390625 6.78125 
Q 54.390625 -7.171875 48.1875 -13.984375 
Q 42 -20.796875 29.203125 -20.796875 
Q 24.46875 -20.796875 20.265625 -20.09375 
Q 16.0625 -19.390625 12.109375 -17.921875 
L 12.109375 -9.1875 
Q 16.0625 -11.328125 19.921875 -12.34375 
Q 23.78125 -13.375 27.78125 -13.375 
Q 36.625 -13.375 41.015625 -8.765625 
Q 45.40625 -4.15625 45.40625 5.171875 
L 45.40625 9.625 
Q 42.625 4.78125 38.28125 2.390625 
Q 33.9375 0 27.875 0 
Q 17.828125 0 11.671875 7.65625 
Q 5.515625 15.328125 5.515625 27.984375 
Q 5.515625 40.671875 11.671875 48.328125 
Q 17.828125 56 27.875 56 
Q 33.9375 56 38.28125 53.609375 
Q 42.625 51.21875 45.40625 46.390625 
L 45.40625 54.6875 
L 54.390625 54.6875 
z
" id="DejaVuSans-103"/>
       <path d="M 12.40625 8.296875 
L 28.515625 8.296875 
L 28.515625 63.921875 
L 10.984375 60.40625 
L 10.984375 69.390625 
L 28.421875 72.90625 
L 38.28125 72.90625 
L 38.28125 8.296875 
L 54.390625 8.296875 
L 54.390625 0 
L 12.40625 0 
z
" id="DejaVuSans-49"/>
      </defs>
      <use xlink:href="#DejaVuSans-79"/>
      <use x="78.710938" xlink:href="#DejaVuSans-102"/>
      <use x="113.916016" xlink:href="#DejaVuSans-102"/>
      <use x="149.121094" xlink:href="#DejaVuSans-101"/>
      <use x="210.644531" xlink:href="#DejaVuSans-114"/>
      <use x="251.757812" xlink:href="#DejaVuSans-105"/>
      <use x="279.541016" xlink:href="#DejaVuSans-110"/>
      <use x="342.919922" xlink:href="#DejaVuSans-103"/>
      <use x="406.396484" xlink:href="#DejaVuSans-49"/>
     </g>
    </g>
   </g>
   <g id="line2d_9">
    <path clip-path="url(#pdced99b97e)" d="M 79.711875 158.041399 
L 81.453542 157.12506 
L 83.195208 156.208722 
L 84.936875 155.292383 
L 86.678542 154.376045 
L 88.420208 153.459706 
L 90.161875 152.543368 
L 91.903542 151.627029 
L 93.645208 150.710691 
L 95.386875 149.794352 
L 97.128542 148.878014 
L 98.870208 147.961675 
L 100.611875 147.045337 
L 102.353542 146.128999 
L 104.095208 145.21266 
L 105.836875 144.296322 
L 107.578542 143.379983 
L 109.320208 142.463645 
L 111.061875 141.547306 
L 112.803542 140.630968 
L 114.545208 139.714629 
L 116.286875 138.798291 
L 118.028542 137.881952 
L 119.770208 136.965614 
L 121.511875 136.049275 
L 123.253542 135.132937 
L 124.995208 134.216599 
L 126.736875 133.30026 
L 128.478542 132.383922 
L 130.220208 131.467583 
L 131.961875 130.551245 
L 133.703542 129.634906 
L 135.445208 128.718568 
L 137.186875 127.802229 
L 138.928542 126.885891 
L 140.670208 125.969552 
L 142.411875 125.053214 
L 144.153542 124.136875 
L 145.895208 123.220537 
L 147.636875 122.304198 
L 149.378542 121.38786 
L 151.120208 120.471522 
L 152.861875 119.555183 
L 154.603542 118.638845 
L 156.345208 117.722506 
L 158.086875 116.806168 
L 159.828542 115.889829 
L 161.570208 114.973491 
L 163.311875 114.057152 
L 165.053542 113.140814 
L 166.795208 112.224475 
L 168.536875 111.308137 
L 170.278542 110.391798 
L 172.020208 109.47546 
L 173.761875 108.559121 
L 175.503542 107.642783 
L 177.245208 106.726445 
L 178.986875 105.810106 
L 180.728542 104.893768 
L 182.470208 103.977429 
L 184.211875 103.061091 
L 185.953542 102.144752 
L 187.695208 101.228414 
L 189.436875 100.312075 
L 191.178542 99.395737 
L 192.920208 98.479398 
L 194.661875 97.56306 
L 196.403542 96.646721 
L 198.145208 95.730383 
L 199.886875 94.814044 
L 201.628542 93.897706 
L 203.370208 92.981368 
L 205.111875 92.065029 
L 206.853542 91.148691 
L 208.595208 90.232352 
L 210.336875 89.316014 
L 212.078542 88.399675 
L 213.820208 87.483337 
L 215.561875 86.566998 
L 217.303542 85.65066 
L 219.045208 84.734321 
L 220.786875 83.817983 
L 222.528542 82.901644 
L 224.270208 81.985306 
L 226.011875 81.068968 
L 227.753542 80.152629 
L 229.495208 79.236291 
L 231.236875 78.319952 
L 232.978542 77.403614 
L 234.720208 76.487275 
L 236.461875 75.570937 
L 238.203542 74.654598 
L 239.945208 73.73826 
L 241.686875 72.821921 
L 243.428542 71.905583 
L 245.170208 70.989244 
L 246.911875 70.072906 
L 248.653542 69.156567 
L 250.395208 68.240229 
L 252.136875 67.323891 
" style="fill:none;stroke:#1f77b4;stroke-linecap:square;stroke-width:2.25;"/>
   </g>
   <g id="patch_3">
    <path d="M 79.711875 254.118125 
L 79.711875 22.318125 
" style="fill:none;stroke:#000000;stroke-linecap:square;stroke-linejoin:miter;stroke-width:0.8;"/>
   </g>
   <g id="patch_4">
    <path d="M 252.136875 254.118125 
L 252.136875 22.318125 
" style="fill:none;stroke:#000000;stroke-linecap:square;stroke-linejoin:miter;stroke-width:0.8;"/>
   </g>
   <g id="patch_5">
    <path d="M 79.711875 254.118125 
L 252.136875 254.118125 
" style="fill:none;stroke:#000000;stroke-linecap:square;stroke-linejoin:miter;stroke-width:0.8;"/>
   </g>
   <g id="patch_6">
    <path d="M 79.711875 22.318125 
L 252.136875 22.318125 
" style="fill:none;stroke:#000000;stroke-linecap:square;stroke-linejoin:miter;stroke-width:0.8;"/>
   </g>
   <g id="text_11">
    <!-- Group A -->
    <g transform="translate(79.711875 16.318125)scale(0.12 -0.12)">
     <defs>
      <path d="M 59.515625 10.40625 
L 59.515625 29.984375 
L 43.40625 29.984375 
L 43.40625 38.09375 
L 69.28125 38.09375 
L 69.28125 6.78125 
Q 63.578125 2.734375 56.6875 0.65625 
Q 49.8125 -1.421875 42 -1.421875 
Q 24.90625 -1.421875 15.25 8.5625 
Q 5.609375 18.5625 5.609375 36.375 
Q 5.609375 54.25 15.25 64.234375 
Q 24.90625 74.21875 42 74.21875 
Q 49.125 74.21875 55.546875 72.453125 
Q 61.96875 70.703125 67.390625 67.28125 
L 67.390625 56.78125 
Q 61.921875 61.421875 55.765625 63.765625 
Q 49.609375 66.109375 42.828125 66.109375 
Q 29.4375 66.109375 22.71875 58.640625 
Q 16.015625 51.171875 16.015625 36.375 
Q 16.015625 21.625 22.71875 14.15625 
Q 29.4375 6.6875 42.828125 6.6875 
Q 48.046875 6.6875 52.140625 7.59375 
Q 56.25 8.5 59.515625 10.40625 
z
" id="DejaVuSans-71"/>
      <path d="M 30.609375 48.390625 
Q 23.390625 48.390625 19.1875 42.75 
Q 14.984375 37.109375 14.984375 27.296875 
Q 14.984375 17.484375 19.15625 11.84375 
Q 23.34375 6.203125 30.609375 6.203125 
Q 37.796875 6.203125 41.984375 11.859375 
Q 46.1875 17.53125 46.1875 27.296875 
Q 46.1875 37.015625 41.984375 42.703125 
Q 37.796875 48.390625 30.609375 48.390625 
z
M 30.609375 56 
Q 42.328125 56 49.015625 48.375 
Q 55.71875 40.765625 55.71875 27.296875 
Q 55.71875 13.875 49.015625 6.21875 
Q 42.328125 -1.421875 30.609375 -1.421875 
Q 18.84375 -1.421875 12.171875 6.21875 
Q 5.515625 13.875 5.515625 27.296875 
Q 5.515625 40.765625 12.171875 48.375 
Q 18.84375 56 30.609375 56 
z
" id="DejaVuSans-111"/>
      <path d="M 8.5 21.578125 
L 8.5 54.6875 
L 17.484375 54.6875 
L 17.484375 21.921875 
Q 17.484375 14.15625 20.5 10.265625 
Q 23.53125 6.390625 29.59375 6.390625 
Q 36.859375 6.390625 41.078125 11.03125 
Q 45.3125 15.671875 45.3125 23.6875 
L 45.3125 54.6875 
L 54.296875 54.6875 
L 54.296875 0 
L 45.3125 0 
L 45.3125 8.40625 
Q 42.046875 3.421875 37.71875 1 
Q 33.40625 -1.421875 27.6875 -1.421875 
Q 18.265625 -1.421875 13.375 4.4375 
Q 8.5 10.296875 8.5 21.578125 
z
M 31.109375 56 
z
" id="DejaVuSans-117"/>
      <path d="M 18.109375 8.203125 
L 18.109375 -20.796875 
L 9.078125 -20.796875 
L 9.078125 54.6875 
L 18.109375 54.6875 
L 18.109375 46.390625 
Q 20.953125 51.265625 25.265625 53.625 
Q 29.59375 56 35.59375 56 
Q 45.5625 56 51.78125 48.09375 
Q 58.015625 40.1875 58.015625 27.296875 
Q 58.015625 14.40625 51.78125 6.484375 
Q 45.5625 -1.421875 35.59375 -1.421875 
Q 29.59375 -1.421875 25.265625 0.953125 
Q 20.953125 3.328125 18.109375 8.203125 
z
M 48.6875 27.296875 
Q 48.6875 37.203125 44.609375 42.84375 
Q 40.53125 48.484375 33.40625 48.484375 
Q 26.265625 48.484375 22.1875 42.84375 
Q 18.109375 37.203125 18.109375 27.296875 
Q 18.109375 17.390625 22.1875 11.75 
Q 26.265625 6.109375 33.40625 6.109375 
Q 40.53125 6.109375 44.609375 11.75 
Q 48.6875 17.390625 48.6875 27.296875 
z
" id="DejaVuSans-112"/>
      <path id="DejaVuSans-32"/>
      <path d="M 34.1875 63.1875 
L 20.796875 26.90625 
L 47.609375 26.90625 
z
M 28.609375 72.90625 
L 39.796875 72.90625 
L 67.578125 0 
L 57.328125 0 
L 50.6875 18.703125 
L 17.828125 18.703125 
L 11.1875 0 
L 0.78125 0 
z
" id="DejaVuSans-65"/>
     </defs>
     <use xlink:href="#DejaVuSans-71"/>
     <use x="77.490234" xlink:href="#DejaVuSans-114"/>
     <use x="116.353516" xlink:href="#DejaVuSans-111"/>
     <use x="177.535156" xlink:href="#DejaVuSans-117"/>
     <use x="240.914062" xlink:href="#DejaVuSans-112"/>
     <use x="304.390625" xlink:href="#DejaVuSans-32"/>
     <use x="336.177734" xlink:href="#DejaVuSans-65"/>
    </g>
   </g>
  </g>
  <g id="axes_2">
   <g id="patch_7">
    <path d="M 290.311875 254.118125 
L 462.736875 254.118125 
L 462.736875 22.318125 
L 290.311875 22.318125 
z
" style="fill:#ffffff;"/>
   </g>
   <g id="PathCollection_2">
    <g clip-path="url(#pecb73b9a1c)">
     <use style="fill:#1f77b4;fill-opacity:0.8;stroke:#1f77b4;stroke-opacity:0.8;" x="290.311875" xlink:href="#m6a5050c59a" y="176.939431"/>
     <use style="fill:#1f77b4;fill-opacity:0.8;stroke:#1f77b4;stroke-opacity:0.8;" x="303.575337" xlink:href="#m6a5050c59a" y="110.297102"/>
     <use style="fill:#1f77b4;fill-opacity:0.8;stroke:#1f77b4;stroke-opacity:0.8;" x="422.94649" xlink:href="#m6a5050c59a" y="43.654772"/>
     <use style="fill:#1f77b4;fill-opacity:0.8;stroke:#1f77b4;stroke-opacity:0.8;" x="383.156106" xlink:href="#m6a5050c59a" y="143.618267"/>
     <use style="fill:#1f77b4;fill-opacity:0.8;stroke:#1f77b4;stroke-opacity:0.8;" x="356.629183" xlink:href="#m6a5050c59a" y="43.654772"/>
     <use style="fill:#1f77b4;fill-opacity:0.8;stroke:#1f77b4;stroke-opacity:0.8;" x="422.94649" xlink:href="#m6a5050c59a" y="43.654772"/>
     <use style="fill:#1f77b4;fill-opacity:0.8;stroke:#1f77b4;stroke-opacity:0.8;" x="356.629183" xlink:href="#m6a5050c59a" y="76.975937"/>
     <use style="fill:#1f77b4;fill-opacity:0.8;stroke:#1f77b4;stroke-opacity:0.8;" x="383.156106" xlink:href="#m6a5050c59a" y="210.260596"/>
     <use style="fill:#1f77b4;fill-opacity:0.8;stroke:#1f77b4;stroke-opacity:0.8;" x="383.156106" xlink:href="#m6a5050c59a" y="43.654772"/>
     <use style="fill:#1f77b4;fill-opacity:0.8;stroke:#1f77b4;stroke-opacity:0.8;" x="409.683029" xlink:href="#m6a5050c59a" y="43.654772"/>
     <use style="fill:#1f77b4;fill-opacity:0.8;stroke:#1f77b4;stroke-opacity:0.8;" x="383.156106" xlink:href="#m6a5050c59a" y="110.297102"/>
     <use style="fill:#1f77b4;fill-opacity:0.8;stroke:#1f77b4;stroke-opacity:0.8;" x="422.94649" xlink:href="#m6a5050c59a" y="76.975937"/>
     <use style="fill:#1f77b4;fill-opacity:0.8;stroke:#1f77b4;stroke-opacity:0.8;" x="383.156106" xlink:href="#m6a5050c59a" y="76.975937"/>
     <use style="fill:#1f77b4;fill-opacity:0.8;stroke:#1f77b4;stroke-opacity:0.8;" x="436.209952" xlink:href="#m6a5050c59a" y="43.654772"/>
     <use style="fill:#1f77b4;fill-opacity:0.8;stroke:#1f77b4;stroke-opacity:0.8;" x="396.419567" xlink:href="#m6a5050c59a" y="43.654772"/>
     <use style="fill:#1f77b4;fill-opacity:0.8;stroke:#1f77b4;stroke-opacity:0.8;" x="436.209952" xlink:href="#m6a5050c59a" y="76.975937"/>
     <use style="fill:#1f77b4;fill-opacity:0.8;stroke:#1f77b4;stroke-opacity:0.8;" x="396.419567" xlink:href="#m6a5050c59a" y="110.297102"/>
     <use style="fill:#1f77b4;fill-opacity:0.8;stroke:#1f77b4;stroke-opacity:0.8;" x="356.629183" xlink:href="#m6a5050c59a" y="76.975937"/>
     <use style="fill:#1f77b4;fill-opacity:0.8;stroke:#1f77b4;stroke-opacity:0.8;" x="409.683029" xlink:href="#m6a5050c59a" y="76.975937"/>
     <use style="fill:#1f77b4;fill-opacity:0.8;stroke:#1f77b4;stroke-opacity:0.8;" x="316.838798" xlink:href="#m6a5050c59a" y="243.581761"/>
     <use style="fill:#1f77b4;fill-opacity:0.8;stroke:#1f77b4;stroke-opacity:0.8;" x="462.736875" xlink:href="#m6a5050c59a" y="110.297102"/>
     <use style="fill:#1f77b4;fill-opacity:0.8;stroke:#1f77b4;stroke-opacity:0.8;" x="356.629183" xlink:href="#m6a5050c59a" y="110.297102"/>
     <use style="fill:#1f77b4;fill-opacity:0.8;stroke:#1f77b4;stroke-opacity:0.8;" x="409.683029" xlink:href="#m6a5050c59a" y="76.975937"/>
     <use style="fill:#1f77b4;fill-opacity:0.8;stroke:#1f77b4;stroke-opacity:0.8;" x="422.94649" xlink:href="#m6a5050c59a" y="76.975937"/>
     <use style="fill:#1f77b4;fill-opacity:0.8;stroke:#1f77b4;stroke-opacity:0.8;" x="422.94649" xlink:href="#m6a5050c59a" y="76.975937"/>
     <use style="fill:#1f77b4;fill-opacity:0.8;stroke:#1f77b4;stroke-opacity:0.8;" x="356.629183" xlink:href="#m6a5050c59a" y="76.975937"/>
     <use style="fill:#1f77b4;fill-opacity:0.8;stroke:#1f77b4;stroke-opacity:0.8;" x="356.629183" xlink:href="#m6a5050c59a" y="110.297102"/>
     <use style="fill:#1f77b4;fill-opacity:0.8;stroke:#1f77b4;stroke-opacity:0.8;" x="356.629183" xlink:href="#m6a5050c59a" y="76.975937"/>
     <use style="fill:#1f77b4;fill-opacity:0.8;stroke:#1f77b4;stroke-opacity:0.8;" x="422.94649" xlink:href="#m6a5050c59a" y="110.297102"/>
     <use style="fill:#1f77b4;fill-opacity:0.8;stroke:#1f77b4;stroke-opacity:0.8;" x="422.94649" xlink:href="#m6a5050c59a" y="76.975937"/>
     <use style="fill:#1f77b4;fill-opacity:0.8;stroke:#1f77b4;stroke-opacity:0.8;" x="290.311875" xlink:href="#m6a5050c59a" y="110.297102"/>
     <use style="fill:#1f77b4;fill-opacity:0.8;stroke:#1f77b4;stroke-opacity:0.8;" x="369.892644" xlink:href="#m6a5050c59a" y="110.297102"/>
     <use style="fill:#1f77b4;fill-opacity:0.8;stroke:#1f77b4;stroke-opacity:0.8;" x="396.419567" xlink:href="#m6a5050c59a" y="76.975937"/>
     <use style="fill:#1f77b4;fill-opacity:0.8;stroke:#1f77b4;stroke-opacity:0.8;" x="356.629183" xlink:href="#m6a5050c59a" y="143.618267"/>
     <use style="fill:#1f77b4;fill-opacity:0.8;stroke:#1f77b4;stroke-opacity:0.8;" x="383.156106" xlink:href="#m6a5050c59a" y="43.654772"/>
     <use style="fill:#1f77b4;fill-opacity:0.8;stroke:#1f77b4;stroke-opacity:0.8;" x="369.892644" xlink:href="#m6a5050c59a" y="110.297102"/>
     <use style="fill:#1f77b4;fill-opacity:0.8;stroke:#1f77b4;stroke-opacity:0.8;" x="356.629183" xlink:href="#m6a5050c59a" y="110.297102"/>
     <use style="fill:#1f77b4;fill-opacity:0.8;stroke:#1f77b4;stroke-opacity:0.8;" x="409.683029" xlink:href="#m6a5050c59a" y="110.297102"/>
     <use style="fill:#1f77b4;fill-opacity:0.8;stroke:#1f77b4;stroke-opacity:0.8;" x="356.629183" xlink:href="#m6a5050c59a" y="110.297102"/>
     <use style="fill:#1f77b4;fill-opacity:0.8;stroke:#1f77b4;stroke-opacity:0.8;" x="356.629183" xlink:href="#m6a5050c59a" y="76.975937"/>
     <use style="fill:#1f77b4;fill-opacity:0.8;stroke:#1f77b4;stroke-opacity:0.8;" x="356.629183" xlink:href="#m6a5050c59a" y="43.654772"/>
     <use style="fill:#1f77b4;fill-opacity:0.8;stroke:#1f77b4;stroke-opacity:0.8;" x="422.94649" xlink:href="#m6a5050c59a" y="110.297102"/>
    </g>
   </g>
   <g id="PolyCollection_2">
    <path clip-path="url(#pecb73b9a1c)" d="M 290.311875 97.672447 
L 290.311875 171.300095 
L 292.053542 169.857308 
L 293.795208 168.447614 
L 295.536875 167.162531 
L 297.278542 165.877448 
L 299.020208 164.592366 
L 300.761875 163.307283 
L 302.503542 162.022201 
L 304.245208 160.718215 
L 305.986875 159.456474 
L 307.728542 158.172346 
L 309.470208 156.793726 
L 311.211875 155.425814 
L 312.953542 154.226543 
L 314.695208 153.027271 
L 316.436875 151.75611 
L 318.178542 150.470708 
L 319.920208 149.135966 
L 321.661875 147.801223 
L 323.403542 146.522541 
L 325.145208 145.257914 
L 326.886875 143.85763 
L 328.628542 142.77397 
L 330.370208 141.492214 
L 332.111875 140.207465 
L 333.853542 138.812486 
L 335.595208 137.640387 
L 337.336875 136.361057 
L 339.078542 135.105212 
L 340.820208 133.793148 
L 342.561875 132.508868 
L 344.303542 131.227024 
L 346.045208 129.981089 
L 347.786875 128.822078 
L 349.528542 127.671504 
L 351.270208 126.517225 
L 353.011875 125.362947 
L 354.753542 124.208668 
L 356.495208 122.836185 
L 358.236875 121.458326 
L 359.978542 120.028882 
L 361.720208 118.905188 
L 363.461875 117.780106 
L 365.203542 116.827135 
L 366.945208 115.868598 
L 368.686875 114.712616 
L 370.428542 113.545659 
L 372.170208 112.375463 
L 373.911875 111.247274 
L 375.653542 109.95825 
L 377.395208 109.201089 
L 379.136875 108.048765 
L 380.878542 107.011968 
L 382.620208 106.064089 
L 384.361875 105.14306 
L 386.103542 104.18774 
L 387.845208 103.167041 
L 389.586875 102.056276 
L 391.328542 101.216126 
L 393.070208 100.152008 
L 394.811875 99.322475 
L 396.553542 98.695354 
L 398.295208 98.112451 
L 400.036875 97.571783 
L 401.778542 96.689993 
L 403.520208 95.789903 
L 405.261875 94.984052 
L 407.003542 94.340936 
L 408.745208 93.463854 
L 410.486875 92.696875 
L 412.228542 92.091079 
L 413.970208 91.730181 
L 415.711875 91.423813 
L 417.453542 91.041472 
L 419.195208 90.642611 
L 420.936875 90.299769 
L 422.678542 89.842762 
L 424.420208 89.462689 
L 426.161875 89.18589 
L 427.903542 88.878445 
L 429.645208 88.584916 
L 431.386875 88.47543 
L 433.128542 88.168588 
L 434.870208 87.861747 
L 436.611875 87.601746 
L 438.353542 87.375074 
L 440.095208 87.023911 
L 441.836875 86.747515 
L 443.578542 86.337383 
L 445.320208 86.110317 
L 447.061875 85.87829 
L 448.803542 85.646262 
L 450.545208 85.413562 
L 452.286875 85.180622 
L 454.028542 85.022544 
L 455.770208 84.976125 
L 457.511875 84.874135 
L 459.253542 84.632882 
L 460.995208 84.350893 
L 462.736875 84.055417 
L 462.736875 32.854489 
L 462.736875 32.854489 
L 460.995208 34.139797 
L 459.253542 35.481557 
L 457.511875 36.823318 
L 455.770208 38.169338 
L 454.028542 39.621347 
L 452.286875 41.103686 
L 450.545208 42.27591 
L 448.803542 43.540024 
L 447.061875 44.810343 
L 445.320208 46.180132 
L 443.578542 47.56872 
L 441.836875 48.860732 
L 440.095208 50.134127 
L 438.353542 51.503716 
L 436.611875 52.620448 
L 434.870208 53.878774 
L 433.128542 55.018696 
L 431.386875 56.14755 
L 429.645208 57.483533 
L 427.903542 58.563096 
L 426.161875 59.692939 
L 424.420208 60.967053 
L 422.678542 62.134994 
L 420.936875 63.147456 
L 419.195208 64.362275 
L 417.453542 65.435943 
L 415.711875 66.534372 
L 413.970208 67.556019 
L 412.228542 68.363324 
L 410.486875 69.397163 
L 408.745208 70.438951 
L 407.003542 71.299282 
L 405.261875 72.080019 
L 403.520208 72.580105 
L 401.778542 73.612625 
L 400.036875 74.425962 
L 398.295208 75.204849 
L 396.553542 75.983705 
L 394.811875 76.808127 
L 393.070208 77.65691 
L 391.328542 78.42956 
L 389.586875 79.14564 
L 387.845208 79.833041 
L 386.103542 80.471871 
L 384.361875 81.062991 
L 382.620208 81.738376 
L 380.878542 82.245348 
L 379.136875 82.780068 
L 377.395208 83.189968 
L 375.653542 83.700873 
L 373.911875 84.255567 
L 372.170208 84.656289 
L 370.428542 85.069082 
L 368.686875 85.456433 
L 366.945208 85.842988 
L 365.203542 86.492846 
L 363.461875 87.035957 
L 361.720208 87.653168 
L 359.978542 88.103253 
L 358.236875 88.372478 
L 356.495208 88.641703 
L 354.753542 88.672456 
L 353.011875 89.137048 
L 351.270208 89.419733 
L 349.528542 89.731888 
L 347.786875 90.056927 
L 346.045208 90.221471 
L 344.303542 90.368586 
L 342.561875 90.522527 
L 340.820208 90.740765 
L 339.078542 90.961749 
L 337.336875 91.303804 
L 335.595208 91.667567 
L 333.853542 91.898161 
L 332.111875 92.130218 
L 330.370208 92.363928 
L 328.628542 92.597638 
L 326.886875 92.827133 
L 325.145208 93.1704 
L 323.403542 93.572017 
L 321.661875 93.903981 
L 319.920208 93.959359 
L 318.178542 93.996338 
L 316.436875 94.120043 
L 314.695208 94.242947 
L 312.953542 94.61117 
L 311.211875 94.787482 
L 309.470208 94.853041 
L 307.728542 94.949481 
L 305.986875 95.386999 
L 304.245208 95.748533 
L 302.503542 95.934749 
L 300.761875 96.279362 
L 299.020208 96.516948 
L 297.278542 96.823503 
L 295.536875 97.148564 
L 293.795208 97.232243 
L 292.053542 97.442602 
L 290.311875 97.672447 
z
" style="fill:#1f77b4;fill-opacity:0.15;"/>
   </g>
   <g id="matplotlib.axis_3">
    <g id="xtick_4">
     <g id="line2d_10">
      <g>
       <use style="stroke:#000000;stroke-width:0.8;" x="330.10226" xlink:href="#m831c4ee81a" y="254.118125"/>
      </g>
     </g>
     <g id="text_12">
      <!-- 2 -->
      <g transform="translate(326.92101 268.716562)scale(0.1 -0.1)">
       <use xlink:href="#DejaVuSans-50"/>
      </g>
     </g>
    </g>
    <g id="xtick_5">
     <g id="line2d_11">
      <g>
       <use style="stroke:#000000;stroke-width:0.8;" x="383.156106" xlink:href="#m831c4ee81a" y="254.118125"/>
      </g>
     </g>
     <g id="text_13">
      <!-- 3 -->
      <g transform="translate(379.974856 268.716562)scale(0.1 -0.1)">
       <use xlink:href="#DejaVuSans-51"/>
      </g>
     </g>
    </g>
    <g id="xtick_6">
     <g id="line2d_12">
      <g>
       <use style="stroke:#000000;stroke-width:0.8;" x="436.209952" xlink:href="#m831c4ee81a" y="254.118125"/>
      </g>
     </g>
     <g id="text_14">
      <!-- 4 -->
      <g transform="translate(433.028702 268.716562)scale(0.1 -0.1)">
       <use xlink:href="#DejaVuSans-52"/>
      </g>
     </g>
    </g>
    <g id="text_15">
     <!-- E -->
     <g transform="translate(373.365 282.394687)scale(0.1 -0.1)">
      <use xlink:href="#DejaVuSans-69"/>
     </g>
    </g>
   </g>
   <g id="matplotlib.axis_4">
    <g id="ytick_6">
     <g id="line2d_13">
      <g>
       <use style="stroke:#000000;stroke-width:0.8;" x="290.311875" xlink:href="#mc14c5e11f6" y="243.581761"/>
      </g>
     </g>
     <g id="text_16">
      <!-- 1 -->
      <g transform="translate(276.949375 247.38098)scale(0.1 -0.1)">
       <use xlink:href="#DejaVuSans-49"/>
      </g>
     </g>
    </g>
    <g id="ytick_7">
     <g id="line2d_14">
      <g>
       <use style="stroke:#000000;stroke-width:0.8;" x="290.311875" xlink:href="#mc14c5e11f6" y="210.260596"/>
      </g>
     </g>
     <g id="text_17">
      <!-- 2 -->
      <g transform="translate(276.949375 214.059815)scale(0.1 -0.1)">
       <use xlink:href="#DejaVuSans-50"/>
      </g>
     </g>
    </g>
    <g id="ytick_8">
     <g id="line2d_15">
      <g>
       <use style="stroke:#000000;stroke-width:0.8;" x="290.311875" xlink:href="#mc14c5e11f6" y="176.939431"/>
      </g>
     </g>
     <g id="text_18">
      <!-- 3 -->
      <g transform="translate(276.949375 180.73865)scale(0.1 -0.1)">
       <use xlink:href="#DejaVuSans-51"/>
      </g>
     </g>
    </g>
    <g id="ytick_9">
     <g id="line2d_16">
      <g>
       <use style="stroke:#000000;stroke-width:0.8;" x="290.311875" xlink:href="#mc14c5e11f6" y="143.618267"/>
      </g>
     </g>
     <g id="text_19">
      <!-- 4 -->
      <g transform="translate(276.949375 147.417485)scale(0.1 -0.1)">
       <use xlink:href="#DejaVuSans-52"/>
      </g>
     </g>
    </g>
    <g id="ytick_10">
     <g id="line2d_17">
      <g>
       <use style="stroke:#000000;stroke-width:0.8;" x="290.311875" xlink:href="#mc14c5e11f6" y="110.297102"/>
      </g>
     </g>
     <g id="text_20">
      <!-- 5 -->
      <g transform="translate(276.949375 114.09632)scale(0.1 -0.1)">
       <use xlink:href="#DejaVuSans-53"/>
      </g>
     </g>
    </g>
    <g id="ytick_11">
     <g id="line2d_18">
      <g>
       <use style="stroke:#000000;stroke-width:0.8;" x="290.311875" xlink:href="#mc14c5e11f6" y="76.975937"/>
      </g>
     </g>
     <g id="text_21">
      <!-- 6 -->
      <g transform="translate(276.949375 80.775155)scale(0.1 -0.1)">
       <use xlink:href="#DejaVuSans-54"/>
      </g>
     </g>
    </g>
    <g id="ytick_12">
     <g id="line2d_19">
      <g>
       <use style="stroke:#000000;stroke-width:0.8;" x="290.311875" xlink:href="#mc14c5e11f6" y="43.654772"/>
      </g>
     </g>
     <g id="text_22">
      <!-- 7 -->
      <g transform="translate(276.949375 47.45399)scale(0.1 -0.1)">
       <use xlink:href="#DejaVuSans-55"/>
      </g>
     </g>
    </g>
    <g id="text_23">
     <!-- Offering1 -->
     <g transform="translate(270.869687 161.719687)rotate(-90)scale(0.1 -0.1)">
      <use xlink:href="#DejaVuSans-79"/>
      <use x="78.710938" xlink:href="#DejaVuSans-102"/>
      <use x="113.916016" xlink:href="#DejaVuSans-102"/>
      <use x="149.121094" xlink:href="#DejaVuSans-101"/>
      <use x="210.644531" xlink:href="#DejaVuSans-114"/>
      <use x="251.757812" xlink:href="#DejaVuSans-105"/>
      <use x="279.541016" xlink:href="#DejaVuSans-110"/>
      <use x="342.919922" xlink:href="#DejaVuSans-103"/>
      <use x="406.396484" xlink:href="#DejaVuSans-49"/>
     </g>
    </g>
   </g>
   <g id="line2d_20">
    <path clip-path="url(#pecb73b9a1c)" d="M 290.311875 135.195249 
L 292.053542 134.410308 
L 293.795208 133.625367 
L 295.536875 132.840427 
L 297.278542 132.055486 
L 299.020208 131.270545 
L 300.761875 130.485604 
L 302.503542 129.700664 
L 304.245208 128.915723 
L 305.986875 128.130782 
L 307.728542 127.345842 
L 309.470208 126.560901 
L 311.211875 125.77596 
L 312.953542 124.991019 
L 314.695208 124.206079 
L 316.436875 123.421138 
L 318.178542 122.636197 
L 319.920208 121.851257 
L 321.661875 121.066316 
L 323.403542 120.281375 
L 325.145208 119.496434 
L 326.886875 118.711494 
L 328.628542 117.926553 
L 330.370208 117.141612 
L 332.111875 116.356671 
L 333.853542 115.571731 
L 335.595208 114.78679 
L 337.336875 114.001849 
L 339.078542 113.216909 
L 340.820208 112.431968 
L 342.561875 111.647027 
L 344.303542 110.862086 
L 346.045208 110.077146 
L 347.786875 109.292205 
L 349.528542 108.507264 
L 351.270208 107.722324 
L 353.011875 106.937383 
L 354.753542 106.152442 
L 356.495208 105.367501 
L 358.236875 104.582561 
L 359.978542 103.79762 
L 361.720208 103.012679 
L 363.461875 102.227738 
L 365.203542 101.442798 
L 366.945208 100.657857 
L 368.686875 99.872916 
L 370.428542 99.087976 
L 372.170208 98.303035 
L 373.911875 97.518094 
L 375.653542 96.733153 
L 377.395208 95.948213 
L 379.136875 95.163272 
L 380.878542 94.378331 
L 382.620208 93.593391 
L 384.361875 92.80845 
L 386.103542 92.023509 
L 387.845208 91.238568 
L 389.586875 90.453628 
L 391.328542 89.668687 
L 393.070208 88.883746 
L 394.811875 88.098805 
L 396.553542 87.313865 
L 398.295208 86.528924 
L 400.036875 85.743983 
L 401.778542 84.959043 
L 403.520208 84.174102 
L 405.261875 83.389161 
L 407.003542 82.60422 
L 408.745208 81.81928 
L 410.486875 81.034339 
L 412.228542 80.249398 
L 413.970208 79.464458 
L 415.711875 78.679517 
L 417.453542 77.894576 
L 419.195208 77.109635 
L 420.936875 76.324695 
L 422.678542 75.539754 
L 424.420208 74.754813 
L 426.161875 73.969872 
L 427.903542 73.184932 
L 429.645208 72.399991 
L 431.386875 71.61505 
L 433.128542 70.83011 
L 434.870208 70.045169 
L 436.611875 69.260228 
L 438.353542 68.475287 
L 440.095208 67.690347 
L 441.836875 66.905406 
L 443.578542 66.120465 
L 445.320208 65.335525 
L 447.061875 64.550584 
L 448.803542 63.765643 
L 450.545208 62.980702 
L 452.286875 62.195762 
L 454.028542 61.410821 
L 455.770208 60.62588 
L 457.511875 59.840939 
L 459.253542 59.055999 
L 460.995208 58.271058 
L 462.736875 57.486117 
" style="fill:none;stroke:#1f77b4;stroke-linecap:square;stroke-width:2.25;"/>
   </g>
   <g id="patch_8">
    <path d="M 290.311875 254.118125 
L 290.311875 22.318125 
" style="fill:none;stroke:#000000;stroke-linecap:square;stroke-linejoin:miter;stroke-width:0.8;"/>
   </g>
   <g id="patch_9">
    <path d="M 462.736875 254.118125 
L 462.736875 22.318125 
" style="fill:none;stroke:#000000;stroke-linecap:square;stroke-linejoin:miter;stroke-width:0.8;"/>
   </g>
   <g id="patch_10">
    <path d="M 290.311875 254.118125 
L 462.736875 254.118125 
" style="fill:none;stroke:#000000;stroke-linecap:square;stroke-linejoin:miter;stroke-width:0.8;"/>
   </g>
   <g id="patch_11">
    <path d="M 290.311875 22.318125 
L 462.736875 22.318125 
" style="fill:none;stroke:#000000;stroke-linecap:square;stroke-linejoin:miter;stroke-width:0.8;"/>
   </g>
   <g id="text_24">
    <!-- Group B -->
    <g transform="translate(290.311875 16.318125)scale(0.12 -0.12)">
     <defs>
      <path d="M 19.671875 34.8125 
L 19.671875 8.109375 
L 35.5 8.109375 
Q 43.453125 8.109375 47.28125 11.40625 
Q 51.125 14.703125 51.125 21.484375 
Q 51.125 28.328125 47.28125 31.5625 
Q 43.453125 34.8125 35.5 34.8125 
z
M 19.671875 64.796875 
L 19.671875 42.828125 
L 34.28125 42.828125 
Q 41.5 42.828125 45.03125 45.53125 
Q 48.578125 48.25 48.578125 53.8125 
Q 48.578125 59.328125 45.03125 62.0625 
Q 41.5 64.796875 34.28125 64.796875 
z
M 9.8125 72.90625 
L 35.015625 72.90625 
Q 46.296875 72.90625 52.390625 68.21875 
Q 58.5 63.53125 58.5 54.890625 
Q 58.5 48.1875 55.375 44.234375 
Q 52.25 40.28125 46.1875 39.3125 
Q 53.46875 37.75 57.5 32.78125 
Q 61.53125 27.828125 61.53125 20.40625 
Q 61.53125 10.640625 54.890625 5.3125 
Q 48.25 0 35.984375 0 
L 9.8125 0 
z
" id="DejaVuSans-66"/>
     </defs>
     <use xlink:href="#DejaVuSans-71"/>
     <use x="77.490234" xlink:href="#DejaVuSans-114"/>
     <use x="116.353516" xlink:href="#DejaVuSans-111"/>
     <use x="177.535156" xlink:href="#DejaVuSans-117"/>
     <use x="240.914062" xlink:href="#DejaVuSans-112"/>
     <use x="304.390625" xlink:href="#DejaVuSans-32"/>
     <use x="336.177734" xlink:href="#DejaVuSans-66"/>
    </g>
   </g>
  </g>
  <g id="text_25">
   <!-- What is the likelihood that you would accept the chatbots offer to help find a bike? -->
   <g transform="translate(7.2 22.79625)scale(0.12 -0.12)">
    <defs>
     <path d="M 3.328125 72.90625 
L 13.28125 72.90625 
L 28.609375 11.28125 
L 43.890625 72.90625 
L 54.984375 72.90625 
L 70.3125 11.28125 
L 85.59375 72.90625 
L 95.609375 72.90625 
L 77.296875 0 
L 64.890625 0 
L 49.515625 63.28125 
L 33.984375 0 
L 21.578125 0 
z
" id="DejaVuSans-87"/>
     <path d="M 54.890625 33.015625 
L 54.890625 0 
L 45.90625 0 
L 45.90625 32.71875 
Q 45.90625 40.484375 42.875 44.328125 
Q 39.84375 48.1875 33.796875 48.1875 
Q 26.515625 48.1875 22.3125 43.546875 
Q 18.109375 38.921875 18.109375 30.90625 
L 18.109375 0 
L 9.078125 0 
L 9.078125 75.984375 
L 18.109375 75.984375 
L 18.109375 46.1875 
Q 21.34375 51.125 25.703125 53.5625 
Q 30.078125 56 35.796875 56 
Q 45.21875 56 50.046875 50.171875 
Q 54.890625 44.34375 54.890625 33.015625 
z
" id="DejaVuSans-104"/>
     <path d="M 34.28125 27.484375 
Q 23.390625 27.484375 19.1875 25 
Q 14.984375 22.515625 14.984375 16.5 
Q 14.984375 11.71875 18.140625 8.90625 
Q 21.296875 6.109375 26.703125 6.109375 
Q 34.1875 6.109375 38.703125 11.40625 
Q 43.21875 16.703125 43.21875 25.484375 
L 43.21875 27.484375 
z
M 52.203125 31.203125 
L 52.203125 0 
L 43.21875 0 
L 43.21875 8.296875 
Q 40.140625 3.328125 35.546875 0.953125 
Q 30.953125 -1.421875 24.3125 -1.421875 
Q 15.921875 -1.421875 10.953125 3.296875 
Q 6 8.015625 6 15.921875 
Q 6 25.140625 12.171875 29.828125 
Q 18.359375 34.515625 30.609375 34.515625 
L 43.21875 34.515625 
L 43.21875 35.40625 
Q 43.21875 41.609375 39.140625 45 
Q 35.0625 48.390625 27.6875 48.390625 
Q 23 48.390625 18.546875 47.265625 
Q 14.109375 46.140625 10.015625 43.890625 
L 10.015625 52.203125 
Q 14.9375 54.109375 19.578125 55.046875 
Q 24.21875 56 28.609375 56 
Q 40.484375 56 46.34375 49.84375 
Q 52.203125 43.703125 52.203125 31.203125 
z
" id="DejaVuSans-97"/>
     <path d="M 18.3125 70.21875 
L 18.3125 54.6875 
L 36.8125 54.6875 
L 36.8125 47.703125 
L 18.3125 47.703125 
L 18.3125 18.015625 
Q 18.3125 11.328125 20.140625 9.421875 
Q 21.96875 7.515625 27.59375 7.515625 
L 36.8125 7.515625 
L 36.8125 0 
L 27.59375 0 
Q 17.1875 0 13.234375 3.875 
Q 9.28125 7.765625 9.28125 18.015625 
L 9.28125 47.703125 
L 2.6875 47.703125 
L 2.6875 54.6875 
L 9.28125 54.6875 
L 9.28125 70.21875 
z
" id="DejaVuSans-116"/>
     <path d="M 44.28125 53.078125 
L 44.28125 44.578125 
Q 40.484375 46.53125 36.375 47.5 
Q 32.28125 48.484375 27.875 48.484375 
Q 21.1875 48.484375 17.84375 46.4375 
Q 14.5 44.390625 14.5 40.28125 
Q 14.5 37.15625 16.890625 35.375 
Q 19.28125 33.59375 26.515625 31.984375 
L 29.59375 31.296875 
Q 39.15625 29.25 43.1875 25.515625 
Q 47.21875 21.78125 47.21875 15.09375 
Q 47.21875 7.46875 41.1875 3.015625 
Q 35.15625 -1.421875 24.609375 -1.421875 
Q 20.21875 -1.421875 15.453125 -0.5625 
Q 10.6875 0.296875 5.421875 2 
L 5.421875 11.28125 
Q 10.40625 8.6875 15.234375 7.390625 
Q 20.0625 6.109375 24.8125 6.109375 
Q 31.15625 6.109375 34.5625 8.28125 
Q 37.984375 10.453125 37.984375 14.40625 
Q 37.984375 18.0625 35.515625 20.015625 
Q 33.0625 21.96875 24.703125 23.78125 
L 21.578125 24.515625 
Q 13.234375 26.265625 9.515625 29.90625 
Q 5.8125 33.546875 5.8125 39.890625 
Q 5.8125 47.609375 11.28125 51.796875 
Q 16.75 56 26.8125 56 
Q 31.78125 56 36.171875 55.265625 
Q 40.578125 54.546875 44.28125 53.078125 
z
" id="DejaVuSans-115"/>
     <path d="M 9.421875 75.984375 
L 18.40625 75.984375 
L 18.40625 0 
L 9.421875 0 
z
" id="DejaVuSans-108"/>
     <path d="M 9.078125 75.984375 
L 18.109375 75.984375 
L 18.109375 31.109375 
L 44.921875 54.6875 
L 56.390625 54.6875 
L 27.390625 29.109375 
L 57.625 0 
L 45.90625 0 
L 18.109375 26.703125 
L 18.109375 0 
L 9.078125 0 
z
" id="DejaVuSans-107"/>
     <path d="M 45.40625 46.390625 
L 45.40625 75.984375 
L 54.390625 75.984375 
L 54.390625 0 
L 45.40625 0 
L 45.40625 8.203125 
Q 42.578125 3.328125 38.25 0.953125 
Q 33.9375 -1.421875 27.875 -1.421875 
Q 17.96875 -1.421875 11.734375 6.484375 
Q 5.515625 14.40625 5.515625 27.296875 
Q 5.515625 40.1875 11.734375 48.09375 
Q 17.96875 56 27.875 56 
Q 33.9375 56 38.25 53.625 
Q 42.578125 51.265625 45.40625 46.390625 
z
M 14.796875 27.296875 
Q 14.796875 17.390625 18.875 11.75 
Q 22.953125 6.109375 30.078125 6.109375 
Q 37.203125 6.109375 41.296875 11.75 
Q 45.40625 17.390625 45.40625 27.296875 
Q 45.40625 37.203125 41.296875 42.84375 
Q 37.203125 48.484375 30.078125 48.484375 
Q 22.953125 48.484375 18.875 42.84375 
Q 14.796875 37.203125 14.796875 27.296875 
z
" id="DejaVuSans-100"/>
     <path d="M 32.171875 -5.078125 
Q 28.375 -14.84375 24.75 -17.8125 
Q 21.140625 -20.796875 15.09375 -20.796875 
L 7.90625 -20.796875 
L 7.90625 -13.28125 
L 13.1875 -13.28125 
Q 16.890625 -13.28125 18.9375 -11.515625 
Q 21 -9.765625 23.484375 -3.21875 
L 25.09375 0.875 
L 2.984375 54.6875 
L 12.5 54.6875 
L 29.59375 11.921875 
L 46.6875 54.6875 
L 56.203125 54.6875 
z
" id="DejaVuSans-121"/>
     <path d="M 4.203125 54.6875 
L 13.1875 54.6875 
L 24.421875 12.015625 
L 35.59375 54.6875 
L 46.1875 54.6875 
L 57.421875 12.015625 
L 68.609375 54.6875 
L 77.59375 54.6875 
L 63.28125 0 
L 52.6875 0 
L 40.921875 44.828125 
L 29.109375 0 
L 18.5 0 
z
" id="DejaVuSans-119"/>
     <path d="M 48.78125 52.59375 
L 48.78125 44.1875 
Q 44.96875 46.296875 41.140625 47.34375 
Q 37.3125 48.390625 33.40625 48.390625 
Q 24.65625 48.390625 19.8125 42.84375 
Q 14.984375 37.3125 14.984375 27.296875 
Q 14.984375 17.28125 19.8125 11.734375 
Q 24.65625 6.203125 33.40625 6.203125 
Q 37.3125 6.203125 41.140625 7.25 
Q 44.96875 8.296875 48.78125 10.40625 
L 48.78125 2.09375 
Q 45.015625 0.34375 40.984375 -0.53125 
Q 36.96875 -1.421875 32.421875 -1.421875 
Q 20.0625 -1.421875 12.78125 6.34375 
Q 5.515625 14.109375 5.515625 27.296875 
Q 5.515625 40.671875 12.859375 48.328125 
Q 20.21875 56 33.015625 56 
Q 37.15625 56 41.109375 55.140625 
Q 45.0625 54.296875 48.78125 52.59375 
z
" id="DejaVuSans-99"/>
     <path d="M 48.6875 27.296875 
Q 48.6875 37.203125 44.609375 42.84375 
Q 40.53125 48.484375 33.40625 48.484375 
Q 26.265625 48.484375 22.1875 42.84375 
Q 18.109375 37.203125 18.109375 27.296875 
Q 18.109375 17.390625 22.1875 11.75 
Q 26.265625 6.109375 33.40625 6.109375 
Q 40.53125 6.109375 44.609375 11.75 
Q 48.6875 17.390625 48.6875 27.296875 
z
M 18.109375 46.390625 
Q 20.953125 51.265625 25.265625 53.625 
Q 29.59375 56 35.59375 56 
Q 45.5625 56 51.78125 48.09375 
Q 58.015625 40.1875 58.015625 27.296875 
Q 58.015625 14.40625 51.78125 6.484375 
Q 45.5625 -1.421875 35.59375 -1.421875 
Q 29.59375 -1.421875 25.265625 0.953125 
Q 20.953125 3.328125 18.109375 8.203125 
L 18.109375 0 
L 9.078125 0 
L 9.078125 75.984375 
L 18.109375 75.984375 
z
" id="DejaVuSans-98"/>
     <path d="M 12.703125 72.90625 
L 23 72.90625 
L 23 65.484375 
L 14.984375 49.90625 
L 8.6875 49.90625 
L 12.703125 65.484375 
z
" id="DejaVuSans-8217"/>
     <path d="M 19.09375 12.40625 
L 29 12.40625 
L 29 0 
L 19.09375 0 
z
M 28.71875 19.578125 
L 19.390625 19.578125 
L 19.390625 27.09375 
Q 19.390625 32.03125 20.75 35.203125 
Q 22.125 38.375 26.515625 42.578125 
L 30.90625 46.921875 
Q 33.6875 49.515625 34.9375 51.8125 
Q 36.1875 54.109375 36.1875 56.5 
Q 36.1875 60.84375 32.984375 63.53125 
Q 29.78125 66.21875 24.515625 66.21875 
Q 20.65625 66.21875 16.28125 64.5 
Q 11.921875 62.796875 7.171875 59.515625 
L 7.171875 68.703125 
Q 11.765625 71.484375 16.46875 72.84375 
Q 21.1875 74.21875 26.21875 74.21875 
Q 35.203125 74.21875 40.640625 69.484375 
Q 46.09375 64.75 46.09375 56.984375 
Q 46.09375 53.265625 44.328125 49.921875 
Q 42.578125 46.578125 38.1875 42.390625 
L 33.890625 38.1875 
Q 31.59375 35.890625 30.640625 34.59375 
Q 29.6875 33.296875 29.296875 32.078125 
Q 29 31.0625 28.859375 29.59375 
Q 28.71875 28.125 28.71875 25.59375 
z
" id="DejaVuSans-63"/>
    </defs>
    <use xlink:href="#DejaVuSans-87"/>
    <use x="98.876953" xlink:href="#DejaVuSans-104"/>
    <use x="162.255859" xlink:href="#DejaVuSans-97"/>
    <use x="223.535156" xlink:href="#DejaVuSans-116"/>
    <use x="262.744141" xlink:href="#DejaVuSans-32"/>
    <use x="294.53125" xlink:href="#DejaVuSans-105"/>
    <use x="322.314453" xlink:href="#DejaVuSans-115"/>
    <use x="374.414062" xlink:href="#DejaVuSans-32"/>
    <use x="406.201172" xlink:href="#DejaVuSans-116"/>
    <use x="445.410156" xlink:href="#DejaVuSans-104"/>
    <use x="508.789062" xlink:href="#DejaVuSans-101"/>
    <use x="570.3125" xlink:href="#DejaVuSans-32"/>
    <use x="602.099609" xlink:href="#DejaVuSans-108"/>
    <use x="629.882812" xlink:href="#DejaVuSans-105"/>
    <use x="657.666016" xlink:href="#DejaVuSans-107"/>
    <use x="711.951172" xlink:href="#DejaVuSans-101"/>
    <use x="773.474609" xlink:href="#DejaVuSans-108"/>
    <use x="801.257812" xlink:href="#DejaVuSans-105"/>
    <use x="829.041016" xlink:href="#DejaVuSans-104"/>
    <use x="892.419922" xlink:href="#DejaVuSans-111"/>
    <use x="953.601562" xlink:href="#DejaVuSans-111"/>
    <use x="1014.783203" xlink:href="#DejaVuSans-100"/>
    <use x="1078.259766" xlink:href="#DejaVuSans-32"/>
    <use x="1110.046875" xlink:href="#DejaVuSans-116"/>
    <use x="1149.255859" xlink:href="#DejaVuSans-104"/>
    <use x="1212.634766" xlink:href="#DejaVuSans-97"/>
    <use x="1273.914062" xlink:href="#DejaVuSans-116"/>
    <use x="1313.123047" xlink:href="#DejaVuSans-32"/>
    <use x="1344.910156" xlink:href="#DejaVuSans-121"/>
    <use x="1404.089844" xlink:href="#DejaVuSans-111"/>
    <use x="1465.271484" xlink:href="#DejaVuSans-117"/>
    <use x="1528.650391" xlink:href="#DejaVuSans-32"/>
    <use x="1560.4375" xlink:href="#DejaVuSans-119"/>
    <use x="1642.224609" xlink:href="#DejaVuSans-111"/>
    <use x="1703.40625" xlink:href="#DejaVuSans-117"/>
    <use x="1766.785156" xlink:href="#DejaVuSans-108"/>
    <use x="1794.568359" xlink:href="#DejaVuSans-100"/>
    <use x="1858.044922" xlink:href="#DejaVuSans-32"/>
    <use x="1889.832031" xlink:href="#DejaVuSans-97"/>
    <use x="1951.111328" xlink:href="#DejaVuSans-99"/>
    <use x="2006.091797" xlink:href="#DejaVuSans-99"/>
    <use x="2061.072266" xlink:href="#DejaVuSans-101"/>
    <use x="2122.595703" xlink:href="#DejaVuSans-112"/>
    <use x="2186.072266" xlink:href="#DejaVuSans-116"/>
    <use x="2225.28125" xlink:href="#DejaVuSans-32"/>
    <use x="2257.068359" xlink:href="#DejaVuSans-116"/>
    <use x="2296.277344" xlink:href="#DejaVuSans-104"/>
    <use x="2359.65625" xlink:href="#DejaVuSans-101"/>
    <use x="2421.179688" xlink:href="#DejaVuSans-32"/>
    <use x="2452.966797" xlink:href="#DejaVuSans-99"/>
    <use x="2507.947266" xlink:href="#DejaVuSans-104"/>
    <use x="2571.326172" xlink:href="#DejaVuSans-97"/>
    <use x="2632.605469" xlink:href="#DejaVuSans-116"/>
    <use x="2671.814453" xlink:href="#DejaVuSans-98"/>
    <use x="2735.291016" xlink:href="#DejaVuSans-111"/>
    <use x="2796.472656" xlink:href="#DejaVuSans-116"/>
    <use x="2835.681641" xlink:href="#DejaVuSans-8217"/>
    <use x="2867.46875" xlink:href="#DejaVuSans-115"/>
    <use x="2919.568359" xlink:href="#DejaVuSans-32"/>
    <use x="2951.355469" xlink:href="#DejaVuSans-111"/>
    <use x="3012.537109" xlink:href="#DejaVuSans-102"/>
    <use x="3047.742188" xlink:href="#DejaVuSans-102"/>
    <use x="3082.947266" xlink:href="#DejaVuSans-101"/>
    <use x="3144.470703" xlink:href="#DejaVuSans-114"/>
    <use x="3185.583984" xlink:href="#DejaVuSans-32"/>
    <use x="3217.371094" xlink:href="#DejaVuSans-116"/>
    <use x="3256.580078" xlink:href="#DejaVuSans-111"/>
    <use x="3317.761719" xlink:href="#DejaVuSans-32"/>
    <use x="3349.548828" xlink:href="#DejaVuSans-104"/>
    <use x="3412.927734" xlink:href="#DejaVuSans-101"/>
    <use x="3474.451172" xlink:href="#DejaVuSans-108"/>
    <use x="3502.234375" xlink:href="#DejaVuSans-112"/>
    <use x="3565.710938" xlink:href="#DejaVuSans-32"/>
    <use x="3597.498047" xlink:href="#DejaVuSans-102"/>
    <use x="3632.703125" xlink:href="#DejaVuSans-105"/>
    <use x="3660.486328" xlink:href="#DejaVuSans-110"/>
    <use x="3723.865234" xlink:href="#DejaVuSans-100"/>
    <use x="3787.341797" xlink:href="#DejaVuSans-32"/>
    <use x="3819.128906" xlink:href="#DejaVuSans-97"/>
    <use x="3880.408203" xlink:href="#DejaVuSans-32"/>
    <use x="3912.195312" xlink:href="#DejaVuSans-98"/>
    <use x="3975.671875" xlink:href="#DejaVuSans-105"/>
    <use x="4003.455078" xlink:href="#DejaVuSans-107"/>
    <use x="4057.740234" xlink:href="#DejaVuSans-101"/>
    <use x="4119.263672" xlink:href="#DejaVuSans-63"/>
   </g>
  </g>
 </g>
 <defs>
  <clipPath id="pdced99b97e">
   <rect height="231.8" width="172.425" x="79.711875" y="22.318125"/>
  </clipPath>
  <clipPath id="pecb73b9a1c">
   <rect height="231.8" width="172.425" x="290.311875" y="22.318125"/>
  </clipPath>
 </defs>
</svg>
