<?xml version="1.0" encoding="utf-8" standalone="no"?>
<!DOCTYPE svg PUBLIC "-//W3C//DTD SVG 1.1//EN"
  "http://www.w3.org/Graphics/SVG/1.1/DTD/svg11.dtd">
<!-- Created with matplotlib (https://matplotlib.org/) -->
<svg height="291.674375pt" version="1.1" viewBox="0 0 424.50625 291.674375" width="424.50625pt" xmlns="http://www.w3.org/2000/svg" xmlns:xlink="http://www.w3.org/1999/xlink">
 <metadata>
  <rdf:RDF xmlns:cc="http://creativecommons.org/ns#" xmlns:dc="http://purl.org/dc/elements/1.1/" xmlns:rdf="http://www.w3.org/1999/02/22-rdf-syntax-ns#">
   <cc:Work>
    <dc:type rdf:resource="http://purl.org/dc/dcmitype/StillImage"/>
    <dc:date>2021-02-20T15:29:24.272926</dc:date>
    <dc:format>image/svg+xml</dc:format>
    <dc:creator>
     <cc:Agent>
      <dc:title>Matplotlib v3.3.2, https://matplotlib.org/</dc:title>
     </cc:Agent>
    </dc:creator>
   </cc:Work>
  </rdf:RDF>
 </metadata>
 <defs>
  <style type="text/css">*{stroke-linecap:butt;stroke-linejoin:round;}</style>
 </defs>
 <g id="figure_1">
  <g id="patch_1">
   <path d="M 0 291.674375 
L 424.50625 291.674375 
L 424.50625 0 
L 0 0 
z
" style="fill:none;"/>
  </g>
  <g id="axes_1">
   <g id="patch_2">
    <path d="M 43.78125 254.118125 
L 206.64375 254.118125 
L 206.64375 22.318125 
L 43.78125 22.318125 
z
" style="fill:#ffffff;"/>
   </g>
   <g id="PathCollection_1">
    <defs>
     <path d="M 0 3 
C 0.795609 3 1.55874 2.683901 2.12132 2.12132 
C 2.683901 1.55874 3 0.795609 3 0 
C 3 -0.795609 2.683901 -1.55874 2.12132 -2.12132 
C 1.55874 -2.683901 0.795609 -3 0 -3 
C -0.795609 -3 -1.55874 -2.683901 -2.12132 -2.12132 
C -2.683901 -1.55874 -3 -0.795609 -3 0 
C -3 0.795609 -2.683901 1.55874 -2.12132 2.12132 
C -1.55874 2.683901 -0.795609 3 0 3 
z
" id="mae24b0a953" style="stroke:#1f77b4;stroke-opacity:0.8;"/>
    </defs>
    <g clip-path="url(#p706c21cd5e)">
     <use style="fill:#1f77b4;fill-opacity:0.8;stroke:#1f77b4;stroke-opacity:0.8;" x="144.004327" xlink:href="#mae24b0a953" y="243.581761"/>
     <use style="fill:#1f77b4;fill-opacity:0.8;stroke:#1f77b4;stroke-opacity:0.8;" x="68.837019" xlink:href="#mae24b0a953" y="44.904805"/>
     <use style="fill:#1f77b4;fill-opacity:0.8;stroke:#1f77b4;stroke-opacity:0.8;" x="81.364904" xlink:href="#mae24b0a953" y="44.904805"/>
     <use style="fill:#1f77b4;fill-opacity:0.8;stroke:#1f77b4;stroke-opacity:0.8;" x="144.004327" xlink:href="#mae24b0a953" y="44.904805"/>
     <use style="fill:#1f77b4;fill-opacity:0.8;stroke:#1f77b4;stroke-opacity:0.8;" x="169.060096" xlink:href="#mae24b0a953" y="144.243283"/>
     <use style="fill:#1f77b4;fill-opacity:0.8;stroke:#1f77b4;stroke-opacity:0.8;" x="131.476442" xlink:href="#mae24b0a953" y="144.243283"/>
     <use style="fill:#1f77b4;fill-opacity:0.8;stroke:#1f77b4;stroke-opacity:0.8;" x="181.587981" xlink:href="#mae24b0a953" y="44.904805"/>
     <use style="fill:#1f77b4;fill-opacity:0.8;stroke:#1f77b4;stroke-opacity:0.8;" x="131.476442" xlink:href="#mae24b0a953" y="144.243283"/>
     <use style="fill:#1f77b4;fill-opacity:0.8;stroke:#1f77b4;stroke-opacity:0.8;" x="81.364904" xlink:href="#mae24b0a953" y="144.243283"/>
     <use style="fill:#1f77b4;fill-opacity:0.8;stroke:#1f77b4;stroke-opacity:0.8;" x="118.948558" xlink:href="#mae24b0a953" y="144.243283"/>
     <use style="fill:#1f77b4;fill-opacity:0.8;stroke:#1f77b4;stroke-opacity:0.8;" x="118.948558" xlink:href="#mae24b0a953" y="144.243283"/>
     <use style="fill:#1f77b4;fill-opacity:0.8;stroke:#1f77b4;stroke-opacity:0.8;" x="169.060096" xlink:href="#mae24b0a953" y="44.904805"/>
     <use style="fill:#1f77b4;fill-opacity:0.8;stroke:#1f77b4;stroke-opacity:0.8;" x="93.892788" xlink:href="#mae24b0a953" y="243.581761"/>
     <use style="fill:#1f77b4;fill-opacity:0.8;stroke:#1f77b4;stroke-opacity:0.8;" x="131.476442" xlink:href="#mae24b0a953" y="243.581761"/>
     <use style="fill:#1f77b4;fill-opacity:0.8;stroke:#1f77b4;stroke-opacity:0.8;" x="131.476442" xlink:href="#mae24b0a953" y="144.243283"/>
     <use style="fill:#1f77b4;fill-opacity:0.8;stroke:#1f77b4;stroke-opacity:0.8;" x="156.532212" xlink:href="#mae24b0a953" y="144.243283"/>
     <use style="fill:#1f77b4;fill-opacity:0.8;stroke:#1f77b4;stroke-opacity:0.8;" x="118.948558" xlink:href="#mae24b0a953" y="144.243283"/>
     <use style="fill:#1f77b4;fill-opacity:0.8;stroke:#1f77b4;stroke-opacity:0.8;" x="106.420673" xlink:href="#mae24b0a953" y="44.904805"/>
     <use style="fill:#1f77b4;fill-opacity:0.8;stroke:#1f77b4;stroke-opacity:0.8;" x="156.532212" xlink:href="#mae24b0a953" y="44.904805"/>
     <use style="fill:#1f77b4;fill-opacity:0.8;stroke:#1f77b4;stroke-opacity:0.8;" x="43.78125" xlink:href="#mae24b0a953" y="243.581761"/>
     <use style="fill:#1f77b4;fill-opacity:0.8;stroke:#1f77b4;stroke-opacity:0.8;" x="93.892788" xlink:href="#mae24b0a953" y="44.904805"/>
     <use style="fill:#1f77b4;fill-opacity:0.8;stroke:#1f77b4;stroke-opacity:0.8;" x="206.64375" xlink:href="#mae24b0a953" y="44.904805"/>
     <use style="fill:#1f77b4;fill-opacity:0.8;stroke:#1f77b4;stroke-opacity:0.8;" x="118.948558" xlink:href="#mae24b0a953" y="144.243283"/>
     <use style="fill:#1f77b4;fill-opacity:0.8;stroke:#1f77b4;stroke-opacity:0.8;" x="118.948558" xlink:href="#mae24b0a953" y="44.904805"/>
     <use style="fill:#1f77b4;fill-opacity:0.8;stroke:#1f77b4;stroke-opacity:0.8;" x="118.948558" xlink:href="#mae24b0a953" y="44.904805"/>
     <use style="fill:#1f77b4;fill-opacity:0.8;stroke:#1f77b4;stroke-opacity:0.8;" x="118.948558" xlink:href="#mae24b0a953" y="144.243283"/>
     <use style="fill:#1f77b4;fill-opacity:0.8;stroke:#1f77b4;stroke-opacity:0.8;" x="106.420673" xlink:href="#mae24b0a953" y="44.904805"/>
     <use style="fill:#1f77b4;fill-opacity:0.8;stroke:#1f77b4;stroke-opacity:0.8;" x="93.892788" xlink:href="#mae24b0a953" y="144.243283"/>
     <use style="fill:#1f77b4;fill-opacity:0.8;stroke:#1f77b4;stroke-opacity:0.8;" x="106.420673" xlink:href="#mae24b0a953" y="144.243283"/>
     <use style="fill:#1f77b4;fill-opacity:0.8;stroke:#1f77b4;stroke-opacity:0.8;" x="118.948558" xlink:href="#mae24b0a953" y="144.243283"/>
     <use style="fill:#1f77b4;fill-opacity:0.8;stroke:#1f77b4;stroke-opacity:0.8;" x="118.948558" xlink:href="#mae24b0a953" y="44.904805"/>
     <use style="fill:#1f77b4;fill-opacity:0.8;stroke:#1f77b4;stroke-opacity:0.8;" x="93.892788" xlink:href="#mae24b0a953" y="144.243283"/>
     <use style="fill:#1f77b4;fill-opacity:0.8;stroke:#1f77b4;stroke-opacity:0.8;" x="131.476442" xlink:href="#mae24b0a953" y="44.904805"/>
     <use style="fill:#1f77b4;fill-opacity:0.8;stroke:#1f77b4;stroke-opacity:0.8;" x="131.476442" xlink:href="#mae24b0a953" y="243.581761"/>
     <use style="fill:#1f77b4;fill-opacity:0.8;stroke:#1f77b4;stroke-opacity:0.8;" x="106.420673" xlink:href="#mae24b0a953" y="44.904805"/>
     <use style="fill:#1f77b4;fill-opacity:0.8;stroke:#1f77b4;stroke-opacity:0.8;" x="106.420673" xlink:href="#mae24b0a953" y="243.581761"/>
     <use style="fill:#1f77b4;fill-opacity:0.8;stroke:#1f77b4;stroke-opacity:0.8;" x="93.892788" xlink:href="#mae24b0a953" y="144.243283"/>
     <use style="fill:#1f77b4;fill-opacity:0.8;stroke:#1f77b4;stroke-opacity:0.8;" x="118.948558" xlink:href="#mae24b0a953" y="144.243283"/>
     <use style="fill:#1f77b4;fill-opacity:0.8;stroke:#1f77b4;stroke-opacity:0.8;" x="106.420673" xlink:href="#mae24b0a953" y="144.243283"/>
     <use style="fill:#1f77b4;fill-opacity:0.8;stroke:#1f77b4;stroke-opacity:0.8;" x="93.892788" xlink:href="#mae24b0a953" y="144.243283"/>
     <use style="fill:#1f77b4;fill-opacity:0.8;stroke:#1f77b4;stroke-opacity:0.8;" x="56.309135" xlink:href="#mae24b0a953" y="144.243283"/>
    </g>
   </g>
   <g id="PolyCollection_1">
    <path clip-path="url(#p706c21cd5e)" d="M 43.78125 95.80488 
L 43.78125 206.820385 
L 45.426326 205.269402 
L 47.071402 203.704494 
L 48.716477 202.137104 
L 50.361553 200.291758 
L 52.006629 198.383958 
L 53.651705 196.476159 
L 55.29678 194.915272 
L 56.941856 193.660876 
L 58.586932 192.406481 
L 60.232008 190.81254 
L 61.877083 189.134667 
L 63.522159 187.442211 
L 65.167235 185.557439 
L 66.812311 184.079276 
L 68.457386 182.404072 
L 70.102462 180.813408 
L 71.747538 179.485767 
L 73.392614 177.888782 
L 75.037689 176.726998 
L 76.682765 174.710014 
L 78.327841 173.240597 
L 79.972917 171.821073 
L 81.617992 170.391973 
L 83.263068 168.906447 
L 84.908144 167.035244 
L 86.55322 165.43924 
L 88.198295 163.99549 
L 89.843371 162.548556 
L 91.488447 161.146182 
L 93.133523 159.70281 
L 94.778598 158.207755 
L 96.423674 156.760822 
L 98.06875 155.388606 
L 99.713826 154.246225 
L 101.358902 153.240532 
L 103.003977 152.042997 
L 104.649053 150.77664 
L 106.294129 150.002017 
L 107.939205 148.767623 
L 109.58428 147.377135 
L 111.229356 146.832601 
L 112.874432 145.731508 
L 114.519508 144.635335 
L 116.164583 143.843934 
L 117.809659 143.198514 
L 119.454735 142.288579 
L 121.099811 140.930093 
L 122.744886 141.064625 
L 124.389962 140.732868 
L 126.035038 140.677166 
L 127.680114 140.171829 
L 129.325189 139.672201 
L 130.970265 139.678897 
L 132.615341 139.766566 
L 134.260417 139.940936 
L 135.905492 140.091885 
L 137.550568 140.011956 
L 139.195644 139.775482 
L 140.84072 140.1185 
L 142.485795 140.258743 
L 144.130871 140.337139 
L 145.775947 140.484929 
L 147.421023 140.573032 
L 149.066098 140.593913 
L 150.711174 140.732984 
L 152.35625 140.80689 
L 154.001326 140.851061 
L 155.646402 141.258808 
L 157.291477 141.704451 
L 158.936553 142.148925 
L 160.581629 142.388503 
L 162.226705 142.64722 
L 163.87178 143.402835 
L 165.516856 143.962738 
L 167.161932 144.414118 
L 168.807008 144.864876 
L 170.452083 145.166398 
L 172.097159 145.655319 
L 173.742235 146.023477 
L 175.387311 146.391635 
L 177.032386 146.91227 
L 178.677462 147.146284 
L 180.322538 147.492896 
L 181.967614 147.857869 
L 183.612689 148.222842 
L 185.257765 148.587814 
L 186.902841 149.110614 
L 188.547917 149.537425 
L 190.192992 149.86281 
L 191.838068 150.262023 
L 193.483144 150.521294 
L 195.12822 150.852913 
L 196.773295 151.184532 
L 198.418371 151.536516 
L 200.063447 152.113768 
L 201.708523 152.86375 
L 203.353598 152.996754 
L 204.998674 153.125582 
L 206.64375 153.383678 
L 206.64375 32.854489 
L 206.64375 32.854489 
L 204.998674 34.424664 
L 203.353598 35.994838 
L 201.708523 37.565013 
L 200.063447 39.19056 
L 198.418371 40.859831 
L 196.773295 42.529101 
L 195.12822 44.063114 
L 193.483144 45.402744 
L 191.838068 46.859775 
L 190.192992 48.182391 
L 188.547917 49.654092 
L 186.902841 51.321333 
L 185.257765 52.988744 
L 183.612689 54.654838 
L 181.967614 56.103202 
L 180.322538 57.667698 
L 178.677462 58.975072 
L 177.032386 60.370915 
L 175.387311 61.848652 
L 173.742235 63.287975 
L 172.097159 65.024033 
L 170.452083 66.495196 
L 168.807008 67.906452 
L 167.161932 69.451467 
L 165.516856 71.131128 
L 163.87178 72.810789 
L 162.226705 74.352993 
L 160.581629 75.113527 
L 158.936553 76.772314 
L 157.291477 78.082729 
L 155.646402 79.473134 
L 154.001326 80.567886 
L 152.35625 81.762196 
L 150.711174 83.185334 
L 149.066098 84.218581 
L 147.421023 85.236828 
L 145.775947 86.616236 
L 144.130871 88.12146 
L 142.485795 89.178214 
L 140.84072 90.260522 
L 139.195644 90.872915 
L 137.550568 92.083068 
L 135.905492 93.434264 
L 134.260417 94.50055 
L 132.615341 95.724878 
L 130.970265 96.925261 
L 129.325189 97.910435 
L 127.680114 98.715141 
L 126.035038 99.743421 
L 124.389962 100.850407 
L 122.744886 101.492766 
L 121.099811 101.929309 
L 119.454735 103.059691 
L 117.809659 103.534098 
L 116.164583 104.326039 
L 114.519508 105.118436 
L 112.874432 105.454495 
L 111.229356 105.565725 
L 109.58428 105.896112 
L 107.939205 106.180272 
L 106.294129 106.031717 
L 104.649053 106.135556 
L 103.003977 106.255557 
L 101.358902 106.168098 
L 99.713826 105.751188 
L 98.06875 105.791805 
L 96.423674 105.639004 
L 94.778598 105.669386 
L 93.133523 105.544911 
L 91.488447 105.490502 
L 89.843371 105.251022 
L 88.198295 105.1432 
L 86.55322 105.113129 
L 84.908144 105.085384 
L 83.263068 105.057639 
L 81.617992 104.791587 
L 79.972917 104.191979 
L 78.327841 103.417533 
L 76.682765 103.136091 
L 75.037689 103.095047 
L 73.392614 102.69126 
L 71.747538 102.464561 
L 70.102462 102.089838 
L 68.457386 102.043354 
L 66.812311 101.99687 
L 65.167235 101.296536 
L 63.522159 100.517955 
L 61.877083 100.121507 
L 60.232008 99.553386 
L 58.586932 99.225003 
L 56.941856 98.906658 
L 55.29678 98.555789 
L 53.651705 98.16925 
L 52.006629 97.804588 
L 50.361553 97.584605 
L 48.716477 97.305592 
L 47.071402 96.747502 
L 45.426326 96.208896 
L 43.78125 95.80488 
z
" style="fill:#1f77b4;fill-opacity:0.15;"/>
   </g>
   <g id="matplotlib.axis_1">
    <g id="xtick_1">
     <g id="line2d_1">
      <defs>
       <path d="M 0 0 
L 0 3.5 
" id="mefaa3ba2ff" style="stroke:#000000;stroke-width:0.8;"/>
      </defs>
      <g>
       <use style="stroke:#000000;stroke-width:0.8;" x="68.837019" xlink:href="#mefaa3ba2ff" y="254.118125"/>
      </g>
     </g>
     <g id="text_1">
      <!-- 2 -->
      <g transform="translate(65.655769 268.716562)scale(0.1 -0.1)">
       <defs>
        <path d="M 19.1875 8.296875 
L 53.609375 8.296875 
L 53.609375 0 
L 7.328125 0 
L 7.328125 8.296875 
Q 12.9375 14.109375 22.625 23.890625 
Q 32.328125 33.6875 34.8125 36.53125 
Q 39.546875 41.84375 41.421875 45.53125 
Q 43.3125 49.21875 43.3125 52.78125 
Q 43.3125 58.59375 39.234375 62.25 
Q 35.15625 65.921875 28.609375 65.921875 
Q 23.96875 65.921875 18.8125 64.3125 
Q 13.671875 62.703125 7.8125 59.421875 
L 7.8125 69.390625 
Q 13.765625 71.78125 18.9375 73 
Q 24.125 74.21875 28.421875 74.21875 
Q 39.75 74.21875 46.484375 68.546875 
Q 53.21875 62.890625 53.21875 53.421875 
Q 53.21875 48.921875 51.53125 44.890625 
Q 49.859375 40.875 45.40625 35.40625 
Q 44.1875 33.984375 37.640625 27.21875 
Q 31.109375 20.453125 19.1875 8.296875 
z
" id="DejaVuSans-50"/>
       </defs>
       <use xlink:href="#DejaVuSans-50"/>
      </g>
     </g>
    </g>
    <g id="xtick_2">
     <g id="line2d_2">
      <g>
       <use style="stroke:#000000;stroke-width:0.8;" x="118.948558" xlink:href="#mefaa3ba2ff" y="254.118125"/>
      </g>
     </g>
     <g id="text_2">
      <!-- 3 -->
      <g transform="translate(115.767308 268.716562)scale(0.1 -0.1)">
       <defs>
        <path d="M 40.578125 39.3125 
Q 47.65625 37.796875 51.625 33 
Q 55.609375 28.21875 55.609375 21.1875 
Q 55.609375 10.40625 48.1875 4.484375 
Q 40.765625 -1.421875 27.09375 -1.421875 
Q 22.515625 -1.421875 17.65625 -0.515625 
Q 12.796875 0.390625 7.625 2.203125 
L 7.625 11.71875 
Q 11.71875 9.328125 16.59375 8.109375 
Q 21.484375 6.890625 26.8125 6.890625 
Q 36.078125 6.890625 40.9375 10.546875 
Q 45.796875 14.203125 45.796875 21.1875 
Q 45.796875 27.640625 41.28125 31.265625 
Q 36.765625 34.90625 28.71875 34.90625 
L 20.21875 34.90625 
L 20.21875 43.015625 
L 29.109375 43.015625 
Q 36.375 43.015625 40.234375 45.921875 
Q 44.09375 48.828125 44.09375 54.296875 
Q 44.09375 59.90625 40.109375 62.90625 
Q 36.140625 65.921875 28.71875 65.921875 
Q 24.65625 65.921875 20.015625 65.03125 
Q 15.375 64.15625 9.8125 62.3125 
L 9.8125 71.09375 
Q 15.4375 72.65625 20.34375 73.4375 
Q 25.25 74.21875 29.59375 74.21875 
Q 40.828125 74.21875 47.359375 69.109375 
Q 53.90625 64.015625 53.90625 55.328125 
Q 53.90625 49.265625 50.4375 45.09375 
Q 46.96875 40.921875 40.578125 39.3125 
z
" id="DejaVuSans-51"/>
       </defs>
       <use xlink:href="#DejaVuSans-51"/>
      </g>
     </g>
    </g>
    <g id="xtick_3">
     <g id="line2d_3">
      <g>
       <use style="stroke:#000000;stroke-width:0.8;" x="169.060096" xlink:href="#mefaa3ba2ff" y="254.118125"/>
      </g>
     </g>
     <g id="text_3">
      <!-- 4 -->
      <g transform="translate(165.878846 268.716562)scale(0.1 -0.1)">
       <defs>
        <path d="M 37.796875 64.3125 
L 12.890625 25.390625 
L 37.796875 25.390625 
z
M 35.203125 72.90625 
L 47.609375 72.90625 
L 47.609375 25.390625 
L 58.015625 25.390625 
L 58.015625 17.1875 
L 47.609375 17.1875 
L 47.609375 0 
L 37.796875 0 
L 37.796875 17.1875 
L 4.890625 17.1875 
L 4.890625 26.703125 
z
" id="DejaVuSans-52"/>
       </defs>
       <use xlink:href="#DejaVuSans-52"/>
      </g>
     </g>
    </g>
    <g id="text_4">
     <!-- E -->
     <g transform="translate(122.053125 282.394687)scale(0.1 -0.1)">
      <defs>
       <path d="M 9.8125 72.90625 
L 55.90625 72.90625 
L 55.90625 64.59375 
L 19.671875 64.59375 
L 19.671875 43.015625 
L 54.390625 43.015625 
L 54.390625 34.71875 
L 19.671875 34.71875 
L 19.671875 8.296875 
L 56.78125 8.296875 
L 56.78125 0 
L 9.8125 0 
z
" id="DejaVuSans-69"/>
      </defs>
      <use xlink:href="#DejaVuSans-69"/>
     </g>
    </g>
   </g>
   <g id="matplotlib.axis_2">
    <g id="ytick_1">
     <g id="line2d_4">
      <defs>
       <path d="M 0 0 
L -3.5 0 
" id="m88adac9a46" style="stroke:#000000;stroke-width:0.8;"/>
      </defs>
      <g>
       <use style="stroke:#000000;stroke-width:0.8;" x="43.78125" xlink:href="#m88adac9a46" y="243.581761"/>
      </g>
     </g>
     <g id="text_5">
      <!-- 3.0 -->
      <g transform="translate(20.878125 247.38098)scale(0.1 -0.1)">
       <defs>
        <path d="M 10.6875 12.40625 
L 21 12.40625 
L 21 0 
L 10.6875 0 
z
" id="DejaVuSans-46"/>
        <path d="M 31.78125 66.40625 
Q 24.171875 66.40625 20.328125 58.90625 
Q 16.5 51.421875 16.5 36.375 
Q 16.5 21.390625 20.328125 13.890625 
Q 24.171875 6.390625 31.78125 6.390625 
Q 39.453125 6.390625 43.28125 13.890625 
Q 47.125 21.390625 47.125 36.375 
Q 47.125 51.421875 43.28125 58.90625 
Q 39.453125 66.40625 31.78125 66.40625 
z
M 31.78125 74.21875 
Q 44.046875 74.21875 50.515625 64.515625 
Q 56.984375 54.828125 56.984375 36.375 
Q 56.984375 17.96875 50.515625 8.265625 
Q 44.046875 -1.421875 31.78125 -1.421875 
Q 19.53125 -1.421875 13.0625 8.265625 
Q 6.59375 17.96875 6.59375 36.375 
Q 6.59375 54.828125 13.0625 64.515625 
Q 19.53125 74.21875 31.78125 74.21875 
z
" id="DejaVuSans-48"/>
       </defs>
       <use xlink:href="#DejaVuSans-51"/>
       <use x="63.623047" xlink:href="#DejaVuSans-46"/>
       <use x="95.410156" xlink:href="#DejaVuSans-48"/>
      </g>
     </g>
    </g>
    <g id="ytick_2">
     <g id="line2d_5">
      <g>
       <use style="stroke:#000000;stroke-width:0.8;" x="43.78125" xlink:href="#m88adac9a46" y="193.912522"/>
      </g>
     </g>
     <g id="text_6">
      <!-- 3.5 -->
      <g transform="translate(20.878125 197.711741)scale(0.1 -0.1)">
       <defs>
        <path d="M 10.796875 72.90625 
L 49.515625 72.90625 
L 49.515625 64.59375 
L 19.828125 64.59375 
L 19.828125 46.734375 
Q 21.96875 47.46875 24.109375 47.828125 
Q 26.265625 48.1875 28.421875 48.1875 
Q 40.625 48.1875 47.75 41.5 
Q 54.890625 34.8125 54.890625 23.390625 
Q 54.890625 11.625 47.5625 5.09375 
Q 40.234375 -1.421875 26.90625 -1.421875 
Q 22.3125 -1.421875 17.546875 -0.640625 
Q 12.796875 0.140625 7.71875 1.703125 
L 7.71875 11.625 
Q 12.109375 9.234375 16.796875 8.0625 
Q 21.484375 6.890625 26.703125 6.890625 
Q 35.15625 6.890625 40.078125 11.328125 
Q 45.015625 15.765625 45.015625 23.390625 
Q 45.015625 31 40.078125 35.4375 
Q 35.15625 39.890625 26.703125 39.890625 
Q 22.75 39.890625 18.8125 39.015625 
Q 14.890625 38.140625 10.796875 36.28125 
z
" id="DejaVuSans-53"/>
       </defs>
       <use xlink:href="#DejaVuSans-51"/>
       <use x="63.623047" xlink:href="#DejaVuSans-46"/>
       <use x="95.410156" xlink:href="#DejaVuSans-53"/>
      </g>
     </g>
    </g>
    <g id="ytick_3">
     <g id="line2d_6">
      <g>
       <use style="stroke:#000000;stroke-width:0.8;" x="43.78125" xlink:href="#m88adac9a46" y="144.243283"/>
      </g>
     </g>
     <g id="text_7">
      <!-- 4.0 -->
      <g transform="translate(20.878125 148.042502)scale(0.1 -0.1)">
       <use xlink:href="#DejaVuSans-52"/>
       <use x="63.623047" xlink:href="#DejaVuSans-46"/>
       <use x="95.410156" xlink:href="#DejaVuSans-48"/>
      </g>
     </g>
    </g>
    <g id="ytick_4">
     <g id="line2d_7">
      <g>
       <use style="stroke:#000000;stroke-width:0.8;" x="43.78125" xlink:href="#m88adac9a46" y="94.574044"/>
      </g>
     </g>
     <g id="text_8">
      <!-- 4.5 -->
      <g transform="translate(20.878125 98.373263)scale(0.1 -0.1)">
       <use xlink:href="#DejaVuSans-52"/>
       <use x="63.623047" xlink:href="#DejaVuSans-46"/>
       <use x="95.410156" xlink:href="#DejaVuSans-53"/>
      </g>
     </g>
    </g>
    <g id="ytick_5">
     <g id="line2d_8">
      <g>
       <use style="stroke:#000000;stroke-width:0.8;" x="43.78125" xlink:href="#m88adac9a46" y="44.904805"/>
      </g>
     </g>
     <g id="text_9">
      <!-- 5.0 -->
      <g transform="translate(20.878125 48.704023)scale(0.1 -0.1)">
       <use xlink:href="#DejaVuSans-53"/>
       <use x="63.623047" xlink:href="#DejaVuSans-46"/>
       <use x="95.410156" xlink:href="#DejaVuSans-48"/>
      </g>
     </g>
    </g>
    <g id="text_10">
     <!-- Trust1 -->
     <g transform="translate(14.798438 153.504844)rotate(-90)scale(0.1 -0.1)">
      <defs>
       <path d="M -0.296875 72.90625 
L 61.375 72.90625 
L 61.375 64.59375 
L 35.5 64.59375 
L 35.5 0 
L 25.59375 0 
L 25.59375 64.59375 
L -0.296875 64.59375 
z
" id="DejaVuSans-84"/>
       <path d="M 41.109375 46.296875 
Q 39.59375 47.171875 37.8125 47.578125 
Q 36.03125 48 33.890625 48 
Q 26.265625 48 22.1875 43.046875 
Q 18.109375 38.09375 18.109375 28.8125 
L 18.109375 0 
L 9.078125 0 
L 9.078125 54.6875 
L 18.109375 54.6875 
L 18.109375 46.1875 
Q 20.953125 51.171875 25.484375 53.578125 
Q 30.03125 56 36.53125 56 
Q 37.453125 56 38.578125 55.875 
Q 39.703125 55.765625 41.0625 55.515625 
z
" id="DejaVuSans-114"/>
       <path d="M 8.5 21.578125 
L 8.5 54.6875 
L 17.484375 54.6875 
L 17.484375 21.921875 
Q 17.484375 14.15625 20.5 10.265625 
Q 23.53125 6.390625 29.59375 6.390625 
Q 36.859375 6.390625 41.078125 11.03125 
Q 45.3125 15.671875 45.3125 23.6875 
L 45.3125 54.6875 
L 54.296875 54.6875 
L 54.296875 0 
L 45.3125 0 
L 45.3125 8.40625 
Q 42.046875 3.421875 37.71875 1 
Q 33.40625 -1.421875 27.6875 -1.421875 
Q 18.265625 -1.421875 13.375 4.4375 
Q 8.5 10.296875 8.5 21.578125 
z
M 31.109375 56 
z
" id="DejaVuSans-117"/>
       <path d="M 44.28125 53.078125 
L 44.28125 44.578125 
Q 40.484375 46.53125 36.375 47.5 
Q 32.28125 48.484375 27.875 48.484375 
Q 21.1875 48.484375 17.84375 46.4375 
Q 14.5 44.390625 14.5 40.28125 
Q 14.5 37.15625 16.890625 35.375 
Q 19.28125 33.59375 26.515625 31.984375 
L 29.59375 31.296875 
Q 39.15625 29.25 43.1875 25.515625 
Q 47.21875 21.78125 47.21875 15.09375 
Q 47.21875 7.46875 41.1875 3.015625 
Q 35.15625 -1.421875 24.609375 -1.421875 
Q 20.21875 -1.421875 15.453125 -0.5625 
Q 10.6875 0.296875 5.421875 2 
L 5.421875 11.28125 
Q 10.40625 8.6875 15.234375 7.390625 
Q 20.0625 6.109375 24.8125 6.109375 
Q 31.15625 6.109375 34.5625 8.28125 
Q 37.984375 10.453125 37.984375 14.40625 
Q 37.984375 18.0625 35.515625 20.015625 
Q 33.0625 21.96875 24.703125 23.78125 
L 21.578125 24.515625 
Q 13.234375 26.265625 9.515625 29.90625 
Q 5.8125 33.546875 5.8125 39.890625 
Q 5.8125 47.609375 11.28125 51.796875 
Q 16.75 56 26.8125 56 
Q 31.78125 56 36.171875 55.265625 
Q 40.578125 54.546875 44.28125 53.078125 
z
" id="DejaVuSans-115"/>
       <path d="M 18.3125 70.21875 
L 18.3125 54.6875 
L 36.8125 54.6875 
L 36.8125 47.703125 
L 18.3125 47.703125 
L 18.3125 18.015625 
Q 18.3125 11.328125 20.140625 9.421875 
Q 21.96875 7.515625 27.59375 7.515625 
L 36.8125 7.515625 
L 36.8125 0 
L 27.59375 0 
Q 17.1875 0 13.234375 3.875 
Q 9.28125 7.765625 9.28125 18.015625 
L 9.28125 47.703125 
L 2.6875 47.703125 
L 2.6875 54.6875 
L 9.28125 54.6875 
L 9.28125 70.21875 
z
" id="DejaVuSans-116"/>
       <path d="M 12.40625 8.296875 
L 28.515625 8.296875 
L 28.515625 63.921875 
L 10.984375 60.40625 
L 10.984375 69.390625 
L 28.421875 72.90625 
L 38.28125 72.90625 
L 38.28125 8.296875 
L 54.390625 8.296875 
L 54.390625 0 
L 12.40625 0 
z
" id="DejaVuSans-49"/>
      </defs>
      <use xlink:href="#DejaVuSans-84"/>
      <use x="46.333984" xlink:href="#DejaVuSans-114"/>
      <use x="87.447266" xlink:href="#DejaVuSans-117"/>
      <use x="150.826172" xlink:href="#DejaVuSans-115"/>
      <use x="202.925781" xlink:href="#DejaVuSans-116"/>
      <use x="242.134766" xlink:href="#DejaVuSans-49"/>
     </g>
    </g>
   </g>
   <g id="line2d_9">
    <path clip-path="url(#p706c21cd5e)" d="M 43.78125 157.520377 
L 45.426326 156.743086 
L 47.071402 155.965795 
L 48.716477 155.188503 
L 50.361553 154.411212 
L 52.006629 153.633921 
L 53.651705 152.85663 
L 55.29678 152.079339 
L 56.941856 151.302048 
L 58.586932 150.524757 
L 60.232008 149.747465 
L 61.877083 148.970174 
L 63.522159 148.192883 
L 65.167235 147.415592 
L 66.812311 146.638301 
L 68.457386 145.86101 
L 70.102462 145.083719 
L 71.747538 144.306427 
L 73.392614 143.529136 
L 75.037689 142.751845 
L 76.682765 141.974554 
L 78.327841 141.197263 
L 79.972917 140.419972 
L 81.617992 139.642681 
L 83.263068 138.865389 
L 84.908144 138.088098 
L 86.55322 137.310807 
L 88.198295 136.533516 
L 89.843371 135.756225 
L 91.488447 134.978934 
L 93.133523 134.201643 
L 94.778598 133.424351 
L 96.423674 132.64706 
L 98.06875 131.869769 
L 99.713826 131.092478 
L 101.358902 130.315187 
L 103.003977 129.537896 
L 104.649053 128.760605 
L 106.294129 127.983313 
L 107.939205 127.206022 
L 109.58428 126.428731 
L 111.229356 125.65144 
L 112.874432 124.874149 
L 114.519508 124.096858 
L 116.164583 123.319567 
L 117.809659 122.542275 
L 119.454735 121.764984 
L 121.099811 120.987693 
L 122.744886 120.210402 
L 124.389962 119.433111 
L 126.035038 118.65582 
L 127.680114 117.878529 
L 129.325189 117.101237 
L 130.970265 116.323946 
L 132.615341 115.546655 
L 134.260417 114.769364 
L 135.905492 113.992073 
L 137.550568 113.214782 
L 139.195644 112.437491 
L 140.84072 111.660199 
L 142.485795 110.882908 
L 144.130871 110.105617 
L 145.775947 109.328326 
L 147.421023 108.551035 
L 149.066098 107.773744 
L 150.711174 106.996453 
L 152.35625 106.219161 
L 154.001326 105.44187 
L 155.646402 104.664579 
L 157.291477 103.887288 
L 158.936553 103.109997 
L 160.581629 102.332706 
L 162.226705 101.555415 
L 163.87178 100.778123 
L 165.516856 100.000832 
L 167.161932 99.223541 
L 168.807008 98.44625 
L 170.452083 97.668959 
L 172.097159 96.891668 
L 173.742235 96.114377 
L 175.387311 95.337085 
L 177.032386 94.559794 
L 178.677462 93.782503 
L 180.322538 93.005212 
L 181.967614 92.227921 
L 183.612689 91.45063 
L 185.257765 90.673339 
L 186.902841 89.896048 
L 188.547917 89.118756 
L 190.192992 88.341465 
L 191.838068 87.564174 
L 193.483144 86.786883 
L 195.12822 86.009592 
L 196.773295 85.232301 
L 198.418371 84.45501 
L 200.063447 83.677718 
L 201.708523 82.900427 
L 203.353598 82.123136 
L 204.998674 81.345845 
L 206.64375 80.568554 
" style="fill:none;stroke:#1f77b4;stroke-linecap:square;stroke-width:2.25;"/>
   </g>
   <g id="patch_3">
    <path d="M 43.78125 254.118125 
L 43.78125 22.318125 
" style="fill:none;stroke:#000000;stroke-linecap:square;stroke-linejoin:miter;stroke-width:0.8;"/>
   </g>
   <g id="patch_4">
    <path d="M 206.64375 254.118125 
L 206.64375 22.318125 
" style="fill:none;stroke:#000000;stroke-linecap:square;stroke-linejoin:miter;stroke-width:0.8;"/>
   </g>
   <g id="patch_5">
    <path d="M 43.78125 254.118125 
L 206.64375 254.118125 
" style="fill:none;stroke:#000000;stroke-linecap:square;stroke-linejoin:miter;stroke-width:0.8;"/>
   </g>
   <g id="patch_6">
    <path d="M 43.78125 22.318125 
L 206.64375 22.318125 
" style="fill:none;stroke:#000000;stroke-linecap:square;stroke-linejoin:miter;stroke-width:0.8;"/>
   </g>
   <g id="text_11">
    <!-- Group A -->
    <g transform="translate(43.78125 16.318125)scale(0.12 -0.12)">
     <defs>
      <path d="M 59.515625 10.40625 
L 59.515625 29.984375 
L 43.40625 29.984375 
L 43.40625 38.09375 
L 69.28125 38.09375 
L 69.28125 6.78125 
Q 63.578125 2.734375 56.6875 0.65625 
Q 49.8125 -1.421875 42 -1.421875 
Q 24.90625 -1.421875 15.25 8.5625 
Q 5.609375 18.5625 5.609375 36.375 
Q 5.609375 54.25 15.25 64.234375 
Q 24.90625 74.21875 42 74.21875 
Q 49.125 74.21875 55.546875 72.453125 
Q 61.96875 70.703125 67.390625 67.28125 
L 67.390625 56.78125 
Q 61.921875 61.421875 55.765625 63.765625 
Q 49.609375 66.109375 42.828125 66.109375 
Q 29.4375 66.109375 22.71875 58.640625 
Q 16.015625 51.171875 16.015625 36.375 
Q 16.015625 21.625 22.71875 14.15625 
Q 29.4375 6.6875 42.828125 6.6875 
Q 48.046875 6.6875 52.140625 7.59375 
Q 56.25 8.5 59.515625 10.40625 
z
" id="DejaVuSans-71"/>
      <path d="M 30.609375 48.390625 
Q 23.390625 48.390625 19.1875 42.75 
Q 14.984375 37.109375 14.984375 27.296875 
Q 14.984375 17.484375 19.15625 11.84375 
Q 23.34375 6.203125 30.609375 6.203125 
Q 37.796875 6.203125 41.984375 11.859375 
Q 46.1875 17.53125 46.1875 27.296875 
Q 46.1875 37.015625 41.984375 42.703125 
Q 37.796875 48.390625 30.609375 48.390625 
z
M 30.609375 56 
Q 42.328125 56 49.015625 48.375 
Q 55.71875 40.765625 55.71875 27.296875 
Q 55.71875 13.875 49.015625 6.21875 
Q 42.328125 -1.421875 30.609375 -1.421875 
Q 18.84375 -1.421875 12.171875 6.21875 
Q 5.515625 13.875 5.515625 27.296875 
Q 5.515625 40.765625 12.171875 48.375 
Q 18.84375 56 30.609375 56 
z
" id="DejaVuSans-111"/>
      <path d="M 18.109375 8.203125 
L 18.109375 -20.796875 
L 9.078125 -20.796875 
L 9.078125 54.6875 
L 18.109375 54.6875 
L 18.109375 46.390625 
Q 20.953125 51.265625 25.265625 53.625 
Q 29.59375 56 35.59375 56 
Q 45.5625 56 51.78125 48.09375 
Q 58.015625 40.1875 58.015625 27.296875 
Q 58.015625 14.40625 51.78125 6.484375 
Q 45.5625 -1.421875 35.59375 -1.421875 
Q 29.59375 -1.421875 25.265625 0.953125 
Q 20.953125 3.328125 18.109375 8.203125 
z
M 48.6875 27.296875 
Q 48.6875 37.203125 44.609375 42.84375 
Q 40.53125 48.484375 33.40625 48.484375 
Q 26.265625 48.484375 22.1875 42.84375 
Q 18.109375 37.203125 18.109375 27.296875 
Q 18.109375 17.390625 22.1875 11.75 
Q 26.265625 6.109375 33.40625 6.109375 
Q 40.53125 6.109375 44.609375 11.75 
Q 48.6875 17.390625 48.6875 27.296875 
z
" id="DejaVuSans-112"/>
      <path id="DejaVuSans-32"/>
      <path d="M 34.1875 63.1875 
L 20.796875 26.90625 
L 47.609375 26.90625 
z
M 28.609375 72.90625 
L 39.796875 72.90625 
L 67.578125 0 
L 57.328125 0 
L 50.6875 18.703125 
L 17.828125 18.703125 
L 11.1875 0 
L 0.78125 0 
z
" id="DejaVuSans-65"/>
     </defs>
     <use xlink:href="#DejaVuSans-71"/>
     <use x="77.490234" xlink:href="#DejaVuSans-114"/>
     <use x="116.353516" xlink:href="#DejaVuSans-111"/>
     <use x="177.535156" xlink:href="#DejaVuSans-117"/>
     <use x="240.914062" xlink:href="#DejaVuSans-112"/>
     <use x="304.390625" xlink:href="#DejaVuSans-32"/>
     <use x="336.177734" xlink:href="#DejaVuSans-65"/>
    </g>
   </g>
  </g>
  <g id="axes_2">
   <g id="patch_7">
    <path d="M 254.44375 254.118125 
L 417.30625 254.118125 
L 417.30625 22.318125 
L 254.44375 22.318125 
z
" style="fill:#ffffff;"/>
   </g>
   <g id="PathCollection_2">
    <g clip-path="url(#pb282eebfba)">
     <use style="fill:#1f77b4;fill-opacity:0.8;stroke:#1f77b4;stroke-opacity:0.8;" x="254.44375" xlink:href="#mae24b0a953" y="85.536307"/>
     <use style="fill:#1f77b4;fill-opacity:0.8;stroke:#1f77b4;stroke-opacity:0.8;" x="266.971635" xlink:href="#mae24b0a953" y="85.536307"/>
     <use style="fill:#1f77b4;fill-opacity:0.8;stroke:#1f77b4;stroke-opacity:0.8;" x="379.722596" xlink:href="#mae24b0a953" y="32.854489"/>
     <use style="fill:#1f77b4;fill-opacity:0.8;stroke:#1f77b4;stroke-opacity:0.8;" x="342.138942" xlink:href="#mae24b0a953" y="32.854489"/>
     <use style="fill:#1f77b4;fill-opacity:0.8;stroke:#1f77b4;stroke-opacity:0.8;" x="317.083173" xlink:href="#mae24b0a953" y="32.854489"/>
     <use style="fill:#1f77b4;fill-opacity:0.8;stroke:#1f77b4;stroke-opacity:0.8;" x="379.722596" xlink:href="#mae24b0a953" y="85.536307"/>
     <use style="fill:#1f77b4;fill-opacity:0.8;stroke:#1f77b4;stroke-opacity:0.8;" x="317.083173" xlink:href="#mae24b0a953" y="32.854489"/>
     <use style="fill:#1f77b4;fill-opacity:0.8;stroke:#1f77b4;stroke-opacity:0.8;" x="342.138942" xlink:href="#mae24b0a953" y="243.581761"/>
     <use style="fill:#1f77b4;fill-opacity:0.8;stroke:#1f77b4;stroke-opacity:0.8;" x="342.138942" xlink:href="#mae24b0a953" y="32.854489"/>
     <use style="fill:#1f77b4;fill-opacity:0.8;stroke:#1f77b4;stroke-opacity:0.8;" x="367.194712" xlink:href="#mae24b0a953" y="85.536307"/>
     <use style="fill:#1f77b4;fill-opacity:0.8;stroke:#1f77b4;stroke-opacity:0.8;" x="342.138942" xlink:href="#mae24b0a953" y="138.218125"/>
     <use style="fill:#1f77b4;fill-opacity:0.8;stroke:#1f77b4;stroke-opacity:0.8;" x="379.722596" xlink:href="#mae24b0a953" y="32.854489"/>
     <use style="fill:#1f77b4;fill-opacity:0.8;stroke:#1f77b4;stroke-opacity:0.8;" x="342.138942" xlink:href="#mae24b0a953" y="138.218125"/>
     <use style="fill:#1f77b4;fill-opacity:0.8;stroke:#1f77b4;stroke-opacity:0.8;" x="392.250481" xlink:href="#mae24b0a953" y="85.536307"/>
     <use style="fill:#1f77b4;fill-opacity:0.8;stroke:#1f77b4;stroke-opacity:0.8;" x="354.666827" xlink:href="#mae24b0a953" y="32.854489"/>
     <use style="fill:#1f77b4;fill-opacity:0.8;stroke:#1f77b4;stroke-opacity:0.8;" x="392.250481" xlink:href="#mae24b0a953" y="32.854489"/>
     <use style="fill:#1f77b4;fill-opacity:0.8;stroke:#1f77b4;stroke-opacity:0.8;" x="354.666827" xlink:href="#mae24b0a953" y="32.854489"/>
     <use style="fill:#1f77b4;fill-opacity:0.8;stroke:#1f77b4;stroke-opacity:0.8;" x="317.083173" xlink:href="#mae24b0a953" y="32.854489"/>
     <use style="fill:#1f77b4;fill-opacity:0.8;stroke:#1f77b4;stroke-opacity:0.8;" x="367.194712" xlink:href="#mae24b0a953" y="85.536307"/>
     <use style="fill:#1f77b4;fill-opacity:0.8;stroke:#1f77b4;stroke-opacity:0.8;" x="279.499519" xlink:href="#mae24b0a953" y="138.218125"/>
     <use style="fill:#1f77b4;fill-opacity:0.8;stroke:#1f77b4;stroke-opacity:0.8;" x="417.30625" xlink:href="#mae24b0a953" y="85.536307"/>
     <use style="fill:#1f77b4;fill-opacity:0.8;stroke:#1f77b4;stroke-opacity:0.8;" x="317.083173" xlink:href="#mae24b0a953" y="32.854489"/>
     <use style="fill:#1f77b4;fill-opacity:0.8;stroke:#1f77b4;stroke-opacity:0.8;" x="367.194712" xlink:href="#mae24b0a953" y="32.854489"/>
     <use style="fill:#1f77b4;fill-opacity:0.8;stroke:#1f77b4;stroke-opacity:0.8;" x="379.722596" xlink:href="#mae24b0a953" y="85.536307"/>
     <use style="fill:#1f77b4;fill-opacity:0.8;stroke:#1f77b4;stroke-opacity:0.8;" x="379.722596" xlink:href="#mae24b0a953" y="85.536307"/>
     <use style="fill:#1f77b4;fill-opacity:0.8;stroke:#1f77b4;stroke-opacity:0.8;" x="317.083173" xlink:href="#mae24b0a953" y="32.854489"/>
     <use style="fill:#1f77b4;fill-opacity:0.8;stroke:#1f77b4;stroke-opacity:0.8;" x="317.083173" xlink:href="#mae24b0a953" y="85.536307"/>
     <use style="fill:#1f77b4;fill-opacity:0.8;stroke:#1f77b4;stroke-opacity:0.8;" x="317.083173" xlink:href="#mae24b0a953" y="85.536307"/>
     <use style="fill:#1f77b4;fill-opacity:0.8;stroke:#1f77b4;stroke-opacity:0.8;" x="379.722596" xlink:href="#mae24b0a953" y="190.899943"/>
     <use style="fill:#1f77b4;fill-opacity:0.8;stroke:#1f77b4;stroke-opacity:0.8;" x="379.722596" xlink:href="#mae24b0a953" y="85.536307"/>
     <use style="fill:#1f77b4;fill-opacity:0.8;stroke:#1f77b4;stroke-opacity:0.8;" x="254.44375" xlink:href="#mae24b0a953" y="138.218125"/>
     <use style="fill:#1f77b4;fill-opacity:0.8;stroke:#1f77b4;stroke-opacity:0.8;" x="329.611058" xlink:href="#mae24b0a953" y="32.854489"/>
     <use style="fill:#1f77b4;fill-opacity:0.8;stroke:#1f77b4;stroke-opacity:0.8;" x="354.666827" xlink:href="#mae24b0a953" y="85.536307"/>
     <use style="fill:#1f77b4;fill-opacity:0.8;stroke:#1f77b4;stroke-opacity:0.8;" x="317.083173" xlink:href="#mae24b0a953" y="85.536307"/>
     <use style="fill:#1f77b4;fill-opacity:0.8;stroke:#1f77b4;stroke-opacity:0.8;" x="342.138942" xlink:href="#mae24b0a953" y="85.536307"/>
     <use style="fill:#1f77b4;fill-opacity:0.8;stroke:#1f77b4;stroke-opacity:0.8;" x="329.611058" xlink:href="#mae24b0a953" y="85.536307"/>
     <use style="fill:#1f77b4;fill-opacity:0.8;stroke:#1f77b4;stroke-opacity:0.8;" x="317.083173" xlink:href="#mae24b0a953" y="32.854489"/>
     <use style="fill:#1f77b4;fill-opacity:0.8;stroke:#1f77b4;stroke-opacity:0.8;" x="367.194712" xlink:href="#mae24b0a953" y="138.218125"/>
     <use style="fill:#1f77b4;fill-opacity:0.8;stroke:#1f77b4;stroke-opacity:0.8;" x="317.083173" xlink:href="#mae24b0a953" y="85.536307"/>
     <use style="fill:#1f77b4;fill-opacity:0.8;stroke:#1f77b4;stroke-opacity:0.8;" x="317.083173" xlink:href="#mae24b0a953" y="32.854489"/>
     <use style="fill:#1f77b4;fill-opacity:0.8;stroke:#1f77b4;stroke-opacity:0.8;" x="317.083173" xlink:href="#mae24b0a953" y="32.854489"/>
     <use style="fill:#1f77b4;fill-opacity:0.8;stroke:#1f77b4;stroke-opacity:0.8;" x="379.722596" xlink:href="#mae24b0a953" y="32.854489"/>
    </g>
   </g>
   <g id="PolyCollection_2">
    <path clip-path="url(#pb282eebfba)" d="M 254.44375 42.562083 
L 254.44375 109.190971 
L 256.088826 108.952233 
L 257.733902 108.652205 
L 259.378977 108.153716 
L 261.024053 107.679347 
L 262.669129 107.148182 
L 264.314205 106.649285 
L 265.95928 106.150389 
L 267.604356 105.647236 
L 269.249432 105.141852 
L 270.894508 104.636468 
L 272.539583 104.131084 
L 274.184659 103.628818 
L 275.829735 103.130329 
L 277.474811 102.631839 
L 279.119886 102.124034 
L 280.764962 101.616094 
L 282.410038 100.91639 
L 284.055114 100.361763 
L 285.700189 100.109372 
L 287.345265 99.667468 
L 288.990341 99.108472 
L 290.635417 98.769665 
L 292.280492 98.152107 
L 293.925568 97.753424 
L 295.570644 97.35474 
L 297.21572 96.949345 
L 298.860795 96.540163 
L 300.505871 95.910397 
L 302.150947 95.719203 
L 303.796023 95.339995 
L 305.441098 94.944405 
L 307.086174 94.714861 
L 308.73125 94.580489 
L 310.376326 94.37373 
L 312.021402 94.203518 
L 313.666477 94.058159 
L 315.311553 93.670327 
L 316.956629 93.22769 
L 318.601705 93.139404 
L 320.24678 92.848393 
L 321.891856 92.451542 
L 323.536932 92.091943 
L 325.182008 91.632722 
L 326.827083 91.425129 
L 328.472159 91.219568 
L 330.117235 91.345781 
L 331.762311 91.210614 
L 333.407386 91.075448 
L 335.052462 91.001776 
L 336.697538 90.800982 
L 338.342614 90.595757 
L 339.987689 90.567699 
L 341.632765 90.402095 
L 343.277841 90.549592 
L 344.922917 90.590521 
L 346.567992 90.592996 
L 348.213068 90.526813 
L 349.858144 90.577629 
L 351.50322 90.867392 
L 353.148295 91.160612 
L 354.793371 91.405399 
L 356.438447 91.567106 
L 358.083523 91.553281 
L 359.728598 91.780177 
L 361.373674 91.970988 
L 363.01875 91.984595 
L 364.663826 92.163103 
L 366.308902 92.360631 
L 367.953977 92.490512 
L 369.599053 92.615139 
L 371.244129 92.721568 
L 372.889205 92.955784 
L 374.53428 93.191646 
L 376.179356 93.423105 
L 377.824432 93.77001 
L 379.469508 93.999194 
L 381.114583 94.411152 
L 382.759659 95.005027 
L 384.404735 95.437801 
L 386.049811 96.016312 
L 387.694886 96.553613 
L 389.339962 97.014435 
L 390.985038 97.475257 
L 392.630114 97.932873 
L 394.275189 98.386526 
L 395.920265 98.796763 
L 397.565341 99.237601 
L 399.210417 99.763976 
L 400.855492 100.279116 
L 402.500568 100.966825 
L 404.145644 101.169501 
L 405.79072 101.774041 
L 407.435795 102.417997 
L 409.080871 103.06068 
L 410.725947 103.695768 
L 412.371023 104.330857 
L 414.016098 104.765791 
L 415.661174 105.114137 
L 417.30625 105.460136 
L 417.30625 44.816268 
L 417.30625 44.816268 
L 415.661174 45.415925 
L 414.016098 46.19384 
L 412.371023 46.85032 
L 410.725947 47.30348 
L 409.080871 47.75664 
L 407.435795 48.2098 
L 405.79072 48.662961 
L 404.145644 49.116121 
L 402.500568 49.569281 
L 400.855492 50.022441 
L 399.210417 50.475601 
L 397.565341 50.925002 
L 395.920265 51.414839 
L 394.275189 52.015137 
L 392.630114 52.67134 
L 390.985038 52.995725 
L 389.339962 53.318303 
L 387.694886 53.638495 
L 386.049811 54.121199 
L 384.404735 54.634315 
L 382.759659 54.994079 
L 381.114583 55.411043 
L 379.469508 55.882348 
L 377.824432 56.207334 
L 376.179356 56.252915 
L 374.53428 56.391475 
L 372.889205 56.732604 
L 371.244129 57.091207 
L 369.599053 57.562607 
L 367.953977 58.037495 
L 366.308902 58.570686 
L 364.663826 58.899569 
L 363.01875 59.018012 
L 361.373674 58.916178 
L 359.728598 58.999951 
L 358.083523 59.092155 
L 356.438447 59.351644 
L 354.793371 59.611469 
L 353.148295 59.633039 
L 351.50322 59.764774 
L 349.858144 59.948858 
L 348.213068 59.98124 
L 346.567992 60.129037 
L 344.922917 60.301653 
L 343.277841 60.379824 
L 341.632765 60.362967 
L 339.987689 60.55635 
L 338.342614 60.80881 
L 336.697538 60.819488 
L 335.052462 60.712632 
L 333.407386 60.560167 
L 331.762311 60.498803 
L 330.117235 60.376325 
L 328.472159 60.098953 
L 326.827083 60.077705 
L 325.182008 59.497994 
L 323.536932 59.207661 
L 321.891856 59.16601 
L 320.24678 59.006953 
L 318.601705 58.81499 
L 316.956629 58.524241 
L 315.311553 58.112507 
L 313.666477 57.690275 
L 312.021402 57.384344 
L 310.376326 57.15317 
L 308.73125 57.16107 
L 307.086174 57.06855 
L 305.441098 56.637281 
L 303.796023 56.254989 
L 302.150947 55.752147 
L 300.505871 55.3067 
L 298.860795 54.867587 
L 297.21572 54.502459 
L 295.570644 54.204784 
L 293.925568 53.90711 
L 292.280492 53.385498 
L 290.635417 52.802303 
L 288.990341 52.424145 
L 287.345265 51.865488 
L 285.700189 51.364658 
L 284.055114 51.147427 
L 282.410038 50.519063 
L 280.764962 50.227294 
L 279.119886 49.803945 
L 277.474811 49.111996 
L 275.829735 48.304059 
L 274.184659 47.603777 
L 272.539583 47.190278 
L 270.894508 46.86676 
L 269.249432 46.543242 
L 267.604356 46.219723 
L 265.95928 45.89626 
L 264.314205 45.574656 
L 262.669129 45.137707 
L 261.024053 44.693443 
L 259.378977 44.24993 
L 257.733902 43.707603 
L 256.088826 43.144903 
L 254.44375 42.562083 
z
" style="fill:#1f77b4;fill-opacity:0.15;"/>
   </g>
   <g id="matplotlib.axis_3">
    <g id="xtick_4">
     <g id="line2d_10">
      <g>
       <use style="stroke:#000000;stroke-width:0.8;" x="292.027404" xlink:href="#mefaa3ba2ff" y="254.118125"/>
      </g>
     </g>
     <g id="text_12">
      <!-- 2 -->
      <g transform="translate(288.846154 268.716562)scale(0.1 -0.1)">
       <use xlink:href="#DejaVuSans-50"/>
      </g>
     </g>
    </g>
    <g id="xtick_5">
     <g id="line2d_11">
      <g>
       <use style="stroke:#000000;stroke-width:0.8;" x="342.138942" xlink:href="#mefaa3ba2ff" y="254.118125"/>
      </g>
     </g>
     <g id="text_13">
      <!-- 3 -->
      <g transform="translate(338.957692 268.716562)scale(0.1 -0.1)">
       <use xlink:href="#DejaVuSans-51"/>
      </g>
     </g>
    </g>
    <g id="xtick_6">
     <g id="line2d_12">
      <g>
       <use style="stroke:#000000;stroke-width:0.8;" x="392.250481" xlink:href="#mefaa3ba2ff" y="254.118125"/>
      </g>
     </g>
     <g id="text_14">
      <!-- 4 -->
      <g transform="translate(389.069231 268.716562)scale(0.1 -0.1)">
       <use xlink:href="#DejaVuSans-52"/>
      </g>
     </g>
    </g>
    <g id="text_15">
     <!-- E -->
     <g transform="translate(332.715625 282.394687)scale(0.1 -0.1)">
      <use xlink:href="#DejaVuSans-69"/>
     </g>
    </g>
   </g>
   <g id="matplotlib.axis_4">
    <g id="ytick_6">
     <g id="line2d_13">
      <g>
       <use style="stroke:#000000;stroke-width:0.8;" x="254.44375" xlink:href="#m88adac9a46" y="243.581761"/>
      </g>
     </g>
     <g id="text_16">
      <!-- 1.0 -->
      <g transform="translate(231.540625 247.38098)scale(0.1 -0.1)">
       <use xlink:href="#DejaVuSans-49"/>
       <use x="63.623047" xlink:href="#DejaVuSans-46"/>
       <use x="95.410156" xlink:href="#DejaVuSans-48"/>
      </g>
     </g>
    </g>
    <g id="ytick_7">
     <g id="line2d_14">
      <g>
       <use style="stroke:#000000;stroke-width:0.8;" x="254.44375" xlink:href="#m88adac9a46" y="217.240852"/>
      </g>
     </g>
     <g id="text_17">
      <!-- 1.5 -->
      <g transform="translate(231.540625 221.040071)scale(0.1 -0.1)">
       <use xlink:href="#DejaVuSans-49"/>
       <use x="63.623047" xlink:href="#DejaVuSans-46"/>
       <use x="95.410156" xlink:href="#DejaVuSans-53"/>
      </g>
     </g>
    </g>
    <g id="ytick_8">
     <g id="line2d_15">
      <g>
       <use style="stroke:#000000;stroke-width:0.8;" x="254.44375" xlink:href="#m88adac9a46" y="190.899943"/>
      </g>
     </g>
     <g id="text_18">
      <!-- 2.0 -->
      <g transform="translate(231.540625 194.699162)scale(0.1 -0.1)">
       <use xlink:href="#DejaVuSans-50"/>
       <use x="63.623047" xlink:href="#DejaVuSans-46"/>
       <use x="95.410156" xlink:href="#DejaVuSans-48"/>
      </g>
     </g>
    </g>
    <g id="ytick_9">
     <g id="line2d_16">
      <g>
       <use style="stroke:#000000;stroke-width:0.8;" x="254.44375" xlink:href="#m88adac9a46" y="164.559034"/>
      </g>
     </g>
     <g id="text_19">
      <!-- 2.5 -->
      <g transform="translate(231.540625 168.358253)scale(0.1 -0.1)">
       <use xlink:href="#DejaVuSans-50"/>
       <use x="63.623047" xlink:href="#DejaVuSans-46"/>
       <use x="95.410156" xlink:href="#DejaVuSans-53"/>
      </g>
     </g>
    </g>
    <g id="ytick_10">
     <g id="line2d_17">
      <g>
       <use style="stroke:#000000;stroke-width:0.8;" x="254.44375" xlink:href="#m88adac9a46" y="138.218125"/>
      </g>
     </g>
     <g id="text_20">
      <!-- 3.0 -->
      <g transform="translate(231.540625 142.017344)scale(0.1 -0.1)">
       <use xlink:href="#DejaVuSans-51"/>
       <use x="63.623047" xlink:href="#DejaVuSans-46"/>
       <use x="95.410156" xlink:href="#DejaVuSans-48"/>
      </g>
     </g>
    </g>
    <g id="ytick_11">
     <g id="line2d_18">
      <g>
       <use style="stroke:#000000;stroke-width:0.8;" x="254.44375" xlink:href="#m88adac9a46" y="111.877216"/>
      </g>
     </g>
     <g id="text_21">
      <!-- 3.5 -->
      <g transform="translate(231.540625 115.676435)scale(0.1 -0.1)">
       <use xlink:href="#DejaVuSans-51"/>
       <use x="63.623047" xlink:href="#DejaVuSans-46"/>
       <use x="95.410156" xlink:href="#DejaVuSans-53"/>
      </g>
     </g>
    </g>
    <g id="ytick_12">
     <g id="line2d_19">
      <g>
       <use style="stroke:#000000;stroke-width:0.8;" x="254.44375" xlink:href="#m88adac9a46" y="85.536307"/>
      </g>
     </g>
     <g id="text_22">
      <!-- 4.0 -->
      <g transform="translate(231.540625 89.335526)scale(0.1 -0.1)">
       <use xlink:href="#DejaVuSans-52"/>
       <use x="63.623047" xlink:href="#DejaVuSans-46"/>
       <use x="95.410156" xlink:href="#DejaVuSans-48"/>
      </g>
     </g>
    </g>
    <g id="ytick_13">
     <g id="line2d_20">
      <g>
       <use style="stroke:#000000;stroke-width:0.8;" x="254.44375" xlink:href="#m88adac9a46" y="59.195398"/>
      </g>
     </g>
     <g id="text_23">
      <!-- 4.5 -->
      <g transform="translate(231.540625 62.994616)scale(0.1 -0.1)">
       <use xlink:href="#DejaVuSans-52"/>
       <use x="63.623047" xlink:href="#DejaVuSans-46"/>
       <use x="95.410156" xlink:href="#DejaVuSans-53"/>
      </g>
     </g>
    </g>
    <g id="ytick_14">
     <g id="line2d_21">
      <g>
       <use style="stroke:#000000;stroke-width:0.8;" x="254.44375" xlink:href="#m88adac9a46" y="32.854489"/>
      </g>
     </g>
     <g id="text_24">
      <!-- 5.0 -->
      <g transform="translate(231.540625 36.653707)scale(0.1 -0.1)">
       <use xlink:href="#DejaVuSans-53"/>
       <use x="63.623047" xlink:href="#DejaVuSans-46"/>
       <use x="95.410156" xlink:href="#DejaVuSans-48"/>
      </g>
     </g>
    </g>
    <g id="text_25">
     <!-- Trust1 -->
     <g transform="translate(225.460938 153.504844)rotate(-90)scale(0.1 -0.1)">
      <use xlink:href="#DejaVuSans-84"/>
      <use x="46.333984" xlink:href="#DejaVuSans-114"/>
      <use x="87.447266" xlink:href="#DejaVuSans-117"/>
      <use x="150.826172" xlink:href="#DejaVuSans-115"/>
      <use x="202.925781" xlink:href="#DejaVuSans-116"/>
      <use x="242.134766" xlink:href="#DejaVuSans-49"/>
     </g>
    </g>
   </g>
   <g id="line2d_22">
    <path clip-path="url(#pb282eebfba)" d="M 254.44375 79.86309 
L 256.088826 79.780714 
L 257.733902 79.698338 
L 259.378977 79.615961 
L 261.024053 79.533585 
L 262.669129 79.451209 
L 264.314205 79.368833 
L 265.95928 79.286456 
L 267.604356 79.20408 
L 269.249432 79.121704 
L 270.894508 79.039328 
L 272.539583 78.956951 
L 274.184659 78.874575 
L 275.829735 78.792199 
L 277.474811 78.709823 
L 279.119886 78.627446 
L 280.764962 78.54507 
L 282.410038 78.462694 
L 284.055114 78.380317 
L 285.700189 78.297941 
L 287.345265 78.215565 
L 288.990341 78.133189 
L 290.635417 78.050812 
L 292.280492 77.968436 
L 293.925568 77.88606 
L 295.570644 77.803684 
L 297.21572 77.721307 
L 298.860795 77.638931 
L 300.505871 77.556555 
L 302.150947 77.474179 
L 303.796023 77.391802 
L 305.441098 77.309426 
L 307.086174 77.22705 
L 308.73125 77.144674 
L 310.376326 77.062297 
L 312.021402 76.979921 
L 313.666477 76.897545 
L 315.311553 76.815169 
L 316.956629 76.732792 
L 318.601705 76.650416 
L 320.24678 76.56804 
L 321.891856 76.485664 
L 323.536932 76.403287 
L 325.182008 76.320911 
L 326.827083 76.238535 
L 328.472159 76.156159 
L 330.117235 76.073782 
L 331.762311 75.991406 
L 333.407386 75.90903 
L 335.052462 75.826654 
L 336.697538 75.744277 
L 338.342614 75.661901 
L 339.987689 75.579525 
L 341.632765 75.497149 
L 343.277841 75.414772 
L 344.922917 75.332396 
L 346.567992 75.25002 
L 348.213068 75.167644 
L 349.858144 75.085267 
L 351.50322 75.002891 
L 353.148295 74.920515 
L 354.793371 74.838139 
L 356.438447 74.755762 
L 358.083523 74.673386 
L 359.728598 74.59101 
L 361.373674 74.508634 
L 363.01875 74.426257 
L 364.663826 74.343881 
L 366.308902 74.261505 
L 367.953977 74.179129 
L 369.599053 74.096752 
L 371.244129 74.014376 
L 372.889205 73.932 
L 374.53428 73.849624 
L 376.179356 73.767247 
L 377.824432 73.684871 
L 379.469508 73.602495 
L 381.114583 73.520119 
L 382.759659 73.437742 
L 384.404735 73.355366 
L 386.049811 73.27299 
L 387.694886 73.190614 
L 389.339962 73.108237 
L 390.985038 73.025861 
L 392.630114 72.943485 
L 394.275189 72.861109 
L 395.920265 72.778732 
L 397.565341 72.696356 
L 399.210417 72.61398 
L 400.855492 72.531603 
L 402.500568 72.449227 
L 404.145644 72.366851 
L 405.79072 72.284475 
L 407.435795 72.202098 
L 409.080871 72.119722 
L 410.725947 72.037346 
L 412.371023 71.95497 
L 414.016098 71.872593 
L 415.661174 71.790217 
L 417.30625 71.707841 
" style="fill:none;stroke:#1f77b4;stroke-linecap:square;stroke-width:2.25;"/>
   </g>
   <g id="patch_8">
    <path d="M 254.44375 254.118125 
L 254.44375 22.318125 
" style="fill:none;stroke:#000000;stroke-linecap:square;stroke-linejoin:miter;stroke-width:0.8;"/>
   </g>
   <g id="patch_9">
    <path d="M 417.30625 254.118125 
L 417.30625 22.318125 
" style="fill:none;stroke:#000000;stroke-linecap:square;stroke-linejoin:miter;stroke-width:0.8;"/>
   </g>
   <g id="patch_10">
    <path d="M 254.44375 254.118125 
L 417.30625 254.118125 
" style="fill:none;stroke:#000000;stroke-linecap:square;stroke-linejoin:miter;stroke-width:0.8;"/>
   </g>
   <g id="patch_11">
    <path d="M 254.44375 22.318125 
L 417.30625 22.318125 
" style="fill:none;stroke:#000000;stroke-linecap:square;stroke-linejoin:miter;stroke-width:0.8;"/>
   </g>
   <g id="text_26">
    <!-- Group B -->
    <g transform="translate(254.44375 16.318125)scale(0.12 -0.12)">
     <defs>
      <path d="M 19.671875 34.8125 
L 19.671875 8.109375 
L 35.5 8.109375 
Q 43.453125 8.109375 47.28125 11.40625 
Q 51.125 14.703125 51.125 21.484375 
Q 51.125 28.328125 47.28125 31.5625 
Q 43.453125 34.8125 35.5 34.8125 
z
M 19.671875 64.796875 
L 19.671875 42.828125 
L 34.28125 42.828125 
Q 41.5 42.828125 45.03125 45.53125 
Q 48.578125 48.25 48.578125 53.8125 
Q 48.578125 59.328125 45.03125 62.0625 
Q 41.5 64.796875 34.28125 64.796875 
z
M 9.8125 72.90625 
L 35.015625 72.90625 
Q 46.296875 72.90625 52.390625 68.21875 
Q 58.5 63.53125 58.5 54.890625 
Q 58.5 48.1875 55.375 44.234375 
Q 52.25 40.28125 46.1875 39.3125 
Q 53.46875 37.75 57.5 32.78125 
Q 61.53125 27.828125 61.53125 20.40625 
Q 61.53125 10.640625 54.890625 5.3125 
Q 48.25 0 35.984375 0 
L 9.8125 0 
z
" id="DejaVuSans-66"/>
     </defs>
     <use xlink:href="#DejaVuSans-71"/>
     <use x="77.490234" xlink:href="#DejaVuSans-114"/>
     <use x="116.353516" xlink:href="#DejaVuSans-111"/>
     <use x="177.535156" xlink:href="#DejaVuSans-117"/>
     <use x="240.914062" xlink:href="#DejaVuSans-112"/>
     <use x="304.390625" xlink:href="#DejaVuSans-32"/>
     <use x="336.177734" xlink:href="#DejaVuSans-66"/>
    </g>
   </g>
  </g>
  <g id="text_27">
   <!-- The bike chatbot seemed to care about me. -->
   <g transform="translate(80.57875 22.79625)scale(0.12 -0.12)">
    <defs>
     <path d="M 54.890625 33.015625 
L 54.890625 0 
L 45.90625 0 
L 45.90625 32.71875 
Q 45.90625 40.484375 42.875 44.328125 
Q 39.84375 48.1875 33.796875 48.1875 
Q 26.515625 48.1875 22.3125 43.546875 
Q 18.109375 38.921875 18.109375 30.90625 
L 18.109375 0 
L 9.078125 0 
L 9.078125 75.984375 
L 18.109375 75.984375 
L 18.109375 46.1875 
Q 21.34375 51.125 25.703125 53.5625 
Q 30.078125 56 35.796875 56 
Q 45.21875 56 50.046875 50.171875 
Q 54.890625 44.34375 54.890625 33.015625 
z
" id="DejaVuSans-104"/>
     <path d="M 56.203125 29.59375 
L 56.203125 25.203125 
L 14.890625 25.203125 
Q 15.484375 15.921875 20.484375 11.0625 
Q 25.484375 6.203125 34.421875 6.203125 
Q 39.59375 6.203125 44.453125 7.46875 
Q 49.3125 8.734375 54.109375 11.28125 
L 54.109375 2.78125 
Q 49.265625 0.734375 44.1875 -0.34375 
Q 39.109375 -1.421875 33.890625 -1.421875 
Q 20.796875 -1.421875 13.15625 6.1875 
Q 5.515625 13.8125 5.515625 26.8125 
Q 5.515625 40.234375 12.765625 48.109375 
Q 20.015625 56 32.328125 56 
Q 43.359375 56 49.78125 48.890625 
Q 56.203125 41.796875 56.203125 29.59375 
z
M 47.21875 32.234375 
Q 47.125 39.59375 43.09375 43.984375 
Q 39.0625 48.390625 32.421875 48.390625 
Q 24.90625 48.390625 20.390625 44.140625 
Q 15.875 39.890625 15.1875 32.171875 
z
" id="DejaVuSans-101"/>
     <path d="M 48.6875 27.296875 
Q 48.6875 37.203125 44.609375 42.84375 
Q 40.53125 48.484375 33.40625 48.484375 
Q 26.265625 48.484375 22.1875 42.84375 
Q 18.109375 37.203125 18.109375 27.296875 
Q 18.109375 17.390625 22.1875 11.75 
Q 26.265625 6.109375 33.40625 6.109375 
Q 40.53125 6.109375 44.609375 11.75 
Q 48.6875 17.390625 48.6875 27.296875 
z
M 18.109375 46.390625 
Q 20.953125 51.265625 25.265625 53.625 
Q 29.59375 56 35.59375 56 
Q 45.5625 56 51.78125 48.09375 
Q 58.015625 40.1875 58.015625 27.296875 
Q 58.015625 14.40625 51.78125 6.484375 
Q 45.5625 -1.421875 35.59375 -1.421875 
Q 29.59375 -1.421875 25.265625 0.953125 
Q 20.953125 3.328125 18.109375 8.203125 
L 18.109375 0 
L 9.078125 0 
L 9.078125 75.984375 
L 18.109375 75.984375 
z
" id="DejaVuSans-98"/>
     <path d="M 9.421875 54.6875 
L 18.40625 54.6875 
L 18.40625 0 
L 9.421875 0 
z
M 9.421875 75.984375 
L 18.40625 75.984375 
L 18.40625 64.59375 
L 9.421875 64.59375 
z
" id="DejaVuSans-105"/>
     <path d="M 9.078125 75.984375 
L 18.109375 75.984375 
L 18.109375 31.109375 
L 44.921875 54.6875 
L 56.390625 54.6875 
L 27.390625 29.109375 
L 57.625 0 
L 45.90625 0 
L 18.109375 26.703125 
L 18.109375 0 
L 9.078125 0 
z
" id="DejaVuSans-107"/>
     <path d="M 48.78125 52.59375 
L 48.78125 44.1875 
Q 44.96875 46.296875 41.140625 47.34375 
Q 37.3125 48.390625 33.40625 48.390625 
Q 24.65625 48.390625 19.8125 42.84375 
Q 14.984375 37.3125 14.984375 27.296875 
Q 14.984375 17.28125 19.8125 11.734375 
Q 24.65625 6.203125 33.40625 6.203125 
Q 37.3125 6.203125 41.140625 7.25 
Q 44.96875 8.296875 48.78125 10.40625 
L 48.78125 2.09375 
Q 45.015625 0.34375 40.984375 -0.53125 
Q 36.96875 -1.421875 32.421875 -1.421875 
Q 20.0625 -1.421875 12.78125 6.34375 
Q 5.515625 14.109375 5.515625 27.296875 
Q 5.515625 40.671875 12.859375 48.328125 
Q 20.21875 56 33.015625 56 
Q 37.15625 56 41.109375 55.140625 
Q 45.0625 54.296875 48.78125 52.59375 
z
" id="DejaVuSans-99"/>
     <path d="M 34.28125 27.484375 
Q 23.390625 27.484375 19.1875 25 
Q 14.984375 22.515625 14.984375 16.5 
Q 14.984375 11.71875 18.140625 8.90625 
Q 21.296875 6.109375 26.703125 6.109375 
Q 34.1875 6.109375 38.703125 11.40625 
Q 43.21875 16.703125 43.21875 25.484375 
L 43.21875 27.484375 
z
M 52.203125 31.203125 
L 52.203125 0 
L 43.21875 0 
L 43.21875 8.296875 
Q 40.140625 3.328125 35.546875 0.953125 
Q 30.953125 -1.421875 24.3125 -1.421875 
Q 15.921875 -1.421875 10.953125 3.296875 
Q 6 8.015625 6 15.921875 
Q 6 25.140625 12.171875 29.828125 
Q 18.359375 34.515625 30.609375 34.515625 
L 43.21875 34.515625 
L 43.21875 35.40625 
Q 43.21875 41.609375 39.140625 45 
Q 35.0625 48.390625 27.6875 48.390625 
Q 23 48.390625 18.546875 47.265625 
Q 14.109375 46.140625 10.015625 43.890625 
L 10.015625 52.203125 
Q 14.9375 54.109375 19.578125 55.046875 
Q 24.21875 56 28.609375 56 
Q 40.484375 56 46.34375 49.84375 
Q 52.203125 43.703125 52.203125 31.203125 
z
" id="DejaVuSans-97"/>
     <path d="M 52 44.1875 
Q 55.375 50.25 60.0625 53.125 
Q 64.75 56 71.09375 56 
Q 79.640625 56 84.28125 50.015625 
Q 88.921875 44.046875 88.921875 33.015625 
L 88.921875 0 
L 79.890625 0 
L 79.890625 32.71875 
Q 79.890625 40.578125 77.09375 44.375 
Q 74.3125 48.1875 68.609375 48.1875 
Q 61.625 48.1875 57.5625 43.546875 
Q 53.515625 38.921875 53.515625 30.90625 
L 53.515625 0 
L 44.484375 0 
L 44.484375 32.71875 
Q 44.484375 40.625 41.703125 44.40625 
Q 38.921875 48.1875 33.109375 48.1875 
Q 26.21875 48.1875 22.15625 43.53125 
Q 18.109375 38.875 18.109375 30.90625 
L 18.109375 0 
L 9.078125 0 
L 9.078125 54.6875 
L 18.109375 54.6875 
L 18.109375 46.1875 
Q 21.1875 51.21875 25.484375 53.609375 
Q 29.78125 56 35.6875 56 
Q 41.65625 56 45.828125 52.96875 
Q 50 49.953125 52 44.1875 
z
" id="DejaVuSans-109"/>
     <path d="M 45.40625 46.390625 
L 45.40625 75.984375 
L 54.390625 75.984375 
L 54.390625 0 
L 45.40625 0 
L 45.40625 8.203125 
Q 42.578125 3.328125 38.25 0.953125 
Q 33.9375 -1.421875 27.875 -1.421875 
Q 17.96875 -1.421875 11.734375 6.484375 
Q 5.515625 14.40625 5.515625 27.296875 
Q 5.515625 40.1875 11.734375 48.09375 
Q 17.96875 56 27.875 56 
Q 33.9375 56 38.25 53.625 
Q 42.578125 51.265625 45.40625 46.390625 
z
M 14.796875 27.296875 
Q 14.796875 17.390625 18.875 11.75 
Q 22.953125 6.109375 30.078125 6.109375 
Q 37.203125 6.109375 41.296875 11.75 
Q 45.40625 17.390625 45.40625 27.296875 
Q 45.40625 37.203125 41.296875 42.84375 
Q 37.203125 48.484375 30.078125 48.484375 
Q 22.953125 48.484375 18.875 42.84375 
Q 14.796875 37.203125 14.796875 27.296875 
z
" id="DejaVuSans-100"/>
    </defs>
    <use xlink:href="#DejaVuSans-84"/>
    <use x="61.083984" xlink:href="#DejaVuSans-104"/>
    <use x="124.462891" xlink:href="#DejaVuSans-101"/>
    <use x="185.986328" xlink:href="#DejaVuSans-32"/>
    <use x="217.773438" xlink:href="#DejaVuSans-98"/>
    <use x="281.25" xlink:href="#DejaVuSans-105"/>
    <use x="309.033203" xlink:href="#DejaVuSans-107"/>
    <use x="363.318359" xlink:href="#DejaVuSans-101"/>
    <use x="424.841797" xlink:href="#DejaVuSans-32"/>
    <use x="456.628906" xlink:href="#DejaVuSans-99"/>
    <use x="511.609375" xlink:href="#DejaVuSans-104"/>
    <use x="574.988281" xlink:href="#DejaVuSans-97"/>
    <use x="636.267578" xlink:href="#DejaVuSans-116"/>
    <use x="675.476562" xlink:href="#DejaVuSans-98"/>
    <use x="738.953125" xlink:href="#DejaVuSans-111"/>
    <use x="800.134766" xlink:href="#DejaVuSans-116"/>
    <use x="839.34375" xlink:href="#DejaVuSans-32"/>
    <use x="871.130859" xlink:href="#DejaVuSans-115"/>
    <use x="923.230469" xlink:href="#DejaVuSans-101"/>
    <use x="984.753906" xlink:href="#DejaVuSans-101"/>
    <use x="1046.277344" xlink:href="#DejaVuSans-109"/>
    <use x="1143.689453" xlink:href="#DejaVuSans-101"/>
    <use x="1205.212891" xlink:href="#DejaVuSans-100"/>
    <use x="1268.689453" xlink:href="#DejaVuSans-32"/>
    <use x="1300.476562" xlink:href="#DejaVuSans-116"/>
    <use x="1339.685547" xlink:href="#DejaVuSans-111"/>
    <use x="1400.867188" xlink:href="#DejaVuSans-32"/>
    <use x="1432.654297" xlink:href="#DejaVuSans-99"/>
    <use x="1487.634766" xlink:href="#DejaVuSans-97"/>
    <use x="1548.914062" xlink:href="#DejaVuSans-114"/>
    <use x="1587.777344" xlink:href="#DejaVuSans-101"/>
    <use x="1649.300781" xlink:href="#DejaVuSans-32"/>
    <use x="1681.087891" xlink:href="#DejaVuSans-97"/>
    <use x="1742.367188" xlink:href="#DejaVuSans-98"/>
    <use x="1805.84375" xlink:href="#DejaVuSans-111"/>
    <use x="1867.025391" xlink:href="#DejaVuSans-117"/>
    <use x="1930.404297" xlink:href="#DejaVuSans-116"/>
    <use x="1969.613281" xlink:href="#DejaVuSans-32"/>
    <use x="2001.400391" xlink:href="#DejaVuSans-109"/>
    <use x="2098.8125" xlink:href="#DejaVuSans-101"/>
    <use x="2160.335938" xlink:href="#DejaVuSans-46"/>
   </g>
  </g>
 </g>
 <defs>
  <clipPath id="p706c21cd5e">
   <rect height="231.8" width="162.8625" x="43.78125" y="22.318125"/>
  </clipPath>
  <clipPath id="pb282eebfba">
   <rect height="231.8" width="162.8625" x="254.44375" y="22.318125"/>
  </clipPath>
 </defs>
</svg>
