<?xml version="1.0" encoding="utf-8" standalone="no"?>
<!DOCTYPE svg PUBLIC "-//W3C//DTD SVG 1.1//EN"
  "http://www.w3.org/Graphics/SVG/1.1/DTD/svg11.dtd">
<!-- Created with matplotlib (https://matplotlib.org/) -->
<svg height="291.674375pt" version="1.1" viewBox="0 0 424.50625 291.674375" width="424.50625pt" xmlns="http://www.w3.org/2000/svg" xmlns:xlink="http://www.w3.org/1999/xlink">
 <metadata>
  <rdf:RDF xmlns:cc="http://creativecommons.org/ns#" xmlns:dc="http://purl.org/dc/elements/1.1/" xmlns:rdf="http://www.w3.org/1999/02/22-rdf-syntax-ns#">
   <cc:Work>
    <dc:type rdf:resource="http://purl.org/dc/dcmitype/StillImage"/>
    <dc:date>2021-02-20T15:29:25.365205</dc:date>
    <dc:format>image/svg+xml</dc:format>
    <dc:creator>
     <cc:Agent>
      <dc:title>Matplotlib v3.3.2, https://matplotlib.org/</dc:title>
     </cc:Agent>
    </dc:creator>
   </cc:Work>
  </rdf:RDF>
 </metadata>
 <defs>
  <style type="text/css">*{stroke-linecap:butt;stroke-linejoin:round;}</style>
 </defs>
 <g id="figure_1">
  <g id="patch_1">
   <path d="M 0 291.674375 
L 424.50625 291.674375 
L 424.50625 0 
L 0 0 
z
" style="fill:none;"/>
  </g>
  <g id="axes_1">
   <g id="patch_2">
    <path d="M 43.78125 254.118125 
L 206.64375 254.118125 
L 206.64375 22.318125 
L 43.78125 22.318125 
z
" style="fill:#ffffff;"/>
   </g>
   <g id="PathCollection_1">
    <defs>
     <path d="M 0 3 
C 0.795609 3 1.55874 2.683901 2.12132 2.12132 
C 2.683901 1.55874 3 0.795609 3 0 
C 3 -0.795609 2.683901 -1.55874 2.12132 -2.12132 
C 1.55874 -2.683901 0.795609 -3 0 -3 
C -0.795609 -3 -1.55874 -2.683901 -2.12132 -2.12132 
C -2.683901 -1.55874 -3 -0.795609 -3 0 
C -3 0.795609 -2.683901 1.55874 -2.12132 2.12132 
C -1.55874 2.683901 -0.795609 3 0 3 
z
" id="m3237efd4d1" style="stroke:#1f77b4;stroke-opacity:0.8;"/>
    </defs>
    <g clip-path="url(#p6f291346a2)">
     <use style="fill:#1f77b4;fill-opacity:0.8;stroke:#1f77b4;stroke-opacity:0.8;" x="144.004327" xlink:href="#m3237efd4d1" y="152.604617"/>
     <use style="fill:#1f77b4;fill-opacity:0.8;stroke:#1f77b4;stroke-opacity:0.8;" x="68.837019" xlink:href="#m3237efd4d1" y="152.604617"/>
     <use style="fill:#1f77b4;fill-opacity:0.8;stroke:#1f77b4;stroke-opacity:0.8;" x="81.364904" xlink:href="#m3237efd4d1" y="152.604617"/>
     <use style="fill:#1f77b4;fill-opacity:0.8;stroke:#1f77b4;stroke-opacity:0.8;" x="144.004327" xlink:href="#m3237efd4d1" y="61.627473"/>
     <use style="fill:#1f77b4;fill-opacity:0.8;stroke:#1f77b4;stroke-opacity:0.8;" x="169.060096" xlink:href="#m3237efd4d1" y="61.627473"/>
     <use style="fill:#1f77b4;fill-opacity:0.8;stroke:#1f77b4;stroke-opacity:0.8;" x="131.476442" xlink:href="#m3237efd4d1" y="152.604617"/>
     <use style="fill:#1f77b4;fill-opacity:0.8;stroke:#1f77b4;stroke-opacity:0.8;" x="181.587981" xlink:href="#m3237efd4d1" y="61.627473"/>
     <use style="fill:#1f77b4;fill-opacity:0.8;stroke:#1f77b4;stroke-opacity:0.8;" x="131.476442" xlink:href="#m3237efd4d1" y="152.604617"/>
     <use style="fill:#1f77b4;fill-opacity:0.8;stroke:#1f77b4;stroke-opacity:0.8;" x="81.364904" xlink:href="#m3237efd4d1" y="152.604617"/>
     <use style="fill:#1f77b4;fill-opacity:0.8;stroke:#1f77b4;stroke-opacity:0.8;" x="118.948558" xlink:href="#m3237efd4d1" y="61.627473"/>
     <use style="fill:#1f77b4;fill-opacity:0.8;stroke:#1f77b4;stroke-opacity:0.8;" x="118.948558" xlink:href="#m3237efd4d1" y="152.604617"/>
     <use style="fill:#1f77b4;fill-opacity:0.8;stroke:#1f77b4;stroke-opacity:0.8;" x="169.060096" xlink:href="#m3237efd4d1" y="61.627473"/>
     <use style="fill:#1f77b4;fill-opacity:0.8;stroke:#1f77b4;stroke-opacity:0.8;" x="93.892788" xlink:href="#m3237efd4d1" y="61.627473"/>
     <use style="fill:#1f77b4;fill-opacity:0.8;stroke:#1f77b4;stroke-opacity:0.8;" x="131.476442" xlink:href="#m3237efd4d1" y="152.604617"/>
     <use style="fill:#1f77b4;fill-opacity:0.8;stroke:#1f77b4;stroke-opacity:0.8;" x="131.476442" xlink:href="#m3237efd4d1" y="152.604617"/>
     <use style="fill:#1f77b4;fill-opacity:0.8;stroke:#1f77b4;stroke-opacity:0.8;" x="156.532212" xlink:href="#m3237efd4d1" y="152.604617"/>
     <use style="fill:#1f77b4;fill-opacity:0.8;stroke:#1f77b4;stroke-opacity:0.8;" x="118.948558" xlink:href="#m3237efd4d1" y="61.627473"/>
     <use style="fill:#1f77b4;fill-opacity:0.8;stroke:#1f77b4;stroke-opacity:0.8;" x="106.420673" xlink:href="#m3237efd4d1" y="152.604617"/>
     <use style="fill:#1f77b4;fill-opacity:0.8;stroke:#1f77b4;stroke-opacity:0.8;" x="156.532212" xlink:href="#m3237efd4d1" y="152.604617"/>
     <use style="fill:#1f77b4;fill-opacity:0.8;stroke:#1f77b4;stroke-opacity:0.8;" x="43.78125" xlink:href="#m3237efd4d1" y="243.581761"/>
     <use style="fill:#1f77b4;fill-opacity:0.8;stroke:#1f77b4;stroke-opacity:0.8;" x="93.892788" xlink:href="#m3237efd4d1" y="152.604617"/>
     <use style="fill:#1f77b4;fill-opacity:0.8;stroke:#1f77b4;stroke-opacity:0.8;" x="206.64375" xlink:href="#m3237efd4d1" y="61.627473"/>
     <use style="fill:#1f77b4;fill-opacity:0.8;stroke:#1f77b4;stroke-opacity:0.8;" x="118.948558" xlink:href="#m3237efd4d1" y="61.627473"/>
     <use style="fill:#1f77b4;fill-opacity:0.8;stroke:#1f77b4;stroke-opacity:0.8;" x="118.948558" xlink:href="#m3237efd4d1" y="61.627473"/>
     <use style="fill:#1f77b4;fill-opacity:0.8;stroke:#1f77b4;stroke-opacity:0.8;" x="118.948558" xlink:href="#m3237efd4d1" y="152.604617"/>
     <use style="fill:#1f77b4;fill-opacity:0.8;stroke:#1f77b4;stroke-opacity:0.8;" x="118.948558" xlink:href="#m3237efd4d1" y="152.604617"/>
     <use style="fill:#1f77b4;fill-opacity:0.8;stroke:#1f77b4;stroke-opacity:0.8;" x="106.420673" xlink:href="#m3237efd4d1" y="152.604617"/>
     <use style="fill:#1f77b4;fill-opacity:0.8;stroke:#1f77b4;stroke-opacity:0.8;" x="93.892788" xlink:href="#m3237efd4d1" y="152.604617"/>
     <use style="fill:#1f77b4;fill-opacity:0.8;stroke:#1f77b4;stroke-opacity:0.8;" x="106.420673" xlink:href="#m3237efd4d1" y="243.581761"/>
     <use style="fill:#1f77b4;fill-opacity:0.8;stroke:#1f77b4;stroke-opacity:0.8;" x="118.948558" xlink:href="#m3237efd4d1" y="152.604617"/>
     <use style="fill:#1f77b4;fill-opacity:0.8;stroke:#1f77b4;stroke-opacity:0.8;" x="118.948558" xlink:href="#m3237efd4d1" y="152.604617"/>
     <use style="fill:#1f77b4;fill-opacity:0.8;stroke:#1f77b4;stroke-opacity:0.8;" x="93.892788" xlink:href="#m3237efd4d1" y="61.627473"/>
     <use style="fill:#1f77b4;fill-opacity:0.8;stroke:#1f77b4;stroke-opacity:0.8;" x="131.476442" xlink:href="#m3237efd4d1" y="61.627473"/>
     <use style="fill:#1f77b4;fill-opacity:0.8;stroke:#1f77b4;stroke-opacity:0.8;" x="131.476442" xlink:href="#m3237efd4d1" y="152.604617"/>
     <use style="fill:#1f77b4;fill-opacity:0.8;stroke:#1f77b4;stroke-opacity:0.8;" x="106.420673" xlink:href="#m3237efd4d1" y="152.604617"/>
     <use style="fill:#1f77b4;fill-opacity:0.8;stroke:#1f77b4;stroke-opacity:0.8;" x="106.420673" xlink:href="#m3237efd4d1" y="152.604617"/>
     <use style="fill:#1f77b4;fill-opacity:0.8;stroke:#1f77b4;stroke-opacity:0.8;" x="93.892788" xlink:href="#m3237efd4d1" y="243.581761"/>
     <use style="fill:#1f77b4;fill-opacity:0.8;stroke:#1f77b4;stroke-opacity:0.8;" x="118.948558" xlink:href="#m3237efd4d1" y="61.627473"/>
     <use style="fill:#1f77b4;fill-opacity:0.8;stroke:#1f77b4;stroke-opacity:0.8;" x="106.420673" xlink:href="#m3237efd4d1" y="61.627473"/>
     <use style="fill:#1f77b4;fill-opacity:0.8;stroke:#1f77b4;stroke-opacity:0.8;" x="93.892788" xlink:href="#m3237efd4d1" y="152.604617"/>
     <use style="fill:#1f77b4;fill-opacity:0.8;stroke:#1f77b4;stroke-opacity:0.8;" x="56.309135" xlink:href="#m3237efd4d1" y="61.627473"/>
    </g>
   </g>
   <g id="PolyCollection_1">
    <path clip-path="url(#p6f291346a2)" d="M 43.78125 129.862865 
L 43.78125 216.114874 
L 45.426326 214.27079 
L 47.071402 212.768595 
L 48.716477 211.291549 
L 50.361553 209.752346 
L 52.006629 207.976841 
L 53.651705 206.152313 
L 55.29678 204.318961 
L 56.941856 202.764664 
L 58.586932 200.869632 
L 60.232008 199.033184 
L 61.877083 197.437576 
L 63.522159 195.841967 
L 65.167235 194.246358 
L 66.812311 192.65075 
L 68.457386 190.922339 
L 70.102462 189.129594 
L 71.747538 187.331942 
L 73.392614 185.533844 
L 75.037689 183.935679 
L 76.682765 182.272376 
L 78.327841 180.526881 
L 79.972917 178.80445 
L 81.617992 176.88545 
L 83.263068 175.062506 
L 84.908144 173.270735 
L 86.55322 171.601321 
L 88.198295 169.940269 
L 89.843371 168.281924 
L 91.488447 166.755253 
L 93.133523 164.952287 
L 94.778598 163.329835 
L 96.423674 161.833671 
L 98.06875 160.222429 
L 99.713826 158.374416 
L 101.358902 156.631612 
L 103.003977 154.969376 
L 104.649053 153.433365 
L 106.294129 151.678479 
L 107.939205 150.448876 
L 109.58428 149.348138 
L 111.229356 148.242742 
L 112.874432 146.754589 
L 114.519508 145.307318 
L 116.164583 143.759725 
L 117.809659 142.442917 
L 119.454735 141.05216 
L 121.099811 139.740207 
L 122.744886 138.572011 
L 124.389962 137.496407 
L 126.035038 136.118048 
L 127.680114 135.17841 
L 129.325189 133.858561 
L 130.970265 133.008259 
L 132.615341 131.88476 
L 134.260417 130.761993 
L 135.905492 129.947605 
L 137.550568 129.350184 
L 139.195644 128.354729 
L 140.84072 127.854527 
L 142.485795 127.453705 
L 144.130871 126.746317 
L 145.775947 126.267423 
L 147.421023 125.653716 
L 149.066098 125.191949 
L 150.711174 124.744937 
L 152.35625 124.34207 
L 154.001326 124.098796 
L 155.646402 123.804364 
L 157.291477 123.253312 
L 158.936553 122.859496 
L 160.581629 122.507294 
L 162.226705 122.439102 
L 163.87178 122.274032 
L 165.516856 121.878288 
L 167.161932 121.586769 
L 168.807008 121.472167 
L 170.452083 121.057314 
L 172.097159 120.829061 
L 173.742235 120.606567 
L 175.387311 120.456527 
L 177.032386 120.365652 
L 178.677462 120.130691 
L 180.322538 119.839328 
L 181.967614 119.491189 
L 183.612689 119.016198 
L 185.257765 118.556876 
L 186.902841 118.11734 
L 188.547917 117.635787 
L 190.192992 117.154233 
L 191.838068 116.67268 
L 193.483144 116.191127 
L 195.12822 115.714566 
L 196.773295 115.243758 
L 198.418371 114.77295 
L 200.063447 114.302143 
L 201.708523 113.831335 
L 203.353598 113.555701 
L 204.998674 113.334704 
L 206.64375 113.113706 
L 206.64375 32.854489 
L 206.64375 32.854489 
L 204.998674 34.609756 
L 203.353598 36.386205 
L 201.708523 38.205286 
L 200.063447 39.987116 
L 198.418371 41.385631 
L 196.773295 43.23031 
L 195.12822 45.18184 
L 193.483144 47.114434 
L 191.838068 48.896263 
L 190.192992 50.678093 
L 188.547917 52.283655 
L 186.902841 53.852268 
L 185.257765 55.496194 
L 183.612689 57.455919 
L 181.967614 59.065274 
L 180.322538 60.633527 
L 178.677462 62.201779 
L 177.032386 63.770032 
L 175.387311 65.338284 
L 173.742235 66.908096 
L 172.097159 68.738587 
L 170.452083 70.277892 
L 168.807008 71.844374 
L 167.161932 73.443335 
L 165.516856 75.162691 
L 163.87178 76.923481 
L 162.226705 78.74823 
L 160.581629 80.511767 
L 158.936553 82.001868 
L 157.291477 83.256172 
L 155.646402 84.504385 
L 154.001326 85.75979 
L 152.35625 87.081874 
L 150.711174 88.505575 
L 149.066098 89.973738 
L 147.421023 91.417643 
L 145.775947 92.910419 
L 144.130871 94.162243 
L 142.485795 95.420034 
L 140.84072 96.864258 
L 139.195644 98.014185 
L 137.550568 99.039759 
L 135.905492 100.0805 
L 134.260417 101.12037 
L 132.615341 102.066481 
L 130.970265 103.28235 
L 129.325189 104.342277 
L 127.680114 105.17788 
L 126.035038 105.960279 
L 124.389962 106.637928 
L 122.744886 107.34789 
L 121.099811 108.35084 
L 119.454735 109.009822 
L 117.809659 110.198433 
L 116.164583 110.720392 
L 114.519508 111.484287 
L 112.874432 111.933083 
L 111.229356 112.626575 
L 109.58428 113.280482 
L 107.939205 113.83185 
L 106.294129 114.390669 
L 104.649053 115.123868 
L 103.003977 115.895788 
L 101.358902 116.549134 
L 99.713826 116.974655 
L 98.06875 117.742421 
L 96.423674 118.305999 
L 94.778598 118.923901 
L 93.133523 119.415807 
L 91.488447 119.574036 
L 89.843371 119.917651 
L 88.198295 120.330182 
L 86.55322 120.863888 
L 84.908144 121.089281 
L 83.263068 121.512924 
L 81.617992 122.173135 
L 79.972917 122.645925 
L 78.327841 123.265717 
L 76.682765 123.881703 
L 75.037689 124.492954 
L 73.392614 125.10022 
L 71.747538 125.707486 
L 70.102462 125.903561 
L 68.457386 125.995536 
L 66.812311 126.088645 
L 65.167235 126.181836 
L 63.522159 126.277077 
L 61.877083 126.587591 
L 60.232008 127.050907 
L 58.586932 127.513685 
L 56.941856 127.739837 
L 55.29678 128.229723 
L 53.651705 128.719886 
L 52.006629 129.174931 
L 50.361553 129.263541 
L 48.716477 129.613296 
L 47.071402 129.665012 
L 45.426326 129.683504 
L 43.78125 129.862865 
z
" style="fill:#1f77b4;fill-opacity:0.15;"/>
   </g>
   <g id="matplotlib.axis_1">
    <g id="xtick_1">
     <g id="line2d_1">
      <defs>
       <path d="M 0 0 
L 0 3.5 
" id="mc2376eaf45" style="stroke:#000000;stroke-width:0.8;"/>
      </defs>
      <g>
       <use style="stroke:#000000;stroke-width:0.8;" x="68.837019" xlink:href="#mc2376eaf45" y="254.118125"/>
      </g>
     </g>
     <g id="text_1">
      <!-- 2 -->
      <g transform="translate(65.655769 268.716562)scale(0.1 -0.1)">
       <defs>
        <path d="M 19.1875 8.296875 
L 53.609375 8.296875 
L 53.609375 0 
L 7.328125 0 
L 7.328125 8.296875 
Q 12.9375 14.109375 22.625 23.890625 
Q 32.328125 33.6875 34.8125 36.53125 
Q 39.546875 41.84375 41.421875 45.53125 
Q 43.3125 49.21875 43.3125 52.78125 
Q 43.3125 58.59375 39.234375 62.25 
Q 35.15625 65.921875 28.609375 65.921875 
Q 23.96875 65.921875 18.8125 64.3125 
Q 13.671875 62.703125 7.8125 59.421875 
L 7.8125 69.390625 
Q 13.765625 71.78125 18.9375 73 
Q 24.125 74.21875 28.421875 74.21875 
Q 39.75 74.21875 46.484375 68.546875 
Q 53.21875 62.890625 53.21875 53.421875 
Q 53.21875 48.921875 51.53125 44.890625 
Q 49.859375 40.875 45.40625 35.40625 
Q 44.1875 33.984375 37.640625 27.21875 
Q 31.109375 20.453125 19.1875 8.296875 
z
" id="DejaVuSans-50"/>
       </defs>
       <use xlink:href="#DejaVuSans-50"/>
      </g>
     </g>
    </g>
    <g id="xtick_2">
     <g id="line2d_2">
      <g>
       <use style="stroke:#000000;stroke-width:0.8;" x="118.948558" xlink:href="#mc2376eaf45" y="254.118125"/>
      </g>
     </g>
     <g id="text_2">
      <!-- 3 -->
      <g transform="translate(115.767308 268.716562)scale(0.1 -0.1)">
       <defs>
        <path d="M 40.578125 39.3125 
Q 47.65625 37.796875 51.625 33 
Q 55.609375 28.21875 55.609375 21.1875 
Q 55.609375 10.40625 48.1875 4.484375 
Q 40.765625 -1.421875 27.09375 -1.421875 
Q 22.515625 -1.421875 17.65625 -0.515625 
Q 12.796875 0.390625 7.625 2.203125 
L 7.625 11.71875 
Q 11.71875 9.328125 16.59375 8.109375 
Q 21.484375 6.890625 26.8125 6.890625 
Q 36.078125 6.890625 40.9375 10.546875 
Q 45.796875 14.203125 45.796875 21.1875 
Q 45.796875 27.640625 41.28125 31.265625 
Q 36.765625 34.90625 28.71875 34.90625 
L 20.21875 34.90625 
L 20.21875 43.015625 
L 29.109375 43.015625 
Q 36.375 43.015625 40.234375 45.921875 
Q 44.09375 48.828125 44.09375 54.296875 
Q 44.09375 59.90625 40.109375 62.90625 
Q 36.140625 65.921875 28.71875 65.921875 
Q 24.65625 65.921875 20.015625 65.03125 
Q 15.375 64.15625 9.8125 62.3125 
L 9.8125 71.09375 
Q 15.4375 72.65625 20.34375 73.4375 
Q 25.25 74.21875 29.59375 74.21875 
Q 40.828125 74.21875 47.359375 69.109375 
Q 53.90625 64.015625 53.90625 55.328125 
Q 53.90625 49.265625 50.4375 45.09375 
Q 46.96875 40.921875 40.578125 39.3125 
z
" id="DejaVuSans-51"/>
       </defs>
       <use xlink:href="#DejaVuSans-51"/>
      </g>
     </g>
    </g>
    <g id="xtick_3">
     <g id="line2d_3">
      <g>
       <use style="stroke:#000000;stroke-width:0.8;" x="169.060096" xlink:href="#mc2376eaf45" y="254.118125"/>
      </g>
     </g>
     <g id="text_3">
      <!-- 4 -->
      <g transform="translate(165.878846 268.716562)scale(0.1 -0.1)">
       <defs>
        <path d="M 37.796875 64.3125 
L 12.890625 25.390625 
L 37.796875 25.390625 
z
M 35.203125 72.90625 
L 47.609375 72.90625 
L 47.609375 25.390625 
L 58.015625 25.390625 
L 58.015625 17.1875 
L 47.609375 17.1875 
L 47.609375 0 
L 37.796875 0 
L 37.796875 17.1875 
L 4.890625 17.1875 
L 4.890625 26.703125 
z
" id="DejaVuSans-52"/>
       </defs>
       <use xlink:href="#DejaVuSans-52"/>
      </g>
     </g>
    </g>
    <g id="text_4">
     <!-- E -->
     <g transform="translate(122.053125 282.394687)scale(0.1 -0.1)">
      <defs>
       <path d="M 9.8125 72.90625 
L 55.90625 72.90625 
L 55.90625 64.59375 
L 19.671875 64.59375 
L 19.671875 43.015625 
L 54.390625 43.015625 
L 54.390625 34.71875 
L 19.671875 34.71875 
L 19.671875 8.296875 
L 56.78125 8.296875 
L 56.78125 0 
L 9.8125 0 
z
" id="DejaVuSans-69"/>
      </defs>
      <use xlink:href="#DejaVuSans-69"/>
     </g>
    </g>
   </g>
   <g id="matplotlib.axis_2">
    <g id="ytick_1">
     <g id="line2d_4">
      <defs>
       <path d="M 0 0 
L -3.5 0 
" id="m8ab7ebc9f1" style="stroke:#000000;stroke-width:0.8;"/>
      </defs>
      <g>
       <use style="stroke:#000000;stroke-width:0.8;" x="43.78125" xlink:href="#m8ab7ebc9f1" y="243.581761"/>
      </g>
     </g>
     <g id="text_5">
      <!-- 3.0 -->
      <g transform="translate(20.878125 247.38098)scale(0.1 -0.1)">
       <defs>
        <path d="M 10.6875 12.40625 
L 21 12.40625 
L 21 0 
L 10.6875 0 
z
" id="DejaVuSans-46"/>
        <path d="M 31.78125 66.40625 
Q 24.171875 66.40625 20.328125 58.90625 
Q 16.5 51.421875 16.5 36.375 
Q 16.5 21.390625 20.328125 13.890625 
Q 24.171875 6.390625 31.78125 6.390625 
Q 39.453125 6.390625 43.28125 13.890625 
Q 47.125 21.390625 47.125 36.375 
Q 47.125 51.421875 43.28125 58.90625 
Q 39.453125 66.40625 31.78125 66.40625 
z
M 31.78125 74.21875 
Q 44.046875 74.21875 50.515625 64.515625 
Q 56.984375 54.828125 56.984375 36.375 
Q 56.984375 17.96875 50.515625 8.265625 
Q 44.046875 -1.421875 31.78125 -1.421875 
Q 19.53125 -1.421875 13.0625 8.265625 
Q 6.59375 17.96875 6.59375 36.375 
Q 6.59375 54.828125 13.0625 64.515625 
Q 19.53125 74.21875 31.78125 74.21875 
z
" id="DejaVuSans-48"/>
       </defs>
       <use xlink:href="#DejaVuSans-51"/>
       <use x="63.623047" xlink:href="#DejaVuSans-46"/>
       <use x="95.410156" xlink:href="#DejaVuSans-48"/>
      </g>
     </g>
    </g>
    <g id="ytick_2">
     <g id="line2d_5">
      <g>
       <use style="stroke:#000000;stroke-width:0.8;" x="43.78125" xlink:href="#m8ab7ebc9f1" y="198.093189"/>
      </g>
     </g>
     <g id="text_6">
      <!-- 3.5 -->
      <g transform="translate(20.878125 201.892408)scale(0.1 -0.1)">
       <defs>
        <path d="M 10.796875 72.90625 
L 49.515625 72.90625 
L 49.515625 64.59375 
L 19.828125 64.59375 
L 19.828125 46.734375 
Q 21.96875 47.46875 24.109375 47.828125 
Q 26.265625 48.1875 28.421875 48.1875 
Q 40.625 48.1875 47.75 41.5 
Q 54.890625 34.8125 54.890625 23.390625 
Q 54.890625 11.625 47.5625 5.09375 
Q 40.234375 -1.421875 26.90625 -1.421875 
Q 22.3125 -1.421875 17.546875 -0.640625 
Q 12.796875 0.140625 7.71875 1.703125 
L 7.71875 11.625 
Q 12.109375 9.234375 16.796875 8.0625 
Q 21.484375 6.890625 26.703125 6.890625 
Q 35.15625 6.890625 40.078125 11.328125 
Q 45.015625 15.765625 45.015625 23.390625 
Q 45.015625 31 40.078125 35.4375 
Q 35.15625 39.890625 26.703125 39.890625 
Q 22.75 39.890625 18.8125 39.015625 
Q 14.890625 38.140625 10.796875 36.28125 
z
" id="DejaVuSans-53"/>
       </defs>
       <use xlink:href="#DejaVuSans-51"/>
       <use x="63.623047" xlink:href="#DejaVuSans-46"/>
       <use x="95.410156" xlink:href="#DejaVuSans-53"/>
      </g>
     </g>
    </g>
    <g id="ytick_3">
     <g id="line2d_6">
      <g>
       <use style="stroke:#000000;stroke-width:0.8;" x="43.78125" xlink:href="#m8ab7ebc9f1" y="152.604617"/>
      </g>
     </g>
     <g id="text_7">
      <!-- 4.0 -->
      <g transform="translate(20.878125 156.403836)scale(0.1 -0.1)">
       <use xlink:href="#DejaVuSans-52"/>
       <use x="63.623047" xlink:href="#DejaVuSans-46"/>
       <use x="95.410156" xlink:href="#DejaVuSans-48"/>
      </g>
     </g>
    </g>
    <g id="ytick_4">
     <g id="line2d_7">
      <g>
       <use style="stroke:#000000;stroke-width:0.8;" x="43.78125" xlink:href="#m8ab7ebc9f1" y="107.116045"/>
      </g>
     </g>
     <g id="text_8">
      <!-- 4.5 -->
      <g transform="translate(20.878125 110.915264)scale(0.1 -0.1)">
       <use xlink:href="#DejaVuSans-52"/>
       <use x="63.623047" xlink:href="#DejaVuSans-46"/>
       <use x="95.410156" xlink:href="#DejaVuSans-53"/>
      </g>
     </g>
    </g>
    <g id="ytick_5">
     <g id="line2d_8">
      <g>
       <use style="stroke:#000000;stroke-width:0.8;" x="43.78125" xlink:href="#m8ab7ebc9f1" y="61.627473"/>
      </g>
     </g>
     <g id="text_9">
      <!-- 5.0 -->
      <g transform="translate(20.878125 65.426692)scale(0.1 -0.1)">
       <use xlink:href="#DejaVuSans-53"/>
       <use x="63.623047" xlink:href="#DejaVuSans-46"/>
       <use x="95.410156" xlink:href="#DejaVuSans-48"/>
      </g>
     </g>
    </g>
    <g id="text_10">
     <!-- Trust5 -->
     <g transform="translate(14.798438 153.504844)rotate(-90)scale(0.1 -0.1)">
      <defs>
       <path d="M -0.296875 72.90625 
L 61.375 72.90625 
L 61.375 64.59375 
L 35.5 64.59375 
L 35.5 0 
L 25.59375 0 
L 25.59375 64.59375 
L -0.296875 64.59375 
z
" id="DejaVuSans-84"/>
       <path d="M 41.109375 46.296875 
Q 39.59375 47.171875 37.8125 47.578125 
Q 36.03125 48 33.890625 48 
Q 26.265625 48 22.1875 43.046875 
Q 18.109375 38.09375 18.109375 28.8125 
L 18.109375 0 
L 9.078125 0 
L 9.078125 54.6875 
L 18.109375 54.6875 
L 18.109375 46.1875 
Q 20.953125 51.171875 25.484375 53.578125 
Q 30.03125 56 36.53125 56 
Q 37.453125 56 38.578125 55.875 
Q 39.703125 55.765625 41.0625 55.515625 
z
" id="DejaVuSans-114"/>
       <path d="M 8.5 21.578125 
L 8.5 54.6875 
L 17.484375 54.6875 
L 17.484375 21.921875 
Q 17.484375 14.15625 20.5 10.265625 
Q 23.53125 6.390625 29.59375 6.390625 
Q 36.859375 6.390625 41.078125 11.03125 
Q 45.3125 15.671875 45.3125 23.6875 
L 45.3125 54.6875 
L 54.296875 54.6875 
L 54.296875 0 
L 45.3125 0 
L 45.3125 8.40625 
Q 42.046875 3.421875 37.71875 1 
Q 33.40625 -1.421875 27.6875 -1.421875 
Q 18.265625 -1.421875 13.375 4.4375 
Q 8.5 10.296875 8.5 21.578125 
z
M 31.109375 56 
z
" id="DejaVuSans-117"/>
       <path d="M 44.28125 53.078125 
L 44.28125 44.578125 
Q 40.484375 46.53125 36.375 47.5 
Q 32.28125 48.484375 27.875 48.484375 
Q 21.1875 48.484375 17.84375 46.4375 
Q 14.5 44.390625 14.5 40.28125 
Q 14.5 37.15625 16.890625 35.375 
Q 19.28125 33.59375 26.515625 31.984375 
L 29.59375 31.296875 
Q 39.15625 29.25 43.1875 25.515625 
Q 47.21875 21.78125 47.21875 15.09375 
Q 47.21875 7.46875 41.1875 3.015625 
Q 35.15625 -1.421875 24.609375 -1.421875 
Q 20.21875 -1.421875 15.453125 -0.5625 
Q 10.6875 0.296875 5.421875 2 
L 5.421875 11.28125 
Q 10.40625 8.6875 15.234375 7.390625 
Q 20.0625 6.109375 24.8125 6.109375 
Q 31.15625 6.109375 34.5625 8.28125 
Q 37.984375 10.453125 37.984375 14.40625 
Q 37.984375 18.0625 35.515625 20.015625 
Q 33.0625 21.96875 24.703125 23.78125 
L 21.578125 24.515625 
Q 13.234375 26.265625 9.515625 29.90625 
Q 5.8125 33.546875 5.8125 39.890625 
Q 5.8125 47.609375 11.28125 51.796875 
Q 16.75 56 26.8125 56 
Q 31.78125 56 36.171875 55.265625 
Q 40.578125 54.546875 44.28125 53.078125 
z
" id="DejaVuSans-115"/>
       <path d="M 18.3125 70.21875 
L 18.3125 54.6875 
L 36.8125 54.6875 
L 36.8125 47.703125 
L 18.3125 47.703125 
L 18.3125 18.015625 
Q 18.3125 11.328125 20.140625 9.421875 
Q 21.96875 7.515625 27.59375 7.515625 
L 36.8125 7.515625 
L 36.8125 0 
L 27.59375 0 
Q 17.1875 0 13.234375 3.875 
Q 9.28125 7.765625 9.28125 18.015625 
L 9.28125 47.703125 
L 2.6875 47.703125 
L 2.6875 54.6875 
L 9.28125 54.6875 
L 9.28125 70.21875 
z
" id="DejaVuSans-116"/>
      </defs>
      <use xlink:href="#DejaVuSans-84"/>
      <use x="46.333984" xlink:href="#DejaVuSans-114"/>
      <use x="87.447266" xlink:href="#DejaVuSans-117"/>
      <use x="150.826172" xlink:href="#DejaVuSans-115"/>
      <use x="202.925781" xlink:href="#DejaVuSans-116"/>
      <use x="242.134766" xlink:href="#DejaVuSans-53"/>
     </g>
    </g>
   </g>
   <g id="line2d_9">
    <path clip-path="url(#p6f291346a2)" d="M 43.78125 172.921214 
L 45.426326 171.881135 
L 47.071402 170.841056 
L 48.716477 169.800977 
L 50.361553 168.760898 
L 52.006629 167.720819 
L 53.651705 166.68074 
L 55.29678 165.640661 
L 56.941856 164.600582 
L 58.586932 163.560503 
L 60.232008 162.520424 
L 61.877083 161.480345 
L 63.522159 160.440266 
L 65.167235 159.400187 
L 66.812311 158.360108 
L 68.457386 157.320029 
L 70.102462 156.27995 
L 71.747538 155.239871 
L 73.392614 154.199792 
L 75.037689 153.159713 
L 76.682765 152.119634 
L 78.327841 151.079555 
L 79.972917 150.039476 
L 81.617992 148.999397 
L 83.263068 147.959318 
L 84.908144 146.919239 
L 86.55322 145.87916 
L 88.198295 144.839081 
L 89.843371 143.799002 
L 91.488447 142.758923 
L 93.133523 141.718844 
L 94.778598 140.678765 
L 96.423674 139.638686 
L 98.06875 138.598607 
L 99.713826 137.558528 
L 101.358902 136.518449 
L 103.003977 135.47837 
L 104.649053 134.438291 
L 106.294129 133.398212 
L 107.939205 132.358133 
L 109.58428 131.318054 
L 111.229356 130.277975 
L 112.874432 129.237896 
L 114.519508 128.197817 
L 116.164583 127.157738 
L 117.809659 126.117659 
L 119.454735 125.07758 
L 121.099811 124.037501 
L 122.744886 122.997422 
L 124.389962 121.957343 
L 126.035038 120.917264 
L 127.680114 119.877185 
L 129.325189 118.837106 
L 130.970265 117.797027 
L 132.615341 116.756948 
L 134.260417 115.716869 
L 135.905492 114.67679 
L 137.550568 113.636711 
L 139.195644 112.596632 
L 140.84072 111.556553 
L 142.485795 110.516474 
L 144.130871 109.476395 
L 145.775947 108.436316 
L 147.421023 107.396237 
L 149.066098 106.356158 
L 150.711174 105.316079 
L 152.35625 104.276 
L 154.001326 103.235921 
L 155.646402 102.195842 
L 157.291477 101.155763 
L 158.936553 100.115684 
L 160.581629 99.075605 
L 162.226705 98.035526 
L 163.87178 96.995447 
L 165.516856 95.955368 
L 167.161932 94.915289 
L 168.807008 93.87521 
L 170.452083 92.835131 
L 172.097159 91.795052 
L 173.742235 90.754973 
L 175.387311 89.714894 
L 177.032386 88.674815 
L 178.677462 87.634736 
L 180.322538 86.594657 
L 181.967614 85.554579 
L 183.612689 84.5145 
L 185.257765 83.474421 
L 186.902841 82.434342 
L 188.547917 81.394263 
L 190.192992 80.354184 
L 191.838068 79.314105 
L 193.483144 78.274026 
L 195.12822 77.233947 
L 196.773295 76.193868 
L 198.418371 75.153789 
L 200.063447 74.11371 
L 201.708523 73.073631 
L 203.353598 72.033552 
L 204.998674 70.993473 
L 206.64375 69.953394 
" style="fill:none;stroke:#1f77b4;stroke-linecap:square;stroke-width:2.25;"/>
   </g>
   <g id="patch_3">
    <path d="M 43.78125 254.118125 
L 43.78125 22.318125 
" style="fill:none;stroke:#000000;stroke-linecap:square;stroke-linejoin:miter;stroke-width:0.8;"/>
   </g>
   <g id="patch_4">
    <path d="M 206.64375 254.118125 
L 206.64375 22.318125 
" style="fill:none;stroke:#000000;stroke-linecap:square;stroke-linejoin:miter;stroke-width:0.8;"/>
   </g>
   <g id="patch_5">
    <path d="M 43.78125 254.118125 
L 206.64375 254.118125 
" style="fill:none;stroke:#000000;stroke-linecap:square;stroke-linejoin:miter;stroke-width:0.8;"/>
   </g>
   <g id="patch_6">
    <path d="M 43.78125 22.318125 
L 206.64375 22.318125 
" style="fill:none;stroke:#000000;stroke-linecap:square;stroke-linejoin:miter;stroke-width:0.8;"/>
   </g>
   <g id="text_11">
    <!-- Group A -->
    <g transform="translate(43.78125 16.318125)scale(0.12 -0.12)">
     <defs>
      <path d="M 59.515625 10.40625 
L 59.515625 29.984375 
L 43.40625 29.984375 
L 43.40625 38.09375 
L 69.28125 38.09375 
L 69.28125 6.78125 
Q 63.578125 2.734375 56.6875 0.65625 
Q 49.8125 -1.421875 42 -1.421875 
Q 24.90625 -1.421875 15.25 8.5625 
Q 5.609375 18.5625 5.609375 36.375 
Q 5.609375 54.25 15.25 64.234375 
Q 24.90625 74.21875 42 74.21875 
Q 49.125 74.21875 55.546875 72.453125 
Q 61.96875 70.703125 67.390625 67.28125 
L 67.390625 56.78125 
Q 61.921875 61.421875 55.765625 63.765625 
Q 49.609375 66.109375 42.828125 66.109375 
Q 29.4375 66.109375 22.71875 58.640625 
Q 16.015625 51.171875 16.015625 36.375 
Q 16.015625 21.625 22.71875 14.15625 
Q 29.4375 6.6875 42.828125 6.6875 
Q 48.046875 6.6875 52.140625 7.59375 
Q 56.25 8.5 59.515625 10.40625 
z
" id="DejaVuSans-71"/>
      <path d="M 30.609375 48.390625 
Q 23.390625 48.390625 19.1875 42.75 
Q 14.984375 37.109375 14.984375 27.296875 
Q 14.984375 17.484375 19.15625 11.84375 
Q 23.34375 6.203125 30.609375 6.203125 
Q 37.796875 6.203125 41.984375 11.859375 
Q 46.1875 17.53125 46.1875 27.296875 
Q 46.1875 37.015625 41.984375 42.703125 
Q 37.796875 48.390625 30.609375 48.390625 
z
M 30.609375 56 
Q 42.328125 56 49.015625 48.375 
Q 55.71875 40.765625 55.71875 27.296875 
Q 55.71875 13.875 49.015625 6.21875 
Q 42.328125 -1.421875 30.609375 -1.421875 
Q 18.84375 -1.421875 12.171875 6.21875 
Q 5.515625 13.875 5.515625 27.296875 
Q 5.515625 40.765625 12.171875 48.375 
Q 18.84375 56 30.609375 56 
z
" id="DejaVuSans-111"/>
      <path d="M 18.109375 8.203125 
L 18.109375 -20.796875 
L 9.078125 -20.796875 
L 9.078125 54.6875 
L 18.109375 54.6875 
L 18.109375 46.390625 
Q 20.953125 51.265625 25.265625 53.625 
Q 29.59375 56 35.59375 56 
Q 45.5625 56 51.78125 48.09375 
Q 58.015625 40.1875 58.015625 27.296875 
Q 58.015625 14.40625 51.78125 6.484375 
Q 45.5625 -1.421875 35.59375 -1.421875 
Q 29.59375 -1.421875 25.265625 0.953125 
Q 20.953125 3.328125 18.109375 8.203125 
z
M 48.6875 27.296875 
Q 48.6875 37.203125 44.609375 42.84375 
Q 40.53125 48.484375 33.40625 48.484375 
Q 26.265625 48.484375 22.1875 42.84375 
Q 18.109375 37.203125 18.109375 27.296875 
Q 18.109375 17.390625 22.1875 11.75 
Q 26.265625 6.109375 33.40625 6.109375 
Q 40.53125 6.109375 44.609375 11.75 
Q 48.6875 17.390625 48.6875 27.296875 
z
" id="DejaVuSans-112"/>
      <path id="DejaVuSans-32"/>
      <path d="M 34.1875 63.1875 
L 20.796875 26.90625 
L 47.609375 26.90625 
z
M 28.609375 72.90625 
L 39.796875 72.90625 
L 67.578125 0 
L 57.328125 0 
L 50.6875 18.703125 
L 17.828125 18.703125 
L 11.1875 0 
L 0.78125 0 
z
" id="DejaVuSans-65"/>
     </defs>
     <use xlink:href="#DejaVuSans-71"/>
     <use x="77.490234" xlink:href="#DejaVuSans-114"/>
     <use x="116.353516" xlink:href="#DejaVuSans-111"/>
     <use x="177.535156" xlink:href="#DejaVuSans-117"/>
     <use x="240.914062" xlink:href="#DejaVuSans-112"/>
     <use x="304.390625" xlink:href="#DejaVuSans-32"/>
     <use x="336.177734" xlink:href="#DejaVuSans-65"/>
    </g>
   </g>
  </g>
  <g id="axes_2">
   <g id="patch_7">
    <path d="M 254.44375 254.118125 
L 417.30625 254.118125 
L 417.30625 22.318125 
L 254.44375 22.318125 
z
" style="fill:#ffffff;"/>
   </g>
   <g id="PathCollection_2">
    <g clip-path="url(#p86b4064a0f)">
     <use style="fill:#1f77b4;fill-opacity:0.8;stroke:#1f77b4;stroke-opacity:0.8;" x="254.44375" xlink:href="#m3237efd4d1" y="174.428849"/>
     <use style="fill:#1f77b4;fill-opacity:0.8;stroke:#1f77b4;stroke-opacity:0.8;" x="266.971635" xlink:href="#m3237efd4d1" y="105.275936"/>
     <use style="fill:#1f77b4;fill-opacity:0.8;stroke:#1f77b4;stroke-opacity:0.8;" x="379.722596" xlink:href="#m3237efd4d1" y="105.275936"/>
     <use style="fill:#1f77b4;fill-opacity:0.8;stroke:#1f77b4;stroke-opacity:0.8;" x="342.138942" xlink:href="#m3237efd4d1" y="174.428849"/>
     <use style="fill:#1f77b4;fill-opacity:0.8;stroke:#1f77b4;stroke-opacity:0.8;" x="317.083173" xlink:href="#m3237efd4d1" y="105.275936"/>
     <use style="fill:#1f77b4;fill-opacity:0.8;stroke:#1f77b4;stroke-opacity:0.8;" x="379.722596" xlink:href="#m3237efd4d1" y="36.123023"/>
     <use style="fill:#1f77b4;fill-opacity:0.8;stroke:#1f77b4;stroke-opacity:0.8;" x="317.083173" xlink:href="#m3237efd4d1" y="105.275936"/>
     <use style="fill:#1f77b4;fill-opacity:0.8;stroke:#1f77b4;stroke-opacity:0.8;" x="342.138942" xlink:href="#m3237efd4d1" y="243.581761"/>
     <use style="fill:#1f77b4;fill-opacity:0.8;stroke:#1f77b4;stroke-opacity:0.8;" x="342.138942" xlink:href="#m3237efd4d1" y="105.275936"/>
     <use style="fill:#1f77b4;fill-opacity:0.8;stroke:#1f77b4;stroke-opacity:0.8;" x="367.194712" xlink:href="#m3237efd4d1" y="105.275936"/>
     <use style="fill:#1f77b4;fill-opacity:0.8;stroke:#1f77b4;stroke-opacity:0.8;" x="342.138942" xlink:href="#m3237efd4d1" y="36.123023"/>
     <use style="fill:#1f77b4;fill-opacity:0.8;stroke:#1f77b4;stroke-opacity:0.8;" x="379.722596" xlink:href="#m3237efd4d1" y="105.275936"/>
     <use style="fill:#1f77b4;fill-opacity:0.8;stroke:#1f77b4;stroke-opacity:0.8;" x="342.138942" xlink:href="#m3237efd4d1" y="105.275936"/>
     <use style="fill:#1f77b4;fill-opacity:0.8;stroke:#1f77b4;stroke-opacity:0.8;" x="392.250481" xlink:href="#m3237efd4d1" y="36.123023"/>
     <use style="fill:#1f77b4;fill-opacity:0.8;stroke:#1f77b4;stroke-opacity:0.8;" x="354.666827" xlink:href="#m3237efd4d1" y="36.123023"/>
     <use style="fill:#1f77b4;fill-opacity:0.8;stroke:#1f77b4;stroke-opacity:0.8;" x="392.250481" xlink:href="#m3237efd4d1" y="36.123023"/>
     <use style="fill:#1f77b4;fill-opacity:0.8;stroke:#1f77b4;stroke-opacity:0.8;" x="354.666827" xlink:href="#m3237efd4d1" y="36.123023"/>
     <use style="fill:#1f77b4;fill-opacity:0.8;stroke:#1f77b4;stroke-opacity:0.8;" x="317.083173" xlink:href="#m3237efd4d1" y="36.123023"/>
     <use style="fill:#1f77b4;fill-opacity:0.8;stroke:#1f77b4;stroke-opacity:0.8;" x="367.194712" xlink:href="#m3237efd4d1" y="36.123023"/>
     <use style="fill:#1f77b4;fill-opacity:0.8;stroke:#1f77b4;stroke-opacity:0.8;" x="279.499519" xlink:href="#m3237efd4d1" y="174.428849"/>
     <use style="fill:#1f77b4;fill-opacity:0.8;stroke:#1f77b4;stroke-opacity:0.8;" x="417.30625" xlink:href="#m3237efd4d1" y="105.275936"/>
     <use style="fill:#1f77b4;fill-opacity:0.8;stroke:#1f77b4;stroke-opacity:0.8;" x="317.083173" xlink:href="#m3237efd4d1" y="36.123023"/>
     <use style="fill:#1f77b4;fill-opacity:0.8;stroke:#1f77b4;stroke-opacity:0.8;" x="367.194712" xlink:href="#m3237efd4d1" y="36.123023"/>
     <use style="fill:#1f77b4;fill-opacity:0.8;stroke:#1f77b4;stroke-opacity:0.8;" x="379.722596" xlink:href="#m3237efd4d1" y="105.275936"/>
     <use style="fill:#1f77b4;fill-opacity:0.8;stroke:#1f77b4;stroke-opacity:0.8;" x="379.722596" xlink:href="#m3237efd4d1" y="105.275936"/>
     <use style="fill:#1f77b4;fill-opacity:0.8;stroke:#1f77b4;stroke-opacity:0.8;" x="317.083173" xlink:href="#m3237efd4d1" y="36.123023"/>
     <use style="fill:#1f77b4;fill-opacity:0.8;stroke:#1f77b4;stroke-opacity:0.8;" x="317.083173" xlink:href="#m3237efd4d1" y="105.275936"/>
     <use style="fill:#1f77b4;fill-opacity:0.8;stroke:#1f77b4;stroke-opacity:0.8;" x="317.083173" xlink:href="#m3237efd4d1" y="36.123023"/>
     <use style="fill:#1f77b4;fill-opacity:0.8;stroke:#1f77b4;stroke-opacity:0.8;" x="379.722596" xlink:href="#m3237efd4d1" y="105.275936"/>
     <use style="fill:#1f77b4;fill-opacity:0.8;stroke:#1f77b4;stroke-opacity:0.8;" x="379.722596" xlink:href="#m3237efd4d1" y="105.275936"/>
     <use style="fill:#1f77b4;fill-opacity:0.8;stroke:#1f77b4;stroke-opacity:0.8;" x="254.44375" xlink:href="#m3237efd4d1" y="105.275936"/>
     <use style="fill:#1f77b4;fill-opacity:0.8;stroke:#1f77b4;stroke-opacity:0.8;" x="329.611058" xlink:href="#m3237efd4d1" y="36.123023"/>
     <use style="fill:#1f77b4;fill-opacity:0.8;stroke:#1f77b4;stroke-opacity:0.8;" x="354.666827" xlink:href="#m3237efd4d1" y="105.275936"/>
     <use style="fill:#1f77b4;fill-opacity:0.8;stroke:#1f77b4;stroke-opacity:0.8;" x="317.083173" xlink:href="#m3237efd4d1" y="105.275936"/>
     <use style="fill:#1f77b4;fill-opacity:0.8;stroke:#1f77b4;stroke-opacity:0.8;" x="342.138942" xlink:href="#m3237efd4d1" y="105.275936"/>
     <use style="fill:#1f77b4;fill-opacity:0.8;stroke:#1f77b4;stroke-opacity:0.8;" x="329.611058" xlink:href="#m3237efd4d1" y="105.275936"/>
     <use style="fill:#1f77b4;fill-opacity:0.8;stroke:#1f77b4;stroke-opacity:0.8;" x="317.083173" xlink:href="#m3237efd4d1" y="36.123023"/>
     <use style="fill:#1f77b4;fill-opacity:0.8;stroke:#1f77b4;stroke-opacity:0.8;" x="367.194712" xlink:href="#m3237efd4d1" y="36.123023"/>
     <use style="fill:#1f77b4;fill-opacity:0.8;stroke:#1f77b4;stroke-opacity:0.8;" x="317.083173" xlink:href="#m3237efd4d1" y="174.428849"/>
     <use style="fill:#1f77b4;fill-opacity:0.8;stroke:#1f77b4;stroke-opacity:0.8;" x="317.083173" xlink:href="#m3237efd4d1" y="105.275936"/>
     <use style="fill:#1f77b4;fill-opacity:0.8;stroke:#1f77b4;stroke-opacity:0.8;" x="317.083173" xlink:href="#m3237efd4d1" y="36.123023"/>
     <use style="fill:#1f77b4;fill-opacity:0.8;stroke:#1f77b4;stroke-opacity:0.8;" x="379.722596" xlink:href="#m3237efd4d1" y="36.123023"/>
    </g>
   </g>
   <g id="PolyCollection_2">
    <path clip-path="url(#p86b4064a0f)" d="M 254.44375 80.792361 
L 254.44375 152.470577 
L 256.088826 151.44336 
L 257.733902 150.416143 
L 259.378977 149.224389 
L 261.024053 148.256207 
L 262.669129 147.289327 
L 264.314205 146.157924 
L 265.95928 144.946087 
L 267.604356 143.874553 
L 269.249432 142.886855 
L 270.894508 141.899157 
L 272.539583 140.911459 
L 274.184659 139.923761 
L 275.829735 138.936063 
L 277.474811 137.948365 
L 279.119886 136.960667 
L 280.764962 135.972969 
L 282.410038 134.985271 
L 284.055114 133.997573 
L 285.700189 133.009875 
L 287.345265 132.009348 
L 288.990341 130.987635 
L 290.635417 129.942906 
L 292.280492 128.689922 
L 293.925568 127.920911 
L 295.570644 126.700042 
L 297.21572 125.679773 
L 298.860795 124.473702 
L 300.505871 123.265165 
L 302.150947 122.173575 
L 303.796023 121.50494 
L 305.441098 120.727649 
L 307.086174 119.744745 
L 308.73125 118.885155 
L 310.376326 117.937687 
L 312.021402 116.803558 
L 313.666477 115.981672 
L 315.311553 115.18747 
L 316.956629 114.261193 
L 318.601705 113.277437 
L 320.24678 112.25517 
L 321.891856 111.168254 
L 323.536932 110.269552 
L 325.182008 109.374763 
L 326.827083 108.342655 
L 328.472159 107.356818 
L 330.117235 106.436859 
L 331.762311 105.782009 
L 333.407386 104.956822 
L 335.052462 104.418293 
L 336.697538 103.814352 
L 338.342614 103.281276 
L 339.987689 102.805647 
L 341.632765 102.209509 
L 343.277841 101.479427 
L 344.922917 100.844171 
L 346.567992 100.157084 
L 348.213068 99.352494 
L 349.858144 99.012627 
L 351.50322 98.368833 
L 353.148295 97.799757 
L 354.793371 97.189783 
L 356.438447 96.580572 
L 358.083523 95.97553 
L 359.728598 95.640326 
L 361.373674 95.300112 
L 363.01875 94.997484 
L 364.663826 94.387012 
L 366.308902 93.872783 
L 367.953977 93.86767 
L 369.599053 93.603312 
L 371.244129 93.325969 
L 372.889205 92.844492 
L 374.53428 92.462421 
L 376.179356 92.029072 
L 377.824432 91.621187 
L 379.469508 91.328179 
L 381.114583 91.166605 
L 382.759659 91.006543 
L 384.404735 90.744706 
L 386.049811 90.51474 
L 387.694886 90.473756 
L 389.339962 90.153345 
L 390.985038 89.917127 
L 392.630114 89.567924 
L 394.275189 89.221739 
L 395.920265 88.743484 
L 397.565341 88.703709 
L 399.210417 88.747668 
L 400.855492 88.633162 
L 402.500568 88.604021 
L 404.145644 88.598224 
L 405.79072 88.384504 
L 407.435795 87.894948 
L 409.080871 87.707875 
L 410.725947 87.59322 
L 412.371023 87.527196 
L 414.016098 87.461173 
L 415.661174 87.395149 
L 417.30625 87.603612 
L 417.30625 32.854489 
L 417.30625 32.854489 
L 415.661174 33.717427 
L 414.016098 34.792835 
L 412.371023 35.762476 
L 410.725947 36.829965 
L 409.080871 37.955359 
L 407.435795 39.082723 
L 405.79072 40.21133 
L 404.145644 41.339938 
L 402.500568 42.468545 
L 400.855492 43.597152 
L 399.210417 44.725759 
L 397.565341 45.854366 
L 395.920265 46.987002 
L 394.275189 48.0163 
L 392.630114 49.075451 
L 390.985038 50.121306 
L 389.339962 51.137308 
L 387.694886 52.262926 
L 386.049811 53.227032 
L 384.404735 54.137298 
L 382.759659 55.060751 
L 381.114583 55.977541 
L 379.469508 56.849863 
L 377.824432 57.810254 
L 376.179356 58.459679 
L 374.53428 59.379323 
L 372.889205 60.256453 
L 371.244129 61.302744 
L 369.599053 62.349036 
L 367.953977 63.318346 
L 366.308902 64.186013 
L 364.663826 64.905376 
L 363.01875 65.420087 
L 361.373674 65.934469 
L 359.728598 66.438142 
L 358.083523 67.01332 
L 356.438447 67.800517 
L 354.793371 68.381814 
L 353.148295 68.940931 
L 351.50322 69.320666 
L 349.858144 69.992199 
L 348.213068 70.537916 
L 346.567992 71.067916 
L 344.922917 71.572682 
L 343.277841 72.095397 
L 341.632765 72.527308 
L 339.987689 73.189907 
L 338.342614 73.609586 
L 336.697538 74.001046 
L 335.052462 74.24524 
L 333.407386 74.783535 
L 331.762311 75.274695 
L 330.117235 75.463639 
L 328.472159 75.95465 
L 326.827083 75.881656 
L 325.182008 76.039163 
L 323.536932 76.321632 
L 321.891856 76.635125 
L 320.24678 76.785582 
L 318.601705 76.882273 
L 316.956629 77.004792 
L 315.311553 77.155725 
L 313.666477 77.395309 
L 312.021402 77.634893 
L 310.376326 77.874477 
L 308.73125 77.998774 
L 307.086174 78.022039 
L 305.441098 78.08193 
L 303.796023 78.164279 
L 302.150947 78.346538 
L 300.505871 78.623891 
L 298.860795 78.739344 
L 297.21572 78.929989 
L 295.570644 78.962349 
L 293.925568 79.06995 
L 292.280492 79.177552 
L 290.635417 79.286506 
L 288.990341 79.397199 
L 287.345265 79.507893 
L 285.700189 79.618587 
L 284.055114 79.72928 
L 282.410038 79.839974 
L 280.764962 79.950667 
L 279.119886 80.061361 
L 277.474811 80.172054 
L 275.829735 80.282748 
L 274.184659 80.393442 
L 272.539583 80.372059 
L 270.894508 80.466917 
L 269.249432 80.586565 
L 267.604356 80.706213 
L 265.95928 80.825861 
L 264.314205 80.931831 
L 262.669129 80.997723 
L 261.024053 81.063614 
L 259.378977 81.129506 
L 257.733902 81.149433 
L 256.088826 80.970897 
L 254.44375 80.792361 
z
" style="fill:#1f77b4;fill-opacity:0.15;"/>
   </g>
   <g id="matplotlib.axis_3">
    <g id="xtick_4">
     <g id="line2d_10">
      <g>
       <use style="stroke:#000000;stroke-width:0.8;" x="292.027404" xlink:href="#mc2376eaf45" y="254.118125"/>
      </g>
     </g>
     <g id="text_12">
      <!-- 2 -->
      <g transform="translate(288.846154 268.716562)scale(0.1 -0.1)">
       <use xlink:href="#DejaVuSans-50"/>
      </g>
     </g>
    </g>
    <g id="xtick_5">
     <g id="line2d_11">
      <g>
       <use style="stroke:#000000;stroke-width:0.8;" x="342.138942" xlink:href="#mc2376eaf45" y="254.118125"/>
      </g>
     </g>
     <g id="text_13">
      <!-- 3 -->
      <g transform="translate(338.957692 268.716562)scale(0.1 -0.1)">
       <use xlink:href="#DejaVuSans-51"/>
      </g>
     </g>
    </g>
    <g id="xtick_6">
     <g id="line2d_12">
      <g>
       <use style="stroke:#000000;stroke-width:0.8;" x="392.250481" xlink:href="#mc2376eaf45" y="254.118125"/>
      </g>
     </g>
     <g id="text_14">
      <!-- 4 -->
      <g transform="translate(389.069231 268.716562)scale(0.1 -0.1)">
       <use xlink:href="#DejaVuSans-52"/>
      </g>
     </g>
    </g>
    <g id="text_15">
     <!-- E -->
     <g transform="translate(332.715625 282.394687)scale(0.1 -0.1)">
      <use xlink:href="#DejaVuSans-69"/>
     </g>
    </g>
   </g>
   <g id="matplotlib.axis_4">
    <g id="ytick_6">
     <g id="line2d_13">
      <g>
       <use style="stroke:#000000;stroke-width:0.8;" x="254.44375" xlink:href="#m8ab7ebc9f1" y="243.581761"/>
      </g>
     </g>
     <g id="text_16">
      <!-- 2.0 -->
      <g transform="translate(231.540625 247.38098)scale(0.1 -0.1)">
       <use xlink:href="#DejaVuSans-50"/>
       <use x="63.623047" xlink:href="#DejaVuSans-46"/>
       <use x="95.410156" xlink:href="#DejaVuSans-48"/>
      </g>
     </g>
    </g>
    <g id="ytick_7">
     <g id="line2d_14">
      <g>
       <use style="stroke:#000000;stroke-width:0.8;" x="254.44375" xlink:href="#m8ab7ebc9f1" y="209.005305"/>
      </g>
     </g>
     <g id="text_17">
      <!-- 2.5 -->
      <g transform="translate(231.540625 212.804524)scale(0.1 -0.1)">
       <use xlink:href="#DejaVuSans-50"/>
       <use x="63.623047" xlink:href="#DejaVuSans-46"/>
       <use x="95.410156" xlink:href="#DejaVuSans-53"/>
      </g>
     </g>
    </g>
    <g id="ytick_8">
     <g id="line2d_15">
      <g>
       <use style="stroke:#000000;stroke-width:0.8;" x="254.44375" xlink:href="#m8ab7ebc9f1" y="174.428849"/>
      </g>
     </g>
     <g id="text_18">
      <!-- 3.0 -->
      <g transform="translate(231.540625 178.228067)scale(0.1 -0.1)">
       <use xlink:href="#DejaVuSans-51"/>
       <use x="63.623047" xlink:href="#DejaVuSans-46"/>
       <use x="95.410156" xlink:href="#DejaVuSans-48"/>
      </g>
     </g>
    </g>
    <g id="ytick_9">
     <g id="line2d_16">
      <g>
       <use style="stroke:#000000;stroke-width:0.8;" x="254.44375" xlink:href="#m8ab7ebc9f1" y="139.852392"/>
      </g>
     </g>
     <g id="text_19">
      <!-- 3.5 -->
      <g transform="translate(231.540625 143.651611)scale(0.1 -0.1)">
       <use xlink:href="#DejaVuSans-51"/>
       <use x="63.623047" xlink:href="#DejaVuSans-46"/>
       <use x="95.410156" xlink:href="#DejaVuSans-53"/>
      </g>
     </g>
    </g>
    <g id="ytick_10">
     <g id="line2d_17">
      <g>
       <use style="stroke:#000000;stroke-width:0.8;" x="254.44375" xlink:href="#m8ab7ebc9f1" y="105.275936"/>
      </g>
     </g>
     <g id="text_20">
      <!-- 4.0 -->
      <g transform="translate(231.540625 109.075155)scale(0.1 -0.1)">
       <use xlink:href="#DejaVuSans-52"/>
       <use x="63.623047" xlink:href="#DejaVuSans-46"/>
       <use x="95.410156" xlink:href="#DejaVuSans-48"/>
      </g>
     </g>
    </g>
    <g id="ytick_11">
     <g id="line2d_18">
      <g>
       <use style="stroke:#000000;stroke-width:0.8;" x="254.44375" xlink:href="#m8ab7ebc9f1" y="70.69948"/>
      </g>
     </g>
     <g id="text_21">
      <!-- 4.5 -->
      <g transform="translate(231.540625 74.498698)scale(0.1 -0.1)">
       <use xlink:href="#DejaVuSans-52"/>
       <use x="63.623047" xlink:href="#DejaVuSans-46"/>
       <use x="95.410156" xlink:href="#DejaVuSans-53"/>
      </g>
     </g>
    </g>
    <g id="ytick_12">
     <g id="line2d_19">
      <g>
       <use style="stroke:#000000;stroke-width:0.8;" x="254.44375" xlink:href="#m8ab7ebc9f1" y="36.123023"/>
      </g>
     </g>
     <g id="text_22">
      <!-- 5.0 -->
      <g transform="translate(231.540625 39.922242)scale(0.1 -0.1)">
       <use xlink:href="#DejaVuSans-53"/>
       <use x="63.623047" xlink:href="#DejaVuSans-46"/>
       <use x="95.410156" xlink:href="#DejaVuSans-48"/>
      </g>
     </g>
    </g>
    <g id="text_23">
     <!-- Trust5 -->
     <g transform="translate(225.460938 153.504844)rotate(-90)scale(0.1 -0.1)">
      <use xlink:href="#DejaVuSans-84"/>
      <use x="46.333984" xlink:href="#DejaVuSans-114"/>
      <use x="87.447266" xlink:href="#DejaVuSans-117"/>
      <use x="150.826172" xlink:href="#DejaVuSans-115"/>
      <use x="202.925781" xlink:href="#DejaVuSans-116"/>
      <use x="242.134766" xlink:href="#DejaVuSans-53"/>
     </g>
    </g>
   </g>
   <g id="line2d_20">
    <path clip-path="url(#p86b4064a0f)" d="M 254.44375 117.905338 
L 256.088826 117.324719 
L 257.733902 116.744101 
L 259.378977 116.163482 
L 261.024053 115.582864 
L 262.669129 115.002245 
L 264.314205 114.421627 
L 265.95928 113.841008 
L 267.604356 113.26039 
L 269.249432 112.679771 
L 270.894508 112.099153 
L 272.539583 111.518534 
L 274.184659 110.937916 
L 275.829735 110.357297 
L 277.474811 109.776679 
L 279.119886 109.19606 
L 280.764962 108.615442 
L 282.410038 108.034823 
L 284.055114 107.454205 
L 285.700189 106.873586 
L 287.345265 106.292968 
L 288.990341 105.712349 
L 290.635417 105.131731 
L 292.280492 104.551112 
L 293.925568 103.970494 
L 295.570644 103.389875 
L 297.21572 102.809257 
L 298.860795 102.228638 
L 300.505871 101.64802 
L 302.150947 101.067401 
L 303.796023 100.486782 
L 305.441098 99.906164 
L 307.086174 99.325545 
L 308.73125 98.744927 
L 310.376326 98.164308 
L 312.021402 97.58369 
L 313.666477 97.003071 
L 315.311553 96.422453 
L 316.956629 95.841834 
L 318.601705 95.261216 
L 320.24678 94.680597 
L 321.891856 94.099979 
L 323.536932 93.51936 
L 325.182008 92.938742 
L 326.827083 92.358123 
L 328.472159 91.777505 
L 330.117235 91.196886 
L 331.762311 90.616268 
L 333.407386 90.035649 
L 335.052462 89.455031 
L 336.697538 88.874412 
L 338.342614 88.293794 
L 339.987689 87.713175 
L 341.632765 87.132557 
L 343.277841 86.551938 
L 344.922917 85.97132 
L 346.567992 85.390701 
L 348.213068 84.810083 
L 349.858144 84.229464 
L 351.50322 83.648846 
L 353.148295 83.068227 
L 354.793371 82.487609 
L 356.438447 81.90699 
L 358.083523 81.326371 
L 359.728598 80.745753 
L 361.373674 80.165134 
L 363.01875 79.584516 
L 364.663826 79.003897 
L 366.308902 78.423279 
L 367.953977 77.84266 
L 369.599053 77.262042 
L 371.244129 76.681423 
L 372.889205 76.100805 
L 374.53428 75.520186 
L 376.179356 74.939568 
L 377.824432 74.358949 
L 379.469508 73.778331 
L 381.114583 73.197712 
L 382.759659 72.617094 
L 384.404735 72.036475 
L 386.049811 71.455857 
L 387.694886 70.875238 
L 389.339962 70.29462 
L 390.985038 69.714001 
L 392.630114 69.133383 
L 394.275189 68.552764 
L 395.920265 67.972146 
L 397.565341 67.391527 
L 399.210417 66.810909 
L 400.855492 66.23029 
L 402.500568 65.649672 
L 404.145644 65.069053 
L 405.79072 64.488435 
L 407.435795 63.907816 
L 409.080871 63.327198 
L 410.725947 62.746579 
L 412.371023 62.165961 
L 414.016098 61.585342 
L 415.661174 61.004723 
L 417.30625 60.424105 
" style="fill:none;stroke:#1f77b4;stroke-linecap:square;stroke-width:2.25;"/>
   </g>
   <g id="patch_8">
    <path d="M 254.44375 254.118125 
L 254.44375 22.318125 
" style="fill:none;stroke:#000000;stroke-linecap:square;stroke-linejoin:miter;stroke-width:0.8;"/>
   </g>
   <g id="patch_9">
    <path d="M 417.30625 254.118125 
L 417.30625 22.318125 
" style="fill:none;stroke:#000000;stroke-linecap:square;stroke-linejoin:miter;stroke-width:0.8;"/>
   </g>
   <g id="patch_10">
    <path d="M 254.44375 254.118125 
L 417.30625 254.118125 
" style="fill:none;stroke:#000000;stroke-linecap:square;stroke-linejoin:miter;stroke-width:0.8;"/>
   </g>
   <g id="patch_11">
    <path d="M 254.44375 22.318125 
L 417.30625 22.318125 
" style="fill:none;stroke:#000000;stroke-linecap:square;stroke-linejoin:miter;stroke-width:0.8;"/>
   </g>
   <g id="text_24">
    <!-- Group B -->
    <g transform="translate(254.44375 16.318125)scale(0.12 -0.12)">
     <defs>
      <path d="M 19.671875 34.8125 
L 19.671875 8.109375 
L 35.5 8.109375 
Q 43.453125 8.109375 47.28125 11.40625 
Q 51.125 14.703125 51.125 21.484375 
Q 51.125 28.328125 47.28125 31.5625 
Q 43.453125 34.8125 35.5 34.8125 
z
M 19.671875 64.796875 
L 19.671875 42.828125 
L 34.28125 42.828125 
Q 41.5 42.828125 45.03125 45.53125 
Q 48.578125 48.25 48.578125 53.8125 
Q 48.578125 59.328125 45.03125 62.0625 
Q 41.5 64.796875 34.28125 64.796875 
z
M 9.8125 72.90625 
L 35.015625 72.90625 
Q 46.296875 72.90625 52.390625 68.21875 
Q 58.5 63.53125 58.5 54.890625 
Q 58.5 48.1875 55.375 44.234375 
Q 52.25 40.28125 46.1875 39.3125 
Q 53.46875 37.75 57.5 32.78125 
Q 61.53125 27.828125 61.53125 20.40625 
Q 61.53125 10.640625 54.890625 5.3125 
Q 48.25 0 35.984375 0 
L 9.8125 0 
z
" id="DejaVuSans-66"/>
     </defs>
     <use xlink:href="#DejaVuSans-71"/>
     <use x="77.490234" xlink:href="#DejaVuSans-114"/>
     <use x="116.353516" xlink:href="#DejaVuSans-111"/>
     <use x="177.535156" xlink:href="#DejaVuSans-117"/>
     <use x="240.914062" xlink:href="#DejaVuSans-112"/>
     <use x="304.390625" xlink:href="#DejaVuSans-32"/>
     <use x="336.177734" xlink:href="#DejaVuSans-66"/>
    </g>
   </g>
  </g>
  <g id="text_25">
   <!-- I believe the bike chatbot was honest with me. -->
   <g transform="translate(71.750313 22.79625)scale(0.12 -0.12)">
    <defs>
     <path d="M 9.8125 72.90625 
L 19.671875 72.90625 
L 19.671875 0 
L 9.8125 0 
z
" id="DejaVuSans-73"/>
     <path d="M 48.6875 27.296875 
Q 48.6875 37.203125 44.609375 42.84375 
Q 40.53125 48.484375 33.40625 48.484375 
Q 26.265625 48.484375 22.1875 42.84375 
Q 18.109375 37.203125 18.109375 27.296875 
Q 18.109375 17.390625 22.1875 11.75 
Q 26.265625 6.109375 33.40625 6.109375 
Q 40.53125 6.109375 44.609375 11.75 
Q 48.6875 17.390625 48.6875 27.296875 
z
M 18.109375 46.390625 
Q 20.953125 51.265625 25.265625 53.625 
Q 29.59375 56 35.59375 56 
Q 45.5625 56 51.78125 48.09375 
Q 58.015625 40.1875 58.015625 27.296875 
Q 58.015625 14.40625 51.78125 6.484375 
Q 45.5625 -1.421875 35.59375 -1.421875 
Q 29.59375 -1.421875 25.265625 0.953125 
Q 20.953125 3.328125 18.109375 8.203125 
L 18.109375 0 
L 9.078125 0 
L 9.078125 75.984375 
L 18.109375 75.984375 
z
" id="DejaVuSans-98"/>
     <path d="M 56.203125 29.59375 
L 56.203125 25.203125 
L 14.890625 25.203125 
Q 15.484375 15.921875 20.484375 11.0625 
Q 25.484375 6.203125 34.421875 6.203125 
Q 39.59375 6.203125 44.453125 7.46875 
Q 49.3125 8.734375 54.109375 11.28125 
L 54.109375 2.78125 
Q 49.265625 0.734375 44.1875 -0.34375 
Q 39.109375 -1.421875 33.890625 -1.421875 
Q 20.796875 -1.421875 13.15625 6.1875 
Q 5.515625 13.8125 5.515625 26.8125 
Q 5.515625 40.234375 12.765625 48.109375 
Q 20.015625 56 32.328125 56 
Q 43.359375 56 49.78125 48.890625 
Q 56.203125 41.796875 56.203125 29.59375 
z
M 47.21875 32.234375 
Q 47.125 39.59375 43.09375 43.984375 
Q 39.0625 48.390625 32.421875 48.390625 
Q 24.90625 48.390625 20.390625 44.140625 
Q 15.875 39.890625 15.1875 32.171875 
z
" id="DejaVuSans-101"/>
     <path d="M 9.421875 75.984375 
L 18.40625 75.984375 
L 18.40625 0 
L 9.421875 0 
z
" id="DejaVuSans-108"/>
     <path d="M 9.421875 54.6875 
L 18.40625 54.6875 
L 18.40625 0 
L 9.421875 0 
z
M 9.421875 75.984375 
L 18.40625 75.984375 
L 18.40625 64.59375 
L 9.421875 64.59375 
z
" id="DejaVuSans-105"/>
     <path d="M 2.984375 54.6875 
L 12.5 54.6875 
L 29.59375 8.796875 
L 46.6875 54.6875 
L 56.203125 54.6875 
L 35.6875 0 
L 23.484375 0 
z
" id="DejaVuSans-118"/>
     <path d="M 54.890625 33.015625 
L 54.890625 0 
L 45.90625 0 
L 45.90625 32.71875 
Q 45.90625 40.484375 42.875 44.328125 
Q 39.84375 48.1875 33.796875 48.1875 
Q 26.515625 48.1875 22.3125 43.546875 
Q 18.109375 38.921875 18.109375 30.90625 
L 18.109375 0 
L 9.078125 0 
L 9.078125 75.984375 
L 18.109375 75.984375 
L 18.109375 46.1875 
Q 21.34375 51.125 25.703125 53.5625 
Q 30.078125 56 35.796875 56 
Q 45.21875 56 50.046875 50.171875 
Q 54.890625 44.34375 54.890625 33.015625 
z
" id="DejaVuSans-104"/>
     <path d="M 9.078125 75.984375 
L 18.109375 75.984375 
L 18.109375 31.109375 
L 44.921875 54.6875 
L 56.390625 54.6875 
L 27.390625 29.109375 
L 57.625 0 
L 45.90625 0 
L 18.109375 26.703125 
L 18.109375 0 
L 9.078125 0 
z
" id="DejaVuSans-107"/>
     <path d="M 48.78125 52.59375 
L 48.78125 44.1875 
Q 44.96875 46.296875 41.140625 47.34375 
Q 37.3125 48.390625 33.40625 48.390625 
Q 24.65625 48.390625 19.8125 42.84375 
Q 14.984375 37.3125 14.984375 27.296875 
Q 14.984375 17.28125 19.8125 11.734375 
Q 24.65625 6.203125 33.40625 6.203125 
Q 37.3125 6.203125 41.140625 7.25 
Q 44.96875 8.296875 48.78125 10.40625 
L 48.78125 2.09375 
Q 45.015625 0.34375 40.984375 -0.53125 
Q 36.96875 -1.421875 32.421875 -1.421875 
Q 20.0625 -1.421875 12.78125 6.34375 
Q 5.515625 14.109375 5.515625 27.296875 
Q 5.515625 40.671875 12.859375 48.328125 
Q 20.21875 56 33.015625 56 
Q 37.15625 56 41.109375 55.140625 
Q 45.0625 54.296875 48.78125 52.59375 
z
" id="DejaVuSans-99"/>
     <path d="M 34.28125 27.484375 
Q 23.390625 27.484375 19.1875 25 
Q 14.984375 22.515625 14.984375 16.5 
Q 14.984375 11.71875 18.140625 8.90625 
Q 21.296875 6.109375 26.703125 6.109375 
Q 34.1875 6.109375 38.703125 11.40625 
Q 43.21875 16.703125 43.21875 25.484375 
L 43.21875 27.484375 
z
M 52.203125 31.203125 
L 52.203125 0 
L 43.21875 0 
L 43.21875 8.296875 
Q 40.140625 3.328125 35.546875 0.953125 
Q 30.953125 -1.421875 24.3125 -1.421875 
Q 15.921875 -1.421875 10.953125 3.296875 
Q 6 8.015625 6 15.921875 
Q 6 25.140625 12.171875 29.828125 
Q 18.359375 34.515625 30.609375 34.515625 
L 43.21875 34.515625 
L 43.21875 35.40625 
Q 43.21875 41.609375 39.140625 45 
Q 35.0625 48.390625 27.6875 48.390625 
Q 23 48.390625 18.546875 47.265625 
Q 14.109375 46.140625 10.015625 43.890625 
L 10.015625 52.203125 
Q 14.9375 54.109375 19.578125 55.046875 
Q 24.21875 56 28.609375 56 
Q 40.484375 56 46.34375 49.84375 
Q 52.203125 43.703125 52.203125 31.203125 
z
" id="DejaVuSans-97"/>
     <path d="M 4.203125 54.6875 
L 13.1875 54.6875 
L 24.421875 12.015625 
L 35.59375 54.6875 
L 46.1875 54.6875 
L 57.421875 12.015625 
L 68.609375 54.6875 
L 77.59375 54.6875 
L 63.28125 0 
L 52.6875 0 
L 40.921875 44.828125 
L 29.109375 0 
L 18.5 0 
z
" id="DejaVuSans-119"/>
     <path d="M 54.890625 33.015625 
L 54.890625 0 
L 45.90625 0 
L 45.90625 32.71875 
Q 45.90625 40.484375 42.875 44.328125 
Q 39.84375 48.1875 33.796875 48.1875 
Q 26.515625 48.1875 22.3125 43.546875 
Q 18.109375 38.921875 18.109375 30.90625 
L 18.109375 0 
L 9.078125 0 
L 9.078125 54.6875 
L 18.109375 54.6875 
L 18.109375 46.1875 
Q 21.34375 51.125 25.703125 53.5625 
Q 30.078125 56 35.796875 56 
Q 45.21875 56 50.046875 50.171875 
Q 54.890625 44.34375 54.890625 33.015625 
z
" id="DejaVuSans-110"/>
     <path d="M 52 44.1875 
Q 55.375 50.25 60.0625 53.125 
Q 64.75 56 71.09375 56 
Q 79.640625 56 84.28125 50.015625 
Q 88.921875 44.046875 88.921875 33.015625 
L 88.921875 0 
L 79.890625 0 
L 79.890625 32.71875 
Q 79.890625 40.578125 77.09375 44.375 
Q 74.3125 48.1875 68.609375 48.1875 
Q 61.625 48.1875 57.5625 43.546875 
Q 53.515625 38.921875 53.515625 30.90625 
L 53.515625 0 
L 44.484375 0 
L 44.484375 32.71875 
Q 44.484375 40.625 41.703125 44.40625 
Q 38.921875 48.1875 33.109375 48.1875 
Q 26.21875 48.1875 22.15625 43.53125 
Q 18.109375 38.875 18.109375 30.90625 
L 18.109375 0 
L 9.078125 0 
L 9.078125 54.6875 
L 18.109375 54.6875 
L 18.109375 46.1875 
Q 21.1875 51.21875 25.484375 53.609375 
Q 29.78125 56 35.6875 56 
Q 41.65625 56 45.828125 52.96875 
Q 50 49.953125 52 44.1875 
z
" id="DejaVuSans-109"/>
    </defs>
    <use xlink:href="#DejaVuSans-73"/>
    <use x="29.492188" xlink:href="#DejaVuSans-32"/>
    <use x="61.279297" xlink:href="#DejaVuSans-98"/>
    <use x="124.755859" xlink:href="#DejaVuSans-101"/>
    <use x="186.279297" xlink:href="#DejaVuSans-108"/>
    <use x="214.0625" xlink:href="#DejaVuSans-105"/>
    <use x="241.845703" xlink:href="#DejaVuSans-101"/>
    <use x="303.369141" xlink:href="#DejaVuSans-118"/>
    <use x="362.548828" xlink:href="#DejaVuSans-101"/>
    <use x="424.072266" xlink:href="#DejaVuSans-32"/>
    <use x="455.859375" xlink:href="#DejaVuSans-116"/>
    <use x="495.068359" xlink:href="#DejaVuSans-104"/>
    <use x="558.447266" xlink:href="#DejaVuSans-101"/>
    <use x="619.970703" xlink:href="#DejaVuSans-32"/>
    <use x="651.757812" xlink:href="#DejaVuSans-98"/>
    <use x="715.234375" xlink:href="#DejaVuSans-105"/>
    <use x="743.017578" xlink:href="#DejaVuSans-107"/>
    <use x="797.302734" xlink:href="#DejaVuSans-101"/>
    <use x="858.826172" xlink:href="#DejaVuSans-32"/>
    <use x="890.613281" xlink:href="#DejaVuSans-99"/>
    <use x="945.59375" xlink:href="#DejaVuSans-104"/>
    <use x="1008.972656" xlink:href="#DejaVuSans-97"/>
    <use x="1070.251953" xlink:href="#DejaVuSans-116"/>
    <use x="1109.460938" xlink:href="#DejaVuSans-98"/>
    <use x="1172.9375" xlink:href="#DejaVuSans-111"/>
    <use x="1234.119141" xlink:href="#DejaVuSans-116"/>
    <use x="1273.328125" xlink:href="#DejaVuSans-32"/>
    <use x="1305.115234" xlink:href="#DejaVuSans-119"/>
    <use x="1386.902344" xlink:href="#DejaVuSans-97"/>
    <use x="1448.181641" xlink:href="#DejaVuSans-115"/>
    <use x="1500.28125" xlink:href="#DejaVuSans-32"/>
    <use x="1532.068359" xlink:href="#DejaVuSans-104"/>
    <use x="1595.447266" xlink:href="#DejaVuSans-111"/>
    <use x="1656.628906" xlink:href="#DejaVuSans-110"/>
    <use x="1720.007812" xlink:href="#DejaVuSans-101"/>
    <use x="1781.53125" xlink:href="#DejaVuSans-115"/>
    <use x="1833.630859" xlink:href="#DejaVuSans-116"/>
    <use x="1872.839844" xlink:href="#DejaVuSans-32"/>
    <use x="1904.626953" xlink:href="#DejaVuSans-119"/>
    <use x="1986.414062" xlink:href="#DejaVuSans-105"/>
    <use x="2014.197266" xlink:href="#DejaVuSans-116"/>
    <use x="2053.40625" xlink:href="#DejaVuSans-104"/>
    <use x="2116.785156" xlink:href="#DejaVuSans-32"/>
    <use x="2148.572266" xlink:href="#DejaVuSans-109"/>
    <use x="2245.984375" xlink:href="#DejaVuSans-101"/>
    <use x="2307.507812" xlink:href="#DejaVuSans-46"/>
   </g>
  </g>
 </g>
 <defs>
  <clipPath id="p6f291346a2">
   <rect height="231.8" width="162.8625" x="43.78125" y="22.318125"/>
  </clipPath>
  <clipPath id="p86b4064a0f">
   <rect height="231.8" width="162.8625" x="254.44375" y="22.318125"/>
  </clipPath>
 </defs>
</svg>
