<?xml version="1.0" encoding="utf-8" standalone="no"?>
<!DOCTYPE svg PUBLIC "-//W3C//DTD SVG 1.1//EN"
  "http://www.w3.org/Graphics/SVG/1.1/DTD/svg11.dtd">
<!-- Created with matplotlib (https://matplotlib.org/) -->
<svg height="263.63625pt" version="1.1" viewBox="0 0 372.103125 263.63625" width="372.103125pt" xmlns="http://www.w3.org/2000/svg" xmlns:xlink="http://www.w3.org/1999/xlink">
 <metadata>
  <rdf:RDF xmlns:cc="http://creativecommons.org/ns#" xmlns:dc="http://purl.org/dc/elements/1.1/" xmlns:rdf="http://www.w3.org/1999/02/22-rdf-syntax-ns#">
   <cc:Work>
    <dc:type rdf:resource="http://purl.org/dc/dcmitype/StillImage"/>
    <dc:date>2021-02-14T18:42:05.603482</dc:date>
    <dc:format>image/svg+xml</dc:format>
    <dc:creator>
     <cc:Agent>
      <dc:title>Matplotlib v3.3.4, https://matplotlib.org/</dc:title>
     </cc:Agent>
    </dc:creator>
   </cc:Work>
  </rdf:RDF>
 </metadata>
 <defs>
  <style type="text/css">*{stroke-linecap:butt;stroke-linejoin:round;}</style>
 </defs>
 <g id="figure_1">
  <g id="patch_1">
   <path d="M 0 263.63625 
L 372.103125 263.63625 
L 372.103125 0 
L 0 0 
z
" style="fill:none;"/>
  </g>
  <g id="axes_1">
   <g id="patch_2">
    <path d="M 30.103125 239.758125 
L 364.903125 239.758125 
L 364.903125 22.318125 
L 30.103125 22.318125 
z
" style="fill:#ffffff;"/>
   </g>
   <g id="matplotlib.axis_1">
    <g id="xtick_1">
     <g id="line2d_1">
      <path clip-path="url(#pd69cf519ec)" d="M 33.615013 239.758125 
L 33.615013 22.318125 
" style="fill:none;stroke:#b0b0b0;stroke-linecap:square;stroke-width:0.8;"/>
     </g>
     <g id="line2d_2">
      <defs>
       <path d="M 0 0 
L 0 3.5 
" id="ma0b322ccc0" style="stroke:#000000;stroke-width:0.8;"/>
      </defs>
      <g>
       <use style="stroke:#000000;stroke-width:0.8;" x="33.615013" xlink:href="#ma0b322ccc0" y="239.758125"/>
      </g>
     </g>
     <g id="text_1">
      <!-- −20 -->
      <g transform="translate(23.062669 254.356563)scale(0.1 -0.1)">
       <defs>
        <path d="M 10.59375 35.5 
L 73.1875 35.5 
L 73.1875 27.203125 
L 10.59375 27.203125 
z
" id="DejaVuSans-8722"/>
        <path d="M 19.1875 8.296875 
L 53.609375 8.296875 
L 53.609375 0 
L 7.328125 0 
L 7.328125 8.296875 
Q 12.9375 14.109375 22.625 23.890625 
Q 32.328125 33.6875 34.8125 36.53125 
Q 39.546875 41.84375 41.421875 45.53125 
Q 43.3125 49.21875 43.3125 52.78125 
Q 43.3125 58.59375 39.234375 62.25 
Q 35.15625 65.921875 28.609375 65.921875 
Q 23.96875 65.921875 18.8125 64.3125 
Q 13.671875 62.703125 7.8125 59.421875 
L 7.8125 69.390625 
Q 13.765625 71.78125 18.9375 73 
Q 24.125 74.21875 28.421875 74.21875 
Q 39.75 74.21875 46.484375 68.546875 
Q 53.21875 62.890625 53.21875 53.421875 
Q 53.21875 48.921875 51.53125 44.890625 
Q 49.859375 40.875 45.40625 35.40625 
Q 44.1875 33.984375 37.640625 27.21875 
Q 31.109375 20.453125 19.1875 8.296875 
z
" id="DejaVuSans-50"/>
        <path d="M 31.78125 66.40625 
Q 24.171875 66.40625 20.328125 58.90625 
Q 16.5 51.421875 16.5 36.375 
Q 16.5 21.390625 20.328125 13.890625 
Q 24.171875 6.390625 31.78125 6.390625 
Q 39.453125 6.390625 43.28125 13.890625 
Q 47.125 21.390625 47.125 36.375 
Q 47.125 51.421875 43.28125 58.90625 
Q 39.453125 66.40625 31.78125 66.40625 
z
M 31.78125 74.21875 
Q 44.046875 74.21875 50.515625 64.515625 
Q 56.984375 54.828125 56.984375 36.375 
Q 56.984375 17.96875 50.515625 8.265625 
Q 44.046875 -1.421875 31.78125 -1.421875 
Q 19.53125 -1.421875 13.0625 8.265625 
Q 6.59375 17.96875 6.59375 36.375 
Q 6.59375 54.828125 13.0625 64.515625 
Q 19.53125 74.21875 31.78125 74.21875 
z
" id="DejaVuSans-48"/>
       </defs>
       <use xlink:href="#DejaVuSans-8722"/>
       <use x="83.789062" xlink:href="#DejaVuSans-50"/>
       <use x="147.412109" xlink:href="#DejaVuSans-48"/>
      </g>
     </g>
    </g>
    <g id="xtick_2">
     <g id="line2d_3">
      <path clip-path="url(#pd69cf519ec)" d="M 86.825439 239.758125 
L 86.825439 22.318125 
" style="fill:none;stroke:#b0b0b0;stroke-linecap:square;stroke-width:0.8;"/>
     </g>
     <g id="line2d_4">
      <g>
       <use style="stroke:#000000;stroke-width:0.8;" x="86.825439" xlink:href="#ma0b322ccc0" y="239.758125"/>
      </g>
     </g>
     <g id="text_2">
      <!-- −10 -->
      <g transform="translate(76.273095 254.356563)scale(0.1 -0.1)">
       <defs>
        <path d="M 12.40625 8.296875 
L 28.515625 8.296875 
L 28.515625 63.921875 
L 10.984375 60.40625 
L 10.984375 69.390625 
L 28.421875 72.90625 
L 38.28125 72.90625 
L 38.28125 8.296875 
L 54.390625 8.296875 
L 54.390625 0 
L 12.40625 0 
z
" id="DejaVuSans-49"/>
       </defs>
       <use xlink:href="#DejaVuSans-8722"/>
       <use x="83.789062" xlink:href="#DejaVuSans-49"/>
       <use x="147.412109" xlink:href="#DejaVuSans-48"/>
      </g>
     </g>
    </g>
    <g id="xtick_3">
     <g id="line2d_5">
      <path clip-path="url(#pd69cf519ec)" d="M 140.035865 239.758125 
L 140.035865 22.318125 
" style="fill:none;stroke:#b0b0b0;stroke-linecap:square;stroke-width:0.8;"/>
     </g>
     <g id="line2d_6">
      <g>
       <use style="stroke:#000000;stroke-width:0.8;" x="140.035865" xlink:href="#ma0b322ccc0" y="239.758125"/>
      </g>
     </g>
     <g id="text_3">
      <!-- 0 -->
      <g transform="translate(136.854615 254.356563)scale(0.1 -0.1)">
       <use xlink:href="#DejaVuSans-48"/>
      </g>
     </g>
    </g>
    <g id="xtick_4">
     <g id="line2d_7">
      <path clip-path="url(#pd69cf519ec)" d="M 193.246291 239.758125 
L 193.246291 22.318125 
" style="fill:none;stroke:#b0b0b0;stroke-linecap:square;stroke-width:0.8;"/>
     </g>
     <g id="line2d_8">
      <g>
       <use style="stroke:#000000;stroke-width:0.8;" x="193.246291" xlink:href="#ma0b322ccc0" y="239.758125"/>
      </g>
     </g>
     <g id="text_4">
      <!-- 10 -->
      <g transform="translate(186.883791 254.356563)scale(0.1 -0.1)">
       <use xlink:href="#DejaVuSans-49"/>
       <use x="63.623047" xlink:href="#DejaVuSans-48"/>
      </g>
     </g>
    </g>
    <g id="xtick_5">
     <g id="line2d_9">
      <path clip-path="url(#pd69cf519ec)" d="M 246.456717 239.758125 
L 246.456717 22.318125 
" style="fill:none;stroke:#b0b0b0;stroke-linecap:square;stroke-width:0.8;"/>
     </g>
     <g id="line2d_10">
      <g>
       <use style="stroke:#000000;stroke-width:0.8;" x="246.456717" xlink:href="#ma0b322ccc0" y="239.758125"/>
      </g>
     </g>
     <g id="text_5">
      <!-- 20 -->
      <g transform="translate(240.094217 254.356563)scale(0.1 -0.1)">
       <use xlink:href="#DejaVuSans-50"/>
       <use x="63.623047" xlink:href="#DejaVuSans-48"/>
      </g>
     </g>
    </g>
    <g id="xtick_6">
     <g id="line2d_11">
      <path clip-path="url(#pd69cf519ec)" d="M 299.667143 239.758125 
L 299.667143 22.318125 
" style="fill:none;stroke:#b0b0b0;stroke-linecap:square;stroke-width:0.8;"/>
     </g>
     <g id="line2d_12">
      <g>
       <use style="stroke:#000000;stroke-width:0.8;" x="299.667143" xlink:href="#ma0b322ccc0" y="239.758125"/>
      </g>
     </g>
     <g id="text_6">
      <!-- 30 -->
      <g transform="translate(293.304643 254.356563)scale(0.1 -0.1)">
       <defs>
        <path d="M 40.578125 39.3125 
Q 47.65625 37.796875 51.625 33 
Q 55.609375 28.21875 55.609375 21.1875 
Q 55.609375 10.40625 48.1875 4.484375 
Q 40.765625 -1.421875 27.09375 -1.421875 
Q 22.515625 -1.421875 17.65625 -0.515625 
Q 12.796875 0.390625 7.625 2.203125 
L 7.625 11.71875 
Q 11.71875 9.328125 16.59375 8.109375 
Q 21.484375 6.890625 26.8125 6.890625 
Q 36.078125 6.890625 40.9375 10.546875 
Q 45.796875 14.203125 45.796875 21.1875 
Q 45.796875 27.640625 41.28125 31.265625 
Q 36.765625 34.90625 28.71875 34.90625 
L 20.21875 34.90625 
L 20.21875 43.015625 
L 29.109375 43.015625 
Q 36.375 43.015625 40.234375 45.921875 
Q 44.09375 48.828125 44.09375 54.296875 
Q 44.09375 59.90625 40.109375 62.90625 
Q 36.140625 65.921875 28.71875 65.921875 
Q 24.65625 65.921875 20.015625 65.03125 
Q 15.375 64.15625 9.8125 62.3125 
L 9.8125 71.09375 
Q 15.4375 72.65625 20.34375 73.4375 
Q 25.25 74.21875 29.59375 74.21875 
Q 40.828125 74.21875 47.359375 69.109375 
Q 53.90625 64.015625 53.90625 55.328125 
Q 53.90625 49.265625 50.4375 45.09375 
Q 46.96875 40.921875 40.578125 39.3125 
z
" id="DejaVuSans-51"/>
       </defs>
       <use xlink:href="#DejaVuSans-51"/>
       <use x="63.623047" xlink:href="#DejaVuSans-48"/>
      </g>
     </g>
    </g>
    <g id="xtick_7">
     <g id="line2d_13">
      <path clip-path="url(#pd69cf519ec)" d="M 352.877569 239.758125 
L 352.877569 22.318125 
" style="fill:none;stroke:#b0b0b0;stroke-linecap:square;stroke-width:0.8;"/>
     </g>
     <g id="line2d_14">
      <g>
       <use style="stroke:#000000;stroke-width:0.8;" x="352.877569" xlink:href="#ma0b322ccc0" y="239.758125"/>
      </g>
     </g>
     <g id="text_7">
      <!-- 40 -->
      <g transform="translate(346.515069 254.356563)scale(0.1 -0.1)">
       <defs>
        <path d="M 37.796875 64.3125 
L 12.890625 25.390625 
L 37.796875 25.390625 
z
M 35.203125 72.90625 
L 47.609375 72.90625 
L 47.609375 25.390625 
L 58.015625 25.390625 
L 58.015625 17.1875 
L 47.609375 17.1875 
L 47.609375 0 
L 37.796875 0 
L 37.796875 17.1875 
L 4.890625 17.1875 
L 4.890625 26.703125 
z
" id="DejaVuSans-52"/>
       </defs>
       <use xlink:href="#DejaVuSans-52"/>
       <use x="63.623047" xlink:href="#DejaVuSans-48"/>
      </g>
     </g>
    </g>
   </g>
   <g id="matplotlib.axis_2">
    <g id="ytick_1">
     <g id="line2d_15">
      <path clip-path="url(#pd69cf519ec)" d="M 30.103125 229.897057 
L 364.903125 229.897057 
" style="fill:none;stroke:#b0b0b0;stroke-linecap:square;stroke-width:0.8;"/>
     </g>
     <g id="line2d_16">
      <defs>
       <path d="M 0 0 
L -3.5 0 
" id="ma31b4dd75c" style="stroke:#000000;stroke-width:0.8;"/>
      </defs>
      <g>
       <use style="stroke:#000000;stroke-width:0.8;" x="30.103125" xlink:href="#ma31b4dd75c" y="229.897057"/>
      </g>
     </g>
     <g id="text_8">
      <!-- 0.0 -->
      <g transform="translate(7.2 233.696275)scale(0.1 -0.1)">
       <defs>
        <path d="M 10.6875 12.40625 
L 21 12.40625 
L 21 0 
L 10.6875 0 
z
" id="DejaVuSans-46"/>
       </defs>
       <use xlink:href="#DejaVuSans-48"/>
       <use x="63.623047" xlink:href="#DejaVuSans-46"/>
       <use x="95.410156" xlink:href="#DejaVuSans-48"/>
      </g>
     </g>
    </g>
    <g id="ytick_2">
     <g id="line2d_17">
      <path clip-path="url(#pd69cf519ec)" d="M 30.103125 190.357998 
L 364.903125 190.357998 
" style="fill:none;stroke:#b0b0b0;stroke-linecap:square;stroke-width:0.8;"/>
     </g>
     <g id="line2d_18">
      <g>
       <use style="stroke:#000000;stroke-width:0.8;" x="30.103125" xlink:href="#ma31b4dd75c" y="190.357998"/>
      </g>
     </g>
     <g id="text_9">
      <!-- 0.2 -->
      <g transform="translate(7.2 194.157216)scale(0.1 -0.1)">
       <use xlink:href="#DejaVuSans-48"/>
       <use x="63.623047" xlink:href="#DejaVuSans-46"/>
       <use x="95.410156" xlink:href="#DejaVuSans-50"/>
      </g>
     </g>
    </g>
    <g id="ytick_3">
     <g id="line2d_19">
      <path clip-path="url(#pd69cf519ec)" d="M 30.103125 150.818939 
L 364.903125 150.818939 
" style="fill:none;stroke:#b0b0b0;stroke-linecap:square;stroke-width:0.8;"/>
     </g>
     <g id="line2d_20">
      <g>
       <use style="stroke:#000000;stroke-width:0.8;" x="30.103125" xlink:href="#ma31b4dd75c" y="150.818939"/>
      </g>
     </g>
     <g id="text_10">
      <!-- 0.4 -->
      <g transform="translate(7.2 154.618157)scale(0.1 -0.1)">
       <use xlink:href="#DejaVuSans-48"/>
       <use x="63.623047" xlink:href="#DejaVuSans-46"/>
       <use x="95.410156" xlink:href="#DejaVuSans-52"/>
      </g>
     </g>
    </g>
    <g id="ytick_4">
     <g id="line2d_21">
      <path clip-path="url(#pd69cf519ec)" d="M 30.103125 111.279879 
L 364.903125 111.279879 
" style="fill:none;stroke:#b0b0b0;stroke-linecap:square;stroke-width:0.8;"/>
     </g>
     <g id="line2d_22">
      <g>
       <use style="stroke:#000000;stroke-width:0.8;" x="30.103125" xlink:href="#ma31b4dd75c" y="111.279879"/>
      </g>
     </g>
     <g id="text_11">
      <!-- 0.6 -->
      <g transform="translate(7.2 115.079098)scale(0.1 -0.1)">
       <defs>
        <path d="M 33.015625 40.375 
Q 26.375 40.375 22.484375 35.828125 
Q 18.609375 31.296875 18.609375 23.390625 
Q 18.609375 15.53125 22.484375 10.953125 
Q 26.375 6.390625 33.015625 6.390625 
Q 39.65625 6.390625 43.53125 10.953125 
Q 47.40625 15.53125 47.40625 23.390625 
Q 47.40625 31.296875 43.53125 35.828125 
Q 39.65625 40.375 33.015625 40.375 
z
M 52.59375 71.296875 
L 52.59375 62.3125 
Q 48.875 64.0625 45.09375 64.984375 
Q 41.3125 65.921875 37.59375 65.921875 
Q 27.828125 65.921875 22.671875 59.328125 
Q 17.53125 52.734375 16.796875 39.40625 
Q 19.671875 43.65625 24.015625 45.921875 
Q 28.375 48.1875 33.59375 48.1875 
Q 44.578125 48.1875 50.953125 41.515625 
Q 57.328125 34.859375 57.328125 23.390625 
Q 57.328125 12.15625 50.6875 5.359375 
Q 44.046875 -1.421875 33.015625 -1.421875 
Q 20.359375 -1.421875 13.671875 8.265625 
Q 6.984375 17.96875 6.984375 36.375 
Q 6.984375 53.65625 15.1875 63.9375 
Q 23.390625 74.21875 37.203125 74.21875 
Q 40.921875 74.21875 44.703125 73.484375 
Q 48.484375 72.75 52.59375 71.296875 
z
" id="DejaVuSans-54"/>
       </defs>
       <use xlink:href="#DejaVuSans-48"/>
       <use x="63.623047" xlink:href="#DejaVuSans-46"/>
       <use x="95.410156" xlink:href="#DejaVuSans-54"/>
      </g>
     </g>
    </g>
    <g id="ytick_5">
     <g id="line2d_23">
      <path clip-path="url(#pd69cf519ec)" d="M 30.103125 71.74082 
L 364.903125 71.74082 
" style="fill:none;stroke:#b0b0b0;stroke-linecap:square;stroke-width:0.8;"/>
     </g>
     <g id="line2d_24">
      <g>
       <use style="stroke:#000000;stroke-width:0.8;" x="30.103125" xlink:href="#ma31b4dd75c" y="71.74082"/>
      </g>
     </g>
     <g id="text_12">
      <!-- 0.8 -->
      <g transform="translate(7.2 75.540039)scale(0.1 -0.1)">
       <defs>
        <path d="M 31.78125 34.625 
Q 24.75 34.625 20.71875 30.859375 
Q 16.703125 27.09375 16.703125 20.515625 
Q 16.703125 13.921875 20.71875 10.15625 
Q 24.75 6.390625 31.78125 6.390625 
Q 38.8125 6.390625 42.859375 10.171875 
Q 46.921875 13.96875 46.921875 20.515625 
Q 46.921875 27.09375 42.890625 30.859375 
Q 38.875 34.625 31.78125 34.625 
z
M 21.921875 38.8125 
Q 15.578125 40.375 12.03125 44.71875 
Q 8.5 49.078125 8.5 55.328125 
Q 8.5 64.0625 14.71875 69.140625 
Q 20.953125 74.21875 31.78125 74.21875 
Q 42.671875 74.21875 48.875 69.140625 
Q 55.078125 64.0625 55.078125 55.328125 
Q 55.078125 49.078125 51.53125 44.71875 
Q 48 40.375 41.703125 38.8125 
Q 48.828125 37.15625 52.796875 32.3125 
Q 56.78125 27.484375 56.78125 20.515625 
Q 56.78125 9.90625 50.3125 4.234375 
Q 43.84375 -1.421875 31.78125 -1.421875 
Q 19.734375 -1.421875 13.25 4.234375 
Q 6.78125 9.90625 6.78125 20.515625 
Q 6.78125 27.484375 10.78125 32.3125 
Q 14.796875 37.15625 21.921875 38.8125 
z
M 18.3125 54.390625 
Q 18.3125 48.734375 21.84375 45.5625 
Q 25.390625 42.390625 31.78125 42.390625 
Q 38.140625 42.390625 41.71875 45.5625 
Q 45.3125 48.734375 45.3125 54.390625 
Q 45.3125 60.0625 41.71875 63.234375 
Q 38.140625 66.40625 31.78125 66.40625 
Q 25.390625 66.40625 21.84375 63.234375 
Q 18.3125 60.0625 18.3125 54.390625 
z
" id="DejaVuSans-56"/>
       </defs>
       <use xlink:href="#DejaVuSans-48"/>
       <use x="63.623047" xlink:href="#DejaVuSans-46"/>
       <use x="95.410156" xlink:href="#DejaVuSans-56"/>
      </g>
     </g>
    </g>
    <g id="ytick_6">
     <g id="line2d_25">
      <path clip-path="url(#pd69cf519ec)" d="M 30.103125 32.201761 
L 364.903125 32.201761 
" style="fill:none;stroke:#b0b0b0;stroke-linecap:square;stroke-width:0.8;"/>
     </g>
     <g id="line2d_26">
      <g>
       <use style="stroke:#000000;stroke-width:0.8;" x="30.103125" xlink:href="#ma31b4dd75c" y="32.201761"/>
      </g>
     </g>
     <g id="text_13">
      <!-- 1.0 -->
      <g transform="translate(7.2 36.00098)scale(0.1 -0.1)">
       <use xlink:href="#DejaVuSans-49"/>
       <use x="63.623047" xlink:href="#DejaVuSans-46"/>
       <use x="95.410156" xlink:href="#DejaVuSans-48"/>
      </g>
     </g>
    </g>
   </g>
   <g id="line2d_27">
    <path clip-path="url(#pd69cf519ec)" d="M 45.321307 229.874489 
L 53.834975 229.648809 
L 55.431288 229.490833 
L 55.431288 229.445697 
L 57.027601 229.287722 
L 57.027601 229.265154 
L 58.623913 229.129746 
L 58.623913 229.08461 
L 59.688122 228.949202 
L 59.688122 228.904067 
L 62.348643 228.700955 
L 62.348643 228.678387 
L 66.605477 228.407571 
L 66.605477 228.385004 
L 69.798103 228.159324 
L 69.798103 228.114188 
L 71.92652 227.933644 
L 71.92652 227.911076 
L 73.522833 227.753101 
L 73.522833 227.685397 
L 74.587041 227.549989 
L 74.587041 227.459717 
L 76.183354 227.301742 
L 76.183354 227.234038 
L 77.247562 227.09863 
L 77.247562 227.053494 
L 78.311771 226.918086 
L 78.311771 226.827815 
L 78.843875 226.714975 
L 78.843875 226.602135 
L 79.908084 226.466727 
L 79.908084 226.399023 
L 80.440188 226.286184 
L 80.440188 226.173344 
L 80.972292 226.060504 
L 80.972292 225.9928 
L 82.036501 225.857392 
L 82.036501 225.744553 
L 83.100709 225.609145 
L 83.100709 225.564009 
L 83.632813 225.451169 
L 83.632813 225.406033 
L 84.164918 225.293194 
L 84.164918 225.248058 
L 84.697022 225.135218 
L 84.697022 225.067514 
L 85.761231 224.932106 
L 85.761231 224.841834 
L 87.357543 224.683859 
L 87.357543 224.661291 
L 87.889648 224.548451 
L 87.889648 224.525883 
L 88.421752 224.413043 
L 88.421752 224.322771 
L 88.953856 224.209932 
L 88.953856 224.164796 
L 89.48596 224.051956 
L 89.48596 223.961684 
L 90.018065 223.848844 
L 90.018065 223.803708 
L 91.082273 223.668301 
L 91.082273 223.623165 
L 92.146482 223.487757 
L 92.146482 223.420053 
L 93.742794 223.262078 
L 93.742794 223.216942 
L 94.274899 223.104102 
L 94.274899 222.991262 
L 94.807003 222.878422 
L 94.807003 222.765582 
L 95.871211 222.630175 
L 95.871211 222.449631 
L 96.403316 222.336791 
L 96.403316 222.246519 
L 96.93542 222.13368 
L 96.93542 222.043408 
L 97.999628 221.908 
L 97.999628 221.772592 
L 98.531733 221.659753 
L 98.531733 221.524345 
L 99.063837 221.411505 
L 99.063837 221.298665 
L 99.595941 221.185826 
L 99.595941 221.005282 
L 100.128046 220.892442 
L 100.128046 220.734466 
L 100.66015 220.621627 
L 100.66015 220.486219 
L 101.192254 220.373379 
L 101.192254 220.350811 
L 101.724358 220.237971 
L 101.724358 220.192835 
L 102.256463 220.079996 
L 102.256463 219.989724 
L 102.788567 219.876884 
L 102.788567 219.69634 
L 103.320671 219.583501 
L 103.320671 219.448093 
L 103.852775 219.335253 
L 103.852775 219.290117 
L 104.38488 219.177277 
L 104.38488 219.087006 
L 104.916984 218.974166 
L 104.916984 218.680782 
L 105.449088 218.567943 
L 105.449088 218.274559 
L 105.981192 218.161719 
L 105.981192 217.958608 
L 106.513297 217.845768 
L 106.513297 217.755496 
L 107.045401 217.642656 
L 107.045401 217.597521 
L 107.577505 217.484681 
L 107.577505 217.371841 
L 108.109609 217.259001 
L 108.109609 216.988186 
L 108.641714 216.875346 
L 108.641714 216.694802 
L 109.173818 216.581963 
L 109.173818 216.423987 
L 109.705922 216.311147 
L 109.705922 216.198307 
L 110.238026 216.085467 
L 110.238026 215.814652 
L 110.770131 215.701812 
L 110.770131 215.453565 
L 111.302235 215.340725 
L 111.302235 215.160181 
L 111.834339 215.047341 
L 111.834339 214.73139 
L 112.366443 214.61855 
L 112.366443 214.347735 
L 112.898548 214.234895 
L 112.898548 214.144623 
L 113.430652 214.031783 
L 113.430652 213.873808 
L 113.962756 213.760968 
L 113.962756 213.62556 
L 114.494861 213.51272 
L 114.494861 213.377313 
L 115.026965 213.264473 
L 115.026965 213.016225 
L 115.559069 212.903386 
L 115.559069 212.677706 
L 116.091173 212.564866 
L 116.091173 212.361755 
L 116.623278 212.248915 
L 116.623278 212.023235 
L 117.155382 211.910396 
L 117.155382 211.549308 
L 117.687486 211.436469 
L 117.687486 211.188221 
L 118.21959 211.075381 
L 118.21959 210.917406 
L 118.751695 210.804566 
L 118.751695 210.669158 
L 119.283799 210.556318 
L 119.283799 210.466046 
L 119.815903 210.353207 
L 119.815903 210.150095 
L 120.348007 210.037255 
L 120.348007 209.811576 
L 120.880112 209.698736 
L 120.880112 209.473056 
L 121.412216 209.360217 
L 121.412216 209.134537 
L 121.94432 209.021697 
L 121.94432 208.796018 
L 122.476424 208.683178 
L 122.476424 208.502634 
L 123.008529 208.389794 
L 123.008529 208.164115 
L 123.540633 208.051275 
L 123.540633 207.870731 
L 124.072737 207.757892 
L 124.072737 207.66762 
L 124.604841 207.55478 
L 124.604841 207.283965 
L 125.136946 207.171125 
L 125.136946 207.013149 
L 125.66905 206.900309 
L 125.66905 206.67463 
L 126.201154 206.56179 
L 126.201154 206.290975 
L 126.733259 206.178135 
L 126.733259 205.975023 
L 127.265363 205.862183 
L 127.265363 205.5688 
L 127.797467 205.45596 
L 127.797467 205.34312 
L 128.329571 205.230281 
L 128.329571 204.959465 
L 128.861676 204.846625 
L 128.861676 204.553242 
L 129.39378 204.440402 
L 129.39378 204.304994 
L 129.925884 204.192155 
L 129.925884 204.011611 
L 130.457988 203.898771 
L 130.457988 203.515116 
L 130.990093 203.402276 
L 130.990093 203.289436 
L 131.522197 203.176597 
L 131.522197 202.860645 
L 132.054301 202.747805 
L 132.054301 202.499558 
L 132.586405 202.386718 
L 132.586405 202.115903 
L 133.11851 202.003063 
L 133.11851 201.641976 
L 133.650614 201.529136 
L 133.650614 201.37116 
L 134.182718 201.25832 
L 134.182718 200.942369 
L 134.714822 200.829529 
L 134.714822 200.671553 
L 135.246927 200.558714 
L 135.246927 200.355602 
L 135.779031 200.242762 
L 135.779031 200.039651 
L 136.311135 199.926811 
L 136.311135 199.701131 
L 136.843239 199.588292 
L 136.843239 199.430316 
L 137.375344 199.317476 
L 137.375344 199.024093 
L 137.907448 198.911253 
L 137.907448 198.640437 
L 138.439552 198.527598 
L 138.439552 198.211646 
L 138.971656 198.098806 
L 138.971656 197.873127 
L 139.503761 197.760287 
L 139.503761 197.557176 
L 140.035865 197.444336 
L 140.035865 197.083248 
L 140.567969 196.970409 
L 140.567969 196.654457 
L 141.100074 196.541618 
L 141.100074 196.338506 
L 141.632178 196.225666 
L 141.632178 195.842011 
L 142.164282 195.729171 
L 142.164282 195.548627 
L 142.696386 195.435788 
L 142.696386 195.142404 
L 143.228491 195.029564 
L 143.228491 194.668477 
L 143.760595 194.555637 
L 143.760595 194.329958 
L 144.292699 194.217118 
L 144.292699 193.652919 
L 144.824803 193.540079 
L 144.824803 193.156424 
L 145.356908 193.043584 
L 145.356908 192.795337 
L 145.889012 192.682497 
L 145.889012 192.09573 
L 146.421116 191.98289 
L 146.421116 191.621803 
L 146.95322 191.508963 
L 146.95322 190.967332 
L 147.485325 190.854493 
L 147.485325 190.583677 
L 148.017429 190.470837 
L 148.017429 190.087182 
L 148.549533 189.974342 
L 148.549533 189.522983 
L 149.081637 189.410143 
L 149.081637 189.11676 
L 149.613742 189.00392 
L 149.613742 188.575129 
L 150.145846 188.462289 
L 150.145846 188.101202 
L 150.67795 187.988362 
L 150.67795 187.559571 
L 151.210054 187.446731 
L 151.210054 187.108212 
L 151.742159 186.995372 
L 151.742159 186.589149 
L 152.274263 186.476309 
L 152.274263 186.205494 
L 152.806367 186.092654 
L 152.806367 185.776702 
L 153.338471 185.663863 
L 153.338471 185.1448 
L 153.870576 185.03196 
L 153.870576 184.512897 
L 154.40268 184.400057 
L 154.40268 183.92613 
L 154.934784 183.81329 
L 154.934784 183.339363 
L 155.466889 183.226523 
L 155.466889 182.70746 
L 155.998993 182.594621 
L 155.998993 182.05299 
L 156.531097 181.94015 
L 156.531097 181.601631 
L 157.063201 181.488791 
L 157.063201 181.285679 
L 157.595306 181.172839 
L 157.595306 180.83432 
L 158.12741 180.72148 
L 158.12741 180.495801 
L 158.659514 180.382961 
L 158.659514 179.886466 
L 159.191618 179.773626 
L 159.191618 179.457675 
L 159.723723 179.344835 
L 159.723723 179.028884 
L 160.255827 178.916044 
L 160.255827 178.600092 
L 160.787931 178.487253 
L 160.787931 177.990758 
L 161.320035 177.877918 
L 161.320035 177.62967 
L 161.85214 177.516831 
L 161.85214 177.178311 
L 162.384244 177.065471 
L 162.384244 176.591544 
L 162.916348 176.478705 
L 162.916348 176.072481 
L 163.448452 175.959642 
L 163.448452 175.688826 
L 163.980557 175.575986 
L 163.980557 175.395443 
L 164.512661 175.282603 
L 164.512661 175.034355 
L 165.044765 174.921516 
L 165.044765 174.425021 
L 165.576869 174.312181 
L 165.576869 174.018797 
L 166.108974 173.905958 
L 166.108974 173.635142 
L 166.641078 173.522302 
L 166.641078 173.070943 
L 167.173182 172.958103 
L 167.173182 172.371337 
L 167.705286 172.258497 
L 167.705286 171.716866 
L 168.237391 171.604026 
L 168.237391 171.197803 
L 168.769495 171.084963 
L 168.769495 170.611036 
L 169.301599 170.498196 
L 169.301599 170.159677 
L 169.833704 170.046837 
L 169.833704 169.79859 
L 170.365808 169.68575 
L 170.365808 169.189255 
L 170.897912 169.076415 
L 170.897912 168.783032 
L 171.430016 168.670192 
L 171.430016 168.376808 
L 171.962121 168.263969 
L 171.962121 167.812609 
L 172.494225 167.69977 
L 172.494225 167.451522 
L 173.026329 167.338682 
L 173.026329 167.113003 
L 173.558433 167.000163 
L 173.558433 166.526236 
L 174.090538 166.413396 
L 174.090538 166.029741 
L 174.622642 165.916901 
L 174.622642 165.623518 
L 175.154746 165.510678 
L 175.154746 165.172159 
L 175.68685 165.059319 
L 175.68685 164.585392 
L 176.218955 164.472552 
L 176.218955 164.156601 
L 176.751059 164.043761 
L 176.751059 163.547266 
L 177.283163 163.434426 
L 177.283163 163.095907 
L 177.815267 162.983067 
L 177.815267 162.418868 
L 178.347372 162.306028 
L 178.347372 161.854669 
L 178.879476 161.741829 
L 178.879476 161.448446 
L 179.41158 161.335606 
L 179.41158 161.155062 
L 179.943684 161.042223 
L 179.943684 160.703703 
L 180.475789 160.590863 
L 180.475789 159.846121 
L 181.007893 159.733281 
L 181.007893 159.394762 
L 181.539997 159.281922 
L 181.539997 158.988539 
L 182.072101 158.875699 
L 182.072101 158.514612 
L 182.604206 158.401772 
L 182.604206 158.018116 
L 183.13631 157.905277 
L 183.13631 157.476486 
L 183.668414 157.363646 
L 183.668414 157.183102 
L 184.200519 157.070262 
L 184.200519 156.641471 
L 184.732623 156.528631 
L 184.732623 156.235248 
L 185.264727 156.122408 
L 185.264727 155.761321 
L 185.796831 155.648481 
L 185.796831 155.422802 
L 186.328936 155.309962 
L 186.328936 154.99401 
L 186.86104 154.881171 
L 186.86104 154.407244 
L 187.393144 154.294404 
L 187.393144 153.955884 
L 187.925248 153.843045 
L 187.925248 153.527093 
L 188.457353 153.414253 
L 188.457353 153.211142 
L 188.989457 153.098302 
L 188.989457 152.737215 
L 189.521561 152.624375 
L 189.521561 152.421263 
L 190.053665 152.308424 
L 190.053665 151.857064 
L 190.58577 151.744225 
L 190.58577 151.180026 
L 191.117874 151.067186 
L 191.117874 150.570691 
L 191.649978 150.457851 
L 191.649978 150.209604 
L 192.182082 150.096764 
L 192.182082 149.667973 
L 192.714187 149.555133 
L 192.714187 149.216614 
L 193.246291 149.103774 
L 193.246291 148.720119 
L 193.778395 148.607279 
L 193.778395 148.246192 
L 194.310499 148.133352 
L 194.310499 147.749696 
L 194.842604 147.636857 
L 194.842604 147.230633 
L 195.374708 147.117794 
L 195.374708 146.666435 
L 195.906812 146.553595 
L 195.906812 146.305347 
L 196.438916 146.192508 
L 196.438916 145.650877 
L 196.971021 145.538037 
L 196.971021 145.222085 
L 197.503125 145.109246 
L 197.503125 144.680454 
L 198.035229 144.567615 
L 198.035229 144.229095 
L 198.567334 144.116256 
L 198.567334 143.710032 
L 199.099438 143.597193 
L 199.099438 143.281241 
L 199.631542 143.168401 
L 199.631542 142.762178 
L 200.163646 142.649338 
L 200.163646 142.243115 
L 200.695751 142.130275 
L 200.695751 141.74662 
L 201.227855 141.63378 
L 201.227855 141.385533 
L 201.759959 141.272693 
L 201.759959 140.934174 
L 202.292063 140.821334 
L 202.292063 140.369975 
L 202.824168 140.257135 
L 202.824168 139.783208 
L 203.356272 139.670368 
L 203.356272 139.151305 
L 203.888376 139.038465 
L 203.888376 138.609674 
L 204.42048 138.496834 
L 204.42048 137.955204 
L 204.952585 137.842364 
L 204.952585 137.481276 
L 205.484689 137.368437 
L 205.484689 137.007349 
L 206.016793 136.89451 
L 206.016793 136.44315 
L 206.548897 136.330311 
L 206.548897 136.194903 
L 207.081002 136.082063 
L 207.081002 135.630704 
L 207.613106 135.517864 
L 207.613106 135.089073 
L 208.14521 134.976233 
L 208.14521 134.705418 
L 208.677314 134.592578 
L 208.677314 134.254059 
L 209.209419 134.141219 
L 209.209419 133.870403 
L 209.741523 133.757564 
L 209.741523 133.68986 
L 210.273627 133.57702 
L 210.273627 133.148229 
L 210.805731 133.035389 
L 210.805731 132.629166 
L 211.337836 132.516326 
L 211.337836 132.222943 
L 211.86994 132.110103 
L 211.86994 131.816719 
L 212.402044 131.70388 
L 212.402044 131.433064 
L 212.934149 131.320224 
L 212.934149 130.981705 
L 213.466253 130.868865 
L 213.466253 130.462642 
L 213.998357 130.349802 
L 213.998357 129.988715 
L 214.530461 129.875875 
L 214.530461 129.650196 
L 215.062566 129.537356 
L 215.062566 129.153701 
L 215.59467 129.040861 
L 215.59467 128.770045 
L 216.126774 128.657206 
L 216.126774 128.341254 
L 216.658878 128.228414 
L 216.658878 127.777055 
L 217.190983 127.664216 
L 217.190983 127.325696 
L 217.723087 127.212856 
L 217.723087 126.942041 
L 218.255191 126.829201 
L 218.255191 126.51325 
L 218.787295 126.40041 
L 218.787295 125.971619 
L 219.3194 125.858779 
L 219.3194 125.610532 
L 219.851504 125.497692 
L 219.851504 125.204308 
L 220.383608 125.091469 
L 220.383608 124.685245 
L 220.915712 124.572406 
L 220.915712 124.211318 
L 221.447817 124.098479 
L 221.447817 123.782527 
L 221.979921 123.669687 
L 221.979921 123.444008 
L 222.512025 123.331168 
L 222.512025 122.744401 
L 223.044129 122.631561 
L 223.044129 122.54129 
L 223.576234 122.42845 
L 223.576234 121.999659 
L 224.108338 121.886819 
L 224.108338 121.525732 
L 224.640442 121.412892 
L 224.640442 121.232348 
L 225.172546 121.119508 
L 225.172546 120.758421 
L 225.704651 120.645581 
L 225.704651 120.239358 
L 226.236755 120.126518 
L 226.236755 119.697727 
L 226.768859 119.584887 
L 226.768859 119.178664 
L 227.300964 119.065824 
L 227.300964 118.727305 
L 227.833068 118.614465 
L 227.833068 118.275946 
L 228.365172 118.163106 
L 228.365172 117.553771 
L 228.897276 117.440931 
L 228.897276 116.921868 
L 229.429381 116.809029 
L 229.429381 116.425373 
L 229.961485 116.312534 
L 229.961485 115.703199 
L 230.493589 115.590359 
L 230.493589 115.139 
L 231.025693 115.02616 
L 231.025693 114.687641 
L 231.557798 114.574801 
L 231.557798 114.236282 
L 232.089902 114.123442 
L 232.089902 113.875194 
L 232.622006 113.762355 
L 232.622006 113.423835 
L 233.15411 113.310996 
L 233.15411 112.882204 
L 233.686215 112.769365 
L 233.686215 112.408277 
L 234.218319 112.295437 
L 234.218319 111.82151 
L 234.750423 111.708671 
L 234.750423 111.347583 
L 235.282527 111.234744 
L 235.282527 110.783384 
L 235.814632 110.670545 
L 235.814632 110.17405 
L 236.346736 110.06121 
L 236.346736 109.564715 
L 236.87884 109.451875 
L 236.87884 108.932812 
L 237.410944 108.819972 
L 237.410944 108.323477 
L 237.943049 108.210637 
L 237.943049 107.714142 
L 238.475153 107.601303 
L 238.475153 107.195079 
L 239.007257 107.08224 
L 239.007257 106.585745 
L 239.539361 106.472905 
L 239.539361 106.111818 
L 240.071466 105.998978 
L 240.071466 105.367075 
L 240.60357 105.254235 
L 240.60357 104.690036 
L 241.135674 104.577197 
L 241.135674 103.922726 
L 241.667779 103.809886 
L 241.667779 103.020008 
L 242.199883 102.907168 
L 242.199883 102.568648 
L 242.731987 102.455809 
L 242.731987 101.959314 
L 243.264091 101.846474 
L 243.264091 101.192003 
L 243.796196 101.079163 
L 243.796196 100.469828 
L 244.3283 100.356989 
L 244.3283 99.928198 
L 244.860404 99.815358 
L 244.860404 99.296295 
L 245.392508 99.183455 
L 245.392508 98.822368 
L 245.924613 98.709528 
L 245.924613 98.280737 
L 246.456717 98.167897 
L 246.456717 97.626266 
L 246.988821 97.513426 
L 246.988821 96.971795 
L 247.520925 96.858956 
L 247.520925 96.181917 
L 248.05303 96.069077 
L 248.05303 95.459742 
L 248.585134 95.346902 
L 248.585134 94.872975 
L 249.117238 94.760136 
L 249.117238 93.970257 
L 249.649342 93.857417 
L 249.649342 93.225515 
L 250.181447 93.112675 
L 250.181447 92.367932 
L 250.713551 92.255092 
L 250.713551 91.781165 
L 251.245655 91.668326 
L 251.245655 91.171831 
L 251.777759 91.058991 
L 251.777759 90.675336 
L 252.309864 90.562496 
L 252.309864 89.998297 
L 252.841968 89.885457 
L 252.841968 89.253554 
L 253.374072 89.140715 
L 253.374072 88.64422 
L 253.906176 88.53138 
L 253.906176 88.19286 
L 254.438281 88.080021 
L 254.438281 87.606094 
L 254.970385 87.493254 
L 254.970385 86.951623 
L 255.502489 86.838783 
L 255.502489 86.20688 
L 256.034594 86.09404 
L 256.034594 85.529842 
L 256.566698 85.417002 
L 256.566698 84.785099 
L 257.098802 84.672259 
L 257.098802 84.062924 
L 257.630906 83.950085 
L 257.630906 83.498726 
L 258.163011 83.385886 
L 258.163011 82.866823 
L 258.695115 82.753983 
L 258.695115 82.34776 
L 259.227219 82.23492 
L 259.227219 81.964105 
L 259.759323 81.851265 
L 259.759323 81.445042 
L 260.291428 81.332202 
L 260.291428 80.700299 
L 260.823532 80.587459 
L 260.823532 79.955556 
L 261.355636 79.842717 
L 261.355636 79.346222 
L 261.88774 79.233382 
L 261.88774 78.646615 
L 262.419845 78.533775 
L 262.419845 78.195256 
L 262.951949 78.082416 
L 262.951949 77.631057 
L 263.484053 77.518217 
L 263.484053 77.089426 
L 264.016157 76.976586 
L 264.016157 76.502659 
L 264.548262 76.389819 
L 264.548262 75.622509 
L 265.080366 75.509669 
L 265.080366 74.922902 
L 265.61247 74.810062 
L 265.61247 74.426407 
L 266.144574 74.313567 
L 266.144574 73.907344 
L 266.676679 73.794504 
L 266.676679 73.501121 
L 267.208783 73.388281 
L 267.208783 72.936922 
L 267.740887 72.824082 
L 267.740887 72.282451 
L 268.272991 72.169612 
L 268.272991 71.673117 
L 268.805096 71.560277 
L 268.805096 70.838102 
L 269.3372 70.725262 
L 269.3372 70.273903 
L 269.869304 70.161063 
L 269.869304 69.709704 
L 270.401409 69.596865 
L 270.401409 69.168073 
L 270.933513 69.055234 
L 270.933513 68.423331 
L 271.465617 68.310491 
L 271.465617 67.971972 
L 271.997721 67.859132 
L 271.997721 67.294933 
L 272.529826 67.182093 
L 272.529826 66.753302 
L 273.06193 66.640462 
L 273.06193 66.098831 
L 273.594034 65.985992 
L 273.594034 65.534632 
L 274.126138 65.421793 
L 274.126138 65.038137 
L 274.658243 64.925298 
L 274.658243 64.496507 
L 275.190347 64.383667 
L 275.190347 64.045147 
L 275.722451 63.932308 
L 275.722451 63.57122 
L 276.254555 63.458381 
L 276.254555 63.164997 
L 276.78666 63.052157 
L 276.78666 62.555662 
L 277.318764 62.442823 
L 277.318764 62.126871 
L 277.850868 62.014031 
L 277.850868 61.69808 
L 278.382972 61.58524 
L 278.382972 61.4724 
L 278.915077 61.359561 
L 278.915077 60.930769 
L 279.447181 60.81793 
L 279.447181 60.456842 
L 279.979285 60.344003 
L 279.979285 59.915211 
L 280.511389 59.802372 
L 280.511389 59.463852 
L 281.043494 59.351013 
L 281.043494 59.193037 
L 281.575598 59.080197 
L 281.575598 58.741678 
L 282.107702 58.628838 
L 282.107702 58.267751 
L 282.639807 58.154911 
L 282.639807 57.838959 
L 283.171911 57.72612 
L 283.171911 57.319896 
L 283.704015 57.207057 
L 283.704015 56.891105 
L 284.236119 56.778266 
L 284.236119 56.439746 
L 284.768224 56.326906 
L 284.768224 55.920683 
L 285.300328 55.807843 
L 285.300328 55.424188 
L 285.832432 55.311348 
L 285.832432 54.905125 
L 286.364536 54.792285 
L 286.364536 54.40863 
L 286.896641 54.29579 
L 286.896641 53.979839 
L 287.428745 53.866999 
L 287.428745 53.573616 
L 287.960849 53.460776 
L 287.960849 52.919145 
L 288.492953 52.806305 
L 288.492953 52.30981 
L 289.025058 52.19697 
L 289.025058 51.790747 
L 289.557162 51.677907 
L 289.557162 51.294252 
L 290.089266 51.181412 
L 290.089266 50.684917 
L 290.62137 50.572078 
L 290.62137 50.165854 
L 291.153475 50.053015 
L 291.153475 49.669359 
L 291.685579 49.55652 
L 291.685579 49.10516 
L 292.217683 48.992321 
L 292.217683 48.698937 
L 292.749787 48.586097 
L 292.749787 48.33785 
L 293.281892 48.22501 
L 293.281892 47.796219 
L 293.813996 47.683379 
L 293.813996 47.412564 
L 294.3461 47.299724 
L 294.3461 47.164316 
L 294.878204 47.051476 
L 294.878204 46.848365 
L 295.410309 46.735525 
L 295.410309 46.509846 
L 295.942413 46.397006 
L 295.942413 45.990783 
L 296.474517 45.877943 
L 296.474517 45.607127 
L 297.006622 45.494287 
L 297.006622 45.35888 
L 297.538726 45.24604 
L 297.538726 45.110632 
L 298.07083 44.997792 
L 298.07083 44.839817 
L 298.602934 44.726977 
L 298.602934 44.343322 
L 299.135039 44.230482 
L 299.135039 44.02737 
L 299.667143 43.914531 
L 299.667143 43.756555 
L 300.199247 43.643715 
L 300.199247 43.576011 
L 300.731351 43.463171 
L 300.731351 43.282628 
L 301.263456 43.169788 
L 301.263456 43.102084 
L 301.79556 42.989244 
L 301.79556 42.853837 
L 302.327664 42.740997 
L 302.327664 42.583021 
L 302.859768 42.470181 
L 302.859768 42.312206 
L 303.391873 42.199366 
L 303.391873 42.063958 
L 303.923977 41.951118 
L 303.923977 41.838279 
L 304.456081 41.725439 
L 304.456081 41.657735 
L 304.988185 41.544895 
L 304.988185 41.364352 
L 305.52029 41.251512 
L 305.52029 41.093536 
L 306.052394 40.980696 
L 306.052394 40.777585 
L 306.584498 40.664745 
L 306.584498 40.506769 
L 307.648707 40.371361 
L 307.648707 40.235954 
L 308.180811 40.123114 
L 308.180811 39.94257 
L 308.712915 39.829731 
L 308.712915 39.671755 
L 309.245019 39.558915 
L 309.245019 39.491211 
L 309.777124 39.378371 
L 309.777124 39.333235 
L 310.309228 39.220396 
L 310.309228 39.084988 
L 310.841332 38.972148 
L 310.841332 38.927012 
L 311.373437 38.814172 
L 311.373437 38.746469 
L 311.905541 38.633629 
L 311.905541 38.520789 
L 312.437645 38.407949 
L 312.437645 38.249974 
L 313.501854 38.114566 
L 313.501854 38.046862 
L 314.033958 37.934022 
L 314.033958 37.798614 
L 314.566062 37.685775 
L 314.566062 37.640639 
L 315.098166 37.527799 
L 315.098166 37.460095 
L 315.630271 37.347255 
L 315.630271 37.256984 
L 316.162375 37.144144 
L 316.162375 37.031304 
L 316.694479 36.918464 
L 316.694479 36.828192 
L 317.226583 36.715353 
L 317.226583 36.692785 
L 317.758688 36.579945 
L 317.758688 36.489673 
L 318.290792 36.376833 
L 318.290792 36.331697 
L 318.822896 36.218858 
L 318.822896 36.128586 
L 319.355 36.015746 
L 319.355 35.925474 
L 319.887105 35.812634 
L 319.887105 35.767498 
L 320.419209 35.654659 
L 320.419209 35.609523 
L 320.951313 35.496683 
L 320.951313 35.474115 
L 321.483417 35.361275 
L 321.483417 35.293571 
L 322.547626 35.158164 
L 322.547626 35.045324 
L 323.07973 34.932484 
L 323.07973 34.887348 
L 323.611834 34.774508 
L 323.611834 34.684237 
L 325.208147 34.526261 
L 325.208147 34.481125 
L 326.272356 34.345717 
L 326.272356 34.210309 
L 327.336564 34.074902 
L 327.336564 34.007198 
L 327.868669 33.894358 
L 327.868669 33.87179 
L 328.400773 33.75895 
L 328.400773 33.736382 
L 330.52919 33.555839 
L 330.52919 33.465567 
L 333.189711 33.262455 
L 333.189711 33.172183 
L 334.25392 33.036776 
L 334.25392 32.99164 
L 335.318128 32.856232 
L 335.318128 32.833664 
L 339.042858 32.585417 
L 339.042858 32.472577 
L 345.960213 32.269465 
L 349.684943 32.201761 
L 349.684943 32.201761 
" style="fill:none;stroke:#1f77b4;stroke-linecap:square;stroke-width:1.5;"/>
   </g>
   <g id="patch_3">
    <path d="M 30.103125 239.758125 
L 30.103125 22.318125 
" style="fill:none;stroke:#000000;stroke-linecap:square;stroke-linejoin:miter;stroke-width:0.8;"/>
   </g>
   <g id="patch_4">
    <path d="M 364.903125 239.758125 
L 364.903125 22.318125 
" style="fill:none;stroke:#000000;stroke-linecap:square;stroke-linejoin:miter;stroke-width:0.8;"/>
   </g>
   <g id="patch_5">
    <path d="M 30.103125 239.758125 
L 364.903125 239.758125 
" style="fill:none;stroke:#000000;stroke-linecap:square;stroke-linejoin:miter;stroke-width:0.8;"/>
   </g>
   <g id="patch_6">
    <path d="M 30.103125 22.318125 
L 364.903125 22.318125 
" style="fill:none;stroke:#000000;stroke-linecap:square;stroke-linejoin:miter;stroke-width:0.8;"/>
   </g>
   <g id="text_14">
    <!-- Temperature(°C) -->
    <g transform="translate(147.628125 16.318125)scale(0.12 -0.12)">
     <defs>
      <path d="M -0.296875 72.90625 
L 61.375 72.90625 
L 61.375 64.59375 
L 35.5 64.59375 
L 35.5 0 
L 25.59375 0 
L 25.59375 64.59375 
L -0.296875 64.59375 
z
" id="DejaVuSans-84"/>
      <path d="M 56.203125 29.59375 
L 56.203125 25.203125 
L 14.890625 25.203125 
Q 15.484375 15.921875 20.484375 11.0625 
Q 25.484375 6.203125 34.421875 6.203125 
Q 39.59375 6.203125 44.453125 7.46875 
Q 49.3125 8.734375 54.109375 11.28125 
L 54.109375 2.78125 
Q 49.265625 0.734375 44.1875 -0.34375 
Q 39.109375 -1.421875 33.890625 -1.421875 
Q 20.796875 -1.421875 13.15625 6.1875 
Q 5.515625 13.8125 5.515625 26.8125 
Q 5.515625 40.234375 12.765625 48.109375 
Q 20.015625 56 32.328125 56 
Q 43.359375 56 49.78125 48.890625 
Q 56.203125 41.796875 56.203125 29.59375 
z
M 47.21875 32.234375 
Q 47.125 39.59375 43.09375 43.984375 
Q 39.0625 48.390625 32.421875 48.390625 
Q 24.90625 48.390625 20.390625 44.140625 
Q 15.875 39.890625 15.1875 32.171875 
z
" id="DejaVuSans-101"/>
      <path d="M 52 44.1875 
Q 55.375 50.25 60.0625 53.125 
Q 64.75 56 71.09375 56 
Q 79.640625 56 84.28125 50.015625 
Q 88.921875 44.046875 88.921875 33.015625 
L 88.921875 0 
L 79.890625 0 
L 79.890625 32.71875 
Q 79.890625 40.578125 77.09375 44.375 
Q 74.3125 48.1875 68.609375 48.1875 
Q 61.625 48.1875 57.5625 43.546875 
Q 53.515625 38.921875 53.515625 30.90625 
L 53.515625 0 
L 44.484375 0 
L 44.484375 32.71875 
Q 44.484375 40.625 41.703125 44.40625 
Q 38.921875 48.1875 33.109375 48.1875 
Q 26.21875 48.1875 22.15625 43.53125 
Q 18.109375 38.875 18.109375 30.90625 
L 18.109375 0 
L 9.078125 0 
L 9.078125 54.6875 
L 18.109375 54.6875 
L 18.109375 46.1875 
Q 21.1875 51.21875 25.484375 53.609375 
Q 29.78125 56 35.6875 56 
Q 41.65625 56 45.828125 52.96875 
Q 50 49.953125 52 44.1875 
z
" id="DejaVuSans-109"/>
      <path d="M 18.109375 8.203125 
L 18.109375 -20.796875 
L 9.078125 -20.796875 
L 9.078125 54.6875 
L 18.109375 54.6875 
L 18.109375 46.390625 
Q 20.953125 51.265625 25.265625 53.625 
Q 29.59375 56 35.59375 56 
Q 45.5625 56 51.78125 48.09375 
Q 58.015625 40.1875 58.015625 27.296875 
Q 58.015625 14.40625 51.78125 6.484375 
Q 45.5625 -1.421875 35.59375 -1.421875 
Q 29.59375 -1.421875 25.265625 0.953125 
Q 20.953125 3.328125 18.109375 8.203125 
z
M 48.6875 27.296875 
Q 48.6875 37.203125 44.609375 42.84375 
Q 40.53125 48.484375 33.40625 48.484375 
Q 26.265625 48.484375 22.1875 42.84375 
Q 18.109375 37.203125 18.109375 27.296875 
Q 18.109375 17.390625 22.1875 11.75 
Q 26.265625 6.109375 33.40625 6.109375 
Q 40.53125 6.109375 44.609375 11.75 
Q 48.6875 17.390625 48.6875 27.296875 
z
" id="DejaVuSans-112"/>
      <path d="M 41.109375 46.296875 
Q 39.59375 47.171875 37.8125 47.578125 
Q 36.03125 48 33.890625 48 
Q 26.265625 48 22.1875 43.046875 
Q 18.109375 38.09375 18.109375 28.8125 
L 18.109375 0 
L 9.078125 0 
L 9.078125 54.6875 
L 18.109375 54.6875 
L 18.109375 46.1875 
Q 20.953125 51.171875 25.484375 53.578125 
Q 30.03125 56 36.53125 56 
Q 37.453125 56 38.578125 55.875 
Q 39.703125 55.765625 41.0625 55.515625 
z
" id="DejaVuSans-114"/>
      <path d="M 34.28125 27.484375 
Q 23.390625 27.484375 19.1875 25 
Q 14.984375 22.515625 14.984375 16.5 
Q 14.984375 11.71875 18.140625 8.90625 
Q 21.296875 6.109375 26.703125 6.109375 
Q 34.1875 6.109375 38.703125 11.40625 
Q 43.21875 16.703125 43.21875 25.484375 
L 43.21875 27.484375 
z
M 52.203125 31.203125 
L 52.203125 0 
L 43.21875 0 
L 43.21875 8.296875 
Q 40.140625 3.328125 35.546875 0.953125 
Q 30.953125 -1.421875 24.3125 -1.421875 
Q 15.921875 -1.421875 10.953125 3.296875 
Q 6 8.015625 6 15.921875 
Q 6 25.140625 12.171875 29.828125 
Q 18.359375 34.515625 30.609375 34.515625 
L 43.21875 34.515625 
L 43.21875 35.40625 
Q 43.21875 41.609375 39.140625 45 
Q 35.0625 48.390625 27.6875 48.390625 
Q 23 48.390625 18.546875 47.265625 
Q 14.109375 46.140625 10.015625 43.890625 
L 10.015625 52.203125 
Q 14.9375 54.109375 19.578125 55.046875 
Q 24.21875 56 28.609375 56 
Q 40.484375 56 46.34375 49.84375 
Q 52.203125 43.703125 52.203125 31.203125 
z
" id="DejaVuSans-97"/>
      <path d="M 18.3125 70.21875 
L 18.3125 54.6875 
L 36.8125 54.6875 
L 36.8125 47.703125 
L 18.3125 47.703125 
L 18.3125 18.015625 
Q 18.3125 11.328125 20.140625 9.421875 
Q 21.96875 7.515625 27.59375 7.515625 
L 36.8125 7.515625 
L 36.8125 0 
L 27.59375 0 
Q 17.1875 0 13.234375 3.875 
Q 9.28125 7.765625 9.28125 18.015625 
L 9.28125 47.703125 
L 2.6875 47.703125 
L 2.6875 54.6875 
L 9.28125 54.6875 
L 9.28125 70.21875 
z
" id="DejaVuSans-116"/>
      <path d="M 8.5 21.578125 
L 8.5 54.6875 
L 17.484375 54.6875 
L 17.484375 21.921875 
Q 17.484375 14.15625 20.5 10.265625 
Q 23.53125 6.390625 29.59375 6.390625 
Q 36.859375 6.390625 41.078125 11.03125 
Q 45.3125 15.671875 45.3125 23.6875 
L 45.3125 54.6875 
L 54.296875 54.6875 
L 54.296875 0 
L 45.3125 0 
L 45.3125 8.40625 
Q 42.046875 3.421875 37.71875 1 
Q 33.40625 -1.421875 27.6875 -1.421875 
Q 18.265625 -1.421875 13.375 4.4375 
Q 8.5 10.296875 8.5 21.578125 
z
M 31.109375 56 
z
" id="DejaVuSans-117"/>
      <path d="M 31 75.875 
Q 24.46875 64.65625 21.28125 53.65625 
Q 18.109375 42.671875 18.109375 31.390625 
Q 18.109375 20.125 21.3125 9.0625 
Q 24.515625 -2 31 -13.1875 
L 23.1875 -13.1875 
Q 15.875 -1.703125 12.234375 9.375 
Q 8.59375 20.453125 8.59375 31.390625 
Q 8.59375 42.28125 12.203125 53.3125 
Q 15.828125 64.359375 23.1875 75.875 
z
" id="DejaVuSans-40"/>
      <path d="M 25 67.921875 
Q 21.09375 67.921875 18.40625 65.203125 
Q 15.71875 62.5 15.71875 58.59375 
Q 15.71875 54.734375 18.40625 52.078125 
Q 21.09375 49.421875 25 49.421875 
Q 28.90625 49.421875 31.59375 52.078125 
Q 34.28125 54.734375 34.28125 58.59375 
Q 34.28125 62.453125 31.5625 65.1875 
Q 28.859375 67.921875 25 67.921875 
z
M 25 74.21875 
Q 28.125 74.21875 31 73.015625 
Q 33.890625 71.828125 35.984375 69.578125 
Q 38.234375 67.390625 39.359375 64.59375 
Q 40.484375 61.8125 40.484375 58.59375 
Q 40.484375 52.15625 35.96875 47.6875 
Q 31.453125 43.21875 24.90625 43.21875 
Q 18.3125 43.21875 13.90625 47.609375 
Q 9.515625 52 9.515625 58.59375 
Q 9.515625 65.140625 14 69.671875 
Q 18.5 74.21875 25 74.21875 
z
" id="DejaVuSans-176"/>
      <path d="M 64.40625 67.28125 
L 64.40625 56.890625 
Q 59.421875 61.53125 53.78125 63.8125 
Q 48.140625 66.109375 41.796875 66.109375 
Q 29.296875 66.109375 22.65625 58.46875 
Q 16.015625 50.828125 16.015625 36.375 
Q 16.015625 21.96875 22.65625 14.328125 
Q 29.296875 6.6875 41.796875 6.6875 
Q 48.140625 6.6875 53.78125 8.984375 
Q 59.421875 11.28125 64.40625 15.921875 
L 64.40625 5.609375 
Q 59.234375 2.09375 53.4375 0.328125 
Q 47.65625 -1.421875 41.21875 -1.421875 
Q 24.65625 -1.421875 15.125 8.703125 
Q 5.609375 18.84375 5.609375 36.375 
Q 5.609375 53.953125 15.125 64.078125 
Q 24.65625 74.21875 41.21875 74.21875 
Q 47.75 74.21875 53.53125 72.484375 
Q 59.328125 70.75 64.40625 67.28125 
z
" id="DejaVuSans-67"/>
      <path d="M 8.015625 75.875 
L 15.828125 75.875 
Q 23.140625 64.359375 26.78125 53.3125 
Q 30.421875 42.28125 30.421875 31.390625 
Q 30.421875 20.453125 26.78125 9.375 
Q 23.140625 -1.703125 15.828125 -13.1875 
L 8.015625 -13.1875 
Q 14.5 -2 17.703125 9.0625 
Q 20.90625 20.125 20.90625 31.390625 
Q 20.90625 42.671875 17.703125 53.65625 
Q 14.5 64.65625 8.015625 75.875 
z
" id="DejaVuSans-41"/>
     </defs>
     <use xlink:href="#DejaVuSans-84"/>
     <use x="44.083984" xlink:href="#DejaVuSans-101"/>
     <use x="105.607422" xlink:href="#DejaVuSans-109"/>
     <use x="203.019531" xlink:href="#DejaVuSans-112"/>
     <use x="266.496094" xlink:href="#DejaVuSans-101"/>
     <use x="328.019531" xlink:href="#DejaVuSans-114"/>
     <use x="369.132812" xlink:href="#DejaVuSans-97"/>
     <use x="430.412109" xlink:href="#DejaVuSans-116"/>
     <use x="469.621094" xlink:href="#DejaVuSans-117"/>
     <use x="533" xlink:href="#DejaVuSans-114"/>
     <use x="571.863281" xlink:href="#DejaVuSans-101"/>
     <use x="633.386719" xlink:href="#DejaVuSans-40"/>
     <use x="672.400391" xlink:href="#DejaVuSans-176"/>
     <use x="722.400391" xlink:href="#DejaVuSans-67"/>
     <use x="792.224609" xlink:href="#DejaVuSans-41"/>
    </g>
   </g>
  </g>
 </g>
 <defs>
  <clipPath id="pd69cf519ec">
   <rect height="217.44" width="334.8" x="30.103125" y="22.318125"/>
  </clipPath>
 </defs>
</svg>
