<?xml version="1.0" encoding="utf-8" standalone="no"?>
<!DOCTYPE svg PUBLIC "-//W3C//DTD SVG 1.1//EN"
  "http://www.w3.org/Graphics/SVG/1.1/DTD/svg11.dtd">
<!-- Created with matplotlib (https://matplotlib.org/) -->
<svg height="285.19625pt" version="1.1" viewBox="0 0 424.50625 285.19625" width="424.50625pt" xmlns="http://www.w3.org/2000/svg" xmlns:xlink="http://www.w3.org/1999/xlink">
 <metadata>
  <rdf:RDF xmlns:cc="http://creativecommons.org/ns#" xmlns:dc="http://purl.org/dc/elements/1.1/" xmlns:rdf="http://www.w3.org/1999/02/22-rdf-syntax-ns#">
   <cc:Work>
    <dc:type rdf:resource="http://purl.org/dc/dcmitype/StillImage"/>
    <dc:date>2021-02-21T18:27:36.473339</dc:date>
    <dc:format>image/svg+xml</dc:format>
    <dc:creator>
     <cc:Agent>
      <dc:title>Matplotlib v3.3.2, https://matplotlib.org/</dc:title>
     </cc:Agent>
    </dc:creator>
   </cc:Work>
  </rdf:RDF>
 </metadata>
 <defs>
  <style type="text/css">*{stroke-linecap:butt;stroke-linejoin:round;}</style>
 </defs>
 <g id="figure_1">
  <g id="patch_1">
   <path d="M 0 285.19625 
L 424.50625 285.19625 
L 424.50625 0 
L 0 0 
z
" style="fill:none;"/>
  </g>
  <g id="axes_1">
   <g id="patch_2">
    <path d="M 43.78125 247.64 
L 206.64375 247.64 
L 206.64375 48.04 
L 43.78125 48.04 
z
" style="fill:#ffffff;"/>
   </g>
   <g id="PathCollection_1">
    <defs>
     <path d="M 0 3 
C 0.795609 3 1.55874 2.683901 2.12132 2.12132 
C 2.683901 1.55874 3 0.795609 3 0 
C 3 -0.795609 2.683901 -1.55874 2.12132 -2.12132 
C 1.55874 -2.683901 0.795609 -3 0 -3 
C -0.795609 -3 -1.55874 -2.683901 -2.12132 -2.12132 
C -2.683901 -1.55874 -3 -0.795609 -3 0 
C -3 0.795609 -2.683901 1.55874 -2.12132 2.12132 
C -1.55874 2.683901 -0.795609 3 0 3 
z
" id="m68d1b850c8" style="stroke:#1f77b4;stroke-opacity:0.8;"/>
    </defs>
    <g clip-path="url(#p655b933c88)">
     <use style="fill:#1f77b4;fill-opacity:0.8;stroke:#1f77b4;stroke-opacity:0.8;" x="144.004327" xlink:href="#m68d1b850c8" y="159.703612"/>
     <use style="fill:#1f77b4;fill-opacity:0.8;stroke:#1f77b4;stroke-opacity:0.8;" x="68.837019" xlink:href="#m68d1b850c8" y="159.703612"/>
     <use style="fill:#1f77b4;fill-opacity:0.8;stroke:#1f77b4;stroke-opacity:0.8;" x="81.364904" xlink:href="#m68d1b850c8" y="159.703612"/>
     <use style="fill:#1f77b4;fill-opacity:0.8;stroke:#1f77b4;stroke-opacity:0.8;" x="144.004327" xlink:href="#m68d1b850c8" y="80.839951"/>
     <use style="fill:#1f77b4;fill-opacity:0.8;stroke:#1f77b4;stroke-opacity:0.8;" x="169.060096" xlink:href="#m68d1b850c8" y="80.839951"/>
     <use style="fill:#1f77b4;fill-opacity:0.8;stroke:#1f77b4;stroke-opacity:0.8;" x="131.476442" xlink:href="#m68d1b850c8" y="159.703612"/>
     <use style="fill:#1f77b4;fill-opacity:0.8;stroke:#1f77b4;stroke-opacity:0.8;" x="181.587981" xlink:href="#m68d1b850c8" y="80.839951"/>
     <use style="fill:#1f77b4;fill-opacity:0.8;stroke:#1f77b4;stroke-opacity:0.8;" x="131.476442" xlink:href="#m68d1b850c8" y="159.703612"/>
     <use style="fill:#1f77b4;fill-opacity:0.8;stroke:#1f77b4;stroke-opacity:0.8;" x="81.364904" xlink:href="#m68d1b850c8" y="159.703612"/>
     <use style="fill:#1f77b4;fill-opacity:0.8;stroke:#1f77b4;stroke-opacity:0.8;" x="118.948558" xlink:href="#m68d1b850c8" y="80.839951"/>
     <use style="fill:#1f77b4;fill-opacity:0.8;stroke:#1f77b4;stroke-opacity:0.8;" x="118.948558" xlink:href="#m68d1b850c8" y="159.703612"/>
     <use style="fill:#1f77b4;fill-opacity:0.8;stroke:#1f77b4;stroke-opacity:0.8;" x="169.060096" xlink:href="#m68d1b850c8" y="80.839951"/>
     <use style="fill:#1f77b4;fill-opacity:0.8;stroke:#1f77b4;stroke-opacity:0.8;" x="93.892788" xlink:href="#m68d1b850c8" y="80.839951"/>
     <use style="fill:#1f77b4;fill-opacity:0.8;stroke:#1f77b4;stroke-opacity:0.8;" x="131.476442" xlink:href="#m68d1b850c8" y="159.703612"/>
     <use style="fill:#1f77b4;fill-opacity:0.8;stroke:#1f77b4;stroke-opacity:0.8;" x="131.476442" xlink:href="#m68d1b850c8" y="159.703612"/>
     <use style="fill:#1f77b4;fill-opacity:0.8;stroke:#1f77b4;stroke-opacity:0.8;" x="156.532212" xlink:href="#m68d1b850c8" y="159.703612"/>
     <use style="fill:#1f77b4;fill-opacity:0.8;stroke:#1f77b4;stroke-opacity:0.8;" x="118.948558" xlink:href="#m68d1b850c8" y="80.839951"/>
     <use style="fill:#1f77b4;fill-opacity:0.8;stroke:#1f77b4;stroke-opacity:0.8;" x="106.420673" xlink:href="#m68d1b850c8" y="159.703612"/>
     <use style="fill:#1f77b4;fill-opacity:0.8;stroke:#1f77b4;stroke-opacity:0.8;" x="156.532212" xlink:href="#m68d1b850c8" y="159.703612"/>
     <use style="fill:#1f77b4;fill-opacity:0.8;stroke:#1f77b4;stroke-opacity:0.8;" x="43.78125" xlink:href="#m68d1b850c8" y="238.567273"/>
     <use style="fill:#1f77b4;fill-opacity:0.8;stroke:#1f77b4;stroke-opacity:0.8;" x="93.892788" xlink:href="#m68d1b850c8" y="159.703612"/>
     <use style="fill:#1f77b4;fill-opacity:0.8;stroke:#1f77b4;stroke-opacity:0.8;" x="206.64375" xlink:href="#m68d1b850c8" y="80.839951"/>
     <use style="fill:#1f77b4;fill-opacity:0.8;stroke:#1f77b4;stroke-opacity:0.8;" x="118.948558" xlink:href="#m68d1b850c8" y="80.839951"/>
     <use style="fill:#1f77b4;fill-opacity:0.8;stroke:#1f77b4;stroke-opacity:0.8;" x="118.948558" xlink:href="#m68d1b850c8" y="80.839951"/>
     <use style="fill:#1f77b4;fill-opacity:0.8;stroke:#1f77b4;stroke-opacity:0.8;" x="118.948558" xlink:href="#m68d1b850c8" y="159.703612"/>
     <use style="fill:#1f77b4;fill-opacity:0.8;stroke:#1f77b4;stroke-opacity:0.8;" x="118.948558" xlink:href="#m68d1b850c8" y="159.703612"/>
     <use style="fill:#1f77b4;fill-opacity:0.8;stroke:#1f77b4;stroke-opacity:0.8;" x="106.420673" xlink:href="#m68d1b850c8" y="159.703612"/>
     <use style="fill:#1f77b4;fill-opacity:0.8;stroke:#1f77b4;stroke-opacity:0.8;" x="93.892788" xlink:href="#m68d1b850c8" y="159.703612"/>
     <use style="fill:#1f77b4;fill-opacity:0.8;stroke:#1f77b4;stroke-opacity:0.8;" x="106.420673" xlink:href="#m68d1b850c8" y="238.567273"/>
     <use style="fill:#1f77b4;fill-opacity:0.8;stroke:#1f77b4;stroke-opacity:0.8;" x="118.948558" xlink:href="#m68d1b850c8" y="159.703612"/>
     <use style="fill:#1f77b4;fill-opacity:0.8;stroke:#1f77b4;stroke-opacity:0.8;" x="118.948558" xlink:href="#m68d1b850c8" y="159.703612"/>
     <use style="fill:#1f77b4;fill-opacity:0.8;stroke:#1f77b4;stroke-opacity:0.8;" x="93.892788" xlink:href="#m68d1b850c8" y="80.839951"/>
     <use style="fill:#1f77b4;fill-opacity:0.8;stroke:#1f77b4;stroke-opacity:0.8;" x="131.476442" xlink:href="#m68d1b850c8" y="80.839951"/>
     <use style="fill:#1f77b4;fill-opacity:0.8;stroke:#1f77b4;stroke-opacity:0.8;" x="131.476442" xlink:href="#m68d1b850c8" y="159.703612"/>
     <use style="fill:#1f77b4;fill-opacity:0.8;stroke:#1f77b4;stroke-opacity:0.8;" x="106.420673" xlink:href="#m68d1b850c8" y="159.703612"/>
     <use style="fill:#1f77b4;fill-opacity:0.8;stroke:#1f77b4;stroke-opacity:0.8;" x="106.420673" xlink:href="#m68d1b850c8" y="159.703612"/>
     <use style="fill:#1f77b4;fill-opacity:0.8;stroke:#1f77b4;stroke-opacity:0.8;" x="93.892788" xlink:href="#m68d1b850c8" y="238.567273"/>
     <use style="fill:#1f77b4;fill-opacity:0.8;stroke:#1f77b4;stroke-opacity:0.8;" x="118.948558" xlink:href="#m68d1b850c8" y="80.839951"/>
     <use style="fill:#1f77b4;fill-opacity:0.8;stroke:#1f77b4;stroke-opacity:0.8;" x="106.420673" xlink:href="#m68d1b850c8" y="80.839951"/>
     <use style="fill:#1f77b4;fill-opacity:0.8;stroke:#1f77b4;stroke-opacity:0.8;" x="93.892788" xlink:href="#m68d1b850c8" y="159.703612"/>
     <use style="fill:#1f77b4;fill-opacity:0.8;stroke:#1f77b4;stroke-opacity:0.8;" x="56.309135" xlink:href="#m68d1b850c8" y="80.839951"/>
    </g>
   </g>
   <g id="PolyCollection_1">
    <path clip-path="url(#p655b933c88)" d="M 43.78125 136.576512 
L 43.78125 212.130343 
L 45.426326 210.564519 
L 47.071402 208.998695 
L 48.716477 207.438541 
L 50.361553 206.087335 
L 52.006629 204.73459 
L 53.651705 203.250282 
L 55.29678 201.684624 
L 56.941856 200.113903 
L 58.586932 198.540733 
L 60.232008 197.102258 
L 61.877083 195.670076 
L 63.522159 194.237894 
L 65.167235 192.805711 
L 66.812311 191.373529 
L 68.457386 189.941346 
L 70.102462 188.475844 
L 71.747538 187.157201 
L 73.392614 185.727227 
L 75.037689 184.460621 
L 76.682765 183.192281 
L 78.327841 181.811059 
L 79.972917 180.383918 
L 81.617992 178.88669 
L 83.263068 177.459224 
L 84.908144 176.202274 
L 86.55322 174.760102 
L 88.198295 173.389467 
L 89.843371 171.875758 
L 91.488447 170.677402 
L 93.133523 169.536591 
L 94.778598 168.258138 
L 96.423674 166.969332 
L 98.06875 165.680849 
L 99.713826 164.29399 
L 101.358902 162.870356 
L 103.003977 161.666471 
L 104.649053 160.317013 
L 106.294129 159.205608 
L 107.939205 158.058963 
L 109.58428 156.742854 
L 111.229356 155.806542 
L 112.874432 154.848295 
L 114.519508 153.542891 
L 116.164583 152.195131 
L 117.809659 151.49229 
L 119.454735 150.299147 
L 121.099811 149.03359 
L 122.744886 148.071504 
L 124.389962 147.123445 
L 126.035038 145.805718 
L 127.680114 144.673033 
L 129.325189 143.745587 
L 130.970265 142.745995 
L 132.615341 142.310917 
L 134.260417 141.625102 
L 135.905492 140.950605 
L 137.550568 140.203872 
L 139.195644 139.575923 
L 140.84072 139.010644 
L 142.485795 138.457894 
L 144.130871 137.954471 
L 145.775947 137.497398 
L 147.421023 137.298178 
L 149.066098 137.020397 
L 150.711174 136.827772 
L 152.35625 136.829293 
L 154.001326 136.722773 
L 155.646402 136.614428 
L 157.291477 136.676901 
L 158.936553 136.679427 
L 160.581629 136.486611 
L 162.226705 135.997243 
L 163.87178 135.506957 
L 165.516856 135.069015 
L 167.161932 134.8208 
L 168.807008 134.509598 
L 170.452083 134.481695 
L 172.097159 134.046829 
L 173.742235 134.010743 
L 175.387311 133.715387 
L 177.032386 133.431743 
L 178.677462 133.388946 
L 180.322538 133.319639 
L 181.967614 133.129938 
L 183.612689 132.940237 
L 185.257765 132.750536 
L 186.902841 132.554533 
L 188.547917 132.355788 
L 190.192992 132.13816 
L 191.838068 131.742647 
L 193.483144 131.347133 
L 195.12822 130.95162 
L 196.773295 130.688051 
L 198.418371 130.483621 
L 200.063447 130.426147 
L 201.708523 130.322775 
L 203.353598 129.854053 
L 204.998674 129.508856 
L 206.64375 129.062513 
L 206.64375 57.112727 
L 206.64375 57.112727 
L 204.998674 58.563682 
L 203.353598 60.014637 
L 201.708523 61.466216 
L 200.063447 62.922391 
L 198.418371 64.365255 
L 196.773295 65.794533 
L 195.12822 67.13834 
L 193.483144 68.387152 
L 191.838068 69.614915 
L 190.192992 70.842678 
L 188.547917 72.109501 
L 186.902841 73.421389 
L 185.257765 74.734893 
L 183.612689 76.069583 
L 181.967614 77.361422 
L 180.322538 78.671021 
L 178.677462 79.970524 
L 177.032386 81.307896 
L 175.387311 82.622164 
L 173.742235 84.017619 
L 172.097159 85.421258 
L 170.452083 86.604542 
L 168.807008 87.877392 
L 167.161932 89.193138 
L 165.516856 90.677047 
L 163.87178 91.878722 
L 162.226705 93.39537 
L 160.581629 94.770444 
L 158.936553 96.060774 
L 157.291477 97.390322 
L 155.646402 98.752914 
L 154.001326 99.936188 
L 152.35625 101.554876 
L 150.711174 102.897642 
L 149.066098 104.238631 
L 147.421023 105.526848 
L 145.775947 107.04423 
L 144.130871 108.238412 
L 142.485795 109.117725 
L 140.84072 110.213983 
L 139.195644 111.399016 
L 137.550568 112.626382 
L 135.905492 113.684091 
L 134.260417 114.605925 
L 132.615341 115.774391 
L 130.970265 116.703794 
L 129.325189 117.542333 
L 127.680114 118.552287 
L 126.035038 119.451909 
L 124.389962 120.409294 
L 122.744886 121.091385 
L 121.099811 121.927587 
L 119.454735 122.628738 
L 117.809659 123.15817 
L 116.164583 123.798803 
L 114.519508 124.463198 
L 112.874432 125.071748 
L 111.229356 125.5258 
L 109.58428 126.185116 
L 107.939205 126.787332 
L 106.294129 127.02772 
L 104.649053 127.275736 
L 103.003977 127.642628 
L 101.358902 127.823143 
L 99.713826 128.422249 
L 98.06875 128.926951 
L 96.423674 129.343686 
L 94.778598 129.583111 
L 93.133523 129.555726 
L 91.488447 129.863547 
L 89.843371 130.007373 
L 88.198295 130.411914 
L 86.55322 130.814721 
L 84.908144 131.214405 
L 83.263068 131.613418 
L 81.617992 131.561744 
L 79.972917 131.799181 
L 78.327841 131.762996 
L 76.682765 132.089489 
L 75.037689 132.107226 
L 73.392614 132.439911 
L 71.747538 132.782991 
L 70.102462 133.205455 
L 68.457386 133.454819 
L 66.812311 133.763149 
L 65.167235 134.012366 
L 63.522159 134.459286 
L 61.877083 134.792637 
L 60.232008 135.015426 
L 58.586932 134.99672 
L 56.941856 135.234817 
L 55.29678 135.472914 
L 53.651705 135.713454 
L 52.006629 135.96296 
L 50.361553 136.212466 
L 48.716477 136.29391 
L 47.071402 136.496276 
L 45.426326 136.538612 
L 43.78125 136.576512 
z
" style="fill:#1f77b4;fill-opacity:0.15;"/>
   </g>
   <g id="matplotlib.axis_1">
    <g id="xtick_1">
     <g id="line2d_1">
      <defs>
       <path d="M 0 0 
L 0 3.5 
" id="me1f654af39" style="stroke:#000000;stroke-width:0.8;"/>
      </defs>
      <g>
       <use style="stroke:#000000;stroke-width:0.8;" x="68.837019" xlink:href="#me1f654af39" y="247.64"/>
      </g>
     </g>
     <g id="text_1">
      <!-- 2 -->
      <g transform="translate(65.655769 262.238437)scale(0.1 -0.1)">
       <defs>
        <path d="M 19.1875 8.296875 
L 53.609375 8.296875 
L 53.609375 0 
L 7.328125 0 
L 7.328125 8.296875 
Q 12.9375 14.109375 22.625 23.890625 
Q 32.328125 33.6875 34.8125 36.53125 
Q 39.546875 41.84375 41.421875 45.53125 
Q 43.3125 49.21875 43.3125 52.78125 
Q 43.3125 58.59375 39.234375 62.25 
Q 35.15625 65.921875 28.609375 65.921875 
Q 23.96875 65.921875 18.8125 64.3125 
Q 13.671875 62.703125 7.8125 59.421875 
L 7.8125 69.390625 
Q 13.765625 71.78125 18.9375 73 
Q 24.125 74.21875 28.421875 74.21875 
Q 39.75 74.21875 46.484375 68.546875 
Q 53.21875 62.890625 53.21875 53.421875 
Q 53.21875 48.921875 51.53125 44.890625 
Q 49.859375 40.875 45.40625 35.40625 
Q 44.1875 33.984375 37.640625 27.21875 
Q 31.109375 20.453125 19.1875 8.296875 
z
" id="DejaVuSans-50"/>
       </defs>
       <use xlink:href="#DejaVuSans-50"/>
      </g>
     </g>
    </g>
    <g id="xtick_2">
     <g id="line2d_2">
      <g>
       <use style="stroke:#000000;stroke-width:0.8;" x="118.948558" xlink:href="#me1f654af39" y="247.64"/>
      </g>
     </g>
     <g id="text_2">
      <!-- 3 -->
      <g transform="translate(115.767308 262.238437)scale(0.1 -0.1)">
       <defs>
        <path d="M 40.578125 39.3125 
Q 47.65625 37.796875 51.625 33 
Q 55.609375 28.21875 55.609375 21.1875 
Q 55.609375 10.40625 48.1875 4.484375 
Q 40.765625 -1.421875 27.09375 -1.421875 
Q 22.515625 -1.421875 17.65625 -0.515625 
Q 12.796875 0.390625 7.625 2.203125 
L 7.625 11.71875 
Q 11.71875 9.328125 16.59375 8.109375 
Q 21.484375 6.890625 26.8125 6.890625 
Q 36.078125 6.890625 40.9375 10.546875 
Q 45.796875 14.203125 45.796875 21.1875 
Q 45.796875 27.640625 41.28125 31.265625 
Q 36.765625 34.90625 28.71875 34.90625 
L 20.21875 34.90625 
L 20.21875 43.015625 
L 29.109375 43.015625 
Q 36.375 43.015625 40.234375 45.921875 
Q 44.09375 48.828125 44.09375 54.296875 
Q 44.09375 59.90625 40.109375 62.90625 
Q 36.140625 65.921875 28.71875 65.921875 
Q 24.65625 65.921875 20.015625 65.03125 
Q 15.375 64.15625 9.8125 62.3125 
L 9.8125 71.09375 
Q 15.4375 72.65625 20.34375 73.4375 
Q 25.25 74.21875 29.59375 74.21875 
Q 40.828125 74.21875 47.359375 69.109375 
Q 53.90625 64.015625 53.90625 55.328125 
Q 53.90625 49.265625 50.4375 45.09375 
Q 46.96875 40.921875 40.578125 39.3125 
z
" id="DejaVuSans-51"/>
       </defs>
       <use xlink:href="#DejaVuSans-51"/>
      </g>
     </g>
    </g>
    <g id="xtick_3">
     <g id="line2d_3">
      <g>
       <use style="stroke:#000000;stroke-width:0.8;" x="169.060096" xlink:href="#me1f654af39" y="247.64"/>
      </g>
     </g>
     <g id="text_3">
      <!-- 4 -->
      <g transform="translate(165.878846 262.238437)scale(0.1 -0.1)">
       <defs>
        <path d="M 37.796875 64.3125 
L 12.890625 25.390625 
L 37.796875 25.390625 
z
M 35.203125 72.90625 
L 47.609375 72.90625 
L 47.609375 25.390625 
L 58.015625 25.390625 
L 58.015625 17.1875 
L 47.609375 17.1875 
L 47.609375 0 
L 37.796875 0 
L 37.796875 17.1875 
L 4.890625 17.1875 
L 4.890625 26.703125 
z
" id="DejaVuSans-52"/>
       </defs>
       <use xlink:href="#DejaVuSans-52"/>
      </g>
     </g>
    </g>
    <g id="text_4">
     <!-- E -->
     <g transform="translate(122.053125 275.916562)scale(0.1 -0.1)">
      <defs>
       <path d="M 9.8125 72.90625 
L 55.90625 72.90625 
L 55.90625 64.59375 
L 19.671875 64.59375 
L 19.671875 43.015625 
L 54.390625 43.015625 
L 54.390625 34.71875 
L 19.671875 34.71875 
L 19.671875 8.296875 
L 56.78125 8.296875 
L 56.78125 0 
L 9.8125 0 
z
" id="DejaVuSans-69"/>
      </defs>
      <use xlink:href="#DejaVuSans-69"/>
     </g>
    </g>
   </g>
   <g id="matplotlib.axis_2">
    <g id="ytick_1">
     <g id="line2d_4">
      <defs>
       <path d="M 0 0 
L -3.5 0 
" id="m1f1a53934b" style="stroke:#000000;stroke-width:0.8;"/>
      </defs>
      <g>
       <use style="stroke:#000000;stroke-width:0.8;" x="43.78125" xlink:href="#m1f1a53934b" y="238.567273"/>
      </g>
     </g>
     <g id="text_5">
      <!-- 3.0 -->
      <g transform="translate(20.878125 242.366491)scale(0.1 -0.1)">
       <defs>
        <path d="M 10.6875 12.40625 
L 21 12.40625 
L 21 0 
L 10.6875 0 
z
" id="DejaVuSans-46"/>
        <path d="M 31.78125 66.40625 
Q 24.171875 66.40625 20.328125 58.90625 
Q 16.5 51.421875 16.5 36.375 
Q 16.5 21.390625 20.328125 13.890625 
Q 24.171875 6.390625 31.78125 6.390625 
Q 39.453125 6.390625 43.28125 13.890625 
Q 47.125 21.390625 47.125 36.375 
Q 47.125 51.421875 43.28125 58.90625 
Q 39.453125 66.40625 31.78125 66.40625 
z
M 31.78125 74.21875 
Q 44.046875 74.21875 50.515625 64.515625 
Q 56.984375 54.828125 56.984375 36.375 
Q 56.984375 17.96875 50.515625 8.265625 
Q 44.046875 -1.421875 31.78125 -1.421875 
Q 19.53125 -1.421875 13.0625 8.265625 
Q 6.59375 17.96875 6.59375 36.375 
Q 6.59375 54.828125 13.0625 64.515625 
Q 19.53125 74.21875 31.78125 74.21875 
z
" id="DejaVuSans-48"/>
       </defs>
       <use xlink:href="#DejaVuSans-51"/>
       <use x="63.623047" xlink:href="#DejaVuSans-46"/>
       <use x="95.410156" xlink:href="#DejaVuSans-48"/>
      </g>
     </g>
    </g>
    <g id="ytick_2">
     <g id="line2d_5">
      <g>
       <use style="stroke:#000000;stroke-width:0.8;" x="43.78125" xlink:href="#m1f1a53934b" y="199.135442"/>
      </g>
     </g>
     <g id="text_6">
      <!-- 3.5 -->
      <g transform="translate(20.878125 202.934661)scale(0.1 -0.1)">
       <defs>
        <path d="M 10.796875 72.90625 
L 49.515625 72.90625 
L 49.515625 64.59375 
L 19.828125 64.59375 
L 19.828125 46.734375 
Q 21.96875 47.46875 24.109375 47.828125 
Q 26.265625 48.1875 28.421875 48.1875 
Q 40.625 48.1875 47.75 41.5 
Q 54.890625 34.8125 54.890625 23.390625 
Q 54.890625 11.625 47.5625 5.09375 
Q 40.234375 -1.421875 26.90625 -1.421875 
Q 22.3125 -1.421875 17.546875 -0.640625 
Q 12.796875 0.140625 7.71875 1.703125 
L 7.71875 11.625 
Q 12.109375 9.234375 16.796875 8.0625 
Q 21.484375 6.890625 26.703125 6.890625 
Q 35.15625 6.890625 40.078125 11.328125 
Q 45.015625 15.765625 45.015625 23.390625 
Q 45.015625 31 40.078125 35.4375 
Q 35.15625 39.890625 26.703125 39.890625 
Q 22.75 39.890625 18.8125 39.015625 
Q 14.890625 38.140625 10.796875 36.28125 
z
" id="DejaVuSans-53"/>
       </defs>
       <use xlink:href="#DejaVuSans-51"/>
       <use x="63.623047" xlink:href="#DejaVuSans-46"/>
       <use x="95.410156" xlink:href="#DejaVuSans-53"/>
      </g>
     </g>
    </g>
    <g id="ytick_3">
     <g id="line2d_6">
      <g>
       <use style="stroke:#000000;stroke-width:0.8;" x="43.78125" xlink:href="#m1f1a53934b" y="159.703612"/>
      </g>
     </g>
     <g id="text_7">
      <!-- 4.0 -->
      <g transform="translate(20.878125 163.502831)scale(0.1 -0.1)">
       <use xlink:href="#DejaVuSans-52"/>
       <use x="63.623047" xlink:href="#DejaVuSans-46"/>
       <use x="95.410156" xlink:href="#DejaVuSans-48"/>
      </g>
     </g>
    </g>
    <g id="ytick_4">
     <g id="line2d_7">
      <g>
       <use style="stroke:#000000;stroke-width:0.8;" x="43.78125" xlink:href="#m1f1a53934b" y="120.271782"/>
      </g>
     </g>
     <g id="text_8">
      <!-- 4.5 -->
      <g transform="translate(20.878125 124.071)scale(0.1 -0.1)">
       <use xlink:href="#DejaVuSans-52"/>
       <use x="63.623047" xlink:href="#DejaVuSans-46"/>
       <use x="95.410156" xlink:href="#DejaVuSans-53"/>
      </g>
     </g>
    </g>
    <g id="ytick_5">
     <g id="line2d_8">
      <g>
       <use style="stroke:#000000;stroke-width:0.8;" x="43.78125" xlink:href="#m1f1a53934b" y="80.839951"/>
      </g>
     </g>
     <g id="text_9">
      <!-- 5.0 -->
      <g transform="translate(20.878125 84.63917)scale(0.1 -0.1)">
       <use xlink:href="#DejaVuSans-53"/>
       <use x="63.623047" xlink:href="#DejaVuSans-46"/>
       <use x="95.410156" xlink:href="#DejaVuSans-48"/>
      </g>
     </g>
    </g>
    <g id="text_10">
     <!-- Trust5 -->
     <g transform="translate(14.798438 163.126719)rotate(-90)scale(0.1 -0.1)">
      <defs>
       <path d="M -0.296875 72.90625 
L 61.375 72.90625 
L 61.375 64.59375 
L 35.5 64.59375 
L 35.5 0 
L 25.59375 0 
L 25.59375 64.59375 
L -0.296875 64.59375 
z
" id="DejaVuSans-84"/>
       <path d="M 41.109375 46.296875 
Q 39.59375 47.171875 37.8125 47.578125 
Q 36.03125 48 33.890625 48 
Q 26.265625 48 22.1875 43.046875 
Q 18.109375 38.09375 18.109375 28.8125 
L 18.109375 0 
L 9.078125 0 
L 9.078125 54.6875 
L 18.109375 54.6875 
L 18.109375 46.1875 
Q 20.953125 51.171875 25.484375 53.578125 
Q 30.03125 56 36.53125 56 
Q 37.453125 56 38.578125 55.875 
Q 39.703125 55.765625 41.0625 55.515625 
z
" id="DejaVuSans-114"/>
       <path d="M 8.5 21.578125 
L 8.5 54.6875 
L 17.484375 54.6875 
L 17.484375 21.921875 
Q 17.484375 14.15625 20.5 10.265625 
Q 23.53125 6.390625 29.59375 6.390625 
Q 36.859375 6.390625 41.078125 11.03125 
Q 45.3125 15.671875 45.3125 23.6875 
L 45.3125 54.6875 
L 54.296875 54.6875 
L 54.296875 0 
L 45.3125 0 
L 45.3125 8.40625 
Q 42.046875 3.421875 37.71875 1 
Q 33.40625 -1.421875 27.6875 -1.421875 
Q 18.265625 -1.421875 13.375 4.4375 
Q 8.5 10.296875 8.5 21.578125 
z
M 31.109375 56 
z
" id="DejaVuSans-117"/>
       <path d="M 44.28125 53.078125 
L 44.28125 44.578125 
Q 40.484375 46.53125 36.375 47.5 
Q 32.28125 48.484375 27.875 48.484375 
Q 21.1875 48.484375 17.84375 46.4375 
Q 14.5 44.390625 14.5 40.28125 
Q 14.5 37.15625 16.890625 35.375 
Q 19.28125 33.59375 26.515625 31.984375 
L 29.59375 31.296875 
Q 39.15625 29.25 43.1875 25.515625 
Q 47.21875 21.78125 47.21875 15.09375 
Q 47.21875 7.46875 41.1875 3.015625 
Q 35.15625 -1.421875 24.609375 -1.421875 
Q 20.21875 -1.421875 15.453125 -0.5625 
Q 10.6875 0.296875 5.421875 2 
L 5.421875 11.28125 
Q 10.40625 8.6875 15.234375 7.390625 
Q 20.0625 6.109375 24.8125 6.109375 
Q 31.15625 6.109375 34.5625 8.28125 
Q 37.984375 10.453125 37.984375 14.40625 
Q 37.984375 18.0625 35.515625 20.015625 
Q 33.0625 21.96875 24.703125 23.78125 
L 21.578125 24.515625 
Q 13.234375 26.265625 9.515625 29.90625 
Q 5.8125 33.546875 5.8125 39.890625 
Q 5.8125 47.609375 11.28125 51.796875 
Q 16.75 56 26.8125 56 
Q 31.78125 56 36.171875 55.265625 
Q 40.578125 54.546875 44.28125 53.078125 
z
" id="DejaVuSans-115"/>
       <path d="M 18.3125 70.21875 
L 18.3125 54.6875 
L 36.8125 54.6875 
L 36.8125 47.703125 
L 18.3125 47.703125 
L 18.3125 18.015625 
Q 18.3125 11.328125 20.140625 9.421875 
Q 21.96875 7.515625 27.59375 7.515625 
L 36.8125 7.515625 
L 36.8125 0 
L 27.59375 0 
Q 17.1875 0 13.234375 3.875 
Q 9.28125 7.765625 9.28125 18.015625 
L 9.28125 47.703125 
L 2.6875 47.703125 
L 2.6875 54.6875 
L 9.28125 54.6875 
L 9.28125 70.21875 
z
" id="DejaVuSans-116"/>
      </defs>
      <use xlink:href="#DejaVuSans-84"/>
      <use x="46.333984" xlink:href="#DejaVuSans-114"/>
      <use x="87.447266" xlink:href="#DejaVuSans-117"/>
      <use x="150.826172" xlink:href="#DejaVuSans-115"/>
      <use x="202.925781" xlink:href="#DejaVuSans-116"/>
      <use x="242.134766" xlink:href="#DejaVuSans-53"/>
     </g>
    </g>
   </g>
   <g id="line2d_9">
    <path clip-path="url(#p655b933c88)" d="M 43.78125 177.315081 
L 45.426326 176.413487 
L 47.071402 175.511893 
L 48.716477 174.610299 
L 50.361553 173.708706 
L 52.006629 172.807112 
L 53.651705 171.905518 
L 55.29678 171.003924 
L 56.941856 170.10233 
L 58.586932 169.200736 
L 60.232008 168.299142 
L 61.877083 167.397548 
L 63.522159 166.495954 
L 65.167235 165.594361 
L 66.812311 164.692767 
L 68.457386 163.791173 
L 70.102462 162.889579 
L 71.747538 161.987985 
L 73.392614 161.086391 
L 75.037689 160.184797 
L 76.682765 159.283203 
L 78.327841 158.381609 
L 79.972917 157.480016 
L 81.617992 156.578422 
L 83.263068 155.676828 
L 84.908144 154.775234 
L 86.55322 153.87364 
L 88.198295 152.972046 
L 89.843371 152.070452 
L 91.488447 151.168858 
L 93.133523 150.267265 
L 94.778598 149.365671 
L 96.423674 148.464077 
L 98.06875 147.562483 
L 99.713826 146.660889 
L 101.358902 145.759295 
L 103.003977 144.857701 
L 104.649053 143.956107 
L 106.294129 143.054513 
L 107.939205 142.15292 
L 109.58428 141.251326 
L 111.229356 140.349732 
L 112.874432 139.448138 
L 114.519508 138.546544 
L 116.164583 137.64495 
L 117.809659 136.743356 
L 119.454735 135.841762 
L 121.099811 134.940168 
L 122.744886 134.038575 
L 124.389962 133.136981 
L 126.035038 132.235387 
L 127.680114 131.333793 
L 129.325189 130.432199 
L 130.970265 129.530605 
L 132.615341 128.629011 
L 134.260417 127.727417 
L 135.905492 126.825824 
L 137.550568 125.92423 
L 139.195644 125.022636 
L 140.84072 124.121042 
L 142.485795 123.219448 
L 144.130871 122.317854 
L 145.775947 121.41626 
L 147.421023 120.514666 
L 149.066098 119.613072 
L 150.711174 118.711479 
L 152.35625 117.809885 
L 154.001326 116.908291 
L 155.646402 116.006697 
L 157.291477 115.105103 
L 158.936553 114.203509 
L 160.581629 113.301915 
L 162.226705 112.400321 
L 163.87178 111.498727 
L 165.516856 110.597134 
L 167.161932 109.69554 
L 168.807008 108.793946 
L 170.452083 107.892352 
L 172.097159 106.990758 
L 173.742235 106.089164 
L 175.387311 105.18757 
L 177.032386 104.285976 
L 178.677462 103.384383 
L 180.322538 102.482789 
L 181.967614 101.581195 
L 183.612689 100.679601 
L 185.257765 99.778007 
L 186.902841 98.876413 
L 188.547917 97.974819 
L 190.192992 97.073225 
L 191.838068 96.171631 
L 193.483144 95.270038 
L 195.12822 94.368444 
L 196.773295 93.46685 
L 198.418371 92.565256 
L 200.063447 91.663662 
L 201.708523 90.762068 
L 203.353598 89.860474 
L 204.998674 88.95888 
L 206.64375 88.057286 
" style="fill:none;stroke:#1f77b4;stroke-linecap:square;stroke-width:2.25;"/>
   </g>
   <g id="patch_3">
    <path d="M 43.78125 247.64 
L 43.78125 48.04 
" style="fill:none;stroke:#000000;stroke-linecap:square;stroke-linejoin:miter;stroke-width:0.8;"/>
   </g>
   <g id="patch_4">
    <path d="M 206.64375 247.64 
L 206.64375 48.04 
" style="fill:none;stroke:#000000;stroke-linecap:square;stroke-linejoin:miter;stroke-width:0.8;"/>
   </g>
   <g id="patch_5">
    <path d="M 43.78125 247.64 
L 206.64375 247.64 
" style="fill:none;stroke:#000000;stroke-linecap:square;stroke-linejoin:miter;stroke-width:0.8;"/>
   </g>
   <g id="patch_6">
    <path d="M 43.78125 48.04 
L 206.64375 48.04 
" style="fill:none;stroke:#000000;stroke-linecap:square;stroke-linejoin:miter;stroke-width:0.8;"/>
   </g>
   <g id="text_11">
    <!-- Group A -->
    <g transform="translate(43.78125 42.04)scale(0.12 -0.12)">
     <defs>
      <path d="M 59.515625 10.40625 
L 59.515625 29.984375 
L 43.40625 29.984375 
L 43.40625 38.09375 
L 69.28125 38.09375 
L 69.28125 6.78125 
Q 63.578125 2.734375 56.6875 0.65625 
Q 49.8125 -1.421875 42 -1.421875 
Q 24.90625 -1.421875 15.25 8.5625 
Q 5.609375 18.5625 5.609375 36.375 
Q 5.609375 54.25 15.25 64.234375 
Q 24.90625 74.21875 42 74.21875 
Q 49.125 74.21875 55.546875 72.453125 
Q 61.96875 70.703125 67.390625 67.28125 
L 67.390625 56.78125 
Q 61.921875 61.421875 55.765625 63.765625 
Q 49.609375 66.109375 42.828125 66.109375 
Q 29.4375 66.109375 22.71875 58.640625 
Q 16.015625 51.171875 16.015625 36.375 
Q 16.015625 21.625 22.71875 14.15625 
Q 29.4375 6.6875 42.828125 6.6875 
Q 48.046875 6.6875 52.140625 7.59375 
Q 56.25 8.5 59.515625 10.40625 
z
" id="DejaVuSans-71"/>
      <path d="M 30.609375 48.390625 
Q 23.390625 48.390625 19.1875 42.75 
Q 14.984375 37.109375 14.984375 27.296875 
Q 14.984375 17.484375 19.15625 11.84375 
Q 23.34375 6.203125 30.609375 6.203125 
Q 37.796875 6.203125 41.984375 11.859375 
Q 46.1875 17.53125 46.1875 27.296875 
Q 46.1875 37.015625 41.984375 42.703125 
Q 37.796875 48.390625 30.609375 48.390625 
z
M 30.609375 56 
Q 42.328125 56 49.015625 48.375 
Q 55.71875 40.765625 55.71875 27.296875 
Q 55.71875 13.875 49.015625 6.21875 
Q 42.328125 -1.421875 30.609375 -1.421875 
Q 18.84375 -1.421875 12.171875 6.21875 
Q 5.515625 13.875 5.515625 27.296875 
Q 5.515625 40.765625 12.171875 48.375 
Q 18.84375 56 30.609375 56 
z
" id="DejaVuSans-111"/>
      <path d="M 18.109375 8.203125 
L 18.109375 -20.796875 
L 9.078125 -20.796875 
L 9.078125 54.6875 
L 18.109375 54.6875 
L 18.109375 46.390625 
Q 20.953125 51.265625 25.265625 53.625 
Q 29.59375 56 35.59375 56 
Q 45.5625 56 51.78125 48.09375 
Q 58.015625 40.1875 58.015625 27.296875 
Q 58.015625 14.40625 51.78125 6.484375 
Q 45.5625 -1.421875 35.59375 -1.421875 
Q 29.59375 -1.421875 25.265625 0.953125 
Q 20.953125 3.328125 18.109375 8.203125 
z
M 48.6875 27.296875 
Q 48.6875 37.203125 44.609375 42.84375 
Q 40.53125 48.484375 33.40625 48.484375 
Q 26.265625 48.484375 22.1875 42.84375 
Q 18.109375 37.203125 18.109375 27.296875 
Q 18.109375 17.390625 22.1875 11.75 
Q 26.265625 6.109375 33.40625 6.109375 
Q 40.53125 6.109375 44.609375 11.75 
Q 48.6875 17.390625 48.6875 27.296875 
z
" id="DejaVuSans-112"/>
      <path id="DejaVuSans-32"/>
      <path d="M 34.1875 63.1875 
L 20.796875 26.90625 
L 47.609375 26.90625 
z
M 28.609375 72.90625 
L 39.796875 72.90625 
L 67.578125 0 
L 57.328125 0 
L 50.6875 18.703125 
L 17.828125 18.703125 
L 11.1875 0 
L 0.78125 0 
z
" id="DejaVuSans-65"/>
     </defs>
     <use xlink:href="#DejaVuSans-71"/>
     <use x="77.490234" xlink:href="#DejaVuSans-114"/>
     <use x="116.353516" xlink:href="#DejaVuSans-111"/>
     <use x="177.535156" xlink:href="#DejaVuSans-117"/>
     <use x="240.914062" xlink:href="#DejaVuSans-112"/>
     <use x="304.390625" xlink:href="#DejaVuSans-32"/>
     <use x="336.177734" xlink:href="#DejaVuSans-65"/>
    </g>
   </g>
  </g>
  <g id="axes_2">
   <g id="patch_7">
    <path d="M 254.44375 247.64 
L 417.30625 247.64 
L 417.30625 48.04 
L 254.44375 48.04 
z
" style="fill:#ffffff;"/>
   </g>
   <g id="PathCollection_2">
    <g clip-path="url(#pda5c61c7ef)">
     <use style="fill:#1f77b4;fill-opacity:0.8;stroke:#1f77b4;stroke-opacity:0.8;" x="254.44375" xlink:href="#m68d1b850c8" y="179.80241"/>
     <use style="fill:#1f77b4;fill-opacity:0.8;stroke:#1f77b4;stroke-opacity:0.8;" x="266.971635" xlink:href="#m68d1b850c8" y="121.037547"/>
     <use style="fill:#1f77b4;fill-opacity:0.8;stroke:#1f77b4;stroke-opacity:0.8;" x="379.722596" xlink:href="#m68d1b850c8" y="121.037547"/>
     <use style="fill:#1f77b4;fill-opacity:0.8;stroke:#1f77b4;stroke-opacity:0.8;" x="342.138942" xlink:href="#m68d1b850c8" y="179.80241"/>
     <use style="fill:#1f77b4;fill-opacity:0.8;stroke:#1f77b4;stroke-opacity:0.8;" x="317.083173" xlink:href="#m68d1b850c8" y="121.037547"/>
     <use style="fill:#1f77b4;fill-opacity:0.8;stroke:#1f77b4;stroke-opacity:0.8;" x="379.722596" xlink:href="#m68d1b850c8" y="62.272684"/>
     <use style="fill:#1f77b4;fill-opacity:0.8;stroke:#1f77b4;stroke-opacity:0.8;" x="317.083173" xlink:href="#m68d1b850c8" y="121.037547"/>
     <use style="fill:#1f77b4;fill-opacity:0.8;stroke:#1f77b4;stroke-opacity:0.8;" x="342.138942" xlink:href="#m68d1b850c8" y="238.567273"/>
     <use style="fill:#1f77b4;fill-opacity:0.8;stroke:#1f77b4;stroke-opacity:0.8;" x="342.138942" xlink:href="#m68d1b850c8" y="121.037547"/>
     <use style="fill:#1f77b4;fill-opacity:0.8;stroke:#1f77b4;stroke-opacity:0.8;" x="367.194712" xlink:href="#m68d1b850c8" y="121.037547"/>
     <use style="fill:#1f77b4;fill-opacity:0.8;stroke:#1f77b4;stroke-opacity:0.8;" x="342.138942" xlink:href="#m68d1b850c8" y="62.272684"/>
     <use style="fill:#1f77b4;fill-opacity:0.8;stroke:#1f77b4;stroke-opacity:0.8;" x="379.722596" xlink:href="#m68d1b850c8" y="121.037547"/>
     <use style="fill:#1f77b4;fill-opacity:0.8;stroke:#1f77b4;stroke-opacity:0.8;" x="342.138942" xlink:href="#m68d1b850c8" y="121.037547"/>
     <use style="fill:#1f77b4;fill-opacity:0.8;stroke:#1f77b4;stroke-opacity:0.8;" x="392.250481" xlink:href="#m68d1b850c8" y="62.272684"/>
     <use style="fill:#1f77b4;fill-opacity:0.8;stroke:#1f77b4;stroke-opacity:0.8;" x="354.666827" xlink:href="#m68d1b850c8" y="62.272684"/>
     <use style="fill:#1f77b4;fill-opacity:0.8;stroke:#1f77b4;stroke-opacity:0.8;" x="392.250481" xlink:href="#m68d1b850c8" y="62.272684"/>
     <use style="fill:#1f77b4;fill-opacity:0.8;stroke:#1f77b4;stroke-opacity:0.8;" x="354.666827" xlink:href="#m68d1b850c8" y="62.272684"/>
     <use style="fill:#1f77b4;fill-opacity:0.8;stroke:#1f77b4;stroke-opacity:0.8;" x="317.083173" xlink:href="#m68d1b850c8" y="62.272684"/>
     <use style="fill:#1f77b4;fill-opacity:0.8;stroke:#1f77b4;stroke-opacity:0.8;" x="367.194712" xlink:href="#m68d1b850c8" y="62.272684"/>
     <use style="fill:#1f77b4;fill-opacity:0.8;stroke:#1f77b4;stroke-opacity:0.8;" x="279.499519" xlink:href="#m68d1b850c8" y="179.80241"/>
     <use style="fill:#1f77b4;fill-opacity:0.8;stroke:#1f77b4;stroke-opacity:0.8;" x="417.30625" xlink:href="#m68d1b850c8" y="121.037547"/>
     <use style="fill:#1f77b4;fill-opacity:0.8;stroke:#1f77b4;stroke-opacity:0.8;" x="317.083173" xlink:href="#m68d1b850c8" y="62.272684"/>
     <use style="fill:#1f77b4;fill-opacity:0.8;stroke:#1f77b4;stroke-opacity:0.8;" x="367.194712" xlink:href="#m68d1b850c8" y="62.272684"/>
     <use style="fill:#1f77b4;fill-opacity:0.8;stroke:#1f77b4;stroke-opacity:0.8;" x="379.722596" xlink:href="#m68d1b850c8" y="121.037547"/>
     <use style="fill:#1f77b4;fill-opacity:0.8;stroke:#1f77b4;stroke-opacity:0.8;" x="379.722596" xlink:href="#m68d1b850c8" y="121.037547"/>
     <use style="fill:#1f77b4;fill-opacity:0.8;stroke:#1f77b4;stroke-opacity:0.8;" x="317.083173" xlink:href="#m68d1b850c8" y="62.272684"/>
     <use style="fill:#1f77b4;fill-opacity:0.8;stroke:#1f77b4;stroke-opacity:0.8;" x="317.083173" xlink:href="#m68d1b850c8" y="121.037547"/>
     <use style="fill:#1f77b4;fill-opacity:0.8;stroke:#1f77b4;stroke-opacity:0.8;" x="317.083173" xlink:href="#m68d1b850c8" y="62.272684"/>
     <use style="fill:#1f77b4;fill-opacity:0.8;stroke:#1f77b4;stroke-opacity:0.8;" x="379.722596" xlink:href="#m68d1b850c8" y="121.037547"/>
     <use style="fill:#1f77b4;fill-opacity:0.8;stroke:#1f77b4;stroke-opacity:0.8;" x="379.722596" xlink:href="#m68d1b850c8" y="121.037547"/>
     <use style="fill:#1f77b4;fill-opacity:0.8;stroke:#1f77b4;stroke-opacity:0.8;" x="254.44375" xlink:href="#m68d1b850c8" y="121.037547"/>
     <use style="fill:#1f77b4;fill-opacity:0.8;stroke:#1f77b4;stroke-opacity:0.8;" x="329.611058" xlink:href="#m68d1b850c8" y="62.272684"/>
     <use style="fill:#1f77b4;fill-opacity:0.8;stroke:#1f77b4;stroke-opacity:0.8;" x="354.666827" xlink:href="#m68d1b850c8" y="121.037547"/>
     <use style="fill:#1f77b4;fill-opacity:0.8;stroke:#1f77b4;stroke-opacity:0.8;" x="317.083173" xlink:href="#m68d1b850c8" y="121.037547"/>
     <use style="fill:#1f77b4;fill-opacity:0.8;stroke:#1f77b4;stroke-opacity:0.8;" x="342.138942" xlink:href="#m68d1b850c8" y="121.037547"/>
     <use style="fill:#1f77b4;fill-opacity:0.8;stroke:#1f77b4;stroke-opacity:0.8;" x="329.611058" xlink:href="#m68d1b850c8" y="121.037547"/>
     <use style="fill:#1f77b4;fill-opacity:0.8;stroke:#1f77b4;stroke-opacity:0.8;" x="317.083173" xlink:href="#m68d1b850c8" y="62.272684"/>
     <use style="fill:#1f77b4;fill-opacity:0.8;stroke:#1f77b4;stroke-opacity:0.8;" x="367.194712" xlink:href="#m68d1b850c8" y="62.272684"/>
     <use style="fill:#1f77b4;fill-opacity:0.8;stroke:#1f77b4;stroke-opacity:0.8;" x="317.083173" xlink:href="#m68d1b850c8" y="179.80241"/>
     <use style="fill:#1f77b4;fill-opacity:0.8;stroke:#1f77b4;stroke-opacity:0.8;" x="317.083173" xlink:href="#m68d1b850c8" y="121.037547"/>
     <use style="fill:#1f77b4;fill-opacity:0.8;stroke:#1f77b4;stroke-opacity:0.8;" x="317.083173" xlink:href="#m68d1b850c8" y="62.272684"/>
     <use style="fill:#1f77b4;fill-opacity:0.8;stroke:#1f77b4;stroke-opacity:0.8;" x="379.722596" xlink:href="#m68d1b850c8" y="62.272684"/>
    </g>
   </g>
   <g id="PolyCollection_2">
    <path clip-path="url(#pda5c61c7ef)" d="M 254.44375 93.662996 
L 254.44375 157.890681 
L 256.088826 156.976408 
L 257.733902 156.077663 
L 259.378977 155.206806 
L 261.024053 154.36156 
L 262.669129 153.469712 
L 264.314205 152.709502 
L 265.95928 151.982077 
L 267.604356 151.257973 
L 269.249432 150.445087 
L 270.894508 149.655336 
L 272.539583 148.863055 
L 274.184659 148.070774 
L 275.829735 147.269208 
L 277.474811 146.489325 
L 279.119886 145.699031 
L 280.764962 144.885755 
L 282.410038 144.116275 
L 284.055114 143.328148 
L 285.700189 142.537854 
L 287.345265 141.828321 
L 288.990341 141.11806 
L 290.635417 140.462825 
L 292.280492 139.800059 
L 293.925568 138.783795 
L 295.570644 138.011361 
L 297.21572 137.238065 
L 298.860795 136.537389 
L 300.505871 135.902426 
L 302.150947 135.101477 
L 303.796023 134.382004 
L 305.441098 133.882797 
L 307.086174 133.022607 
L 308.73125 132.501061 
L 310.376326 131.940696 
L 312.021402 130.968644 
L 313.666477 129.983842 
L 315.311553 129.200219 
L 316.956629 128.548767 
L 318.601705 127.678868 
L 320.24678 126.961684 
L 321.891856 126.142392 
L 323.536932 125.318218 
L 325.182008 124.486635 
L 326.827083 123.755908 
L 328.472159 123.254689 
L 330.117235 122.6443 
L 331.762311 121.790908 
L 333.407386 121.037605 
L 335.052462 120.563251 
L 336.697538 120.089198 
L 338.342614 119.616079 
L 339.987689 119.142353 
L 341.632765 118.585994 
L 343.277841 118.078625 
L 344.922917 117.618353 
L 346.567992 116.944643 
L 348.213068 116.197461 
L 349.858144 116.055809 
L 351.50322 115.610463 
L 353.148295 115.193362 
L 354.793371 114.813427 
L 356.438447 114.323693 
L 358.083523 113.928955 
L 359.728598 113.449475 
L 361.373674 113.1734 
L 363.01875 112.886088 
L 364.663826 112.582661 
L 366.308902 112.098904 
L 367.953977 111.63294 
L 369.599053 111.262491 
L 371.244129 110.856463 
L 372.889205 111.045852 
L 374.53428 110.844672 
L 376.179356 110.515986 
L 377.824432 110.332027 
L 379.469508 110.244901 
L 381.114583 110.13709 
L 382.759659 110.077321 
L 384.404735 109.865054 
L 386.049811 109.443434 
L 387.694886 109.192097 
L 389.339962 108.860777 
L 390.985038 108.528654 
L 392.630114 108.401913 
L 394.275189 108.440402 
L 395.920265 108.394589 
L 397.565341 108.402755 
L 399.210417 108.390759 
L 400.855492 108.029733 
L 402.500568 108.186955 
L 404.145644 108.299984 
L 405.79072 107.892749 
L 407.435795 107.857077 
L 409.080871 107.642864 
L 410.725947 107.740102 
L 412.371023 107.49915 
L 414.016098 107.24027 
L 415.661174 106.981389 
L 417.30625 106.716947 
L 417.30625 57.112727 
L 417.30625 57.112727 
L 415.661174 57.974879 
L 414.016098 58.837032 
L 412.371023 59.70731 
L 410.725947 60.620336 
L 409.080871 61.533363 
L 407.435795 62.44639 
L 405.79072 63.359416 
L 404.145644 64.243878 
L 402.500568 65.157157 
L 400.855492 66.207016 
L 399.210417 67.228881 
L 397.565341 67.935851 
L 395.920265 68.847185 
L 394.275189 69.764233 
L 392.630114 70.639414 
L 390.985038 71.464309 
L 389.339962 72.289205 
L 387.694886 73.114101 
L 386.049811 73.870156 
L 384.404735 74.717662 
L 382.759659 75.588788 
L 381.114583 76.413683 
L 379.469508 77.238579 
L 377.824432 78.063474 
L 376.179356 78.88837 
L 374.53428 79.713266 
L 372.889205 80.526099 
L 371.244129 81.30167 
L 369.599053 82.101186 
L 367.953977 82.940762 
L 366.308902 83.838775 
L 364.663826 84.669291 
L 363.01875 85.523 
L 361.373674 86.382438 
L 359.728598 87.242352 
L 358.083523 87.890359 
L 356.438447 88.715075 
L 354.793371 89.300413 
L 353.148295 89.707746 
L 351.50322 90.438602 
L 349.858144 91.020171 
L 348.213068 91.613072 
L 346.567992 91.953824 
L 344.922917 92.318046 
L 343.277841 92.753325 
L 341.632765 93.039948 
L 339.987689 93.430125 
L 338.342614 93.868625 
L 336.697538 94.1548 
L 335.052462 94.290624 
L 333.407386 94.552012 
L 331.762311 94.806185 
L 330.117235 94.73443 
L 328.472159 95.119028 
L 326.827083 95.947418 
L 325.182008 96.172242 
L 323.536932 96.466362 
L 321.891856 96.391655 
L 320.24678 96.368995 
L 318.601705 96.317384 
L 316.956629 96.305203 
L 315.311553 96.213414 
L 313.666477 96.161136 
L 312.021402 96.228733 
L 310.376326 96.410189 
L 308.73125 96.324215 
L 307.086174 96.247896 
L 305.441098 96.193612 
L 303.796023 96.120606 
L 302.150947 96.216834 
L 300.505871 96.175677 
L 298.860795 96.075214 
L 297.21572 95.935418 
L 295.570644 95.967722 
L 293.925568 96.042966 
L 292.280492 96.110191 
L 290.635417 95.949766 
L 288.990341 95.858997 
L 287.345265 95.875478 
L 285.700189 95.619531 
L 284.055114 95.363583 
L 282.410038 95.162915 
L 280.764962 95.005107 
L 279.119886 94.849322 
L 277.474811 94.762477 
L 275.829735 94.675631 
L 274.184659 94.588786 
L 272.539583 94.50194 
L 270.894508 94.415094 
L 269.249432 94.329725 
L 267.604356 94.244488 
L 265.95928 94.159251 
L 264.314205 94.075371 
L 262.669129 93.994348 
L 261.024053 93.913325 
L 259.378977 93.832302 
L 257.733902 93.819849 
L 256.088826 93.82238 
L 254.44375 93.662996 
z
" style="fill:#1f77b4;fill-opacity:0.15;"/>
   </g>
   <g id="matplotlib.axis_3">
    <g id="xtick_4">
     <g id="line2d_10">
      <g>
       <use style="stroke:#000000;stroke-width:0.8;" x="292.027404" xlink:href="#me1f654af39" y="247.64"/>
      </g>
     </g>
     <g id="text_12">
      <!-- 2 -->
      <g transform="translate(288.846154 262.238437)scale(0.1 -0.1)">
       <use xlink:href="#DejaVuSans-50"/>
      </g>
     </g>
    </g>
    <g id="xtick_5">
     <g id="line2d_11">
      <g>
       <use style="stroke:#000000;stroke-width:0.8;" x="342.138942" xlink:href="#me1f654af39" y="247.64"/>
      </g>
     </g>
     <g id="text_13">
      <!-- 3 -->
      <g transform="translate(338.957692 262.238437)scale(0.1 -0.1)">
       <use xlink:href="#DejaVuSans-51"/>
      </g>
     </g>
    </g>
    <g id="xtick_6">
     <g id="line2d_12">
      <g>
       <use style="stroke:#000000;stroke-width:0.8;" x="392.250481" xlink:href="#me1f654af39" y="247.64"/>
      </g>
     </g>
     <g id="text_14">
      <!-- 4 -->
      <g transform="translate(389.069231 262.238437)scale(0.1 -0.1)">
       <use xlink:href="#DejaVuSans-52"/>
      </g>
     </g>
    </g>
    <g id="text_15">
     <!-- E -->
     <g transform="translate(332.715625 275.916562)scale(0.1 -0.1)">
      <use xlink:href="#DejaVuSans-69"/>
     </g>
    </g>
   </g>
   <g id="matplotlib.axis_4">
    <g id="ytick_6">
     <g id="line2d_13">
      <g>
       <use style="stroke:#000000;stroke-width:0.8;" x="254.44375" xlink:href="#m1f1a53934b" y="238.567273"/>
      </g>
     </g>
     <g id="text_16">
      <!-- 2.0 -->
      <g transform="translate(231.540625 242.366491)scale(0.1 -0.1)">
       <use xlink:href="#DejaVuSans-50"/>
       <use x="63.623047" xlink:href="#DejaVuSans-46"/>
       <use x="95.410156" xlink:href="#DejaVuSans-48"/>
      </g>
     </g>
    </g>
    <g id="ytick_7">
     <g id="line2d_14">
      <g>
       <use style="stroke:#000000;stroke-width:0.8;" x="254.44375" xlink:href="#m1f1a53934b" y="209.184841"/>
      </g>
     </g>
     <g id="text_17">
      <!-- 2.5 -->
      <g transform="translate(231.540625 212.98406)scale(0.1 -0.1)">
       <use xlink:href="#DejaVuSans-50"/>
       <use x="63.623047" xlink:href="#DejaVuSans-46"/>
       <use x="95.410156" xlink:href="#DejaVuSans-53"/>
      </g>
     </g>
    </g>
    <g id="ytick_8">
     <g id="line2d_15">
      <g>
       <use style="stroke:#000000;stroke-width:0.8;" x="254.44375" xlink:href="#m1f1a53934b" y="179.80241"/>
      </g>
     </g>
     <g id="text_18">
      <!-- 3.0 -->
      <g transform="translate(231.540625 183.601629)scale(0.1 -0.1)">
       <use xlink:href="#DejaVuSans-51"/>
       <use x="63.623047" xlink:href="#DejaVuSans-46"/>
       <use x="95.410156" xlink:href="#DejaVuSans-48"/>
      </g>
     </g>
    </g>
    <g id="ytick_9">
     <g id="line2d_16">
      <g>
       <use style="stroke:#000000;stroke-width:0.8;" x="254.44375" xlink:href="#m1f1a53934b" y="150.419978"/>
      </g>
     </g>
     <g id="text_19">
      <!-- 3.5 -->
      <g transform="translate(231.540625 154.219197)scale(0.1 -0.1)">
       <use xlink:href="#DejaVuSans-51"/>
       <use x="63.623047" xlink:href="#DejaVuSans-46"/>
       <use x="95.410156" xlink:href="#DejaVuSans-53"/>
      </g>
     </g>
    </g>
    <g id="ytick_10">
     <g id="line2d_17">
      <g>
       <use style="stroke:#000000;stroke-width:0.8;" x="254.44375" xlink:href="#m1f1a53934b" y="121.037547"/>
      </g>
     </g>
     <g id="text_20">
      <!-- 4.0 -->
      <g transform="translate(231.540625 124.836766)scale(0.1 -0.1)">
       <use xlink:href="#DejaVuSans-52"/>
       <use x="63.623047" xlink:href="#DejaVuSans-46"/>
       <use x="95.410156" xlink:href="#DejaVuSans-48"/>
      </g>
     </g>
    </g>
    <g id="ytick_11">
     <g id="line2d_18">
      <g>
       <use style="stroke:#000000;stroke-width:0.8;" x="254.44375" xlink:href="#m1f1a53934b" y="91.655116"/>
      </g>
     </g>
     <g id="text_21">
      <!-- 4.5 -->
      <g transform="translate(231.540625 95.454334)scale(0.1 -0.1)">
       <use xlink:href="#DejaVuSans-52"/>
       <use x="63.623047" xlink:href="#DejaVuSans-46"/>
       <use x="95.410156" xlink:href="#DejaVuSans-53"/>
      </g>
     </g>
    </g>
    <g id="ytick_12">
     <g id="line2d_19">
      <g>
       <use style="stroke:#000000;stroke-width:0.8;" x="254.44375" xlink:href="#m1f1a53934b" y="62.272684"/>
      </g>
     </g>
     <g id="text_22">
      <!-- 5.0 -->
      <g transform="translate(231.540625 66.071903)scale(0.1 -0.1)">
       <use xlink:href="#DejaVuSans-53"/>
       <use x="63.623047" xlink:href="#DejaVuSans-46"/>
       <use x="95.410156" xlink:href="#DejaVuSans-48"/>
      </g>
     </g>
    </g>
    <g id="text_23">
     <!-- Trust5 -->
     <g transform="translate(225.460938 163.126719)rotate(-90)scale(0.1 -0.1)">
      <use xlink:href="#DejaVuSans-84"/>
      <use x="46.333984" xlink:href="#DejaVuSans-114"/>
      <use x="87.447266" xlink:href="#DejaVuSans-117"/>
      <use x="150.826172" xlink:href="#DejaVuSans-115"/>
      <use x="202.925781" xlink:href="#DejaVuSans-116"/>
      <use x="242.134766" xlink:href="#DejaVuSans-53"/>
     </g>
    </g>
   </g>
   <g id="line2d_20">
    <path clip-path="url(#pda5c61c7ef)" d="M 254.44375 131.769779 
L 256.088826 131.27638 
L 257.733902 130.782981 
L 259.378977 130.289582 
L 261.024053 129.796183 
L 262.669129 129.302784 
L 264.314205 128.809386 
L 265.95928 128.315987 
L 267.604356 127.822588 
L 269.249432 127.329189 
L 270.894508 126.83579 
L 272.539583 126.342391 
L 274.184659 125.848993 
L 275.829735 125.355594 
L 277.474811 124.862195 
L 279.119886 124.368796 
L 280.764962 123.875397 
L 282.410038 123.381998 
L 284.055114 122.888599 
L 285.700189 122.395201 
L 287.345265 121.901802 
L 288.990341 121.408403 
L 290.635417 120.915004 
L 292.280492 120.421605 
L 293.925568 119.928206 
L 295.570644 119.434808 
L 297.21572 118.941409 
L 298.860795 118.44801 
L 300.505871 117.954611 
L 302.150947 117.461212 
L 303.796023 116.967813 
L 305.441098 116.474414 
L 307.086174 115.981016 
L 308.73125 115.487617 
L 310.376326 114.994218 
L 312.021402 114.500819 
L 313.666477 114.00742 
L 315.311553 113.514021 
L 316.956629 113.020623 
L 318.601705 112.527224 
L 320.24678 112.033825 
L 321.891856 111.540426 
L 323.536932 111.047027 
L 325.182008 110.553628 
L 326.827083 110.060229 
L 328.472159 109.566831 
L 330.117235 109.073432 
L 331.762311 108.580033 
L 333.407386 108.086634 
L 335.052462 107.593235 
L 336.697538 107.099836 
L 338.342614 106.606438 
L 339.987689 106.113039 
L 341.632765 105.61964 
L 343.277841 105.126241 
L 344.922917 104.632842 
L 346.567992 104.139443 
L 348.213068 103.646044 
L 349.858144 103.152646 
L 351.50322 102.659247 
L 353.148295 102.165848 
L 354.793371 101.672449 
L 356.438447 101.17905 
L 358.083523 100.685651 
L 359.728598 100.192253 
L 361.373674 99.698854 
L 363.01875 99.205455 
L 364.663826 98.712056 
L 366.308902 98.218657 
L 367.953977 97.725258 
L 369.599053 97.231859 
L 371.244129 96.738461 
L 372.889205 96.245062 
L 374.53428 95.751663 
L 376.179356 95.258264 
L 377.824432 94.764865 
L 379.469508 94.271466 
L 381.114583 93.778068 
L 382.759659 93.284669 
L 384.404735 92.79127 
L 386.049811 92.297871 
L 387.694886 91.804472 
L 389.339962 91.311073 
L 390.985038 90.817674 
L 392.630114 90.324276 
L 394.275189 89.830877 
L 395.920265 89.337478 
L 397.565341 88.844079 
L 399.210417 88.35068 
L 400.855492 87.857281 
L 402.500568 87.363883 
L 404.145644 86.870484 
L 405.79072 86.377085 
L 407.435795 85.883686 
L 409.080871 85.390287 
L 410.725947 84.896888 
L 412.371023 84.403489 
L 414.016098 83.910091 
L 415.661174 83.416692 
L 417.30625 82.923293 
" style="fill:none;stroke:#1f77b4;stroke-linecap:square;stroke-width:2.25;"/>
   </g>
   <g id="patch_8">
    <path d="M 254.44375 247.64 
L 254.44375 48.04 
" style="fill:none;stroke:#000000;stroke-linecap:square;stroke-linejoin:miter;stroke-width:0.8;"/>
   </g>
   <g id="patch_9">
    <path d="M 417.30625 247.64 
L 417.30625 48.04 
" style="fill:none;stroke:#000000;stroke-linecap:square;stroke-linejoin:miter;stroke-width:0.8;"/>
   </g>
   <g id="patch_10">
    <path d="M 254.44375 247.64 
L 417.30625 247.64 
" style="fill:none;stroke:#000000;stroke-linecap:square;stroke-linejoin:miter;stroke-width:0.8;"/>
   </g>
   <g id="patch_11">
    <path d="M 254.44375 48.04 
L 417.30625 48.04 
" style="fill:none;stroke:#000000;stroke-linecap:square;stroke-linejoin:miter;stroke-width:0.8;"/>
   </g>
   <g id="text_24">
    <!-- Group B -->
    <g transform="translate(254.44375 42.04)scale(0.12 -0.12)">
     <defs>
      <path d="M 19.671875 34.8125 
L 19.671875 8.109375 
L 35.5 8.109375 
Q 43.453125 8.109375 47.28125 11.40625 
Q 51.125 14.703125 51.125 21.484375 
Q 51.125 28.328125 47.28125 31.5625 
Q 43.453125 34.8125 35.5 34.8125 
z
M 19.671875 64.796875 
L 19.671875 42.828125 
L 34.28125 42.828125 
Q 41.5 42.828125 45.03125 45.53125 
Q 48.578125 48.25 48.578125 53.8125 
Q 48.578125 59.328125 45.03125 62.0625 
Q 41.5 64.796875 34.28125 64.796875 
z
M 9.8125 72.90625 
L 35.015625 72.90625 
Q 46.296875 72.90625 52.390625 68.21875 
Q 58.5 63.53125 58.5 54.890625 
Q 58.5 48.1875 55.375 44.234375 
Q 52.25 40.28125 46.1875 39.3125 
Q 53.46875 37.75 57.5 32.78125 
Q 61.53125 27.828125 61.53125 20.40625 
Q 61.53125 10.640625 54.890625 5.3125 
Q 48.25 0 35.984375 0 
L 9.8125 0 
z
" id="DejaVuSans-66"/>
     </defs>
     <use xlink:href="#DejaVuSans-71"/>
     <use x="77.490234" xlink:href="#DejaVuSans-114"/>
     <use x="116.353516" xlink:href="#DejaVuSans-111"/>
     <use x="177.535156" xlink:href="#DejaVuSans-117"/>
     <use x="240.914062" xlink:href="#DejaVuSans-112"/>
     <use x="304.390625" xlink:href="#DejaVuSans-32"/>
     <use x="336.177734" xlink:href="#DejaVuSans-66"/>
    </g>
   </g>
  </g>
  <g id="text_25">
   <!-- I believe the bike chatbot was honest with me. -->
   <g transform="translate(114.675837 13.529498)scale(0.0833 -0.0833)">
    <defs>
     <path d="M 9.8125 72.90625 
L 19.671875 72.90625 
L 19.671875 0 
L 9.8125 0 
z
" id="DejaVuSans-73"/>
     <path d="M 48.6875 27.296875 
Q 48.6875 37.203125 44.609375 42.84375 
Q 40.53125 48.484375 33.40625 48.484375 
Q 26.265625 48.484375 22.1875 42.84375 
Q 18.109375 37.203125 18.109375 27.296875 
Q 18.109375 17.390625 22.1875 11.75 
Q 26.265625 6.109375 33.40625 6.109375 
Q 40.53125 6.109375 44.609375 11.75 
Q 48.6875 17.390625 48.6875 27.296875 
z
M 18.109375 46.390625 
Q 20.953125 51.265625 25.265625 53.625 
Q 29.59375 56 35.59375 56 
Q 45.5625 56 51.78125 48.09375 
Q 58.015625 40.1875 58.015625 27.296875 
Q 58.015625 14.40625 51.78125 6.484375 
Q 45.5625 -1.421875 35.59375 -1.421875 
Q 29.59375 -1.421875 25.265625 0.953125 
Q 20.953125 3.328125 18.109375 8.203125 
L 18.109375 0 
L 9.078125 0 
L 9.078125 75.984375 
L 18.109375 75.984375 
z
" id="DejaVuSans-98"/>
     <path d="M 56.203125 29.59375 
L 56.203125 25.203125 
L 14.890625 25.203125 
Q 15.484375 15.921875 20.484375 11.0625 
Q 25.484375 6.203125 34.421875 6.203125 
Q 39.59375 6.203125 44.453125 7.46875 
Q 49.3125 8.734375 54.109375 11.28125 
L 54.109375 2.78125 
Q 49.265625 0.734375 44.1875 -0.34375 
Q 39.109375 -1.421875 33.890625 -1.421875 
Q 20.796875 -1.421875 13.15625 6.1875 
Q 5.515625 13.8125 5.515625 26.8125 
Q 5.515625 40.234375 12.765625 48.109375 
Q 20.015625 56 32.328125 56 
Q 43.359375 56 49.78125 48.890625 
Q 56.203125 41.796875 56.203125 29.59375 
z
M 47.21875 32.234375 
Q 47.125 39.59375 43.09375 43.984375 
Q 39.0625 48.390625 32.421875 48.390625 
Q 24.90625 48.390625 20.390625 44.140625 
Q 15.875 39.890625 15.1875 32.171875 
z
" id="DejaVuSans-101"/>
     <path d="M 9.421875 75.984375 
L 18.40625 75.984375 
L 18.40625 0 
L 9.421875 0 
z
" id="DejaVuSans-108"/>
     <path d="M 9.421875 54.6875 
L 18.40625 54.6875 
L 18.40625 0 
L 9.421875 0 
z
M 9.421875 75.984375 
L 18.40625 75.984375 
L 18.40625 64.59375 
L 9.421875 64.59375 
z
" id="DejaVuSans-105"/>
     <path d="M 2.984375 54.6875 
L 12.5 54.6875 
L 29.59375 8.796875 
L 46.6875 54.6875 
L 56.203125 54.6875 
L 35.6875 0 
L 23.484375 0 
z
" id="DejaVuSans-118"/>
     <path d="M 54.890625 33.015625 
L 54.890625 0 
L 45.90625 0 
L 45.90625 32.71875 
Q 45.90625 40.484375 42.875 44.328125 
Q 39.84375 48.1875 33.796875 48.1875 
Q 26.515625 48.1875 22.3125 43.546875 
Q 18.109375 38.921875 18.109375 30.90625 
L 18.109375 0 
L 9.078125 0 
L 9.078125 75.984375 
L 18.109375 75.984375 
L 18.109375 46.1875 
Q 21.34375 51.125 25.703125 53.5625 
Q 30.078125 56 35.796875 56 
Q 45.21875 56 50.046875 50.171875 
Q 54.890625 44.34375 54.890625 33.015625 
z
" id="DejaVuSans-104"/>
     <path d="M 9.078125 75.984375 
L 18.109375 75.984375 
L 18.109375 31.109375 
L 44.921875 54.6875 
L 56.390625 54.6875 
L 27.390625 29.109375 
L 57.625 0 
L 45.90625 0 
L 18.109375 26.703125 
L 18.109375 0 
L 9.078125 0 
z
" id="DejaVuSans-107"/>
     <path d="M 48.78125 52.59375 
L 48.78125 44.1875 
Q 44.96875 46.296875 41.140625 47.34375 
Q 37.3125 48.390625 33.40625 48.390625 
Q 24.65625 48.390625 19.8125 42.84375 
Q 14.984375 37.3125 14.984375 27.296875 
Q 14.984375 17.28125 19.8125 11.734375 
Q 24.65625 6.203125 33.40625 6.203125 
Q 37.3125 6.203125 41.140625 7.25 
Q 44.96875 8.296875 48.78125 10.40625 
L 48.78125 2.09375 
Q 45.015625 0.34375 40.984375 -0.53125 
Q 36.96875 -1.421875 32.421875 -1.421875 
Q 20.0625 -1.421875 12.78125 6.34375 
Q 5.515625 14.109375 5.515625 27.296875 
Q 5.515625 40.671875 12.859375 48.328125 
Q 20.21875 56 33.015625 56 
Q 37.15625 56 41.109375 55.140625 
Q 45.0625 54.296875 48.78125 52.59375 
z
" id="DejaVuSans-99"/>
     <path d="M 34.28125 27.484375 
Q 23.390625 27.484375 19.1875 25 
Q 14.984375 22.515625 14.984375 16.5 
Q 14.984375 11.71875 18.140625 8.90625 
Q 21.296875 6.109375 26.703125 6.109375 
Q 34.1875 6.109375 38.703125 11.40625 
Q 43.21875 16.703125 43.21875 25.484375 
L 43.21875 27.484375 
z
M 52.203125 31.203125 
L 52.203125 0 
L 43.21875 0 
L 43.21875 8.296875 
Q 40.140625 3.328125 35.546875 0.953125 
Q 30.953125 -1.421875 24.3125 -1.421875 
Q 15.921875 -1.421875 10.953125 3.296875 
Q 6 8.015625 6 15.921875 
Q 6 25.140625 12.171875 29.828125 
Q 18.359375 34.515625 30.609375 34.515625 
L 43.21875 34.515625 
L 43.21875 35.40625 
Q 43.21875 41.609375 39.140625 45 
Q 35.0625 48.390625 27.6875 48.390625 
Q 23 48.390625 18.546875 47.265625 
Q 14.109375 46.140625 10.015625 43.890625 
L 10.015625 52.203125 
Q 14.9375 54.109375 19.578125 55.046875 
Q 24.21875 56 28.609375 56 
Q 40.484375 56 46.34375 49.84375 
Q 52.203125 43.703125 52.203125 31.203125 
z
" id="DejaVuSans-97"/>
     <path d="M 4.203125 54.6875 
L 13.1875 54.6875 
L 24.421875 12.015625 
L 35.59375 54.6875 
L 46.1875 54.6875 
L 57.421875 12.015625 
L 68.609375 54.6875 
L 77.59375 54.6875 
L 63.28125 0 
L 52.6875 0 
L 40.921875 44.828125 
L 29.109375 0 
L 18.5 0 
z
" id="DejaVuSans-119"/>
     <path d="M 54.890625 33.015625 
L 54.890625 0 
L 45.90625 0 
L 45.90625 32.71875 
Q 45.90625 40.484375 42.875 44.328125 
Q 39.84375 48.1875 33.796875 48.1875 
Q 26.515625 48.1875 22.3125 43.546875 
Q 18.109375 38.921875 18.109375 30.90625 
L 18.109375 0 
L 9.078125 0 
L 9.078125 54.6875 
L 18.109375 54.6875 
L 18.109375 46.1875 
Q 21.34375 51.125 25.703125 53.5625 
Q 30.078125 56 35.796875 56 
Q 45.21875 56 50.046875 50.171875 
Q 54.890625 44.34375 54.890625 33.015625 
z
" id="DejaVuSans-110"/>
     <path d="M 52 44.1875 
Q 55.375 50.25 60.0625 53.125 
Q 64.75 56 71.09375 56 
Q 79.640625 56 84.28125 50.015625 
Q 88.921875 44.046875 88.921875 33.015625 
L 88.921875 0 
L 79.890625 0 
L 79.890625 32.71875 
Q 79.890625 40.578125 77.09375 44.375 
Q 74.3125 48.1875 68.609375 48.1875 
Q 61.625 48.1875 57.5625 43.546875 
Q 53.515625 38.921875 53.515625 30.90625 
L 53.515625 0 
L 44.484375 0 
L 44.484375 32.71875 
Q 44.484375 40.625 41.703125 44.40625 
Q 38.921875 48.1875 33.109375 48.1875 
Q 26.21875 48.1875 22.15625 43.53125 
Q 18.109375 38.875 18.109375 30.90625 
L 18.109375 0 
L 9.078125 0 
L 9.078125 54.6875 
L 18.109375 54.6875 
L 18.109375 46.1875 
Q 21.1875 51.21875 25.484375 53.609375 
Q 29.78125 56 35.6875 56 
Q 41.65625 56 45.828125 52.96875 
Q 50 49.953125 52 44.1875 
z
" id="DejaVuSans-109"/>
    </defs>
    <use xlink:href="#DejaVuSans-73"/>
    <use x="29.492188" xlink:href="#DejaVuSans-32"/>
    <use x="61.279297" xlink:href="#DejaVuSans-98"/>
    <use x="124.755859" xlink:href="#DejaVuSans-101"/>
    <use x="186.279297" xlink:href="#DejaVuSans-108"/>
    <use x="214.0625" xlink:href="#DejaVuSans-105"/>
    <use x="241.845703" xlink:href="#DejaVuSans-101"/>
    <use x="303.369141" xlink:href="#DejaVuSans-118"/>
    <use x="362.548828" xlink:href="#DejaVuSans-101"/>
    <use x="424.072266" xlink:href="#DejaVuSans-32"/>
    <use x="455.859375" xlink:href="#DejaVuSans-116"/>
    <use x="495.068359" xlink:href="#DejaVuSans-104"/>
    <use x="558.447266" xlink:href="#DejaVuSans-101"/>
    <use x="619.970703" xlink:href="#DejaVuSans-32"/>
    <use x="651.757812" xlink:href="#DejaVuSans-98"/>
    <use x="715.234375" xlink:href="#DejaVuSans-105"/>
    <use x="743.017578" xlink:href="#DejaVuSans-107"/>
    <use x="797.302734" xlink:href="#DejaVuSans-101"/>
    <use x="858.826172" xlink:href="#DejaVuSans-32"/>
    <use x="890.613281" xlink:href="#DejaVuSans-99"/>
    <use x="945.59375" xlink:href="#DejaVuSans-104"/>
    <use x="1008.972656" xlink:href="#DejaVuSans-97"/>
    <use x="1070.251953" xlink:href="#DejaVuSans-116"/>
    <use x="1109.460938" xlink:href="#DejaVuSans-98"/>
    <use x="1172.9375" xlink:href="#DejaVuSans-111"/>
    <use x="1234.119141" xlink:href="#DejaVuSans-116"/>
    <use x="1273.328125" xlink:href="#DejaVuSans-32"/>
    <use x="1305.115234" xlink:href="#DejaVuSans-119"/>
    <use x="1386.902344" xlink:href="#DejaVuSans-97"/>
    <use x="1448.181641" xlink:href="#DejaVuSans-115"/>
    <use x="1500.28125" xlink:href="#DejaVuSans-32"/>
    <use x="1532.068359" xlink:href="#DejaVuSans-104"/>
    <use x="1595.447266" xlink:href="#DejaVuSans-111"/>
    <use x="1656.628906" xlink:href="#DejaVuSans-110"/>
    <use x="1720.007812" xlink:href="#DejaVuSans-101"/>
    <use x="1781.53125" xlink:href="#DejaVuSans-115"/>
    <use x="1833.630859" xlink:href="#DejaVuSans-116"/>
    <use x="1872.839844" xlink:href="#DejaVuSans-32"/>
    <use x="1904.626953" xlink:href="#DejaVuSans-119"/>
    <use x="1986.414062" xlink:href="#DejaVuSans-105"/>
    <use x="2014.197266" xlink:href="#DejaVuSans-116"/>
    <use x="2053.40625" xlink:href="#DejaVuSans-104"/>
    <use x="2116.785156" xlink:href="#DejaVuSans-32"/>
    <use x="2148.572266" xlink:href="#DejaVuSans-109"/>
    <use x="2245.984375" xlink:href="#DejaVuSans-101"/>
    <use x="2307.507812" xlink:href="#DejaVuSans-46"/>
   </g>
  </g>
 </g>
 <defs>
  <clipPath id="p655b933c88">
   <rect height="199.6" width="162.8625" x="43.78125" y="48.04"/>
  </clipPath>
  <clipPath id="pda5c61c7ef">
   <rect height="199.6" width="162.8625" x="254.44375" y="48.04"/>
  </clipPath>
 </defs>
</svg>
