<?xml version="1.0" encoding="utf-8" standalone="no"?>
<!DOCTYPE svg PUBLIC "-//W3C//DTD SVG 1.1//EN"
  "http://www.w3.org/Graphics/SVG/1.1/DTD/svg11.dtd">
<!-- Created with matplotlib (https://matplotlib.org/) -->
<svg height="285.19625pt" version="1.1" viewBox="0 0 424.465625 285.19625" width="424.465625pt" xmlns="http://www.w3.org/2000/svg" xmlns:xlink="http://www.w3.org/1999/xlink">
 <metadata>
  <rdf:RDF xmlns:cc="http://creativecommons.org/ns#" xmlns:dc="http://purl.org/dc/elements/1.1/" xmlns:rdf="http://www.w3.org/1999/02/22-rdf-syntax-ns#">
   <cc:Work>
    <dc:type rdf:resource="http://purl.org/dc/dcmitype/StillImage"/>
    <dc:date>2021-02-21T18:27:40.934893</dc:date>
    <dc:format>image/svg+xml</dc:format>
    <dc:creator>
     <cc:Agent>
      <dc:title>Matplotlib v3.3.2, https://matplotlib.org/</dc:title>
     </cc:Agent>
    </dc:creator>
   </cc:Work>
  </rdf:RDF>
 </metadata>
 <defs>
  <style type="text/css">*{stroke-linecap:butt;stroke-linejoin:round;}</style>
 </defs>
 <g id="figure_1">
  <g id="patch_1">
   <path d="M 0 285.19625 
L 424.465625 285.19625 
L 424.465625 0 
L 0 0 
z
" style="fill:none;"/>
  </g>
  <g id="axes_1">
   <g id="patch_2">
    <path d="M 34.240625 247.64 
L 206.665625 247.64 
L 206.665625 48.04 
L 34.240625 48.04 
z
" style="fill:#ffffff;"/>
   </g>
   <g id="PathCollection_1">
    <defs>
     <path d="M 0 3 
C 0.795609 3 1.55874 2.683901 2.12132 2.12132 
C 2.683901 1.55874 3 0.795609 3 0 
C 3 -0.795609 2.683901 -1.55874 2.12132 -2.12132 
C 1.55874 -2.683901 0.795609 -3 0 -3 
C -0.795609 -3 -1.55874 -2.683901 -2.12132 -2.12132 
C -2.683901 -1.55874 -3 -0.795609 -3 0 
C -3 0.795609 -2.683901 1.55874 -2.12132 2.12132 
C -1.55874 2.683901 -0.795609 3 0 3 
z
" id="mf04593f259" style="stroke:#1f77b4;stroke-opacity:0.8;"/>
    </defs>
    <g clip-path="url(#p54178e2090)">
     <use style="fill:#1f77b4;fill-opacity:0.8;stroke:#1f77b4;stroke-opacity:0.8;" x="140.348317" xlink:href="#mf04593f259" y="158.731657"/>
     <use style="fill:#1f77b4;fill-opacity:0.8;stroke:#1f77b4;stroke-opacity:0.8;" x="60.767548" xlink:href="#mf04593f259" y="105.507913"/>
     <use style="fill:#1f77b4;fill-opacity:0.8;stroke:#1f77b4;stroke-opacity:0.8;" x="74.03101" xlink:href="#mf04593f259" y="78.896041"/>
     <use style="fill:#1f77b4;fill-opacity:0.8;stroke:#1f77b4;stroke-opacity:0.8;" x="140.348317" xlink:href="#mf04593f259" y="78.896041"/>
     <use style="fill:#1f77b4;fill-opacity:0.8;stroke:#1f77b4;stroke-opacity:0.8;" x="166.87524" xlink:href="#mf04593f259" y="211.955401"/>
     <use style="fill:#1f77b4;fill-opacity:0.8;stroke:#1f77b4;stroke-opacity:0.8;" x="127.084856" xlink:href="#mf04593f259" y="105.507913"/>
     <use style="fill:#1f77b4;fill-opacity:0.8;stroke:#1f77b4;stroke-opacity:0.8;" x="180.138702" xlink:href="#mf04593f259" y="105.507913"/>
     <use style="fill:#1f77b4;fill-opacity:0.8;stroke:#1f77b4;stroke-opacity:0.8;" x="127.084856" xlink:href="#mf04593f259" y="132.119785"/>
     <use style="fill:#1f77b4;fill-opacity:0.8;stroke:#1f77b4;stroke-opacity:0.8;" x="74.03101" xlink:href="#mf04593f259" y="105.507913"/>
     <use style="fill:#1f77b4;fill-opacity:0.8;stroke:#1f77b4;stroke-opacity:0.8;" x="113.821394" xlink:href="#mf04593f259" y="132.119785"/>
     <use style="fill:#1f77b4;fill-opacity:0.8;stroke:#1f77b4;stroke-opacity:0.8;" x="113.821394" xlink:href="#mf04593f259" y="78.896041"/>
     <use style="fill:#1f77b4;fill-opacity:0.8;stroke:#1f77b4;stroke-opacity:0.8;" x="166.87524" xlink:href="#mf04593f259" y="78.896041"/>
     <use style="fill:#1f77b4;fill-opacity:0.8;stroke:#1f77b4;stroke-opacity:0.8;" x="87.294471" xlink:href="#mf04593f259" y="78.896041"/>
     <use style="fill:#1f77b4;fill-opacity:0.8;stroke:#1f77b4;stroke-opacity:0.8;" x="127.084856" xlink:href="#mf04593f259" y="105.507913"/>
     <use style="fill:#1f77b4;fill-opacity:0.8;stroke:#1f77b4;stroke-opacity:0.8;" x="127.084856" xlink:href="#mf04593f259" y="132.119785"/>
     <use style="fill:#1f77b4;fill-opacity:0.8;stroke:#1f77b4;stroke-opacity:0.8;" x="153.611779" xlink:href="#mf04593f259" y="105.507913"/>
     <use style="fill:#1f77b4;fill-opacity:0.8;stroke:#1f77b4;stroke-opacity:0.8;" x="113.821394" xlink:href="#mf04593f259" y="132.119785"/>
     <use style="fill:#1f77b4;fill-opacity:0.8;stroke:#1f77b4;stroke-opacity:0.8;" x="100.557933" xlink:href="#mf04593f259" y="78.896041"/>
     <use style="fill:#1f77b4;fill-opacity:0.8;stroke:#1f77b4;stroke-opacity:0.8;" x="153.611779" xlink:href="#mf04593f259" y="78.896041"/>
     <use style="fill:#1f77b4;fill-opacity:0.8;stroke:#1f77b4;stroke-opacity:0.8;" x="34.240625" xlink:href="#mf04593f259" y="238.567273"/>
     <use style="fill:#1f77b4;fill-opacity:0.8;stroke:#1f77b4;stroke-opacity:0.8;" x="87.294471" xlink:href="#mf04593f259" y="132.119785"/>
     <use style="fill:#1f77b4;fill-opacity:0.8;stroke:#1f77b4;stroke-opacity:0.8;" x="206.665625" xlink:href="#mf04593f259" y="78.896041"/>
     <use style="fill:#1f77b4;fill-opacity:0.8;stroke:#1f77b4;stroke-opacity:0.8;" x="113.821394" xlink:href="#mf04593f259" y="105.507913"/>
     <use style="fill:#1f77b4;fill-opacity:0.8;stroke:#1f77b4;stroke-opacity:0.8;" x="113.821394" xlink:href="#mf04593f259" y="105.507913"/>
     <use style="fill:#1f77b4;fill-opacity:0.8;stroke:#1f77b4;stroke-opacity:0.8;" x="113.821394" xlink:href="#mf04593f259" y="78.896041"/>
     <use style="fill:#1f77b4;fill-opacity:0.8;stroke:#1f77b4;stroke-opacity:0.8;" x="113.821394" xlink:href="#mf04593f259" y="132.119785"/>
     <use style="fill:#1f77b4;fill-opacity:0.8;stroke:#1f77b4;stroke-opacity:0.8;" x="100.557933" xlink:href="#mf04593f259" y="78.896041"/>
     <use style="fill:#1f77b4;fill-opacity:0.8;stroke:#1f77b4;stroke-opacity:0.8;" x="87.294471" xlink:href="#mf04593f259" y="132.119785"/>
     <use style="fill:#1f77b4;fill-opacity:0.8;stroke:#1f77b4;stroke-opacity:0.8;" x="100.557933" xlink:href="#mf04593f259" y="105.507913"/>
     <use style="fill:#1f77b4;fill-opacity:0.8;stroke:#1f77b4;stroke-opacity:0.8;" x="113.821394" xlink:href="#mf04593f259" y="105.507913"/>
     <use style="fill:#1f77b4;fill-opacity:0.8;stroke:#1f77b4;stroke-opacity:0.8;" x="113.821394" xlink:href="#mf04593f259" y="132.119785"/>
     <use style="fill:#1f77b4;fill-opacity:0.8;stroke:#1f77b4;stroke-opacity:0.8;" x="87.294471" xlink:href="#mf04593f259" y="78.896041"/>
     <use style="fill:#1f77b4;fill-opacity:0.8;stroke:#1f77b4;stroke-opacity:0.8;" x="127.084856" xlink:href="#mf04593f259" y="105.507913"/>
     <use style="fill:#1f77b4;fill-opacity:0.8;stroke:#1f77b4;stroke-opacity:0.8;" x="127.084856" xlink:href="#mf04593f259" y="132.119785"/>
     <use style="fill:#1f77b4;fill-opacity:0.8;stroke:#1f77b4;stroke-opacity:0.8;" x="100.557933" xlink:href="#mf04593f259" y="132.119785"/>
     <use style="fill:#1f77b4;fill-opacity:0.8;stroke:#1f77b4;stroke-opacity:0.8;" x="100.557933" xlink:href="#mf04593f259" y="132.119785"/>
     <use style="fill:#1f77b4;fill-opacity:0.8;stroke:#1f77b4;stroke-opacity:0.8;" x="87.294471" xlink:href="#mf04593f259" y="132.119785"/>
     <use style="fill:#1f77b4;fill-opacity:0.8;stroke:#1f77b4;stroke-opacity:0.8;" x="113.821394" xlink:href="#mf04593f259" y="105.507913"/>
     <use style="fill:#1f77b4;fill-opacity:0.8;stroke:#1f77b4;stroke-opacity:0.8;" x="100.557933" xlink:href="#mf04593f259" y="105.507913"/>
     <use style="fill:#1f77b4;fill-opacity:0.8;stroke:#1f77b4;stroke-opacity:0.8;" x="87.294471" xlink:href="#mf04593f259" y="132.119785"/>
     <use style="fill:#1f77b4;fill-opacity:0.8;stroke:#1f77b4;stroke-opacity:0.8;" x="47.504087" xlink:href="#mf04593f259" y="78.896041"/>
    </g>
   </g>
   <g id="PolyCollection_1">
    <path clip-path="url(#p54178e2090)" d="M 34.240625 80.39318 
L 34.240625 162.688101 
L 35.982292 161.653867 
L 37.723958 160.622493 
L 39.465625 159.771214 
L 41.207292 158.878457 
L 42.948958 157.960697 
L 44.690625 156.91641 
L 46.432292 155.870208 
L 48.173958 154.824007 
L 49.915625 153.777806 
L 51.657292 152.838979 
L 53.398958 151.870451 
L 55.140625 150.902419 
L 56.882292 149.9888 
L 58.623958 149.068065 
L 60.365625 148.045082 
L 62.107292 147.235329 
L 63.848958 146.178564 
L 65.590625 145.191047 
L 67.332292 144.441109 
L 69.073958 143.37823 
L 70.815625 142.315352 
L 72.557292 141.252474 
L 74.298958 140.19394 
L 76.040625 139.343176 
L 77.782292 138.492411 
L 79.523958 137.641647 
L 81.265625 136.790882 
L 83.007292 135.940118 
L 84.748958 135.241611 
L 86.490625 134.237454 
L 88.232292 133.501797 
L 89.973958 132.585001 
L 91.715625 131.599456 
L 93.457292 130.818933 
L 95.198958 129.84159 
L 96.940625 129.191273 
L 98.682292 128.457105 
L 100.423958 127.758312 
L 102.165625 127.022736 
L 103.907292 126.550662 
L 105.648958 125.830944 
L 107.390625 125.410526 
L 109.132292 124.970997 
L 110.873958 124.355889 
L 112.615625 123.667648 
L 114.357292 123.297129 
L 116.098958 122.969853 
L 117.840625 122.897635 
L 119.582292 123.245227 
L 121.323958 123.190482 
L 123.065625 123.368927 
L 124.807292 123.840542 
L 126.548958 123.975364 
L 128.290625 124.015076 
L 130.032292 124.196441 
L 131.773958 124.564795 
L 133.515625 124.640693 
L 135.257292 125.097447 
L 136.998958 125.554201 
L 138.740625 126.258294 
L 140.482292 126.856994 
L 142.223958 127.415321 
L 143.965625 128.381644 
L 145.707292 129.429589 
L 147.448958 130.465925 
L 149.190625 130.898839 
L 150.932292 131.624889 
L 152.673958 132.610557 
L 154.415625 133.59514 
L 156.157292 134.532871 
L 157.898958 135.182092 
L 159.640625 135.828382 
L 161.382292 136.467817 
L 163.123958 137.265773 
L 164.865625 138.211995 
L 166.607292 138.866194 
L 168.348958 139.477005 
L 170.090625 140.087816 
L 171.832292 140.698626 
L 173.573958 141.309437 
L 175.315625 141.920247 
L 177.057292 142.52606 
L 178.798958 143.131247 
L 180.540625 143.736433 
L 182.282292 144.341619 
L 184.023958 144.946805 
L 185.765625 145.551991 
L 187.507292 146.157177 
L 189.248958 146.77684 
L 190.990625 147.419478 
L 192.732292 148.062115 
L 194.473958 148.704752 
L 196.215625 149.347389 
L 197.957292 149.990026 
L 199.698958 150.632664 
L 201.440625 151.275301 
L 203.182292 151.917938 
L 204.923958 152.560575 
L 206.665625 153.203212 
L 206.665625 57.112727 
L 206.665625 57.112727 
L 204.923958 58.110806 
L 203.182292 59.108884 
L 201.440625 60.106962 
L 199.698958 61.105041 
L 197.957292 62.103119 
L 196.215625 63.134248 
L 194.473958 64.092106 
L 192.732292 65.084289 
L 190.990625 66.076472 
L 189.248958 67.068654 
L 187.507292 68.060837 
L 185.765625 69.05448 
L 184.023958 70.05115 
L 182.282292 71.047821 
L 180.540625 72.046002 
L 178.798958 73.139334 
L 177.057292 74.434131 
L 175.315625 75.391731 
L 173.573958 76.274774 
L 171.832292 77.158712 
L 170.090625 78.219961 
L 168.348958 79.436756 
L 166.607292 80.551468 
L 164.865625 81.599842 
L 163.123958 82.511097 
L 161.382292 83.425405 
L 159.640625 84.329377 
L 157.898958 85.532578 
L 156.157292 86.740537 
L 154.415625 87.877382 
L 152.673958 88.887517 
L 150.932292 90.022077 
L 149.190625 91.093351 
L 147.448958 92.112203 
L 145.707292 92.951495 
L 143.965625 93.694089 
L 142.223958 94.495092 
L 140.482292 95.269843 
L 138.740625 96.068795 
L 136.998958 96.929855 
L 135.257292 97.630956 
L 133.515625 98.104023 
L 131.773958 98.855568 
L 130.032292 99.612146 
L 128.290625 100.084491 
L 126.548958 100.666927 
L 124.807292 101.32926 
L 123.065625 101.805892 
L 121.323958 102.219249 
L 119.582292 102.608652 
L 117.840625 102.98181 
L 116.098958 103.331988 
L 114.357292 103.714906 
L 112.615625 103.813664 
L 110.873958 103.807658 
L 109.132292 103.779406 
L 107.390625 104.07752 
L 105.648958 104.030713 
L 103.907292 103.779318 
L 102.165625 103.661969 
L 100.423958 103.340495 
L 98.682292 103.065312 
L 96.940625 102.618528 
L 95.198958 102.090398 
L 93.457292 101.809641 
L 91.715625 101.188548 
L 89.973958 100.751488 
L 88.232292 100.364638 
L 86.490625 99.967852 
L 84.748958 99.349542 
L 83.007292 98.657856 
L 81.265625 98.025529 
L 79.523958 97.488728 
L 77.782292 96.933255 
L 76.040625 96.363592 
L 74.298958 95.66212 
L 72.557292 95.034399 
L 70.815625 94.366997 
L 69.073958 93.299848 
L 67.332292 92.224962 
L 65.590625 91.50217 
L 63.848958 90.549501 
L 62.107292 90.023985 
L 60.365625 89.634355 
L 58.623958 89.244725 
L 56.882292 88.508763 
L 55.140625 87.640852 
L 53.398958 87.069856 
L 51.657292 86.453954 
L 49.915625 85.723824 
L 48.173958 85.000774 
L 46.432292 84.283023 
L 44.690625 83.565273 
L 42.948958 82.884575 
L 41.207292 82.447411 
L 39.465625 82.010247 
L 37.723958 81.573084 
L 35.982292 81.090598 
L 34.240625 80.39318 
z
" style="fill:#1f77b4;fill-opacity:0.15;"/>
   </g>
   <g id="matplotlib.axis_1">
    <g id="xtick_1">
     <g id="line2d_1">
      <defs>
       <path d="M 0 0 
L 0 3.5 
" id="mdd88a330f9" style="stroke:#000000;stroke-width:0.8;"/>
      </defs>
      <g>
       <use style="stroke:#000000;stroke-width:0.8;" x="60.767548" xlink:href="#mdd88a330f9" y="247.64"/>
      </g>
     </g>
     <g id="text_1">
      <!-- 2 -->
      <g transform="translate(57.586298 262.238437)scale(0.1 -0.1)">
       <defs>
        <path d="M 19.1875 8.296875 
L 53.609375 8.296875 
L 53.609375 0 
L 7.328125 0 
L 7.328125 8.296875 
Q 12.9375 14.109375 22.625 23.890625 
Q 32.328125 33.6875 34.8125 36.53125 
Q 39.546875 41.84375 41.421875 45.53125 
Q 43.3125 49.21875 43.3125 52.78125 
Q 43.3125 58.59375 39.234375 62.25 
Q 35.15625 65.921875 28.609375 65.921875 
Q 23.96875 65.921875 18.8125 64.3125 
Q 13.671875 62.703125 7.8125 59.421875 
L 7.8125 69.390625 
Q 13.765625 71.78125 18.9375 73 
Q 24.125 74.21875 28.421875 74.21875 
Q 39.75 74.21875 46.484375 68.546875 
Q 53.21875 62.890625 53.21875 53.421875 
Q 53.21875 48.921875 51.53125 44.890625 
Q 49.859375 40.875 45.40625 35.40625 
Q 44.1875 33.984375 37.640625 27.21875 
Q 31.109375 20.453125 19.1875 8.296875 
z
" id="DejaVuSans-50"/>
       </defs>
       <use xlink:href="#DejaVuSans-50"/>
      </g>
     </g>
    </g>
    <g id="xtick_2">
     <g id="line2d_2">
      <g>
       <use style="stroke:#000000;stroke-width:0.8;" x="113.821394" xlink:href="#mdd88a330f9" y="247.64"/>
      </g>
     </g>
     <g id="text_2">
      <!-- 3 -->
      <g transform="translate(110.640144 262.238437)scale(0.1 -0.1)">
       <defs>
        <path d="M 40.578125 39.3125 
Q 47.65625 37.796875 51.625 33 
Q 55.609375 28.21875 55.609375 21.1875 
Q 55.609375 10.40625 48.1875 4.484375 
Q 40.765625 -1.421875 27.09375 -1.421875 
Q 22.515625 -1.421875 17.65625 -0.515625 
Q 12.796875 0.390625 7.625 2.203125 
L 7.625 11.71875 
Q 11.71875 9.328125 16.59375 8.109375 
Q 21.484375 6.890625 26.8125 6.890625 
Q 36.078125 6.890625 40.9375 10.546875 
Q 45.796875 14.203125 45.796875 21.1875 
Q 45.796875 27.640625 41.28125 31.265625 
Q 36.765625 34.90625 28.71875 34.90625 
L 20.21875 34.90625 
L 20.21875 43.015625 
L 29.109375 43.015625 
Q 36.375 43.015625 40.234375 45.921875 
Q 44.09375 48.828125 44.09375 54.296875 
Q 44.09375 59.90625 40.109375 62.90625 
Q 36.140625 65.921875 28.71875 65.921875 
Q 24.65625 65.921875 20.015625 65.03125 
Q 15.375 64.15625 9.8125 62.3125 
L 9.8125 71.09375 
Q 15.4375 72.65625 20.34375 73.4375 
Q 25.25 74.21875 29.59375 74.21875 
Q 40.828125 74.21875 47.359375 69.109375 
Q 53.90625 64.015625 53.90625 55.328125 
Q 53.90625 49.265625 50.4375 45.09375 
Q 46.96875 40.921875 40.578125 39.3125 
z
" id="DejaVuSans-51"/>
       </defs>
       <use xlink:href="#DejaVuSans-51"/>
      </g>
     </g>
    </g>
    <g id="xtick_3">
     <g id="line2d_3">
      <g>
       <use style="stroke:#000000;stroke-width:0.8;" x="166.87524" xlink:href="#mdd88a330f9" y="247.64"/>
      </g>
     </g>
     <g id="text_3">
      <!-- 4 -->
      <g transform="translate(163.69399 262.238437)scale(0.1 -0.1)">
       <defs>
        <path d="M 37.796875 64.3125 
L 12.890625 25.390625 
L 37.796875 25.390625 
z
M 35.203125 72.90625 
L 47.609375 72.90625 
L 47.609375 25.390625 
L 58.015625 25.390625 
L 58.015625 17.1875 
L 47.609375 17.1875 
L 47.609375 0 
L 37.796875 0 
L 37.796875 17.1875 
L 4.890625 17.1875 
L 4.890625 26.703125 
z
" id="DejaVuSans-52"/>
       </defs>
       <use xlink:href="#DejaVuSans-52"/>
      </g>
     </g>
    </g>
    <g id="text_4">
     <!-- E -->
     <g transform="translate(117.29375 275.916562)scale(0.1 -0.1)">
      <defs>
       <path d="M 9.8125 72.90625 
L 55.90625 72.90625 
L 55.90625 64.59375 
L 19.671875 64.59375 
L 19.671875 43.015625 
L 54.390625 43.015625 
L 54.390625 34.71875 
L 19.671875 34.71875 
L 19.671875 8.296875 
L 56.78125 8.296875 
L 56.78125 0 
L 9.8125 0 
z
" id="DejaVuSans-69"/>
      </defs>
      <use xlink:href="#DejaVuSans-69"/>
     </g>
    </g>
   </g>
   <g id="matplotlib.axis_2">
    <g id="ytick_1">
     <g id="line2d_4">
      <defs>
       <path d="M 0 0 
L -3.5 0 
" id="m7f243eef84" style="stroke:#000000;stroke-width:0.8;"/>
      </defs>
      <g>
       <use style="stroke:#000000;stroke-width:0.8;" x="34.240625" xlink:href="#m7f243eef84" y="238.567273"/>
      </g>
     </g>
     <g id="text_5">
      <!-- 1 -->
      <g transform="translate(20.878125 242.366491)scale(0.1 -0.1)">
       <defs>
        <path d="M 12.40625 8.296875 
L 28.515625 8.296875 
L 28.515625 63.921875 
L 10.984375 60.40625 
L 10.984375 69.390625 
L 28.421875 72.90625 
L 38.28125 72.90625 
L 38.28125 8.296875 
L 54.390625 8.296875 
L 54.390625 0 
L 12.40625 0 
z
" id="DejaVuSans-49"/>
       </defs>
       <use xlink:href="#DejaVuSans-49"/>
      </g>
     </g>
    </g>
    <g id="ytick_2">
     <g id="line2d_5">
      <g>
       <use style="stroke:#000000;stroke-width:0.8;" x="34.240625" xlink:href="#m7f243eef84" y="211.955401"/>
      </g>
     </g>
     <g id="text_6">
      <!-- 2 -->
      <g transform="translate(20.878125 215.754619)scale(0.1 -0.1)">
       <use xlink:href="#DejaVuSans-50"/>
      </g>
     </g>
    </g>
    <g id="ytick_3">
     <g id="line2d_6">
      <g>
       <use style="stroke:#000000;stroke-width:0.8;" x="34.240625" xlink:href="#m7f243eef84" y="185.343529"/>
      </g>
     </g>
     <g id="text_7">
      <!-- 3 -->
      <g transform="translate(20.878125 189.142747)scale(0.1 -0.1)">
       <use xlink:href="#DejaVuSans-51"/>
      </g>
     </g>
    </g>
    <g id="ytick_4">
     <g id="line2d_7">
      <g>
       <use style="stroke:#000000;stroke-width:0.8;" x="34.240625" xlink:href="#m7f243eef84" y="158.731657"/>
      </g>
     </g>
     <g id="text_8">
      <!-- 4 -->
      <g transform="translate(20.878125 162.530875)scale(0.1 -0.1)">
       <use xlink:href="#DejaVuSans-52"/>
      </g>
     </g>
    </g>
    <g id="ytick_5">
     <g id="line2d_8">
      <g>
       <use style="stroke:#000000;stroke-width:0.8;" x="34.240625" xlink:href="#m7f243eef84" y="132.119785"/>
      </g>
     </g>
     <g id="text_9">
      <!-- 5 -->
      <g transform="translate(20.878125 135.919003)scale(0.1 -0.1)">
       <defs>
        <path d="M 10.796875 72.90625 
L 49.515625 72.90625 
L 49.515625 64.59375 
L 19.828125 64.59375 
L 19.828125 46.734375 
Q 21.96875 47.46875 24.109375 47.828125 
Q 26.265625 48.1875 28.421875 48.1875 
Q 40.625 48.1875 47.75 41.5 
Q 54.890625 34.8125 54.890625 23.390625 
Q 54.890625 11.625 47.5625 5.09375 
Q 40.234375 -1.421875 26.90625 -1.421875 
Q 22.3125 -1.421875 17.546875 -0.640625 
Q 12.796875 0.140625 7.71875 1.703125 
L 7.71875 11.625 
Q 12.109375 9.234375 16.796875 8.0625 
Q 21.484375 6.890625 26.703125 6.890625 
Q 35.15625 6.890625 40.078125 11.328125 
Q 45.015625 15.765625 45.015625 23.390625 
Q 45.015625 31 40.078125 35.4375 
Q 35.15625 39.890625 26.703125 39.890625 
Q 22.75 39.890625 18.8125 39.015625 
Q 14.890625 38.140625 10.796875 36.28125 
z
" id="DejaVuSans-53"/>
       </defs>
       <use xlink:href="#DejaVuSans-53"/>
      </g>
     </g>
    </g>
    <g id="ytick_6">
     <g id="line2d_9">
      <g>
       <use style="stroke:#000000;stroke-width:0.8;" x="34.240625" xlink:href="#m7f243eef84" y="105.507913"/>
      </g>
     </g>
     <g id="text_10">
      <!-- 6 -->
      <g transform="translate(20.878125 109.307131)scale(0.1 -0.1)">
       <defs>
        <path d="M 33.015625 40.375 
Q 26.375 40.375 22.484375 35.828125 
Q 18.609375 31.296875 18.609375 23.390625 
Q 18.609375 15.53125 22.484375 10.953125 
Q 26.375 6.390625 33.015625 6.390625 
Q 39.65625 6.390625 43.53125 10.953125 
Q 47.40625 15.53125 47.40625 23.390625 
Q 47.40625 31.296875 43.53125 35.828125 
Q 39.65625 40.375 33.015625 40.375 
z
M 52.59375 71.296875 
L 52.59375 62.3125 
Q 48.875 64.0625 45.09375 64.984375 
Q 41.3125 65.921875 37.59375 65.921875 
Q 27.828125 65.921875 22.671875 59.328125 
Q 17.53125 52.734375 16.796875 39.40625 
Q 19.671875 43.65625 24.015625 45.921875 
Q 28.375 48.1875 33.59375 48.1875 
Q 44.578125 48.1875 50.953125 41.515625 
Q 57.328125 34.859375 57.328125 23.390625 
Q 57.328125 12.15625 50.6875 5.359375 
Q 44.046875 -1.421875 33.015625 -1.421875 
Q 20.359375 -1.421875 13.671875 8.265625 
Q 6.984375 17.96875 6.984375 36.375 
Q 6.984375 53.65625 15.1875 63.9375 
Q 23.390625 74.21875 37.203125 74.21875 
Q 40.921875 74.21875 44.703125 73.484375 
Q 48.484375 72.75 52.59375 71.296875 
z
" id="DejaVuSans-54"/>
       </defs>
       <use xlink:href="#DejaVuSans-54"/>
      </g>
     </g>
    </g>
    <g id="ytick_7">
     <g id="line2d_10">
      <g>
       <use style="stroke:#000000;stroke-width:0.8;" x="34.240625" xlink:href="#m7f243eef84" y="78.896041"/>
      </g>
     </g>
     <g id="text_11">
      <!-- 7 -->
      <g transform="translate(20.878125 82.695259)scale(0.1 -0.1)">
       <defs>
        <path d="M 8.203125 72.90625 
L 55.078125 72.90625 
L 55.078125 68.703125 
L 28.609375 0 
L 18.3125 0 
L 43.21875 64.59375 
L 8.203125 64.59375 
z
" id="DejaVuSans-55"/>
       </defs>
       <use xlink:href="#DejaVuSans-55"/>
      </g>
     </g>
    </g>
    <g id="ytick_8">
     <g id="line2d_11">
      <g>
       <use style="stroke:#000000;stroke-width:0.8;" x="34.240625" xlink:href="#m7f243eef84" y="52.284169"/>
      </g>
     </g>
     <g id="text_12">
      <!-- 8 -->
      <g transform="translate(20.878125 56.083387)scale(0.1 -0.1)">
       <defs>
        <path d="M 31.78125 34.625 
Q 24.75 34.625 20.71875 30.859375 
Q 16.703125 27.09375 16.703125 20.515625 
Q 16.703125 13.921875 20.71875 10.15625 
Q 24.75 6.390625 31.78125 6.390625 
Q 38.8125 6.390625 42.859375 10.171875 
Q 46.921875 13.96875 46.921875 20.515625 
Q 46.921875 27.09375 42.890625 30.859375 
Q 38.875 34.625 31.78125 34.625 
z
M 21.921875 38.8125 
Q 15.578125 40.375 12.03125 44.71875 
Q 8.5 49.078125 8.5 55.328125 
Q 8.5 64.0625 14.71875 69.140625 
Q 20.953125 74.21875 31.78125 74.21875 
Q 42.671875 74.21875 48.875 69.140625 
Q 55.078125 64.0625 55.078125 55.328125 
Q 55.078125 49.078125 51.53125 44.71875 
Q 48 40.375 41.703125 38.8125 
Q 48.828125 37.15625 52.796875 32.3125 
Q 56.78125 27.484375 56.78125 20.515625 
Q 56.78125 9.90625 50.3125 4.234375 
Q 43.84375 -1.421875 31.78125 -1.421875 
Q 19.734375 -1.421875 13.25 4.234375 
Q 6.78125 9.90625 6.78125 20.515625 
Q 6.78125 27.484375 10.78125 32.3125 
Q 14.796875 37.15625 21.921875 38.8125 
z
M 18.3125 54.390625 
Q 18.3125 48.734375 21.84375 45.5625 
Q 25.390625 42.390625 31.78125 42.390625 
Q 38.140625 42.390625 41.71875 45.5625 
Q 45.3125 48.734375 45.3125 54.390625 
Q 45.3125 60.0625 41.71875 63.234375 
Q 38.140625 66.40625 31.78125 66.40625 
Q 25.390625 66.40625 21.84375 63.234375 
Q 18.3125 60.0625 18.3125 54.390625 
z
" id="DejaVuSans-56"/>
       </defs>
       <use xlink:href="#DejaVuSans-56"/>
      </g>
     </g>
    </g>
    <g id="text_13">
     <!-- Offering3 -->
     <g transform="translate(14.798438 171.341562)rotate(-90)scale(0.1 -0.1)">
      <defs>
       <path d="M 39.40625 66.21875 
Q 28.65625 66.21875 22.328125 58.203125 
Q 16.015625 50.203125 16.015625 36.375 
Q 16.015625 22.609375 22.328125 14.59375 
Q 28.65625 6.59375 39.40625 6.59375 
Q 50.140625 6.59375 56.421875 14.59375 
Q 62.703125 22.609375 62.703125 36.375 
Q 62.703125 50.203125 56.421875 58.203125 
Q 50.140625 66.21875 39.40625 66.21875 
z
M 39.40625 74.21875 
Q 54.734375 74.21875 63.90625 63.9375 
Q 73.09375 53.65625 73.09375 36.375 
Q 73.09375 19.140625 63.90625 8.859375 
Q 54.734375 -1.421875 39.40625 -1.421875 
Q 24.03125 -1.421875 14.8125 8.828125 
Q 5.609375 19.09375 5.609375 36.375 
Q 5.609375 53.65625 14.8125 63.9375 
Q 24.03125 74.21875 39.40625 74.21875 
z
" id="DejaVuSans-79"/>
       <path d="M 37.109375 75.984375 
L 37.109375 68.5 
L 28.515625 68.5 
Q 23.6875 68.5 21.796875 66.546875 
Q 19.921875 64.59375 19.921875 59.515625 
L 19.921875 54.6875 
L 34.71875 54.6875 
L 34.71875 47.703125 
L 19.921875 47.703125 
L 19.921875 0 
L 10.890625 0 
L 10.890625 47.703125 
L 2.296875 47.703125 
L 2.296875 54.6875 
L 10.890625 54.6875 
L 10.890625 58.5 
Q 10.890625 67.625 15.140625 71.796875 
Q 19.390625 75.984375 28.609375 75.984375 
z
" id="DejaVuSans-102"/>
       <path d="M 56.203125 29.59375 
L 56.203125 25.203125 
L 14.890625 25.203125 
Q 15.484375 15.921875 20.484375 11.0625 
Q 25.484375 6.203125 34.421875 6.203125 
Q 39.59375 6.203125 44.453125 7.46875 
Q 49.3125 8.734375 54.109375 11.28125 
L 54.109375 2.78125 
Q 49.265625 0.734375 44.1875 -0.34375 
Q 39.109375 -1.421875 33.890625 -1.421875 
Q 20.796875 -1.421875 13.15625 6.1875 
Q 5.515625 13.8125 5.515625 26.8125 
Q 5.515625 40.234375 12.765625 48.109375 
Q 20.015625 56 32.328125 56 
Q 43.359375 56 49.78125 48.890625 
Q 56.203125 41.796875 56.203125 29.59375 
z
M 47.21875 32.234375 
Q 47.125 39.59375 43.09375 43.984375 
Q 39.0625 48.390625 32.421875 48.390625 
Q 24.90625 48.390625 20.390625 44.140625 
Q 15.875 39.890625 15.1875 32.171875 
z
" id="DejaVuSans-101"/>
       <path d="M 41.109375 46.296875 
Q 39.59375 47.171875 37.8125 47.578125 
Q 36.03125 48 33.890625 48 
Q 26.265625 48 22.1875 43.046875 
Q 18.109375 38.09375 18.109375 28.8125 
L 18.109375 0 
L 9.078125 0 
L 9.078125 54.6875 
L 18.109375 54.6875 
L 18.109375 46.1875 
Q 20.953125 51.171875 25.484375 53.578125 
Q 30.03125 56 36.53125 56 
Q 37.453125 56 38.578125 55.875 
Q 39.703125 55.765625 41.0625 55.515625 
z
" id="DejaVuSans-114"/>
       <path d="M 9.421875 54.6875 
L 18.40625 54.6875 
L 18.40625 0 
L 9.421875 0 
z
M 9.421875 75.984375 
L 18.40625 75.984375 
L 18.40625 64.59375 
L 9.421875 64.59375 
z
" id="DejaVuSans-105"/>
       <path d="M 54.890625 33.015625 
L 54.890625 0 
L 45.90625 0 
L 45.90625 32.71875 
Q 45.90625 40.484375 42.875 44.328125 
Q 39.84375 48.1875 33.796875 48.1875 
Q 26.515625 48.1875 22.3125 43.546875 
Q 18.109375 38.921875 18.109375 30.90625 
L 18.109375 0 
L 9.078125 0 
L 9.078125 54.6875 
L 18.109375 54.6875 
L 18.109375 46.1875 
Q 21.34375 51.125 25.703125 53.5625 
Q 30.078125 56 35.796875 56 
Q 45.21875 56 50.046875 50.171875 
Q 54.890625 44.34375 54.890625 33.015625 
z
" id="DejaVuSans-110"/>
       <path d="M 45.40625 27.984375 
Q 45.40625 37.75 41.375 43.109375 
Q 37.359375 48.484375 30.078125 48.484375 
Q 22.859375 48.484375 18.828125 43.109375 
Q 14.796875 37.75 14.796875 27.984375 
Q 14.796875 18.265625 18.828125 12.890625 
Q 22.859375 7.515625 30.078125 7.515625 
Q 37.359375 7.515625 41.375 12.890625 
Q 45.40625 18.265625 45.40625 27.984375 
z
M 54.390625 6.78125 
Q 54.390625 -7.171875 48.1875 -13.984375 
Q 42 -20.796875 29.203125 -20.796875 
Q 24.46875 -20.796875 20.265625 -20.09375 
Q 16.0625 -19.390625 12.109375 -17.921875 
L 12.109375 -9.1875 
Q 16.0625 -11.328125 19.921875 -12.34375 
Q 23.78125 -13.375 27.78125 -13.375 
Q 36.625 -13.375 41.015625 -8.765625 
Q 45.40625 -4.15625 45.40625 5.171875 
L 45.40625 9.625 
Q 42.625 4.78125 38.28125 2.390625 
Q 33.9375 0 27.875 0 
Q 17.828125 0 11.671875 7.65625 
Q 5.515625 15.328125 5.515625 27.984375 
Q 5.515625 40.671875 11.671875 48.328125 
Q 17.828125 56 27.875 56 
Q 33.9375 56 38.28125 53.609375 
Q 42.625 51.21875 45.40625 46.390625 
L 45.40625 54.6875 
L 54.390625 54.6875 
z
" id="DejaVuSans-103"/>
      </defs>
      <use xlink:href="#DejaVuSans-79"/>
      <use x="78.710938" xlink:href="#DejaVuSans-102"/>
      <use x="113.916016" xlink:href="#DejaVuSans-102"/>
      <use x="149.121094" xlink:href="#DejaVuSans-101"/>
      <use x="210.644531" xlink:href="#DejaVuSans-114"/>
      <use x="251.757812" xlink:href="#DejaVuSans-105"/>
      <use x="279.541016" xlink:href="#DejaVuSans-110"/>
      <use x="342.919922" xlink:href="#DejaVuSans-103"/>
      <use x="406.396484" xlink:href="#DejaVuSans-51"/>
     </g>
    </g>
   </g>
   <g id="line2d_12">
    <path clip-path="url(#p54178e2090)" d="M 34.240625 124.173767 
L 35.982292 123.932779 
L 37.723958 123.691791 
L 39.465625 123.450803 
L 41.207292 123.209815 
L 42.948958 122.968827 
L 44.690625 122.727839 
L 46.432292 122.486851 
L 48.173958 122.245863 
L 49.915625 122.004875 
L 51.657292 121.763887 
L 53.398958 121.522899 
L 55.140625 121.281911 
L 56.882292 121.040923 
L 58.623958 120.799935 
L 60.365625 120.558947 
L 62.107292 120.317959 
L 63.848958 120.076971 
L 65.590625 119.835983 
L 67.332292 119.594995 
L 69.073958 119.354007 
L 70.815625 119.113019 
L 72.557292 118.872031 
L 74.298958 118.631043 
L 76.040625 118.390055 
L 77.782292 118.149067 
L 79.523958 117.908079 
L 81.265625 117.667091 
L 83.007292 117.426103 
L 84.748958 117.185115 
L 86.490625 116.944127 
L 88.232292 116.703139 
L 89.973958 116.462151 
L 91.715625 116.221163 
L 93.457292 115.980175 
L 95.198958 115.739187 
L 96.940625 115.498199 
L 98.682292 115.257211 
L 100.423958 115.016223 
L 102.165625 114.775235 
L 103.907292 114.534247 
L 105.648958 114.293259 
L 107.390625 114.052271 
L 109.132292 113.811283 
L 110.873958 113.570295 
L 112.615625 113.329307 
L 114.357292 113.088319 
L 116.098958 112.847331 
L 117.840625 112.606343 
L 119.582292 112.365355 
L 121.323958 112.124367 
L 123.065625 111.883379 
L 124.807292 111.642391 
L 126.548958 111.401403 
L 128.290625 111.160415 
L 130.032292 110.919427 
L 131.773958 110.678439 
L 133.515625 110.437451 
L 135.257292 110.196463 
L 136.998958 109.955475 
L 138.740625 109.714487 
L 140.482292 109.473499 
L 142.223958 109.232511 
L 143.965625 108.991523 
L 145.707292 108.750535 
L 147.448958 108.509547 
L 149.190625 108.268559 
L 150.932292 108.027571 
L 152.673958 107.786583 
L 154.415625 107.545595 
L 156.157292 107.304607 
L 157.898958 107.063619 
L 159.640625 106.822631 
L 161.382292 106.581643 
L 163.123958 106.340655 
L 164.865625 106.099667 
L 166.607292 105.858679 
L 168.348958 105.617691 
L 170.090625 105.376703 
L 171.832292 105.135715 
L 173.573958 104.894727 
L 175.315625 104.653739 
L 177.057292 104.412751 
L 178.798958 104.171763 
L 180.540625 103.930775 
L 182.282292 103.689787 
L 184.023958 103.448799 
L 185.765625 103.207811 
L 187.507292 102.966823 
L 189.248958 102.725835 
L 190.990625 102.484847 
L 192.732292 102.243859 
L 194.473958 102.002871 
L 196.215625 101.761883 
L 197.957292 101.520895 
L 199.698958 101.279907 
L 201.440625 101.038919 
L 203.182292 100.797931 
L 204.923958 100.556943 
L 206.665625 100.315955 
" style="fill:none;stroke:#1f77b4;stroke-linecap:square;stroke-width:2.25;"/>
   </g>
   <g id="patch_3">
    <path d="M 34.240625 247.64 
L 34.240625 48.04 
" style="fill:none;stroke:#000000;stroke-linecap:square;stroke-linejoin:miter;stroke-width:0.8;"/>
   </g>
   <g id="patch_4">
    <path d="M 206.665625 247.64 
L 206.665625 48.04 
" style="fill:none;stroke:#000000;stroke-linecap:square;stroke-linejoin:miter;stroke-width:0.8;"/>
   </g>
   <g id="patch_5">
    <path d="M 34.240625 247.64 
L 206.665625 247.64 
" style="fill:none;stroke:#000000;stroke-linecap:square;stroke-linejoin:miter;stroke-width:0.8;"/>
   </g>
   <g id="patch_6">
    <path d="M 34.240625 48.04 
L 206.665625 48.04 
" style="fill:none;stroke:#000000;stroke-linecap:square;stroke-linejoin:miter;stroke-width:0.8;"/>
   </g>
   <g id="text_14">
    <!-- Group A -->
    <g transform="translate(34.240625 42.04)scale(0.12 -0.12)">
     <defs>
      <path d="M 59.515625 10.40625 
L 59.515625 29.984375 
L 43.40625 29.984375 
L 43.40625 38.09375 
L 69.28125 38.09375 
L 69.28125 6.78125 
Q 63.578125 2.734375 56.6875 0.65625 
Q 49.8125 -1.421875 42 -1.421875 
Q 24.90625 -1.421875 15.25 8.5625 
Q 5.609375 18.5625 5.609375 36.375 
Q 5.609375 54.25 15.25 64.234375 
Q 24.90625 74.21875 42 74.21875 
Q 49.125 74.21875 55.546875 72.453125 
Q 61.96875 70.703125 67.390625 67.28125 
L 67.390625 56.78125 
Q 61.921875 61.421875 55.765625 63.765625 
Q 49.609375 66.109375 42.828125 66.109375 
Q 29.4375 66.109375 22.71875 58.640625 
Q 16.015625 51.171875 16.015625 36.375 
Q 16.015625 21.625 22.71875 14.15625 
Q 29.4375 6.6875 42.828125 6.6875 
Q 48.046875 6.6875 52.140625 7.59375 
Q 56.25 8.5 59.515625 10.40625 
z
" id="DejaVuSans-71"/>
      <path d="M 30.609375 48.390625 
Q 23.390625 48.390625 19.1875 42.75 
Q 14.984375 37.109375 14.984375 27.296875 
Q 14.984375 17.484375 19.15625 11.84375 
Q 23.34375 6.203125 30.609375 6.203125 
Q 37.796875 6.203125 41.984375 11.859375 
Q 46.1875 17.53125 46.1875 27.296875 
Q 46.1875 37.015625 41.984375 42.703125 
Q 37.796875 48.390625 30.609375 48.390625 
z
M 30.609375 56 
Q 42.328125 56 49.015625 48.375 
Q 55.71875 40.765625 55.71875 27.296875 
Q 55.71875 13.875 49.015625 6.21875 
Q 42.328125 -1.421875 30.609375 -1.421875 
Q 18.84375 -1.421875 12.171875 6.21875 
Q 5.515625 13.875 5.515625 27.296875 
Q 5.515625 40.765625 12.171875 48.375 
Q 18.84375 56 30.609375 56 
z
" id="DejaVuSans-111"/>
      <path d="M 8.5 21.578125 
L 8.5 54.6875 
L 17.484375 54.6875 
L 17.484375 21.921875 
Q 17.484375 14.15625 20.5 10.265625 
Q 23.53125 6.390625 29.59375 6.390625 
Q 36.859375 6.390625 41.078125 11.03125 
Q 45.3125 15.671875 45.3125 23.6875 
L 45.3125 54.6875 
L 54.296875 54.6875 
L 54.296875 0 
L 45.3125 0 
L 45.3125 8.40625 
Q 42.046875 3.421875 37.71875 1 
Q 33.40625 -1.421875 27.6875 -1.421875 
Q 18.265625 -1.421875 13.375 4.4375 
Q 8.5 10.296875 8.5 21.578125 
z
M 31.109375 56 
z
" id="DejaVuSans-117"/>
      <path d="M 18.109375 8.203125 
L 18.109375 -20.796875 
L 9.078125 -20.796875 
L 9.078125 54.6875 
L 18.109375 54.6875 
L 18.109375 46.390625 
Q 20.953125 51.265625 25.265625 53.625 
Q 29.59375 56 35.59375 56 
Q 45.5625 56 51.78125 48.09375 
Q 58.015625 40.1875 58.015625 27.296875 
Q 58.015625 14.40625 51.78125 6.484375 
Q 45.5625 -1.421875 35.59375 -1.421875 
Q 29.59375 -1.421875 25.265625 0.953125 
Q 20.953125 3.328125 18.109375 8.203125 
z
M 48.6875 27.296875 
Q 48.6875 37.203125 44.609375 42.84375 
Q 40.53125 48.484375 33.40625 48.484375 
Q 26.265625 48.484375 22.1875 42.84375 
Q 18.109375 37.203125 18.109375 27.296875 
Q 18.109375 17.390625 22.1875 11.75 
Q 26.265625 6.109375 33.40625 6.109375 
Q 40.53125 6.109375 44.609375 11.75 
Q 48.6875 17.390625 48.6875 27.296875 
z
" id="DejaVuSans-112"/>
      <path id="DejaVuSans-32"/>
      <path d="M 34.1875 63.1875 
L 20.796875 26.90625 
L 47.609375 26.90625 
z
M 28.609375 72.90625 
L 39.796875 72.90625 
L 67.578125 0 
L 57.328125 0 
L 50.6875 18.703125 
L 17.828125 18.703125 
L 11.1875 0 
L 0.78125 0 
z
" id="DejaVuSans-65"/>
     </defs>
     <use xlink:href="#DejaVuSans-71"/>
     <use x="77.490234" xlink:href="#DejaVuSans-114"/>
     <use x="116.353516" xlink:href="#DejaVuSans-111"/>
     <use x="177.535156" xlink:href="#DejaVuSans-117"/>
     <use x="240.914062" xlink:href="#DejaVuSans-112"/>
     <use x="304.390625" xlink:href="#DejaVuSans-32"/>
     <use x="336.177734" xlink:href="#DejaVuSans-65"/>
    </g>
   </g>
  </g>
  <g id="axes_2">
   <g id="patch_7">
    <path d="M 244.840625 247.64 
L 417.265625 247.64 
L 417.265625 48.04 
L 244.840625 48.04 
z
" style="fill:#ffffff;"/>
   </g>
   <g id="PathCollection_2">
    <g clip-path="url(#p44033df23e)">
     <use style="fill:#1f77b4;fill-opacity:0.8;stroke:#1f77b4;stroke-opacity:0.8;" x="244.840625" xlink:href="#mf04593f259" y="238.567273"/>
     <use style="fill:#1f77b4;fill-opacity:0.8;stroke:#1f77b4;stroke-opacity:0.8;" x="258.104087" xlink:href="#mf04593f259" y="202.276364"/>
     <use style="fill:#1f77b4;fill-opacity:0.8;stroke:#1f77b4;stroke-opacity:0.8;" x="377.47524" xlink:href="#mf04593f259" y="93.403636"/>
     <use style="fill:#1f77b4;fill-opacity:0.8;stroke:#1f77b4;stroke-opacity:0.8;" x="337.684856" xlink:href="#mf04593f259" y="57.112727"/>
     <use style="fill:#1f77b4;fill-opacity:0.8;stroke:#1f77b4;stroke-opacity:0.8;" x="311.157933" xlink:href="#mf04593f259" y="93.403636"/>
     <use style="fill:#1f77b4;fill-opacity:0.8;stroke:#1f77b4;stroke-opacity:0.8;" x="377.47524" xlink:href="#mf04593f259" y="129.694545"/>
     <use style="fill:#1f77b4;fill-opacity:0.8;stroke:#1f77b4;stroke-opacity:0.8;" x="311.157933" xlink:href="#mf04593f259" y="57.112727"/>
     <use style="fill:#1f77b4;fill-opacity:0.8;stroke:#1f77b4;stroke-opacity:0.8;" x="337.684856" xlink:href="#mf04593f259" y="238.567273"/>
     <use style="fill:#1f77b4;fill-opacity:0.8;stroke:#1f77b4;stroke-opacity:0.8;" x="337.684856" xlink:href="#mf04593f259" y="93.403636"/>
     <use style="fill:#1f77b4;fill-opacity:0.8;stroke:#1f77b4;stroke-opacity:0.8;" x="364.211779" xlink:href="#mf04593f259" y="57.112727"/>
     <use style="fill:#1f77b4;fill-opacity:0.8;stroke:#1f77b4;stroke-opacity:0.8;" x="337.684856" xlink:href="#mf04593f259" y="165.985455"/>
     <use style="fill:#1f77b4;fill-opacity:0.8;stroke:#1f77b4;stroke-opacity:0.8;" x="377.47524" xlink:href="#mf04593f259" y="57.112727"/>
     <use style="fill:#1f77b4;fill-opacity:0.8;stroke:#1f77b4;stroke-opacity:0.8;" x="337.684856" xlink:href="#mf04593f259" y="129.694545"/>
     <use style="fill:#1f77b4;fill-opacity:0.8;stroke:#1f77b4;stroke-opacity:0.8;" x="390.738702" xlink:href="#mf04593f259" y="93.403636"/>
     <use style="fill:#1f77b4;fill-opacity:0.8;stroke:#1f77b4;stroke-opacity:0.8;" x="350.948317" xlink:href="#mf04593f259" y="129.694545"/>
     <use style="fill:#1f77b4;fill-opacity:0.8;stroke:#1f77b4;stroke-opacity:0.8;" x="390.738702" xlink:href="#mf04593f259" y="57.112727"/>
     <use style="fill:#1f77b4;fill-opacity:0.8;stroke:#1f77b4;stroke-opacity:0.8;" x="350.948317" xlink:href="#mf04593f259" y="129.694545"/>
     <use style="fill:#1f77b4;fill-opacity:0.8;stroke:#1f77b4;stroke-opacity:0.8;" x="311.157933" xlink:href="#mf04593f259" y="93.403636"/>
     <use style="fill:#1f77b4;fill-opacity:0.8;stroke:#1f77b4;stroke-opacity:0.8;" x="364.211779" xlink:href="#mf04593f259" y="93.403636"/>
     <use style="fill:#1f77b4;fill-opacity:0.8;stroke:#1f77b4;stroke-opacity:0.8;" x="271.367548" xlink:href="#mf04593f259" y="202.276364"/>
     <use style="fill:#1f77b4;fill-opacity:0.8;stroke:#1f77b4;stroke-opacity:0.8;" x="417.265625" xlink:href="#mf04593f259" y="165.985455"/>
     <use style="fill:#1f77b4;fill-opacity:0.8;stroke:#1f77b4;stroke-opacity:0.8;" x="311.157933" xlink:href="#mf04593f259" y="165.985455"/>
     <use style="fill:#1f77b4;fill-opacity:0.8;stroke:#1f77b4;stroke-opacity:0.8;" x="364.211779" xlink:href="#mf04593f259" y="93.403636"/>
     <use style="fill:#1f77b4;fill-opacity:0.8;stroke:#1f77b4;stroke-opacity:0.8;" x="377.47524" xlink:href="#mf04593f259" y="165.985455"/>
     <use style="fill:#1f77b4;fill-opacity:0.8;stroke:#1f77b4;stroke-opacity:0.8;" x="377.47524" xlink:href="#mf04593f259" y="238.567273"/>
     <use style="fill:#1f77b4;fill-opacity:0.8;stroke:#1f77b4;stroke-opacity:0.8;" x="311.157933" xlink:href="#mf04593f259" y="57.112727"/>
     <use style="fill:#1f77b4;fill-opacity:0.8;stroke:#1f77b4;stroke-opacity:0.8;" x="311.157933" xlink:href="#mf04593f259" y="93.403636"/>
     <use style="fill:#1f77b4;fill-opacity:0.8;stroke:#1f77b4;stroke-opacity:0.8;" x="311.157933" xlink:href="#mf04593f259" y="57.112727"/>
     <use style="fill:#1f77b4;fill-opacity:0.8;stroke:#1f77b4;stroke-opacity:0.8;" x="377.47524" xlink:href="#mf04593f259" y="165.985455"/>
     <use style="fill:#1f77b4;fill-opacity:0.8;stroke:#1f77b4;stroke-opacity:0.8;" x="377.47524" xlink:href="#mf04593f259" y="165.985455"/>
     <use style="fill:#1f77b4;fill-opacity:0.8;stroke:#1f77b4;stroke-opacity:0.8;" x="244.840625" xlink:href="#mf04593f259" y="129.694545"/>
     <use style="fill:#1f77b4;fill-opacity:0.8;stroke:#1f77b4;stroke-opacity:0.8;" x="324.421394" xlink:href="#mf04593f259" y="93.403636"/>
     <use style="fill:#1f77b4;fill-opacity:0.8;stroke:#1f77b4;stroke-opacity:0.8;" x="350.948317" xlink:href="#mf04593f259" y="93.403636"/>
     <use style="fill:#1f77b4;fill-opacity:0.8;stroke:#1f77b4;stroke-opacity:0.8;" x="311.157933" xlink:href="#mf04593f259" y="129.694545"/>
     <use style="fill:#1f77b4;fill-opacity:0.8;stroke:#1f77b4;stroke-opacity:0.8;" x="337.684856" xlink:href="#mf04593f259" y="57.112727"/>
     <use style="fill:#1f77b4;fill-opacity:0.8;stroke:#1f77b4;stroke-opacity:0.8;" x="324.421394" xlink:href="#mf04593f259" y="93.403636"/>
     <use style="fill:#1f77b4;fill-opacity:0.8;stroke:#1f77b4;stroke-opacity:0.8;" x="311.157933" xlink:href="#mf04593f259" y="165.985455"/>
     <use style="fill:#1f77b4;fill-opacity:0.8;stroke:#1f77b4;stroke-opacity:0.8;" x="364.211779" xlink:href="#mf04593f259" y="93.403636"/>
     <use style="fill:#1f77b4;fill-opacity:0.8;stroke:#1f77b4;stroke-opacity:0.8;" x="311.157933" xlink:href="#mf04593f259" y="93.403636"/>
     <use style="fill:#1f77b4;fill-opacity:0.8;stroke:#1f77b4;stroke-opacity:0.8;" x="311.157933" xlink:href="#mf04593f259" y="57.112727"/>
     <use style="fill:#1f77b4;fill-opacity:0.8;stroke:#1f77b4;stroke-opacity:0.8;" x="311.157933" xlink:href="#mf04593f259" y="57.112727"/>
     <use style="fill:#1f77b4;fill-opacity:0.8;stroke:#1f77b4;stroke-opacity:0.8;" x="377.47524" xlink:href="#mf04593f259" y="93.403636"/>
    </g>
   </g>
   <g id="PolyCollection_2">
    <path clip-path="url(#p44033df23e)" d="M 244.840625 74.808191 
L 244.840625 179.622326 
L 246.582292 178.493326 
L 248.323958 177.497958 
L 250.065625 176.537474 
L 251.807292 175.575855 
L 253.548958 174.567639 
L 255.290625 173.4181 
L 257.032292 172.268562 
L 258.773958 171.297266 
L 260.515625 170.202897 
L 262.257292 169.233043 
L 263.998958 168.424434 
L 265.740625 167.560054 
L 267.482292 166.528348 
L 269.223958 165.496642 
L 270.965625 164.464935 
L 272.707292 163.433229 
L 274.448958 162.401522 
L 276.190625 161.459959 
L 277.932292 160.44671 
L 279.673958 159.425862 
L 281.415625 158.419221 
L 283.157292 157.504205 
L 284.898958 156.828795 
L 286.640625 155.965643 
L 288.382292 154.765993 
L 290.123958 153.720765 
L 291.865625 152.646329 
L 293.607292 151.553088 
L 295.348958 150.624518 
L 297.090625 150.152419 
L 298.832292 149.680321 
L 300.573958 148.726635 
L 302.315625 147.764002 
L 304.057292 146.804273 
L 305.798958 145.813072 
L 307.540625 145.109278 
L 309.282292 143.955531 
L 311.023958 143.172013 
L 312.765625 142.133567 
L 314.507292 141.58132 
L 316.248958 140.939199 
L 317.990625 140.206425 
L 319.732292 139.329877 
L 321.473958 138.51139 
L 323.215625 137.837895 
L 324.957292 136.829642 
L 326.698958 136.212758 
L 328.440625 135.643115 
L 330.182292 135.241571 
L 331.923958 134.710669 
L 333.665625 134.401895 
L 335.407292 133.950982 
L 337.148958 133.1766 
L 338.890625 133.081794 
L 340.632292 132.79598 
L 342.373958 132.434142 
L 344.115625 132.377646 
L 345.857292 132.175413 
L 347.598958 131.856614 
L 349.340625 131.54235 
L 351.082292 131.370692 
L 352.823958 131.286441 
L 354.565625 131.00086 
L 356.307292 130.79478 
L 358.048958 130.441109 
L 359.790625 130.395517 
L 361.532292 130.428498 
L 363.273958 130.746929 
L 365.015625 131.153325 
L 366.757292 131.006579 
L 368.498958 131.295927 
L 370.240625 131.562163 
L 371.982292 131.70731 
L 373.723958 131.721698 
L 375.465625 132.598491 
L 377.207292 132.672223 
L 378.948958 133.039267 
L 380.690625 133.224035 
L 382.432292 133.472478 
L 384.173958 134.118811 
L 385.915625 134.576611 
L 387.657292 134.63402 
L 389.398958 134.902587 
L 391.140625 135.159056 
L 392.882292 135.412801 
L 394.623958 135.67692 
L 396.365625 136.248121 
L 398.107292 136.445926 
L 399.848958 136.734043 
L 401.590625 137.206164 
L 403.332292 137.643295 
L 405.073958 138.36871 
L 406.815625 139.195159 
L 408.557292 139.891778 
L 410.298958 140.458667 
L 412.040625 140.929907 
L 413.782292 141.385807 
L 415.523958 141.841708 
L 417.265625 142.297608 
L 417.265625 64.485414 
L 417.265625 64.485414 
L 415.523958 65.745305 
L 413.782292 66.648558 
L 412.040625 67.461299 
L 410.298958 68.274041 
L 408.557292 69.088056 
L 406.815625 70.074 
L 405.073958 71.064982 
L 403.332292 72.057956 
L 401.590625 73.147581 
L 399.848958 74.316033 
L 398.107292 75.484485 
L 396.365625 76.555612 
L 394.623958 77.510219 
L 392.882292 78.641453 
L 391.140625 79.727699 
L 389.398958 80.787848 
L 387.657292 81.791597 
L 385.915625 82.351659 
L 384.173958 82.914857 
L 382.432292 83.850858 
L 380.690625 84.852065 
L 378.948958 85.85662 
L 377.207292 86.915656 
L 375.465625 87.855686 
L 373.723958 88.775385 
L 371.982292 89.795753 
L 370.240625 90.397497 
L 368.498958 91.286734 
L 366.757292 92.098559 
L 365.015625 92.580404 
L 363.273958 93.108751 
L 361.532292 94.157525 
L 359.790625 94.79139 
L 358.048958 95.657498 
L 356.307292 96.307652 
L 354.565625 96.994098 
L 352.823958 97.602426 
L 351.082292 98.257261 
L 349.340625 98.773079 
L 347.598958 99.251539 
L 345.857292 99.725519 
L 344.115625 100.307539 
L 342.373958 100.112401 
L 340.632292 100.132464 
L 338.890625 100.123222 
L 337.148958 100.303542 
L 335.407292 100.717751 
L 333.665625 100.909164 
L 331.923958 101.013885 
L 330.182292 101.175388 
L 328.440625 101.450007 
L 326.698958 101.480164 
L 324.957292 101.576849 
L 323.215625 101.460666 
L 321.473958 100.955588 
L 319.732292 100.601123 
L 317.990625 99.90243 
L 316.248958 99.61728 
L 314.507292 99.095879 
L 312.765625 98.459342 
L 311.023958 98.068347 
L 309.282292 97.548534 
L 307.540625 97.019888 
L 305.798958 96.491242 
L 304.057292 95.962596 
L 302.315625 95.44509 
L 300.573958 94.934116 
L 298.832292 94.391879 
L 297.090625 93.796516 
L 295.348958 93.178059 
L 293.607292 92.374361 
L 291.865625 91.694692 
L 290.123958 91.015023 
L 288.382292 90.335353 
L 286.640625 89.655684 
L 284.898958 88.976015 
L 283.157292 88.296346 
L 281.415625 87.616677 
L 279.673958 86.944969 
L 277.932292 86.273538 
L 276.190625 85.602107 
L 274.448958 84.930676 
L 272.707292 84.259245 
L 270.965625 83.587815 
L 269.223958 83.029842 
L 267.482292 82.525371 
L 265.740625 82.020899 
L 263.998958 81.516428 
L 262.257292 81.011956 
L 260.515625 80.507485 
L 258.773958 79.812154 
L 257.032292 78.972949 
L 255.290625 78.133744 
L 253.548958 77.298665 
L 251.807292 76.556636 
L 250.065625 76.11571 
L 248.323958 75.67987 
L 246.582292 75.244031 
L 244.840625 74.808191 
z
" style="fill:#1f77b4;fill-opacity:0.15;"/>
   </g>
   <g id="matplotlib.axis_3">
    <g id="xtick_4">
     <g id="line2d_13">
      <g>
       <use style="stroke:#000000;stroke-width:0.8;" x="284.63101" xlink:href="#mdd88a330f9" y="247.64"/>
      </g>
     </g>
     <g id="text_15">
      <!-- 2 -->
      <g transform="translate(281.44976 262.238437)scale(0.1 -0.1)">
       <use xlink:href="#DejaVuSans-50"/>
      </g>
     </g>
    </g>
    <g id="xtick_5">
     <g id="line2d_14">
      <g>
       <use style="stroke:#000000;stroke-width:0.8;" x="337.684856" xlink:href="#mdd88a330f9" y="247.64"/>
      </g>
     </g>
     <g id="text_16">
      <!-- 3 -->
      <g transform="translate(334.503606 262.238437)scale(0.1 -0.1)">
       <use xlink:href="#DejaVuSans-51"/>
      </g>
     </g>
    </g>
    <g id="xtick_6">
     <g id="line2d_15">
      <g>
       <use style="stroke:#000000;stroke-width:0.8;" x="390.738702" xlink:href="#mdd88a330f9" y="247.64"/>
      </g>
     </g>
     <g id="text_17">
      <!-- 4 -->
      <g transform="translate(387.557452 262.238437)scale(0.1 -0.1)">
       <use xlink:href="#DejaVuSans-52"/>
      </g>
     </g>
    </g>
    <g id="text_18">
     <!-- E -->
     <g transform="translate(327.89375 275.916562)scale(0.1 -0.1)">
      <use xlink:href="#DejaVuSans-69"/>
     </g>
    </g>
   </g>
   <g id="matplotlib.axis_4">
    <g id="ytick_9">
     <g id="line2d_16">
      <g>
       <use style="stroke:#000000;stroke-width:0.8;" x="244.840625" xlink:href="#m7f243eef84" y="238.567273"/>
      </g>
     </g>
     <g id="text_19">
      <!-- 2 -->
      <g transform="translate(231.478125 242.366491)scale(0.1 -0.1)">
       <use xlink:href="#DejaVuSans-50"/>
      </g>
     </g>
    </g>
    <g id="ytick_10">
     <g id="line2d_17">
      <g>
       <use style="stroke:#000000;stroke-width:0.8;" x="244.840625" xlink:href="#m7f243eef84" y="202.276364"/>
      </g>
     </g>
     <g id="text_20">
      <!-- 3 -->
      <g transform="translate(231.478125 206.075582)scale(0.1 -0.1)">
       <use xlink:href="#DejaVuSans-51"/>
      </g>
     </g>
    </g>
    <g id="ytick_11">
     <g id="line2d_18">
      <g>
       <use style="stroke:#000000;stroke-width:0.8;" x="244.840625" xlink:href="#m7f243eef84" y="165.985455"/>
      </g>
     </g>
     <g id="text_21">
      <!-- 4 -->
      <g transform="translate(231.478125 169.784673)scale(0.1 -0.1)">
       <use xlink:href="#DejaVuSans-52"/>
      </g>
     </g>
    </g>
    <g id="ytick_12">
     <g id="line2d_19">
      <g>
       <use style="stroke:#000000;stroke-width:0.8;" x="244.840625" xlink:href="#m7f243eef84" y="129.694545"/>
      </g>
     </g>
     <g id="text_22">
      <!-- 5 -->
      <g transform="translate(231.478125 133.493764)scale(0.1 -0.1)">
       <use xlink:href="#DejaVuSans-53"/>
      </g>
     </g>
    </g>
    <g id="ytick_13">
     <g id="line2d_20">
      <g>
       <use style="stroke:#000000;stroke-width:0.8;" x="244.840625" xlink:href="#m7f243eef84" y="93.403636"/>
      </g>
     </g>
     <g id="text_23">
      <!-- 6 -->
      <g transform="translate(231.478125 97.202855)scale(0.1 -0.1)">
       <use xlink:href="#DejaVuSans-54"/>
      </g>
     </g>
    </g>
    <g id="ytick_14">
     <g id="line2d_21">
      <g>
       <use style="stroke:#000000;stroke-width:0.8;" x="244.840625" xlink:href="#m7f243eef84" y="57.112727"/>
      </g>
     </g>
     <g id="text_24">
      <!-- 7 -->
      <g transform="translate(231.478125 60.911946)scale(0.1 -0.1)">
       <use xlink:href="#DejaVuSans-55"/>
      </g>
     </g>
    </g>
    <g id="text_25">
     <!-- Offering3 -->
     <g transform="translate(225.398437 171.341562)rotate(-90)scale(0.1 -0.1)">
      <use xlink:href="#DejaVuSans-79"/>
      <use x="78.710938" xlink:href="#DejaVuSans-102"/>
      <use x="113.916016" xlink:href="#DejaVuSans-102"/>
      <use x="149.121094" xlink:href="#DejaVuSans-101"/>
      <use x="210.644531" xlink:href="#DejaVuSans-114"/>
      <use x="251.757812" xlink:href="#DejaVuSans-105"/>
      <use x="279.541016" xlink:href="#DejaVuSans-110"/>
      <use x="342.919922" xlink:href="#DejaVuSans-103"/>
      <use x="406.396484" xlink:href="#DejaVuSans-51"/>
     </g>
    </g>
   </g>
   <g id="line2d_22">
    <path clip-path="url(#p44033df23e)" d="M 244.840625 137.257109 
L 246.582292 136.885789 
L 248.323958 136.51447 
L 250.065625 136.14315 
L 251.807292 135.771831 
L 253.548958 135.400511 
L 255.290625 135.029192 
L 257.032292 134.657872 
L 258.773958 134.286552 
L 260.515625 133.915233 
L 262.257292 133.543913 
L 263.998958 133.172594 
L 265.740625 132.801274 
L 267.482292 132.429955 
L 269.223958 132.058635 
L 270.965625 131.687316 
L 272.707292 131.315996 
L 274.448958 130.944677 
L 276.190625 130.573357 
L 277.932292 130.202038 
L 279.673958 129.830718 
L 281.415625 129.459399 
L 283.157292 129.088079 
L 284.898958 128.716759 
L 286.640625 128.34544 
L 288.382292 127.97412 
L 290.123958 127.602801 
L 291.865625 127.231481 
L 293.607292 126.860162 
L 295.348958 126.488842 
L 297.090625 126.117523 
L 298.832292 125.746203 
L 300.573958 125.374884 
L 302.315625 125.003564 
L 304.057292 124.632245 
L 305.798958 124.260925 
L 307.540625 123.889606 
L 309.282292 123.518286 
L 311.023958 123.146967 
L 312.765625 122.775647 
L 314.507292 122.404327 
L 316.248958 122.033008 
L 317.990625 121.661688 
L 319.732292 121.290369 
L 321.473958 120.919049 
L 323.215625 120.54773 
L 324.957292 120.17641 
L 326.698958 119.805091 
L 328.440625 119.433771 
L 330.182292 119.062452 
L 331.923958 118.691132 
L 333.665625 118.319813 
L 335.407292 117.948493 
L 337.148958 117.577174 
L 338.890625 117.205854 
L 340.632292 116.834535 
L 342.373958 116.463215 
L 344.115625 116.091895 
L 345.857292 115.720576 
L 347.598958 115.349256 
L 349.340625 114.977937 
L 351.082292 114.606617 
L 352.823958 114.235298 
L 354.565625 113.863978 
L 356.307292 113.492659 
L 358.048958 113.121339 
L 359.790625 112.75002 
L 361.532292 112.3787 
L 363.273958 112.007381 
L 365.015625 111.636061 
L 366.757292 111.264742 
L 368.498958 110.893422 
L 370.240625 110.522103 
L 371.982292 110.150783 
L 373.723958 109.779463 
L 375.465625 109.408144 
L 377.207292 109.036824 
L 378.948958 108.665505 
L 380.690625 108.294185 
L 382.432292 107.922866 
L 384.173958 107.551546 
L 385.915625 107.180227 
L 387.657292 106.808907 
L 389.398958 106.437588 
L 391.140625 106.066268 
L 392.882292 105.694949 
L 394.623958 105.323629 
L 396.365625 104.95231 
L 398.107292 104.58099 
L 399.848958 104.20967 
L 401.590625 103.838351 
L 403.332292 103.467031 
L 405.073958 103.095712 
L 406.815625 102.724392 
L 408.557292 102.353073 
L 410.298958 101.981753 
L 412.040625 101.610434 
L 413.782292 101.239114 
L 415.523958 100.867795 
L 417.265625 100.496475 
" style="fill:none;stroke:#1f77b4;stroke-linecap:square;stroke-width:2.25;"/>
   </g>
   <g id="patch_8">
    <path d="M 244.840625 247.64 
L 244.840625 48.04 
" style="fill:none;stroke:#000000;stroke-linecap:square;stroke-linejoin:miter;stroke-width:0.8;"/>
   </g>
   <g id="patch_9">
    <path d="M 417.265625 247.64 
L 417.265625 48.04 
" style="fill:none;stroke:#000000;stroke-linecap:square;stroke-linejoin:miter;stroke-width:0.8;"/>
   </g>
   <g id="patch_10">
    <path d="M 244.840625 247.64 
L 417.265625 247.64 
" style="fill:none;stroke:#000000;stroke-linecap:square;stroke-linejoin:miter;stroke-width:0.8;"/>
   </g>
   <g id="patch_11">
    <path d="M 244.840625 48.04 
L 417.265625 48.04 
" style="fill:none;stroke:#000000;stroke-linecap:square;stroke-linejoin:miter;stroke-width:0.8;"/>
   </g>
   <g id="text_26">
    <!-- Group B -->
    <g transform="translate(244.840625 42.04)scale(0.12 -0.12)">
     <defs>
      <path d="M 19.671875 34.8125 
L 19.671875 8.109375 
L 35.5 8.109375 
Q 43.453125 8.109375 47.28125 11.40625 
Q 51.125 14.703125 51.125 21.484375 
Q 51.125 28.328125 47.28125 31.5625 
Q 43.453125 34.8125 35.5 34.8125 
z
M 19.671875 64.796875 
L 19.671875 42.828125 
L 34.28125 42.828125 
Q 41.5 42.828125 45.03125 45.53125 
Q 48.578125 48.25 48.578125 53.8125 
Q 48.578125 59.328125 45.03125 62.0625 
Q 41.5 64.796875 34.28125 64.796875 
z
M 9.8125 72.90625 
L 35.015625 72.90625 
Q 46.296875 72.90625 52.390625 68.21875 
Q 58.5 63.53125 58.5 54.890625 
Q 58.5 48.1875 55.375 44.234375 
Q 52.25 40.28125 46.1875 39.3125 
Q 53.46875 37.75 57.5 32.78125 
Q 61.53125 27.828125 61.53125 20.40625 
Q 61.53125 10.640625 54.890625 5.3125 
Q 48.25 0 35.984375 0 
L 9.8125 0 
z
" id="DejaVuSans-66"/>
     </defs>
     <use xlink:href="#DejaVuSans-71"/>
     <use x="77.490234" xlink:href="#DejaVuSans-114"/>
     <use x="116.353516" xlink:href="#DejaVuSans-111"/>
     <use x="177.535156" xlink:href="#DejaVuSans-117"/>
     <use x="240.914062" xlink:href="#DejaVuSans-112"/>
     <use x="304.390625" xlink:href="#DejaVuSans-32"/>
     <use x="336.177734" xlink:href="#DejaVuSans-66"/>
    </g>
   </g>
  </g>
  <g id="text_27">
   <!-- How influential do you perceive the chatbots offer to help you find a bike? -->
   <g transform="translate(56.142993 13.529498)scale(0.0833 -0.0833)">
    <defs>
     <path d="M 9.8125 72.90625 
L 19.671875 72.90625 
L 19.671875 43.015625 
L 55.515625 43.015625 
L 55.515625 72.90625 
L 65.375 72.90625 
L 65.375 0 
L 55.515625 0 
L 55.515625 34.71875 
L 19.671875 34.71875 
L 19.671875 0 
L 9.8125 0 
z
" id="DejaVuSans-72"/>
     <path d="M 4.203125 54.6875 
L 13.1875 54.6875 
L 24.421875 12.015625 
L 35.59375 54.6875 
L 46.1875 54.6875 
L 57.421875 12.015625 
L 68.609375 54.6875 
L 77.59375 54.6875 
L 63.28125 0 
L 52.6875 0 
L 40.921875 44.828125 
L 29.109375 0 
L 18.5 0 
z
" id="DejaVuSans-119"/>
     <path d="M 9.421875 75.984375 
L 18.40625 75.984375 
L 18.40625 0 
L 9.421875 0 
z
" id="DejaVuSans-108"/>
     <path d="M 18.3125 70.21875 
L 18.3125 54.6875 
L 36.8125 54.6875 
L 36.8125 47.703125 
L 18.3125 47.703125 
L 18.3125 18.015625 
Q 18.3125 11.328125 20.140625 9.421875 
Q 21.96875 7.515625 27.59375 7.515625 
L 36.8125 7.515625 
L 36.8125 0 
L 27.59375 0 
Q 17.1875 0 13.234375 3.875 
Q 9.28125 7.765625 9.28125 18.015625 
L 9.28125 47.703125 
L 2.6875 47.703125 
L 2.6875 54.6875 
L 9.28125 54.6875 
L 9.28125 70.21875 
z
" id="DejaVuSans-116"/>
     <path d="M 34.28125 27.484375 
Q 23.390625 27.484375 19.1875 25 
Q 14.984375 22.515625 14.984375 16.5 
Q 14.984375 11.71875 18.140625 8.90625 
Q 21.296875 6.109375 26.703125 6.109375 
Q 34.1875 6.109375 38.703125 11.40625 
Q 43.21875 16.703125 43.21875 25.484375 
L 43.21875 27.484375 
z
M 52.203125 31.203125 
L 52.203125 0 
L 43.21875 0 
L 43.21875 8.296875 
Q 40.140625 3.328125 35.546875 0.953125 
Q 30.953125 -1.421875 24.3125 -1.421875 
Q 15.921875 -1.421875 10.953125 3.296875 
Q 6 8.015625 6 15.921875 
Q 6 25.140625 12.171875 29.828125 
Q 18.359375 34.515625 30.609375 34.515625 
L 43.21875 34.515625 
L 43.21875 35.40625 
Q 43.21875 41.609375 39.140625 45 
Q 35.0625 48.390625 27.6875 48.390625 
Q 23 48.390625 18.546875 47.265625 
Q 14.109375 46.140625 10.015625 43.890625 
L 10.015625 52.203125 
Q 14.9375 54.109375 19.578125 55.046875 
Q 24.21875 56 28.609375 56 
Q 40.484375 56 46.34375 49.84375 
Q 52.203125 43.703125 52.203125 31.203125 
z
" id="DejaVuSans-97"/>
     <path d="M 45.40625 46.390625 
L 45.40625 75.984375 
L 54.390625 75.984375 
L 54.390625 0 
L 45.40625 0 
L 45.40625 8.203125 
Q 42.578125 3.328125 38.25 0.953125 
Q 33.9375 -1.421875 27.875 -1.421875 
Q 17.96875 -1.421875 11.734375 6.484375 
Q 5.515625 14.40625 5.515625 27.296875 
Q 5.515625 40.1875 11.734375 48.09375 
Q 17.96875 56 27.875 56 
Q 33.9375 56 38.25 53.625 
Q 42.578125 51.265625 45.40625 46.390625 
z
M 14.796875 27.296875 
Q 14.796875 17.390625 18.875 11.75 
Q 22.953125 6.109375 30.078125 6.109375 
Q 37.203125 6.109375 41.296875 11.75 
Q 45.40625 17.390625 45.40625 27.296875 
Q 45.40625 37.203125 41.296875 42.84375 
Q 37.203125 48.484375 30.078125 48.484375 
Q 22.953125 48.484375 18.875 42.84375 
Q 14.796875 37.203125 14.796875 27.296875 
z
" id="DejaVuSans-100"/>
     <path d="M 32.171875 -5.078125 
Q 28.375 -14.84375 24.75 -17.8125 
Q 21.140625 -20.796875 15.09375 -20.796875 
L 7.90625 -20.796875 
L 7.90625 -13.28125 
L 13.1875 -13.28125 
Q 16.890625 -13.28125 18.9375 -11.515625 
Q 21 -9.765625 23.484375 -3.21875 
L 25.09375 0.875 
L 2.984375 54.6875 
L 12.5 54.6875 
L 29.59375 11.921875 
L 46.6875 54.6875 
L 56.203125 54.6875 
z
" id="DejaVuSans-121"/>
     <path d="M 48.78125 52.59375 
L 48.78125 44.1875 
Q 44.96875 46.296875 41.140625 47.34375 
Q 37.3125 48.390625 33.40625 48.390625 
Q 24.65625 48.390625 19.8125 42.84375 
Q 14.984375 37.3125 14.984375 27.296875 
Q 14.984375 17.28125 19.8125 11.734375 
Q 24.65625 6.203125 33.40625 6.203125 
Q 37.3125 6.203125 41.140625 7.25 
Q 44.96875 8.296875 48.78125 10.40625 
L 48.78125 2.09375 
Q 45.015625 0.34375 40.984375 -0.53125 
Q 36.96875 -1.421875 32.421875 -1.421875 
Q 20.0625 -1.421875 12.78125 6.34375 
Q 5.515625 14.109375 5.515625 27.296875 
Q 5.515625 40.671875 12.859375 48.328125 
Q 20.21875 56 33.015625 56 
Q 37.15625 56 41.109375 55.140625 
Q 45.0625 54.296875 48.78125 52.59375 
z
" id="DejaVuSans-99"/>
     <path d="M 2.984375 54.6875 
L 12.5 54.6875 
L 29.59375 8.796875 
L 46.6875 54.6875 
L 56.203125 54.6875 
L 35.6875 0 
L 23.484375 0 
z
" id="DejaVuSans-118"/>
     <path d="M 54.890625 33.015625 
L 54.890625 0 
L 45.90625 0 
L 45.90625 32.71875 
Q 45.90625 40.484375 42.875 44.328125 
Q 39.84375 48.1875 33.796875 48.1875 
Q 26.515625 48.1875 22.3125 43.546875 
Q 18.109375 38.921875 18.109375 30.90625 
L 18.109375 0 
L 9.078125 0 
L 9.078125 75.984375 
L 18.109375 75.984375 
L 18.109375 46.1875 
Q 21.34375 51.125 25.703125 53.5625 
Q 30.078125 56 35.796875 56 
Q 45.21875 56 50.046875 50.171875 
Q 54.890625 44.34375 54.890625 33.015625 
z
" id="DejaVuSans-104"/>
     <path d="M 48.6875 27.296875 
Q 48.6875 37.203125 44.609375 42.84375 
Q 40.53125 48.484375 33.40625 48.484375 
Q 26.265625 48.484375 22.1875 42.84375 
Q 18.109375 37.203125 18.109375 27.296875 
Q 18.109375 17.390625 22.1875 11.75 
Q 26.265625 6.109375 33.40625 6.109375 
Q 40.53125 6.109375 44.609375 11.75 
Q 48.6875 17.390625 48.6875 27.296875 
z
M 18.109375 46.390625 
Q 20.953125 51.265625 25.265625 53.625 
Q 29.59375 56 35.59375 56 
Q 45.5625 56 51.78125 48.09375 
Q 58.015625 40.1875 58.015625 27.296875 
Q 58.015625 14.40625 51.78125 6.484375 
Q 45.5625 -1.421875 35.59375 -1.421875 
Q 29.59375 -1.421875 25.265625 0.953125 
Q 20.953125 3.328125 18.109375 8.203125 
L 18.109375 0 
L 9.078125 0 
L 9.078125 75.984375 
L 18.109375 75.984375 
z
" id="DejaVuSans-98"/>
     <path d="M 12.703125 72.90625 
L 23 72.90625 
L 23 65.484375 
L 14.984375 49.90625 
L 8.6875 49.90625 
L 12.703125 65.484375 
z
" id="DejaVuSans-8217"/>
     <path d="M 44.28125 53.078125 
L 44.28125 44.578125 
Q 40.484375 46.53125 36.375 47.5 
Q 32.28125 48.484375 27.875 48.484375 
Q 21.1875 48.484375 17.84375 46.4375 
Q 14.5 44.390625 14.5 40.28125 
Q 14.5 37.15625 16.890625 35.375 
Q 19.28125 33.59375 26.515625 31.984375 
L 29.59375 31.296875 
Q 39.15625 29.25 43.1875 25.515625 
Q 47.21875 21.78125 47.21875 15.09375 
Q 47.21875 7.46875 41.1875 3.015625 
Q 35.15625 -1.421875 24.609375 -1.421875 
Q 20.21875 -1.421875 15.453125 -0.5625 
Q 10.6875 0.296875 5.421875 2 
L 5.421875 11.28125 
Q 10.40625 8.6875 15.234375 7.390625 
Q 20.0625 6.109375 24.8125 6.109375 
Q 31.15625 6.109375 34.5625 8.28125 
Q 37.984375 10.453125 37.984375 14.40625 
Q 37.984375 18.0625 35.515625 20.015625 
Q 33.0625 21.96875 24.703125 23.78125 
L 21.578125 24.515625 
Q 13.234375 26.265625 9.515625 29.90625 
Q 5.8125 33.546875 5.8125 39.890625 
Q 5.8125 47.609375 11.28125 51.796875 
Q 16.75 56 26.8125 56 
Q 31.78125 56 36.171875 55.265625 
Q 40.578125 54.546875 44.28125 53.078125 
z
" id="DejaVuSans-115"/>
     <path d="M 9.078125 75.984375 
L 18.109375 75.984375 
L 18.109375 31.109375 
L 44.921875 54.6875 
L 56.390625 54.6875 
L 27.390625 29.109375 
L 57.625 0 
L 45.90625 0 
L 18.109375 26.703125 
L 18.109375 0 
L 9.078125 0 
z
" id="DejaVuSans-107"/>
     <path d="M 19.09375 12.40625 
L 29 12.40625 
L 29 0 
L 19.09375 0 
z
M 28.71875 19.578125 
L 19.390625 19.578125 
L 19.390625 27.09375 
Q 19.390625 32.03125 20.75 35.203125 
Q 22.125 38.375 26.515625 42.578125 
L 30.90625 46.921875 
Q 33.6875 49.515625 34.9375 51.8125 
Q 36.1875 54.109375 36.1875 56.5 
Q 36.1875 60.84375 32.984375 63.53125 
Q 29.78125 66.21875 24.515625 66.21875 
Q 20.65625 66.21875 16.28125 64.5 
Q 11.921875 62.796875 7.171875 59.515625 
L 7.171875 68.703125 
Q 11.765625 71.484375 16.46875 72.84375 
Q 21.1875 74.21875 26.21875 74.21875 
Q 35.203125 74.21875 40.640625 69.484375 
Q 46.09375 64.75 46.09375 56.984375 
Q 46.09375 53.265625 44.328125 49.921875 
Q 42.578125 46.578125 38.1875 42.390625 
L 33.890625 38.1875 
Q 31.59375 35.890625 30.640625 34.59375 
Q 29.6875 33.296875 29.296875 32.078125 
Q 29 31.0625 28.859375 29.59375 
Q 28.71875 28.125 28.71875 25.59375 
z
" id="DejaVuSans-63"/>
    </defs>
    <use xlink:href="#DejaVuSans-72"/>
    <use x="75.195312" xlink:href="#DejaVuSans-111"/>
    <use x="136.376953" xlink:href="#DejaVuSans-119"/>
    <use x="218.164062" xlink:href="#DejaVuSans-32"/>
    <use x="249.951172" xlink:href="#DejaVuSans-105"/>
    <use x="277.734375" xlink:href="#DejaVuSans-110"/>
    <use x="341.113281" xlink:href="#DejaVuSans-102"/>
    <use x="376.318359" xlink:href="#DejaVuSans-108"/>
    <use x="404.101562" xlink:href="#DejaVuSans-117"/>
    <use x="467.480469" xlink:href="#DejaVuSans-101"/>
    <use x="529.003906" xlink:href="#DejaVuSans-110"/>
    <use x="592.382812" xlink:href="#DejaVuSans-116"/>
    <use x="631.591797" xlink:href="#DejaVuSans-105"/>
    <use x="659.375" xlink:href="#DejaVuSans-97"/>
    <use x="720.654297" xlink:href="#DejaVuSans-108"/>
    <use x="748.4375" xlink:href="#DejaVuSans-32"/>
    <use x="780.224609" xlink:href="#DejaVuSans-100"/>
    <use x="843.701172" xlink:href="#DejaVuSans-111"/>
    <use x="904.882812" xlink:href="#DejaVuSans-32"/>
    <use x="936.669922" xlink:href="#DejaVuSans-121"/>
    <use x="995.849609" xlink:href="#DejaVuSans-111"/>
    <use x="1057.03125" xlink:href="#DejaVuSans-117"/>
    <use x="1120.410156" xlink:href="#DejaVuSans-32"/>
    <use x="1152.197266" xlink:href="#DejaVuSans-112"/>
    <use x="1215.673828" xlink:href="#DejaVuSans-101"/>
    <use x="1277.197266" xlink:href="#DejaVuSans-114"/>
    <use x="1316.060547" xlink:href="#DejaVuSans-99"/>
    <use x="1371.041016" xlink:href="#DejaVuSans-101"/>
    <use x="1432.564453" xlink:href="#DejaVuSans-105"/>
    <use x="1460.347656" xlink:href="#DejaVuSans-118"/>
    <use x="1519.527344" xlink:href="#DejaVuSans-101"/>
    <use x="1581.050781" xlink:href="#DejaVuSans-32"/>
    <use x="1612.837891" xlink:href="#DejaVuSans-116"/>
    <use x="1652.046875" xlink:href="#DejaVuSans-104"/>
    <use x="1715.425781" xlink:href="#DejaVuSans-101"/>
    <use x="1776.949219" xlink:href="#DejaVuSans-32"/>
    <use x="1808.736328" xlink:href="#DejaVuSans-99"/>
    <use x="1863.716797" xlink:href="#DejaVuSans-104"/>
    <use x="1927.095703" xlink:href="#DejaVuSans-97"/>
    <use x="1988.375" xlink:href="#DejaVuSans-116"/>
    <use x="2027.583984" xlink:href="#DejaVuSans-98"/>
    <use x="2091.060547" xlink:href="#DejaVuSans-111"/>
    <use x="2152.242188" xlink:href="#DejaVuSans-116"/>
    <use x="2191.451172" xlink:href="#DejaVuSans-8217"/>
    <use x="2223.238281" xlink:href="#DejaVuSans-115"/>
    <use x="2275.337891" xlink:href="#DejaVuSans-32"/>
    <use x="2307.125" xlink:href="#DejaVuSans-111"/>
    <use x="2368.306641" xlink:href="#DejaVuSans-102"/>
    <use x="2403.511719" xlink:href="#DejaVuSans-102"/>
    <use x="2438.716797" xlink:href="#DejaVuSans-101"/>
    <use x="2500.240234" xlink:href="#DejaVuSans-114"/>
    <use x="2541.353516" xlink:href="#DejaVuSans-32"/>
    <use x="2573.140625" xlink:href="#DejaVuSans-116"/>
    <use x="2612.349609" xlink:href="#DejaVuSans-111"/>
    <use x="2673.53125" xlink:href="#DejaVuSans-32"/>
    <use x="2705.318359" xlink:href="#DejaVuSans-104"/>
    <use x="2768.697266" xlink:href="#DejaVuSans-101"/>
    <use x="2830.220703" xlink:href="#DejaVuSans-108"/>
    <use x="2858.003906" xlink:href="#DejaVuSans-112"/>
    <use x="2921.480469" xlink:href="#DejaVuSans-32"/>
    <use x="2953.267578" xlink:href="#DejaVuSans-121"/>
    <use x="3012.447266" xlink:href="#DejaVuSans-111"/>
    <use x="3073.628906" xlink:href="#DejaVuSans-117"/>
    <use x="3137.007812" xlink:href="#DejaVuSans-32"/>
    <use x="3168.794922" xlink:href="#DejaVuSans-102"/>
    <use x="3204" xlink:href="#DejaVuSans-105"/>
    <use x="3231.783203" xlink:href="#DejaVuSans-110"/>
    <use x="3295.162109" xlink:href="#DejaVuSans-100"/>
    <use x="3358.638672" xlink:href="#DejaVuSans-32"/>
    <use x="3390.425781" xlink:href="#DejaVuSans-97"/>
    <use x="3451.705078" xlink:href="#DejaVuSans-32"/>
    <use x="3483.492188" xlink:href="#DejaVuSans-98"/>
    <use x="3546.96875" xlink:href="#DejaVuSans-105"/>
    <use x="3574.751953" xlink:href="#DejaVuSans-107"/>
    <use x="3629.037109" xlink:href="#DejaVuSans-101"/>
    <use x="3690.560547" xlink:href="#DejaVuSans-63"/>
   </g>
  </g>
 </g>
 <defs>
  <clipPath id="p54178e2090">
   <rect height="199.6" width="172.425" x="34.240625" y="48.04"/>
  </clipPath>
  <clipPath id="p44033df23e">
   <rect height="199.6" width="172.425" x="244.840625" y="48.04"/>
  </clipPath>
 </defs>
</svg>
