<?xml version="1.0" encoding="utf-8" standalone="no"?>
<!DOCTYPE svg PUBLIC "-//W3C//DTD SVG 1.1//EN"
  "http://www.w3.org/Graphics/SVG/1.1/DTD/svg11.dtd">
<!-- Created with matplotlib (https://matplotlib.org/) -->
<svg height="285.19625pt" version="1.1" viewBox="0 0 424.465625 285.19625" width="424.465625pt" xmlns="http://www.w3.org/2000/svg" xmlns:xlink="http://www.w3.org/1999/xlink">
 <metadata>
  <rdf:RDF xmlns:cc="http://creativecommons.org/ns#" xmlns:dc="http://purl.org/dc/elements/1.1/" xmlns:rdf="http://www.w3.org/1999/02/22-rdf-syntax-ns#">
   <cc:Work>
    <dc:type rdf:resource="http://purl.org/dc/dcmitype/StillImage"/>
    <dc:date>2021-02-21T18:27:39.859413</dc:date>
    <dc:format>image/svg+xml</dc:format>
    <dc:creator>
     <cc:Agent>
      <dc:title>Matplotlib v3.3.2, https://matplotlib.org/</dc:title>
     </cc:Agent>
    </dc:creator>
   </cc:Work>
  </rdf:RDF>
 </metadata>
 <defs>
  <style type="text/css">*{stroke-linecap:butt;stroke-linejoin:round;}</style>
 </defs>
 <g id="figure_1">
  <g id="patch_1">
   <path d="M 0 285.19625 
L 424.465625 285.19625 
L 424.465625 0 
L 0 0 
z
" style="fill:none;"/>
  </g>
  <g id="axes_1">
   <g id="patch_2">
    <path d="M 34.240625 247.64 
L 206.665625 247.64 
L 206.665625 48.04 
L 34.240625 48.04 
z
" style="fill:#ffffff;"/>
   </g>
   <g id="PathCollection_1">
    <defs>
     <path d="M 0 3 
C 0.795609 3 1.55874 2.683901 2.12132 2.12132 
C 2.683901 1.55874 3 0.795609 3 0 
C 3 -0.795609 2.683901 -1.55874 2.12132 -2.12132 
C 1.55874 -2.683901 0.795609 -3 0 -3 
C -0.795609 -3 -1.55874 -2.683901 -2.12132 -2.12132 
C -2.683901 -1.55874 -3 -0.795609 -3 0 
C -3 0.795609 -2.683901 1.55874 -2.12132 2.12132 
C -1.55874 2.683901 -0.795609 3 0 3 
z
" id="m6deb3409a0" style="stroke:#1f77b4;stroke-opacity:0.8;"/>
    </defs>
    <g clip-path="url(#p2926ec5dc3)">
     <use style="fill:#1f77b4;fill-opacity:0.8;stroke:#1f77b4;stroke-opacity:0.8;" x="140.348317" xlink:href="#m6deb3409a0" y="157.481812"/>
     <use style="fill:#1f77b4;fill-opacity:0.8;stroke:#1f77b4;stroke-opacity:0.8;" x="60.767548" xlink:href="#m6deb3409a0" y="116.939082"/>
     <use style="fill:#1f77b4;fill-opacity:0.8;stroke:#1f77b4;stroke-opacity:0.8;" x="74.03101" xlink:href="#m6deb3409a0" y="116.939082"/>
     <use style="fill:#1f77b4;fill-opacity:0.8;stroke:#1f77b4;stroke-opacity:0.8;" x="140.348317" xlink:href="#m6deb3409a0" y="116.939082"/>
     <use style="fill:#1f77b4;fill-opacity:0.8;stroke:#1f77b4;stroke-opacity:0.8;" x="166.87524" xlink:href="#m6deb3409a0" y="76.396352"/>
     <use style="fill:#1f77b4;fill-opacity:0.8;stroke:#1f77b4;stroke-opacity:0.8;" x="127.084856" xlink:href="#m6deb3409a0" y="76.396352"/>
     <use style="fill:#1f77b4;fill-opacity:0.8;stroke:#1f77b4;stroke-opacity:0.8;" x="180.138702" xlink:href="#m6deb3409a0" y="76.396352"/>
     <use style="fill:#1f77b4;fill-opacity:0.8;stroke:#1f77b4;stroke-opacity:0.8;" x="127.084856" xlink:href="#m6deb3409a0" y="116.939082"/>
     <use style="fill:#1f77b4;fill-opacity:0.8;stroke:#1f77b4;stroke-opacity:0.8;" x="74.03101" xlink:href="#m6deb3409a0" y="157.481812"/>
     <use style="fill:#1f77b4;fill-opacity:0.8;stroke:#1f77b4;stroke-opacity:0.8;" x="113.821394" xlink:href="#m6deb3409a0" y="157.481812"/>
     <use style="fill:#1f77b4;fill-opacity:0.8;stroke:#1f77b4;stroke-opacity:0.8;" x="113.821394" xlink:href="#m6deb3409a0" y="76.396352"/>
     <use style="fill:#1f77b4;fill-opacity:0.8;stroke:#1f77b4;stroke-opacity:0.8;" x="166.87524" xlink:href="#m6deb3409a0" y="76.396352"/>
     <use style="fill:#1f77b4;fill-opacity:0.8;stroke:#1f77b4;stroke-opacity:0.8;" x="87.294471" xlink:href="#m6deb3409a0" y="76.396352"/>
     <use style="fill:#1f77b4;fill-opacity:0.8;stroke:#1f77b4;stroke-opacity:0.8;" x="127.084856" xlink:href="#m6deb3409a0" y="157.481812"/>
     <use style="fill:#1f77b4;fill-opacity:0.8;stroke:#1f77b4;stroke-opacity:0.8;" x="127.084856" xlink:href="#m6deb3409a0" y="198.024543"/>
     <use style="fill:#1f77b4;fill-opacity:0.8;stroke:#1f77b4;stroke-opacity:0.8;" x="153.611779" xlink:href="#m6deb3409a0" y="157.481812"/>
     <use style="fill:#1f77b4;fill-opacity:0.8;stroke:#1f77b4;stroke-opacity:0.8;" x="113.821394" xlink:href="#m6deb3409a0" y="157.481812"/>
     <use style="fill:#1f77b4;fill-opacity:0.8;stroke:#1f77b4;stroke-opacity:0.8;" x="100.557933" xlink:href="#m6deb3409a0" y="198.024543"/>
     <use style="fill:#1f77b4;fill-opacity:0.8;stroke:#1f77b4;stroke-opacity:0.8;" x="153.611779" xlink:href="#m6deb3409a0" y="76.396352"/>
     <use style="fill:#1f77b4;fill-opacity:0.8;stroke:#1f77b4;stroke-opacity:0.8;" x="34.240625" xlink:href="#m6deb3409a0" y="238.567273"/>
     <use style="fill:#1f77b4;fill-opacity:0.8;stroke:#1f77b4;stroke-opacity:0.8;" x="87.294471" xlink:href="#m6deb3409a0" y="116.939082"/>
     <use style="fill:#1f77b4;fill-opacity:0.8;stroke:#1f77b4;stroke-opacity:0.8;" x="206.665625" xlink:href="#m6deb3409a0" y="76.396352"/>
     <use style="fill:#1f77b4;fill-opacity:0.8;stroke:#1f77b4;stroke-opacity:0.8;" x="113.821394" xlink:href="#m6deb3409a0" y="116.939082"/>
     <use style="fill:#1f77b4;fill-opacity:0.8;stroke:#1f77b4;stroke-opacity:0.8;" x="113.821394" xlink:href="#m6deb3409a0" y="76.396352"/>
     <use style="fill:#1f77b4;fill-opacity:0.8;stroke:#1f77b4;stroke-opacity:0.8;" x="113.821394" xlink:href="#m6deb3409a0" y="76.396352"/>
     <use style="fill:#1f77b4;fill-opacity:0.8;stroke:#1f77b4;stroke-opacity:0.8;" x="113.821394" xlink:href="#m6deb3409a0" y="198.024543"/>
     <use style="fill:#1f77b4;fill-opacity:0.8;stroke:#1f77b4;stroke-opacity:0.8;" x="100.557933" xlink:href="#m6deb3409a0" y="76.396352"/>
     <use style="fill:#1f77b4;fill-opacity:0.8;stroke:#1f77b4;stroke-opacity:0.8;" x="87.294471" xlink:href="#m6deb3409a0" y="116.939082"/>
     <use style="fill:#1f77b4;fill-opacity:0.8;stroke:#1f77b4;stroke-opacity:0.8;" x="100.557933" xlink:href="#m6deb3409a0" y="76.396352"/>
     <use style="fill:#1f77b4;fill-opacity:0.8;stroke:#1f77b4;stroke-opacity:0.8;" x="113.821394" xlink:href="#m6deb3409a0" y="157.481812"/>
     <use style="fill:#1f77b4;fill-opacity:0.8;stroke:#1f77b4;stroke-opacity:0.8;" x="113.821394" xlink:href="#m6deb3409a0" y="116.939082"/>
     <use style="fill:#1f77b4;fill-opacity:0.8;stroke:#1f77b4;stroke-opacity:0.8;" x="87.294471" xlink:href="#m6deb3409a0" y="116.939082"/>
     <use style="fill:#1f77b4;fill-opacity:0.8;stroke:#1f77b4;stroke-opacity:0.8;" x="127.084856" xlink:href="#m6deb3409a0" y="157.481812"/>
     <use style="fill:#1f77b4;fill-opacity:0.8;stroke:#1f77b4;stroke-opacity:0.8;" x="127.084856" xlink:href="#m6deb3409a0" y="157.481812"/>
     <use style="fill:#1f77b4;fill-opacity:0.8;stroke:#1f77b4;stroke-opacity:0.8;" x="100.557933" xlink:href="#m6deb3409a0" y="157.481812"/>
     <use style="fill:#1f77b4;fill-opacity:0.8;stroke:#1f77b4;stroke-opacity:0.8;" x="100.557933" xlink:href="#m6deb3409a0" y="157.481812"/>
     <use style="fill:#1f77b4;fill-opacity:0.8;stroke:#1f77b4;stroke-opacity:0.8;" x="87.294471" xlink:href="#m6deb3409a0" y="157.481812"/>
     <use style="fill:#1f77b4;fill-opacity:0.8;stroke:#1f77b4;stroke-opacity:0.8;" x="113.821394" xlink:href="#m6deb3409a0" y="157.481812"/>
     <use style="fill:#1f77b4;fill-opacity:0.8;stroke:#1f77b4;stroke-opacity:0.8;" x="100.557933" xlink:href="#m6deb3409a0" y="157.481812"/>
     <use style="fill:#1f77b4;fill-opacity:0.8;stroke:#1f77b4;stroke-opacity:0.8;" x="87.294471" xlink:href="#m6deb3409a0" y="157.481812"/>
     <use style="fill:#1f77b4;fill-opacity:0.8;stroke:#1f77b4;stroke-opacity:0.8;" x="47.504087" xlink:href="#m6deb3409a0" y="116.939082"/>
    </g>
   </g>
   <g id="PolyCollection_1">
    <path clip-path="url(#p2926ec5dc3)" d="M 34.240625 125.002604 
L 34.240625 195.466675 
L 35.982292 194.372786 
L 37.723958 193.278896 
L 39.465625 192.185006 
L 41.207292 191.091116 
L 42.948958 189.907913 
L 44.690625 188.578353 
L 46.432292 187.048607 
L 48.173958 185.700816 
L 49.915625 184.452074 
L 51.657292 182.998383 
L 53.398958 181.74892 
L 55.140625 180.499457 
L 56.882292 179.088139 
L 58.623958 177.671497 
L 60.365625 176.254856 
L 62.107292 175.051041 
L 63.848958 173.604075 
L 65.590625 172.338568 
L 67.332292 171.129773 
L 69.073958 169.917919 
L 70.815625 168.703773 
L 72.557292 167.489627 
L 74.298958 166.275481 
L 76.040625 164.917169 
L 77.782292 163.5293 
L 79.523958 162.375983 
L 81.265625 161.13828 
L 83.007292 159.751019 
L 84.748958 158.661215 
L 86.490625 157.471084 
L 88.232292 156.204894 
L 89.973958 155.170119 
L 91.715625 154.027494 
L 93.457292 152.748276 
L 95.198958 151.558397 
L 96.940625 150.465162 
L 98.682292 149.341279 
L 100.423958 148.161767 
L 102.165625 147.173504 
L 103.907292 145.946256 
L 105.648958 145.317329 
L 107.390625 144.557444 
L 109.132292 143.432601 
L 110.873958 142.564913 
L 112.615625 141.632497 
L 114.357292 140.715891 
L 116.098958 140.02383 
L 117.840625 139.42036 
L 119.582292 138.652196 
L 121.323958 138.16961 
L 123.065625 137.861874 
L 124.807292 137.40395 
L 126.548958 136.99993 
L 128.290625 136.848783 
L 130.032292 136.871545 
L 131.773958 136.297533 
L 133.515625 135.783845 
L 135.257292 135.800546 
L 136.998958 135.917774 
L 138.740625 136.113353 
L 140.482292 136.155394 
L 142.223958 136.281147 
L 143.965625 136.123535 
L 145.707292 136.24151 
L 147.448958 136.423053 
L 149.190625 136.681976 
L 150.932292 136.595435 
L 152.673958 136.71341 
L 154.415625 136.826266 
L 156.157292 136.713267 
L 157.898958 136.758685 
L 159.640625 136.942819 
L 161.382292 137.126954 
L 163.123958 137.311088 
L 164.865625 137.495222 
L 166.607292 137.583121 
L 168.348958 137.610867 
L 170.090625 137.638613 
L 171.832292 137.666359 
L 173.573958 137.694106 
L 175.315625 137.721852 
L 177.057292 137.749598 
L 178.798958 137.777344 
L 180.540625 137.80509 
L 182.282292 137.833902 
L 184.023958 138.068751 
L 185.765625 138.303599 
L 187.507292 138.538448 
L 189.248958 138.773296 
L 190.990625 139.008145 
L 192.732292 139.190308 
L 194.473958 139.476756 
L 196.215625 139.469316 
L 197.957292 139.448686 
L 199.698958 139.428056 
L 201.440625 139.407427 
L 203.182292 139.386797 
L 204.923958 139.366167 
L 206.665625 139.345537 
L 206.665625 57.112727 
L 206.665625 57.112727 
L 204.923958 58.49474 
L 203.182292 59.842337 
L 201.440625 61.131824 
L 199.698958 62.42948 
L 197.957292 63.791853 
L 196.215625 65.241189 
L 194.473958 66.694018 
L 192.732292 68.10775 
L 190.990625 69.356934 
L 189.248958 70.761532 
L 187.507292 72.011744 
L 185.765625 73.194905 
L 184.023958 74.314251 
L 182.282292 75.424121 
L 180.540625 76.554575 
L 178.798958 77.838421 
L 177.057292 79.115696 
L 175.315625 80.306121 
L 173.573958 81.550778 
L 171.832292 82.675066 
L 170.090625 83.857116 
L 168.348958 85.039171 
L 166.607292 86.222366 
L 164.865625 87.438108 
L 163.123958 88.796943 
L 161.382292 89.923121 
L 159.640625 90.968085 
L 157.898958 92.156312 
L 156.157292 93.448045 
L 154.415625 94.617725 
L 152.673958 95.909009 
L 150.932292 96.885591 
L 149.190625 98.09897 
L 147.448958 99.091022 
L 145.707292 99.951621 
L 143.965625 101.013887 
L 142.223958 102.123045 
L 140.482292 103.199495 
L 138.740625 104.29146 
L 136.998958 105.102077 
L 135.257292 106.276126 
L 133.515625 107.256309 
L 131.773958 108.407039 
L 130.032292 109.285983 
L 128.290625 110.036822 
L 126.548958 110.800139 
L 124.807292 111.921912 
L 123.065625 112.885821 
L 121.323958 113.646964 
L 119.582292 114.46221 
L 117.840625 115.100818 
L 116.098958 115.806829 
L 114.357292 116.589927 
L 112.615625 117.202722 
L 110.873958 117.874898 
L 109.132292 118.182947 
L 107.390625 118.651169 
L 105.648958 119.355069 
L 103.907292 119.900912 
L 102.165625 120.466295 
L 100.423958 121.123228 
L 98.682292 121.54645 
L 96.940625 121.697075 
L 95.198958 121.974188 
L 93.457292 122.314093 
L 91.715625 122.899061 
L 89.973958 122.832153 
L 88.232292 123.483895 
L 86.490625 123.847386 
L 84.748958 124.119639 
L 83.007292 124.298017 
L 81.265625 124.371855 
L 79.523958 124.428706 
L 77.782292 124.535239 
L 76.040625 124.615104 
L 74.298958 124.762419 
L 72.557292 125.040605 
L 70.815625 125.018788 
L 69.073958 125.144701 
L 67.332292 125.273399 
L 65.590625 125.150018 
L 63.848958 125.1677 
L 62.107292 125.240239 
L 60.365625 125.319384 
L 58.623958 125.39788 
L 56.882292 125.474065 
L 55.140625 125.555525 
L 53.398958 125.51468 
L 51.657292 125.390019 
L 49.915625 125.176411 
L 48.173958 125.041596 
L 46.432292 125.038648 
L 44.690625 125.17497 
L 42.948958 125.311291 
L 41.207292 125.249614 
L 39.465625 125.140022 
L 37.723958 125.030691 
L 35.982292 124.921359 
L 34.240625 125.002604 
z
" style="fill:#1f77b4;fill-opacity:0.15;"/>
   </g>
   <g id="matplotlib.axis_1">
    <g id="xtick_1">
     <g id="line2d_1">
      <defs>
       <path d="M 0 0 
L 0 3.5 
" id="m8b910e165a" style="stroke:#000000;stroke-width:0.8;"/>
      </defs>
      <g>
       <use style="stroke:#000000;stroke-width:0.8;" x="60.767548" xlink:href="#m8b910e165a" y="247.64"/>
      </g>
     </g>
     <g id="text_1">
      <!-- 2 -->
      <g transform="translate(57.586298 262.238437)scale(0.1 -0.1)">
       <defs>
        <path d="M 19.1875 8.296875 
L 53.609375 8.296875 
L 53.609375 0 
L 7.328125 0 
L 7.328125 8.296875 
Q 12.9375 14.109375 22.625 23.890625 
Q 32.328125 33.6875 34.8125 36.53125 
Q 39.546875 41.84375 41.421875 45.53125 
Q 43.3125 49.21875 43.3125 52.78125 
Q 43.3125 58.59375 39.234375 62.25 
Q 35.15625 65.921875 28.609375 65.921875 
Q 23.96875 65.921875 18.8125 64.3125 
Q 13.671875 62.703125 7.8125 59.421875 
L 7.8125 69.390625 
Q 13.765625 71.78125 18.9375 73 
Q 24.125 74.21875 28.421875 74.21875 
Q 39.75 74.21875 46.484375 68.546875 
Q 53.21875 62.890625 53.21875 53.421875 
Q 53.21875 48.921875 51.53125 44.890625 
Q 49.859375 40.875 45.40625 35.40625 
Q 44.1875 33.984375 37.640625 27.21875 
Q 31.109375 20.453125 19.1875 8.296875 
z
" id="DejaVuSans-50"/>
       </defs>
       <use xlink:href="#DejaVuSans-50"/>
      </g>
     </g>
    </g>
    <g id="xtick_2">
     <g id="line2d_2">
      <g>
       <use style="stroke:#000000;stroke-width:0.8;" x="113.821394" xlink:href="#m8b910e165a" y="247.64"/>
      </g>
     </g>
     <g id="text_2">
      <!-- 3 -->
      <g transform="translate(110.640144 262.238437)scale(0.1 -0.1)">
       <defs>
        <path d="M 40.578125 39.3125 
Q 47.65625 37.796875 51.625 33 
Q 55.609375 28.21875 55.609375 21.1875 
Q 55.609375 10.40625 48.1875 4.484375 
Q 40.765625 -1.421875 27.09375 -1.421875 
Q 22.515625 -1.421875 17.65625 -0.515625 
Q 12.796875 0.390625 7.625 2.203125 
L 7.625 11.71875 
Q 11.71875 9.328125 16.59375 8.109375 
Q 21.484375 6.890625 26.8125 6.890625 
Q 36.078125 6.890625 40.9375 10.546875 
Q 45.796875 14.203125 45.796875 21.1875 
Q 45.796875 27.640625 41.28125 31.265625 
Q 36.765625 34.90625 28.71875 34.90625 
L 20.21875 34.90625 
L 20.21875 43.015625 
L 29.109375 43.015625 
Q 36.375 43.015625 40.234375 45.921875 
Q 44.09375 48.828125 44.09375 54.296875 
Q 44.09375 59.90625 40.109375 62.90625 
Q 36.140625 65.921875 28.71875 65.921875 
Q 24.65625 65.921875 20.015625 65.03125 
Q 15.375 64.15625 9.8125 62.3125 
L 9.8125 71.09375 
Q 15.4375 72.65625 20.34375 73.4375 
Q 25.25 74.21875 29.59375 74.21875 
Q 40.828125 74.21875 47.359375 69.109375 
Q 53.90625 64.015625 53.90625 55.328125 
Q 53.90625 49.265625 50.4375 45.09375 
Q 46.96875 40.921875 40.578125 39.3125 
z
" id="DejaVuSans-51"/>
       </defs>
       <use xlink:href="#DejaVuSans-51"/>
      </g>
     </g>
    </g>
    <g id="xtick_3">
     <g id="line2d_3">
      <g>
       <use style="stroke:#000000;stroke-width:0.8;" x="166.87524" xlink:href="#m8b910e165a" y="247.64"/>
      </g>
     </g>
     <g id="text_3">
      <!-- 4 -->
      <g transform="translate(163.69399 262.238437)scale(0.1 -0.1)">
       <defs>
        <path d="M 37.796875 64.3125 
L 12.890625 25.390625 
L 37.796875 25.390625 
z
M 35.203125 72.90625 
L 47.609375 72.90625 
L 47.609375 25.390625 
L 58.015625 25.390625 
L 58.015625 17.1875 
L 47.609375 17.1875 
L 47.609375 0 
L 37.796875 0 
L 37.796875 17.1875 
L 4.890625 17.1875 
L 4.890625 26.703125 
z
" id="DejaVuSans-52"/>
       </defs>
       <use xlink:href="#DejaVuSans-52"/>
      </g>
     </g>
    </g>
    <g id="text_4">
     <!-- E -->
     <g transform="translate(117.29375 275.916562)scale(0.1 -0.1)">
      <defs>
       <path d="M 9.8125 72.90625 
L 55.90625 72.90625 
L 55.90625 64.59375 
L 19.671875 64.59375 
L 19.671875 43.015625 
L 54.390625 43.015625 
L 54.390625 34.71875 
L 19.671875 34.71875 
L 19.671875 8.296875 
L 56.78125 8.296875 
L 56.78125 0 
L 9.8125 0 
z
" id="DejaVuSans-69"/>
      </defs>
      <use xlink:href="#DejaVuSans-69"/>
     </g>
    </g>
   </g>
   <g id="matplotlib.axis_2">
    <g id="ytick_1">
     <g id="line2d_4">
      <defs>
       <path d="M 0 0 
L -3.5 0 
" id="m889ac1d8cd" style="stroke:#000000;stroke-width:0.8;"/>
      </defs>
      <g>
       <use style="stroke:#000000;stroke-width:0.8;" x="34.240625" xlink:href="#m889ac1d8cd" y="238.567273"/>
      </g>
     </g>
     <g id="text_5">
      <!-- 3 -->
      <g transform="translate(20.878125 242.366491)scale(0.1 -0.1)">
       <use xlink:href="#DejaVuSans-51"/>
      </g>
     </g>
    </g>
    <g id="ytick_2">
     <g id="line2d_5">
      <g>
       <use style="stroke:#000000;stroke-width:0.8;" x="34.240625" xlink:href="#m889ac1d8cd" y="198.024543"/>
      </g>
     </g>
     <g id="text_6">
      <!-- 4 -->
      <g transform="translate(20.878125 201.823761)scale(0.1 -0.1)">
       <use xlink:href="#DejaVuSans-52"/>
      </g>
     </g>
    </g>
    <g id="ytick_3">
     <g id="line2d_6">
      <g>
       <use style="stroke:#000000;stroke-width:0.8;" x="34.240625" xlink:href="#m889ac1d8cd" y="157.481812"/>
      </g>
     </g>
     <g id="text_7">
      <!-- 5 -->
      <g transform="translate(20.878125 161.281031)scale(0.1 -0.1)">
       <defs>
        <path d="M 10.796875 72.90625 
L 49.515625 72.90625 
L 49.515625 64.59375 
L 19.828125 64.59375 
L 19.828125 46.734375 
Q 21.96875 47.46875 24.109375 47.828125 
Q 26.265625 48.1875 28.421875 48.1875 
Q 40.625 48.1875 47.75 41.5 
Q 54.890625 34.8125 54.890625 23.390625 
Q 54.890625 11.625 47.5625 5.09375 
Q 40.234375 -1.421875 26.90625 -1.421875 
Q 22.3125 -1.421875 17.546875 -0.640625 
Q 12.796875 0.140625 7.71875 1.703125 
L 7.71875 11.625 
Q 12.109375 9.234375 16.796875 8.0625 
Q 21.484375 6.890625 26.703125 6.890625 
Q 35.15625 6.890625 40.078125 11.328125 
Q 45.015625 15.765625 45.015625 23.390625 
Q 45.015625 31 40.078125 35.4375 
Q 35.15625 39.890625 26.703125 39.890625 
Q 22.75 39.890625 18.8125 39.015625 
Q 14.890625 38.140625 10.796875 36.28125 
z
" id="DejaVuSans-53"/>
       </defs>
       <use xlink:href="#DejaVuSans-53"/>
      </g>
     </g>
    </g>
    <g id="ytick_4">
     <g id="line2d_7">
      <g>
       <use style="stroke:#000000;stroke-width:0.8;" x="34.240625" xlink:href="#m889ac1d8cd" y="116.939082"/>
      </g>
     </g>
     <g id="text_8">
      <!-- 6 -->
      <g transform="translate(20.878125 120.738301)scale(0.1 -0.1)">
       <defs>
        <path d="M 33.015625 40.375 
Q 26.375 40.375 22.484375 35.828125 
Q 18.609375 31.296875 18.609375 23.390625 
Q 18.609375 15.53125 22.484375 10.953125 
Q 26.375 6.390625 33.015625 6.390625 
Q 39.65625 6.390625 43.53125 10.953125 
Q 47.40625 15.53125 47.40625 23.390625 
Q 47.40625 31.296875 43.53125 35.828125 
Q 39.65625 40.375 33.015625 40.375 
z
M 52.59375 71.296875 
L 52.59375 62.3125 
Q 48.875 64.0625 45.09375 64.984375 
Q 41.3125 65.921875 37.59375 65.921875 
Q 27.828125 65.921875 22.671875 59.328125 
Q 17.53125 52.734375 16.796875 39.40625 
Q 19.671875 43.65625 24.015625 45.921875 
Q 28.375 48.1875 33.59375 48.1875 
Q 44.578125 48.1875 50.953125 41.515625 
Q 57.328125 34.859375 57.328125 23.390625 
Q 57.328125 12.15625 50.6875 5.359375 
Q 44.046875 -1.421875 33.015625 -1.421875 
Q 20.359375 -1.421875 13.671875 8.265625 
Q 6.984375 17.96875 6.984375 36.375 
Q 6.984375 53.65625 15.1875 63.9375 
Q 23.390625 74.21875 37.203125 74.21875 
Q 40.921875 74.21875 44.703125 73.484375 
Q 48.484375 72.75 52.59375 71.296875 
z
" id="DejaVuSans-54"/>
       </defs>
       <use xlink:href="#DejaVuSans-54"/>
      </g>
     </g>
    </g>
    <g id="ytick_5">
     <g id="line2d_8">
      <g>
       <use style="stroke:#000000;stroke-width:0.8;" x="34.240625" xlink:href="#m889ac1d8cd" y="76.396352"/>
      </g>
     </g>
     <g id="text_9">
      <!-- 7 -->
      <g transform="translate(20.878125 80.195571)scale(0.1 -0.1)">
       <defs>
        <path d="M 8.203125 72.90625 
L 55.078125 72.90625 
L 55.078125 68.703125 
L 28.609375 0 
L 18.3125 0 
L 43.21875 64.59375 
L 8.203125 64.59375 
z
" id="DejaVuSans-55"/>
       </defs>
       <use xlink:href="#DejaVuSans-55"/>
      </g>
     </g>
    </g>
    <g id="text_10">
     <!-- Offering1 -->
     <g transform="translate(14.798438 171.341562)rotate(-90)scale(0.1 -0.1)">
      <defs>
       <path d="M 39.40625 66.21875 
Q 28.65625 66.21875 22.328125 58.203125 
Q 16.015625 50.203125 16.015625 36.375 
Q 16.015625 22.609375 22.328125 14.59375 
Q 28.65625 6.59375 39.40625 6.59375 
Q 50.140625 6.59375 56.421875 14.59375 
Q 62.703125 22.609375 62.703125 36.375 
Q 62.703125 50.203125 56.421875 58.203125 
Q 50.140625 66.21875 39.40625 66.21875 
z
M 39.40625 74.21875 
Q 54.734375 74.21875 63.90625 63.9375 
Q 73.09375 53.65625 73.09375 36.375 
Q 73.09375 19.140625 63.90625 8.859375 
Q 54.734375 -1.421875 39.40625 -1.421875 
Q 24.03125 -1.421875 14.8125 8.828125 
Q 5.609375 19.09375 5.609375 36.375 
Q 5.609375 53.65625 14.8125 63.9375 
Q 24.03125 74.21875 39.40625 74.21875 
z
" id="DejaVuSans-79"/>
       <path d="M 37.109375 75.984375 
L 37.109375 68.5 
L 28.515625 68.5 
Q 23.6875 68.5 21.796875 66.546875 
Q 19.921875 64.59375 19.921875 59.515625 
L 19.921875 54.6875 
L 34.71875 54.6875 
L 34.71875 47.703125 
L 19.921875 47.703125 
L 19.921875 0 
L 10.890625 0 
L 10.890625 47.703125 
L 2.296875 47.703125 
L 2.296875 54.6875 
L 10.890625 54.6875 
L 10.890625 58.5 
Q 10.890625 67.625 15.140625 71.796875 
Q 19.390625 75.984375 28.609375 75.984375 
z
" id="DejaVuSans-102"/>
       <path d="M 56.203125 29.59375 
L 56.203125 25.203125 
L 14.890625 25.203125 
Q 15.484375 15.921875 20.484375 11.0625 
Q 25.484375 6.203125 34.421875 6.203125 
Q 39.59375 6.203125 44.453125 7.46875 
Q 49.3125 8.734375 54.109375 11.28125 
L 54.109375 2.78125 
Q 49.265625 0.734375 44.1875 -0.34375 
Q 39.109375 -1.421875 33.890625 -1.421875 
Q 20.796875 -1.421875 13.15625 6.1875 
Q 5.515625 13.8125 5.515625 26.8125 
Q 5.515625 40.234375 12.765625 48.109375 
Q 20.015625 56 32.328125 56 
Q 43.359375 56 49.78125 48.890625 
Q 56.203125 41.796875 56.203125 29.59375 
z
M 47.21875 32.234375 
Q 47.125 39.59375 43.09375 43.984375 
Q 39.0625 48.390625 32.421875 48.390625 
Q 24.90625 48.390625 20.390625 44.140625 
Q 15.875 39.890625 15.1875 32.171875 
z
" id="DejaVuSans-101"/>
       <path d="M 41.109375 46.296875 
Q 39.59375 47.171875 37.8125 47.578125 
Q 36.03125 48 33.890625 48 
Q 26.265625 48 22.1875 43.046875 
Q 18.109375 38.09375 18.109375 28.8125 
L 18.109375 0 
L 9.078125 0 
L 9.078125 54.6875 
L 18.109375 54.6875 
L 18.109375 46.1875 
Q 20.953125 51.171875 25.484375 53.578125 
Q 30.03125 56 36.53125 56 
Q 37.453125 56 38.578125 55.875 
Q 39.703125 55.765625 41.0625 55.515625 
z
" id="DejaVuSans-114"/>
       <path d="M 9.421875 54.6875 
L 18.40625 54.6875 
L 18.40625 0 
L 9.421875 0 
z
M 9.421875 75.984375 
L 18.40625 75.984375 
L 18.40625 64.59375 
L 9.421875 64.59375 
z
" id="DejaVuSans-105"/>
       <path d="M 54.890625 33.015625 
L 54.890625 0 
L 45.90625 0 
L 45.90625 32.71875 
Q 45.90625 40.484375 42.875 44.328125 
Q 39.84375 48.1875 33.796875 48.1875 
Q 26.515625 48.1875 22.3125 43.546875 
Q 18.109375 38.921875 18.109375 30.90625 
L 18.109375 0 
L 9.078125 0 
L 9.078125 54.6875 
L 18.109375 54.6875 
L 18.109375 46.1875 
Q 21.34375 51.125 25.703125 53.5625 
Q 30.078125 56 35.796875 56 
Q 45.21875 56 50.046875 50.171875 
Q 54.890625 44.34375 54.890625 33.015625 
z
" id="DejaVuSans-110"/>
       <path d="M 45.40625 27.984375 
Q 45.40625 37.75 41.375 43.109375 
Q 37.359375 48.484375 30.078125 48.484375 
Q 22.859375 48.484375 18.828125 43.109375 
Q 14.796875 37.75 14.796875 27.984375 
Q 14.796875 18.265625 18.828125 12.890625 
Q 22.859375 7.515625 30.078125 7.515625 
Q 37.359375 7.515625 41.375 12.890625 
Q 45.40625 18.265625 45.40625 27.984375 
z
M 54.390625 6.78125 
Q 54.390625 -7.171875 48.1875 -13.984375 
Q 42 -20.796875 29.203125 -20.796875 
Q 24.46875 -20.796875 20.265625 -20.09375 
Q 16.0625 -19.390625 12.109375 -17.921875 
L 12.109375 -9.1875 
Q 16.0625 -11.328125 19.921875 -12.34375 
Q 23.78125 -13.375 27.78125 -13.375 
Q 36.625 -13.375 41.015625 -8.765625 
Q 45.40625 -4.15625 45.40625 5.171875 
L 45.40625 9.625 
Q 42.625 4.78125 38.28125 2.390625 
Q 33.9375 0 27.875 0 
Q 17.828125 0 11.671875 7.65625 
Q 5.515625 15.328125 5.515625 27.984375 
Q 5.515625 40.671875 11.671875 48.328125 
Q 17.828125 56 27.875 56 
Q 33.9375 56 38.28125 53.609375 
Q 42.625 51.21875 45.40625 46.390625 
L 45.40625 54.6875 
L 54.390625 54.6875 
z
" id="DejaVuSans-103"/>
       <path d="M 12.40625 8.296875 
L 28.515625 8.296875 
L 28.515625 63.921875 
L 10.984375 60.40625 
L 10.984375 69.390625 
L 28.421875 72.90625 
L 38.28125 72.90625 
L 38.28125 8.296875 
L 54.390625 8.296875 
L 54.390625 0 
L 12.40625 0 
z
" id="DejaVuSans-49"/>
      </defs>
      <use xlink:href="#DejaVuSans-79"/>
      <use x="78.710938" xlink:href="#DejaVuSans-102"/>
      <use x="113.916016" xlink:href="#DejaVuSans-102"/>
      <use x="149.121094" xlink:href="#DejaVuSans-101"/>
      <use x="210.644531" xlink:href="#DejaVuSans-114"/>
      <use x="251.757812" xlink:href="#DejaVuSans-105"/>
      <use x="279.541016" xlink:href="#DejaVuSans-110"/>
      <use x="342.919922" xlink:href="#DejaVuSans-103"/>
      <use x="406.396484" xlink:href="#DejaVuSans-49"/>
     </g>
    </g>
   </g>
   <g id="line2d_9">
    <path clip-path="url(#p2926ec5dc3)" d="M 34.240625 164.57886 
L 35.982292 163.78627 
L 37.723958 162.99368 
L 39.465625 162.20109 
L 41.207292 161.4085 
L 42.948958 160.61591 
L 44.690625 159.82332 
L 46.432292 159.03073 
L 48.173958 158.238141 
L 49.915625 157.445551 
L 51.657292 156.652961 
L 53.398958 155.860371 
L 55.140625 155.067781 
L 56.882292 154.275191 
L 58.623958 153.482601 
L 60.365625 152.690011 
L 62.107292 151.897421 
L 63.848958 151.104831 
L 65.590625 150.312241 
L 67.332292 149.519651 
L 69.073958 148.727062 
L 70.815625 147.934472 
L 72.557292 147.141882 
L 74.298958 146.349292 
L 76.040625 145.556702 
L 77.782292 144.764112 
L 79.523958 143.971522 
L 81.265625 143.178932 
L 83.007292 142.386342 
L 84.748958 141.593752 
L 86.490625 140.801162 
L 88.232292 140.008572 
L 89.973958 139.215983 
L 91.715625 138.423393 
L 93.457292 137.630803 
L 95.198958 136.838213 
L 96.940625 136.045623 
L 98.682292 135.253033 
L 100.423958 134.460443 
L 102.165625 133.667853 
L 103.907292 132.875263 
L 105.648958 132.082673 
L 107.390625 131.290083 
L 109.132292 130.497494 
L 110.873958 129.704904 
L 112.615625 128.912314 
L 114.357292 128.119724 
L 116.098958 127.327134 
L 117.840625 126.534544 
L 119.582292 125.741954 
L 121.323958 124.949364 
L 123.065625 124.156774 
L 124.807292 123.364184 
L 126.548958 122.571594 
L 128.290625 121.779004 
L 130.032292 120.986415 
L 131.773958 120.193825 
L 133.515625 119.401235 
L 135.257292 118.608645 
L 136.998958 117.816055 
L 138.740625 117.023465 
L 140.482292 116.230875 
L 142.223958 115.438285 
L 143.965625 114.645695 
L 145.707292 113.853105 
L 147.448958 113.060515 
L 149.190625 112.267925 
L 150.932292 111.475336 
L 152.673958 110.682746 
L 154.415625 109.890156 
L 156.157292 109.097566 
L 157.898958 108.304976 
L 159.640625 107.512386 
L 161.382292 106.719796 
L 163.123958 105.927206 
L 164.865625 105.134616 
L 166.607292 104.342026 
L 168.348958 103.549436 
L 170.090625 102.756847 
L 171.832292 101.964257 
L 173.573958 101.171667 
L 175.315625 100.379077 
L 177.057292 99.586487 
L 178.798958 98.793897 
L 180.540625 98.001307 
L 182.282292 97.208717 
L 184.023958 96.416127 
L 185.765625 95.623537 
L 187.507292 94.830947 
L 189.248958 94.038357 
L 190.990625 93.245768 
L 192.732292 92.453178 
L 194.473958 91.660588 
L 196.215625 90.867998 
L 197.957292 90.075408 
L 199.698958 89.282818 
L 201.440625 88.490228 
L 203.182292 87.697638 
L 204.923958 86.905048 
L 206.665625 86.112458 
" style="fill:none;stroke:#1f77b4;stroke-linecap:square;stroke-width:2.25;"/>
   </g>
   <g id="patch_3">
    <path d="M 34.240625 247.64 
L 34.240625 48.04 
" style="fill:none;stroke:#000000;stroke-linecap:square;stroke-linejoin:miter;stroke-width:0.8;"/>
   </g>
   <g id="patch_4">
    <path d="M 206.665625 247.64 
L 206.665625 48.04 
" style="fill:none;stroke:#000000;stroke-linecap:square;stroke-linejoin:miter;stroke-width:0.8;"/>
   </g>
   <g id="patch_5">
    <path d="M 34.240625 247.64 
L 206.665625 247.64 
" style="fill:none;stroke:#000000;stroke-linecap:square;stroke-linejoin:miter;stroke-width:0.8;"/>
   </g>
   <g id="patch_6">
    <path d="M 34.240625 48.04 
L 206.665625 48.04 
" style="fill:none;stroke:#000000;stroke-linecap:square;stroke-linejoin:miter;stroke-width:0.8;"/>
   </g>
   <g id="text_11">
    <!-- Group A -->
    <g transform="translate(34.240625 42.04)scale(0.12 -0.12)">
     <defs>
      <path d="M 59.515625 10.40625 
L 59.515625 29.984375 
L 43.40625 29.984375 
L 43.40625 38.09375 
L 69.28125 38.09375 
L 69.28125 6.78125 
Q 63.578125 2.734375 56.6875 0.65625 
Q 49.8125 -1.421875 42 -1.421875 
Q 24.90625 -1.421875 15.25 8.5625 
Q 5.609375 18.5625 5.609375 36.375 
Q 5.609375 54.25 15.25 64.234375 
Q 24.90625 74.21875 42 74.21875 
Q 49.125 74.21875 55.546875 72.453125 
Q 61.96875 70.703125 67.390625 67.28125 
L 67.390625 56.78125 
Q 61.921875 61.421875 55.765625 63.765625 
Q 49.609375 66.109375 42.828125 66.109375 
Q 29.4375 66.109375 22.71875 58.640625 
Q 16.015625 51.171875 16.015625 36.375 
Q 16.015625 21.625 22.71875 14.15625 
Q 29.4375 6.6875 42.828125 6.6875 
Q 48.046875 6.6875 52.140625 7.59375 
Q 56.25 8.5 59.515625 10.40625 
z
" id="DejaVuSans-71"/>
      <path d="M 30.609375 48.390625 
Q 23.390625 48.390625 19.1875 42.75 
Q 14.984375 37.109375 14.984375 27.296875 
Q 14.984375 17.484375 19.15625 11.84375 
Q 23.34375 6.203125 30.609375 6.203125 
Q 37.796875 6.203125 41.984375 11.859375 
Q 46.1875 17.53125 46.1875 27.296875 
Q 46.1875 37.015625 41.984375 42.703125 
Q 37.796875 48.390625 30.609375 48.390625 
z
M 30.609375 56 
Q 42.328125 56 49.015625 48.375 
Q 55.71875 40.765625 55.71875 27.296875 
Q 55.71875 13.875 49.015625 6.21875 
Q 42.328125 -1.421875 30.609375 -1.421875 
Q 18.84375 -1.421875 12.171875 6.21875 
Q 5.515625 13.875 5.515625 27.296875 
Q 5.515625 40.765625 12.171875 48.375 
Q 18.84375 56 30.609375 56 
z
" id="DejaVuSans-111"/>
      <path d="M 8.5 21.578125 
L 8.5 54.6875 
L 17.484375 54.6875 
L 17.484375 21.921875 
Q 17.484375 14.15625 20.5 10.265625 
Q 23.53125 6.390625 29.59375 6.390625 
Q 36.859375 6.390625 41.078125 11.03125 
Q 45.3125 15.671875 45.3125 23.6875 
L 45.3125 54.6875 
L 54.296875 54.6875 
L 54.296875 0 
L 45.3125 0 
L 45.3125 8.40625 
Q 42.046875 3.421875 37.71875 1 
Q 33.40625 -1.421875 27.6875 -1.421875 
Q 18.265625 -1.421875 13.375 4.4375 
Q 8.5 10.296875 8.5 21.578125 
z
M 31.109375 56 
z
" id="DejaVuSans-117"/>
      <path d="M 18.109375 8.203125 
L 18.109375 -20.796875 
L 9.078125 -20.796875 
L 9.078125 54.6875 
L 18.109375 54.6875 
L 18.109375 46.390625 
Q 20.953125 51.265625 25.265625 53.625 
Q 29.59375 56 35.59375 56 
Q 45.5625 56 51.78125 48.09375 
Q 58.015625 40.1875 58.015625 27.296875 
Q 58.015625 14.40625 51.78125 6.484375 
Q 45.5625 -1.421875 35.59375 -1.421875 
Q 29.59375 -1.421875 25.265625 0.953125 
Q 20.953125 3.328125 18.109375 8.203125 
z
M 48.6875 27.296875 
Q 48.6875 37.203125 44.609375 42.84375 
Q 40.53125 48.484375 33.40625 48.484375 
Q 26.265625 48.484375 22.1875 42.84375 
Q 18.109375 37.203125 18.109375 27.296875 
Q 18.109375 17.390625 22.1875 11.75 
Q 26.265625 6.109375 33.40625 6.109375 
Q 40.53125 6.109375 44.609375 11.75 
Q 48.6875 17.390625 48.6875 27.296875 
z
" id="DejaVuSans-112"/>
      <path id="DejaVuSans-32"/>
      <path d="M 34.1875 63.1875 
L 20.796875 26.90625 
L 47.609375 26.90625 
z
M 28.609375 72.90625 
L 39.796875 72.90625 
L 67.578125 0 
L 57.328125 0 
L 50.6875 18.703125 
L 17.828125 18.703125 
L 11.1875 0 
L 0.78125 0 
z
" id="DejaVuSans-65"/>
     </defs>
     <use xlink:href="#DejaVuSans-71"/>
     <use x="77.490234" xlink:href="#DejaVuSans-114"/>
     <use x="116.353516" xlink:href="#DejaVuSans-111"/>
     <use x="177.535156" xlink:href="#DejaVuSans-117"/>
     <use x="240.914062" xlink:href="#DejaVuSans-112"/>
     <use x="304.390625" xlink:href="#DejaVuSans-32"/>
     <use x="336.177734" xlink:href="#DejaVuSans-65"/>
    </g>
   </g>
  </g>
  <g id="axes_2">
   <g id="patch_7">
    <path d="M 244.840625 247.64 
L 417.265625 247.64 
L 417.265625 48.04 
L 244.840625 48.04 
z
" style="fill:#ffffff;"/>
   </g>
   <g id="PathCollection_2">
    <g clip-path="url(#p349216d9b1)">
     <use style="fill:#1f77b4;fill-opacity:0.8;stroke:#1f77b4;stroke-opacity:0.8;" x="244.840625" xlink:href="#m6deb3409a0" y="181.754612"/>
     <use style="fill:#1f77b4;fill-opacity:0.8;stroke:#1f77b4;stroke-opacity:0.8;" x="258.104087" xlink:href="#m6deb3409a0" y="124.941951"/>
     <use style="fill:#1f77b4;fill-opacity:0.8;stroke:#1f77b4;stroke-opacity:0.8;" x="377.47524" xlink:href="#m6deb3409a0" y="68.129291"/>
     <use style="fill:#1f77b4;fill-opacity:0.8;stroke:#1f77b4;stroke-opacity:0.8;" x="337.684856" xlink:href="#m6deb3409a0" y="153.348282"/>
     <use style="fill:#1f77b4;fill-opacity:0.8;stroke:#1f77b4;stroke-opacity:0.8;" x="311.157933" xlink:href="#m6deb3409a0" y="68.129291"/>
     <use style="fill:#1f77b4;fill-opacity:0.8;stroke:#1f77b4;stroke-opacity:0.8;" x="377.47524" xlink:href="#m6deb3409a0" y="68.129291"/>
     <use style="fill:#1f77b4;fill-opacity:0.8;stroke:#1f77b4;stroke-opacity:0.8;" x="311.157933" xlink:href="#m6deb3409a0" y="96.535621"/>
     <use style="fill:#1f77b4;fill-opacity:0.8;stroke:#1f77b4;stroke-opacity:0.8;" x="337.684856" xlink:href="#m6deb3409a0" y="210.160942"/>
     <use style="fill:#1f77b4;fill-opacity:0.8;stroke:#1f77b4;stroke-opacity:0.8;" x="337.684856" xlink:href="#m6deb3409a0" y="68.129291"/>
     <use style="fill:#1f77b4;fill-opacity:0.8;stroke:#1f77b4;stroke-opacity:0.8;" x="364.211779" xlink:href="#m6deb3409a0" y="68.129291"/>
     <use style="fill:#1f77b4;fill-opacity:0.8;stroke:#1f77b4;stroke-opacity:0.8;" x="337.684856" xlink:href="#m6deb3409a0" y="124.941951"/>
     <use style="fill:#1f77b4;fill-opacity:0.8;stroke:#1f77b4;stroke-opacity:0.8;" x="377.47524" xlink:href="#m6deb3409a0" y="96.535621"/>
     <use style="fill:#1f77b4;fill-opacity:0.8;stroke:#1f77b4;stroke-opacity:0.8;" x="337.684856" xlink:href="#m6deb3409a0" y="96.535621"/>
     <use style="fill:#1f77b4;fill-opacity:0.8;stroke:#1f77b4;stroke-opacity:0.8;" x="390.738702" xlink:href="#m6deb3409a0" y="68.129291"/>
     <use style="fill:#1f77b4;fill-opacity:0.8;stroke:#1f77b4;stroke-opacity:0.8;" x="350.948317" xlink:href="#m6deb3409a0" y="68.129291"/>
     <use style="fill:#1f77b4;fill-opacity:0.8;stroke:#1f77b4;stroke-opacity:0.8;" x="390.738702" xlink:href="#m6deb3409a0" y="96.535621"/>
     <use style="fill:#1f77b4;fill-opacity:0.8;stroke:#1f77b4;stroke-opacity:0.8;" x="350.948317" xlink:href="#m6deb3409a0" y="124.941951"/>
     <use style="fill:#1f77b4;fill-opacity:0.8;stroke:#1f77b4;stroke-opacity:0.8;" x="311.157933" xlink:href="#m6deb3409a0" y="96.535621"/>
     <use style="fill:#1f77b4;fill-opacity:0.8;stroke:#1f77b4;stroke-opacity:0.8;" x="364.211779" xlink:href="#m6deb3409a0" y="96.535621"/>
     <use style="fill:#1f77b4;fill-opacity:0.8;stroke:#1f77b4;stroke-opacity:0.8;" x="271.367548" xlink:href="#m6deb3409a0" y="238.567273"/>
     <use style="fill:#1f77b4;fill-opacity:0.8;stroke:#1f77b4;stroke-opacity:0.8;" x="417.265625" xlink:href="#m6deb3409a0" y="124.941951"/>
     <use style="fill:#1f77b4;fill-opacity:0.8;stroke:#1f77b4;stroke-opacity:0.8;" x="311.157933" xlink:href="#m6deb3409a0" y="124.941951"/>
     <use style="fill:#1f77b4;fill-opacity:0.8;stroke:#1f77b4;stroke-opacity:0.8;" x="364.211779" xlink:href="#m6deb3409a0" y="96.535621"/>
     <use style="fill:#1f77b4;fill-opacity:0.8;stroke:#1f77b4;stroke-opacity:0.8;" x="377.47524" xlink:href="#m6deb3409a0" y="96.535621"/>
     <use style="fill:#1f77b4;fill-opacity:0.8;stroke:#1f77b4;stroke-opacity:0.8;" x="377.47524" xlink:href="#m6deb3409a0" y="96.535621"/>
     <use style="fill:#1f77b4;fill-opacity:0.8;stroke:#1f77b4;stroke-opacity:0.8;" x="311.157933" xlink:href="#m6deb3409a0" y="96.535621"/>
     <use style="fill:#1f77b4;fill-opacity:0.8;stroke:#1f77b4;stroke-opacity:0.8;" x="311.157933" xlink:href="#m6deb3409a0" y="124.941951"/>
     <use style="fill:#1f77b4;fill-opacity:0.8;stroke:#1f77b4;stroke-opacity:0.8;" x="311.157933" xlink:href="#m6deb3409a0" y="96.535621"/>
     <use style="fill:#1f77b4;fill-opacity:0.8;stroke:#1f77b4;stroke-opacity:0.8;" x="377.47524" xlink:href="#m6deb3409a0" y="124.941951"/>
     <use style="fill:#1f77b4;fill-opacity:0.8;stroke:#1f77b4;stroke-opacity:0.8;" x="377.47524" xlink:href="#m6deb3409a0" y="96.535621"/>
     <use style="fill:#1f77b4;fill-opacity:0.8;stroke:#1f77b4;stroke-opacity:0.8;" x="244.840625" xlink:href="#m6deb3409a0" y="124.941951"/>
     <use style="fill:#1f77b4;fill-opacity:0.8;stroke:#1f77b4;stroke-opacity:0.8;" x="324.421394" xlink:href="#m6deb3409a0" y="124.941951"/>
     <use style="fill:#1f77b4;fill-opacity:0.8;stroke:#1f77b4;stroke-opacity:0.8;" x="350.948317" xlink:href="#m6deb3409a0" y="96.535621"/>
     <use style="fill:#1f77b4;fill-opacity:0.8;stroke:#1f77b4;stroke-opacity:0.8;" x="311.157933" xlink:href="#m6deb3409a0" y="153.348282"/>
     <use style="fill:#1f77b4;fill-opacity:0.8;stroke:#1f77b4;stroke-opacity:0.8;" x="337.684856" xlink:href="#m6deb3409a0" y="68.129291"/>
     <use style="fill:#1f77b4;fill-opacity:0.8;stroke:#1f77b4;stroke-opacity:0.8;" x="324.421394" xlink:href="#m6deb3409a0" y="124.941951"/>
     <use style="fill:#1f77b4;fill-opacity:0.8;stroke:#1f77b4;stroke-opacity:0.8;" x="311.157933" xlink:href="#m6deb3409a0" y="124.941951"/>
     <use style="fill:#1f77b4;fill-opacity:0.8;stroke:#1f77b4;stroke-opacity:0.8;" x="364.211779" xlink:href="#m6deb3409a0" y="124.941951"/>
     <use style="fill:#1f77b4;fill-opacity:0.8;stroke:#1f77b4;stroke-opacity:0.8;" x="311.157933" xlink:href="#m6deb3409a0" y="124.941951"/>
     <use style="fill:#1f77b4;fill-opacity:0.8;stroke:#1f77b4;stroke-opacity:0.8;" x="311.157933" xlink:href="#m6deb3409a0" y="96.535621"/>
     <use style="fill:#1f77b4;fill-opacity:0.8;stroke:#1f77b4;stroke-opacity:0.8;" x="311.157933" xlink:href="#m6deb3409a0" y="68.129291"/>
     <use style="fill:#1f77b4;fill-opacity:0.8;stroke:#1f77b4;stroke-opacity:0.8;" x="377.47524" xlink:href="#m6deb3409a0" y="124.941951"/>
    </g>
   </g>
   <g id="PolyCollection_2">
    <path clip-path="url(#p349216d9b1)" d="M 244.840625 116.649415 
L 244.840625 177.757872 
L 246.582292 176.716572 
L 248.323958 175.675271 
L 250.065625 174.530783 
L 251.807292 173.358458 
L 253.548958 172.000243 
L 255.290625 170.763862 
L 257.032292 169.628389 
L 258.773958 168.492917 
L 260.515625 167.357444 
L 262.257292 166.321956 
L 263.998958 165.291006 
L 265.740625 164.139729 
L 267.482292 162.984484 
L 269.223958 161.680081 
L 270.965625 160.544608 
L 272.707292 159.409136 
L 274.448958 158.305294 
L 276.190625 157.138191 
L 277.932292 156.002718 
L 279.673958 154.866956 
L 281.415625 153.548606 
L 283.157292 152.275359 
L 284.898958 151.311984 
L 286.640625 150.28137 
L 288.382292 149.192244 
L 290.123958 148.057485 
L 291.865625 146.979927 
L 293.607292 145.918286 
L 295.348958 144.860372 
L 297.090625 143.809511 
L 298.832292 142.755491 
L 300.573958 141.77849 
L 302.315625 140.898804 
L 304.057292 140.029514 
L 305.798958 138.819061 
L 307.540625 137.746336 
L 309.282292 136.891457 
L 311.023958 135.868962 
L 312.765625 135.191 
L 314.507292 134.344215 
L 316.248958 133.468959 
L 317.990625 132.497105 
L 319.732292 131.437249 
L 321.473958 130.18061 
L 323.215625 129.278731 
L 324.957292 128.334228 
L 326.698958 127.304689 
L 328.440625 126.414398 
L 330.182292 125.659894 
L 331.923958 124.741148 
L 333.665625 123.928862 
L 335.407292 122.849759 
L 337.148958 122.055288 
L 338.890625 121.314426 
L 340.632292 120.482905 
L 342.373958 119.606471 
L 344.115625 119.102398 
L 345.857292 118.382986 
L 347.598958 117.659901 
L 349.340625 116.984972 
L 351.082292 116.184065 
L 352.823958 115.651862 
L 354.565625 114.768501 
L 356.307292 114.007281 
L 358.048958 113.158544 
L 359.790625 112.309621 
L 361.532292 111.602627 
L 363.273958 111.214922 
L 365.015625 110.763224 
L 366.757292 110.525196 
L 368.498958 110.052098 
L 370.240625 109.575897 
L 371.982292 109.006895 
L 373.723958 108.569697 
L 375.465625 108.228988 
L 377.207292 107.911859 
L 378.948958 107.601484 
L 380.690625 107.190398 
L 382.432292 106.765109 
L 384.173958 106.325408 
L 385.915625 106.031505 
L 387.657292 105.688882 
L 389.398958 105.36102 
L 391.140625 104.823915 
L 392.882292 104.679256 
L 394.623958 104.534597 
L 396.365625 104.270763 
L 398.107292 103.633836 
L 399.848958 103.504064 
L 401.590625 103.300771 
L 403.332292 102.952896 
L 405.073958 102.712889 
L 406.815625 102.558018 
L 408.557292 102.140448 
L 410.298958 101.931829 
L 412.040625 101.881329 
L 413.782292 101.614084 
L 415.523958 101.337998 
L 417.265625 100.930327 
L 417.265625 57.112727 
L 417.265625 57.112727 
L 415.523958 58.34575 
L 413.782292 59.505129 
L 412.040625 60.684055 
L 410.298958 61.871889 
L 408.557292 62.916298 
L 406.815625 64.020893 
L 405.073958 65.147987 
L 403.332292 66.152085 
L 401.590625 67.225764 
L 399.848958 68.278599 
L 398.107292 69.454153 
L 396.365625 70.647033 
L 394.623958 71.817274 
L 392.882292 72.955717 
L 391.140625 74.17963 
L 389.398958 75.16522 
L 387.657292 76.175422 
L 385.915625 77.045525 
L 384.173958 78.088344 
L 382.432292 79.131164 
L 380.690625 80.173983 
L 378.948958 81.023835 
L 377.207292 82.206857 
L 375.465625 83.105161 
L 373.723958 83.917657 
L 371.982292 84.822433 
L 370.240625 85.838913 
L 368.498958 86.885852 
L 366.757292 87.926121 
L 365.015625 89.060095 
L 363.273958 90.015002 
L 361.532292 90.945239 
L 359.790625 92.051026 
L 358.048958 92.982776 
L 356.307292 93.83633 
L 354.565625 94.494953 
L 352.823958 95.194507 
L 351.082292 95.781311 
L 349.340625 96.63435 
L 347.598958 97.20065 
L 345.857292 97.802766 
L 344.115625 98.284216 
L 342.373958 98.787854 
L 340.632292 99.461439 
L 338.890625 100.111808 
L 337.148958 100.63126 
L 335.407292 100.983923 
L 333.665625 101.839811 
L 331.923958 102.119863 
L 330.182292 102.685884 
L 328.440625 102.973275 
L 326.698958 103.579906 
L 324.957292 104.076632 
L 323.215625 104.402129 
L 321.473958 104.704818 
L 319.732292 104.924819 
L 317.990625 105.332576 
L 316.248958 105.645305 
L 314.507292 106.053032 
L 312.765625 106.482074 
L 311.023958 106.962578 
L 309.282292 107.307329 
L 307.540625 107.472493 
L 305.798958 107.64109 
L 304.057292 107.99094 
L 302.315625 108.187794 
L 300.573958 108.472151 
L 298.832292 108.788404 
L 297.090625 109.17353 
L 295.348958 109.414917 
L 293.607292 109.707473 
L 291.865625 109.725106 
L 290.123958 109.798727 
L 288.382292 110.24759 
L 286.640625 110.697576 
L 284.898958 111.150316 
L 283.157292 111.321939 
L 281.415625 111.493562 
L 279.673958 111.665185 
L 277.932292 111.836809 
L 276.190625 112.008432 
L 274.448958 112.300072 
L 272.707292 112.649679 
L 270.965625 113.00341 
L 269.223958 113.357141 
L 267.482292 113.65942 
L 265.740625 113.892622 
L 263.998958 114.123713 
L 262.257292 114.350877 
L 260.515625 114.580233 
L 258.773958 114.81234 
L 257.032292 115.044447 
L 255.290625 115.318547 
L 253.548958 115.628965 
L 251.807292 115.805902 
L 250.065625 115.965363 
L 248.323958 116.19338 
L 246.582292 116.421397 
L 244.840625 116.649415 
z
" style="fill:#1f77b4;fill-opacity:0.15;"/>
   </g>
   <g id="matplotlib.axis_3">
    <g id="xtick_4">
     <g id="line2d_10">
      <g>
       <use style="stroke:#000000;stroke-width:0.8;" x="284.63101" xlink:href="#m8b910e165a" y="247.64"/>
      </g>
     </g>
     <g id="text_12">
      <!-- 2 -->
      <g transform="translate(281.44976 262.238437)scale(0.1 -0.1)">
       <use xlink:href="#DejaVuSans-50"/>
      </g>
     </g>
    </g>
    <g id="xtick_5">
     <g id="line2d_11">
      <g>
       <use style="stroke:#000000;stroke-width:0.8;" x="337.684856" xlink:href="#m8b910e165a" y="247.64"/>
      </g>
     </g>
     <g id="text_13">
      <!-- 3 -->
      <g transform="translate(334.503606 262.238437)scale(0.1 -0.1)">
       <use xlink:href="#DejaVuSans-51"/>
      </g>
     </g>
    </g>
    <g id="xtick_6">
     <g id="line2d_12">
      <g>
       <use style="stroke:#000000;stroke-width:0.8;" x="390.738702" xlink:href="#m8b910e165a" y="247.64"/>
      </g>
     </g>
     <g id="text_14">
      <!-- 4 -->
      <g transform="translate(387.557452 262.238437)scale(0.1 -0.1)">
       <use xlink:href="#DejaVuSans-52"/>
      </g>
     </g>
    </g>
    <g id="text_15">
     <!-- E -->
     <g transform="translate(327.89375 275.916562)scale(0.1 -0.1)">
      <use xlink:href="#DejaVuSans-69"/>
     </g>
    </g>
   </g>
   <g id="matplotlib.axis_4">
    <g id="ytick_6">
     <g id="line2d_13">
      <g>
       <use style="stroke:#000000;stroke-width:0.8;" x="244.840625" xlink:href="#m889ac1d8cd" y="238.567273"/>
      </g>
     </g>
     <g id="text_16">
      <!-- 1 -->
      <g transform="translate(231.478125 242.366491)scale(0.1 -0.1)">
       <use xlink:href="#DejaVuSans-49"/>
      </g>
     </g>
    </g>
    <g id="ytick_7">
     <g id="line2d_14">
      <g>
       <use style="stroke:#000000;stroke-width:0.8;" x="244.840625" xlink:href="#m889ac1d8cd" y="210.160942"/>
      </g>
     </g>
     <g id="text_17">
      <!-- 2 -->
      <g transform="translate(231.478125 213.960161)scale(0.1 -0.1)">
       <use xlink:href="#DejaVuSans-50"/>
      </g>
     </g>
    </g>
    <g id="ytick_8">
     <g id="line2d_15">
      <g>
       <use style="stroke:#000000;stroke-width:0.8;" x="244.840625" xlink:href="#m889ac1d8cd" y="181.754612"/>
      </g>
     </g>
     <g id="text_18">
      <!-- 3 -->
      <g transform="translate(231.478125 185.553831)scale(0.1 -0.1)">
       <use xlink:href="#DejaVuSans-51"/>
      </g>
     </g>
    </g>
    <g id="ytick_9">
     <g id="line2d_16">
      <g>
       <use style="stroke:#000000;stroke-width:0.8;" x="244.840625" xlink:href="#m889ac1d8cd" y="153.348282"/>
      </g>
     </g>
     <g id="text_19">
      <!-- 4 -->
      <g transform="translate(231.478125 157.147501)scale(0.1 -0.1)">
       <use xlink:href="#DejaVuSans-52"/>
      </g>
     </g>
    </g>
    <g id="ytick_10">
     <g id="line2d_17">
      <g>
       <use style="stroke:#000000;stroke-width:0.8;" x="244.840625" xlink:href="#m889ac1d8cd" y="124.941951"/>
      </g>
     </g>
     <g id="text_20">
      <!-- 5 -->
      <g transform="translate(231.478125 128.74117)scale(0.1 -0.1)">
       <use xlink:href="#DejaVuSans-53"/>
      </g>
     </g>
    </g>
    <g id="ytick_11">
     <g id="line2d_18">
      <g>
       <use style="stroke:#000000;stroke-width:0.8;" x="244.840625" xlink:href="#m889ac1d8cd" y="96.535621"/>
      </g>
     </g>
     <g id="text_21">
      <!-- 6 -->
      <g transform="translate(231.478125 100.33484)scale(0.1 -0.1)">
       <use xlink:href="#DejaVuSans-54"/>
      </g>
     </g>
    </g>
    <g id="ytick_12">
     <g id="line2d_19">
      <g>
       <use style="stroke:#000000;stroke-width:0.8;" x="244.840625" xlink:href="#m889ac1d8cd" y="68.129291"/>
      </g>
     </g>
     <g id="text_22">
      <!-- 7 -->
      <g transform="translate(231.478125 71.92851)scale(0.1 -0.1)">
       <use xlink:href="#DejaVuSans-55"/>
      </g>
     </g>
    </g>
    <g id="text_23">
     <!-- Offering1 -->
     <g transform="translate(225.398437 171.341562)rotate(-90)scale(0.1 -0.1)">
      <use xlink:href="#DejaVuSans-79"/>
      <use x="78.710938" xlink:href="#DejaVuSans-102"/>
      <use x="113.916016" xlink:href="#DejaVuSans-102"/>
      <use x="149.121094" xlink:href="#DejaVuSans-101"/>
      <use x="210.644531" xlink:href="#DejaVuSans-114"/>
      <use x="251.757812" xlink:href="#DejaVuSans-105"/>
      <use x="279.541016" xlink:href="#DejaVuSans-110"/>
      <use x="342.919922" xlink:href="#DejaVuSans-103"/>
      <use x="406.396484" xlink:href="#DejaVuSans-49"/>
     </g>
    </g>
   </g>
   <g id="line2d_20">
    <path clip-path="url(#p349216d9b1)" d="M 244.840625 146.16765 
L 246.582292 145.498487 
L 248.323958 144.829324 
L 250.065625 144.160161 
L 251.807292 143.490998 
L 253.548958 142.821836 
L 255.290625 142.152673 
L 257.032292 141.48351 
L 258.773958 140.814347 
L 260.515625 140.145184 
L 262.257292 139.476021 
L 263.998958 138.806858 
L 265.740625 138.137696 
L 267.482292 137.468533 
L 269.223958 136.79937 
L 270.965625 136.130207 
L 272.707292 135.461044 
L 274.448958 134.791881 
L 276.190625 134.122719 
L 277.932292 133.453556 
L 279.673958 132.784393 
L 281.415625 132.11523 
L 283.157292 131.446067 
L 284.898958 130.776904 
L 286.640625 130.107742 
L 288.382292 129.438579 
L 290.123958 128.769416 
L 291.865625 128.100253 
L 293.607292 127.43109 
L 295.348958 126.761927 
L 297.090625 126.092764 
L 298.832292 125.423602 
L 300.573958 124.754439 
L 302.315625 124.085276 
L 304.057292 123.416113 
L 305.798958 122.74695 
L 307.540625 122.077787 
L 309.282292 121.408625 
L 311.023958 120.739462 
L 312.765625 120.070299 
L 314.507292 119.401136 
L 316.248958 118.731973 
L 317.990625 118.06281 
L 319.732292 117.393648 
L 321.473958 116.724485 
L 323.215625 116.055322 
L 324.957292 115.386159 
L 326.698958 114.716996 
L 328.440625 114.047833 
L 330.182292 113.37867 
L 331.923958 112.709508 
L 333.665625 112.040345 
L 335.407292 111.371182 
L 337.148958 110.702019 
L 338.890625 110.032856 
L 340.632292 109.363693 
L 342.373958 108.694531 
L 344.115625 108.025368 
L 345.857292 107.356205 
L 347.598958 106.687042 
L 349.340625 106.017879 
L 351.082292 105.348716 
L 352.823958 104.679554 
L 354.565625 104.010391 
L 356.307292 103.341228 
L 358.048958 102.672065 
L 359.790625 102.002902 
L 361.532292 101.333739 
L 363.273958 100.664576 
L 365.015625 99.995414 
L 366.757292 99.326251 
L 368.498958 98.657088 
L 370.240625 97.987925 
L 371.982292 97.318762 
L 373.723958 96.649599 
L 375.465625 95.980437 
L 377.207292 95.311274 
L 378.948958 94.642111 
L 380.690625 93.972948 
L 382.432292 93.303785 
L 384.173958 92.634622 
L 385.915625 91.96546 
L 387.657292 91.296297 
L 389.398958 90.627134 
L 391.140625 89.957971 
L 392.882292 89.288808 
L 394.623958 88.619645 
L 396.365625 87.950482 
L 398.107292 87.28132 
L 399.848958 86.612157 
L 401.590625 85.942994 
L 403.332292 85.273831 
L 405.073958 84.604668 
L 406.815625 83.935505 
L 408.557292 83.266343 
L 410.298958 82.59718 
L 412.040625 81.928017 
L 413.782292 81.258854 
L 415.523958 80.589691 
L 417.265625 79.920528 
" style="fill:none;stroke:#1f77b4;stroke-linecap:square;stroke-width:2.25;"/>
   </g>
   <g id="patch_8">
    <path d="M 244.840625 247.64 
L 244.840625 48.04 
" style="fill:none;stroke:#000000;stroke-linecap:square;stroke-linejoin:miter;stroke-width:0.8;"/>
   </g>
   <g id="patch_9">
    <path d="M 417.265625 247.64 
L 417.265625 48.04 
" style="fill:none;stroke:#000000;stroke-linecap:square;stroke-linejoin:miter;stroke-width:0.8;"/>
   </g>
   <g id="patch_10">
    <path d="M 244.840625 247.64 
L 417.265625 247.64 
" style="fill:none;stroke:#000000;stroke-linecap:square;stroke-linejoin:miter;stroke-width:0.8;"/>
   </g>
   <g id="patch_11">
    <path d="M 244.840625 48.04 
L 417.265625 48.04 
" style="fill:none;stroke:#000000;stroke-linecap:square;stroke-linejoin:miter;stroke-width:0.8;"/>
   </g>
   <g id="text_24">
    <!-- Group B -->
    <g transform="translate(244.840625 42.04)scale(0.12 -0.12)">
     <defs>
      <path d="M 19.671875 34.8125 
L 19.671875 8.109375 
L 35.5 8.109375 
Q 43.453125 8.109375 47.28125 11.40625 
Q 51.125 14.703125 51.125 21.484375 
Q 51.125 28.328125 47.28125 31.5625 
Q 43.453125 34.8125 35.5 34.8125 
z
M 19.671875 64.796875 
L 19.671875 42.828125 
L 34.28125 42.828125 
Q 41.5 42.828125 45.03125 45.53125 
Q 48.578125 48.25 48.578125 53.8125 
Q 48.578125 59.328125 45.03125 62.0625 
Q 41.5 64.796875 34.28125 64.796875 
z
M 9.8125 72.90625 
L 35.015625 72.90625 
Q 46.296875 72.90625 52.390625 68.21875 
Q 58.5 63.53125 58.5 54.890625 
Q 58.5 48.1875 55.375 44.234375 
Q 52.25 40.28125 46.1875 39.3125 
Q 53.46875 37.75 57.5 32.78125 
Q 61.53125 27.828125 61.53125 20.40625 
Q 61.53125 10.640625 54.890625 5.3125 
Q 48.25 0 35.984375 0 
L 9.8125 0 
z
" id="DejaVuSans-66"/>
     </defs>
     <use xlink:href="#DejaVuSans-71"/>
     <use x="77.490234" xlink:href="#DejaVuSans-114"/>
     <use x="116.353516" xlink:href="#DejaVuSans-111"/>
     <use x="177.535156" xlink:href="#DejaVuSans-117"/>
     <use x="240.914062" xlink:href="#DejaVuSans-112"/>
     <use x="304.390625" xlink:href="#DejaVuSans-32"/>
     <use x="336.177734" xlink:href="#DejaVuSans-66"/>
    </g>
   </g>
  </g>
  <g id="text_25">
   <!-- What is the likelihood that you would accept the chatbots offer to help find a bike? -->
   <g transform="translate(38.290111 13.529498)scale(0.0833 -0.0833)">
    <defs>
     <path d="M 3.328125 72.90625 
L 13.28125 72.90625 
L 28.609375 11.28125 
L 43.890625 72.90625 
L 54.984375 72.90625 
L 70.3125 11.28125 
L 85.59375 72.90625 
L 95.609375 72.90625 
L 77.296875 0 
L 64.890625 0 
L 49.515625 63.28125 
L 33.984375 0 
L 21.578125 0 
z
" id="DejaVuSans-87"/>
     <path d="M 54.890625 33.015625 
L 54.890625 0 
L 45.90625 0 
L 45.90625 32.71875 
Q 45.90625 40.484375 42.875 44.328125 
Q 39.84375 48.1875 33.796875 48.1875 
Q 26.515625 48.1875 22.3125 43.546875 
Q 18.109375 38.921875 18.109375 30.90625 
L 18.109375 0 
L 9.078125 0 
L 9.078125 75.984375 
L 18.109375 75.984375 
L 18.109375 46.1875 
Q 21.34375 51.125 25.703125 53.5625 
Q 30.078125 56 35.796875 56 
Q 45.21875 56 50.046875 50.171875 
Q 54.890625 44.34375 54.890625 33.015625 
z
" id="DejaVuSans-104"/>
     <path d="M 34.28125 27.484375 
Q 23.390625 27.484375 19.1875 25 
Q 14.984375 22.515625 14.984375 16.5 
Q 14.984375 11.71875 18.140625 8.90625 
Q 21.296875 6.109375 26.703125 6.109375 
Q 34.1875 6.109375 38.703125 11.40625 
Q 43.21875 16.703125 43.21875 25.484375 
L 43.21875 27.484375 
z
M 52.203125 31.203125 
L 52.203125 0 
L 43.21875 0 
L 43.21875 8.296875 
Q 40.140625 3.328125 35.546875 0.953125 
Q 30.953125 -1.421875 24.3125 -1.421875 
Q 15.921875 -1.421875 10.953125 3.296875 
Q 6 8.015625 6 15.921875 
Q 6 25.140625 12.171875 29.828125 
Q 18.359375 34.515625 30.609375 34.515625 
L 43.21875 34.515625 
L 43.21875 35.40625 
Q 43.21875 41.609375 39.140625 45 
Q 35.0625 48.390625 27.6875 48.390625 
Q 23 48.390625 18.546875 47.265625 
Q 14.109375 46.140625 10.015625 43.890625 
L 10.015625 52.203125 
Q 14.9375 54.109375 19.578125 55.046875 
Q 24.21875 56 28.609375 56 
Q 40.484375 56 46.34375 49.84375 
Q 52.203125 43.703125 52.203125 31.203125 
z
" id="DejaVuSans-97"/>
     <path d="M 18.3125 70.21875 
L 18.3125 54.6875 
L 36.8125 54.6875 
L 36.8125 47.703125 
L 18.3125 47.703125 
L 18.3125 18.015625 
Q 18.3125 11.328125 20.140625 9.421875 
Q 21.96875 7.515625 27.59375 7.515625 
L 36.8125 7.515625 
L 36.8125 0 
L 27.59375 0 
Q 17.1875 0 13.234375 3.875 
Q 9.28125 7.765625 9.28125 18.015625 
L 9.28125 47.703125 
L 2.6875 47.703125 
L 2.6875 54.6875 
L 9.28125 54.6875 
L 9.28125 70.21875 
z
" id="DejaVuSans-116"/>
     <path d="M 44.28125 53.078125 
L 44.28125 44.578125 
Q 40.484375 46.53125 36.375 47.5 
Q 32.28125 48.484375 27.875 48.484375 
Q 21.1875 48.484375 17.84375 46.4375 
Q 14.5 44.390625 14.5 40.28125 
Q 14.5 37.15625 16.890625 35.375 
Q 19.28125 33.59375 26.515625 31.984375 
L 29.59375 31.296875 
Q 39.15625 29.25 43.1875 25.515625 
Q 47.21875 21.78125 47.21875 15.09375 
Q 47.21875 7.46875 41.1875 3.015625 
Q 35.15625 -1.421875 24.609375 -1.421875 
Q 20.21875 -1.421875 15.453125 -0.5625 
Q 10.6875 0.296875 5.421875 2 
L 5.421875 11.28125 
Q 10.40625 8.6875 15.234375 7.390625 
Q 20.0625 6.109375 24.8125 6.109375 
Q 31.15625 6.109375 34.5625 8.28125 
Q 37.984375 10.453125 37.984375 14.40625 
Q 37.984375 18.0625 35.515625 20.015625 
Q 33.0625 21.96875 24.703125 23.78125 
L 21.578125 24.515625 
Q 13.234375 26.265625 9.515625 29.90625 
Q 5.8125 33.546875 5.8125 39.890625 
Q 5.8125 47.609375 11.28125 51.796875 
Q 16.75 56 26.8125 56 
Q 31.78125 56 36.171875 55.265625 
Q 40.578125 54.546875 44.28125 53.078125 
z
" id="DejaVuSans-115"/>
     <path d="M 9.421875 75.984375 
L 18.40625 75.984375 
L 18.40625 0 
L 9.421875 0 
z
" id="DejaVuSans-108"/>
     <path d="M 9.078125 75.984375 
L 18.109375 75.984375 
L 18.109375 31.109375 
L 44.921875 54.6875 
L 56.390625 54.6875 
L 27.390625 29.109375 
L 57.625 0 
L 45.90625 0 
L 18.109375 26.703125 
L 18.109375 0 
L 9.078125 0 
z
" id="DejaVuSans-107"/>
     <path d="M 45.40625 46.390625 
L 45.40625 75.984375 
L 54.390625 75.984375 
L 54.390625 0 
L 45.40625 0 
L 45.40625 8.203125 
Q 42.578125 3.328125 38.25 0.953125 
Q 33.9375 -1.421875 27.875 -1.421875 
Q 17.96875 -1.421875 11.734375 6.484375 
Q 5.515625 14.40625 5.515625 27.296875 
Q 5.515625 40.1875 11.734375 48.09375 
Q 17.96875 56 27.875 56 
Q 33.9375 56 38.25 53.625 
Q 42.578125 51.265625 45.40625 46.390625 
z
M 14.796875 27.296875 
Q 14.796875 17.390625 18.875 11.75 
Q 22.953125 6.109375 30.078125 6.109375 
Q 37.203125 6.109375 41.296875 11.75 
Q 45.40625 17.390625 45.40625 27.296875 
Q 45.40625 37.203125 41.296875 42.84375 
Q 37.203125 48.484375 30.078125 48.484375 
Q 22.953125 48.484375 18.875 42.84375 
Q 14.796875 37.203125 14.796875 27.296875 
z
" id="DejaVuSans-100"/>
     <path d="M 32.171875 -5.078125 
Q 28.375 -14.84375 24.75 -17.8125 
Q 21.140625 -20.796875 15.09375 -20.796875 
L 7.90625 -20.796875 
L 7.90625 -13.28125 
L 13.1875 -13.28125 
Q 16.890625 -13.28125 18.9375 -11.515625 
Q 21 -9.765625 23.484375 -3.21875 
L 25.09375 0.875 
L 2.984375 54.6875 
L 12.5 54.6875 
L 29.59375 11.921875 
L 46.6875 54.6875 
L 56.203125 54.6875 
z
" id="DejaVuSans-121"/>
     <path d="M 4.203125 54.6875 
L 13.1875 54.6875 
L 24.421875 12.015625 
L 35.59375 54.6875 
L 46.1875 54.6875 
L 57.421875 12.015625 
L 68.609375 54.6875 
L 77.59375 54.6875 
L 63.28125 0 
L 52.6875 0 
L 40.921875 44.828125 
L 29.109375 0 
L 18.5 0 
z
" id="DejaVuSans-119"/>
     <path d="M 48.78125 52.59375 
L 48.78125 44.1875 
Q 44.96875 46.296875 41.140625 47.34375 
Q 37.3125 48.390625 33.40625 48.390625 
Q 24.65625 48.390625 19.8125 42.84375 
Q 14.984375 37.3125 14.984375 27.296875 
Q 14.984375 17.28125 19.8125 11.734375 
Q 24.65625 6.203125 33.40625 6.203125 
Q 37.3125 6.203125 41.140625 7.25 
Q 44.96875 8.296875 48.78125 10.40625 
L 48.78125 2.09375 
Q 45.015625 0.34375 40.984375 -0.53125 
Q 36.96875 -1.421875 32.421875 -1.421875 
Q 20.0625 -1.421875 12.78125 6.34375 
Q 5.515625 14.109375 5.515625 27.296875 
Q 5.515625 40.671875 12.859375 48.328125 
Q 20.21875 56 33.015625 56 
Q 37.15625 56 41.109375 55.140625 
Q 45.0625 54.296875 48.78125 52.59375 
z
" id="DejaVuSans-99"/>
     <path d="M 48.6875 27.296875 
Q 48.6875 37.203125 44.609375 42.84375 
Q 40.53125 48.484375 33.40625 48.484375 
Q 26.265625 48.484375 22.1875 42.84375 
Q 18.109375 37.203125 18.109375 27.296875 
Q 18.109375 17.390625 22.1875 11.75 
Q 26.265625 6.109375 33.40625 6.109375 
Q 40.53125 6.109375 44.609375 11.75 
Q 48.6875 17.390625 48.6875 27.296875 
z
M 18.109375 46.390625 
Q 20.953125 51.265625 25.265625 53.625 
Q 29.59375 56 35.59375 56 
Q 45.5625 56 51.78125 48.09375 
Q 58.015625 40.1875 58.015625 27.296875 
Q 58.015625 14.40625 51.78125 6.484375 
Q 45.5625 -1.421875 35.59375 -1.421875 
Q 29.59375 -1.421875 25.265625 0.953125 
Q 20.953125 3.328125 18.109375 8.203125 
L 18.109375 0 
L 9.078125 0 
L 9.078125 75.984375 
L 18.109375 75.984375 
z
" id="DejaVuSans-98"/>
     <path d="M 12.703125 72.90625 
L 23 72.90625 
L 23 65.484375 
L 14.984375 49.90625 
L 8.6875 49.90625 
L 12.703125 65.484375 
z
" id="DejaVuSans-8217"/>
     <path d="M 19.09375 12.40625 
L 29 12.40625 
L 29 0 
L 19.09375 0 
z
M 28.71875 19.578125 
L 19.390625 19.578125 
L 19.390625 27.09375 
Q 19.390625 32.03125 20.75 35.203125 
Q 22.125 38.375 26.515625 42.578125 
L 30.90625 46.921875 
Q 33.6875 49.515625 34.9375 51.8125 
Q 36.1875 54.109375 36.1875 56.5 
Q 36.1875 60.84375 32.984375 63.53125 
Q 29.78125 66.21875 24.515625 66.21875 
Q 20.65625 66.21875 16.28125 64.5 
Q 11.921875 62.796875 7.171875 59.515625 
L 7.171875 68.703125 
Q 11.765625 71.484375 16.46875 72.84375 
Q 21.1875 74.21875 26.21875 74.21875 
Q 35.203125 74.21875 40.640625 69.484375 
Q 46.09375 64.75 46.09375 56.984375 
Q 46.09375 53.265625 44.328125 49.921875 
Q 42.578125 46.578125 38.1875 42.390625 
L 33.890625 38.1875 
Q 31.59375 35.890625 30.640625 34.59375 
Q 29.6875 33.296875 29.296875 32.078125 
Q 29 31.0625 28.859375 29.59375 
Q 28.71875 28.125 28.71875 25.59375 
z
" id="DejaVuSans-63"/>
    </defs>
    <use xlink:href="#DejaVuSans-87"/>
    <use x="98.876953" xlink:href="#DejaVuSans-104"/>
    <use x="162.255859" xlink:href="#DejaVuSans-97"/>
    <use x="223.535156" xlink:href="#DejaVuSans-116"/>
    <use x="262.744141" xlink:href="#DejaVuSans-32"/>
    <use x="294.53125" xlink:href="#DejaVuSans-105"/>
    <use x="322.314453" xlink:href="#DejaVuSans-115"/>
    <use x="374.414062" xlink:href="#DejaVuSans-32"/>
    <use x="406.201172" xlink:href="#DejaVuSans-116"/>
    <use x="445.410156" xlink:href="#DejaVuSans-104"/>
    <use x="508.789062" xlink:href="#DejaVuSans-101"/>
    <use x="570.3125" xlink:href="#DejaVuSans-32"/>
    <use x="602.099609" xlink:href="#DejaVuSans-108"/>
    <use x="629.882812" xlink:href="#DejaVuSans-105"/>
    <use x="657.666016" xlink:href="#DejaVuSans-107"/>
    <use x="711.951172" xlink:href="#DejaVuSans-101"/>
    <use x="773.474609" xlink:href="#DejaVuSans-108"/>
    <use x="801.257812" xlink:href="#DejaVuSans-105"/>
    <use x="829.041016" xlink:href="#DejaVuSans-104"/>
    <use x="892.419922" xlink:href="#DejaVuSans-111"/>
    <use x="953.601562" xlink:href="#DejaVuSans-111"/>
    <use x="1014.783203" xlink:href="#DejaVuSans-100"/>
    <use x="1078.259766" xlink:href="#DejaVuSans-32"/>
    <use x="1110.046875" xlink:href="#DejaVuSans-116"/>
    <use x="1149.255859" xlink:href="#DejaVuSans-104"/>
    <use x="1212.634766" xlink:href="#DejaVuSans-97"/>
    <use x="1273.914062" xlink:href="#DejaVuSans-116"/>
    <use x="1313.123047" xlink:href="#DejaVuSans-32"/>
    <use x="1344.910156" xlink:href="#DejaVuSans-121"/>
    <use x="1404.089844" xlink:href="#DejaVuSans-111"/>
    <use x="1465.271484" xlink:href="#DejaVuSans-117"/>
    <use x="1528.650391" xlink:href="#DejaVuSans-32"/>
    <use x="1560.4375" xlink:href="#DejaVuSans-119"/>
    <use x="1642.224609" xlink:href="#DejaVuSans-111"/>
    <use x="1703.40625" xlink:href="#DejaVuSans-117"/>
    <use x="1766.785156" xlink:href="#DejaVuSans-108"/>
    <use x="1794.568359" xlink:href="#DejaVuSans-100"/>
    <use x="1858.044922" xlink:href="#DejaVuSans-32"/>
    <use x="1889.832031" xlink:href="#DejaVuSans-97"/>
    <use x="1951.111328" xlink:href="#DejaVuSans-99"/>
    <use x="2006.091797" xlink:href="#DejaVuSans-99"/>
    <use x="2061.072266" xlink:href="#DejaVuSans-101"/>
    <use x="2122.595703" xlink:href="#DejaVuSans-112"/>
    <use x="2186.072266" xlink:href="#DejaVuSans-116"/>
    <use x="2225.28125" xlink:href="#DejaVuSans-32"/>
    <use x="2257.068359" xlink:href="#DejaVuSans-116"/>
    <use x="2296.277344" xlink:href="#DejaVuSans-104"/>
    <use x="2359.65625" xlink:href="#DejaVuSans-101"/>
    <use x="2421.179688" xlink:href="#DejaVuSans-32"/>
    <use x="2452.966797" xlink:href="#DejaVuSans-99"/>
    <use x="2507.947266" xlink:href="#DejaVuSans-104"/>
    <use x="2571.326172" xlink:href="#DejaVuSans-97"/>
    <use x="2632.605469" xlink:href="#DejaVuSans-116"/>
    <use x="2671.814453" xlink:href="#DejaVuSans-98"/>
    <use x="2735.291016" xlink:href="#DejaVuSans-111"/>
    <use x="2796.472656" xlink:href="#DejaVuSans-116"/>
    <use x="2835.681641" xlink:href="#DejaVuSans-8217"/>
    <use x="2867.46875" xlink:href="#DejaVuSans-115"/>
    <use x="2919.568359" xlink:href="#DejaVuSans-32"/>
    <use x="2951.355469" xlink:href="#DejaVuSans-111"/>
    <use x="3012.537109" xlink:href="#DejaVuSans-102"/>
    <use x="3047.742188" xlink:href="#DejaVuSans-102"/>
    <use x="3082.947266" xlink:href="#DejaVuSans-101"/>
    <use x="3144.470703" xlink:href="#DejaVuSans-114"/>
    <use x="3185.583984" xlink:href="#DejaVuSans-32"/>
    <use x="3217.371094" xlink:href="#DejaVuSans-116"/>
    <use x="3256.580078" xlink:href="#DejaVuSans-111"/>
    <use x="3317.761719" xlink:href="#DejaVuSans-32"/>
    <use x="3349.548828" xlink:href="#DejaVuSans-104"/>
    <use x="3412.927734" xlink:href="#DejaVuSans-101"/>
    <use x="3474.451172" xlink:href="#DejaVuSans-108"/>
    <use x="3502.234375" xlink:href="#DejaVuSans-112"/>
    <use x="3565.710938" xlink:href="#DejaVuSans-32"/>
    <use x="3597.498047" xlink:href="#DejaVuSans-102"/>
    <use x="3632.703125" xlink:href="#DejaVuSans-105"/>
    <use x="3660.486328" xlink:href="#DejaVuSans-110"/>
    <use x="3723.865234" xlink:href="#DejaVuSans-100"/>
    <use x="3787.341797" xlink:href="#DejaVuSans-32"/>
    <use x="3819.128906" xlink:href="#DejaVuSans-97"/>
    <use x="3880.408203" xlink:href="#DejaVuSans-32"/>
    <use x="3912.195312" xlink:href="#DejaVuSans-98"/>
    <use x="3975.671875" xlink:href="#DejaVuSans-105"/>
    <use x="4003.455078" xlink:href="#DejaVuSans-107"/>
    <use x="4057.740234" xlink:href="#DejaVuSans-101"/>
    <use x="4119.263672" xlink:href="#DejaVuSans-63"/>
   </g>
  </g>
 </g>
 <defs>
  <clipPath id="p2926ec5dc3">
   <rect height="199.6" width="172.425" x="34.240625" y="48.04"/>
  </clipPath>
  <clipPath id="p349216d9b1">
   <rect height="199.6" width="172.425" x="244.840625" y="48.04"/>
  </clipPath>
 </defs>
</svg>
