<?xml version="1.0" encoding="utf-8" standalone="no"?>
<!DOCTYPE svg PUBLIC "-//W3C//DTD SVG 1.1//EN"
  "http://www.w3.org/Graphics/SVG/1.1/DTD/svg11.dtd">
<!-- Created with matplotlib (https://matplotlib.org/) -->
<svg height="285.19625pt" version="1.1" viewBox="0 0 424.465625 285.19625" width="424.465625pt" xmlns="http://www.w3.org/2000/svg" xmlns:xlink="http://www.w3.org/1999/xlink">
 <metadata>
  <rdf:RDF xmlns:cc="http://creativecommons.org/ns#" xmlns:dc="http://purl.org/dc/elements/1.1/" xmlns:rdf="http://www.w3.org/1999/02/22-rdf-syntax-ns#">
   <cc:Work>
    <dc:type rdf:resource="http://purl.org/dc/dcmitype/StillImage"/>
    <dc:date>2021-02-21T18:27:38.129474</dc:date>
    <dc:format>image/svg+xml</dc:format>
    <dc:creator>
     <cc:Agent>
      <dc:title>Matplotlib v3.3.2, https://matplotlib.org/</dc:title>
     </cc:Agent>
    </dc:creator>
   </cc:Work>
  </rdf:RDF>
 </metadata>
 <defs>
  <style type="text/css">*{stroke-linecap:butt;stroke-linejoin:round;}</style>
 </defs>
 <g id="figure_1">
  <g id="patch_1">
   <path d="M 0 285.19625 
L 424.465625 285.19625 
L 424.465625 0 
L 0 0 
z
" style="fill:none;"/>
  </g>
  <g id="axes_1">
   <g id="patch_2">
    <path d="M 34.240625 247.64 
L 201.853125 247.64 
L 201.853125 48.04 
L 34.240625 48.04 
z
" style="fill:#ffffff;"/>
   </g>
   <g id="PathCollection_1">
    <defs>
     <path d="M 0 3 
C 0.795609 3 1.55874 2.683901 2.12132 2.12132 
C 2.683901 1.55874 3 0.795609 3 0 
C 3 -0.795609 2.683901 -1.55874 2.12132 -2.12132 
C 1.55874 -2.683901 0.795609 -3 0 -3 
C -0.795609 -3 -1.55874 -2.683901 -2.12132 -2.12132 
C -2.683901 -1.55874 -3 -0.795609 -3 0 
C -3 0.795609 -2.683901 1.55874 -2.12132 2.12132 
C -1.55874 2.683901 -0.795609 3 0 3 
z
" id="m38c8e38061" style="stroke:#1f77b4;stroke-opacity:0.8;"/>
    </defs>
    <g clip-path="url(#p99dde1b1f0)">
     <use style="fill:#1f77b4;fill-opacity:0.8;stroke:#1f77b4;stroke-opacity:0.8;" x="137.386779" xlink:href="#m38c8e38061" y="83.049965"/>
     <use style="fill:#1f77b4;fill-opacity:0.8;stroke:#1f77b4;stroke-opacity:0.8;" x="60.027163" xlink:href="#m38c8e38061" y="83.049965"/>
     <use style="fill:#1f77b4;fill-opacity:0.8;stroke:#1f77b4;stroke-opacity:0.8;" x="72.920433" xlink:href="#m38c8e38061" y="160.808619"/>
     <use style="fill:#1f77b4;fill-opacity:0.8;stroke:#1f77b4;stroke-opacity:0.8;" x="137.386779" xlink:href="#m38c8e38061" y="83.049965"/>
     <use style="fill:#1f77b4;fill-opacity:0.8;stroke:#1f77b4;stroke-opacity:0.8;" x="163.173317" xlink:href="#m38c8e38061" y="83.049965"/>
     <use style="fill:#1f77b4;fill-opacity:0.8;stroke:#1f77b4;stroke-opacity:0.8;" x="124.49351" xlink:href="#m38c8e38061" y="121.929292"/>
     <use style="fill:#1f77b4;fill-opacity:0.8;stroke:#1f77b4;stroke-opacity:0.8;" x="176.066587" xlink:href="#m38c8e38061" y="83.049965"/>
     <use style="fill:#1f77b4;fill-opacity:0.8;stroke:#1f77b4;stroke-opacity:0.8;" x="124.49351" xlink:href="#m38c8e38061" y="238.567273"/>
     <use style="fill:#1f77b4;fill-opacity:0.8;stroke:#1f77b4;stroke-opacity:0.8;" x="72.920433" xlink:href="#m38c8e38061" y="160.808619"/>
     <use style="fill:#1f77b4;fill-opacity:0.8;stroke:#1f77b4;stroke-opacity:0.8;" x="111.60024" xlink:href="#m38c8e38061" y="121.929292"/>
     <use style="fill:#1f77b4;fill-opacity:0.8;stroke:#1f77b4;stroke-opacity:0.8;" x="111.60024" xlink:href="#m38c8e38061" y="83.049965"/>
     <use style="fill:#1f77b4;fill-opacity:0.8;stroke:#1f77b4;stroke-opacity:0.8;" x="163.173317" xlink:href="#m38c8e38061" y="83.049965"/>
     <use style="fill:#1f77b4;fill-opacity:0.8;stroke:#1f77b4;stroke-opacity:0.8;" x="85.813702" xlink:href="#m38c8e38061" y="199.687946"/>
     <use style="fill:#1f77b4;fill-opacity:0.8;stroke:#1f77b4;stroke-opacity:0.8;" x="124.49351" xlink:href="#m38c8e38061" y="83.049965"/>
     <use style="fill:#1f77b4;fill-opacity:0.8;stroke:#1f77b4;stroke-opacity:0.8;" x="124.49351" xlink:href="#m38c8e38061" y="121.929292"/>
     <use style="fill:#1f77b4;fill-opacity:0.8;stroke:#1f77b4;stroke-opacity:0.8;" x="150.280048" xlink:href="#m38c8e38061" y="121.929292"/>
     <use style="fill:#1f77b4;fill-opacity:0.8;stroke:#1f77b4;stroke-opacity:0.8;" x="111.60024" xlink:href="#m38c8e38061" y="160.808619"/>
     <use style="fill:#1f77b4;fill-opacity:0.8;stroke:#1f77b4;stroke-opacity:0.8;" x="98.706971" xlink:href="#m38c8e38061" y="83.049965"/>
     <use style="fill:#1f77b4;fill-opacity:0.8;stroke:#1f77b4;stroke-opacity:0.8;" x="150.280048" xlink:href="#m38c8e38061" y="238.567273"/>
     <use style="fill:#1f77b4;fill-opacity:0.8;stroke:#1f77b4;stroke-opacity:0.8;" x="34.240625" xlink:href="#m38c8e38061" y="199.687946"/>
     <use style="fill:#1f77b4;fill-opacity:0.8;stroke:#1f77b4;stroke-opacity:0.8;" x="85.813702" xlink:href="#m38c8e38061" y="121.929292"/>
     <use style="fill:#1f77b4;fill-opacity:0.8;stroke:#1f77b4;stroke-opacity:0.8;" x="201.853125" xlink:href="#m38c8e38061" y="83.049965"/>
     <use style="fill:#1f77b4;fill-opacity:0.8;stroke:#1f77b4;stroke-opacity:0.8;" x="111.60024" xlink:href="#m38c8e38061" y="121.929292"/>
     <use style="fill:#1f77b4;fill-opacity:0.8;stroke:#1f77b4;stroke-opacity:0.8;" x="111.60024" xlink:href="#m38c8e38061" y="121.929292"/>
     <use style="fill:#1f77b4;fill-opacity:0.8;stroke:#1f77b4;stroke-opacity:0.8;" x="111.60024" xlink:href="#m38c8e38061" y="121.929292"/>
     <use style="fill:#1f77b4;fill-opacity:0.8;stroke:#1f77b4;stroke-opacity:0.8;" x="111.60024" xlink:href="#m38c8e38061" y="83.049965"/>
     <use style="fill:#1f77b4;fill-opacity:0.8;stroke:#1f77b4;stroke-opacity:0.8;" x="98.706971" xlink:href="#m38c8e38061" y="83.049965"/>
     <use style="fill:#1f77b4;fill-opacity:0.8;stroke:#1f77b4;stroke-opacity:0.8;" x="85.813702" xlink:href="#m38c8e38061" y="83.049965"/>
     <use style="fill:#1f77b4;fill-opacity:0.8;stroke:#1f77b4;stroke-opacity:0.8;" x="98.706971" xlink:href="#m38c8e38061" y="121.929292"/>
     <use style="fill:#1f77b4;fill-opacity:0.8;stroke:#1f77b4;stroke-opacity:0.8;" x="111.60024" xlink:href="#m38c8e38061" y="83.049965"/>
     <use style="fill:#1f77b4;fill-opacity:0.8;stroke:#1f77b4;stroke-opacity:0.8;" x="111.60024" xlink:href="#m38c8e38061" y="121.929292"/>
     <use style="fill:#1f77b4;fill-opacity:0.8;stroke:#1f77b4;stroke-opacity:0.8;" x="85.813702" xlink:href="#m38c8e38061" y="121.929292"/>
     <use style="fill:#1f77b4;fill-opacity:0.8;stroke:#1f77b4;stroke-opacity:0.8;" x="124.49351" xlink:href="#m38c8e38061" y="83.049965"/>
     <use style="fill:#1f77b4;fill-opacity:0.8;stroke:#1f77b4;stroke-opacity:0.8;" x="124.49351" xlink:href="#m38c8e38061" y="121.929292"/>
     <use style="fill:#1f77b4;fill-opacity:0.8;stroke:#1f77b4;stroke-opacity:0.8;" x="98.706971" xlink:href="#m38c8e38061" y="121.929292"/>
     <use style="fill:#1f77b4;fill-opacity:0.8;stroke:#1f77b4;stroke-opacity:0.8;" x="98.706971" xlink:href="#m38c8e38061" y="121.929292"/>
     <use style="fill:#1f77b4;fill-opacity:0.8;stroke:#1f77b4;stroke-opacity:0.8;" x="85.813702" xlink:href="#m38c8e38061" y="121.929292"/>
     <use style="fill:#1f77b4;fill-opacity:0.8;stroke:#1f77b4;stroke-opacity:0.8;" x="111.60024" xlink:href="#m38c8e38061" y="121.929292"/>
     <use style="fill:#1f77b4;fill-opacity:0.8;stroke:#1f77b4;stroke-opacity:0.8;" x="98.706971" xlink:href="#m38c8e38061" y="121.929292"/>
     <use style="fill:#1f77b4;fill-opacity:0.8;stroke:#1f77b4;stroke-opacity:0.8;" x="85.813702" xlink:href="#m38c8e38061" y="121.929292"/>
     <use style="fill:#1f77b4;fill-opacity:0.8;stroke:#1f77b4;stroke-opacity:0.8;" x="47.133894" xlink:href="#m38c8e38061" y="121.929292"/>
    </g>
   </g>
   <g id="PolyCollection_1">
    <path clip-path="url(#p99dde1b1f0)" d="M 34.240625 111.769566 
L 34.240625 171.410266 
L 35.933681 170.344436 
L 37.626736 169.278607 
L 39.319792 168.212777 
L 41.012847 167.146948 
L 42.705903 166.064918 
L 44.398958 164.928591 
L 46.092014 163.740495 
L 47.785069 162.702938 
L 49.478125 161.697427 
L 51.171181 160.726444 
L 52.864236 159.649731 
L 54.557292 158.624948 
L 56.250347 157.57014 
L 57.943403 156.722409 
L 59.636458 155.874678 
L 61.329514 154.909575 
L 63.022569 153.930103 
L 64.715625 153.075856 
L 66.408681 152.132762 
L 68.101736 151.065096 
L 69.794792 150.11853 
L 71.487847 149.216532 
L 73.180903 148.196339 
L 74.873958 147.02988 
L 76.567014 146.044559 
L 78.260069 145.177323 
L 79.953125 144.353959 
L 81.646181 143.562063 
L 83.339236 142.691109 
L 85.032292 141.67058 
L 86.725347 140.804639 
L 88.418403 140.146858 
L 90.111458 139.381898 
L 91.804514 138.786136 
L 93.497569 138.157736 
L 95.190625 137.383405 
L 96.883681 136.561692 
L 98.576736 135.730162 
L 100.269792 135.016591 
L 101.962847 134.263014 
L 103.655903 133.832723 
L 105.348958 133.254766 
L 107.042014 133.066792 
L 108.735069 132.518685 
L 110.428125 132.015408 
L 112.121181 131.631307 
L 113.814236 131.653166 
L 115.507292 131.426601 
L 117.200347 131.430752 
L 118.893403 131.226775 
L 120.586458 131.271225 
L 122.279514 131.445313 
L 123.972569 131.456204 
L 125.665625 131.189448 
L 127.358681 131.460102 
L 129.051736 131.60852 
L 130.744792 131.791332 
L 132.437847 131.502491 
L 134.130903 131.570986 
L 135.823958 131.491428 
L 137.517014 131.530181 
L 139.210069 131.850044 
L 140.903125 132.171512 
L 142.596181 132.496938 
L 144.289236 132.755775 
L 145.982292 132.933699 
L 147.675347 133.112233 
L 149.368403 133.577368 
L 151.061458 133.641427 
L 152.754514 133.664699 
L 154.447569 133.686389 
L 156.140625 133.777766 
L 157.833681 133.948945 
L 159.526736 134.120124 
L 161.219792 134.291303 
L 162.912847 134.462482 
L 164.605903 134.633661 
L 166.298958 134.80484 
L 167.992014 134.976019 
L 169.685069 135.147198 
L 171.378125 135.313982 
L 173.071181 135.476907 
L 174.764236 135.639832 
L 176.457292 135.802758 
L 178.150347 135.965683 
L 179.843403 136.128608 
L 181.536458 136.291534 
L 183.229514 136.454459 
L 184.922569 136.617384 
L 186.615625 136.78031 
L 188.308681 136.943235 
L 190.001736 137.10616 
L 191.694792 137.354854 
L 193.387847 137.648165 
L 195.080903 137.736486 
L 196.773958 137.77094 
L 198.467014 137.94155 
L 200.160069 138.112159 
L 201.853125 138.282769 
L 201.853125 57.112727 
L 201.853125 57.112727 
L 200.160069 58.201871 
L 198.467014 59.291014 
L 196.773958 60.381518 
L 195.080903 61.47227 
L 193.387847 62.560741 
L 191.694792 63.648756 
L 190.001736 64.736772 
L 188.308681 65.824788 
L 186.615625 66.912804 
L 184.922569 67.999004 
L 183.229514 69.058337 
L 181.536458 70.122065 
L 179.843403 71.262461 
L 178.150347 72.34898 
L 176.457292 73.343051 
L 174.764236 74.299387 
L 173.071181 75.242741 
L 171.378125 76.347427 
L 169.685069 77.508398 
L 167.992014 78.571537 
L 166.298958 79.632607 
L 164.605903 80.655646 
L 162.912847 81.75006 
L 161.219792 82.766579 
L 159.526736 83.597817 
L 157.833681 84.569604 
L 156.140625 85.555142 
L 154.447569 86.564081 
L 152.754514 87.524615 
L 151.061458 88.501065 
L 149.368403 89.53316 
L 147.675347 90.587666 
L 145.982292 91.5392 
L 144.289236 92.489542 
L 142.596181 93.403628 
L 140.903125 94.381302 
L 139.210069 95.351968 
L 137.517014 96.174069 
L 135.823958 96.935041 
L 134.130903 97.871559 
L 132.437847 98.6803 
L 130.744792 99.383722 
L 129.051736 100.230627 
L 127.358681 101.090921 
L 125.665625 101.725753 
L 123.972569 102.600017 
L 122.279514 103.423208 
L 120.586458 104.232258 
L 118.893403 105.074048 
L 117.200347 105.540131 
L 115.507292 106.243985 
L 113.814236 106.950001 
L 112.121181 107.650718 
L 110.428125 108.224233 
L 108.735069 108.67875 
L 107.042014 109.506847 
L 105.348958 110.178112 
L 103.655903 110.759754 
L 101.962847 111.418826 
L 100.269792 111.761442 
L 98.576736 112.067101 
L 96.883681 112.621324 
L 95.190625 113.075088 
L 93.497569 113.341786 
L 91.804514 113.449463 
L 90.111458 113.553928 
L 88.418403 113.692654 
L 86.725347 113.773053 
L 85.032292 113.881934 
L 83.339236 113.935378 
L 81.646181 114.051661 
L 79.953125 114.196789 
L 78.260069 114.328149 
L 76.567014 114.373672 
L 74.873958 114.320666 
L 73.180903 114.379721 
L 71.487847 114.454121 
L 69.794792 114.464648 
L 68.101736 114.196618 
L 66.408681 114.276953 
L 64.715625 114.282691 
L 63.022569 114.385442 
L 61.329514 114.167097 
L 59.636458 114.060464 
L 57.943403 113.87265 
L 56.250347 113.737614 
L 54.557292 113.781163 
L 52.864236 113.618381 
L 51.171181 113.4556 
L 49.478125 113.292818 
L 47.785069 113.135768 
L 46.092014 112.979073 
L 44.398958 112.903001 
L 42.705903 112.657733 
L 41.012847 112.493686 
L 39.319792 112.329639 
L 37.626736 112.170074 
L 35.933681 112.011464 
L 34.240625 111.769566 
z
" style="fill:#1f77b4;fill-opacity:0.15;"/>
   </g>
   <g id="matplotlib.axis_1">
    <g id="xtick_1">
     <g id="line2d_1">
      <defs>
       <path d="M 0 0 
L 0 3.5 
" id="m02650674ab" style="stroke:#000000;stroke-width:0.8;"/>
      </defs>
      <g>
       <use style="stroke:#000000;stroke-width:0.8;" x="60.027163" xlink:href="#m02650674ab" y="247.64"/>
      </g>
     </g>
     <g id="text_1">
      <!-- 2 -->
      <g transform="translate(56.845913 262.238437)scale(0.1 -0.1)">
       <defs>
        <path d="M 19.1875 8.296875 
L 53.609375 8.296875 
L 53.609375 0 
L 7.328125 0 
L 7.328125 8.296875 
Q 12.9375 14.109375 22.625 23.890625 
Q 32.328125 33.6875 34.8125 36.53125 
Q 39.546875 41.84375 41.421875 45.53125 
Q 43.3125 49.21875 43.3125 52.78125 
Q 43.3125 58.59375 39.234375 62.25 
Q 35.15625 65.921875 28.609375 65.921875 
Q 23.96875 65.921875 18.8125 64.3125 
Q 13.671875 62.703125 7.8125 59.421875 
L 7.8125 69.390625 
Q 13.765625 71.78125 18.9375 73 
Q 24.125 74.21875 28.421875 74.21875 
Q 39.75 74.21875 46.484375 68.546875 
Q 53.21875 62.890625 53.21875 53.421875 
Q 53.21875 48.921875 51.53125 44.890625 
Q 49.859375 40.875 45.40625 35.40625 
Q 44.1875 33.984375 37.640625 27.21875 
Q 31.109375 20.453125 19.1875 8.296875 
z
" id="DejaVuSans-50"/>
       </defs>
       <use xlink:href="#DejaVuSans-50"/>
      </g>
     </g>
    </g>
    <g id="xtick_2">
     <g id="line2d_2">
      <g>
       <use style="stroke:#000000;stroke-width:0.8;" x="111.60024" xlink:href="#m02650674ab" y="247.64"/>
      </g>
     </g>
     <g id="text_2">
      <!-- 3 -->
      <g transform="translate(108.41899 262.238437)scale(0.1 -0.1)">
       <defs>
        <path d="M 40.578125 39.3125 
Q 47.65625 37.796875 51.625 33 
Q 55.609375 28.21875 55.609375 21.1875 
Q 55.609375 10.40625 48.1875 4.484375 
Q 40.765625 -1.421875 27.09375 -1.421875 
Q 22.515625 -1.421875 17.65625 -0.515625 
Q 12.796875 0.390625 7.625 2.203125 
L 7.625 11.71875 
Q 11.71875 9.328125 16.59375 8.109375 
Q 21.484375 6.890625 26.8125 6.890625 
Q 36.078125 6.890625 40.9375 10.546875 
Q 45.796875 14.203125 45.796875 21.1875 
Q 45.796875 27.640625 41.28125 31.265625 
Q 36.765625 34.90625 28.71875 34.90625 
L 20.21875 34.90625 
L 20.21875 43.015625 
L 29.109375 43.015625 
Q 36.375 43.015625 40.234375 45.921875 
Q 44.09375 48.828125 44.09375 54.296875 
Q 44.09375 59.90625 40.109375 62.90625 
Q 36.140625 65.921875 28.71875 65.921875 
Q 24.65625 65.921875 20.015625 65.03125 
Q 15.375 64.15625 9.8125 62.3125 
L 9.8125 71.09375 
Q 15.4375 72.65625 20.34375 73.4375 
Q 25.25 74.21875 29.59375 74.21875 
Q 40.828125 74.21875 47.359375 69.109375 
Q 53.90625 64.015625 53.90625 55.328125 
Q 53.90625 49.265625 50.4375 45.09375 
Q 46.96875 40.921875 40.578125 39.3125 
z
" id="DejaVuSans-51"/>
       </defs>
       <use xlink:href="#DejaVuSans-51"/>
      </g>
     </g>
    </g>
    <g id="xtick_3">
     <g id="line2d_3">
      <g>
       <use style="stroke:#000000;stroke-width:0.8;" x="163.173317" xlink:href="#m02650674ab" y="247.64"/>
      </g>
     </g>
     <g id="text_3">
      <!-- 4 -->
      <g transform="translate(159.992067 262.238437)scale(0.1 -0.1)">
       <defs>
        <path d="M 37.796875 64.3125 
L 12.890625 25.390625 
L 37.796875 25.390625 
z
M 35.203125 72.90625 
L 47.609375 72.90625 
L 47.609375 25.390625 
L 58.015625 25.390625 
L 58.015625 17.1875 
L 47.609375 17.1875 
L 47.609375 0 
L 37.796875 0 
L 37.796875 17.1875 
L 4.890625 17.1875 
L 4.890625 26.703125 
z
" id="DejaVuSans-52"/>
       </defs>
       <use xlink:href="#DejaVuSans-52"/>
      </g>
     </g>
    </g>
    <g id="text_4">
     <!-- E -->
     <g transform="translate(114.8875 275.916562)scale(0.1 -0.1)">
      <defs>
       <path d="M 9.8125 72.90625 
L 55.90625 72.90625 
L 55.90625 64.59375 
L 19.671875 64.59375 
L 19.671875 43.015625 
L 54.390625 43.015625 
L 54.390625 34.71875 
L 19.671875 34.71875 
L 19.671875 8.296875 
L 56.78125 8.296875 
L 56.78125 0 
L 9.8125 0 
z
" id="DejaVuSans-69"/>
      </defs>
      <use xlink:href="#DejaVuSans-69"/>
     </g>
    </g>
   </g>
   <g id="matplotlib.axis_2">
    <g id="ytick_1">
     <g id="line2d_4">
      <defs>
       <path d="M 0 0 
L -3.5 0 
" id="ma7ad95a001" style="stroke:#000000;stroke-width:0.8;"/>
      </defs>
      <g>
       <use style="stroke:#000000;stroke-width:0.8;" x="34.240625" xlink:href="#ma7ad95a001" y="238.567273"/>
      </g>
     </g>
     <g id="text_5">
      <!-- 1 -->
      <g transform="translate(20.878125 242.366491)scale(0.1 -0.1)">
       <defs>
        <path d="M 12.40625 8.296875 
L 28.515625 8.296875 
L 28.515625 63.921875 
L 10.984375 60.40625 
L 10.984375 69.390625 
L 28.421875 72.90625 
L 38.28125 72.90625 
L 38.28125 8.296875 
L 54.390625 8.296875 
L 54.390625 0 
L 12.40625 0 
z
" id="DejaVuSans-49"/>
       </defs>
       <use xlink:href="#DejaVuSans-49"/>
      </g>
     </g>
    </g>
    <g id="ytick_2">
     <g id="line2d_5">
      <g>
       <use style="stroke:#000000;stroke-width:0.8;" x="34.240625" xlink:href="#ma7ad95a001" y="199.687946"/>
      </g>
     </g>
     <g id="text_6">
      <!-- 2 -->
      <g transform="translate(20.878125 203.487164)scale(0.1 -0.1)">
       <use xlink:href="#DejaVuSans-50"/>
      </g>
     </g>
    </g>
    <g id="ytick_3">
     <g id="line2d_6">
      <g>
       <use style="stroke:#000000;stroke-width:0.8;" x="34.240625" xlink:href="#ma7ad95a001" y="160.808619"/>
      </g>
     </g>
     <g id="text_7">
      <!-- 3 -->
      <g transform="translate(20.878125 164.607837)scale(0.1 -0.1)">
       <use xlink:href="#DejaVuSans-51"/>
      </g>
     </g>
    </g>
    <g id="ytick_4">
     <g id="line2d_7">
      <g>
       <use style="stroke:#000000;stroke-width:0.8;" x="34.240625" xlink:href="#ma7ad95a001" y="121.929292"/>
      </g>
     </g>
     <g id="text_8">
      <!-- 4 -->
      <g transform="translate(20.878125 125.72851)scale(0.1 -0.1)">
       <use xlink:href="#DejaVuSans-52"/>
      </g>
     </g>
    </g>
    <g id="ytick_5">
     <g id="line2d_8">
      <g>
       <use style="stroke:#000000;stroke-width:0.8;" x="34.240625" xlink:href="#ma7ad95a001" y="83.049965"/>
      </g>
     </g>
     <g id="text_9">
      <!-- 5 -->
      <g transform="translate(20.878125 86.849183)scale(0.1 -0.1)">
       <defs>
        <path d="M 10.796875 72.90625 
L 49.515625 72.90625 
L 49.515625 64.59375 
L 19.828125 64.59375 
L 19.828125 46.734375 
Q 21.96875 47.46875 24.109375 47.828125 
Q 26.265625 48.1875 28.421875 48.1875 
Q 40.625 48.1875 47.75 41.5 
Q 54.890625 34.8125 54.890625 23.390625 
Q 54.890625 11.625 47.5625 5.09375 
Q 40.234375 -1.421875 26.90625 -1.421875 
Q 22.3125 -1.421875 17.546875 -0.640625 
Q 12.796875 0.140625 7.71875 1.703125 
L 7.71875 11.625 
Q 12.109375 9.234375 16.796875 8.0625 
Q 21.484375 6.890625 26.703125 6.890625 
Q 35.15625 6.890625 40.078125 11.328125 
Q 45.015625 15.765625 45.015625 23.390625 
Q 45.015625 31 40.078125 35.4375 
Q 35.15625 39.890625 26.703125 39.890625 
Q 22.75 39.890625 18.8125 39.015625 
Q 14.890625 38.140625 10.796875 36.28125 
z
" id="DejaVuSans-53"/>
       </defs>
       <use xlink:href="#DejaVuSans-53"/>
      </g>
     </g>
    </g>
    <g id="text_10">
     <!-- Trust8 -->
     <g transform="translate(14.798438 163.126719)rotate(-90)scale(0.1 -0.1)">
      <defs>
       <path d="M -0.296875 72.90625 
L 61.375 72.90625 
L 61.375 64.59375 
L 35.5 64.59375 
L 35.5 0 
L 25.59375 0 
L 25.59375 64.59375 
L -0.296875 64.59375 
z
" id="DejaVuSans-84"/>
       <path d="M 41.109375 46.296875 
Q 39.59375 47.171875 37.8125 47.578125 
Q 36.03125 48 33.890625 48 
Q 26.265625 48 22.1875 43.046875 
Q 18.109375 38.09375 18.109375 28.8125 
L 18.109375 0 
L 9.078125 0 
L 9.078125 54.6875 
L 18.109375 54.6875 
L 18.109375 46.1875 
Q 20.953125 51.171875 25.484375 53.578125 
Q 30.03125 56 36.53125 56 
Q 37.453125 56 38.578125 55.875 
Q 39.703125 55.765625 41.0625 55.515625 
z
" id="DejaVuSans-114"/>
       <path d="M 8.5 21.578125 
L 8.5 54.6875 
L 17.484375 54.6875 
L 17.484375 21.921875 
Q 17.484375 14.15625 20.5 10.265625 
Q 23.53125 6.390625 29.59375 6.390625 
Q 36.859375 6.390625 41.078125 11.03125 
Q 45.3125 15.671875 45.3125 23.6875 
L 45.3125 54.6875 
L 54.296875 54.6875 
L 54.296875 0 
L 45.3125 0 
L 45.3125 8.40625 
Q 42.046875 3.421875 37.71875 1 
Q 33.40625 -1.421875 27.6875 -1.421875 
Q 18.265625 -1.421875 13.375 4.4375 
Q 8.5 10.296875 8.5 21.578125 
z
M 31.109375 56 
z
" id="DejaVuSans-117"/>
       <path d="M 44.28125 53.078125 
L 44.28125 44.578125 
Q 40.484375 46.53125 36.375 47.5 
Q 32.28125 48.484375 27.875 48.484375 
Q 21.1875 48.484375 17.84375 46.4375 
Q 14.5 44.390625 14.5 40.28125 
Q 14.5 37.15625 16.890625 35.375 
Q 19.28125 33.59375 26.515625 31.984375 
L 29.59375 31.296875 
Q 39.15625 29.25 43.1875 25.515625 
Q 47.21875 21.78125 47.21875 15.09375 
Q 47.21875 7.46875 41.1875 3.015625 
Q 35.15625 -1.421875 24.609375 -1.421875 
Q 20.21875 -1.421875 15.453125 -0.5625 
Q 10.6875 0.296875 5.421875 2 
L 5.421875 11.28125 
Q 10.40625 8.6875 15.234375 7.390625 
Q 20.0625 6.109375 24.8125 6.109375 
Q 31.15625 6.109375 34.5625 8.28125 
Q 37.984375 10.453125 37.984375 14.40625 
Q 37.984375 18.0625 35.515625 20.015625 
Q 33.0625 21.96875 24.703125 23.78125 
L 21.578125 24.515625 
Q 13.234375 26.265625 9.515625 29.90625 
Q 5.8125 33.546875 5.8125 39.890625 
Q 5.8125 47.609375 11.28125 51.796875 
Q 16.75 56 26.8125 56 
Q 31.78125 56 36.171875 55.265625 
Q 40.578125 54.546875 44.28125 53.078125 
z
" id="DejaVuSans-115"/>
       <path d="M 18.3125 70.21875 
L 18.3125 54.6875 
L 36.8125 54.6875 
L 36.8125 47.703125 
L 18.3125 47.703125 
L 18.3125 18.015625 
Q 18.3125 11.328125 20.140625 9.421875 
Q 21.96875 7.515625 27.59375 7.515625 
L 36.8125 7.515625 
L 36.8125 0 
L 27.59375 0 
Q 17.1875 0 13.234375 3.875 
Q 9.28125 7.765625 9.28125 18.015625 
L 9.28125 47.703125 
L 2.6875 47.703125 
L 2.6875 54.6875 
L 9.28125 54.6875 
L 9.28125 70.21875 
z
" id="DejaVuSans-116"/>
       <path d="M 31.78125 34.625 
Q 24.75 34.625 20.71875 30.859375 
Q 16.703125 27.09375 16.703125 20.515625 
Q 16.703125 13.921875 20.71875 10.15625 
Q 24.75 6.390625 31.78125 6.390625 
Q 38.8125 6.390625 42.859375 10.171875 
Q 46.921875 13.96875 46.921875 20.515625 
Q 46.921875 27.09375 42.890625 30.859375 
Q 38.875 34.625 31.78125 34.625 
z
M 21.921875 38.8125 
Q 15.578125 40.375 12.03125 44.71875 
Q 8.5 49.078125 8.5 55.328125 
Q 8.5 64.0625 14.71875 69.140625 
Q 20.953125 74.21875 31.78125 74.21875 
Q 42.671875 74.21875 48.875 69.140625 
Q 55.078125 64.0625 55.078125 55.328125 
Q 55.078125 49.078125 51.53125 44.71875 
Q 48 40.375 41.703125 38.8125 
Q 48.828125 37.15625 52.796875 32.3125 
Q 56.78125 27.484375 56.78125 20.515625 
Q 56.78125 9.90625 50.3125 4.234375 
Q 43.84375 -1.421875 31.78125 -1.421875 
Q 19.734375 -1.421875 13.25 4.234375 
Q 6.78125 9.90625 6.78125 20.515625 
Q 6.78125 27.484375 10.78125 32.3125 
Q 14.796875 37.15625 21.921875 38.8125 
z
M 18.3125 54.390625 
Q 18.3125 48.734375 21.84375 45.5625 
Q 25.390625 42.390625 31.78125 42.390625 
Q 38.140625 42.390625 41.71875 45.5625 
Q 45.3125 48.734375 45.3125 54.390625 
Q 45.3125 60.0625 41.71875 63.234375 
Q 38.140625 66.40625 31.78125 66.40625 
Q 25.390625 66.40625 21.84375 63.234375 
Q 18.3125 60.0625 18.3125 54.390625 
z
" id="DejaVuSans-56"/>
      </defs>
      <use xlink:href="#DejaVuSans-84"/>
      <use x="46.333984" xlink:href="#DejaVuSans-114"/>
      <use x="87.447266" xlink:href="#DejaVuSans-117"/>
      <use x="150.826172" xlink:href="#DejaVuSans-115"/>
      <use x="202.925781" xlink:href="#DejaVuSans-116"/>
      <use x="242.134766" xlink:href="#DejaVuSans-56"/>
     </g>
    </g>
   </g>
   <g id="line2d_9">
    <path clip-path="url(#p99dde1b1f0)" d="M 34.240625 144.714151 
L 35.933681 144.167316 
L 37.626736 143.620482 
L 39.319792 143.073648 
L 41.012847 142.526813 
L 42.705903 141.979979 
L 44.398958 141.433145 
L 46.092014 140.886311 
L 47.785069 140.339476 
L 49.478125 139.792642 
L 51.171181 139.245808 
L 52.864236 138.698973 
L 54.557292 138.152139 
L 56.250347 137.605305 
L 57.943403 137.058471 
L 59.636458 136.511636 
L 61.329514 135.964802 
L 63.022569 135.417968 
L 64.715625 134.871133 
L 66.408681 134.324299 
L 68.101736 133.777465 
L 69.794792 133.230631 
L 71.487847 132.683796 
L 73.180903 132.136962 
L 74.873958 131.590128 
L 76.567014 131.043294 
L 78.260069 130.496459 
L 79.953125 129.949625 
L 81.646181 129.402791 
L 83.339236 128.855956 
L 85.032292 128.309122 
L 86.725347 127.762288 
L 88.418403 127.215454 
L 90.111458 126.668619 
L 91.804514 126.121785 
L 93.497569 125.574951 
L 95.190625 125.028116 
L 96.883681 124.481282 
L 98.576736 123.934448 
L 100.269792 123.387614 
L 101.962847 122.840779 
L 103.655903 122.293945 
L 105.348958 121.747111 
L 107.042014 121.200276 
L 108.735069 120.653442 
L 110.428125 120.106608 
L 112.121181 119.559774 
L 113.814236 119.012939 
L 115.507292 118.466105 
L 117.200347 117.919271 
L 118.893403 117.372436 
L 120.586458 116.825602 
L 122.279514 116.278768 
L 123.972569 115.731934 
L 125.665625 115.185099 
L 127.358681 114.638265 
L 129.051736 114.091431 
L 130.744792 113.544596 
L 132.437847 112.997762 
L 134.130903 112.450928 
L 135.823958 111.904094 
L 137.517014 111.357259 
L 139.210069 110.810425 
L 140.903125 110.263591 
L 142.596181 109.716756 
L 144.289236 109.169922 
L 145.982292 108.623088 
L 147.675347 108.076254 
L 149.368403 107.529419 
L 151.061458 106.982585 
L 152.754514 106.435751 
L 154.447569 105.888916 
L 156.140625 105.342082 
L 157.833681 104.795248 
L 159.526736 104.248414 
L 161.219792 103.701579 
L 162.912847 103.154745 
L 164.605903 102.607911 
L 166.298958 102.061076 
L 167.992014 101.514242 
L 169.685069 100.967408 
L 171.378125 100.420574 
L 173.071181 99.873739 
L 174.764236 99.326905 
L 176.457292 98.780071 
L 178.150347 98.233237 
L 179.843403 97.686402 
L 181.536458 97.139568 
L 183.229514 96.592734 
L 184.922569 96.045899 
L 186.615625 95.499065 
L 188.308681 94.952231 
L 190.001736 94.405397 
L 191.694792 93.858562 
L 193.387847 93.311728 
L 195.080903 92.764894 
L 196.773958 92.218059 
L 198.467014 91.671225 
L 200.160069 91.124391 
L 201.853125 90.577557 
" style="fill:none;stroke:#1f77b4;stroke-linecap:square;stroke-width:2.25;"/>
   </g>
   <g id="patch_3">
    <path d="M 34.240625 247.64 
L 34.240625 48.04 
" style="fill:none;stroke:#000000;stroke-linecap:square;stroke-linejoin:miter;stroke-width:0.8;"/>
   </g>
   <g id="patch_4">
    <path d="M 201.853125 247.64 
L 201.853125 48.04 
" style="fill:none;stroke:#000000;stroke-linecap:square;stroke-linejoin:miter;stroke-width:0.8;"/>
   </g>
   <g id="patch_5">
    <path d="M 34.240625 247.64 
L 201.853125 247.64 
" style="fill:none;stroke:#000000;stroke-linecap:square;stroke-linejoin:miter;stroke-width:0.8;"/>
   </g>
   <g id="patch_6">
    <path d="M 34.240625 48.04 
L 201.853125 48.04 
" style="fill:none;stroke:#000000;stroke-linecap:square;stroke-linejoin:miter;stroke-width:0.8;"/>
   </g>
   <g id="text_11">
    <!-- Group A -->
    <g transform="translate(34.240625 42.04)scale(0.12 -0.12)">
     <defs>
      <path d="M 59.515625 10.40625 
L 59.515625 29.984375 
L 43.40625 29.984375 
L 43.40625 38.09375 
L 69.28125 38.09375 
L 69.28125 6.78125 
Q 63.578125 2.734375 56.6875 0.65625 
Q 49.8125 -1.421875 42 -1.421875 
Q 24.90625 -1.421875 15.25 8.5625 
Q 5.609375 18.5625 5.609375 36.375 
Q 5.609375 54.25 15.25 64.234375 
Q 24.90625 74.21875 42 74.21875 
Q 49.125 74.21875 55.546875 72.453125 
Q 61.96875 70.703125 67.390625 67.28125 
L 67.390625 56.78125 
Q 61.921875 61.421875 55.765625 63.765625 
Q 49.609375 66.109375 42.828125 66.109375 
Q 29.4375 66.109375 22.71875 58.640625 
Q 16.015625 51.171875 16.015625 36.375 
Q 16.015625 21.625 22.71875 14.15625 
Q 29.4375 6.6875 42.828125 6.6875 
Q 48.046875 6.6875 52.140625 7.59375 
Q 56.25 8.5 59.515625 10.40625 
z
" id="DejaVuSans-71"/>
      <path d="M 30.609375 48.390625 
Q 23.390625 48.390625 19.1875 42.75 
Q 14.984375 37.109375 14.984375 27.296875 
Q 14.984375 17.484375 19.15625 11.84375 
Q 23.34375 6.203125 30.609375 6.203125 
Q 37.796875 6.203125 41.984375 11.859375 
Q 46.1875 17.53125 46.1875 27.296875 
Q 46.1875 37.015625 41.984375 42.703125 
Q 37.796875 48.390625 30.609375 48.390625 
z
M 30.609375 56 
Q 42.328125 56 49.015625 48.375 
Q 55.71875 40.765625 55.71875 27.296875 
Q 55.71875 13.875 49.015625 6.21875 
Q 42.328125 -1.421875 30.609375 -1.421875 
Q 18.84375 -1.421875 12.171875 6.21875 
Q 5.515625 13.875 5.515625 27.296875 
Q 5.515625 40.765625 12.171875 48.375 
Q 18.84375 56 30.609375 56 
z
" id="DejaVuSans-111"/>
      <path d="M 18.109375 8.203125 
L 18.109375 -20.796875 
L 9.078125 -20.796875 
L 9.078125 54.6875 
L 18.109375 54.6875 
L 18.109375 46.390625 
Q 20.953125 51.265625 25.265625 53.625 
Q 29.59375 56 35.59375 56 
Q 45.5625 56 51.78125 48.09375 
Q 58.015625 40.1875 58.015625 27.296875 
Q 58.015625 14.40625 51.78125 6.484375 
Q 45.5625 -1.421875 35.59375 -1.421875 
Q 29.59375 -1.421875 25.265625 0.953125 
Q 20.953125 3.328125 18.109375 8.203125 
z
M 48.6875 27.296875 
Q 48.6875 37.203125 44.609375 42.84375 
Q 40.53125 48.484375 33.40625 48.484375 
Q 26.265625 48.484375 22.1875 42.84375 
Q 18.109375 37.203125 18.109375 27.296875 
Q 18.109375 17.390625 22.1875 11.75 
Q 26.265625 6.109375 33.40625 6.109375 
Q 40.53125 6.109375 44.609375 11.75 
Q 48.6875 17.390625 48.6875 27.296875 
z
" id="DejaVuSans-112"/>
      <path id="DejaVuSans-32"/>
      <path d="M 34.1875 63.1875 
L 20.796875 26.90625 
L 47.609375 26.90625 
z
M 28.609375 72.90625 
L 39.796875 72.90625 
L 67.578125 0 
L 57.328125 0 
L 50.6875 18.703125 
L 17.828125 18.703125 
L 11.1875 0 
L 0.78125 0 
z
" id="DejaVuSans-65"/>
     </defs>
     <use xlink:href="#DejaVuSans-71"/>
     <use x="77.490234" xlink:href="#DejaVuSans-114"/>
     <use x="116.353516" xlink:href="#DejaVuSans-111"/>
     <use x="177.535156" xlink:href="#DejaVuSans-117"/>
     <use x="240.914062" xlink:href="#DejaVuSans-112"/>
     <use x="304.390625" xlink:href="#DejaVuSans-32"/>
     <use x="336.177734" xlink:href="#DejaVuSans-65"/>
    </g>
   </g>
  </g>
  <g id="axes_2">
   <g id="patch_7">
    <path d="M 249.653125 247.64 
L 417.265625 247.64 
L 417.265625 48.04 
L 249.653125 48.04 
z
" style="fill:#ffffff;"/>
   </g>
   <g id="PathCollection_2">
    <g clip-path="url(#p00e3c0165c)">
     <use style="fill:#1f77b4;fill-opacity:0.8;stroke:#1f77b4;stroke-opacity:0.8;" x="249.653125" xlink:href="#m38c8e38061" y="102.476364"/>
     <use style="fill:#1f77b4;fill-opacity:0.8;stroke:#1f77b4;stroke-opacity:0.8;" x="262.546394" xlink:href="#m38c8e38061" y="102.476364"/>
     <use style="fill:#1f77b4;fill-opacity:0.8;stroke:#1f77b4;stroke-opacity:0.8;" x="378.585817" xlink:href="#m38c8e38061" y="57.112727"/>
     <use style="fill:#1f77b4;fill-opacity:0.8;stroke:#1f77b4;stroke-opacity:0.8;" x="339.90601" xlink:href="#m38c8e38061" y="193.203636"/>
     <use style="fill:#1f77b4;fill-opacity:0.8;stroke:#1f77b4;stroke-opacity:0.8;" x="314.119471" xlink:href="#m38c8e38061" y="102.476364"/>
     <use style="fill:#1f77b4;fill-opacity:0.8;stroke:#1f77b4;stroke-opacity:0.8;" x="378.585817" xlink:href="#m38c8e38061" y="102.476364"/>
     <use style="fill:#1f77b4;fill-opacity:0.8;stroke:#1f77b4;stroke-opacity:0.8;" x="314.119471" xlink:href="#m38c8e38061" y="102.476364"/>
     <use style="fill:#1f77b4;fill-opacity:0.8;stroke:#1f77b4;stroke-opacity:0.8;" x="339.90601" xlink:href="#m38c8e38061" y="238.567273"/>
     <use style="fill:#1f77b4;fill-opacity:0.8;stroke:#1f77b4;stroke-opacity:0.8;" x="339.90601" xlink:href="#m38c8e38061" y="57.112727"/>
     <use style="fill:#1f77b4;fill-opacity:0.8;stroke:#1f77b4;stroke-opacity:0.8;" x="365.692548" xlink:href="#m38c8e38061" y="102.476364"/>
     <use style="fill:#1f77b4;fill-opacity:0.8;stroke:#1f77b4;stroke-opacity:0.8;" x="339.90601" xlink:href="#m38c8e38061" y="102.476364"/>
     <use style="fill:#1f77b4;fill-opacity:0.8;stroke:#1f77b4;stroke-opacity:0.8;" x="378.585817" xlink:href="#m38c8e38061" y="102.476364"/>
     <use style="fill:#1f77b4;fill-opacity:0.8;stroke:#1f77b4;stroke-opacity:0.8;" x="339.90601" xlink:href="#m38c8e38061" y="102.476364"/>
     <use style="fill:#1f77b4;fill-opacity:0.8;stroke:#1f77b4;stroke-opacity:0.8;" x="391.479087" xlink:href="#m38c8e38061" y="57.112727"/>
     <use style="fill:#1f77b4;fill-opacity:0.8;stroke:#1f77b4;stroke-opacity:0.8;" x="352.799279" xlink:href="#m38c8e38061" y="57.112727"/>
     <use style="fill:#1f77b4;fill-opacity:0.8;stroke:#1f77b4;stroke-opacity:0.8;" x="391.479087" xlink:href="#m38c8e38061" y="102.476364"/>
     <use style="fill:#1f77b4;fill-opacity:0.8;stroke:#1f77b4;stroke-opacity:0.8;" x="352.799279" xlink:href="#m38c8e38061" y="102.476364"/>
     <use style="fill:#1f77b4;fill-opacity:0.8;stroke:#1f77b4;stroke-opacity:0.8;" x="314.119471" xlink:href="#m38c8e38061" y="102.476364"/>
     <use style="fill:#1f77b4;fill-opacity:0.8;stroke:#1f77b4;stroke-opacity:0.8;" x="365.692548" xlink:href="#m38c8e38061" y="57.112727"/>
     <use style="fill:#1f77b4;fill-opacity:0.8;stroke:#1f77b4;stroke-opacity:0.8;" x="275.439663" xlink:href="#m38c8e38061" y="238.567273"/>
     <use style="fill:#1f77b4;fill-opacity:0.8;stroke:#1f77b4;stroke-opacity:0.8;" x="417.265625" xlink:href="#m38c8e38061" y="102.476364"/>
     <use style="fill:#1f77b4;fill-opacity:0.8;stroke:#1f77b4;stroke-opacity:0.8;" x="314.119471" xlink:href="#m38c8e38061" y="57.112727"/>
     <use style="fill:#1f77b4;fill-opacity:0.8;stroke:#1f77b4;stroke-opacity:0.8;" x="365.692548" xlink:href="#m38c8e38061" y="102.476364"/>
     <use style="fill:#1f77b4;fill-opacity:0.8;stroke:#1f77b4;stroke-opacity:0.8;" x="378.585817" xlink:href="#m38c8e38061" y="102.476364"/>
     <use style="fill:#1f77b4;fill-opacity:0.8;stroke:#1f77b4;stroke-opacity:0.8;" x="378.585817" xlink:href="#m38c8e38061" y="102.476364"/>
     <use style="fill:#1f77b4;fill-opacity:0.8;stroke:#1f77b4;stroke-opacity:0.8;" x="314.119471" xlink:href="#m38c8e38061" y="102.476364"/>
     <use style="fill:#1f77b4;fill-opacity:0.8;stroke:#1f77b4;stroke-opacity:0.8;" x="314.119471" xlink:href="#m38c8e38061" y="57.112727"/>
     <use style="fill:#1f77b4;fill-opacity:0.8;stroke:#1f77b4;stroke-opacity:0.8;" x="314.119471" xlink:href="#m38c8e38061" y="57.112727"/>
     <use style="fill:#1f77b4;fill-opacity:0.8;stroke:#1f77b4;stroke-opacity:0.8;" x="378.585817" xlink:href="#m38c8e38061" y="147.84"/>
     <use style="fill:#1f77b4;fill-opacity:0.8;stroke:#1f77b4;stroke-opacity:0.8;" x="378.585817" xlink:href="#m38c8e38061" y="57.112727"/>
     <use style="fill:#1f77b4;fill-opacity:0.8;stroke:#1f77b4;stroke-opacity:0.8;" x="249.653125" xlink:href="#m38c8e38061" y="102.476364"/>
     <use style="fill:#1f77b4;fill-opacity:0.8;stroke:#1f77b4;stroke-opacity:0.8;" x="327.01274" xlink:href="#m38c8e38061" y="102.476364"/>
     <use style="fill:#1f77b4;fill-opacity:0.8;stroke:#1f77b4;stroke-opacity:0.8;" x="352.799279" xlink:href="#m38c8e38061" y="102.476364"/>
     <use style="fill:#1f77b4;fill-opacity:0.8;stroke:#1f77b4;stroke-opacity:0.8;" x="314.119471" xlink:href="#m38c8e38061" y="102.476364"/>
     <use style="fill:#1f77b4;fill-opacity:0.8;stroke:#1f77b4;stroke-opacity:0.8;" x="339.90601" xlink:href="#m38c8e38061" y="102.476364"/>
     <use style="fill:#1f77b4;fill-opacity:0.8;stroke:#1f77b4;stroke-opacity:0.8;" x="327.01274" xlink:href="#m38c8e38061" y="147.84"/>
     <use style="fill:#1f77b4;fill-opacity:0.8;stroke:#1f77b4;stroke-opacity:0.8;" x="314.119471" xlink:href="#m38c8e38061" y="57.112727"/>
     <use style="fill:#1f77b4;fill-opacity:0.8;stroke:#1f77b4;stroke-opacity:0.8;" x="365.692548" xlink:href="#m38c8e38061" y="57.112727"/>
     <use style="fill:#1f77b4;fill-opacity:0.8;stroke:#1f77b4;stroke-opacity:0.8;" x="314.119471" xlink:href="#m38c8e38061" y="147.84"/>
     <use style="fill:#1f77b4;fill-opacity:0.8;stroke:#1f77b4;stroke-opacity:0.8;" x="314.119471" xlink:href="#m38c8e38061" y="102.476364"/>
     <use style="fill:#1f77b4;fill-opacity:0.8;stroke:#1f77b4;stroke-opacity:0.8;" x="314.119471" xlink:href="#m38c8e38061" y="57.112727"/>
     <use style="fill:#1f77b4;fill-opacity:0.8;stroke:#1f77b4;stroke-opacity:0.8;" x="378.585817" xlink:href="#m38c8e38061" y="102.476364"/>
    </g>
   </g>
   <g id="PolyCollection_2">
    <path clip-path="url(#p00e3c0165c)" d="M 249.653125 87.924795 
L 249.653125 157.038805 
L 251.346181 156.323423 
L 253.039236 155.608012 
L 254.732292 154.686945 
L 256.425347 153.730923 
L 258.118403 152.774902 
L 259.811458 151.831884 
L 261.504514 150.973871 
L 263.197569 150.11417 
L 264.890625 149.253169 
L 266.583681 148.301413 
L 268.276736 147.309433 
L 269.969792 146.317454 
L 271.662847 145.321955 
L 273.355903 144.326149 
L 275.048958 143.330342 
L 276.742014 142.512581 
L 278.435069 141.643412 
L 280.128125 140.642602 
L 281.821181 140.040498 
L 283.514236 139.438394 
L 285.207292 138.830113 
L 286.900347 137.86002 
L 288.593403 136.845993 
L 290.286458 135.831965 
L 291.979514 134.817937 
L 293.672569 133.851544 
L 295.365625 133.069477 
L 297.058681 132.181795 
L 298.751736 131.468472 
L 300.444792 130.648932 
L 302.137847 129.960738 
L 303.830903 129.129735 
L 305.523958 128.404531 
L 307.217014 127.458198 
L 308.910069 126.489072 
L 310.603125 125.836188 
L 312.296181 124.959153 
L 313.989236 124.121717 
L 315.682292 123.453632 
L 317.375347 122.672509 
L 319.068403 121.816472 
L 320.761458 120.958827 
L 322.454514 120.121792 
L 324.147569 119.32346 
L 325.840625 118.763433 
L 327.533681 118.303976 
L 329.226736 117.760249 
L 330.919792 117.010497 
L 332.612847 116.482031 
L 334.305903 115.959926 
L 335.998958 115.868401 
L 337.692014 115.439512 
L 339.385069 115.087646 
L 341.078125 114.156378 
L 342.771181 113.853685 
L 344.464236 113.475358 
L 346.157292 112.966596 
L 347.850347 112.652471 
L 349.543403 112.437323 
L 351.236458 112.224011 
L 352.929514 111.8373 
L 354.622569 111.543987 
L 356.315625 111.247073 
L 358.008681 111.253618 
L 359.701736 110.799119 
L 361.394792 110.654369 
L 363.087847 110.404363 
L 364.780903 110.494788 
L 366.473958 110.270913 
L 368.167014 109.988077 
L 369.860069 109.869405 
L 371.553125 110.083153 
L 373.246181 110.018297 
L 374.939236 109.834946 
L 376.632292 109.580842 
L 378.325347 109.508288 
L 380.018403 109.526681 
L 381.711458 109.250859 
L 383.404514 109.253396 
L 385.097569 109.443331 
L 386.790625 109.636426 
L 388.483681 109.662159 
L 390.176736 109.689275 
L 391.869792 109.712054 
L 393.562847 109.737578 
L 395.255903 109.75707 
L 396.948958 109.800032 
L 398.642014 109.827491 
L 400.335069 109.847965 
L 402.028125 109.891822 
L 403.721181 109.898319 
L 405.414236 109.992613 
L 407.107292 110.167017 
L 408.800347 110.05222 
L 410.493403 110.179056 
L 412.186458 110.305892 
L 413.879514 110.429217 
L 415.572569 110.55238 
L 417.265625 110.531663 
L 417.265625 62.015352 
L 417.265625 62.015352 
L 415.572569 62.922322 
L 413.879514 63.829292 
L 412.186458 64.683803 
L 410.493403 65.562446 
L 408.800347 66.394104 
L 407.107292 67.025617 
L 405.414236 67.75967 
L 403.721181 68.466015 
L 402.028125 69.125619 
L 400.335069 70.125118 
L 398.642014 70.853104 
L 396.948958 71.865983 
L 395.255903 72.701379 
L 393.562847 73.638601 
L 391.869792 74.547933 
L 390.176736 75.154372 
L 388.483681 75.946491 
L 386.790625 76.621469 
L 385.097569 77.150988 
L 383.404514 77.497015 
L 381.711458 78.074817 
L 380.018403 78.84673 
L 378.325347 79.901338 
L 376.632292 80.514255 
L 374.939236 81.184805 
L 373.246181 81.753966 
L 371.553125 82.269396 
L 369.860069 82.774926 
L 368.167014 83.202078 
L 366.473958 83.630141 
L 364.780903 83.994399 
L 363.087847 84.48533 
L 361.394792 84.914506 
L 359.701736 85.405214 
L 358.008681 85.769713 
L 356.315625 86.180388 
L 354.622569 86.630023 
L 352.929514 87.059239 
L 351.236458 87.375732 
L 349.543403 87.732656 
L 347.850347 87.954887 
L 346.157292 88.395898 
L 344.464236 88.57068 
L 342.771181 89.05368 
L 341.078125 89.454152 
L 339.385069 89.56285 
L 337.692014 89.668714 
L 335.998958 89.786359 
L 334.305903 89.897077 
L 332.612847 89.933352 
L 330.919792 90.081597 
L 329.226736 90.142285 
L 327.533681 90.170804 
L 325.840625 90.352623 
L 324.147569 90.324022 
L 322.454514 90.366103 
L 320.761458 90.27408 
L 319.068403 90.320619 
L 317.375347 90.46563 
L 315.682292 90.418973 
L 313.989236 90.333348 
L 312.296181 90.384329 
L 310.603125 90.268784 
L 308.910069 90.06662 
L 307.217014 90.021401 
L 305.523958 89.986496 
L 303.830903 89.95702 
L 302.137847 89.927543 
L 300.444792 89.802446 
L 298.751736 89.613237 
L 297.058681 89.586964 
L 295.365625 89.549565 
L 293.672569 89.333574 
L 291.979514 89.253917 
L 290.286458 89.061081 
L 288.593403 89.157012 
L 286.900347 89.032756 
L 285.207292 88.843092 
L 283.514236 88.656308 
L 281.821181 88.652959 
L 280.128125 88.708578 
L 278.435069 88.768805 
L 276.742014 88.829032 
L 275.048958 88.877759 
L 273.355903 88.840289 
L 271.662847 88.80282 
L 269.969792 88.588698 
L 268.276736 88.497021 
L 266.583681 88.516818 
L 264.890625 88.539261 
L 263.197569 88.56654 
L 261.504514 88.467885 
L 259.811458 88.363273 
L 258.118403 88.258661 
L 256.425347 88.154049 
L 254.732292 88.049437 
L 253.039236 87.944825 
L 251.346181 87.916902 
L 249.653125 87.924795 
z
" style="fill:#1f77b4;fill-opacity:0.15;"/>
   </g>
   <g id="matplotlib.axis_3">
    <g id="xtick_4">
     <g id="line2d_10">
      <g>
       <use style="stroke:#000000;stroke-width:0.8;" x="288.332933" xlink:href="#m02650674ab" y="247.64"/>
      </g>
     </g>
     <g id="text_12">
      <!-- 2 -->
      <g transform="translate(285.151683 262.238437)scale(0.1 -0.1)">
       <use xlink:href="#DejaVuSans-50"/>
      </g>
     </g>
    </g>
    <g id="xtick_5">
     <g id="line2d_11">
      <g>
       <use style="stroke:#000000;stroke-width:0.8;" x="339.90601" xlink:href="#m02650674ab" y="247.64"/>
      </g>
     </g>
     <g id="text_13">
      <!-- 3 -->
      <g transform="translate(336.72476 262.238437)scale(0.1 -0.1)">
       <use xlink:href="#DejaVuSans-51"/>
      </g>
     </g>
    </g>
    <g id="xtick_6">
     <g id="line2d_12">
      <g>
       <use style="stroke:#000000;stroke-width:0.8;" x="391.479087" xlink:href="#m02650674ab" y="247.64"/>
      </g>
     </g>
     <g id="text_14">
      <!-- 4 -->
      <g transform="translate(388.297837 262.238437)scale(0.1 -0.1)">
       <use xlink:href="#DejaVuSans-52"/>
      </g>
     </g>
    </g>
    <g id="text_15">
     <!-- E -->
     <g transform="translate(330.3 275.916562)scale(0.1 -0.1)">
      <use xlink:href="#DejaVuSans-69"/>
     </g>
    </g>
   </g>
   <g id="matplotlib.axis_4">
    <g id="ytick_6">
     <g id="line2d_13">
      <g>
       <use style="stroke:#000000;stroke-width:0.8;" x="249.653125" xlink:href="#ma7ad95a001" y="238.567273"/>
      </g>
     </g>
     <g id="text_16">
      <!-- 1.0 -->
      <g transform="translate(226.75 242.366491)scale(0.1 -0.1)">
       <defs>
        <path d="M 10.6875 12.40625 
L 21 12.40625 
L 21 0 
L 10.6875 0 
z
" id="DejaVuSans-46"/>
        <path d="M 31.78125 66.40625 
Q 24.171875 66.40625 20.328125 58.90625 
Q 16.5 51.421875 16.5 36.375 
Q 16.5 21.390625 20.328125 13.890625 
Q 24.171875 6.390625 31.78125 6.390625 
Q 39.453125 6.390625 43.28125 13.890625 
Q 47.125 21.390625 47.125 36.375 
Q 47.125 51.421875 43.28125 58.90625 
Q 39.453125 66.40625 31.78125 66.40625 
z
M 31.78125 74.21875 
Q 44.046875 74.21875 50.515625 64.515625 
Q 56.984375 54.828125 56.984375 36.375 
Q 56.984375 17.96875 50.515625 8.265625 
Q 44.046875 -1.421875 31.78125 -1.421875 
Q 19.53125 -1.421875 13.0625 8.265625 
Q 6.59375 17.96875 6.59375 36.375 
Q 6.59375 54.828125 13.0625 64.515625 
Q 19.53125 74.21875 31.78125 74.21875 
z
" id="DejaVuSans-48"/>
       </defs>
       <use xlink:href="#DejaVuSans-49"/>
       <use x="63.623047" xlink:href="#DejaVuSans-46"/>
       <use x="95.410156" xlink:href="#DejaVuSans-48"/>
      </g>
     </g>
    </g>
    <g id="ytick_7">
     <g id="line2d_14">
      <g>
       <use style="stroke:#000000;stroke-width:0.8;" x="249.653125" xlink:href="#ma7ad95a001" y="215.885455"/>
      </g>
     </g>
     <g id="text_17">
      <!-- 1.5 -->
      <g transform="translate(226.75 219.684673)scale(0.1 -0.1)">
       <use xlink:href="#DejaVuSans-49"/>
       <use x="63.623047" xlink:href="#DejaVuSans-46"/>
       <use x="95.410156" xlink:href="#DejaVuSans-53"/>
      </g>
     </g>
    </g>
    <g id="ytick_8">
     <g id="line2d_15">
      <g>
       <use style="stroke:#000000;stroke-width:0.8;" x="249.653125" xlink:href="#ma7ad95a001" y="193.203636"/>
      </g>
     </g>
     <g id="text_18">
      <!-- 2.0 -->
      <g transform="translate(226.75 197.002855)scale(0.1 -0.1)">
       <use xlink:href="#DejaVuSans-50"/>
       <use x="63.623047" xlink:href="#DejaVuSans-46"/>
       <use x="95.410156" xlink:href="#DejaVuSans-48"/>
      </g>
     </g>
    </g>
    <g id="ytick_9">
     <g id="line2d_16">
      <g>
       <use style="stroke:#000000;stroke-width:0.8;" x="249.653125" xlink:href="#ma7ad95a001" y="170.521818"/>
      </g>
     </g>
     <g id="text_19">
      <!-- 2.5 -->
      <g transform="translate(226.75 174.321037)scale(0.1 -0.1)">
       <use xlink:href="#DejaVuSans-50"/>
       <use x="63.623047" xlink:href="#DejaVuSans-46"/>
       <use x="95.410156" xlink:href="#DejaVuSans-53"/>
      </g>
     </g>
    </g>
    <g id="ytick_10">
     <g id="line2d_17">
      <g>
       <use style="stroke:#000000;stroke-width:0.8;" x="249.653125" xlink:href="#ma7ad95a001" y="147.84"/>
      </g>
     </g>
     <g id="text_20">
      <!-- 3.0 -->
      <g transform="translate(226.75 151.639219)scale(0.1 -0.1)">
       <use xlink:href="#DejaVuSans-51"/>
       <use x="63.623047" xlink:href="#DejaVuSans-46"/>
       <use x="95.410156" xlink:href="#DejaVuSans-48"/>
      </g>
     </g>
    </g>
    <g id="ytick_11">
     <g id="line2d_18">
      <g>
       <use style="stroke:#000000;stroke-width:0.8;" x="249.653125" xlink:href="#ma7ad95a001" y="125.158182"/>
      </g>
     </g>
     <g id="text_21">
      <!-- 3.5 -->
      <g transform="translate(226.75 128.957401)scale(0.1 -0.1)">
       <use xlink:href="#DejaVuSans-51"/>
       <use x="63.623047" xlink:href="#DejaVuSans-46"/>
       <use x="95.410156" xlink:href="#DejaVuSans-53"/>
      </g>
     </g>
    </g>
    <g id="ytick_12">
     <g id="line2d_19">
      <g>
       <use style="stroke:#000000;stroke-width:0.8;" x="249.653125" xlink:href="#ma7ad95a001" y="102.476364"/>
      </g>
     </g>
     <g id="text_22">
      <!-- 4.0 -->
      <g transform="translate(226.75 106.275582)scale(0.1 -0.1)">
       <use xlink:href="#DejaVuSans-52"/>
       <use x="63.623047" xlink:href="#DejaVuSans-46"/>
       <use x="95.410156" xlink:href="#DejaVuSans-48"/>
      </g>
     </g>
    </g>
    <g id="ytick_13">
     <g id="line2d_20">
      <g>
       <use style="stroke:#000000;stroke-width:0.8;" x="249.653125" xlink:href="#ma7ad95a001" y="79.794545"/>
      </g>
     </g>
     <g id="text_23">
      <!-- 4.5 -->
      <g transform="translate(226.75 83.593764)scale(0.1 -0.1)">
       <use xlink:href="#DejaVuSans-52"/>
       <use x="63.623047" xlink:href="#DejaVuSans-46"/>
       <use x="95.410156" xlink:href="#DejaVuSans-53"/>
      </g>
     </g>
    </g>
    <g id="ytick_14">
     <g id="line2d_21">
      <g>
       <use style="stroke:#000000;stroke-width:0.8;" x="249.653125" xlink:href="#ma7ad95a001" y="57.112727"/>
      </g>
     </g>
     <g id="text_24">
      <!-- 5.0 -->
      <g transform="translate(226.75 60.911946)scale(0.1 -0.1)">
       <use xlink:href="#DejaVuSans-53"/>
       <use x="63.623047" xlink:href="#DejaVuSans-46"/>
       <use x="95.410156" xlink:href="#DejaVuSans-48"/>
      </g>
     </g>
    </g>
    <g id="text_25">
     <!-- Trust8 -->
     <g transform="translate(220.670312 163.126719)rotate(-90)scale(0.1 -0.1)">
      <use xlink:href="#DejaVuSans-84"/>
      <use x="46.333984" xlink:href="#DejaVuSans-114"/>
      <use x="87.447266" xlink:href="#DejaVuSans-117"/>
      <use x="150.826172" xlink:href="#DejaVuSans-115"/>
      <use x="202.925781" xlink:href="#DejaVuSans-116"/>
      <use x="242.134766" xlink:href="#DejaVuSans-56"/>
     </g>
    </g>
   </g>
   <g id="line2d_22">
    <path clip-path="url(#p00e3c0165c)" d="M 249.653125 118.58204 
L 251.346181 118.257444 
L 253.039236 117.932847 
L 254.732292 117.608251 
L 256.425347 117.283655 
L 258.118403 116.959059 
L 259.811458 116.634463 
L 261.504514 116.309867 
L 263.197569 115.98527 
L 264.890625 115.660674 
L 266.583681 115.336078 
L 268.276736 115.011482 
L 269.969792 114.686886 
L 271.662847 114.362289 
L 273.355903 114.037693 
L 275.048958 113.713097 
L 276.742014 113.388501 
L 278.435069 113.063905 
L 280.128125 112.739309 
L 281.821181 112.414712 
L 283.514236 112.090116 
L 285.207292 111.76552 
L 286.900347 111.440924 
L 288.593403 111.116328 
L 290.286458 110.791731 
L 291.979514 110.467135 
L 293.672569 110.142539 
L 295.365625 109.817943 
L 297.058681 109.493347 
L 298.751736 109.168751 
L 300.444792 108.844154 
L 302.137847 108.519558 
L 303.830903 108.194962 
L 305.523958 107.870366 
L 307.217014 107.54577 
L 308.910069 107.221173 
L 310.603125 106.896577 
L 312.296181 106.571981 
L 313.989236 106.247385 
L 315.682292 105.922789 
L 317.375347 105.598192 
L 319.068403 105.273596 
L 320.761458 104.949 
L 322.454514 104.624404 
L 324.147569 104.299808 
L 325.840625 103.975212 
L 327.533681 103.650615 
L 329.226736 103.326019 
L 330.919792 103.001423 
L 332.612847 102.676827 
L 334.305903 102.352231 
L 335.998958 102.027634 
L 337.692014 101.703038 
L 339.385069 101.378442 
L 341.078125 101.053846 
L 342.771181 100.72925 
L 344.464236 100.404654 
L 346.157292 100.080057 
L 347.850347 99.755461 
L 349.543403 99.430865 
L 351.236458 99.106269 
L 352.929514 98.781673 
L 354.622569 98.457076 
L 356.315625 98.13248 
L 358.008681 97.807884 
L 359.701736 97.483288 
L 361.394792 97.158692 
L 363.087847 96.834096 
L 364.780903 96.509499 
L 366.473958 96.184903 
L 368.167014 95.860307 
L 369.860069 95.535711 
L 371.553125 95.211115 
L 373.246181 94.886518 
L 374.939236 94.561922 
L 376.632292 94.237326 
L 378.325347 93.91273 
L 380.018403 93.588134 
L 381.711458 93.263537 
L 383.404514 92.938941 
L 385.097569 92.614345 
L 386.790625 92.289749 
L 388.483681 91.965153 
L 390.176736 91.640557 
L 391.869792 91.31596 
L 393.562847 90.991364 
L 395.255903 90.666768 
L 396.948958 90.342172 
L 398.642014 90.017576 
L 400.335069 89.692979 
L 402.028125 89.368383 
L 403.721181 89.043787 
L 405.414236 88.719191 
L 407.107292 88.394595 
L 408.800347 88.069999 
L 410.493403 87.745402 
L 412.186458 87.420806 
L 413.879514 87.09621 
L 415.572569 86.771614 
L 417.265625 86.447018 
" style="fill:none;stroke:#1f77b4;stroke-linecap:square;stroke-width:2.25;"/>
   </g>
   <g id="patch_8">
    <path d="M 249.653125 247.64 
L 249.653125 48.04 
" style="fill:none;stroke:#000000;stroke-linecap:square;stroke-linejoin:miter;stroke-width:0.8;"/>
   </g>
   <g id="patch_9">
    <path d="M 417.265625 247.64 
L 417.265625 48.04 
" style="fill:none;stroke:#000000;stroke-linecap:square;stroke-linejoin:miter;stroke-width:0.8;"/>
   </g>
   <g id="patch_10">
    <path d="M 249.653125 247.64 
L 417.265625 247.64 
" style="fill:none;stroke:#000000;stroke-linecap:square;stroke-linejoin:miter;stroke-width:0.8;"/>
   </g>
   <g id="patch_11">
    <path d="M 249.653125 48.04 
L 417.265625 48.04 
" style="fill:none;stroke:#000000;stroke-linecap:square;stroke-linejoin:miter;stroke-width:0.8;"/>
   </g>
   <g id="text_26">
    <!-- Group B -->
    <g transform="translate(249.653125 42.04)scale(0.12 -0.12)">
     <defs>
      <path d="M 19.671875 34.8125 
L 19.671875 8.109375 
L 35.5 8.109375 
Q 43.453125 8.109375 47.28125 11.40625 
Q 51.125 14.703125 51.125 21.484375 
Q 51.125 28.328125 47.28125 31.5625 
Q 43.453125 34.8125 35.5 34.8125 
z
M 19.671875 64.796875 
L 19.671875 42.828125 
L 34.28125 42.828125 
Q 41.5 42.828125 45.03125 45.53125 
Q 48.578125 48.25 48.578125 53.8125 
Q 48.578125 59.328125 45.03125 62.0625 
Q 41.5 64.796875 34.28125 64.796875 
z
M 9.8125 72.90625 
L 35.015625 72.90625 
Q 46.296875 72.90625 52.390625 68.21875 
Q 58.5 63.53125 58.5 54.890625 
Q 58.5 48.1875 55.375 44.234375 
Q 52.25 40.28125 46.1875 39.3125 
Q 53.46875 37.75 57.5 32.78125 
Q 61.53125 27.828125 61.53125 20.40625 
Q 61.53125 10.640625 54.890625 5.3125 
Q 48.25 0 35.984375 0 
L 9.8125 0 
z
" id="DejaVuSans-66"/>
     </defs>
     <use xlink:href="#DejaVuSans-71"/>
     <use x="77.490234" xlink:href="#DejaVuSans-114"/>
     <use x="116.353516" xlink:href="#DejaVuSans-111"/>
     <use x="177.535156" xlink:href="#DejaVuSans-117"/>
     <use x="240.914062" xlink:href="#DejaVuSans-112"/>
     <use x="304.390625" xlink:href="#DejaVuSans-32"/>
     <use x="336.177734" xlink:href="#DejaVuSans-66"/>
    </g>
   </g>
  </g>
  <g id="text_27">
   <!-- I trust the bike chatbot. -->
   <g transform="translate(163.03121 13.529498)scale(0.0833 -0.0833)">
    <defs>
     <path d="M 9.8125 72.90625 
L 19.671875 72.90625 
L 19.671875 0 
L 9.8125 0 
z
" id="DejaVuSans-73"/>
     <path d="M 54.890625 33.015625 
L 54.890625 0 
L 45.90625 0 
L 45.90625 32.71875 
Q 45.90625 40.484375 42.875 44.328125 
Q 39.84375 48.1875 33.796875 48.1875 
Q 26.515625 48.1875 22.3125 43.546875 
Q 18.109375 38.921875 18.109375 30.90625 
L 18.109375 0 
L 9.078125 0 
L 9.078125 75.984375 
L 18.109375 75.984375 
L 18.109375 46.1875 
Q 21.34375 51.125 25.703125 53.5625 
Q 30.078125 56 35.796875 56 
Q 45.21875 56 50.046875 50.171875 
Q 54.890625 44.34375 54.890625 33.015625 
z
" id="DejaVuSans-104"/>
     <path d="M 56.203125 29.59375 
L 56.203125 25.203125 
L 14.890625 25.203125 
Q 15.484375 15.921875 20.484375 11.0625 
Q 25.484375 6.203125 34.421875 6.203125 
Q 39.59375 6.203125 44.453125 7.46875 
Q 49.3125 8.734375 54.109375 11.28125 
L 54.109375 2.78125 
Q 49.265625 0.734375 44.1875 -0.34375 
Q 39.109375 -1.421875 33.890625 -1.421875 
Q 20.796875 -1.421875 13.15625 6.1875 
Q 5.515625 13.8125 5.515625 26.8125 
Q 5.515625 40.234375 12.765625 48.109375 
Q 20.015625 56 32.328125 56 
Q 43.359375 56 49.78125 48.890625 
Q 56.203125 41.796875 56.203125 29.59375 
z
M 47.21875 32.234375 
Q 47.125 39.59375 43.09375 43.984375 
Q 39.0625 48.390625 32.421875 48.390625 
Q 24.90625 48.390625 20.390625 44.140625 
Q 15.875 39.890625 15.1875 32.171875 
z
" id="DejaVuSans-101"/>
     <path d="M 48.6875 27.296875 
Q 48.6875 37.203125 44.609375 42.84375 
Q 40.53125 48.484375 33.40625 48.484375 
Q 26.265625 48.484375 22.1875 42.84375 
Q 18.109375 37.203125 18.109375 27.296875 
Q 18.109375 17.390625 22.1875 11.75 
Q 26.265625 6.109375 33.40625 6.109375 
Q 40.53125 6.109375 44.609375 11.75 
Q 48.6875 17.390625 48.6875 27.296875 
z
M 18.109375 46.390625 
Q 20.953125 51.265625 25.265625 53.625 
Q 29.59375 56 35.59375 56 
Q 45.5625 56 51.78125 48.09375 
Q 58.015625 40.1875 58.015625 27.296875 
Q 58.015625 14.40625 51.78125 6.484375 
Q 45.5625 -1.421875 35.59375 -1.421875 
Q 29.59375 -1.421875 25.265625 0.953125 
Q 20.953125 3.328125 18.109375 8.203125 
L 18.109375 0 
L 9.078125 0 
L 9.078125 75.984375 
L 18.109375 75.984375 
z
" id="DejaVuSans-98"/>
     <path d="M 9.421875 54.6875 
L 18.40625 54.6875 
L 18.40625 0 
L 9.421875 0 
z
M 9.421875 75.984375 
L 18.40625 75.984375 
L 18.40625 64.59375 
L 9.421875 64.59375 
z
" id="DejaVuSans-105"/>
     <path d="M 9.078125 75.984375 
L 18.109375 75.984375 
L 18.109375 31.109375 
L 44.921875 54.6875 
L 56.390625 54.6875 
L 27.390625 29.109375 
L 57.625 0 
L 45.90625 0 
L 18.109375 26.703125 
L 18.109375 0 
L 9.078125 0 
z
" id="DejaVuSans-107"/>
     <path d="M 48.78125 52.59375 
L 48.78125 44.1875 
Q 44.96875 46.296875 41.140625 47.34375 
Q 37.3125 48.390625 33.40625 48.390625 
Q 24.65625 48.390625 19.8125 42.84375 
Q 14.984375 37.3125 14.984375 27.296875 
Q 14.984375 17.28125 19.8125 11.734375 
Q 24.65625 6.203125 33.40625 6.203125 
Q 37.3125 6.203125 41.140625 7.25 
Q 44.96875 8.296875 48.78125 10.40625 
L 48.78125 2.09375 
Q 45.015625 0.34375 40.984375 -0.53125 
Q 36.96875 -1.421875 32.421875 -1.421875 
Q 20.0625 -1.421875 12.78125 6.34375 
Q 5.515625 14.109375 5.515625 27.296875 
Q 5.515625 40.671875 12.859375 48.328125 
Q 20.21875 56 33.015625 56 
Q 37.15625 56 41.109375 55.140625 
Q 45.0625 54.296875 48.78125 52.59375 
z
" id="DejaVuSans-99"/>
     <path d="M 34.28125 27.484375 
Q 23.390625 27.484375 19.1875 25 
Q 14.984375 22.515625 14.984375 16.5 
Q 14.984375 11.71875 18.140625 8.90625 
Q 21.296875 6.109375 26.703125 6.109375 
Q 34.1875 6.109375 38.703125 11.40625 
Q 43.21875 16.703125 43.21875 25.484375 
L 43.21875 27.484375 
z
M 52.203125 31.203125 
L 52.203125 0 
L 43.21875 0 
L 43.21875 8.296875 
Q 40.140625 3.328125 35.546875 0.953125 
Q 30.953125 -1.421875 24.3125 -1.421875 
Q 15.921875 -1.421875 10.953125 3.296875 
Q 6 8.015625 6 15.921875 
Q 6 25.140625 12.171875 29.828125 
Q 18.359375 34.515625 30.609375 34.515625 
L 43.21875 34.515625 
L 43.21875 35.40625 
Q 43.21875 41.609375 39.140625 45 
Q 35.0625 48.390625 27.6875 48.390625 
Q 23 48.390625 18.546875 47.265625 
Q 14.109375 46.140625 10.015625 43.890625 
L 10.015625 52.203125 
Q 14.9375 54.109375 19.578125 55.046875 
Q 24.21875 56 28.609375 56 
Q 40.484375 56 46.34375 49.84375 
Q 52.203125 43.703125 52.203125 31.203125 
z
" id="DejaVuSans-97"/>
    </defs>
    <use xlink:href="#DejaVuSans-73"/>
    <use x="29.492188" xlink:href="#DejaVuSans-32"/>
    <use x="61.279297" xlink:href="#DejaVuSans-116"/>
    <use x="100.488281" xlink:href="#DejaVuSans-114"/>
    <use x="141.601562" xlink:href="#DejaVuSans-117"/>
    <use x="204.980469" xlink:href="#DejaVuSans-115"/>
    <use x="257.080078" xlink:href="#DejaVuSans-116"/>
    <use x="296.289062" xlink:href="#DejaVuSans-32"/>
    <use x="328.076172" xlink:href="#DejaVuSans-116"/>
    <use x="367.285156" xlink:href="#DejaVuSans-104"/>
    <use x="430.664062" xlink:href="#DejaVuSans-101"/>
    <use x="492.1875" xlink:href="#DejaVuSans-32"/>
    <use x="523.974609" xlink:href="#DejaVuSans-98"/>
    <use x="587.451172" xlink:href="#DejaVuSans-105"/>
    <use x="615.234375" xlink:href="#DejaVuSans-107"/>
    <use x="669.519531" xlink:href="#DejaVuSans-101"/>
    <use x="731.042969" xlink:href="#DejaVuSans-32"/>
    <use x="762.830078" xlink:href="#DejaVuSans-99"/>
    <use x="817.810547" xlink:href="#DejaVuSans-104"/>
    <use x="881.189453" xlink:href="#DejaVuSans-97"/>
    <use x="942.46875" xlink:href="#DejaVuSans-116"/>
    <use x="981.677734" xlink:href="#DejaVuSans-98"/>
    <use x="1045.154297" xlink:href="#DejaVuSans-111"/>
    <use x="1106.335938" xlink:href="#DejaVuSans-116"/>
    <use x="1145.544922" xlink:href="#DejaVuSans-46"/>
   </g>
  </g>
 </g>
 <defs>
  <clipPath id="p99dde1b1f0">
   <rect height="199.6" width="167.6125" x="34.240625" y="48.04"/>
  </clipPath>
  <clipPath id="p00e3c0165c">
   <rect height="199.6" width="167.6125" x="249.653125" y="48.04"/>
  </clipPath>
 </defs>
</svg>
