<?xml version="1.0" encoding="utf-8" standalone="no"?>
<!DOCTYPE svg PUBLIC "-//W3C//DTD SVG 1.1//EN"
  "http://www.w3.org/Graphics/SVG/1.1/DTD/svg11.dtd">
<!-- Created with matplotlib (https://matplotlib.org/) -->
<svg height="285.19625pt" version="1.1" viewBox="0 0 424.49375 285.19625" width="424.49375pt" xmlns="http://www.w3.org/2000/svg" xmlns:xlink="http://www.w3.org/1999/xlink">
 <metadata>
  <rdf:RDF xmlns:cc="http://creativecommons.org/ns#" xmlns:dc="http://purl.org/dc/elements/1.1/" xmlns:rdf="http://www.w3.org/1999/02/22-rdf-syntax-ns#">
   <cc:Work>
    <dc:type rdf:resource="http://purl.org/dc/dcmitype/StillImage"/>
    <dc:date>2021-02-21T18:27:37.564009</dc:date>
    <dc:format>image/svg+xml</dc:format>
    <dc:creator>
     <cc:Agent>
      <dc:title>Matplotlib v3.3.2, https://matplotlib.org/</dc:title>
     </cc:Agent>
    </dc:creator>
   </cc:Work>
  </rdf:RDF>
 </metadata>
 <defs>
  <style type="text/css">*{stroke-linecap:butt;stroke-linejoin:round;}</style>
 </defs>
 <g id="figure_1">
  <g id="patch_1">
   <path d="M 0 285.19625 
L 424.49375 285.19625 
L 424.49375 0 
L 0 0 
z
" style="fill:none;"/>
  </g>
  <g id="axes_1">
   <g id="patch_2">
    <path d="M 50.14375 247.64 
L 214.63125 247.64 
L 214.63125 48.04 
L 50.14375 48.04 
z
" style="fill:#ffffff;"/>
   </g>
   <g id="PathCollection_1">
    <defs>
     <path d="M 0 3 
C 0.795609 3 1.55874 2.683901 2.12132 2.12132 
C 2.683901 1.55874 3 0.795609 3 0 
C 3 -0.795609 2.683901 -1.55874 2.12132 -2.12132 
C 1.55874 -2.683901 0.795609 -3 0 -3 
C -0.795609 -3 -1.55874 -2.683901 -2.12132 -2.12132 
C -2.683901 -1.55874 -3 -0.795609 -3 0 
C -3 0.795609 -2.683901 1.55874 -2.12132 2.12132 
C -1.55874 2.683901 -0.795609 3 0 3 
z
" id="mdb0276cbd7" style="stroke:#1f77b4;stroke-opacity:0.8;"/>
    </defs>
    <g clip-path="url(#p2b535b3073)">
     <use style="fill:#1f77b4;fill-opacity:0.8;stroke:#1f77b4;stroke-opacity:0.8;" x="151.366827" xlink:href="#mdb0276cbd7" y="147.84"/>
     <use style="fill:#1f77b4;fill-opacity:0.8;stroke:#1f77b4;stroke-opacity:0.8;" x="75.449519" xlink:href="#mdb0276cbd7" y="57.112727"/>
     <use style="fill:#1f77b4;fill-opacity:0.8;stroke:#1f77b4;stroke-opacity:0.8;" x="88.102404" xlink:href="#mdb0276cbd7" y="57.112727"/>
     <use style="fill:#1f77b4;fill-opacity:0.8;stroke:#1f77b4;stroke-opacity:0.8;" x="151.366827" xlink:href="#mdb0276cbd7" y="147.84"/>
     <use style="fill:#1f77b4;fill-opacity:0.8;stroke:#1f77b4;stroke-opacity:0.8;" x="176.672596" xlink:href="#mdb0276cbd7" y="147.84"/>
     <use style="fill:#1f77b4;fill-opacity:0.8;stroke:#1f77b4;stroke-opacity:0.8;" x="138.713942" xlink:href="#mdb0276cbd7" y="147.84"/>
     <use style="fill:#1f77b4;fill-opacity:0.8;stroke:#1f77b4;stroke-opacity:0.8;" x="189.325481" xlink:href="#mdb0276cbd7" y="147.84"/>
     <use style="fill:#1f77b4;fill-opacity:0.8;stroke:#1f77b4;stroke-opacity:0.8;" x="138.713942" xlink:href="#mdb0276cbd7" y="238.567273"/>
     <use style="fill:#1f77b4;fill-opacity:0.8;stroke:#1f77b4;stroke-opacity:0.8;" x="88.102404" xlink:href="#mdb0276cbd7" y="147.84"/>
     <use style="fill:#1f77b4;fill-opacity:0.8;stroke:#1f77b4;stroke-opacity:0.8;" x="126.061058" xlink:href="#mdb0276cbd7" y="147.84"/>
     <use style="fill:#1f77b4;fill-opacity:0.8;stroke:#1f77b4;stroke-opacity:0.8;" x="126.061058" xlink:href="#mdb0276cbd7" y="57.112727"/>
     <use style="fill:#1f77b4;fill-opacity:0.8;stroke:#1f77b4;stroke-opacity:0.8;" x="176.672596" xlink:href="#mdb0276cbd7" y="57.112727"/>
     <use style="fill:#1f77b4;fill-opacity:0.8;stroke:#1f77b4;stroke-opacity:0.8;" x="100.755288" xlink:href="#mdb0276cbd7" y="57.112727"/>
     <use style="fill:#1f77b4;fill-opacity:0.8;stroke:#1f77b4;stroke-opacity:0.8;" x="138.713942" xlink:href="#mdb0276cbd7" y="147.84"/>
     <use style="fill:#1f77b4;fill-opacity:0.8;stroke:#1f77b4;stroke-opacity:0.8;" x="138.713942" xlink:href="#mdb0276cbd7" y="147.84"/>
     <use style="fill:#1f77b4;fill-opacity:0.8;stroke:#1f77b4;stroke-opacity:0.8;" x="164.019712" xlink:href="#mdb0276cbd7" y="57.112727"/>
     <use style="fill:#1f77b4;fill-opacity:0.8;stroke:#1f77b4;stroke-opacity:0.8;" x="126.061058" xlink:href="#mdb0276cbd7" y="147.84"/>
     <use style="fill:#1f77b4;fill-opacity:0.8;stroke:#1f77b4;stroke-opacity:0.8;" x="113.408173" xlink:href="#mdb0276cbd7" y="147.84"/>
     <use style="fill:#1f77b4;fill-opacity:0.8;stroke:#1f77b4;stroke-opacity:0.8;" x="164.019712" xlink:href="#mdb0276cbd7" y="147.84"/>
     <use style="fill:#1f77b4;fill-opacity:0.8;stroke:#1f77b4;stroke-opacity:0.8;" x="50.14375" xlink:href="#mdb0276cbd7" y="147.84"/>
     <use style="fill:#1f77b4;fill-opacity:0.8;stroke:#1f77b4;stroke-opacity:0.8;" x="100.755288" xlink:href="#mdb0276cbd7" y="57.112727"/>
     <use style="fill:#1f77b4;fill-opacity:0.8;stroke:#1f77b4;stroke-opacity:0.8;" x="214.63125" xlink:href="#mdb0276cbd7" y="57.112727"/>
     <use style="fill:#1f77b4;fill-opacity:0.8;stroke:#1f77b4;stroke-opacity:0.8;" x="126.061058" xlink:href="#mdb0276cbd7" y="57.112727"/>
     <use style="fill:#1f77b4;fill-opacity:0.8;stroke:#1f77b4;stroke-opacity:0.8;" x="126.061058" xlink:href="#mdb0276cbd7" y="147.84"/>
     <use style="fill:#1f77b4;fill-opacity:0.8;stroke:#1f77b4;stroke-opacity:0.8;" x="126.061058" xlink:href="#mdb0276cbd7" y="57.112727"/>
     <use style="fill:#1f77b4;fill-opacity:0.8;stroke:#1f77b4;stroke-opacity:0.8;" x="126.061058" xlink:href="#mdb0276cbd7" y="238.567273"/>
     <use style="fill:#1f77b4;fill-opacity:0.8;stroke:#1f77b4;stroke-opacity:0.8;" x="113.408173" xlink:href="#mdb0276cbd7" y="147.84"/>
     <use style="fill:#1f77b4;fill-opacity:0.8;stroke:#1f77b4;stroke-opacity:0.8;" x="100.755288" xlink:href="#mdb0276cbd7" y="147.84"/>
     <use style="fill:#1f77b4;fill-opacity:0.8;stroke:#1f77b4;stroke-opacity:0.8;" x="113.408173" xlink:href="#mdb0276cbd7" y="147.84"/>
     <use style="fill:#1f77b4;fill-opacity:0.8;stroke:#1f77b4;stroke-opacity:0.8;" x="126.061058" xlink:href="#mdb0276cbd7" y="147.84"/>
     <use style="fill:#1f77b4;fill-opacity:0.8;stroke:#1f77b4;stroke-opacity:0.8;" x="126.061058" xlink:href="#mdb0276cbd7" y="147.84"/>
     <use style="fill:#1f77b4;fill-opacity:0.8;stroke:#1f77b4;stroke-opacity:0.8;" x="100.755288" xlink:href="#mdb0276cbd7" y="57.112727"/>
     <use style="fill:#1f77b4;fill-opacity:0.8;stroke:#1f77b4;stroke-opacity:0.8;" x="138.713942" xlink:href="#mdb0276cbd7" y="147.84"/>
     <use style="fill:#1f77b4;fill-opacity:0.8;stroke:#1f77b4;stroke-opacity:0.8;" x="138.713942" xlink:href="#mdb0276cbd7" y="147.84"/>
     <use style="fill:#1f77b4;fill-opacity:0.8;stroke:#1f77b4;stroke-opacity:0.8;" x="113.408173" xlink:href="#mdb0276cbd7" y="57.112727"/>
     <use style="fill:#1f77b4;fill-opacity:0.8;stroke:#1f77b4;stroke-opacity:0.8;" x="113.408173" xlink:href="#mdb0276cbd7" y="147.84"/>
     <use style="fill:#1f77b4;fill-opacity:0.8;stroke:#1f77b4;stroke-opacity:0.8;" x="100.755288" xlink:href="#mdb0276cbd7" y="238.567273"/>
     <use style="fill:#1f77b4;fill-opacity:0.8;stroke:#1f77b4;stroke-opacity:0.8;" x="126.061058" xlink:href="#mdb0276cbd7" y="57.112727"/>
     <use style="fill:#1f77b4;fill-opacity:0.8;stroke:#1f77b4;stroke-opacity:0.8;" x="113.408173" xlink:href="#mdb0276cbd7" y="147.84"/>
     <use style="fill:#1f77b4;fill-opacity:0.8;stroke:#1f77b4;stroke-opacity:0.8;" x="100.755288" xlink:href="#mdb0276cbd7" y="147.84"/>
     <use style="fill:#1f77b4;fill-opacity:0.8;stroke:#1f77b4;stroke-opacity:0.8;" x="62.796635" xlink:href="#mdb0276cbd7" y="57.112727"/>
    </g>
   </g>
   <g id="PolyCollection_1">
    <path clip-path="url(#p2b535b3073)" d="M 50.14375 68.194214 
L 50.14375 160.070794 
L 51.80524 159.531843 
L 53.46673 158.989701 
L 55.12822 158.340757 
L 56.78971 157.685621 
L 58.451199 156.831434 
L 60.112689 156.013517 
L 61.774179 155.272615 
L 63.435669 154.809145 
L 65.097159 154.375808 
L 66.758649 153.94247 
L 68.420139 153.502166 
L 70.081629 152.608591 
L 71.743119 151.867902 
L 73.404609 151.300582 
L 75.066098 150.733149 
L 76.727588 150.332525 
L 78.389078 150.085818 
L 80.050568 149.80228 
L 81.712058 149.241435 
L 83.373548 148.674801 
L 85.035038 148.105916 
L 86.696528 147.533858 
L 88.358018 146.955759 
L 90.019508 146.036382 
L 91.680997 145.516173 
L 93.342487 145.248883 
L 95.003977 144.913286 
L 96.665467 144.651981 
L 98.326957 144.178277 
L 99.988447 143.917225 
L 101.649937 143.721681 
L 103.311427 143.231596 
L 104.972917 142.876174 
L 106.634407 142.515251 
L 108.295896 142.086487 
L 109.957386 141.680999 
L 111.618876 141.484408 
L 113.280366 141.376259 
L 114.941856 141.257619 
L 116.603346 141.044132 
L 118.264836 140.879691 
L 119.926326 140.477053 
L 121.587816 140.163231 
L 123.249306 140.428957 
L 124.910795 140.680836 
L 126.572285 140.589965 
L 128.233775 141.060453 
L 129.895265 141.036815 
L 131.556755 141.712082 
L 133.218245 142.214943 
L 134.879735 142.564849 
L 136.541225 143.220173 
L 138.202715 143.582594 
L 139.864205 144.840026 
L 141.525694 145.961178 
L 143.187184 146.643245 
L 144.848674 147.258229 
L 146.510164 148.004178 
L 148.171654 148.633521 
L 149.833144 149.189443 
L 151.494634 150.049494 
L 153.156124 150.929454 
L 154.817614 151.668042 
L 156.479104 152.345044 
L 158.140593 152.930066 
L 159.802083 153.514039 
L 161.463573 154.506092 
L 163.125063 155.753171 
L 164.786553 157.00025 
L 166.448043 158.213852 
L 168.109533 159.228801 
L 169.771023 160.594438 
L 171.432513 161.812227 
L 173.094003 163.055994 
L 174.755492 164.131966 
L 176.416982 165.126742 
L 178.078472 166.13169 
L 179.739962 167.419539 
L 181.401452 168.716881 
L 183.062942 170.133307 
L 184.724432 171.050332 
L 186.385922 171.96123 
L 188.047412 172.872129 
L 189.708902 173.969658 
L 191.370391 175.263564 
L 193.031881 176.424591 
L 194.693371 177.381018 
L 196.354861 178.74134 
L 198.016351 180.119495 
L 199.677841 181.358049 
L 201.339331 182.582375 
L 203.000821 183.570477 
L 204.662311 184.598664 
L 206.323801 185.542929 
L 207.98529 186.487193 
L 209.64678 187.431458 
L 211.30827 188.642762 
L 212.96976 189.985028 
L 214.63125 191.455509 
L 214.63125 89.367991 
L 214.63125 89.367991 
L 212.96976 89.672323 
L 211.30827 90.135122 
L 209.64678 90.700837 
L 207.98529 91.269289 
L 206.323801 91.83491 
L 204.662311 92.397563 
L 203.000821 92.960217 
L 201.339331 93.52287 
L 199.677841 94.098783 
L 198.016351 94.969231 
L 196.354861 95.816304 
L 194.693371 96.383094 
L 193.031881 96.949885 
L 191.370391 97.516676 
L 189.708902 97.825231 
L 188.047412 98.036722 
L 186.385922 98.222393 
L 184.724432 98.443456 
L 183.062942 98.876865 
L 181.401452 99.634491 
L 179.739962 100.396294 
L 178.078472 100.911297 
L 176.416982 101.187599 
L 174.755492 101.829455 
L 173.094003 102.012753 
L 171.432513 102.398279 
L 169.771023 102.686119 
L 168.109533 102.964671 
L 166.448043 103.328339 
L 164.786553 103.697294 
L 163.125063 104.06755 
L 161.463573 104.267236 
L 159.802083 104.57719 
L 158.140593 105.13168 
L 156.479104 105.639872 
L 154.817614 106.003901 
L 153.156124 106.252984 
L 151.494634 106.384665 
L 149.833144 106.856667 
L 148.171654 107.074063 
L 146.510164 107.34085 
L 144.848674 107.782625 
L 143.187184 108.088972 
L 141.525694 108.163836 
L 139.864205 108.363675 
L 138.202715 108.326739 
L 136.541225 108.494286 
L 134.879735 108.553513 
L 133.218245 108.648898 
L 131.556755 108.437287 
L 129.895265 108.240869 
L 128.233775 108.17488 
L 126.572285 108.111572 
L 124.910795 108.066415 
L 123.249306 107.986316 
L 121.587816 107.947458 
L 119.926326 107.340367 
L 118.264836 106.991902 
L 116.603346 106.777635 
L 114.941856 106.397313 
L 113.280366 106.098785 
L 111.618876 105.848429 
L 109.957386 105.594159 
L 108.295896 105.125011 
L 106.634407 104.597657 
L 104.972917 104.211282 
L 103.311427 103.63117 
L 101.649937 102.799351 
L 99.988447 101.918618 
L 98.326957 100.856157 
L 96.665467 100.206217 
L 95.003977 99.144706 
L 93.342487 97.800367 
L 91.680997 96.590572 
L 90.019508 95.488766 
L 88.358018 94.239187 
L 86.696528 93.130226 
L 85.035038 92.035577 
L 83.373548 90.795883 
L 81.712058 89.831283 
L 80.050568 88.735355 
L 78.389078 87.591278 
L 76.727588 86.532791 
L 75.066098 85.428328 
L 73.404609 84.22771 
L 71.743119 83.234126 
L 70.081629 82.26776 
L 68.420139 81.16601 
L 66.758649 80.06426 
L 65.097159 78.962509 
L 63.435669 77.861742 
L 61.774179 76.760512 
L 60.112689 75.657258 
L 58.451199 74.555507 
L 56.78971 73.453757 
L 55.12822 72.220999 
L 53.46673 70.862157 
L 51.80524 69.473108 
L 50.14375 68.194214 
z
" style="fill:#1f77b4;fill-opacity:0.15;"/>
   </g>
   <g id="matplotlib.axis_1">
    <g id="xtick_1">
     <g id="line2d_1">
      <defs>
       <path d="M 0 0 
L 0 3.5 
" id="mc4c2a52620" style="stroke:#000000;stroke-width:0.8;"/>
      </defs>
      <g>
       <use style="stroke:#000000;stroke-width:0.8;" x="75.449519" xlink:href="#mc4c2a52620" y="247.64"/>
      </g>
     </g>
     <g id="text_1">
      <!-- 2 -->
      <g transform="translate(72.268269 262.238437)scale(0.1 -0.1)">
       <defs>
        <path d="M 19.1875 8.296875 
L 53.609375 8.296875 
L 53.609375 0 
L 7.328125 0 
L 7.328125 8.296875 
Q 12.9375 14.109375 22.625 23.890625 
Q 32.328125 33.6875 34.8125 36.53125 
Q 39.546875 41.84375 41.421875 45.53125 
Q 43.3125 49.21875 43.3125 52.78125 
Q 43.3125 58.59375 39.234375 62.25 
Q 35.15625 65.921875 28.609375 65.921875 
Q 23.96875 65.921875 18.8125 64.3125 
Q 13.671875 62.703125 7.8125 59.421875 
L 7.8125 69.390625 
Q 13.765625 71.78125 18.9375 73 
Q 24.125 74.21875 28.421875 74.21875 
Q 39.75 74.21875 46.484375 68.546875 
Q 53.21875 62.890625 53.21875 53.421875 
Q 53.21875 48.921875 51.53125 44.890625 
Q 49.859375 40.875 45.40625 35.40625 
Q 44.1875 33.984375 37.640625 27.21875 
Q 31.109375 20.453125 19.1875 8.296875 
z
" id="DejaVuSans-50"/>
       </defs>
       <use xlink:href="#DejaVuSans-50"/>
      </g>
     </g>
    </g>
    <g id="xtick_2">
     <g id="line2d_2">
      <g>
       <use style="stroke:#000000;stroke-width:0.8;" x="126.061058" xlink:href="#mc4c2a52620" y="247.64"/>
      </g>
     </g>
     <g id="text_2">
      <!-- 3 -->
      <g transform="translate(122.879808 262.238437)scale(0.1 -0.1)">
       <defs>
        <path d="M 40.578125 39.3125 
Q 47.65625 37.796875 51.625 33 
Q 55.609375 28.21875 55.609375 21.1875 
Q 55.609375 10.40625 48.1875 4.484375 
Q 40.765625 -1.421875 27.09375 -1.421875 
Q 22.515625 -1.421875 17.65625 -0.515625 
Q 12.796875 0.390625 7.625 2.203125 
L 7.625 11.71875 
Q 11.71875 9.328125 16.59375 8.109375 
Q 21.484375 6.890625 26.8125 6.890625 
Q 36.078125 6.890625 40.9375 10.546875 
Q 45.796875 14.203125 45.796875 21.1875 
Q 45.796875 27.640625 41.28125 31.265625 
Q 36.765625 34.90625 28.71875 34.90625 
L 20.21875 34.90625 
L 20.21875 43.015625 
L 29.109375 43.015625 
Q 36.375 43.015625 40.234375 45.921875 
Q 44.09375 48.828125 44.09375 54.296875 
Q 44.09375 59.90625 40.109375 62.90625 
Q 36.140625 65.921875 28.71875 65.921875 
Q 24.65625 65.921875 20.015625 65.03125 
Q 15.375 64.15625 9.8125 62.3125 
L 9.8125 71.09375 
Q 15.4375 72.65625 20.34375 73.4375 
Q 25.25 74.21875 29.59375 74.21875 
Q 40.828125 74.21875 47.359375 69.109375 
Q 53.90625 64.015625 53.90625 55.328125 
Q 53.90625 49.265625 50.4375 45.09375 
Q 46.96875 40.921875 40.578125 39.3125 
z
" id="DejaVuSans-51"/>
       </defs>
       <use xlink:href="#DejaVuSans-51"/>
      </g>
     </g>
    </g>
    <g id="xtick_3">
     <g id="line2d_3">
      <g>
       <use style="stroke:#000000;stroke-width:0.8;" x="176.672596" xlink:href="#mc4c2a52620" y="247.64"/>
      </g>
     </g>
     <g id="text_3">
      <!-- 4 -->
      <g transform="translate(173.491346 262.238437)scale(0.1 -0.1)">
       <defs>
        <path d="M 37.796875 64.3125 
L 12.890625 25.390625 
L 37.796875 25.390625 
z
M 35.203125 72.90625 
L 47.609375 72.90625 
L 47.609375 25.390625 
L 58.015625 25.390625 
L 58.015625 17.1875 
L 47.609375 17.1875 
L 47.609375 0 
L 37.796875 0 
L 37.796875 17.1875 
L 4.890625 17.1875 
L 4.890625 26.703125 
z
" id="DejaVuSans-52"/>
       </defs>
       <use xlink:href="#DejaVuSans-52"/>
      </g>
     </g>
    </g>
    <g id="text_4">
     <!-- E -->
     <g transform="translate(129.228125 275.916562)scale(0.1 -0.1)">
      <defs>
       <path d="M 9.8125 72.90625 
L 55.90625 72.90625 
L 55.90625 64.59375 
L 19.671875 64.59375 
L 19.671875 43.015625 
L 54.390625 43.015625 
L 54.390625 34.71875 
L 19.671875 34.71875 
L 19.671875 8.296875 
L 56.78125 8.296875 
L 56.78125 0 
L 9.8125 0 
z
" id="DejaVuSans-69"/>
      </defs>
      <use xlink:href="#DejaVuSans-69"/>
     </g>
    </g>
   </g>
   <g id="matplotlib.axis_2">
    <g id="ytick_1">
     <g id="line2d_4">
      <defs>
       <path d="M 0 0 
L -3.5 0 
" id="mec87dbdbaa" style="stroke:#000000;stroke-width:0.8;"/>
      </defs>
      <g>
       <use style="stroke:#000000;stroke-width:0.8;" x="50.14375" xlink:href="#mec87dbdbaa" y="238.567273"/>
      </g>
     </g>
     <g id="text_5">
      <!-- 3.00 -->
      <g transform="translate(20.878125 242.366491)scale(0.1 -0.1)">
       <defs>
        <path d="M 10.6875 12.40625 
L 21 12.40625 
L 21 0 
L 10.6875 0 
z
" id="DejaVuSans-46"/>
        <path d="M 31.78125 66.40625 
Q 24.171875 66.40625 20.328125 58.90625 
Q 16.5 51.421875 16.5 36.375 
Q 16.5 21.390625 20.328125 13.890625 
Q 24.171875 6.390625 31.78125 6.390625 
Q 39.453125 6.390625 43.28125 13.890625 
Q 47.125 21.390625 47.125 36.375 
Q 47.125 51.421875 43.28125 58.90625 
Q 39.453125 66.40625 31.78125 66.40625 
z
M 31.78125 74.21875 
Q 44.046875 74.21875 50.515625 64.515625 
Q 56.984375 54.828125 56.984375 36.375 
Q 56.984375 17.96875 50.515625 8.265625 
Q 44.046875 -1.421875 31.78125 -1.421875 
Q 19.53125 -1.421875 13.0625 8.265625 
Q 6.59375 17.96875 6.59375 36.375 
Q 6.59375 54.828125 13.0625 64.515625 
Q 19.53125 74.21875 31.78125 74.21875 
z
" id="DejaVuSans-48"/>
       </defs>
       <use xlink:href="#DejaVuSans-51"/>
       <use x="63.623047" xlink:href="#DejaVuSans-46"/>
       <use x="95.410156" xlink:href="#DejaVuSans-48"/>
       <use x="159.033203" xlink:href="#DejaVuSans-48"/>
      </g>
     </g>
    </g>
    <g id="ytick_2">
     <g id="line2d_5">
      <g>
       <use style="stroke:#000000;stroke-width:0.8;" x="50.14375" xlink:href="#mec87dbdbaa" y="215.885455"/>
      </g>
     </g>
     <g id="text_6">
      <!-- 3.25 -->
      <g transform="translate(20.878125 219.684673)scale(0.1 -0.1)">
       <defs>
        <path d="M 10.796875 72.90625 
L 49.515625 72.90625 
L 49.515625 64.59375 
L 19.828125 64.59375 
L 19.828125 46.734375 
Q 21.96875 47.46875 24.109375 47.828125 
Q 26.265625 48.1875 28.421875 48.1875 
Q 40.625 48.1875 47.75 41.5 
Q 54.890625 34.8125 54.890625 23.390625 
Q 54.890625 11.625 47.5625 5.09375 
Q 40.234375 -1.421875 26.90625 -1.421875 
Q 22.3125 -1.421875 17.546875 -0.640625 
Q 12.796875 0.140625 7.71875 1.703125 
L 7.71875 11.625 
Q 12.109375 9.234375 16.796875 8.0625 
Q 21.484375 6.890625 26.703125 6.890625 
Q 35.15625 6.890625 40.078125 11.328125 
Q 45.015625 15.765625 45.015625 23.390625 
Q 45.015625 31 40.078125 35.4375 
Q 35.15625 39.890625 26.703125 39.890625 
Q 22.75 39.890625 18.8125 39.015625 
Q 14.890625 38.140625 10.796875 36.28125 
z
" id="DejaVuSans-53"/>
       </defs>
       <use xlink:href="#DejaVuSans-51"/>
       <use x="63.623047" xlink:href="#DejaVuSans-46"/>
       <use x="95.410156" xlink:href="#DejaVuSans-50"/>
       <use x="159.033203" xlink:href="#DejaVuSans-53"/>
      </g>
     </g>
    </g>
    <g id="ytick_3">
     <g id="line2d_6">
      <g>
       <use style="stroke:#000000;stroke-width:0.8;" x="50.14375" xlink:href="#mec87dbdbaa" y="193.203636"/>
      </g>
     </g>
     <g id="text_7">
      <!-- 3.50 -->
      <g transform="translate(20.878125 197.002855)scale(0.1 -0.1)">
       <use xlink:href="#DejaVuSans-51"/>
       <use x="63.623047" xlink:href="#DejaVuSans-46"/>
       <use x="95.410156" xlink:href="#DejaVuSans-53"/>
       <use x="159.033203" xlink:href="#DejaVuSans-48"/>
      </g>
     </g>
    </g>
    <g id="ytick_4">
     <g id="line2d_7">
      <g>
       <use style="stroke:#000000;stroke-width:0.8;" x="50.14375" xlink:href="#mec87dbdbaa" y="170.521818"/>
      </g>
     </g>
     <g id="text_8">
      <!-- 3.75 -->
      <g transform="translate(20.878125 174.321037)scale(0.1 -0.1)">
       <defs>
        <path d="M 8.203125 72.90625 
L 55.078125 72.90625 
L 55.078125 68.703125 
L 28.609375 0 
L 18.3125 0 
L 43.21875 64.59375 
L 8.203125 64.59375 
z
" id="DejaVuSans-55"/>
       </defs>
       <use xlink:href="#DejaVuSans-51"/>
       <use x="63.623047" xlink:href="#DejaVuSans-46"/>
       <use x="95.410156" xlink:href="#DejaVuSans-55"/>
       <use x="159.033203" xlink:href="#DejaVuSans-53"/>
      </g>
     </g>
    </g>
    <g id="ytick_5">
     <g id="line2d_8">
      <g>
       <use style="stroke:#000000;stroke-width:0.8;" x="50.14375" xlink:href="#mec87dbdbaa" y="147.84"/>
      </g>
     </g>
     <g id="text_9">
      <!-- 4.00 -->
      <g transform="translate(20.878125 151.639219)scale(0.1 -0.1)">
       <use xlink:href="#DejaVuSans-52"/>
       <use x="63.623047" xlink:href="#DejaVuSans-46"/>
       <use x="95.410156" xlink:href="#DejaVuSans-48"/>
       <use x="159.033203" xlink:href="#DejaVuSans-48"/>
      </g>
     </g>
    </g>
    <g id="ytick_6">
     <g id="line2d_9">
      <g>
       <use style="stroke:#000000;stroke-width:0.8;" x="50.14375" xlink:href="#mec87dbdbaa" y="125.158182"/>
      </g>
     </g>
     <g id="text_10">
      <!-- 4.25 -->
      <g transform="translate(20.878125 128.957401)scale(0.1 -0.1)">
       <use xlink:href="#DejaVuSans-52"/>
       <use x="63.623047" xlink:href="#DejaVuSans-46"/>
       <use x="95.410156" xlink:href="#DejaVuSans-50"/>
       <use x="159.033203" xlink:href="#DejaVuSans-53"/>
      </g>
     </g>
    </g>
    <g id="ytick_7">
     <g id="line2d_10">
      <g>
       <use style="stroke:#000000;stroke-width:0.8;" x="50.14375" xlink:href="#mec87dbdbaa" y="102.476364"/>
      </g>
     </g>
     <g id="text_11">
      <!-- 4.50 -->
      <g transform="translate(20.878125 106.275582)scale(0.1 -0.1)">
       <use xlink:href="#DejaVuSans-52"/>
       <use x="63.623047" xlink:href="#DejaVuSans-46"/>
       <use x="95.410156" xlink:href="#DejaVuSans-53"/>
       <use x="159.033203" xlink:href="#DejaVuSans-48"/>
      </g>
     </g>
    </g>
    <g id="ytick_8">
     <g id="line2d_11">
      <g>
       <use style="stroke:#000000;stroke-width:0.8;" x="50.14375" xlink:href="#mec87dbdbaa" y="79.794545"/>
      </g>
     </g>
     <g id="text_12">
      <!-- 4.75 -->
      <g transform="translate(20.878125 83.593764)scale(0.1 -0.1)">
       <use xlink:href="#DejaVuSans-52"/>
       <use x="63.623047" xlink:href="#DejaVuSans-46"/>
       <use x="95.410156" xlink:href="#DejaVuSans-55"/>
       <use x="159.033203" xlink:href="#DejaVuSans-53"/>
      </g>
     </g>
    </g>
    <g id="ytick_9">
     <g id="line2d_12">
      <g>
       <use style="stroke:#000000;stroke-width:0.8;" x="50.14375" xlink:href="#mec87dbdbaa" y="57.112727"/>
      </g>
     </g>
     <g id="text_13">
      <!-- 5.00 -->
      <g transform="translate(20.878125 60.911946)scale(0.1 -0.1)">
       <use xlink:href="#DejaVuSans-53"/>
       <use x="63.623047" xlink:href="#DejaVuSans-46"/>
       <use x="95.410156" xlink:href="#DejaVuSans-48"/>
       <use x="159.033203" xlink:href="#DejaVuSans-48"/>
      </g>
     </g>
    </g>
    <g id="text_14">
     <!-- Trust7 -->
     <g transform="translate(14.798438 163.126719)rotate(-90)scale(0.1 -0.1)">
      <defs>
       <path d="M -0.296875 72.90625 
L 61.375 72.90625 
L 61.375 64.59375 
L 35.5 64.59375 
L 35.5 0 
L 25.59375 0 
L 25.59375 64.59375 
L -0.296875 64.59375 
z
" id="DejaVuSans-84"/>
       <path d="M 41.109375 46.296875 
Q 39.59375 47.171875 37.8125 47.578125 
Q 36.03125 48 33.890625 48 
Q 26.265625 48 22.1875 43.046875 
Q 18.109375 38.09375 18.109375 28.8125 
L 18.109375 0 
L 9.078125 0 
L 9.078125 54.6875 
L 18.109375 54.6875 
L 18.109375 46.1875 
Q 20.953125 51.171875 25.484375 53.578125 
Q 30.03125 56 36.53125 56 
Q 37.453125 56 38.578125 55.875 
Q 39.703125 55.765625 41.0625 55.515625 
z
" id="DejaVuSans-114"/>
       <path d="M 8.5 21.578125 
L 8.5 54.6875 
L 17.484375 54.6875 
L 17.484375 21.921875 
Q 17.484375 14.15625 20.5 10.265625 
Q 23.53125 6.390625 29.59375 6.390625 
Q 36.859375 6.390625 41.078125 11.03125 
Q 45.3125 15.671875 45.3125 23.6875 
L 45.3125 54.6875 
L 54.296875 54.6875 
L 54.296875 0 
L 45.3125 0 
L 45.3125 8.40625 
Q 42.046875 3.421875 37.71875 1 
Q 33.40625 -1.421875 27.6875 -1.421875 
Q 18.265625 -1.421875 13.375 4.4375 
Q 8.5 10.296875 8.5 21.578125 
z
M 31.109375 56 
z
" id="DejaVuSans-117"/>
       <path d="M 44.28125 53.078125 
L 44.28125 44.578125 
Q 40.484375 46.53125 36.375 47.5 
Q 32.28125 48.484375 27.875 48.484375 
Q 21.1875 48.484375 17.84375 46.4375 
Q 14.5 44.390625 14.5 40.28125 
Q 14.5 37.15625 16.890625 35.375 
Q 19.28125 33.59375 26.515625 31.984375 
L 29.59375 31.296875 
Q 39.15625 29.25 43.1875 25.515625 
Q 47.21875 21.78125 47.21875 15.09375 
Q 47.21875 7.46875 41.1875 3.015625 
Q 35.15625 -1.421875 24.609375 -1.421875 
Q 20.21875 -1.421875 15.453125 -0.5625 
Q 10.6875 0.296875 5.421875 2 
L 5.421875 11.28125 
Q 10.40625 8.6875 15.234375 7.390625 
Q 20.0625 6.109375 24.8125 6.109375 
Q 31.15625 6.109375 34.5625 8.28125 
Q 37.984375 10.453125 37.984375 14.40625 
Q 37.984375 18.0625 35.515625 20.015625 
Q 33.0625 21.96875 24.703125 23.78125 
L 21.578125 24.515625 
Q 13.234375 26.265625 9.515625 29.90625 
Q 5.8125 33.546875 5.8125 39.890625 
Q 5.8125 47.609375 11.28125 51.796875 
Q 16.75 56 26.8125 56 
Q 31.78125 56 36.171875 55.265625 
Q 40.578125 54.546875 44.28125 53.078125 
z
" id="DejaVuSans-115"/>
       <path d="M 18.3125 70.21875 
L 18.3125 54.6875 
L 36.8125 54.6875 
L 36.8125 47.703125 
L 18.3125 47.703125 
L 18.3125 18.015625 
Q 18.3125 11.328125 20.140625 9.421875 
Q 21.96875 7.515625 27.59375 7.515625 
L 36.8125 7.515625 
L 36.8125 0 
L 27.59375 0 
Q 17.1875 0 13.234375 3.875 
Q 9.28125 7.765625 9.28125 18.015625 
L 9.28125 47.703125 
L 2.6875 47.703125 
L 2.6875 54.6875 
L 9.28125 54.6875 
L 9.28125 70.21875 
z
" id="DejaVuSans-116"/>
      </defs>
      <use xlink:href="#DejaVuSans-84"/>
      <use x="46.333984" xlink:href="#DejaVuSans-114"/>
      <use x="87.447266" xlink:href="#DejaVuSans-117"/>
      <use x="150.826172" xlink:href="#DejaVuSans-115"/>
      <use x="202.925781" xlink:href="#DejaVuSans-116"/>
      <use x="242.134766" xlink:href="#DejaVuSans-55"/>
     </g>
    </g>
   </g>
   <g id="line2d_13">
    <path clip-path="url(#p2b535b3073)" d="M 50.14375 116.960391 
L 51.80524 117.105248 
L 53.46673 117.250105 
L 55.12822 117.394963 
L 56.78971 117.53982 
L 58.451199 117.684677 
L 60.112689 117.829535 
L 61.774179 117.974392 
L 63.435669 118.119249 
L 65.097159 118.264106 
L 66.758649 118.408964 
L 68.420139 118.553821 
L 70.081629 118.698678 
L 71.743119 118.843536 
L 73.404609 118.988393 
L 75.066098 119.13325 
L 76.727588 119.278107 
L 78.389078 119.422965 
L 80.050568 119.567822 
L 81.712058 119.712679 
L 83.373548 119.857537 
L 85.035038 120.002394 
L 86.696528 120.147251 
L 88.358018 120.292108 
L 90.019508 120.436966 
L 91.680997 120.581823 
L 93.342487 120.72668 
L 95.003977 120.871538 
L 96.665467 121.016395 
L 98.326957 121.161252 
L 99.988447 121.306109 
L 101.649937 121.450967 
L 103.311427 121.595824 
L 104.972917 121.740681 
L 106.634407 121.885538 
L 108.295896 122.030396 
L 109.957386 122.175253 
L 111.618876 122.32011 
L 113.280366 122.464968 
L 114.941856 122.609825 
L 116.603346 122.754682 
L 118.264836 122.899539 
L 119.926326 123.044397 
L 121.587816 123.189254 
L 123.249306 123.334111 
L 124.910795 123.478969 
L 126.572285 123.623826 
L 128.233775 123.768683 
L 129.895265 123.91354 
L 131.556755 124.058398 
L 133.218245 124.203255 
L 134.879735 124.348112 
L 136.541225 124.49297 
L 138.202715 124.637827 
L 139.864205 124.782684 
L 141.525694 124.927541 
L 143.187184 125.072399 
L 144.848674 125.217256 
L 146.510164 125.362113 
L 148.171654 125.506971 
L 149.833144 125.651828 
L 151.494634 125.796685 
L 153.156124 125.941542 
L 154.817614 126.0864 
L 156.479104 126.231257 
L 158.140593 126.376114 
L 159.802083 126.520972 
L 161.463573 126.665829 
L 163.125063 126.810686 
L 164.786553 126.955543 
L 166.448043 127.100401 
L 168.109533 127.245258 
L 169.771023 127.390115 
L 171.432513 127.534973 
L 173.094003 127.67983 
L 174.755492 127.824687 
L 176.416982 127.969544 
L 178.078472 128.114402 
L 179.739962 128.259259 
L 181.401452 128.404116 
L 183.062942 128.548974 
L 184.724432 128.693831 
L 186.385922 128.838688 
L 188.047412 128.983545 
L 189.708902 129.128403 
L 191.370391 129.27326 
L 193.031881 129.418117 
L 194.693371 129.562975 
L 196.354861 129.707832 
L 198.016351 129.852689 
L 199.677841 129.997546 
L 201.339331 130.142404 
L 203.000821 130.287261 
L 204.662311 130.432118 
L 206.323801 130.576976 
L 207.98529 130.721833 
L 209.64678 130.86669 
L 211.30827 131.011547 
L 212.96976 131.156405 
L 214.63125 131.301262 
" style="fill:none;stroke:#1f77b4;stroke-linecap:square;stroke-width:2.25;"/>
   </g>
   <g id="patch_3">
    <path d="M 50.14375 247.64 
L 50.14375 48.04 
" style="fill:none;stroke:#000000;stroke-linecap:square;stroke-linejoin:miter;stroke-width:0.8;"/>
   </g>
   <g id="patch_4">
    <path d="M 214.63125 247.64 
L 214.63125 48.04 
" style="fill:none;stroke:#000000;stroke-linecap:square;stroke-linejoin:miter;stroke-width:0.8;"/>
   </g>
   <g id="patch_5">
    <path d="M 50.14375 247.64 
L 214.63125 247.64 
" style="fill:none;stroke:#000000;stroke-linecap:square;stroke-linejoin:miter;stroke-width:0.8;"/>
   </g>
   <g id="patch_6">
    <path d="M 50.14375 48.04 
L 214.63125 48.04 
" style="fill:none;stroke:#000000;stroke-linecap:square;stroke-linejoin:miter;stroke-width:0.8;"/>
   </g>
   <g id="text_15">
    <!-- Group A -->
    <g transform="translate(50.14375 42.04)scale(0.12 -0.12)">
     <defs>
      <path d="M 59.515625 10.40625 
L 59.515625 29.984375 
L 43.40625 29.984375 
L 43.40625 38.09375 
L 69.28125 38.09375 
L 69.28125 6.78125 
Q 63.578125 2.734375 56.6875 0.65625 
Q 49.8125 -1.421875 42 -1.421875 
Q 24.90625 -1.421875 15.25 8.5625 
Q 5.609375 18.5625 5.609375 36.375 
Q 5.609375 54.25 15.25 64.234375 
Q 24.90625 74.21875 42 74.21875 
Q 49.125 74.21875 55.546875 72.453125 
Q 61.96875 70.703125 67.390625 67.28125 
L 67.390625 56.78125 
Q 61.921875 61.421875 55.765625 63.765625 
Q 49.609375 66.109375 42.828125 66.109375 
Q 29.4375 66.109375 22.71875 58.640625 
Q 16.015625 51.171875 16.015625 36.375 
Q 16.015625 21.625 22.71875 14.15625 
Q 29.4375 6.6875 42.828125 6.6875 
Q 48.046875 6.6875 52.140625 7.59375 
Q 56.25 8.5 59.515625 10.40625 
z
" id="DejaVuSans-71"/>
      <path d="M 30.609375 48.390625 
Q 23.390625 48.390625 19.1875 42.75 
Q 14.984375 37.109375 14.984375 27.296875 
Q 14.984375 17.484375 19.15625 11.84375 
Q 23.34375 6.203125 30.609375 6.203125 
Q 37.796875 6.203125 41.984375 11.859375 
Q 46.1875 17.53125 46.1875 27.296875 
Q 46.1875 37.015625 41.984375 42.703125 
Q 37.796875 48.390625 30.609375 48.390625 
z
M 30.609375 56 
Q 42.328125 56 49.015625 48.375 
Q 55.71875 40.765625 55.71875 27.296875 
Q 55.71875 13.875 49.015625 6.21875 
Q 42.328125 -1.421875 30.609375 -1.421875 
Q 18.84375 -1.421875 12.171875 6.21875 
Q 5.515625 13.875 5.515625 27.296875 
Q 5.515625 40.765625 12.171875 48.375 
Q 18.84375 56 30.609375 56 
z
" id="DejaVuSans-111"/>
      <path d="M 18.109375 8.203125 
L 18.109375 -20.796875 
L 9.078125 -20.796875 
L 9.078125 54.6875 
L 18.109375 54.6875 
L 18.109375 46.390625 
Q 20.953125 51.265625 25.265625 53.625 
Q 29.59375 56 35.59375 56 
Q 45.5625 56 51.78125 48.09375 
Q 58.015625 40.1875 58.015625 27.296875 
Q 58.015625 14.40625 51.78125 6.484375 
Q 45.5625 -1.421875 35.59375 -1.421875 
Q 29.59375 -1.421875 25.265625 0.953125 
Q 20.953125 3.328125 18.109375 8.203125 
z
M 48.6875 27.296875 
Q 48.6875 37.203125 44.609375 42.84375 
Q 40.53125 48.484375 33.40625 48.484375 
Q 26.265625 48.484375 22.1875 42.84375 
Q 18.109375 37.203125 18.109375 27.296875 
Q 18.109375 17.390625 22.1875 11.75 
Q 26.265625 6.109375 33.40625 6.109375 
Q 40.53125 6.109375 44.609375 11.75 
Q 48.6875 17.390625 48.6875 27.296875 
z
" id="DejaVuSans-112"/>
      <path id="DejaVuSans-32"/>
      <path d="M 34.1875 63.1875 
L 20.796875 26.90625 
L 47.609375 26.90625 
z
M 28.609375 72.90625 
L 39.796875 72.90625 
L 67.578125 0 
L 57.328125 0 
L 50.6875 18.703125 
L 17.828125 18.703125 
L 11.1875 0 
L 0.78125 0 
z
" id="DejaVuSans-65"/>
     </defs>
     <use xlink:href="#DejaVuSans-71"/>
     <use x="77.490234" xlink:href="#DejaVuSans-114"/>
     <use x="116.353516" xlink:href="#DejaVuSans-111"/>
     <use x="177.535156" xlink:href="#DejaVuSans-117"/>
     <use x="240.914062" xlink:href="#DejaVuSans-112"/>
     <use x="304.390625" xlink:href="#DejaVuSans-32"/>
     <use x="336.177734" xlink:href="#DejaVuSans-65"/>
    </g>
   </g>
  </g>
  <g id="axes_2">
   <g id="patch_7">
    <path d="M 252.80625 247.64 
L 417.29375 247.64 
L 417.29375 48.04 
L 252.80625 48.04 
z
" style="fill:#ffffff;"/>
   </g>
   <g id="PathCollection_2">
    <g clip-path="url(#pa3124ac5a1)">
     <use style="fill:#1f77b4;fill-opacity:0.8;stroke:#1f77b4;stroke-opacity:0.8;" x="252.80625" xlink:href="#mdb0276cbd7" y="105.840328"/>
     <use style="fill:#1f77b4;fill-opacity:0.8;stroke:#1f77b4;stroke-opacity:0.8;" x="265.459135" xlink:href="#mdb0276cbd7" y="105.840328"/>
     <use style="fill:#1f77b4;fill-opacity:0.8;stroke:#1f77b4;stroke-opacity:0.8;" x="379.335096" xlink:href="#mdb0276cbd7" y="105.840328"/>
     <use style="fill:#1f77b4;fill-opacity:0.8;stroke:#1f77b4;stroke-opacity:0.8;" x="341.376442" xlink:href="#mdb0276cbd7" y="194.324958"/>
     <use style="fill:#1f77b4;fill-opacity:0.8;stroke:#1f77b4;stroke-opacity:0.8;" x="316.070673" xlink:href="#mdb0276cbd7" y="105.840328"/>
     <use style="fill:#1f77b4;fill-opacity:0.8;stroke:#1f77b4;stroke-opacity:0.8;" x="379.335096" xlink:href="#mdb0276cbd7" y="105.840328"/>
     <use style="fill:#1f77b4;fill-opacity:0.8;stroke:#1f77b4;stroke-opacity:0.8;" x="316.070673" xlink:href="#mdb0276cbd7" y="61.598013"/>
     <use style="fill:#1f77b4;fill-opacity:0.8;stroke:#1f77b4;stroke-opacity:0.8;" x="341.376442" xlink:href="#mdb0276cbd7" y="238.567273"/>
     <use style="fill:#1f77b4;fill-opacity:0.8;stroke:#1f77b4;stroke-opacity:0.8;" x="341.376442" xlink:href="#mdb0276cbd7" y="105.840328"/>
     <use style="fill:#1f77b4;fill-opacity:0.8;stroke:#1f77b4;stroke-opacity:0.8;" x="366.682212" xlink:href="#mdb0276cbd7" y="61.598013"/>
     <use style="fill:#1f77b4;fill-opacity:0.8;stroke:#1f77b4;stroke-opacity:0.8;" x="341.376442" xlink:href="#mdb0276cbd7" y="150.082643"/>
     <use style="fill:#1f77b4;fill-opacity:0.8;stroke:#1f77b4;stroke-opacity:0.8;" x="379.335096" xlink:href="#mdb0276cbd7" y="105.840328"/>
     <use style="fill:#1f77b4;fill-opacity:0.8;stroke:#1f77b4;stroke-opacity:0.8;" x="341.376442" xlink:href="#mdb0276cbd7" y="150.082643"/>
     <use style="fill:#1f77b4;fill-opacity:0.8;stroke:#1f77b4;stroke-opacity:0.8;" x="391.987981" xlink:href="#mdb0276cbd7" y="105.840328"/>
     <use style="fill:#1f77b4;fill-opacity:0.8;stroke:#1f77b4;stroke-opacity:0.8;" x="354.029327" xlink:href="#mdb0276cbd7" y="150.082643"/>
     <use style="fill:#1f77b4;fill-opacity:0.8;stroke:#1f77b4;stroke-opacity:0.8;" x="391.987981" xlink:href="#mdb0276cbd7" y="61.598013"/>
     <use style="fill:#1f77b4;fill-opacity:0.8;stroke:#1f77b4;stroke-opacity:0.8;" x="354.029327" xlink:href="#mdb0276cbd7" y="61.598013"/>
     <use style="fill:#1f77b4;fill-opacity:0.8;stroke:#1f77b4;stroke-opacity:0.8;" x="316.070673" xlink:href="#mdb0276cbd7" y="105.840328"/>
     <use style="fill:#1f77b4;fill-opacity:0.8;stroke:#1f77b4;stroke-opacity:0.8;" x="366.682212" xlink:href="#mdb0276cbd7" y="61.598013"/>
     <use style="fill:#1f77b4;fill-opacity:0.8;stroke:#1f77b4;stroke-opacity:0.8;" x="278.112019" xlink:href="#mdb0276cbd7" y="238.567273"/>
     <use style="fill:#1f77b4;fill-opacity:0.8;stroke:#1f77b4;stroke-opacity:0.8;" x="417.29375" xlink:href="#mdb0276cbd7" y="105.840328"/>
     <use style="fill:#1f77b4;fill-opacity:0.8;stroke:#1f77b4;stroke-opacity:0.8;" x="316.070673" xlink:href="#mdb0276cbd7" y="61.598013"/>
     <use style="fill:#1f77b4;fill-opacity:0.8;stroke:#1f77b4;stroke-opacity:0.8;" x="366.682212" xlink:href="#mdb0276cbd7" y="105.840328"/>
     <use style="fill:#1f77b4;fill-opacity:0.8;stroke:#1f77b4;stroke-opacity:0.8;" x="379.335096" xlink:href="#mdb0276cbd7" y="105.840328"/>
     <use style="fill:#1f77b4;fill-opacity:0.8;stroke:#1f77b4;stroke-opacity:0.8;" x="379.335096" xlink:href="#mdb0276cbd7" y="61.598013"/>
     <use style="fill:#1f77b4;fill-opacity:0.8;stroke:#1f77b4;stroke-opacity:0.8;" x="316.070673" xlink:href="#mdb0276cbd7" y="61.598013"/>
     <use style="fill:#1f77b4;fill-opacity:0.8;stroke:#1f77b4;stroke-opacity:0.8;" x="316.070673" xlink:href="#mdb0276cbd7" y="105.840328"/>
     <use style="fill:#1f77b4;fill-opacity:0.8;stroke:#1f77b4;stroke-opacity:0.8;" x="316.070673" xlink:href="#mdb0276cbd7" y="61.598013"/>
     <use style="fill:#1f77b4;fill-opacity:0.8;stroke:#1f77b4;stroke-opacity:0.8;" x="379.335096" xlink:href="#mdb0276cbd7" y="61.598013"/>
     <use style="fill:#1f77b4;fill-opacity:0.8;stroke:#1f77b4;stroke-opacity:0.8;" x="379.335096" xlink:href="#mdb0276cbd7" y="61.598013"/>
     <use style="fill:#1f77b4;fill-opacity:0.8;stroke:#1f77b4;stroke-opacity:0.8;" x="252.80625" xlink:href="#mdb0276cbd7" y="105.840328"/>
     <use style="fill:#1f77b4;fill-opacity:0.8;stroke:#1f77b4;stroke-opacity:0.8;" x="328.723558" xlink:href="#mdb0276cbd7" y="61.598013"/>
     <use style="fill:#1f77b4;fill-opacity:0.8;stroke:#1f77b4;stroke-opacity:0.8;" x="354.029327" xlink:href="#mdb0276cbd7" y="105.840328"/>
     <use style="fill:#1f77b4;fill-opacity:0.8;stroke:#1f77b4;stroke-opacity:0.8;" x="316.070673" xlink:href="#mdb0276cbd7" y="61.598013"/>
     <use style="fill:#1f77b4;fill-opacity:0.8;stroke:#1f77b4;stroke-opacity:0.8;" x="341.376442" xlink:href="#mdb0276cbd7" y="105.840328"/>
     <use style="fill:#1f77b4;fill-opacity:0.8;stroke:#1f77b4;stroke-opacity:0.8;" x="328.723558" xlink:href="#mdb0276cbd7" y="150.082643"/>
     <use style="fill:#1f77b4;fill-opacity:0.8;stroke:#1f77b4;stroke-opacity:0.8;" x="316.070673" xlink:href="#mdb0276cbd7" y="105.840328"/>
     <use style="fill:#1f77b4;fill-opacity:0.8;stroke:#1f77b4;stroke-opacity:0.8;" x="366.682212" xlink:href="#mdb0276cbd7" y="61.598013"/>
     <use style="fill:#1f77b4;fill-opacity:0.8;stroke:#1f77b4;stroke-opacity:0.8;" x="316.070673" xlink:href="#mdb0276cbd7" y="150.082643"/>
     <use style="fill:#1f77b4;fill-opacity:0.8;stroke:#1f77b4;stroke-opacity:0.8;" x="316.070673" xlink:href="#mdb0276cbd7" y="105.840328"/>
     <use style="fill:#1f77b4;fill-opacity:0.8;stroke:#1f77b4;stroke-opacity:0.8;" x="316.070673" xlink:href="#mdb0276cbd7" y="61.598013"/>
     <use style="fill:#1f77b4;fill-opacity:0.8;stroke:#1f77b4;stroke-opacity:0.8;" x="379.335096" xlink:href="#mdb0276cbd7" y="61.598013"/>
    </g>
   </g>
   <g id="PolyCollection_2">
    <path clip-path="url(#pa3124ac5a1)" d="M 252.80625 96.298467 
L 252.80625 165.637289 
L 254.46774 164.459298 
L 256.12923 163.281307 
L 257.79072 162.202635 
L 259.45221 161.154043 
L 261.113699 160.08532 
L 262.775189 159.066435 
L 264.436679 158.026977 
L 266.098169 156.987519 
L 267.759659 155.948061 
L 269.421149 154.908602 
L 271.082639 153.869144 
L 272.744129 152.837977 
L 274.405619 151.907263 
L 276.067109 150.976548 
L 277.728598 150.045833 
L 279.390088 149.115118 
L 281.051578 148.184403 
L 282.713068 147.253689 
L 284.374558 146.143429 
L 286.036048 145.015897 
L 287.697538 144.143673 
L 289.359028 143.412407 
L 291.020518 142.626529 
L 292.682008 141.700195 
L 294.343497 140.594226 
L 296.004987 139.57763 
L 297.666477 138.386861 
L 299.327967 137.314764 
L 300.989457 136.38023 
L 302.650947 135.500053 
L 304.312437 134.336715 
L 305.973927 133.385693 
L 307.635417 132.456716 
L 309.296907 131.653123 
L 310.958396 130.683429 
L 312.619886 130.062278 
L 314.281376 129.266301 
L 315.942866 128.416998 
L 317.604356 127.389506 
L 319.265846 126.359984 
L 320.927336 125.478153 
L 322.588826 124.387894 
L 324.250316 123.668675 
L 325.911806 123.02361 
L 327.573295 122.36177 
L 329.234785 121.715144 
L 330.896275 121.043738 
L 332.557765 120.223588 
L 334.219255 119.363596 
L 335.880745 118.605184 
L 337.542235 117.852335 
L 339.203725 117.281756 
L 340.865215 116.534619 
L 342.526705 115.799193 
L 344.188194 115.360441 
L 345.849684 114.93844 
L 347.511174 114.299689 
L 349.172664 113.468644 
L 350.834154 112.984299 
L 352.495644 112.539266 
L 354.157134 112.074799 
L 355.818624 111.622718 
L 357.480114 111.259608 
L 359.141604 110.855779 
L 360.803093 110.462286 
L 362.464583 109.979173 
L 364.126073 109.553436 
L 365.787563 109.212219 
L 367.449053 108.827964 
L 369.110543 108.438821 
L 370.772033 108.227041 
L 372.433523 108.190297 
L 374.095013 107.681534 
L 375.756503 107.35813 
L 377.417992 107.083432 
L 379.079482 107.046912 
L 380.740972 106.784951 
L 382.402462 106.501491 
L 384.063952 106.402205 
L 385.725442 106.458528 
L 387.386932 106.185789 
L 389.048422 105.894587 
L 390.709912 105.599134 
L 392.371402 105.343264 
L 394.032891 105.335053 
L 395.694381 105.211574 
L 397.355871 105.253702 
L 399.017361 105.185106 
L 400.678851 104.970327 
L 402.340341 104.790905 
L 404.001831 104.706819 
L 405.663321 104.62327 
L 407.324811 104.633816 
L 408.986301 104.725306 
L 410.64779 104.691474 
L 412.30928 104.648015 
L 413.97077 104.604557 
L 415.63226 104.561098 
L 417.29375 104.517639 
L 417.29375 57.112727 
L 417.29375 57.112727 
L 415.63226 57.975739 
L 413.97077 58.839194 
L 412.30928 59.853729 
L 410.64779 60.802045 
L 408.986301 61.829714 
L 407.324811 62.716925 
L 405.663321 63.611277 
L 404.001831 64.33262 
L 402.340341 65.269121 
L 400.678851 66.309781 
L 399.017361 67.16415 
L 397.355871 68.056471 
L 395.694381 69.22827 
L 394.032891 70.044901 
L 392.371402 71.032093 
L 390.709912 72.06633 
L 389.048422 73.081623 
L 387.386932 73.619438 
L 385.725442 74.322208 
L 384.063952 75.162315 
L 382.402462 76.239009 
L 380.740972 77.080464 
L 379.079482 77.871452 
L 377.417992 78.630015 
L 375.756503 79.381443 
L 374.095013 80.210453 
L 372.433523 81.038537 
L 370.772033 81.790074 
L 369.110543 82.424243 
L 367.449053 82.949858 
L 365.787563 83.757305 
L 364.126073 84.24265 
L 362.464583 84.825876 
L 360.803093 85.356095 
L 359.141604 86.027946 
L 357.480114 86.508974 
L 355.818624 86.875841 
L 354.157134 87.108614 
L 352.495644 87.5402 
L 350.834154 87.951078 
L 349.172664 88.244944 
L 347.511174 88.567503 
L 345.849684 89.004025 
L 344.188194 89.318418 
L 342.526705 89.742105 
L 340.865215 90.169493 
L 339.203725 90.591244 
L 337.542235 90.776685 
L 335.880745 91.004171 
L 334.219255 91.269775 
L 332.557765 91.438003 
L 330.896275 91.545082 
L 329.234785 91.827688 
L 327.573295 92.064025 
L 325.911806 92.323572 
L 324.250316 92.400319 
L 322.588826 92.659261 
L 320.927336 92.828482 
L 319.265846 92.795378 
L 317.604356 93.162321 
L 315.942866 93.491178 
L 314.281376 93.553204 
L 312.619886 93.6256 
L 310.958396 93.68638 
L 309.296907 93.777171 
L 307.635417 93.885287 
L 305.973927 93.922088 
L 304.312437 93.958889 
L 302.650947 94.009578 
L 300.989457 94.046355 
L 299.327967 94.06849 
L 297.666477 94.201314 
L 296.004987 94.342886 
L 294.343497 94.626374 
L 292.682008 94.91321 
L 291.020518 95.099465 
L 289.359028 95.460289 
L 287.697538 95.537213 
L 286.036048 95.510351 
L 284.374558 95.48349 
L 282.713068 95.456629 
L 281.051578 95.585244 
L 279.390088 95.722437 
L 277.728598 95.666879 
L 276.067109 95.564875 
L 274.405619 95.462871 
L 272.744129 95.360867 
L 271.082639 95.351153 
L 269.421149 95.466538 
L 267.759659 95.581923 
L 266.098169 95.648886 
L 264.436679 95.751568 
L 262.775189 95.857671 
L 261.113699 95.963774 
L 259.45221 96.032314 
L 257.79072 96.170059 
L 256.12923 96.154471 
L 254.46774 96.299094 
L 252.80625 96.298467 
z
" style="fill:#1f77b4;fill-opacity:0.15;"/>
   </g>
   <g id="matplotlib.axis_3">
    <g id="xtick_4">
     <g id="line2d_14">
      <g>
       <use style="stroke:#000000;stroke-width:0.8;" x="290.764904" xlink:href="#mc4c2a52620" y="247.64"/>
      </g>
     </g>
     <g id="text_16">
      <!-- 2 -->
      <g transform="translate(287.583654 262.238437)scale(0.1 -0.1)">
       <use xlink:href="#DejaVuSans-50"/>
      </g>
     </g>
    </g>
    <g id="xtick_5">
     <g id="line2d_15">
      <g>
       <use style="stroke:#000000;stroke-width:0.8;" x="341.376442" xlink:href="#mc4c2a52620" y="247.64"/>
      </g>
     </g>
     <g id="text_17">
      <!-- 3 -->
      <g transform="translate(338.195192 262.238437)scale(0.1 -0.1)">
       <use xlink:href="#DejaVuSans-51"/>
      </g>
     </g>
    </g>
    <g id="xtick_6">
     <g id="line2d_16">
      <g>
       <use style="stroke:#000000;stroke-width:0.8;" x="391.987981" xlink:href="#mc4c2a52620" y="247.64"/>
      </g>
     </g>
     <g id="text_18">
      <!-- 4 -->
      <g transform="translate(388.806731 262.238437)scale(0.1 -0.1)">
       <use xlink:href="#DejaVuSans-52"/>
      </g>
     </g>
    </g>
    <g id="text_19">
     <!-- E -->
     <g transform="translate(331.890625 275.916562)scale(0.1 -0.1)">
      <use xlink:href="#DejaVuSans-69"/>
     </g>
    </g>
   </g>
   <g id="matplotlib.axis_4">
    <g id="ytick_10">
     <g id="line2d_17">
      <g>
       <use style="stroke:#000000;stroke-width:0.8;" x="252.80625" xlink:href="#mec87dbdbaa" y="238.567273"/>
      </g>
     </g>
     <g id="text_20">
      <!-- 1 -->
      <g transform="translate(239.44375 242.366491)scale(0.1 -0.1)">
       <defs>
        <path d="M 12.40625 8.296875 
L 28.515625 8.296875 
L 28.515625 63.921875 
L 10.984375 60.40625 
L 10.984375 69.390625 
L 28.421875 72.90625 
L 38.28125 72.90625 
L 38.28125 8.296875 
L 54.390625 8.296875 
L 54.390625 0 
L 12.40625 0 
z
" id="DejaVuSans-49"/>
       </defs>
       <use xlink:href="#DejaVuSans-49"/>
      </g>
     </g>
    </g>
    <g id="ytick_11">
     <g id="line2d_18">
      <g>
       <use style="stroke:#000000;stroke-width:0.8;" x="252.80625" xlink:href="#mec87dbdbaa" y="194.324958"/>
      </g>
     </g>
     <g id="text_21">
      <!-- 2 -->
      <g transform="translate(239.44375 198.124177)scale(0.1 -0.1)">
       <use xlink:href="#DejaVuSans-50"/>
      </g>
     </g>
    </g>
    <g id="ytick_12">
     <g id="line2d_19">
      <g>
       <use style="stroke:#000000;stroke-width:0.8;" x="252.80625" xlink:href="#mec87dbdbaa" y="150.082643"/>
      </g>
     </g>
     <g id="text_22">
      <!-- 3 -->
      <g transform="translate(239.44375 153.881862)scale(0.1 -0.1)">
       <use xlink:href="#DejaVuSans-51"/>
      </g>
     </g>
    </g>
    <g id="ytick_13">
     <g id="line2d_20">
      <g>
       <use style="stroke:#000000;stroke-width:0.8;" x="252.80625" xlink:href="#mec87dbdbaa" y="105.840328"/>
      </g>
     </g>
     <g id="text_23">
      <!-- 4 -->
      <g transform="translate(239.44375 109.639547)scale(0.1 -0.1)">
       <use xlink:href="#DejaVuSans-52"/>
      </g>
     </g>
    </g>
    <g id="ytick_14">
     <g id="line2d_21">
      <g>
       <use style="stroke:#000000;stroke-width:0.8;" x="252.80625" xlink:href="#mec87dbdbaa" y="61.598013"/>
      </g>
     </g>
     <g id="text_24">
      <!-- 5 -->
      <g transform="translate(239.44375 65.397232)scale(0.1 -0.1)">
       <use xlink:href="#DejaVuSans-53"/>
      </g>
     </g>
    </g>
    <g id="text_25">
     <!-- Trust7 -->
     <g transform="translate(233.364063 163.126719)rotate(-90)scale(0.1 -0.1)">
      <use xlink:href="#DejaVuSans-84"/>
      <use x="46.333984" xlink:href="#DejaVuSans-114"/>
      <use x="87.447266" xlink:href="#DejaVuSans-117"/>
      <use x="150.826172" xlink:href="#DejaVuSans-115"/>
      <use x="202.925781" xlink:href="#DejaVuSans-116"/>
      <use x="242.134766" xlink:href="#DejaVuSans-55"/>
     </g>
    </g>
   </g>
   <g id="line2d_22">
    <path clip-path="url(#pa3124ac5a1)" d="M 252.80625 125.373144 
L 254.46774 124.94453 
L 256.12923 124.515917 
L 257.79072 124.087303 
L 259.45221 123.658689 
L 261.113699 123.230075 
L 262.775189 122.801461 
L 264.436679 122.372848 
L 266.098169 121.944234 
L 267.759659 121.51562 
L 269.421149 121.087006 
L 271.082639 120.658392 
L 272.744129 120.229779 
L 274.405619 119.801165 
L 276.067109 119.372551 
L 277.728598 118.943937 
L 279.390088 118.515323 
L 281.051578 118.08671 
L 282.713068 117.658096 
L 284.374558 117.229482 
L 286.036048 116.800868 
L 287.697538 116.372254 
L 289.359028 115.94364 
L 291.020518 115.515027 
L 292.682008 115.086413 
L 294.343497 114.657799 
L 296.004987 114.229185 
L 297.666477 113.800571 
L 299.327967 113.371958 
L 300.989457 112.943344 
L 302.650947 112.51473 
L 304.312437 112.086116 
L 305.973927 111.657502 
L 307.635417 111.228889 
L 309.296907 110.800275 
L 310.958396 110.371661 
L 312.619886 109.943047 
L 314.281376 109.514433 
L 315.942866 109.08582 
L 317.604356 108.657206 
L 319.265846 108.228592 
L 320.927336 107.799978 
L 322.588826 107.371364 
L 324.250316 106.942751 
L 325.911806 106.514137 
L 327.573295 106.085523 
L 329.234785 105.656909 
L 330.896275 105.228295 
L 332.557765 104.799682 
L 334.219255 104.371068 
L 335.880745 103.942454 
L 337.542235 103.51384 
L 339.203725 103.085226 
L 340.865215 102.656613 
L 342.526705 102.227999 
L 344.188194 101.799385 
L 345.849684 101.370771 
L 347.511174 100.942157 
L 349.172664 100.513544 
L 350.834154 100.08493 
L 352.495644 99.656316 
L 354.157134 99.227702 
L 355.818624 98.799088 
L 357.480114 98.370475 
L 359.141604 97.941861 
L 360.803093 97.513247 
L 362.464583 97.084633 
L 364.126073 96.656019 
L 365.787563 96.227406 
L 367.449053 95.798792 
L 369.110543 95.370178 
L 370.772033 94.941564 
L 372.433523 94.51295 
L 374.095013 94.084337 
L 375.756503 93.655723 
L 377.417992 93.227109 
L 379.079482 92.798495 
L 380.740972 92.369881 
L 382.402462 91.941268 
L 384.063952 91.512654 
L 385.725442 91.08404 
L 387.386932 90.655426 
L 389.048422 90.226812 
L 390.709912 89.798199 
L 392.371402 89.369585 
L 394.032891 88.940971 
L 395.694381 88.512357 
L 397.355871 88.083743 
L 399.017361 87.65513 
L 400.678851 87.226516 
L 402.340341 86.797902 
L 404.001831 86.369288 
L 405.663321 85.940674 
L 407.324811 85.512061 
L 408.986301 85.083447 
L 410.64779 84.654833 
L 412.30928 84.226219 
L 413.97077 83.797605 
L 415.63226 83.368992 
L 417.29375 82.940378 
" style="fill:none;stroke:#1f77b4;stroke-linecap:square;stroke-width:2.25;"/>
   </g>
   <g id="patch_8">
    <path d="M 252.80625 247.64 
L 252.80625 48.04 
" style="fill:none;stroke:#000000;stroke-linecap:square;stroke-linejoin:miter;stroke-width:0.8;"/>
   </g>
   <g id="patch_9">
    <path d="M 417.29375 247.64 
L 417.29375 48.04 
" style="fill:none;stroke:#000000;stroke-linecap:square;stroke-linejoin:miter;stroke-width:0.8;"/>
   </g>
   <g id="patch_10">
    <path d="M 252.80625 247.64 
L 417.29375 247.64 
" style="fill:none;stroke:#000000;stroke-linecap:square;stroke-linejoin:miter;stroke-width:0.8;"/>
   </g>
   <g id="patch_11">
    <path d="M 252.80625 48.04 
L 417.29375 48.04 
" style="fill:none;stroke:#000000;stroke-linecap:square;stroke-linejoin:miter;stroke-width:0.8;"/>
   </g>
   <g id="text_26">
    <!-- Group B -->
    <g transform="translate(252.80625 42.04)scale(0.12 -0.12)">
     <defs>
      <path d="M 19.671875 34.8125 
L 19.671875 8.109375 
L 35.5 8.109375 
Q 43.453125 8.109375 47.28125 11.40625 
Q 51.125 14.703125 51.125 21.484375 
Q 51.125 28.328125 47.28125 31.5625 
Q 43.453125 34.8125 35.5 34.8125 
z
M 19.671875 64.796875 
L 19.671875 42.828125 
L 34.28125 42.828125 
Q 41.5 42.828125 45.03125 45.53125 
Q 48.578125 48.25 48.578125 53.8125 
Q 48.578125 59.328125 45.03125 62.0625 
Q 41.5 64.796875 34.28125 64.796875 
z
M 9.8125 72.90625 
L 35.015625 72.90625 
Q 46.296875 72.90625 52.390625 68.21875 
Q 58.5 63.53125 58.5 54.890625 
Q 58.5 48.1875 55.375 44.234375 
Q 52.25 40.28125 46.1875 39.3125 
Q 53.46875 37.75 57.5 32.78125 
Q 61.53125 27.828125 61.53125 20.40625 
Q 61.53125 10.640625 54.890625 5.3125 
Q 48.25 0 35.984375 0 
L 9.8125 0 
z
" id="DejaVuSans-66"/>
     </defs>
     <use xlink:href="#DejaVuSans-71"/>
     <use x="77.490234" xlink:href="#DejaVuSans-114"/>
     <use x="116.353516" xlink:href="#DejaVuSans-111"/>
     <use x="177.535156" xlink:href="#DejaVuSans-117"/>
     <use x="240.914062" xlink:href="#DejaVuSans-112"/>
     <use x="304.390625" xlink:href="#DejaVuSans-32"/>
     <use x="336.177734" xlink:href="#DejaVuSans-66"/>
    </g>
   </g>
  </g>
  <g id="text_27">
   <!-- I believe the bike chatbot is trustworthy. -->
   <g transform="translate(128.162492 13.529498)scale(0.0833 -0.0833)">
    <defs>
     <path d="M 9.8125 72.90625 
L 19.671875 72.90625 
L 19.671875 0 
L 9.8125 0 
z
" id="DejaVuSans-73"/>
     <path d="M 48.6875 27.296875 
Q 48.6875 37.203125 44.609375 42.84375 
Q 40.53125 48.484375 33.40625 48.484375 
Q 26.265625 48.484375 22.1875 42.84375 
Q 18.109375 37.203125 18.109375 27.296875 
Q 18.109375 17.390625 22.1875 11.75 
Q 26.265625 6.109375 33.40625 6.109375 
Q 40.53125 6.109375 44.609375 11.75 
Q 48.6875 17.390625 48.6875 27.296875 
z
M 18.109375 46.390625 
Q 20.953125 51.265625 25.265625 53.625 
Q 29.59375 56 35.59375 56 
Q 45.5625 56 51.78125 48.09375 
Q 58.015625 40.1875 58.015625 27.296875 
Q 58.015625 14.40625 51.78125 6.484375 
Q 45.5625 -1.421875 35.59375 -1.421875 
Q 29.59375 -1.421875 25.265625 0.953125 
Q 20.953125 3.328125 18.109375 8.203125 
L 18.109375 0 
L 9.078125 0 
L 9.078125 75.984375 
L 18.109375 75.984375 
z
" id="DejaVuSans-98"/>
     <path d="M 56.203125 29.59375 
L 56.203125 25.203125 
L 14.890625 25.203125 
Q 15.484375 15.921875 20.484375 11.0625 
Q 25.484375 6.203125 34.421875 6.203125 
Q 39.59375 6.203125 44.453125 7.46875 
Q 49.3125 8.734375 54.109375 11.28125 
L 54.109375 2.78125 
Q 49.265625 0.734375 44.1875 -0.34375 
Q 39.109375 -1.421875 33.890625 -1.421875 
Q 20.796875 -1.421875 13.15625 6.1875 
Q 5.515625 13.8125 5.515625 26.8125 
Q 5.515625 40.234375 12.765625 48.109375 
Q 20.015625 56 32.328125 56 
Q 43.359375 56 49.78125 48.890625 
Q 56.203125 41.796875 56.203125 29.59375 
z
M 47.21875 32.234375 
Q 47.125 39.59375 43.09375 43.984375 
Q 39.0625 48.390625 32.421875 48.390625 
Q 24.90625 48.390625 20.390625 44.140625 
Q 15.875 39.890625 15.1875 32.171875 
z
" id="DejaVuSans-101"/>
     <path d="M 9.421875 75.984375 
L 18.40625 75.984375 
L 18.40625 0 
L 9.421875 0 
z
" id="DejaVuSans-108"/>
     <path d="M 9.421875 54.6875 
L 18.40625 54.6875 
L 18.40625 0 
L 9.421875 0 
z
M 9.421875 75.984375 
L 18.40625 75.984375 
L 18.40625 64.59375 
L 9.421875 64.59375 
z
" id="DejaVuSans-105"/>
     <path d="M 2.984375 54.6875 
L 12.5 54.6875 
L 29.59375 8.796875 
L 46.6875 54.6875 
L 56.203125 54.6875 
L 35.6875 0 
L 23.484375 0 
z
" id="DejaVuSans-118"/>
     <path d="M 54.890625 33.015625 
L 54.890625 0 
L 45.90625 0 
L 45.90625 32.71875 
Q 45.90625 40.484375 42.875 44.328125 
Q 39.84375 48.1875 33.796875 48.1875 
Q 26.515625 48.1875 22.3125 43.546875 
Q 18.109375 38.921875 18.109375 30.90625 
L 18.109375 0 
L 9.078125 0 
L 9.078125 75.984375 
L 18.109375 75.984375 
L 18.109375 46.1875 
Q 21.34375 51.125 25.703125 53.5625 
Q 30.078125 56 35.796875 56 
Q 45.21875 56 50.046875 50.171875 
Q 54.890625 44.34375 54.890625 33.015625 
z
" id="DejaVuSans-104"/>
     <path d="M 9.078125 75.984375 
L 18.109375 75.984375 
L 18.109375 31.109375 
L 44.921875 54.6875 
L 56.390625 54.6875 
L 27.390625 29.109375 
L 57.625 0 
L 45.90625 0 
L 18.109375 26.703125 
L 18.109375 0 
L 9.078125 0 
z
" id="DejaVuSans-107"/>
     <path d="M 48.78125 52.59375 
L 48.78125 44.1875 
Q 44.96875 46.296875 41.140625 47.34375 
Q 37.3125 48.390625 33.40625 48.390625 
Q 24.65625 48.390625 19.8125 42.84375 
Q 14.984375 37.3125 14.984375 27.296875 
Q 14.984375 17.28125 19.8125 11.734375 
Q 24.65625 6.203125 33.40625 6.203125 
Q 37.3125 6.203125 41.140625 7.25 
Q 44.96875 8.296875 48.78125 10.40625 
L 48.78125 2.09375 
Q 45.015625 0.34375 40.984375 -0.53125 
Q 36.96875 -1.421875 32.421875 -1.421875 
Q 20.0625 -1.421875 12.78125 6.34375 
Q 5.515625 14.109375 5.515625 27.296875 
Q 5.515625 40.671875 12.859375 48.328125 
Q 20.21875 56 33.015625 56 
Q 37.15625 56 41.109375 55.140625 
Q 45.0625 54.296875 48.78125 52.59375 
z
" id="DejaVuSans-99"/>
     <path d="M 34.28125 27.484375 
Q 23.390625 27.484375 19.1875 25 
Q 14.984375 22.515625 14.984375 16.5 
Q 14.984375 11.71875 18.140625 8.90625 
Q 21.296875 6.109375 26.703125 6.109375 
Q 34.1875 6.109375 38.703125 11.40625 
Q 43.21875 16.703125 43.21875 25.484375 
L 43.21875 27.484375 
z
M 52.203125 31.203125 
L 52.203125 0 
L 43.21875 0 
L 43.21875 8.296875 
Q 40.140625 3.328125 35.546875 0.953125 
Q 30.953125 -1.421875 24.3125 -1.421875 
Q 15.921875 -1.421875 10.953125 3.296875 
Q 6 8.015625 6 15.921875 
Q 6 25.140625 12.171875 29.828125 
Q 18.359375 34.515625 30.609375 34.515625 
L 43.21875 34.515625 
L 43.21875 35.40625 
Q 43.21875 41.609375 39.140625 45 
Q 35.0625 48.390625 27.6875 48.390625 
Q 23 48.390625 18.546875 47.265625 
Q 14.109375 46.140625 10.015625 43.890625 
L 10.015625 52.203125 
Q 14.9375 54.109375 19.578125 55.046875 
Q 24.21875 56 28.609375 56 
Q 40.484375 56 46.34375 49.84375 
Q 52.203125 43.703125 52.203125 31.203125 
z
" id="DejaVuSans-97"/>
     <path d="M 4.203125 54.6875 
L 13.1875 54.6875 
L 24.421875 12.015625 
L 35.59375 54.6875 
L 46.1875 54.6875 
L 57.421875 12.015625 
L 68.609375 54.6875 
L 77.59375 54.6875 
L 63.28125 0 
L 52.6875 0 
L 40.921875 44.828125 
L 29.109375 0 
L 18.5 0 
z
" id="DejaVuSans-119"/>
     <path d="M 32.171875 -5.078125 
Q 28.375 -14.84375 24.75 -17.8125 
Q 21.140625 -20.796875 15.09375 -20.796875 
L 7.90625 -20.796875 
L 7.90625 -13.28125 
L 13.1875 -13.28125 
Q 16.890625 -13.28125 18.9375 -11.515625 
Q 21 -9.765625 23.484375 -3.21875 
L 25.09375 0.875 
L 2.984375 54.6875 
L 12.5 54.6875 
L 29.59375 11.921875 
L 46.6875 54.6875 
L 56.203125 54.6875 
z
" id="DejaVuSans-121"/>
    </defs>
    <use xlink:href="#DejaVuSans-73"/>
    <use x="29.492188" xlink:href="#DejaVuSans-32"/>
    <use x="61.279297" xlink:href="#DejaVuSans-98"/>
    <use x="124.755859" xlink:href="#DejaVuSans-101"/>
    <use x="186.279297" xlink:href="#DejaVuSans-108"/>
    <use x="214.0625" xlink:href="#DejaVuSans-105"/>
    <use x="241.845703" xlink:href="#DejaVuSans-101"/>
    <use x="303.369141" xlink:href="#DejaVuSans-118"/>
    <use x="362.548828" xlink:href="#DejaVuSans-101"/>
    <use x="424.072266" xlink:href="#DejaVuSans-32"/>
    <use x="455.859375" xlink:href="#DejaVuSans-116"/>
    <use x="495.068359" xlink:href="#DejaVuSans-104"/>
    <use x="558.447266" xlink:href="#DejaVuSans-101"/>
    <use x="619.970703" xlink:href="#DejaVuSans-32"/>
    <use x="651.757812" xlink:href="#DejaVuSans-98"/>
    <use x="715.234375" xlink:href="#DejaVuSans-105"/>
    <use x="743.017578" xlink:href="#DejaVuSans-107"/>
    <use x="797.302734" xlink:href="#DejaVuSans-101"/>
    <use x="858.826172" xlink:href="#DejaVuSans-32"/>
    <use x="890.613281" xlink:href="#DejaVuSans-99"/>
    <use x="945.59375" xlink:href="#DejaVuSans-104"/>
    <use x="1008.972656" xlink:href="#DejaVuSans-97"/>
    <use x="1070.251953" xlink:href="#DejaVuSans-116"/>
    <use x="1109.460938" xlink:href="#DejaVuSans-98"/>
    <use x="1172.9375" xlink:href="#DejaVuSans-111"/>
    <use x="1234.119141" xlink:href="#DejaVuSans-116"/>
    <use x="1273.328125" xlink:href="#DejaVuSans-32"/>
    <use x="1305.115234" xlink:href="#DejaVuSans-105"/>
    <use x="1332.898438" xlink:href="#DejaVuSans-115"/>
    <use x="1384.998047" xlink:href="#DejaVuSans-32"/>
    <use x="1416.785156" xlink:href="#DejaVuSans-116"/>
    <use x="1455.994141" xlink:href="#DejaVuSans-114"/>
    <use x="1497.107422" xlink:href="#DejaVuSans-117"/>
    <use x="1560.486328" xlink:href="#DejaVuSans-115"/>
    <use x="1612.585938" xlink:href="#DejaVuSans-116"/>
    <use x="1651.794922" xlink:href="#DejaVuSans-119"/>
    <use x="1733.582031" xlink:href="#DejaVuSans-111"/>
    <use x="1794.763672" xlink:href="#DejaVuSans-114"/>
    <use x="1835.876953" xlink:href="#DejaVuSans-116"/>
    <use x="1875.085938" xlink:href="#DejaVuSans-104"/>
    <use x="1938.464844" xlink:href="#DejaVuSans-121"/>
    <use x="1983.394531" xlink:href="#DejaVuSans-46"/>
   </g>
  </g>
 </g>
 <defs>
  <clipPath id="p2b535b3073">
   <rect height="199.6" width="164.4875" x="50.14375" y="48.04"/>
  </clipPath>
  <clipPath id="pa3124ac5a1">
   <rect height="199.6" width="164.4875" x="252.80625" y="48.04"/>
  </clipPath>
 </defs>
</svg>
