<?xml version="1.0" encoding="utf-8" standalone="no"?>
<!DOCTYPE svg PUBLIC "-//W3C//DTD SVG 1.1//EN"
  "http://www.w3.org/Graphics/SVG/1.1/DTD/svg11.dtd">
<!-- Created with matplotlib (https://matplotlib.org/) -->
<svg height="285.19625pt" version="1.1" viewBox="0 0 424.465625 285.19625" width="424.465625pt" xmlns="http://www.w3.org/2000/svg" xmlns:xlink="http://www.w3.org/1999/xlink">
 <metadata>
  <rdf:RDF xmlns:cc="http://creativecommons.org/ns#" xmlns:dc="http://purl.org/dc/elements/1.1/" xmlns:rdf="http://www.w3.org/1999/02/22-rdf-syntax-ns#">
   <cc:Work>
    <dc:type rdf:resource="http://purl.org/dc/dcmitype/StillImage"/>
    <dc:date>2021-02-21T18:27:37.008863</dc:date>
    <dc:format>image/svg+xml</dc:format>
    <dc:creator>
     <cc:Agent>
      <dc:title>Matplotlib v3.3.2, https://matplotlib.org/</dc:title>
     </cc:Agent>
    </dc:creator>
   </cc:Work>
  </rdf:RDF>
 </metadata>
 <defs>
  <style type="text/css">*{stroke-linecap:butt;stroke-linejoin:round;}</style>
 </defs>
 <g id="figure_1">
  <g id="patch_1">
   <path d="M 0 285.19625 
L 424.465625 285.19625 
L 424.465625 0 
L 0 0 
z
" style="fill:none;"/>
  </g>
  <g id="axes_1">
   <g id="patch_2">
    <path d="M 34.240625 247.64 
L 201.853125 247.64 
L 201.853125 48.04 
L 34.240625 48.04 
z
" style="fill:#ffffff;"/>
   </g>
   <g id="PathCollection_1">
    <defs>
     <path d="M 0 3 
C 0.795609 3 1.55874 2.683901 2.12132 2.12132 
C 2.683901 1.55874 3 0.795609 3 0 
C 3 -0.795609 2.683901 -1.55874 2.12132 -2.12132 
C 1.55874 -2.683901 0.795609 -3 0 -3 
C -0.795609 -3 -1.55874 -2.683901 -2.12132 -2.12132 
C -2.683901 -1.55874 -3 -0.795609 -3 0 
C -3 0.795609 -2.683901 1.55874 -2.12132 2.12132 
C -1.55874 2.683901 -0.795609 3 0 3 
z
" id="mb58240ccf1" style="stroke:#1f77b4;stroke-opacity:0.8;"/>
    </defs>
    <g clip-path="url(#pf46e7fe45f)">
     <use style="fill:#1f77b4;fill-opacity:0.8;stroke:#1f77b4;stroke-opacity:0.8;" x="137.386779" xlink:href="#mb58240ccf1" y="119.413618"/>
     <use style="fill:#1f77b4;fill-opacity:0.8;stroke:#1f77b4;stroke-opacity:0.8;" x="60.027163" xlink:href="#mb58240ccf1" y="79.695733"/>
     <use style="fill:#1f77b4;fill-opacity:0.8;stroke:#1f77b4;stroke-opacity:0.8;" x="72.920433" xlink:href="#mb58240ccf1" y="159.131503"/>
     <use style="fill:#1f77b4;fill-opacity:0.8;stroke:#1f77b4;stroke-opacity:0.8;" x="137.386779" xlink:href="#mb58240ccf1" y="119.413618"/>
     <use style="fill:#1f77b4;fill-opacity:0.8;stroke:#1f77b4;stroke-opacity:0.8;" x="163.173317" xlink:href="#mb58240ccf1" y="119.413618"/>
     <use style="fill:#1f77b4;fill-opacity:0.8;stroke:#1f77b4;stroke-opacity:0.8;" x="124.49351" xlink:href="#mb58240ccf1" y="79.695733"/>
     <use style="fill:#1f77b4;fill-opacity:0.8;stroke:#1f77b4;stroke-opacity:0.8;" x="176.066587" xlink:href="#mb58240ccf1" y="79.695733"/>
     <use style="fill:#1f77b4;fill-opacity:0.8;stroke:#1f77b4;stroke-opacity:0.8;" x="124.49351" xlink:href="#mb58240ccf1" y="159.131503"/>
     <use style="fill:#1f77b4;fill-opacity:0.8;stroke:#1f77b4;stroke-opacity:0.8;" x="72.920433" xlink:href="#mb58240ccf1" y="198.849388"/>
     <use style="fill:#1f77b4;fill-opacity:0.8;stroke:#1f77b4;stroke-opacity:0.8;" x="111.60024" xlink:href="#mb58240ccf1" y="119.413618"/>
     <use style="fill:#1f77b4;fill-opacity:0.8;stroke:#1f77b4;stroke-opacity:0.8;" x="111.60024" xlink:href="#mb58240ccf1" y="119.413618"/>
     <use style="fill:#1f77b4;fill-opacity:0.8;stroke:#1f77b4;stroke-opacity:0.8;" x="163.173317" xlink:href="#mb58240ccf1" y="79.695733"/>
     <use style="fill:#1f77b4;fill-opacity:0.8;stroke:#1f77b4;stroke-opacity:0.8;" x="85.813702" xlink:href="#mb58240ccf1" y="119.413618"/>
     <use style="fill:#1f77b4;fill-opacity:0.8;stroke:#1f77b4;stroke-opacity:0.8;" x="124.49351" xlink:href="#mb58240ccf1" y="119.413618"/>
     <use style="fill:#1f77b4;fill-opacity:0.8;stroke:#1f77b4;stroke-opacity:0.8;" x="124.49351" xlink:href="#mb58240ccf1" y="119.413618"/>
     <use style="fill:#1f77b4;fill-opacity:0.8;stroke:#1f77b4;stroke-opacity:0.8;" x="150.280048" xlink:href="#mb58240ccf1" y="79.695733"/>
     <use style="fill:#1f77b4;fill-opacity:0.8;stroke:#1f77b4;stroke-opacity:0.8;" x="111.60024" xlink:href="#mb58240ccf1" y="119.413618"/>
     <use style="fill:#1f77b4;fill-opacity:0.8;stroke:#1f77b4;stroke-opacity:0.8;" x="98.706971" xlink:href="#mb58240ccf1" y="79.695733"/>
     <use style="fill:#1f77b4;fill-opacity:0.8;stroke:#1f77b4;stroke-opacity:0.8;" x="150.280048" xlink:href="#mb58240ccf1" y="79.695733"/>
     <use style="fill:#1f77b4;fill-opacity:0.8;stroke:#1f77b4;stroke-opacity:0.8;" x="34.240625" xlink:href="#mb58240ccf1" y="159.131503"/>
     <use style="fill:#1f77b4;fill-opacity:0.8;stroke:#1f77b4;stroke-opacity:0.8;" x="85.813702" xlink:href="#mb58240ccf1" y="119.413618"/>
     <use style="fill:#1f77b4;fill-opacity:0.8;stroke:#1f77b4;stroke-opacity:0.8;" x="201.853125" xlink:href="#mb58240ccf1" y="238.567273"/>
     <use style="fill:#1f77b4;fill-opacity:0.8;stroke:#1f77b4;stroke-opacity:0.8;" x="111.60024" xlink:href="#mb58240ccf1" y="79.695733"/>
     <use style="fill:#1f77b4;fill-opacity:0.8;stroke:#1f77b4;stroke-opacity:0.8;" x="111.60024" xlink:href="#mb58240ccf1" y="119.413618"/>
     <use style="fill:#1f77b4;fill-opacity:0.8;stroke:#1f77b4;stroke-opacity:0.8;" x="111.60024" xlink:href="#mb58240ccf1" y="119.413618"/>
     <use style="fill:#1f77b4;fill-opacity:0.8;stroke:#1f77b4;stroke-opacity:0.8;" x="111.60024" xlink:href="#mb58240ccf1" y="79.695733"/>
     <use style="fill:#1f77b4;fill-opacity:0.8;stroke:#1f77b4;stroke-opacity:0.8;" x="98.706971" xlink:href="#mb58240ccf1" y="79.695733"/>
     <use style="fill:#1f77b4;fill-opacity:0.8;stroke:#1f77b4;stroke-opacity:0.8;" x="85.813702" xlink:href="#mb58240ccf1" y="119.413618"/>
     <use style="fill:#1f77b4;fill-opacity:0.8;stroke:#1f77b4;stroke-opacity:0.8;" x="98.706971" xlink:href="#mb58240ccf1" y="119.413618"/>
     <use style="fill:#1f77b4;fill-opacity:0.8;stroke:#1f77b4;stroke-opacity:0.8;" x="111.60024" xlink:href="#mb58240ccf1" y="119.413618"/>
     <use style="fill:#1f77b4;fill-opacity:0.8;stroke:#1f77b4;stroke-opacity:0.8;" x="111.60024" xlink:href="#mb58240ccf1" y="79.695733"/>
     <use style="fill:#1f77b4;fill-opacity:0.8;stroke:#1f77b4;stroke-opacity:0.8;" x="85.813702" xlink:href="#mb58240ccf1" y="79.695733"/>
     <use style="fill:#1f77b4;fill-opacity:0.8;stroke:#1f77b4;stroke-opacity:0.8;" x="124.49351" xlink:href="#mb58240ccf1" y="79.695733"/>
     <use style="fill:#1f77b4;fill-opacity:0.8;stroke:#1f77b4;stroke-opacity:0.8;" x="124.49351" xlink:href="#mb58240ccf1" y="119.413618"/>
     <use style="fill:#1f77b4;fill-opacity:0.8;stroke:#1f77b4;stroke-opacity:0.8;" x="98.706971" xlink:href="#mb58240ccf1" y="119.413618"/>
     <use style="fill:#1f77b4;fill-opacity:0.8;stroke:#1f77b4;stroke-opacity:0.8;" x="98.706971" xlink:href="#mb58240ccf1" y="119.413618"/>
     <use style="fill:#1f77b4;fill-opacity:0.8;stroke:#1f77b4;stroke-opacity:0.8;" x="85.813702" xlink:href="#mb58240ccf1" y="159.131503"/>
     <use style="fill:#1f77b4;fill-opacity:0.8;stroke:#1f77b4;stroke-opacity:0.8;" x="111.60024" xlink:href="#mb58240ccf1" y="79.695733"/>
     <use style="fill:#1f77b4;fill-opacity:0.8;stroke:#1f77b4;stroke-opacity:0.8;" x="98.706971" xlink:href="#mb58240ccf1" y="119.413618"/>
     <use style="fill:#1f77b4;fill-opacity:0.8;stroke:#1f77b4;stroke-opacity:0.8;" x="85.813702" xlink:href="#mb58240ccf1" y="159.131503"/>
     <use style="fill:#1f77b4;fill-opacity:0.8;stroke:#1f77b4;stroke-opacity:0.8;" x="47.133894" xlink:href="#mb58240ccf1" y="79.695733"/>
    </g>
   </g>
   <g id="PolyCollection_1">
    <path clip-path="url(#pf46e7fe45f)" d="M 34.240625 74.241835 
L 34.240625 162.149384 
L 35.933681 161.088222 
L 37.626736 160.101267 
L 39.319792 158.953105 
L 41.012847 157.947925 
L 42.705903 156.984729 
L 44.398958 156.021532 
L 46.092014 155.056252 
L 47.785069 154.037516 
L 49.478125 152.960384 
L 51.171181 151.883253 
L 52.864236 150.806121 
L 54.557292 149.72899 
L 56.250347 148.651858 
L 57.943403 147.574727 
L 59.636458 146.558964 
L 61.329514 145.495147 
L 63.022569 144.43115 
L 64.715625 143.360027 
L 66.408681 142.288903 
L 68.101736 141.256074 
L 69.794792 140.338687 
L 71.487847 139.416963 
L 73.180903 138.495239 
L 74.873958 137.510726 
L 76.567014 136.431616 
L 78.260069 135.43535 
L 79.953125 134.294506 
L 81.646181 133.408973 
L 83.339236 132.276888 
L 85.032292 131.77969 
L 86.725347 130.601348 
L 88.418403 129.738764 
L 90.111458 128.83078 
L 91.804514 127.76298 
L 93.497569 126.885749 
L 95.190625 126.549766 
L 96.883681 125.764554 
L 98.576736 125.330646 
L 100.269792 124.991071 
L 101.962847 124.6977 
L 103.655903 124.523821 
L 105.348958 124.723659 
L 107.042014 125.113502 
L 108.735069 125.257876 
L 110.428125 125.574195 
L 112.121181 125.890514 
L 113.814236 126.235785 
L 115.507292 126.682045 
L 117.200347 127.399572 
L 118.893403 127.853019 
L 120.586458 128.510767 
L 122.279514 129.474754 
L 123.972569 130.172189 
L 125.665625 131.145293 
L 127.358681 131.730344 
L 129.051736 132.465964 
L 130.744792 133.315743 
L 132.437847 134.26827 
L 134.130903 135.250384 
L 135.823958 136.166986 
L 137.517014 137.114756 
L 139.210069 138.060466 
L 140.903125 138.908285 
L 142.596181 139.857365 
L 144.289236 140.690716 
L 145.982292 141.524067 
L 147.675347 142.354017 
L 149.368403 143.18367 
L 151.061458 144.008295 
L 152.754514 144.602983 
L 154.447569 145.141287 
L 156.140625 145.679591 
L 157.833681 146.53833 
L 159.526736 147.660386 
L 161.219792 148.632608 
L 162.912847 149.297952 
L 164.605903 149.963297 
L 166.298958 150.627479 
L 167.992014 151.239155 
L 169.685069 152.073329 
L 171.378125 152.869459 
L 173.071181 153.800361 
L 174.764236 154.72841 
L 176.457292 155.623596 
L 178.150347 156.368041 
L 179.843403 157.112486 
L 181.536458 157.856931 
L 183.229514 158.635956 
L 184.922569 159.541903 
L 186.615625 160.445063 
L 188.308681 161.348223 
L 190.001736 162.251383 
L 191.694792 163.154542 
L 193.387847 164.057702 
L 195.080903 164.960862 
L 196.773958 165.864021 
L 198.467014 166.752571 
L 200.160069 167.675637 
L 201.853125 168.582616 
L 201.853125 57.112727 
L 201.853125 57.112727 
L 200.160069 58.226546 
L 198.467014 59.140056 
L 196.773958 59.972497 
L 195.080903 60.85695 
L 193.387847 61.898115 
L 191.694792 62.941003 
L 190.001736 63.960177 
L 188.308681 64.956127 
L 186.615625 65.917154 
L 184.922569 66.878182 
L 183.229514 67.856631 
L 181.536458 68.931752 
L 179.843403 70.007108 
L 178.150347 70.93545 
L 176.457292 71.8351 
L 174.764236 72.836181 
L 173.071181 73.838478 
L 171.378125 74.807623 
L 169.685069 75.843073 
L 167.992014 76.853843 
L 166.298958 77.811083 
L 164.605903 78.699436 
L 162.912847 79.555572 
L 161.219792 80.608974 
L 159.526736 81.636226 
L 157.833681 82.625957 
L 156.140625 83.778849 
L 154.447569 84.779621 
L 152.754514 85.469658 
L 151.061458 86.420304 
L 149.368403 87.48567 
L 147.675347 88.771282 
L 145.982292 89.711923 
L 144.289236 90.741487 
L 142.596181 91.660564 
L 140.903125 92.623287 
L 139.210069 93.634304 
L 137.517014 94.402053 
L 135.823958 95.300309 
L 134.130903 96.15541 
L 132.437847 96.907407 
L 130.744792 97.597065 
L 129.051736 98.444123 
L 127.358681 99.000791 
L 125.665625 99.767626 
L 123.972569 100.435535 
L 122.279514 101.226425 
L 120.586458 101.803139 
L 118.893403 102.385155 
L 117.200347 102.967573 
L 115.507292 103.270205 
L 113.814236 103.524558 
L 112.121181 103.646356 
L 110.428125 104.015427 
L 108.735069 104.078725 
L 107.042014 104.032715 
L 105.348958 104.194228 
L 103.655903 104.186465 
L 101.962847 104.207651 
L 100.269792 103.609473 
L 98.576736 103.226365 
L 96.883681 102.47562 
L 95.190625 101.910599 
L 93.497569 101.713165 
L 91.804514 101.17377 
L 90.111458 100.541396 
L 88.418403 100.011541 
L 86.725347 99.166273 
L 85.032292 98.396967 
L 83.339236 97.520554 
L 81.646181 96.653442 
L 79.953125 95.773276 
L 78.260069 94.903179 
L 76.567014 94.191087 
L 74.873958 93.505664 
L 73.180903 92.82574 
L 71.487847 92.138388 
L 69.794792 91.526186 
L 68.101736 91.080832 
L 66.408681 90.635477 
L 64.715625 90.171438 
L 63.022569 89.283385 
L 61.329514 88.395332 
L 59.636458 87.507279 
L 57.943403 86.612474 
L 56.250347 85.713202 
L 54.557292 84.81393 
L 52.864236 83.924605 
L 51.171181 83.035698 
L 49.478125 82.146791 
L 47.785069 81.257885 
L 46.092014 80.534689 
L 44.398958 79.8129 
L 42.705903 78.930569 
L 41.012847 77.911014 
L 39.319792 77.100221 
L 37.626736 76.145972 
L 35.933681 75.191724 
L 34.240625 74.241835 
z
" style="fill:#1f77b4;fill-opacity:0.15;"/>
   </g>
   <g id="matplotlib.axis_1">
    <g id="xtick_1">
     <g id="line2d_1">
      <defs>
       <path d="M 0 0 
L 0 3.5 
" id="m9c203e56af" style="stroke:#000000;stroke-width:0.8;"/>
      </defs>
      <g>
       <use style="stroke:#000000;stroke-width:0.8;" x="60.027163" xlink:href="#m9c203e56af" y="247.64"/>
      </g>
     </g>
     <g id="text_1">
      <!-- 2 -->
      <g transform="translate(56.845913 262.238437)scale(0.1 -0.1)">
       <defs>
        <path d="M 19.1875 8.296875 
L 53.609375 8.296875 
L 53.609375 0 
L 7.328125 0 
L 7.328125 8.296875 
Q 12.9375 14.109375 22.625 23.890625 
Q 32.328125 33.6875 34.8125 36.53125 
Q 39.546875 41.84375 41.421875 45.53125 
Q 43.3125 49.21875 43.3125 52.78125 
Q 43.3125 58.59375 39.234375 62.25 
Q 35.15625 65.921875 28.609375 65.921875 
Q 23.96875 65.921875 18.8125 64.3125 
Q 13.671875 62.703125 7.8125 59.421875 
L 7.8125 69.390625 
Q 13.765625 71.78125 18.9375 73 
Q 24.125 74.21875 28.421875 74.21875 
Q 39.75 74.21875 46.484375 68.546875 
Q 53.21875 62.890625 53.21875 53.421875 
Q 53.21875 48.921875 51.53125 44.890625 
Q 49.859375 40.875 45.40625 35.40625 
Q 44.1875 33.984375 37.640625 27.21875 
Q 31.109375 20.453125 19.1875 8.296875 
z
" id="DejaVuSans-50"/>
       </defs>
       <use xlink:href="#DejaVuSans-50"/>
      </g>
     </g>
    </g>
    <g id="xtick_2">
     <g id="line2d_2">
      <g>
       <use style="stroke:#000000;stroke-width:0.8;" x="111.60024" xlink:href="#m9c203e56af" y="247.64"/>
      </g>
     </g>
     <g id="text_2">
      <!-- 3 -->
      <g transform="translate(108.41899 262.238437)scale(0.1 -0.1)">
       <defs>
        <path d="M 40.578125 39.3125 
Q 47.65625 37.796875 51.625 33 
Q 55.609375 28.21875 55.609375 21.1875 
Q 55.609375 10.40625 48.1875 4.484375 
Q 40.765625 -1.421875 27.09375 -1.421875 
Q 22.515625 -1.421875 17.65625 -0.515625 
Q 12.796875 0.390625 7.625 2.203125 
L 7.625 11.71875 
Q 11.71875 9.328125 16.59375 8.109375 
Q 21.484375 6.890625 26.8125 6.890625 
Q 36.078125 6.890625 40.9375 10.546875 
Q 45.796875 14.203125 45.796875 21.1875 
Q 45.796875 27.640625 41.28125 31.265625 
Q 36.765625 34.90625 28.71875 34.90625 
L 20.21875 34.90625 
L 20.21875 43.015625 
L 29.109375 43.015625 
Q 36.375 43.015625 40.234375 45.921875 
Q 44.09375 48.828125 44.09375 54.296875 
Q 44.09375 59.90625 40.109375 62.90625 
Q 36.140625 65.921875 28.71875 65.921875 
Q 24.65625 65.921875 20.015625 65.03125 
Q 15.375 64.15625 9.8125 62.3125 
L 9.8125 71.09375 
Q 15.4375 72.65625 20.34375 73.4375 
Q 25.25 74.21875 29.59375 74.21875 
Q 40.828125 74.21875 47.359375 69.109375 
Q 53.90625 64.015625 53.90625 55.328125 
Q 53.90625 49.265625 50.4375 45.09375 
Q 46.96875 40.921875 40.578125 39.3125 
z
" id="DejaVuSans-51"/>
       </defs>
       <use xlink:href="#DejaVuSans-51"/>
      </g>
     </g>
    </g>
    <g id="xtick_3">
     <g id="line2d_3">
      <g>
       <use style="stroke:#000000;stroke-width:0.8;" x="163.173317" xlink:href="#m9c203e56af" y="247.64"/>
      </g>
     </g>
     <g id="text_3">
      <!-- 4 -->
      <g transform="translate(159.992067 262.238437)scale(0.1 -0.1)">
       <defs>
        <path d="M 37.796875 64.3125 
L 12.890625 25.390625 
L 37.796875 25.390625 
z
M 35.203125 72.90625 
L 47.609375 72.90625 
L 47.609375 25.390625 
L 58.015625 25.390625 
L 58.015625 17.1875 
L 47.609375 17.1875 
L 47.609375 0 
L 37.796875 0 
L 37.796875 17.1875 
L 4.890625 17.1875 
L 4.890625 26.703125 
z
" id="DejaVuSans-52"/>
       </defs>
       <use xlink:href="#DejaVuSans-52"/>
      </g>
     </g>
    </g>
    <g id="text_4">
     <!-- E -->
     <g transform="translate(114.8875 275.916562)scale(0.1 -0.1)">
      <defs>
       <path d="M 9.8125 72.90625 
L 55.90625 72.90625 
L 55.90625 64.59375 
L 19.671875 64.59375 
L 19.671875 43.015625 
L 54.390625 43.015625 
L 54.390625 34.71875 
L 19.671875 34.71875 
L 19.671875 8.296875 
L 56.78125 8.296875 
L 56.78125 0 
L 9.8125 0 
z
" id="DejaVuSans-69"/>
      </defs>
      <use xlink:href="#DejaVuSans-69"/>
     </g>
    </g>
   </g>
   <g id="matplotlib.axis_2">
    <g id="ytick_1">
     <g id="line2d_4">
      <defs>
       <path d="M 0 0 
L -3.5 0 
" id="m39996123e8" style="stroke:#000000;stroke-width:0.8;"/>
      </defs>
      <g>
       <use style="stroke:#000000;stroke-width:0.8;" x="34.240625" xlink:href="#m39996123e8" y="238.567273"/>
      </g>
     </g>
     <g id="text_5">
      <!-- 1 -->
      <g transform="translate(20.878125 242.366491)scale(0.1 -0.1)">
       <defs>
        <path d="M 12.40625 8.296875 
L 28.515625 8.296875 
L 28.515625 63.921875 
L 10.984375 60.40625 
L 10.984375 69.390625 
L 28.421875 72.90625 
L 38.28125 72.90625 
L 38.28125 8.296875 
L 54.390625 8.296875 
L 54.390625 0 
L 12.40625 0 
z
" id="DejaVuSans-49"/>
       </defs>
       <use xlink:href="#DejaVuSans-49"/>
      </g>
     </g>
    </g>
    <g id="ytick_2">
     <g id="line2d_5">
      <g>
       <use style="stroke:#000000;stroke-width:0.8;" x="34.240625" xlink:href="#m39996123e8" y="198.849388"/>
      </g>
     </g>
     <g id="text_6">
      <!-- 2 -->
      <g transform="translate(20.878125 202.648607)scale(0.1 -0.1)">
       <use xlink:href="#DejaVuSans-50"/>
      </g>
     </g>
    </g>
    <g id="ytick_3">
     <g id="line2d_6">
      <g>
       <use style="stroke:#000000;stroke-width:0.8;" x="34.240625" xlink:href="#m39996123e8" y="159.131503"/>
      </g>
     </g>
     <g id="text_7">
      <!-- 3 -->
      <g transform="translate(20.878125 162.930722)scale(0.1 -0.1)">
       <use xlink:href="#DejaVuSans-51"/>
      </g>
     </g>
    </g>
    <g id="ytick_4">
     <g id="line2d_7">
      <g>
       <use style="stroke:#000000;stroke-width:0.8;" x="34.240625" xlink:href="#m39996123e8" y="119.413618"/>
      </g>
     </g>
     <g id="text_8">
      <!-- 4 -->
      <g transform="translate(20.878125 123.212837)scale(0.1 -0.1)">
       <use xlink:href="#DejaVuSans-52"/>
      </g>
     </g>
    </g>
    <g id="ytick_5">
     <g id="line2d_8">
      <g>
       <use style="stroke:#000000;stroke-width:0.8;" x="34.240625" xlink:href="#m39996123e8" y="79.695733"/>
      </g>
     </g>
     <g id="text_9">
      <!-- 5 -->
      <g transform="translate(20.878125 83.494952)scale(0.1 -0.1)">
       <defs>
        <path d="M 10.796875 72.90625 
L 49.515625 72.90625 
L 49.515625 64.59375 
L 19.828125 64.59375 
L 19.828125 46.734375 
Q 21.96875 47.46875 24.109375 47.828125 
Q 26.265625 48.1875 28.421875 48.1875 
Q 40.625 48.1875 47.75 41.5 
Q 54.890625 34.8125 54.890625 23.390625 
Q 54.890625 11.625 47.5625 5.09375 
Q 40.234375 -1.421875 26.90625 -1.421875 
Q 22.3125 -1.421875 17.546875 -0.640625 
Q 12.796875 0.140625 7.71875 1.703125 
L 7.71875 11.625 
Q 12.109375 9.234375 16.796875 8.0625 
Q 21.484375 6.890625 26.703125 6.890625 
Q 35.15625 6.890625 40.078125 11.328125 
Q 45.015625 15.765625 45.015625 23.390625 
Q 45.015625 31 40.078125 35.4375 
Q 35.15625 39.890625 26.703125 39.890625 
Q 22.75 39.890625 18.8125 39.015625 
Q 14.890625 38.140625 10.796875 36.28125 
z
" id="DejaVuSans-53"/>
       </defs>
       <use xlink:href="#DejaVuSans-53"/>
      </g>
     </g>
    </g>
    <g id="text_10">
     <!-- Trust6 -->
     <g transform="translate(14.798438 163.126719)rotate(-90)scale(0.1 -0.1)">
      <defs>
       <path d="M -0.296875 72.90625 
L 61.375 72.90625 
L 61.375 64.59375 
L 35.5 64.59375 
L 35.5 0 
L 25.59375 0 
L 25.59375 64.59375 
L -0.296875 64.59375 
z
" id="DejaVuSans-84"/>
       <path d="M 41.109375 46.296875 
Q 39.59375 47.171875 37.8125 47.578125 
Q 36.03125 48 33.890625 48 
Q 26.265625 48 22.1875 43.046875 
Q 18.109375 38.09375 18.109375 28.8125 
L 18.109375 0 
L 9.078125 0 
L 9.078125 54.6875 
L 18.109375 54.6875 
L 18.109375 46.1875 
Q 20.953125 51.171875 25.484375 53.578125 
Q 30.03125 56 36.53125 56 
Q 37.453125 56 38.578125 55.875 
Q 39.703125 55.765625 41.0625 55.515625 
z
" id="DejaVuSans-114"/>
       <path d="M 8.5 21.578125 
L 8.5 54.6875 
L 17.484375 54.6875 
L 17.484375 21.921875 
Q 17.484375 14.15625 20.5 10.265625 
Q 23.53125 6.390625 29.59375 6.390625 
Q 36.859375 6.390625 41.078125 11.03125 
Q 45.3125 15.671875 45.3125 23.6875 
L 45.3125 54.6875 
L 54.296875 54.6875 
L 54.296875 0 
L 45.3125 0 
L 45.3125 8.40625 
Q 42.046875 3.421875 37.71875 1 
Q 33.40625 -1.421875 27.6875 -1.421875 
Q 18.265625 -1.421875 13.375 4.4375 
Q 8.5 10.296875 8.5 21.578125 
z
M 31.109375 56 
z
" id="DejaVuSans-117"/>
       <path d="M 44.28125 53.078125 
L 44.28125 44.578125 
Q 40.484375 46.53125 36.375 47.5 
Q 32.28125 48.484375 27.875 48.484375 
Q 21.1875 48.484375 17.84375 46.4375 
Q 14.5 44.390625 14.5 40.28125 
Q 14.5 37.15625 16.890625 35.375 
Q 19.28125 33.59375 26.515625 31.984375 
L 29.59375 31.296875 
Q 39.15625 29.25 43.1875 25.515625 
Q 47.21875 21.78125 47.21875 15.09375 
Q 47.21875 7.46875 41.1875 3.015625 
Q 35.15625 -1.421875 24.609375 -1.421875 
Q 20.21875 -1.421875 15.453125 -0.5625 
Q 10.6875 0.296875 5.421875 2 
L 5.421875 11.28125 
Q 10.40625 8.6875 15.234375 7.390625 
Q 20.0625 6.109375 24.8125 6.109375 
Q 31.15625 6.109375 34.5625 8.28125 
Q 37.984375 10.453125 37.984375 14.40625 
Q 37.984375 18.0625 35.515625 20.015625 
Q 33.0625 21.96875 24.703125 23.78125 
L 21.578125 24.515625 
Q 13.234375 26.265625 9.515625 29.90625 
Q 5.8125 33.546875 5.8125 39.890625 
Q 5.8125 47.609375 11.28125 51.796875 
Q 16.75 56 26.8125 56 
Q 31.78125 56 36.171875 55.265625 
Q 40.578125 54.546875 44.28125 53.078125 
z
" id="DejaVuSans-115"/>
       <path d="M 18.3125 70.21875 
L 18.3125 54.6875 
L 36.8125 54.6875 
L 36.8125 47.703125 
L 18.3125 47.703125 
L 18.3125 18.015625 
Q 18.3125 11.328125 20.140625 9.421875 
Q 21.96875 7.515625 27.59375 7.515625 
L 36.8125 7.515625 
L 36.8125 0 
L 27.59375 0 
Q 17.1875 0 13.234375 3.875 
Q 9.28125 7.765625 9.28125 18.015625 
L 9.28125 47.703125 
L 2.6875 47.703125 
L 2.6875 54.6875 
L 9.28125 54.6875 
L 9.28125 70.21875 
z
" id="DejaVuSans-116"/>
       <path d="M 33.015625 40.375 
Q 26.375 40.375 22.484375 35.828125 
Q 18.609375 31.296875 18.609375 23.390625 
Q 18.609375 15.53125 22.484375 10.953125 
Q 26.375 6.390625 33.015625 6.390625 
Q 39.65625 6.390625 43.53125 10.953125 
Q 47.40625 15.53125 47.40625 23.390625 
Q 47.40625 31.296875 43.53125 35.828125 
Q 39.65625 40.375 33.015625 40.375 
z
M 52.59375 71.296875 
L 52.59375 62.3125 
Q 48.875 64.0625 45.09375 64.984375 
Q 41.3125 65.921875 37.59375 65.921875 
Q 27.828125 65.921875 22.671875 59.328125 
Q 17.53125 52.734375 16.796875 39.40625 
Q 19.671875 43.65625 24.015625 45.921875 
Q 28.375 48.1875 33.59375 48.1875 
Q 44.578125 48.1875 50.953125 41.515625 
Q 57.328125 34.859375 57.328125 23.390625 
Q 57.328125 12.15625 50.6875 5.359375 
Q 44.046875 -1.421875 33.015625 -1.421875 
Q 20.359375 -1.421875 13.671875 8.265625 
Q 6.984375 17.96875 6.984375 36.375 
Q 6.984375 53.65625 15.1875 63.9375 
Q 23.390625 74.21875 37.203125 74.21875 
Q 40.921875 74.21875 44.703125 73.484375 
Q 48.484375 72.75 52.59375 71.296875 
z
" id="DejaVuSans-54"/>
      </defs>
      <use xlink:href="#DejaVuSans-84"/>
      <use x="46.333984" xlink:href="#DejaVuSans-114"/>
      <use x="87.447266" xlink:href="#DejaVuSans-117"/>
      <use x="150.826172" xlink:href="#DejaVuSans-115"/>
      <use x="202.925781" xlink:href="#DejaVuSans-116"/>
      <use x="242.134766" xlink:href="#DejaVuSans-54"/>
     </g>
    </g>
   </g>
   <g id="line2d_9">
    <path clip-path="url(#pf46e7fe45f)" d="M 34.240625 115.793518 
L 35.933681 115.766409 
L 37.626736 115.739301 
L 39.319792 115.712192 
L 41.012847 115.685084 
L 42.705903 115.657975 
L 44.398958 115.630867 
L 46.092014 115.603758 
L 47.785069 115.57665 
L 49.478125 115.549541 
L 51.171181 115.522433 
L 52.864236 115.495324 
L 54.557292 115.468216 
L 56.250347 115.441107 
L 57.943403 115.413999 
L 59.636458 115.38689 
L 61.329514 115.359782 
L 63.022569 115.332673 
L 64.715625 115.305565 
L 66.408681 115.278456 
L 68.101736 115.251348 
L 69.794792 115.224239 
L 71.487847 115.197131 
L 73.180903 115.170022 
L 74.873958 115.142914 
L 76.567014 115.115805 
L 78.260069 115.088697 
L 79.953125 115.061588 
L 81.646181 115.03448 
L 83.339236 115.007371 
L 85.032292 114.980263 
L 86.725347 114.953154 
L 88.418403 114.926046 
L 90.111458 114.898937 
L 91.804514 114.871829 
L 93.497569 114.84472 
L 95.190625 114.817612 
L 96.883681 114.790503 
L 98.576736 114.763395 
L 100.269792 114.736286 
L 101.962847 114.709178 
L 103.655903 114.682069 
L 105.348958 114.654961 
L 107.042014 114.627853 
L 108.735069 114.600744 
L 110.428125 114.573636 
L 112.121181 114.546527 
L 113.814236 114.519419 
L 115.507292 114.49231 
L 117.200347 114.465202 
L 118.893403 114.438093 
L 120.586458 114.410985 
L 122.279514 114.383876 
L 123.972569 114.356768 
L 125.665625 114.329659 
L 127.358681 114.302551 
L 129.051736 114.275442 
L 130.744792 114.248334 
L 132.437847 114.221225 
L 134.130903 114.194117 
L 135.823958 114.167008 
L 137.517014 114.1399 
L 139.210069 114.112791 
L 140.903125 114.085683 
L 142.596181 114.058574 
L 144.289236 114.031466 
L 145.982292 114.004357 
L 147.675347 113.977249 
L 149.368403 113.95014 
L 151.061458 113.923032 
L 152.754514 113.895923 
L 154.447569 113.868815 
L 156.140625 113.841706 
L 157.833681 113.814598 
L 159.526736 113.787489 
L 161.219792 113.760381 
L 162.912847 113.733272 
L 164.605903 113.706164 
L 166.298958 113.679055 
L 167.992014 113.651947 
L 169.685069 113.624838 
L 171.378125 113.59773 
L 173.071181 113.570621 
L 174.764236 113.543513 
L 176.457292 113.516404 
L 178.150347 113.489296 
L 179.843403 113.462187 
L 181.536458 113.435079 
L 183.229514 113.40797 
L 184.922569 113.380862 
L 186.615625 113.353753 
L 188.308681 113.326645 
L 190.001736 113.299537 
L 191.694792 113.272428 
L 193.387847 113.24532 
L 195.080903 113.218211 
L 196.773958 113.191103 
L 198.467014 113.163994 
L 200.160069 113.136886 
L 201.853125 113.109777 
" style="fill:none;stroke:#1f77b4;stroke-linecap:square;stroke-width:2.25;"/>
   </g>
   <g id="patch_3">
    <path d="M 34.240625 247.64 
L 34.240625 48.04 
" style="fill:none;stroke:#000000;stroke-linecap:square;stroke-linejoin:miter;stroke-width:0.8;"/>
   </g>
   <g id="patch_4">
    <path d="M 201.853125 247.64 
L 201.853125 48.04 
" style="fill:none;stroke:#000000;stroke-linecap:square;stroke-linejoin:miter;stroke-width:0.8;"/>
   </g>
   <g id="patch_5">
    <path d="M 34.240625 247.64 
L 201.853125 247.64 
" style="fill:none;stroke:#000000;stroke-linecap:square;stroke-linejoin:miter;stroke-width:0.8;"/>
   </g>
   <g id="patch_6">
    <path d="M 34.240625 48.04 
L 201.853125 48.04 
" style="fill:none;stroke:#000000;stroke-linecap:square;stroke-linejoin:miter;stroke-width:0.8;"/>
   </g>
   <g id="text_11">
    <!-- Group A -->
    <g transform="translate(34.240625 42.04)scale(0.12 -0.12)">
     <defs>
      <path d="M 59.515625 10.40625 
L 59.515625 29.984375 
L 43.40625 29.984375 
L 43.40625 38.09375 
L 69.28125 38.09375 
L 69.28125 6.78125 
Q 63.578125 2.734375 56.6875 0.65625 
Q 49.8125 -1.421875 42 -1.421875 
Q 24.90625 -1.421875 15.25 8.5625 
Q 5.609375 18.5625 5.609375 36.375 
Q 5.609375 54.25 15.25 64.234375 
Q 24.90625 74.21875 42 74.21875 
Q 49.125 74.21875 55.546875 72.453125 
Q 61.96875 70.703125 67.390625 67.28125 
L 67.390625 56.78125 
Q 61.921875 61.421875 55.765625 63.765625 
Q 49.609375 66.109375 42.828125 66.109375 
Q 29.4375 66.109375 22.71875 58.640625 
Q 16.015625 51.171875 16.015625 36.375 
Q 16.015625 21.625 22.71875 14.15625 
Q 29.4375 6.6875 42.828125 6.6875 
Q 48.046875 6.6875 52.140625 7.59375 
Q 56.25 8.5 59.515625 10.40625 
z
" id="DejaVuSans-71"/>
      <path d="M 30.609375 48.390625 
Q 23.390625 48.390625 19.1875 42.75 
Q 14.984375 37.109375 14.984375 27.296875 
Q 14.984375 17.484375 19.15625 11.84375 
Q 23.34375 6.203125 30.609375 6.203125 
Q 37.796875 6.203125 41.984375 11.859375 
Q 46.1875 17.53125 46.1875 27.296875 
Q 46.1875 37.015625 41.984375 42.703125 
Q 37.796875 48.390625 30.609375 48.390625 
z
M 30.609375 56 
Q 42.328125 56 49.015625 48.375 
Q 55.71875 40.765625 55.71875 27.296875 
Q 55.71875 13.875 49.015625 6.21875 
Q 42.328125 -1.421875 30.609375 -1.421875 
Q 18.84375 -1.421875 12.171875 6.21875 
Q 5.515625 13.875 5.515625 27.296875 
Q 5.515625 40.765625 12.171875 48.375 
Q 18.84375 56 30.609375 56 
z
" id="DejaVuSans-111"/>
      <path d="M 18.109375 8.203125 
L 18.109375 -20.796875 
L 9.078125 -20.796875 
L 9.078125 54.6875 
L 18.109375 54.6875 
L 18.109375 46.390625 
Q 20.953125 51.265625 25.265625 53.625 
Q 29.59375 56 35.59375 56 
Q 45.5625 56 51.78125 48.09375 
Q 58.015625 40.1875 58.015625 27.296875 
Q 58.015625 14.40625 51.78125 6.484375 
Q 45.5625 -1.421875 35.59375 -1.421875 
Q 29.59375 -1.421875 25.265625 0.953125 
Q 20.953125 3.328125 18.109375 8.203125 
z
M 48.6875 27.296875 
Q 48.6875 37.203125 44.609375 42.84375 
Q 40.53125 48.484375 33.40625 48.484375 
Q 26.265625 48.484375 22.1875 42.84375 
Q 18.109375 37.203125 18.109375 27.296875 
Q 18.109375 17.390625 22.1875 11.75 
Q 26.265625 6.109375 33.40625 6.109375 
Q 40.53125 6.109375 44.609375 11.75 
Q 48.6875 17.390625 48.6875 27.296875 
z
" id="DejaVuSans-112"/>
      <path id="DejaVuSans-32"/>
      <path d="M 34.1875 63.1875 
L 20.796875 26.90625 
L 47.609375 26.90625 
z
M 28.609375 72.90625 
L 39.796875 72.90625 
L 67.578125 0 
L 57.328125 0 
L 50.6875 18.703125 
L 17.828125 18.703125 
L 11.1875 0 
L 0.78125 0 
z
" id="DejaVuSans-65"/>
     </defs>
     <use xlink:href="#DejaVuSans-71"/>
     <use x="77.490234" xlink:href="#DejaVuSans-114"/>
     <use x="116.353516" xlink:href="#DejaVuSans-111"/>
     <use x="177.535156" xlink:href="#DejaVuSans-117"/>
     <use x="240.914062" xlink:href="#DejaVuSans-112"/>
     <use x="304.390625" xlink:href="#DejaVuSans-32"/>
     <use x="336.177734" xlink:href="#DejaVuSans-65"/>
    </g>
   </g>
  </g>
  <g id="axes_2">
   <g id="patch_7">
    <path d="M 249.653125 247.64 
L 417.265625 247.64 
L 417.265625 48.04 
L 249.653125 48.04 
z
" style="fill:#ffffff;"/>
   </g>
   <g id="PathCollection_2">
    <g clip-path="url(#p4115d73a57)">
     <use style="fill:#1f77b4;fill-opacity:0.8;stroke:#1f77b4;stroke-opacity:0.8;" x="249.653125" xlink:href="#mb58240ccf1" y="102.476364"/>
     <use style="fill:#1f77b4;fill-opacity:0.8;stroke:#1f77b4;stroke-opacity:0.8;" x="262.546394" xlink:href="#mb58240ccf1" y="102.476364"/>
     <use style="fill:#1f77b4;fill-opacity:0.8;stroke:#1f77b4;stroke-opacity:0.8;" x="378.585817" xlink:href="#mb58240ccf1" y="238.567273"/>
     <use style="fill:#1f77b4;fill-opacity:0.8;stroke:#1f77b4;stroke-opacity:0.8;" x="339.90601" xlink:href="#mb58240ccf1" y="102.476364"/>
     <use style="fill:#1f77b4;fill-opacity:0.8;stroke:#1f77b4;stroke-opacity:0.8;" x="314.119471" xlink:href="#mb58240ccf1" y="102.476364"/>
     <use style="fill:#1f77b4;fill-opacity:0.8;stroke:#1f77b4;stroke-opacity:0.8;" x="378.585817" xlink:href="#mb58240ccf1" y="57.112727"/>
     <use style="fill:#1f77b4;fill-opacity:0.8;stroke:#1f77b4;stroke-opacity:0.8;" x="314.119471" xlink:href="#mb58240ccf1" y="102.476364"/>
     <use style="fill:#1f77b4;fill-opacity:0.8;stroke:#1f77b4;stroke-opacity:0.8;" x="339.90601" xlink:href="#mb58240ccf1" y="147.84"/>
     <use style="fill:#1f77b4;fill-opacity:0.8;stroke:#1f77b4;stroke-opacity:0.8;" x="339.90601" xlink:href="#mb58240ccf1" y="102.476364"/>
     <use style="fill:#1f77b4;fill-opacity:0.8;stroke:#1f77b4;stroke-opacity:0.8;" x="365.692548" xlink:href="#mb58240ccf1" y="102.476364"/>
     <use style="fill:#1f77b4;fill-opacity:0.8;stroke:#1f77b4;stroke-opacity:0.8;" x="339.90601" xlink:href="#mb58240ccf1" y="102.476364"/>
     <use style="fill:#1f77b4;fill-opacity:0.8;stroke:#1f77b4;stroke-opacity:0.8;" x="378.585817" xlink:href="#mb58240ccf1" y="238.567273"/>
     <use style="fill:#1f77b4;fill-opacity:0.8;stroke:#1f77b4;stroke-opacity:0.8;" x="339.90601" xlink:href="#mb58240ccf1" y="147.84"/>
     <use style="fill:#1f77b4;fill-opacity:0.8;stroke:#1f77b4;stroke-opacity:0.8;" x="391.479087" xlink:href="#mb58240ccf1" y="57.112727"/>
     <use style="fill:#1f77b4;fill-opacity:0.8;stroke:#1f77b4;stroke-opacity:0.8;" x="352.799279" xlink:href="#mb58240ccf1" y="102.476364"/>
     <use style="fill:#1f77b4;fill-opacity:0.8;stroke:#1f77b4;stroke-opacity:0.8;" x="391.479087" xlink:href="#mb58240ccf1" y="193.203636"/>
     <use style="fill:#1f77b4;fill-opacity:0.8;stroke:#1f77b4;stroke-opacity:0.8;" x="352.799279" xlink:href="#mb58240ccf1" y="147.84"/>
     <use style="fill:#1f77b4;fill-opacity:0.8;stroke:#1f77b4;stroke-opacity:0.8;" x="314.119471" xlink:href="#mb58240ccf1" y="102.476364"/>
     <use style="fill:#1f77b4;fill-opacity:0.8;stroke:#1f77b4;stroke-opacity:0.8;" x="365.692548" xlink:href="#mb58240ccf1" y="102.476364"/>
     <use style="fill:#1f77b4;fill-opacity:0.8;stroke:#1f77b4;stroke-opacity:0.8;" x="275.439663" xlink:href="#mb58240ccf1" y="193.203636"/>
     <use style="fill:#1f77b4;fill-opacity:0.8;stroke:#1f77b4;stroke-opacity:0.8;" x="417.265625" xlink:href="#mb58240ccf1" y="102.476364"/>
     <use style="fill:#1f77b4;fill-opacity:0.8;stroke:#1f77b4;stroke-opacity:0.8;" x="314.119471" xlink:href="#mb58240ccf1" y="57.112727"/>
     <use style="fill:#1f77b4;fill-opacity:0.8;stroke:#1f77b4;stroke-opacity:0.8;" x="365.692548" xlink:href="#mb58240ccf1" y="102.476364"/>
     <use style="fill:#1f77b4;fill-opacity:0.8;stroke:#1f77b4;stroke-opacity:0.8;" x="378.585817" xlink:href="#mb58240ccf1" y="147.84"/>
     <use style="fill:#1f77b4;fill-opacity:0.8;stroke:#1f77b4;stroke-opacity:0.8;" x="378.585817" xlink:href="#mb58240ccf1" y="102.476364"/>
     <use style="fill:#1f77b4;fill-opacity:0.8;stroke:#1f77b4;stroke-opacity:0.8;" x="314.119471" xlink:href="#mb58240ccf1" y="102.476364"/>
     <use style="fill:#1f77b4;fill-opacity:0.8;stroke:#1f77b4;stroke-opacity:0.8;" x="314.119471" xlink:href="#mb58240ccf1" y="102.476364"/>
     <use style="fill:#1f77b4;fill-opacity:0.8;stroke:#1f77b4;stroke-opacity:0.8;" x="314.119471" xlink:href="#mb58240ccf1" y="57.112727"/>
     <use style="fill:#1f77b4;fill-opacity:0.8;stroke:#1f77b4;stroke-opacity:0.8;" x="378.585817" xlink:href="#mb58240ccf1" y="193.203636"/>
     <use style="fill:#1f77b4;fill-opacity:0.8;stroke:#1f77b4;stroke-opacity:0.8;" x="378.585817" xlink:href="#mb58240ccf1" y="57.112727"/>
     <use style="fill:#1f77b4;fill-opacity:0.8;stroke:#1f77b4;stroke-opacity:0.8;" x="249.653125" xlink:href="#mb58240ccf1" y="102.476364"/>
     <use style="fill:#1f77b4;fill-opacity:0.8;stroke:#1f77b4;stroke-opacity:0.8;" x="327.01274" xlink:href="#mb58240ccf1" y="102.476364"/>
     <use style="fill:#1f77b4;fill-opacity:0.8;stroke:#1f77b4;stroke-opacity:0.8;" x="352.799279" xlink:href="#mb58240ccf1" y="102.476364"/>
     <use style="fill:#1f77b4;fill-opacity:0.8;stroke:#1f77b4;stroke-opacity:0.8;" x="314.119471" xlink:href="#mb58240ccf1" y="57.112727"/>
     <use style="fill:#1f77b4;fill-opacity:0.8;stroke:#1f77b4;stroke-opacity:0.8;" x="339.90601" xlink:href="#mb58240ccf1" y="102.476364"/>
     <use style="fill:#1f77b4;fill-opacity:0.8;stroke:#1f77b4;stroke-opacity:0.8;" x="327.01274" xlink:href="#mb58240ccf1" y="102.476364"/>
     <use style="fill:#1f77b4;fill-opacity:0.8;stroke:#1f77b4;stroke-opacity:0.8;" x="314.119471" xlink:href="#mb58240ccf1" y="102.476364"/>
     <use style="fill:#1f77b4;fill-opacity:0.8;stroke:#1f77b4;stroke-opacity:0.8;" x="365.692548" xlink:href="#mb58240ccf1" y="147.84"/>
     <use style="fill:#1f77b4;fill-opacity:0.8;stroke:#1f77b4;stroke-opacity:0.8;" x="314.119471" xlink:href="#mb58240ccf1" y="147.84"/>
     <use style="fill:#1f77b4;fill-opacity:0.8;stroke:#1f77b4;stroke-opacity:0.8;" x="314.119471" xlink:href="#mb58240ccf1" y="102.476364"/>
     <use style="fill:#1f77b4;fill-opacity:0.8;stroke:#1f77b4;stroke-opacity:0.8;" x="314.119471" xlink:href="#mb58240ccf1" y="57.112727"/>
     <use style="fill:#1f77b4;fill-opacity:0.8;stroke:#1f77b4;stroke-opacity:0.8;" x="378.585817" xlink:href="#mb58240ccf1" y="102.476364"/>
    </g>
   </g>
   <g id="PolyCollection_2">
    <path clip-path="url(#p4115d73a57)" d="M 249.653125 58.444632 
L 249.653125 124.662968 
L 251.346181 124.658182 
L 253.039236 124.706476 
L 254.732292 124.752838 
L 256.425347 124.390079 
L 258.118403 124.041957 
L 259.811458 123.959847 
L 261.504514 123.894467 
L 263.197569 123.829088 
L 264.890625 123.730441 
L 266.583681 123.41251 
L 268.276736 123.286621 
L 269.969792 123.160732 
L 271.662847 123.034475 
L 273.355903 122.888365 
L 275.048958 122.595409 
L 276.742014 122.283077 
L 278.435069 121.970744 
L 280.128125 121.880159 
L 281.821181 121.938138 
L 283.514236 122.001895 
L 285.207292 122.021309 
L 286.900347 121.684478 
L 288.593403 121.425047 
L 290.286458 121.451502 
L 291.979514 121.491109 
L 293.672569 121.298269 
L 295.365625 121.056283 
L 297.058681 121.125233 
L 298.751736 121.028522 
L 300.444792 120.909783 
L 302.137847 120.788265 
L 303.830903 120.616313 
L 305.523958 120.61813 
L 307.217014 120.805556 
L 308.910069 121.037971 
L 310.603125 121.276722 
L 312.296181 121.58659 
L 313.989236 121.885737 
L 315.682292 122.002185 
L 317.375347 122.094142 
L 319.068403 122.624599 
L 320.761458 123.080903 
L 322.454514 123.466648 
L 324.147569 123.533823 
L 325.840625 123.602204 
L 327.533681 124.195928 
L 329.226736 124.588104 
L 330.919792 125.324006 
L 332.612847 125.81943 
L 334.305903 126.478829 
L 335.998958 127.155951 
L 337.692014 127.61256 
L 339.385069 128.148811 
L 341.078125 129.036233 
L 342.771181 129.813385 
L 344.464236 130.639125 
L 346.157292 131.572745 
L 347.850347 132.308036 
L 349.543403 133.138728 
L 351.236458 133.967905 
L 352.929514 134.861367 
L 354.622569 135.604356 
L 356.315625 136.460441 
L 358.008681 137.293478 
L 359.701736 138.01234 
L 361.394792 138.861711 
L 363.087847 139.786399 
L 364.780903 140.617846 
L 366.473958 141.411942 
L 368.167014 142.382151 
L 369.860069 143.46597 
L 371.553125 144.534437 
L 373.246181 145.46852 
L 374.939236 146.328246 
L 376.632292 147.06112 
L 378.325347 148.033926 
L 380.018403 149.16916 
L 381.711458 150.12957 
L 383.404514 151.322535 
L 385.097569 152.298561 
L 386.790625 153.346941 
L 388.483681 154.419169 
L 390.176736 155.429465 
L 391.869792 156.643681 
L 393.562847 157.775491 
L 395.255903 158.886196 
L 396.948958 159.992567 
L 398.642014 161.102106 
L 400.335069 162.209938 
L 402.028125 163.417681 
L 403.721181 164.607337 
L 405.414236 165.720126 
L 407.107292 166.909412 
L 408.800347 168.108766 
L 410.493403 169.307574 
L 412.186458 170.506261 
L 413.879514 171.703403 
L 415.572569 172.906183 
L 417.265625 174.127758 
L 417.265625 94.708597 
L 417.265625 94.708597 
L 415.572569 95.097856 
L 413.879514 95.487114 
L 412.186458 95.876373 
L 410.493403 96.265632 
L 408.800347 96.527099 
L 407.107292 96.77155 
L 405.414236 97.016002 
L 403.721181 97.260453 
L 402.028125 97.504904 
L 400.335069 97.750832 
L 398.642014 97.998263 
L 396.948958 98.150013 
L 395.255903 98.486153 
L 393.562847 98.727161 
L 391.869792 98.848132 
L 390.176736 98.954549 
L 388.483681 99.287728 
L 386.790625 99.449731 
L 385.097569 99.70446 
L 383.404514 99.858211 
L 381.711458 100.03941 
L 380.018403 100.209212 
L 378.325347 100.407613 
L 376.632292 100.59599 
L 374.939236 100.711269 
L 373.246181 100.866937 
L 371.553125 100.904978 
L 369.860069 100.947049 
L 368.167014 101.262172 
L 366.473958 101.539598 
L 364.780903 101.327413 
L 363.087847 101.328599 
L 361.394792 101.562959 
L 359.701736 101.699039 
L 358.008681 101.733485 
L 356.315625 101.853935 
L 354.622569 102.003407 
L 352.929514 102.142849 
L 351.236458 102.115888 
L 349.543403 102.144192 
L 347.850347 102.080342 
L 346.157292 102.188949 
L 344.464236 102.055681 
L 342.771181 101.880216 
L 341.078125 101.754352 
L 339.385069 101.554376 
L 337.692014 101.350484 
L 335.998958 101.122761 
L 334.305903 100.541092 
L 332.612847 100.196777 
L 330.919792 99.971747 
L 329.226736 99.837429 
L 327.533681 99.513785 
L 325.840625 99.059806 
L 324.147569 98.272183 
L 322.454514 97.68194 
L 320.761458 97.339447 
L 319.068403 96.703509 
L 317.375347 95.942446 
L 315.682292 95.111238 
L 313.989236 94.284116 
L 312.296181 93.572454 
L 310.603125 92.983676 
L 308.910069 92.333524 
L 307.217014 91.402755 
L 305.523958 90.685848 
L 303.830903 89.719248 
L 302.137847 88.924154 
L 300.444792 88.226381 
L 298.751736 87.349555 
L 297.058681 86.55949 
L 295.365625 85.574192 
L 293.672569 84.685887 
L 291.979514 83.900868 
L 290.286458 83.238716 
L 288.593403 82.27769 
L 286.900347 81.146131 
L 285.207292 79.978521 
L 283.514236 79.133368 
L 281.821181 78.13186 
L 280.128125 77.010224 
L 278.435069 76.111258 
L 276.742014 75.198224 
L 275.048958 74.149875 
L 273.355903 73.118785 
L 271.662847 72.069513 
L 269.969792 71.02024 
L 268.276736 69.816729 
L 266.583681 68.582116 
L 264.890625 67.583626 
L 263.197569 66.578217 
L 261.504514 65.440987 
L 259.811458 64.510153 
L 258.118403 63.471003 
L 256.425347 62.481054 
L 254.732292 61.491104 
L 253.039236 60.501155 
L 251.346181 59.495735 
L 249.653125 58.444632 
z
" style="fill:#1f77b4;fill-opacity:0.15;"/>
   </g>
   <g id="matplotlib.axis_3">
    <g id="xtick_4">
     <g id="line2d_10">
      <g>
       <use style="stroke:#000000;stroke-width:0.8;" x="288.332933" xlink:href="#m9c203e56af" y="247.64"/>
      </g>
     </g>
     <g id="text_12">
      <!-- 2 -->
      <g transform="translate(285.151683 262.238437)scale(0.1 -0.1)">
       <use xlink:href="#DejaVuSans-50"/>
      </g>
     </g>
    </g>
    <g id="xtick_5">
     <g id="line2d_11">
      <g>
       <use style="stroke:#000000;stroke-width:0.8;" x="339.90601" xlink:href="#m9c203e56af" y="247.64"/>
      </g>
     </g>
     <g id="text_13">
      <!-- 3 -->
      <g transform="translate(336.72476 262.238437)scale(0.1 -0.1)">
       <use xlink:href="#DejaVuSans-51"/>
      </g>
     </g>
    </g>
    <g id="xtick_6">
     <g id="line2d_12">
      <g>
       <use style="stroke:#000000;stroke-width:0.8;" x="391.479087" xlink:href="#m9c203e56af" y="247.64"/>
      </g>
     </g>
     <g id="text_14">
      <!-- 4 -->
      <g transform="translate(388.297837 262.238437)scale(0.1 -0.1)">
       <use xlink:href="#DejaVuSans-52"/>
      </g>
     </g>
    </g>
    <g id="text_15">
     <!-- E -->
     <g transform="translate(330.3 275.916562)scale(0.1 -0.1)">
      <use xlink:href="#DejaVuSans-69"/>
     </g>
    </g>
   </g>
   <g id="matplotlib.axis_4">
    <g id="ytick_6">
     <g id="line2d_13">
      <g>
       <use style="stroke:#000000;stroke-width:0.8;" x="249.653125" xlink:href="#m39996123e8" y="238.567273"/>
      </g>
     </g>
     <g id="text_16">
      <!-- 1.0 -->
      <g transform="translate(226.75 242.366491)scale(0.1 -0.1)">
       <defs>
        <path d="M 10.6875 12.40625 
L 21 12.40625 
L 21 0 
L 10.6875 0 
z
" id="DejaVuSans-46"/>
        <path d="M 31.78125 66.40625 
Q 24.171875 66.40625 20.328125 58.90625 
Q 16.5 51.421875 16.5 36.375 
Q 16.5 21.390625 20.328125 13.890625 
Q 24.171875 6.390625 31.78125 6.390625 
Q 39.453125 6.390625 43.28125 13.890625 
Q 47.125 21.390625 47.125 36.375 
Q 47.125 51.421875 43.28125 58.90625 
Q 39.453125 66.40625 31.78125 66.40625 
z
M 31.78125 74.21875 
Q 44.046875 74.21875 50.515625 64.515625 
Q 56.984375 54.828125 56.984375 36.375 
Q 56.984375 17.96875 50.515625 8.265625 
Q 44.046875 -1.421875 31.78125 -1.421875 
Q 19.53125 -1.421875 13.0625 8.265625 
Q 6.59375 17.96875 6.59375 36.375 
Q 6.59375 54.828125 13.0625 64.515625 
Q 19.53125 74.21875 31.78125 74.21875 
z
" id="DejaVuSans-48"/>
       </defs>
       <use xlink:href="#DejaVuSans-49"/>
       <use x="63.623047" xlink:href="#DejaVuSans-46"/>
       <use x="95.410156" xlink:href="#DejaVuSans-48"/>
      </g>
     </g>
    </g>
    <g id="ytick_7">
     <g id="line2d_14">
      <g>
       <use style="stroke:#000000;stroke-width:0.8;" x="249.653125" xlink:href="#m39996123e8" y="215.885455"/>
      </g>
     </g>
     <g id="text_17">
      <!-- 1.5 -->
      <g transform="translate(226.75 219.684673)scale(0.1 -0.1)">
       <use xlink:href="#DejaVuSans-49"/>
       <use x="63.623047" xlink:href="#DejaVuSans-46"/>
       <use x="95.410156" xlink:href="#DejaVuSans-53"/>
      </g>
     </g>
    </g>
    <g id="ytick_8">
     <g id="line2d_15">
      <g>
       <use style="stroke:#000000;stroke-width:0.8;" x="249.653125" xlink:href="#m39996123e8" y="193.203636"/>
      </g>
     </g>
     <g id="text_18">
      <!-- 2.0 -->
      <g transform="translate(226.75 197.002855)scale(0.1 -0.1)">
       <use xlink:href="#DejaVuSans-50"/>
       <use x="63.623047" xlink:href="#DejaVuSans-46"/>
       <use x="95.410156" xlink:href="#DejaVuSans-48"/>
      </g>
     </g>
    </g>
    <g id="ytick_9">
     <g id="line2d_16">
      <g>
       <use style="stroke:#000000;stroke-width:0.8;" x="249.653125" xlink:href="#m39996123e8" y="170.521818"/>
      </g>
     </g>
     <g id="text_19">
      <!-- 2.5 -->
      <g transform="translate(226.75 174.321037)scale(0.1 -0.1)">
       <use xlink:href="#DejaVuSans-50"/>
       <use x="63.623047" xlink:href="#DejaVuSans-46"/>
       <use x="95.410156" xlink:href="#DejaVuSans-53"/>
      </g>
     </g>
    </g>
    <g id="ytick_10">
     <g id="line2d_17">
      <g>
       <use style="stroke:#000000;stroke-width:0.8;" x="249.653125" xlink:href="#m39996123e8" y="147.84"/>
      </g>
     </g>
     <g id="text_20">
      <!-- 3.0 -->
      <g transform="translate(226.75 151.639219)scale(0.1 -0.1)">
       <use xlink:href="#DejaVuSans-51"/>
       <use x="63.623047" xlink:href="#DejaVuSans-46"/>
       <use x="95.410156" xlink:href="#DejaVuSans-48"/>
      </g>
     </g>
    </g>
    <g id="ytick_11">
     <g id="line2d_18">
      <g>
       <use style="stroke:#000000;stroke-width:0.8;" x="249.653125" xlink:href="#m39996123e8" y="125.158182"/>
      </g>
     </g>
     <g id="text_21">
      <!-- 3.5 -->
      <g transform="translate(226.75 128.957401)scale(0.1 -0.1)">
       <use xlink:href="#DejaVuSans-51"/>
       <use x="63.623047" xlink:href="#DejaVuSans-46"/>
       <use x="95.410156" xlink:href="#DejaVuSans-53"/>
      </g>
     </g>
    </g>
    <g id="ytick_12">
     <g id="line2d_19">
      <g>
       <use style="stroke:#000000;stroke-width:0.8;" x="249.653125" xlink:href="#m39996123e8" y="102.476364"/>
      </g>
     </g>
     <g id="text_22">
      <!-- 4.0 -->
      <g transform="translate(226.75 106.275582)scale(0.1 -0.1)">
       <use xlink:href="#DejaVuSans-52"/>
       <use x="63.623047" xlink:href="#DejaVuSans-46"/>
       <use x="95.410156" xlink:href="#DejaVuSans-48"/>
      </g>
     </g>
    </g>
    <g id="ytick_13">
     <g id="line2d_20">
      <g>
       <use style="stroke:#000000;stroke-width:0.8;" x="249.653125" xlink:href="#m39996123e8" y="79.794545"/>
      </g>
     </g>
     <g id="text_23">
      <!-- 4.5 -->
      <g transform="translate(226.75 83.593764)scale(0.1 -0.1)">
       <use xlink:href="#DejaVuSans-52"/>
       <use x="63.623047" xlink:href="#DejaVuSans-46"/>
       <use x="95.410156" xlink:href="#DejaVuSans-53"/>
      </g>
     </g>
    </g>
    <g id="ytick_14">
     <g id="line2d_21">
      <g>
       <use style="stroke:#000000;stroke-width:0.8;" x="249.653125" xlink:href="#m39996123e8" y="57.112727"/>
      </g>
     </g>
     <g id="text_24">
      <!-- 5.0 -->
      <g transform="translate(226.75 60.911946)scale(0.1 -0.1)">
       <use xlink:href="#DejaVuSans-53"/>
       <use x="63.623047" xlink:href="#DejaVuSans-46"/>
       <use x="95.410156" xlink:href="#DejaVuSans-48"/>
      </g>
     </g>
    </g>
    <g id="text_25">
     <!-- Trust6 -->
     <g transform="translate(220.670312 163.126719)rotate(-90)scale(0.1 -0.1)">
      <use xlink:href="#DejaVuSans-84"/>
      <use x="46.333984" xlink:href="#DejaVuSans-114"/>
      <use x="87.447266" xlink:href="#DejaVuSans-117"/>
      <use x="150.826172" xlink:href="#DejaVuSans-115"/>
      <use x="202.925781" xlink:href="#DejaVuSans-116"/>
      <use x="242.134766" xlink:href="#DejaVuSans-54"/>
     </g>
    </g>
   </g>
   <g id="line2d_22">
    <path clip-path="url(#p4115d73a57)" d="M 249.653125 93.334352 
L 251.346181 93.731423 
L 253.039236 94.128495 
L 254.732292 94.525566 
L 256.425347 94.922637 
L 258.118403 95.319709 
L 259.811458 95.71678 
L 261.504514 96.113851 
L 263.197569 96.510923 
L 264.890625 96.907994 
L 266.583681 97.305065 
L 268.276736 97.702137 
L 269.969792 98.099208 
L 271.662847 98.496279 
L 273.355903 98.893351 
L 275.048958 99.290422 
L 276.742014 99.687493 
L 278.435069 100.084565 
L 280.128125 100.481636 
L 281.821181 100.878708 
L 283.514236 101.275779 
L 285.207292 101.67285 
L 286.900347 102.069922 
L 288.593403 102.466993 
L 290.286458 102.864064 
L 291.979514 103.261136 
L 293.672569 103.658207 
L 295.365625 104.055278 
L 297.058681 104.45235 
L 298.751736 104.849421 
L 300.444792 105.246492 
L 302.137847 105.643564 
L 303.830903 106.040635 
L 305.523958 106.437706 
L 307.217014 106.834778 
L 308.910069 107.231849 
L 310.603125 107.62892 
L 312.296181 108.025992 
L 313.989236 108.423063 
L 315.682292 108.820134 
L 317.375347 109.217206 
L 319.068403 109.614277 
L 320.761458 110.011348 
L 322.454514 110.40842 
L 324.147569 110.805491 
L 325.840625 111.202562 
L 327.533681 111.599634 
L 329.226736 111.996705 
L 330.919792 112.393776 
L 332.612847 112.790848 
L 334.305903 113.187919 
L 335.998958 113.58499 
L 337.692014 113.982062 
L 339.385069 114.379133 
L 341.078125 114.776204 
L 342.771181 115.173276 
L 344.464236 115.570347 
L 346.157292 115.967418 
L 347.850347 116.36449 
L 349.543403 116.761561 
L 351.236458 117.158633 
L 352.929514 117.555704 
L 354.622569 117.952775 
L 356.315625 118.349847 
L 358.008681 118.746918 
L 359.701736 119.143989 
L 361.394792 119.541061 
L 363.087847 119.938132 
L 364.780903 120.335203 
L 366.473958 120.732275 
L 368.167014 121.129346 
L 369.860069 121.526417 
L 371.553125 121.923489 
L 373.246181 122.32056 
L 374.939236 122.717631 
L 376.632292 123.114703 
L 378.325347 123.511774 
L 380.018403 123.908845 
L 381.711458 124.305917 
L 383.404514 124.702988 
L 385.097569 125.100059 
L 386.790625 125.497131 
L 388.483681 125.894202 
L 390.176736 126.291273 
L 391.869792 126.688345 
L 393.562847 127.085416 
L 395.255903 127.482487 
L 396.948958 127.879559 
L 398.642014 128.27663 
L 400.335069 128.673701 
L 402.028125 129.070773 
L 403.721181 129.467844 
L 405.414236 129.864915 
L 407.107292 130.261987 
L 408.800347 130.659058 
L 410.493403 131.056129 
L 412.186458 131.453201 
L 413.879514 131.850272 
L 415.572569 132.247344 
L 417.265625 132.644415 
" style="fill:none;stroke:#1f77b4;stroke-linecap:square;stroke-width:2.25;"/>
   </g>
   <g id="patch_8">
    <path d="M 249.653125 247.64 
L 249.653125 48.04 
" style="fill:none;stroke:#000000;stroke-linecap:square;stroke-linejoin:miter;stroke-width:0.8;"/>
   </g>
   <g id="patch_9">
    <path d="M 417.265625 247.64 
L 417.265625 48.04 
" style="fill:none;stroke:#000000;stroke-linecap:square;stroke-linejoin:miter;stroke-width:0.8;"/>
   </g>
   <g id="patch_10">
    <path d="M 249.653125 247.64 
L 417.265625 247.64 
" style="fill:none;stroke:#000000;stroke-linecap:square;stroke-linejoin:miter;stroke-width:0.8;"/>
   </g>
   <g id="patch_11">
    <path d="M 249.653125 48.04 
L 417.265625 48.04 
" style="fill:none;stroke:#000000;stroke-linecap:square;stroke-linejoin:miter;stroke-width:0.8;"/>
   </g>
   <g id="text_26">
    <!-- Group B -->
    <g transform="translate(249.653125 42.04)scale(0.12 -0.12)">
     <defs>
      <path d="M 19.671875 34.8125 
L 19.671875 8.109375 
L 35.5 8.109375 
Q 43.453125 8.109375 47.28125 11.40625 
Q 51.125 14.703125 51.125 21.484375 
Q 51.125 28.328125 47.28125 31.5625 
Q 43.453125 34.8125 35.5 34.8125 
z
M 19.671875 64.796875 
L 19.671875 42.828125 
L 34.28125 42.828125 
Q 41.5 42.828125 45.03125 45.53125 
Q 48.578125 48.25 48.578125 53.8125 
Q 48.578125 59.328125 45.03125 62.0625 
Q 41.5 64.796875 34.28125 64.796875 
z
M 9.8125 72.90625 
L 35.015625 72.90625 
Q 46.296875 72.90625 52.390625 68.21875 
Q 58.5 63.53125 58.5 54.890625 
Q 58.5 48.1875 55.375 44.234375 
Q 52.25 40.28125 46.1875 39.3125 
Q 53.46875 37.75 57.5 32.78125 
Q 61.53125 27.828125 61.53125 20.40625 
Q 61.53125 10.640625 54.890625 5.3125 
Q 48.25 0 35.984375 0 
L 9.8125 0 
z
" id="DejaVuSans-66"/>
     </defs>
     <use xlink:href="#DejaVuSans-71"/>
     <use x="77.490234" xlink:href="#DejaVuSans-114"/>
     <use x="116.353516" xlink:href="#DejaVuSans-111"/>
     <use x="177.535156" xlink:href="#DejaVuSans-117"/>
     <use x="240.914062" xlink:href="#DejaVuSans-112"/>
     <use x="304.390625" xlink:href="#DejaVuSans-32"/>
     <use x="336.177734" xlink:href="#DejaVuSans-66"/>
    </g>
   </g>
  </g>
  <g id="text_27">
   <!-- I believe the bike chatbot didnt make false claims. -->
   <g transform="translate(105.64597 13.529498)scale(0.0833 -0.0833)">
    <defs>
     <path d="M 9.8125 72.90625 
L 19.671875 72.90625 
L 19.671875 0 
L 9.8125 0 
z
" id="DejaVuSans-73"/>
     <path d="M 48.6875 27.296875 
Q 48.6875 37.203125 44.609375 42.84375 
Q 40.53125 48.484375 33.40625 48.484375 
Q 26.265625 48.484375 22.1875 42.84375 
Q 18.109375 37.203125 18.109375 27.296875 
Q 18.109375 17.390625 22.1875 11.75 
Q 26.265625 6.109375 33.40625 6.109375 
Q 40.53125 6.109375 44.609375 11.75 
Q 48.6875 17.390625 48.6875 27.296875 
z
M 18.109375 46.390625 
Q 20.953125 51.265625 25.265625 53.625 
Q 29.59375 56 35.59375 56 
Q 45.5625 56 51.78125 48.09375 
Q 58.015625 40.1875 58.015625 27.296875 
Q 58.015625 14.40625 51.78125 6.484375 
Q 45.5625 -1.421875 35.59375 -1.421875 
Q 29.59375 -1.421875 25.265625 0.953125 
Q 20.953125 3.328125 18.109375 8.203125 
L 18.109375 0 
L 9.078125 0 
L 9.078125 75.984375 
L 18.109375 75.984375 
z
" id="DejaVuSans-98"/>
     <path d="M 56.203125 29.59375 
L 56.203125 25.203125 
L 14.890625 25.203125 
Q 15.484375 15.921875 20.484375 11.0625 
Q 25.484375 6.203125 34.421875 6.203125 
Q 39.59375 6.203125 44.453125 7.46875 
Q 49.3125 8.734375 54.109375 11.28125 
L 54.109375 2.78125 
Q 49.265625 0.734375 44.1875 -0.34375 
Q 39.109375 -1.421875 33.890625 -1.421875 
Q 20.796875 -1.421875 13.15625 6.1875 
Q 5.515625 13.8125 5.515625 26.8125 
Q 5.515625 40.234375 12.765625 48.109375 
Q 20.015625 56 32.328125 56 
Q 43.359375 56 49.78125 48.890625 
Q 56.203125 41.796875 56.203125 29.59375 
z
M 47.21875 32.234375 
Q 47.125 39.59375 43.09375 43.984375 
Q 39.0625 48.390625 32.421875 48.390625 
Q 24.90625 48.390625 20.390625 44.140625 
Q 15.875 39.890625 15.1875 32.171875 
z
" id="DejaVuSans-101"/>
     <path d="M 9.421875 75.984375 
L 18.40625 75.984375 
L 18.40625 0 
L 9.421875 0 
z
" id="DejaVuSans-108"/>
     <path d="M 9.421875 54.6875 
L 18.40625 54.6875 
L 18.40625 0 
L 9.421875 0 
z
M 9.421875 75.984375 
L 18.40625 75.984375 
L 18.40625 64.59375 
L 9.421875 64.59375 
z
" id="DejaVuSans-105"/>
     <path d="M 2.984375 54.6875 
L 12.5 54.6875 
L 29.59375 8.796875 
L 46.6875 54.6875 
L 56.203125 54.6875 
L 35.6875 0 
L 23.484375 0 
z
" id="DejaVuSans-118"/>
     <path d="M 54.890625 33.015625 
L 54.890625 0 
L 45.90625 0 
L 45.90625 32.71875 
Q 45.90625 40.484375 42.875 44.328125 
Q 39.84375 48.1875 33.796875 48.1875 
Q 26.515625 48.1875 22.3125 43.546875 
Q 18.109375 38.921875 18.109375 30.90625 
L 18.109375 0 
L 9.078125 0 
L 9.078125 75.984375 
L 18.109375 75.984375 
L 18.109375 46.1875 
Q 21.34375 51.125 25.703125 53.5625 
Q 30.078125 56 35.796875 56 
Q 45.21875 56 50.046875 50.171875 
Q 54.890625 44.34375 54.890625 33.015625 
z
" id="DejaVuSans-104"/>
     <path d="M 9.078125 75.984375 
L 18.109375 75.984375 
L 18.109375 31.109375 
L 44.921875 54.6875 
L 56.390625 54.6875 
L 27.390625 29.109375 
L 57.625 0 
L 45.90625 0 
L 18.109375 26.703125 
L 18.109375 0 
L 9.078125 0 
z
" id="DejaVuSans-107"/>
     <path d="M 48.78125 52.59375 
L 48.78125 44.1875 
Q 44.96875 46.296875 41.140625 47.34375 
Q 37.3125 48.390625 33.40625 48.390625 
Q 24.65625 48.390625 19.8125 42.84375 
Q 14.984375 37.3125 14.984375 27.296875 
Q 14.984375 17.28125 19.8125 11.734375 
Q 24.65625 6.203125 33.40625 6.203125 
Q 37.3125 6.203125 41.140625 7.25 
Q 44.96875 8.296875 48.78125 10.40625 
L 48.78125 2.09375 
Q 45.015625 0.34375 40.984375 -0.53125 
Q 36.96875 -1.421875 32.421875 -1.421875 
Q 20.0625 -1.421875 12.78125 6.34375 
Q 5.515625 14.109375 5.515625 27.296875 
Q 5.515625 40.671875 12.859375 48.328125 
Q 20.21875 56 33.015625 56 
Q 37.15625 56 41.109375 55.140625 
Q 45.0625 54.296875 48.78125 52.59375 
z
" id="DejaVuSans-99"/>
     <path d="M 34.28125 27.484375 
Q 23.390625 27.484375 19.1875 25 
Q 14.984375 22.515625 14.984375 16.5 
Q 14.984375 11.71875 18.140625 8.90625 
Q 21.296875 6.109375 26.703125 6.109375 
Q 34.1875 6.109375 38.703125 11.40625 
Q 43.21875 16.703125 43.21875 25.484375 
L 43.21875 27.484375 
z
M 52.203125 31.203125 
L 52.203125 0 
L 43.21875 0 
L 43.21875 8.296875 
Q 40.140625 3.328125 35.546875 0.953125 
Q 30.953125 -1.421875 24.3125 -1.421875 
Q 15.921875 -1.421875 10.953125 3.296875 
Q 6 8.015625 6 15.921875 
Q 6 25.140625 12.171875 29.828125 
Q 18.359375 34.515625 30.609375 34.515625 
L 43.21875 34.515625 
L 43.21875 35.40625 
Q 43.21875 41.609375 39.140625 45 
Q 35.0625 48.390625 27.6875 48.390625 
Q 23 48.390625 18.546875 47.265625 
Q 14.109375 46.140625 10.015625 43.890625 
L 10.015625 52.203125 
Q 14.9375 54.109375 19.578125 55.046875 
Q 24.21875 56 28.609375 56 
Q 40.484375 56 46.34375 49.84375 
Q 52.203125 43.703125 52.203125 31.203125 
z
" id="DejaVuSans-97"/>
     <path d="M 45.40625 46.390625 
L 45.40625 75.984375 
L 54.390625 75.984375 
L 54.390625 0 
L 45.40625 0 
L 45.40625 8.203125 
Q 42.578125 3.328125 38.25 0.953125 
Q 33.9375 -1.421875 27.875 -1.421875 
Q 17.96875 -1.421875 11.734375 6.484375 
Q 5.515625 14.40625 5.515625 27.296875 
Q 5.515625 40.1875 11.734375 48.09375 
Q 17.96875 56 27.875 56 
Q 33.9375 56 38.25 53.625 
Q 42.578125 51.265625 45.40625 46.390625 
z
M 14.796875 27.296875 
Q 14.796875 17.390625 18.875 11.75 
Q 22.953125 6.109375 30.078125 6.109375 
Q 37.203125 6.109375 41.296875 11.75 
Q 45.40625 17.390625 45.40625 27.296875 
Q 45.40625 37.203125 41.296875 42.84375 
Q 37.203125 48.484375 30.078125 48.484375 
Q 22.953125 48.484375 18.875 42.84375 
Q 14.796875 37.203125 14.796875 27.296875 
z
" id="DejaVuSans-100"/>
     <path d="M 54.890625 33.015625 
L 54.890625 0 
L 45.90625 0 
L 45.90625 32.71875 
Q 45.90625 40.484375 42.875 44.328125 
Q 39.84375 48.1875 33.796875 48.1875 
Q 26.515625 48.1875 22.3125 43.546875 
Q 18.109375 38.921875 18.109375 30.90625 
L 18.109375 0 
L 9.078125 0 
L 9.078125 54.6875 
L 18.109375 54.6875 
L 18.109375 46.1875 
Q 21.34375 51.125 25.703125 53.5625 
Q 30.078125 56 35.796875 56 
Q 45.21875 56 50.046875 50.171875 
Q 54.890625 44.34375 54.890625 33.015625 
z
" id="DejaVuSans-110"/>
     <path d="M 12.703125 72.90625 
L 23 72.90625 
L 23 65.484375 
L 14.984375 49.90625 
L 8.6875 49.90625 
L 12.703125 65.484375 
z
" id="DejaVuSans-8217"/>
     <path d="M 52 44.1875 
Q 55.375 50.25 60.0625 53.125 
Q 64.75 56 71.09375 56 
Q 79.640625 56 84.28125 50.015625 
Q 88.921875 44.046875 88.921875 33.015625 
L 88.921875 0 
L 79.890625 0 
L 79.890625 32.71875 
Q 79.890625 40.578125 77.09375 44.375 
Q 74.3125 48.1875 68.609375 48.1875 
Q 61.625 48.1875 57.5625 43.546875 
Q 53.515625 38.921875 53.515625 30.90625 
L 53.515625 0 
L 44.484375 0 
L 44.484375 32.71875 
Q 44.484375 40.625 41.703125 44.40625 
Q 38.921875 48.1875 33.109375 48.1875 
Q 26.21875 48.1875 22.15625 43.53125 
Q 18.109375 38.875 18.109375 30.90625 
L 18.109375 0 
L 9.078125 0 
L 9.078125 54.6875 
L 18.109375 54.6875 
L 18.109375 46.1875 
Q 21.1875 51.21875 25.484375 53.609375 
Q 29.78125 56 35.6875 56 
Q 41.65625 56 45.828125 52.96875 
Q 50 49.953125 52 44.1875 
z
" id="DejaVuSans-109"/>
     <path d="M 37.109375 75.984375 
L 37.109375 68.5 
L 28.515625 68.5 
Q 23.6875 68.5 21.796875 66.546875 
Q 19.921875 64.59375 19.921875 59.515625 
L 19.921875 54.6875 
L 34.71875 54.6875 
L 34.71875 47.703125 
L 19.921875 47.703125 
L 19.921875 0 
L 10.890625 0 
L 10.890625 47.703125 
L 2.296875 47.703125 
L 2.296875 54.6875 
L 10.890625 54.6875 
L 10.890625 58.5 
Q 10.890625 67.625 15.140625 71.796875 
Q 19.390625 75.984375 28.609375 75.984375 
z
" id="DejaVuSans-102"/>
    </defs>
    <use xlink:href="#DejaVuSans-73"/>
    <use x="29.492188" xlink:href="#DejaVuSans-32"/>
    <use x="61.279297" xlink:href="#DejaVuSans-98"/>
    <use x="124.755859" xlink:href="#DejaVuSans-101"/>
    <use x="186.279297" xlink:href="#DejaVuSans-108"/>
    <use x="214.0625" xlink:href="#DejaVuSans-105"/>
    <use x="241.845703" xlink:href="#DejaVuSans-101"/>
    <use x="303.369141" xlink:href="#DejaVuSans-118"/>
    <use x="362.548828" xlink:href="#DejaVuSans-101"/>
    <use x="424.072266" xlink:href="#DejaVuSans-32"/>
    <use x="455.859375" xlink:href="#DejaVuSans-116"/>
    <use x="495.068359" xlink:href="#DejaVuSans-104"/>
    <use x="558.447266" xlink:href="#DejaVuSans-101"/>
    <use x="619.970703" xlink:href="#DejaVuSans-32"/>
    <use x="651.757812" xlink:href="#DejaVuSans-98"/>
    <use x="715.234375" xlink:href="#DejaVuSans-105"/>
    <use x="743.017578" xlink:href="#DejaVuSans-107"/>
    <use x="797.302734" xlink:href="#DejaVuSans-101"/>
    <use x="858.826172" xlink:href="#DejaVuSans-32"/>
    <use x="890.613281" xlink:href="#DejaVuSans-99"/>
    <use x="945.59375" xlink:href="#DejaVuSans-104"/>
    <use x="1008.972656" xlink:href="#DejaVuSans-97"/>
    <use x="1070.251953" xlink:href="#DejaVuSans-116"/>
    <use x="1109.460938" xlink:href="#DejaVuSans-98"/>
    <use x="1172.9375" xlink:href="#DejaVuSans-111"/>
    <use x="1234.119141" xlink:href="#DejaVuSans-116"/>
    <use x="1273.328125" xlink:href="#DejaVuSans-32"/>
    <use x="1305.115234" xlink:href="#DejaVuSans-100"/>
    <use x="1368.591797" xlink:href="#DejaVuSans-105"/>
    <use x="1396.375" xlink:href="#DejaVuSans-100"/>
    <use x="1459.851562" xlink:href="#DejaVuSans-110"/>
    <use x="1523.230469" xlink:href="#DejaVuSans-8217"/>
    <use x="1555.017578" xlink:href="#DejaVuSans-116"/>
    <use x="1594.226562" xlink:href="#DejaVuSans-32"/>
    <use x="1626.013672" xlink:href="#DejaVuSans-109"/>
    <use x="1723.425781" xlink:href="#DejaVuSans-97"/>
    <use x="1784.705078" xlink:href="#DejaVuSans-107"/>
    <use x="1838.990234" xlink:href="#DejaVuSans-101"/>
    <use x="1900.513672" xlink:href="#DejaVuSans-32"/>
    <use x="1932.300781" xlink:href="#DejaVuSans-102"/>
    <use x="1967.505859" xlink:href="#DejaVuSans-97"/>
    <use x="2028.785156" xlink:href="#DejaVuSans-108"/>
    <use x="2056.568359" xlink:href="#DejaVuSans-115"/>
    <use x="2108.667969" xlink:href="#DejaVuSans-101"/>
    <use x="2170.191406" xlink:href="#DejaVuSans-32"/>
    <use x="2201.978516" xlink:href="#DejaVuSans-99"/>
    <use x="2256.958984" xlink:href="#DejaVuSans-108"/>
    <use x="2284.742188" xlink:href="#DejaVuSans-97"/>
    <use x="2346.021484" xlink:href="#DejaVuSans-105"/>
    <use x="2373.804688" xlink:href="#DejaVuSans-109"/>
    <use x="2471.216797" xlink:href="#DejaVuSans-115"/>
    <use x="2523.316406" xlink:href="#DejaVuSans-46"/>
   </g>
  </g>
 </g>
 <defs>
  <clipPath id="pf46e7fe45f">
   <rect height="199.6" width="167.6125" x="34.240625" y="48.04"/>
  </clipPath>
  <clipPath id="p4115d73a57">
   <rect height="199.6" width="167.6125" x="249.653125" y="48.04"/>
  </clipPath>
 </defs>
</svg>
