<?xml version="1.0" encoding="utf-8" standalone="no"?>
<!DOCTYPE svg PUBLIC "-//W3C//DTD SVG 1.1//EN"
  "http://www.w3.org/Graphics/SVG/1.1/DTD/svg11.dtd">
<!-- Created with matplotlib (https://matplotlib.org/) -->
<svg height="285.19625pt" version="1.1" viewBox="0 0 424.38125 285.19625" width="424.38125pt" xmlns="http://www.w3.org/2000/svg" xmlns:xlink="http://www.w3.org/1999/xlink">
 <metadata>
  <rdf:RDF xmlns:cc="http://creativecommons.org/ns#" xmlns:dc="http://purl.org/dc/elements/1.1/" xmlns:rdf="http://www.w3.org/1999/02/22-rdf-syntax-ns#">
   <cc:Work>
    <dc:type rdf:resource="http://purl.org/dc/dcmitype/StillImage"/>
    <dc:date>2021-02-21T18:27:39.303163</dc:date>
    <dc:format>image/svg+xml</dc:format>
    <dc:creator>
     <cc:Agent>
      <dc:title>Matplotlib v3.3.2, https://matplotlib.org/</dc:title>
     </cc:Agent>
    </dc:creator>
   </cc:Work>
  </rdf:RDF>
 </metadata>
 <defs>
  <style type="text/css">*{stroke-linecap:butt;stroke-linejoin:round;}</style>
 </defs>
 <g id="figure_1">
  <g id="patch_1">
   <path d="M 0 285.19625 
L 424.38125 285.19625 
L 424.38125 0 
L 0 0 
z
" style="fill:none;"/>
  </g>
  <g id="axes_1">
   <g id="patch_2">
    <path d="M 43.78125 247.64 
L 206.58125 247.64 
L 206.58125 48.04 
L 43.78125 48.04 
z
" style="fill:#ffffff;"/>
   </g>
   <g id="PathCollection_1">
    <defs>
     <path d="M 0 3 
C 0.795609 3 1.55874 2.683901 2.12132 2.12132 
C 2.683901 1.55874 3 0.795609 3 0 
C 3 -0.795609 2.683901 -1.55874 2.12132 -2.12132 
C 1.55874 -2.683901 0.795609 -3 0 -3 
C -0.795609 -3 -1.55874 -2.683901 -2.12132 -2.12132 
C -2.683901 -1.55874 -3 -0.795609 -3 0 
C -3 0.795609 -2.683901 1.55874 -2.12132 2.12132 
C -1.55874 2.683901 -0.795609 3 0 3 
z
" id="m9837e253d4" style="stroke:#1f77b4;stroke-opacity:0.8;"/>
    </defs>
    <g clip-path="url(#p7c247bf0a0)">
     <use style="fill:#1f77b4;fill-opacity:0.8;stroke:#1f77b4;stroke-opacity:0.8;" x="143.965865" xlink:href="#m9837e253d4" y="147.84"/>
     <use style="fill:#1f77b4;fill-opacity:0.8;stroke:#1f77b4;stroke-opacity:0.8;" x="68.827404" xlink:href="#m9837e253d4" y="57.112727"/>
     <use style="fill:#1f77b4;fill-opacity:0.8;stroke:#1f77b4;stroke-opacity:0.8;" x="81.350481" xlink:href="#m9837e253d4" y="102.476364"/>
     <use style="fill:#1f77b4;fill-opacity:0.8;stroke:#1f77b4;stroke-opacity:0.8;" x="143.965865" xlink:href="#m9837e253d4" y="102.476364"/>
     <use style="fill:#1f77b4;fill-opacity:0.8;stroke:#1f77b4;stroke-opacity:0.8;" x="169.012019" xlink:href="#m9837e253d4" y="102.476364"/>
     <use style="fill:#1f77b4;fill-opacity:0.8;stroke:#1f77b4;stroke-opacity:0.8;" x="131.442788" xlink:href="#m9837e253d4" y="102.476364"/>
     <use style="fill:#1f77b4;fill-opacity:0.8;stroke:#1f77b4;stroke-opacity:0.8;" x="181.535096" xlink:href="#m9837e253d4" y="102.476364"/>
     <use style="fill:#1f77b4;fill-opacity:0.8;stroke:#1f77b4;stroke-opacity:0.8;" x="131.442788" xlink:href="#m9837e253d4" y="238.567273"/>
     <use style="fill:#1f77b4;fill-opacity:0.8;stroke:#1f77b4;stroke-opacity:0.8;" x="81.350481" xlink:href="#m9837e253d4" y="102.476364"/>
     <use style="fill:#1f77b4;fill-opacity:0.8;stroke:#1f77b4;stroke-opacity:0.8;" x="118.919712" xlink:href="#m9837e253d4" y="57.112727"/>
     <use style="fill:#1f77b4;fill-opacity:0.8;stroke:#1f77b4;stroke-opacity:0.8;" x="118.919712" xlink:href="#m9837e253d4" y="57.112727"/>
     <use style="fill:#1f77b4;fill-opacity:0.8;stroke:#1f77b4;stroke-opacity:0.8;" x="169.012019" xlink:href="#m9837e253d4" y="57.112727"/>
     <use style="fill:#1f77b4;fill-opacity:0.8;stroke:#1f77b4;stroke-opacity:0.8;" x="93.873558" xlink:href="#m9837e253d4" y="57.112727"/>
     <use style="fill:#1f77b4;fill-opacity:0.8;stroke:#1f77b4;stroke-opacity:0.8;" x="131.442788" xlink:href="#m9837e253d4" y="102.476364"/>
     <use style="fill:#1f77b4;fill-opacity:0.8;stroke:#1f77b4;stroke-opacity:0.8;" x="131.442788" xlink:href="#m9837e253d4" y="102.476364"/>
     <use style="fill:#1f77b4;fill-opacity:0.8;stroke:#1f77b4;stroke-opacity:0.8;" x="156.488942" xlink:href="#m9837e253d4" y="102.476364"/>
     <use style="fill:#1f77b4;fill-opacity:0.8;stroke:#1f77b4;stroke-opacity:0.8;" x="118.919712" xlink:href="#m9837e253d4" y="147.84"/>
     <use style="fill:#1f77b4;fill-opacity:0.8;stroke:#1f77b4;stroke-opacity:0.8;" x="106.396635" xlink:href="#m9837e253d4" y="57.112727"/>
     <use style="fill:#1f77b4;fill-opacity:0.8;stroke:#1f77b4;stroke-opacity:0.8;" x="156.488942" xlink:href="#m9837e253d4" y="57.112727"/>
     <use style="fill:#1f77b4;fill-opacity:0.8;stroke:#1f77b4;stroke-opacity:0.8;" x="43.78125" xlink:href="#m9837e253d4" y="147.84"/>
     <use style="fill:#1f77b4;fill-opacity:0.8;stroke:#1f77b4;stroke-opacity:0.8;" x="93.873558" xlink:href="#m9837e253d4" y="57.112727"/>
     <use style="fill:#1f77b4;fill-opacity:0.8;stroke:#1f77b4;stroke-opacity:0.8;" x="206.58125" xlink:href="#m9837e253d4" y="57.112727"/>
     <use style="fill:#1f77b4;fill-opacity:0.8;stroke:#1f77b4;stroke-opacity:0.8;" x="118.919712" xlink:href="#m9837e253d4" y="57.112727"/>
     <use style="fill:#1f77b4;fill-opacity:0.8;stroke:#1f77b4;stroke-opacity:0.8;" x="118.919712" xlink:href="#m9837e253d4" y="57.112727"/>
     <use style="fill:#1f77b4;fill-opacity:0.8;stroke:#1f77b4;stroke-opacity:0.8;" x="118.919712" xlink:href="#m9837e253d4" y="57.112727"/>
     <use style="fill:#1f77b4;fill-opacity:0.8;stroke:#1f77b4;stroke-opacity:0.8;" x="118.919712" xlink:href="#m9837e253d4" y="57.112727"/>
     <use style="fill:#1f77b4;fill-opacity:0.8;stroke:#1f77b4;stroke-opacity:0.8;" x="106.396635" xlink:href="#m9837e253d4" y="102.476364"/>
     <use style="fill:#1f77b4;fill-opacity:0.8;stroke:#1f77b4;stroke-opacity:0.8;" x="93.873558" xlink:href="#m9837e253d4" y="57.112727"/>
     <use style="fill:#1f77b4;fill-opacity:0.8;stroke:#1f77b4;stroke-opacity:0.8;" x="106.396635" xlink:href="#m9837e253d4" y="57.112727"/>
     <use style="fill:#1f77b4;fill-opacity:0.8;stroke:#1f77b4;stroke-opacity:0.8;" x="118.919712" xlink:href="#m9837e253d4" y="102.476364"/>
     <use style="fill:#1f77b4;fill-opacity:0.8;stroke:#1f77b4;stroke-opacity:0.8;" x="118.919712" xlink:href="#m9837e253d4" y="102.476364"/>
     <use style="fill:#1f77b4;fill-opacity:0.8;stroke:#1f77b4;stroke-opacity:0.8;" x="93.873558" xlink:href="#m9837e253d4" y="102.476364"/>
     <use style="fill:#1f77b4;fill-opacity:0.8;stroke:#1f77b4;stroke-opacity:0.8;" x="131.442788" xlink:href="#m9837e253d4" y="102.476364"/>
     <use style="fill:#1f77b4;fill-opacity:0.8;stroke:#1f77b4;stroke-opacity:0.8;" x="131.442788" xlink:href="#m9837e253d4" y="102.476364"/>
     <use style="fill:#1f77b4;fill-opacity:0.8;stroke:#1f77b4;stroke-opacity:0.8;" x="106.396635" xlink:href="#m9837e253d4" y="102.476364"/>
     <use style="fill:#1f77b4;fill-opacity:0.8;stroke:#1f77b4;stroke-opacity:0.8;" x="106.396635" xlink:href="#m9837e253d4" y="102.476364"/>
     <use style="fill:#1f77b4;fill-opacity:0.8;stroke:#1f77b4;stroke-opacity:0.8;" x="93.873558" xlink:href="#m9837e253d4" y="102.476364"/>
     <use style="fill:#1f77b4;fill-opacity:0.8;stroke:#1f77b4;stroke-opacity:0.8;" x="118.919712" xlink:href="#m9837e253d4" y="57.112727"/>
     <use style="fill:#1f77b4;fill-opacity:0.8;stroke:#1f77b4;stroke-opacity:0.8;" x="106.396635" xlink:href="#m9837e253d4" y="102.476364"/>
     <use style="fill:#1f77b4;fill-opacity:0.8;stroke:#1f77b4;stroke-opacity:0.8;" x="93.873558" xlink:href="#m9837e253d4" y="147.84"/>
     <use style="fill:#1f77b4;fill-opacity:0.8;stroke:#1f77b4;stroke-opacity:0.8;" x="56.304327" xlink:href="#m9837e253d4" y="57.112727"/>
    </g>
   </g>
   <g id="PolyCollection_1">
    <path clip-path="url(#p7c247bf0a0)" d="M 43.78125 61.427904 
L 43.78125 119.467212 
L 45.425694 118.962876 
L 47.070139 118.458539 
L 48.714583 117.954202 
L 50.359028 117.449866 
L 52.003472 116.928481 
L 53.647917 116.446439 
L 55.292361 116.261041 
L 56.936806 115.945265 
L 58.58125 115.392104 
L 60.225694 115.070782 
L 61.870139 114.610125 
L 63.514583 114.317077 
L 65.159028 114.014584 
L 66.803472 113.492138 
L 68.447917 112.969692 
L 70.092361 112.473833 
L 71.736806 111.924801 
L 73.38125 111.402355 
L 75.025694 110.87991 
L 76.670139 110.398893 
L 78.314583 109.930767 
L 79.959028 109.466728 
L 81.603472 108.996476 
L 83.247917 108.415891 
L 84.892361 107.882224 
L 86.536806 107.223868 
L 88.18125 106.888699 
L 89.825694 106.393826 
L 91.470139 106.194797 
L 93.114583 105.767176 
L 94.759028 105.265228 
L 96.403472 104.905377 
L 98.047917 104.550728 
L 99.692361 104.444959 
L 101.336806 104.339191 
L 102.98125 104.230381 
L 104.625694 104.120032 
L 106.270139 104.043159 
L 107.914583 103.91259 
L 109.559028 103.695147 
L 111.203472 103.319989 
L 112.847917 103.29837 
L 114.492361 103.174056 
L 116.136806 103.007194 
L 117.78125 103.27948 
L 119.425694 103.17556 
L 121.070139 103.267461 
L 122.714583 103.512188 
L 124.359028 103.84094 
L 126.003472 104.106299 
L 127.647917 104.285373 
L 129.292361 104.192279 
L 130.936806 104.711597 
L 132.58125 105.237085 
L 134.225694 105.174781 
L 135.870139 105.453482 
L 137.514583 105.838222 
L 139.159028 106.236407 
L 140.803472 106.636091 
L 142.447917 107.061989 
L 144.092361 107.693217 
L 145.736806 108.282643 
L 147.38125 108.651731 
L 149.025694 109.217592 
L 150.670139 109.806956 
L 152.314583 110.396319 
L 153.959028 110.992194 
L 155.603472 111.591021 
L 157.247917 112.189848 
L 158.892361 112.782477 
L 160.536806 113.358242 
L 162.18125 113.945148 
L 163.825694 114.540863 
L 165.470139 115.128979 
L 167.114583 115.719317 
L 168.759028 116.315531 
L 170.403472 116.911744 
L 172.047917 117.507958 
L 173.692361 118.099003 
L 175.336806 118.688222 
L 176.98125 119.277441 
L 178.625694 119.866659 
L 180.270139 120.455878 
L 181.914583 121.045097 
L 183.559028 121.624618 
L 185.203472 122.1235 
L 186.847917 122.622381 
L 188.492361 123.247205 
L 190.136806 123.930805 
L 191.78125 124.593112 
L 193.425694 125.263162 
L 195.070139 125.96263 
L 196.714583 126.621246 
L 198.359028 127.133396 
L 200.003472 127.64527 
L 201.647917 128.22417 
L 203.292361 128.887724 
L 204.936806 129.551278 
L 206.58125 130.214833 
L 206.58125 62.347061 
L 206.58125 62.347061 
L 204.936806 62.87575 
L 203.292361 63.404439 
L 201.647917 63.89655 
L 200.003472 64.377563 
L 198.359028 64.858577 
L 196.714583 65.33959 
L 195.070139 65.820604 
L 193.425694 66.301617 
L 191.78125 66.78263 
L 190.136806 67.263644 
L 188.492361 67.744657 
L 186.847917 68.185282 
L 185.203472 68.558473 
L 183.559028 68.931664 
L 181.914583 69.303628 
L 180.270139 69.669243 
L 178.625694 70.03531 
L 176.98125 70.629951 
L 175.336806 70.959746 
L 173.692361 71.494665 
L 172.047917 71.784973 
L 170.403472 72.080314 
L 168.759028 72.60901 
L 167.114583 73.149736 
L 165.470139 73.398657 
L 163.825694 73.603782 
L 162.18125 73.952799 
L 160.536806 74.113512 
L 158.892361 74.459629 
L 157.247917 74.879309 
L 155.603472 75.299172 
L 153.959028 75.721721 
L 152.314583 76.14427 
L 150.670139 76.610216 
L 149.025694 77.058995 
L 147.38125 77.512333 
L 145.736806 77.812515 
L 144.092361 77.800858 
L 142.447917 78.011609 
L 140.803472 78.436385 
L 139.159028 78.637041 
L 137.514583 78.721088 
L 135.870139 79.011922 
L 134.225694 79.299971 
L 132.58125 79.59564 
L 130.936806 79.865687 
L 129.292361 80.034468 
L 127.647917 80.409859 
L 126.003472 80.457303 
L 124.359028 80.489851 
L 122.714583 80.456254 
L 121.070139 80.427526 
L 119.425694 80.530961 
L 117.78125 80.568341 
L 116.136806 80.501247 
L 114.492361 80.508758 
L 112.847917 80.336837 
L 111.203472 80.260734 
L 109.559028 80.235452 
L 107.914583 80.118997 
L 106.270139 79.904443 
L 104.625694 79.755538 
L 102.98125 79.63421 
L 101.336806 79.399262 
L 99.692361 79.058368 
L 98.047917 78.833973 
L 96.403472 78.502808 
L 94.759028 78.225205 
L 93.114583 77.946911 
L 91.470139 77.695089 
L 89.825694 77.220159 
L 88.18125 76.729068 
L 86.536806 76.472139 
L 84.892361 76.079637 
L 83.247917 75.732743 
L 81.603472 75.363695 
L 79.959028 74.920512 
L 78.314583 74.193542 
L 76.670139 73.705315 
L 75.025694 72.729171 
L 73.38125 72.30897 
L 71.736806 71.686631 
L 70.092361 71.442427 
L 68.447917 70.777765 
L 66.803472 69.968468 
L 65.159028 69.367496 
L 63.514583 68.66355 
L 61.870139 68.030768 
L 60.225694 67.436394 
L 58.58125 66.765877 
L 56.936806 66.103406 
L 55.292361 65.58939 
L 53.647917 65.262169 
L 52.003472 64.770232 
L 50.359028 64.102317 
L 48.714583 63.439334 
L 47.070139 62.77635 
L 45.425694 62.104087 
L 43.78125 61.427904 
z
" style="fill:#1f77b4;fill-opacity:0.15;"/>
   </g>
   <g id="matplotlib.axis_1">
    <g id="xtick_1">
     <g id="line2d_1">
      <defs>
       <path d="M 0 0 
L 0 3.5 
" id="ma2cbb63f9d" style="stroke:#000000;stroke-width:0.8;"/>
      </defs>
      <g>
       <use style="stroke:#000000;stroke-width:0.8;" x="68.827404" xlink:href="#ma2cbb63f9d" y="247.64"/>
      </g>
     </g>
     <g id="text_1">
      <!-- 2 -->
      <g transform="translate(65.646154 262.238437)scale(0.1 -0.1)">
       <defs>
        <path d="M 19.1875 8.296875 
L 53.609375 8.296875 
L 53.609375 0 
L 7.328125 0 
L 7.328125 8.296875 
Q 12.9375 14.109375 22.625 23.890625 
Q 32.328125 33.6875 34.8125 36.53125 
Q 39.546875 41.84375 41.421875 45.53125 
Q 43.3125 49.21875 43.3125 52.78125 
Q 43.3125 58.59375 39.234375 62.25 
Q 35.15625 65.921875 28.609375 65.921875 
Q 23.96875 65.921875 18.8125 64.3125 
Q 13.671875 62.703125 7.8125 59.421875 
L 7.8125 69.390625 
Q 13.765625 71.78125 18.9375 73 
Q 24.125 74.21875 28.421875 74.21875 
Q 39.75 74.21875 46.484375 68.546875 
Q 53.21875 62.890625 53.21875 53.421875 
Q 53.21875 48.921875 51.53125 44.890625 
Q 49.859375 40.875 45.40625 35.40625 
Q 44.1875 33.984375 37.640625 27.21875 
Q 31.109375 20.453125 19.1875 8.296875 
z
" id="DejaVuSans-50"/>
       </defs>
       <use xlink:href="#DejaVuSans-50"/>
      </g>
     </g>
    </g>
    <g id="xtick_2">
     <g id="line2d_2">
      <g>
       <use style="stroke:#000000;stroke-width:0.8;" x="118.919712" xlink:href="#ma2cbb63f9d" y="247.64"/>
      </g>
     </g>
     <g id="text_2">
      <!-- 3 -->
      <g transform="translate(115.738462 262.238437)scale(0.1 -0.1)">
       <defs>
        <path d="M 40.578125 39.3125 
Q 47.65625 37.796875 51.625 33 
Q 55.609375 28.21875 55.609375 21.1875 
Q 55.609375 10.40625 48.1875 4.484375 
Q 40.765625 -1.421875 27.09375 -1.421875 
Q 22.515625 -1.421875 17.65625 -0.515625 
Q 12.796875 0.390625 7.625 2.203125 
L 7.625 11.71875 
Q 11.71875 9.328125 16.59375 8.109375 
Q 21.484375 6.890625 26.8125 6.890625 
Q 36.078125 6.890625 40.9375 10.546875 
Q 45.796875 14.203125 45.796875 21.1875 
Q 45.796875 27.640625 41.28125 31.265625 
Q 36.765625 34.90625 28.71875 34.90625 
L 20.21875 34.90625 
L 20.21875 43.015625 
L 29.109375 43.015625 
Q 36.375 43.015625 40.234375 45.921875 
Q 44.09375 48.828125 44.09375 54.296875 
Q 44.09375 59.90625 40.109375 62.90625 
Q 36.140625 65.921875 28.71875 65.921875 
Q 24.65625 65.921875 20.015625 65.03125 
Q 15.375 64.15625 9.8125 62.3125 
L 9.8125 71.09375 
Q 15.4375 72.65625 20.34375 73.4375 
Q 25.25 74.21875 29.59375 74.21875 
Q 40.828125 74.21875 47.359375 69.109375 
Q 53.90625 64.015625 53.90625 55.328125 
Q 53.90625 49.265625 50.4375 45.09375 
Q 46.96875 40.921875 40.578125 39.3125 
z
" id="DejaVuSans-51"/>
       </defs>
       <use xlink:href="#DejaVuSans-51"/>
      </g>
     </g>
    </g>
    <g id="xtick_3">
     <g id="line2d_3">
      <g>
       <use style="stroke:#000000;stroke-width:0.8;" x="169.012019" xlink:href="#ma2cbb63f9d" y="247.64"/>
      </g>
     </g>
     <g id="text_3">
      <!-- 4 -->
      <g transform="translate(165.830769 262.238437)scale(0.1 -0.1)">
       <defs>
        <path d="M 37.796875 64.3125 
L 12.890625 25.390625 
L 37.796875 25.390625 
z
M 35.203125 72.90625 
L 47.609375 72.90625 
L 47.609375 25.390625 
L 58.015625 25.390625 
L 58.015625 17.1875 
L 47.609375 17.1875 
L 47.609375 0 
L 37.796875 0 
L 37.796875 17.1875 
L 4.890625 17.1875 
L 4.890625 26.703125 
z
" id="DejaVuSans-52"/>
       </defs>
       <use xlink:href="#DejaVuSans-52"/>
      </g>
     </g>
    </g>
    <g id="text_4">
     <!-- E -->
     <g transform="translate(122.021875 275.916562)scale(0.1 -0.1)">
      <defs>
       <path d="M 9.8125 72.90625 
L 55.90625 72.90625 
L 55.90625 64.59375 
L 19.671875 64.59375 
L 19.671875 43.015625 
L 54.390625 43.015625 
L 54.390625 34.71875 
L 19.671875 34.71875 
L 19.671875 8.296875 
L 56.78125 8.296875 
L 56.78125 0 
L 9.8125 0 
z
" id="DejaVuSans-69"/>
      </defs>
      <use xlink:href="#DejaVuSans-69"/>
     </g>
    </g>
   </g>
   <g id="matplotlib.axis_2">
    <g id="ytick_1">
     <g id="line2d_4">
      <defs>
       <path d="M 0 0 
L -3.5 0 
" id="m0ef5628d6c" style="stroke:#000000;stroke-width:0.8;"/>
      </defs>
      <g>
       <use style="stroke:#000000;stroke-width:0.8;" x="43.78125" xlink:href="#m0ef5628d6c" y="238.567273"/>
      </g>
     </g>
     <g id="text_5">
      <!-- 1.0 -->
      <g transform="translate(20.878125 242.366491)scale(0.1 -0.1)">
       <defs>
        <path d="M 12.40625 8.296875 
L 28.515625 8.296875 
L 28.515625 63.921875 
L 10.984375 60.40625 
L 10.984375 69.390625 
L 28.421875 72.90625 
L 38.28125 72.90625 
L 38.28125 8.296875 
L 54.390625 8.296875 
L 54.390625 0 
L 12.40625 0 
z
" id="DejaVuSans-49"/>
        <path d="M 10.6875 12.40625 
L 21 12.40625 
L 21 0 
L 10.6875 0 
z
" id="DejaVuSans-46"/>
        <path d="M 31.78125 66.40625 
Q 24.171875 66.40625 20.328125 58.90625 
Q 16.5 51.421875 16.5 36.375 
Q 16.5 21.390625 20.328125 13.890625 
Q 24.171875 6.390625 31.78125 6.390625 
Q 39.453125 6.390625 43.28125 13.890625 
Q 47.125 21.390625 47.125 36.375 
Q 47.125 51.421875 43.28125 58.90625 
Q 39.453125 66.40625 31.78125 66.40625 
z
M 31.78125 74.21875 
Q 44.046875 74.21875 50.515625 64.515625 
Q 56.984375 54.828125 56.984375 36.375 
Q 56.984375 17.96875 50.515625 8.265625 
Q 44.046875 -1.421875 31.78125 -1.421875 
Q 19.53125 -1.421875 13.0625 8.265625 
Q 6.59375 17.96875 6.59375 36.375 
Q 6.59375 54.828125 13.0625 64.515625 
Q 19.53125 74.21875 31.78125 74.21875 
z
" id="DejaVuSans-48"/>
       </defs>
       <use xlink:href="#DejaVuSans-49"/>
       <use x="63.623047" xlink:href="#DejaVuSans-46"/>
       <use x="95.410156" xlink:href="#DejaVuSans-48"/>
      </g>
     </g>
    </g>
    <g id="ytick_2">
     <g id="line2d_5">
      <g>
       <use style="stroke:#000000;stroke-width:0.8;" x="43.78125" xlink:href="#m0ef5628d6c" y="215.885455"/>
      </g>
     </g>
     <g id="text_6">
      <!-- 1.5 -->
      <g transform="translate(20.878125 219.684673)scale(0.1 -0.1)">
       <defs>
        <path d="M 10.796875 72.90625 
L 49.515625 72.90625 
L 49.515625 64.59375 
L 19.828125 64.59375 
L 19.828125 46.734375 
Q 21.96875 47.46875 24.109375 47.828125 
Q 26.265625 48.1875 28.421875 48.1875 
Q 40.625 48.1875 47.75 41.5 
Q 54.890625 34.8125 54.890625 23.390625 
Q 54.890625 11.625 47.5625 5.09375 
Q 40.234375 -1.421875 26.90625 -1.421875 
Q 22.3125 -1.421875 17.546875 -0.640625 
Q 12.796875 0.140625 7.71875 1.703125 
L 7.71875 11.625 
Q 12.109375 9.234375 16.796875 8.0625 
Q 21.484375 6.890625 26.703125 6.890625 
Q 35.15625 6.890625 40.078125 11.328125 
Q 45.015625 15.765625 45.015625 23.390625 
Q 45.015625 31 40.078125 35.4375 
Q 35.15625 39.890625 26.703125 39.890625 
Q 22.75 39.890625 18.8125 39.015625 
Q 14.890625 38.140625 10.796875 36.28125 
z
" id="DejaVuSans-53"/>
       </defs>
       <use xlink:href="#DejaVuSans-49"/>
       <use x="63.623047" xlink:href="#DejaVuSans-46"/>
       <use x="95.410156" xlink:href="#DejaVuSans-53"/>
      </g>
     </g>
    </g>
    <g id="ytick_3">
     <g id="line2d_6">
      <g>
       <use style="stroke:#000000;stroke-width:0.8;" x="43.78125" xlink:href="#m0ef5628d6c" y="193.203636"/>
      </g>
     </g>
     <g id="text_7">
      <!-- 2.0 -->
      <g transform="translate(20.878125 197.002855)scale(0.1 -0.1)">
       <use xlink:href="#DejaVuSans-50"/>
       <use x="63.623047" xlink:href="#DejaVuSans-46"/>
       <use x="95.410156" xlink:href="#DejaVuSans-48"/>
      </g>
     </g>
    </g>
    <g id="ytick_4">
     <g id="line2d_7">
      <g>
       <use style="stroke:#000000;stroke-width:0.8;" x="43.78125" xlink:href="#m0ef5628d6c" y="170.521818"/>
      </g>
     </g>
     <g id="text_8">
      <!-- 2.5 -->
      <g transform="translate(20.878125 174.321037)scale(0.1 -0.1)">
       <use xlink:href="#DejaVuSans-50"/>
       <use x="63.623047" xlink:href="#DejaVuSans-46"/>
       <use x="95.410156" xlink:href="#DejaVuSans-53"/>
      </g>
     </g>
    </g>
    <g id="ytick_5">
     <g id="line2d_8">
      <g>
       <use style="stroke:#000000;stroke-width:0.8;" x="43.78125" xlink:href="#m0ef5628d6c" y="147.84"/>
      </g>
     </g>
     <g id="text_9">
      <!-- 3.0 -->
      <g transform="translate(20.878125 151.639219)scale(0.1 -0.1)">
       <use xlink:href="#DejaVuSans-51"/>
       <use x="63.623047" xlink:href="#DejaVuSans-46"/>
       <use x="95.410156" xlink:href="#DejaVuSans-48"/>
      </g>
     </g>
    </g>
    <g id="ytick_6">
     <g id="line2d_9">
      <g>
       <use style="stroke:#000000;stroke-width:0.8;" x="43.78125" xlink:href="#m0ef5628d6c" y="125.158182"/>
      </g>
     </g>
     <g id="text_10">
      <!-- 3.5 -->
      <g transform="translate(20.878125 128.957401)scale(0.1 -0.1)">
       <use xlink:href="#DejaVuSans-51"/>
       <use x="63.623047" xlink:href="#DejaVuSans-46"/>
       <use x="95.410156" xlink:href="#DejaVuSans-53"/>
      </g>
     </g>
    </g>
    <g id="ytick_7">
     <g id="line2d_10">
      <g>
       <use style="stroke:#000000;stroke-width:0.8;" x="43.78125" xlink:href="#m0ef5628d6c" y="102.476364"/>
      </g>
     </g>
     <g id="text_11">
      <!-- 4.0 -->
      <g transform="translate(20.878125 106.275582)scale(0.1 -0.1)">
       <use xlink:href="#DejaVuSans-52"/>
       <use x="63.623047" xlink:href="#DejaVuSans-46"/>
       <use x="95.410156" xlink:href="#DejaVuSans-48"/>
      </g>
     </g>
    </g>
    <g id="ytick_8">
     <g id="line2d_11">
      <g>
       <use style="stroke:#000000;stroke-width:0.8;" x="43.78125" xlink:href="#m0ef5628d6c" y="79.794545"/>
      </g>
     </g>
     <g id="text_12">
      <!-- 4.5 -->
      <g transform="translate(20.878125 83.593764)scale(0.1 -0.1)">
       <use xlink:href="#DejaVuSans-52"/>
       <use x="63.623047" xlink:href="#DejaVuSans-46"/>
       <use x="95.410156" xlink:href="#DejaVuSans-53"/>
      </g>
     </g>
    </g>
    <g id="ytick_9">
     <g id="line2d_12">
      <g>
       <use style="stroke:#000000;stroke-width:0.8;" x="43.78125" xlink:href="#m0ef5628d6c" y="57.112727"/>
      </g>
     </g>
     <g id="text_13">
      <!-- 5.0 -->
      <g transform="translate(20.878125 60.911946)scale(0.1 -0.1)">
       <use xlink:href="#DejaVuSans-53"/>
       <use x="63.623047" xlink:href="#DejaVuSans-46"/>
       <use x="95.410156" xlink:href="#DejaVuSans-48"/>
      </g>
     </g>
    </g>
    <g id="text_14">
     <!-- Expectation3 -->
     <g transform="translate(14.798438 180.741562)rotate(-90)scale(0.1 -0.1)">
      <defs>
       <path d="M 54.890625 54.6875 
L 35.109375 28.078125 
L 55.90625 0 
L 45.3125 0 
L 29.390625 21.484375 
L 13.484375 0 
L 2.875 0 
L 24.125 28.609375 
L 4.6875 54.6875 
L 15.28125 54.6875 
L 29.78125 35.203125 
L 44.28125 54.6875 
z
" id="DejaVuSans-120"/>
       <path d="M 18.109375 8.203125 
L 18.109375 -20.796875 
L 9.078125 -20.796875 
L 9.078125 54.6875 
L 18.109375 54.6875 
L 18.109375 46.390625 
Q 20.953125 51.265625 25.265625 53.625 
Q 29.59375 56 35.59375 56 
Q 45.5625 56 51.78125 48.09375 
Q 58.015625 40.1875 58.015625 27.296875 
Q 58.015625 14.40625 51.78125 6.484375 
Q 45.5625 -1.421875 35.59375 -1.421875 
Q 29.59375 -1.421875 25.265625 0.953125 
Q 20.953125 3.328125 18.109375 8.203125 
z
M 48.6875 27.296875 
Q 48.6875 37.203125 44.609375 42.84375 
Q 40.53125 48.484375 33.40625 48.484375 
Q 26.265625 48.484375 22.1875 42.84375 
Q 18.109375 37.203125 18.109375 27.296875 
Q 18.109375 17.390625 22.1875 11.75 
Q 26.265625 6.109375 33.40625 6.109375 
Q 40.53125 6.109375 44.609375 11.75 
Q 48.6875 17.390625 48.6875 27.296875 
z
" id="DejaVuSans-112"/>
       <path d="M 56.203125 29.59375 
L 56.203125 25.203125 
L 14.890625 25.203125 
Q 15.484375 15.921875 20.484375 11.0625 
Q 25.484375 6.203125 34.421875 6.203125 
Q 39.59375 6.203125 44.453125 7.46875 
Q 49.3125 8.734375 54.109375 11.28125 
L 54.109375 2.78125 
Q 49.265625 0.734375 44.1875 -0.34375 
Q 39.109375 -1.421875 33.890625 -1.421875 
Q 20.796875 -1.421875 13.15625 6.1875 
Q 5.515625 13.8125 5.515625 26.8125 
Q 5.515625 40.234375 12.765625 48.109375 
Q 20.015625 56 32.328125 56 
Q 43.359375 56 49.78125 48.890625 
Q 56.203125 41.796875 56.203125 29.59375 
z
M 47.21875 32.234375 
Q 47.125 39.59375 43.09375 43.984375 
Q 39.0625 48.390625 32.421875 48.390625 
Q 24.90625 48.390625 20.390625 44.140625 
Q 15.875 39.890625 15.1875 32.171875 
z
" id="DejaVuSans-101"/>
       <path d="M 48.78125 52.59375 
L 48.78125 44.1875 
Q 44.96875 46.296875 41.140625 47.34375 
Q 37.3125 48.390625 33.40625 48.390625 
Q 24.65625 48.390625 19.8125 42.84375 
Q 14.984375 37.3125 14.984375 27.296875 
Q 14.984375 17.28125 19.8125 11.734375 
Q 24.65625 6.203125 33.40625 6.203125 
Q 37.3125 6.203125 41.140625 7.25 
Q 44.96875 8.296875 48.78125 10.40625 
L 48.78125 2.09375 
Q 45.015625 0.34375 40.984375 -0.53125 
Q 36.96875 -1.421875 32.421875 -1.421875 
Q 20.0625 -1.421875 12.78125 6.34375 
Q 5.515625 14.109375 5.515625 27.296875 
Q 5.515625 40.671875 12.859375 48.328125 
Q 20.21875 56 33.015625 56 
Q 37.15625 56 41.109375 55.140625 
Q 45.0625 54.296875 48.78125 52.59375 
z
" id="DejaVuSans-99"/>
       <path d="M 18.3125 70.21875 
L 18.3125 54.6875 
L 36.8125 54.6875 
L 36.8125 47.703125 
L 18.3125 47.703125 
L 18.3125 18.015625 
Q 18.3125 11.328125 20.140625 9.421875 
Q 21.96875 7.515625 27.59375 7.515625 
L 36.8125 7.515625 
L 36.8125 0 
L 27.59375 0 
Q 17.1875 0 13.234375 3.875 
Q 9.28125 7.765625 9.28125 18.015625 
L 9.28125 47.703125 
L 2.6875 47.703125 
L 2.6875 54.6875 
L 9.28125 54.6875 
L 9.28125 70.21875 
z
" id="DejaVuSans-116"/>
       <path d="M 34.28125 27.484375 
Q 23.390625 27.484375 19.1875 25 
Q 14.984375 22.515625 14.984375 16.5 
Q 14.984375 11.71875 18.140625 8.90625 
Q 21.296875 6.109375 26.703125 6.109375 
Q 34.1875 6.109375 38.703125 11.40625 
Q 43.21875 16.703125 43.21875 25.484375 
L 43.21875 27.484375 
z
M 52.203125 31.203125 
L 52.203125 0 
L 43.21875 0 
L 43.21875 8.296875 
Q 40.140625 3.328125 35.546875 0.953125 
Q 30.953125 -1.421875 24.3125 -1.421875 
Q 15.921875 -1.421875 10.953125 3.296875 
Q 6 8.015625 6 15.921875 
Q 6 25.140625 12.171875 29.828125 
Q 18.359375 34.515625 30.609375 34.515625 
L 43.21875 34.515625 
L 43.21875 35.40625 
Q 43.21875 41.609375 39.140625 45 
Q 35.0625 48.390625 27.6875 48.390625 
Q 23 48.390625 18.546875 47.265625 
Q 14.109375 46.140625 10.015625 43.890625 
L 10.015625 52.203125 
Q 14.9375 54.109375 19.578125 55.046875 
Q 24.21875 56 28.609375 56 
Q 40.484375 56 46.34375 49.84375 
Q 52.203125 43.703125 52.203125 31.203125 
z
" id="DejaVuSans-97"/>
       <path d="M 9.421875 54.6875 
L 18.40625 54.6875 
L 18.40625 0 
L 9.421875 0 
z
M 9.421875 75.984375 
L 18.40625 75.984375 
L 18.40625 64.59375 
L 9.421875 64.59375 
z
" id="DejaVuSans-105"/>
       <path d="M 30.609375 48.390625 
Q 23.390625 48.390625 19.1875 42.75 
Q 14.984375 37.109375 14.984375 27.296875 
Q 14.984375 17.484375 19.15625 11.84375 
Q 23.34375 6.203125 30.609375 6.203125 
Q 37.796875 6.203125 41.984375 11.859375 
Q 46.1875 17.53125 46.1875 27.296875 
Q 46.1875 37.015625 41.984375 42.703125 
Q 37.796875 48.390625 30.609375 48.390625 
z
M 30.609375 56 
Q 42.328125 56 49.015625 48.375 
Q 55.71875 40.765625 55.71875 27.296875 
Q 55.71875 13.875 49.015625 6.21875 
Q 42.328125 -1.421875 30.609375 -1.421875 
Q 18.84375 -1.421875 12.171875 6.21875 
Q 5.515625 13.875 5.515625 27.296875 
Q 5.515625 40.765625 12.171875 48.375 
Q 18.84375 56 30.609375 56 
z
" id="DejaVuSans-111"/>
       <path d="M 54.890625 33.015625 
L 54.890625 0 
L 45.90625 0 
L 45.90625 32.71875 
Q 45.90625 40.484375 42.875 44.328125 
Q 39.84375 48.1875 33.796875 48.1875 
Q 26.515625 48.1875 22.3125 43.546875 
Q 18.109375 38.921875 18.109375 30.90625 
L 18.109375 0 
L 9.078125 0 
L 9.078125 54.6875 
L 18.109375 54.6875 
L 18.109375 46.1875 
Q 21.34375 51.125 25.703125 53.5625 
Q 30.078125 56 35.796875 56 
Q 45.21875 56 50.046875 50.171875 
Q 54.890625 44.34375 54.890625 33.015625 
z
" id="DejaVuSans-110"/>
      </defs>
      <use xlink:href="#DejaVuSans-69"/>
      <use x="63.183594" xlink:href="#DejaVuSans-120"/>
      <use x="122.363281" xlink:href="#DejaVuSans-112"/>
      <use x="185.839844" xlink:href="#DejaVuSans-101"/>
      <use x="247.363281" xlink:href="#DejaVuSans-99"/>
      <use x="302.34375" xlink:href="#DejaVuSans-116"/>
      <use x="341.552734" xlink:href="#DejaVuSans-97"/>
      <use x="402.832031" xlink:href="#DejaVuSans-116"/>
      <use x="442.041016" xlink:href="#DejaVuSans-105"/>
      <use x="469.824219" xlink:href="#DejaVuSans-111"/>
      <use x="531.005859" xlink:href="#DejaVuSans-110"/>
      <use x="594.384766" xlink:href="#DejaVuSans-51"/>
     </g>
    </g>
   </g>
   <g id="line2d_13">
    <path clip-path="url(#p7c247bf0a0)" d="M 43.78125 92.160705 
L 45.425694 92.144118 
L 47.070139 92.127531 
L 48.714583 92.110945 
L 50.359028 92.094358 
L 52.003472 92.077771 
L 53.647917 92.061184 
L 55.292361 92.044598 
L 56.936806 92.028011 
L 58.58125 92.011424 
L 60.225694 91.994838 
L 61.870139 91.978251 
L 63.514583 91.961664 
L 65.159028 91.945077 
L 66.803472 91.928491 
L 68.447917 91.911904 
L 70.092361 91.895317 
L 71.736806 91.878731 
L 73.38125 91.862144 
L 75.025694 91.845557 
L 76.670139 91.82897 
L 78.314583 91.812384 
L 79.959028 91.795797 
L 81.603472 91.77921 
L 83.247917 91.762624 
L 84.892361 91.746037 
L 86.536806 91.72945 
L 88.18125 91.712864 
L 89.825694 91.696277 
L 91.470139 91.67969 
L 93.114583 91.663103 
L 94.759028 91.646517 
L 96.403472 91.62993 
L 98.047917 91.613343 
L 99.692361 91.596757 
L 101.336806 91.58017 
L 102.98125 91.563583 
L 104.625694 91.546996 
L 106.270139 91.53041 
L 107.914583 91.513823 
L 109.559028 91.497236 
L 111.203472 91.48065 
L 112.847917 91.464063 
L 114.492361 91.447476 
L 116.136806 91.430889 
L 117.78125 91.414303 
L 119.425694 91.397716 
L 121.070139 91.381129 
L 122.714583 91.364543 
L 124.359028 91.347956 
L 126.003472 91.331369 
L 127.647917 91.314782 
L 129.292361 91.298196 
L 130.936806 91.281609 
L 132.58125 91.265022 
L 134.225694 91.248436 
L 135.870139 91.231849 
L 137.514583 91.215262 
L 139.159028 91.198675 
L 140.803472 91.182089 
L 142.447917 91.165502 
L 144.092361 91.148915 
L 145.736806 91.132329 
L 147.38125 91.115742 
L 149.025694 91.099155 
L 150.670139 91.082568 
L 152.314583 91.065982 
L 153.959028 91.049395 
L 155.603472 91.032808 
L 157.247917 91.016222 
L 158.892361 90.999635 
L 160.536806 90.983048 
L 162.18125 90.966461 
L 163.825694 90.949875 
L 165.470139 90.933288 
L 167.114583 90.916701 
L 168.759028 90.900115 
L 170.403472 90.883528 
L 172.047917 90.866941 
L 173.692361 90.850354 
L 175.336806 90.833768 
L 176.98125 90.817181 
L 178.625694 90.800594 
L 180.270139 90.784008 
L 181.914583 90.767421 
L 183.559028 90.750834 
L 185.203472 90.734248 
L 186.847917 90.717661 
L 188.492361 90.701074 
L 190.136806 90.684487 
L 191.78125 90.667901 
L 193.425694 90.651314 
L 195.070139 90.634727 
L 196.714583 90.618141 
L 198.359028 90.601554 
L 200.003472 90.584967 
L 201.647917 90.56838 
L 203.292361 90.551794 
L 204.936806 90.535207 
L 206.58125 90.51862 
" style="fill:none;stroke:#1f77b4;stroke-linecap:square;stroke-width:2.25;"/>
   </g>
   <g id="patch_3">
    <path d="M 43.78125 247.64 
L 43.78125 48.04 
" style="fill:none;stroke:#000000;stroke-linecap:square;stroke-linejoin:miter;stroke-width:0.8;"/>
   </g>
   <g id="patch_4">
    <path d="M 206.58125 247.64 
L 206.58125 48.04 
" style="fill:none;stroke:#000000;stroke-linecap:square;stroke-linejoin:miter;stroke-width:0.8;"/>
   </g>
   <g id="patch_5">
    <path d="M 43.78125 247.64 
L 206.58125 247.64 
" style="fill:none;stroke:#000000;stroke-linecap:square;stroke-linejoin:miter;stroke-width:0.8;"/>
   </g>
   <g id="patch_6">
    <path d="M 43.78125 48.04 
L 206.58125 48.04 
" style="fill:none;stroke:#000000;stroke-linecap:square;stroke-linejoin:miter;stroke-width:0.8;"/>
   </g>
   <g id="text_15">
    <!-- Group A -->
    <g transform="translate(43.78125 42.04)scale(0.12 -0.12)">
     <defs>
      <path d="M 59.515625 10.40625 
L 59.515625 29.984375 
L 43.40625 29.984375 
L 43.40625 38.09375 
L 69.28125 38.09375 
L 69.28125 6.78125 
Q 63.578125 2.734375 56.6875 0.65625 
Q 49.8125 -1.421875 42 -1.421875 
Q 24.90625 -1.421875 15.25 8.5625 
Q 5.609375 18.5625 5.609375 36.375 
Q 5.609375 54.25 15.25 64.234375 
Q 24.90625 74.21875 42 74.21875 
Q 49.125 74.21875 55.546875 72.453125 
Q 61.96875 70.703125 67.390625 67.28125 
L 67.390625 56.78125 
Q 61.921875 61.421875 55.765625 63.765625 
Q 49.609375 66.109375 42.828125 66.109375 
Q 29.4375 66.109375 22.71875 58.640625 
Q 16.015625 51.171875 16.015625 36.375 
Q 16.015625 21.625 22.71875 14.15625 
Q 29.4375 6.6875 42.828125 6.6875 
Q 48.046875 6.6875 52.140625 7.59375 
Q 56.25 8.5 59.515625 10.40625 
z
" id="DejaVuSans-71"/>
      <path d="M 41.109375 46.296875 
Q 39.59375 47.171875 37.8125 47.578125 
Q 36.03125 48 33.890625 48 
Q 26.265625 48 22.1875 43.046875 
Q 18.109375 38.09375 18.109375 28.8125 
L 18.109375 0 
L 9.078125 0 
L 9.078125 54.6875 
L 18.109375 54.6875 
L 18.109375 46.1875 
Q 20.953125 51.171875 25.484375 53.578125 
Q 30.03125 56 36.53125 56 
Q 37.453125 56 38.578125 55.875 
Q 39.703125 55.765625 41.0625 55.515625 
z
" id="DejaVuSans-114"/>
      <path d="M 8.5 21.578125 
L 8.5 54.6875 
L 17.484375 54.6875 
L 17.484375 21.921875 
Q 17.484375 14.15625 20.5 10.265625 
Q 23.53125 6.390625 29.59375 6.390625 
Q 36.859375 6.390625 41.078125 11.03125 
Q 45.3125 15.671875 45.3125 23.6875 
L 45.3125 54.6875 
L 54.296875 54.6875 
L 54.296875 0 
L 45.3125 0 
L 45.3125 8.40625 
Q 42.046875 3.421875 37.71875 1 
Q 33.40625 -1.421875 27.6875 -1.421875 
Q 18.265625 -1.421875 13.375 4.4375 
Q 8.5 10.296875 8.5 21.578125 
z
M 31.109375 56 
z
" id="DejaVuSans-117"/>
      <path id="DejaVuSans-32"/>
      <path d="M 34.1875 63.1875 
L 20.796875 26.90625 
L 47.609375 26.90625 
z
M 28.609375 72.90625 
L 39.796875 72.90625 
L 67.578125 0 
L 57.328125 0 
L 50.6875 18.703125 
L 17.828125 18.703125 
L 11.1875 0 
L 0.78125 0 
z
" id="DejaVuSans-65"/>
     </defs>
     <use xlink:href="#DejaVuSans-71"/>
     <use x="77.490234" xlink:href="#DejaVuSans-114"/>
     <use x="116.353516" xlink:href="#DejaVuSans-111"/>
     <use x="177.535156" xlink:href="#DejaVuSans-117"/>
     <use x="240.914062" xlink:href="#DejaVuSans-112"/>
     <use x="304.390625" xlink:href="#DejaVuSans-32"/>
     <use x="336.177734" xlink:href="#DejaVuSans-65"/>
    </g>
   </g>
  </g>
  <g id="axes_2">
   <g id="patch_7">
    <path d="M 254.38125 247.64 
L 417.18125 247.64 
L 417.18125 48.04 
L 254.38125 48.04 
z
" style="fill:#ffffff;"/>
   </g>
   <g id="PathCollection_2">
    <g clip-path="url(#p05ac85372f)">
     <use style="fill:#1f77b4;fill-opacity:0.8;stroke:#1f77b4;stroke-opacity:0.8;" x="254.38125" xlink:href="#m9837e253d4" y="60.897915"/>
     <use style="fill:#1f77b4;fill-opacity:0.8;stroke:#1f77b4;stroke-opacity:0.8;" x="266.904327" xlink:href="#m9837e253d4" y="179.344153"/>
     <use style="fill:#1f77b4;fill-opacity:0.8;stroke:#1f77b4;stroke-opacity:0.8;" x="379.612019" xlink:href="#m9837e253d4" y="120.121034"/>
     <use style="fill:#1f77b4;fill-opacity:0.8;stroke:#1f77b4;stroke-opacity:0.8;" x="342.042788" xlink:href="#m9837e253d4" y="60.897915"/>
     <use style="fill:#1f77b4;fill-opacity:0.8;stroke:#1f77b4;stroke-opacity:0.8;" x="316.996635" xlink:href="#m9837e253d4" y="120.121034"/>
     <use style="fill:#1f77b4;fill-opacity:0.8;stroke:#1f77b4;stroke-opacity:0.8;" x="379.612019" xlink:href="#m9837e253d4" y="60.897915"/>
     <use style="fill:#1f77b4;fill-opacity:0.8;stroke:#1f77b4;stroke-opacity:0.8;" x="316.996635" xlink:href="#m9837e253d4" y="60.897915"/>
     <use style="fill:#1f77b4;fill-opacity:0.8;stroke:#1f77b4;stroke-opacity:0.8;" x="342.042788" xlink:href="#m9837e253d4" y="179.344153"/>
     <use style="fill:#1f77b4;fill-opacity:0.8;stroke:#1f77b4;stroke-opacity:0.8;" x="342.042788" xlink:href="#m9837e253d4" y="60.897915"/>
     <use style="fill:#1f77b4;fill-opacity:0.8;stroke:#1f77b4;stroke-opacity:0.8;" x="367.088942" xlink:href="#m9837e253d4" y="60.897915"/>
     <use style="fill:#1f77b4;fill-opacity:0.8;stroke:#1f77b4;stroke-opacity:0.8;" x="342.042788" xlink:href="#m9837e253d4" y="60.897915"/>
     <use style="fill:#1f77b4;fill-opacity:0.8;stroke:#1f77b4;stroke-opacity:0.8;" x="379.612019" xlink:href="#m9837e253d4" y="120.121034"/>
     <use style="fill:#1f77b4;fill-opacity:0.8;stroke:#1f77b4;stroke-opacity:0.8;" x="342.042788" xlink:href="#m9837e253d4" y="120.121034"/>
     <use style="fill:#1f77b4;fill-opacity:0.8;stroke:#1f77b4;stroke-opacity:0.8;" x="392.135096" xlink:href="#m9837e253d4" y="120.121034"/>
     <use style="fill:#1f77b4;fill-opacity:0.8;stroke:#1f77b4;stroke-opacity:0.8;" x="354.565865" xlink:href="#m9837e253d4" y="120.121034"/>
     <use style="fill:#1f77b4;fill-opacity:0.8;stroke:#1f77b4;stroke-opacity:0.8;" x="392.135096" xlink:href="#m9837e253d4" y="120.121034"/>
     <use style="fill:#1f77b4;fill-opacity:0.8;stroke:#1f77b4;stroke-opacity:0.8;" x="354.565865" xlink:href="#m9837e253d4" y="120.121034"/>
     <use style="fill:#1f77b4;fill-opacity:0.8;stroke:#1f77b4;stroke-opacity:0.8;" x="316.996635" xlink:href="#m9837e253d4" y="120.121034"/>
     <use style="fill:#1f77b4;fill-opacity:0.8;stroke:#1f77b4;stroke-opacity:0.8;" x="367.088942" xlink:href="#m9837e253d4" y="60.897915"/>
     <use style="fill:#1f77b4;fill-opacity:0.8;stroke:#1f77b4;stroke-opacity:0.8;" x="279.427404" xlink:href="#m9837e253d4" y="238.567273"/>
     <use style="fill:#1f77b4;fill-opacity:0.8;stroke:#1f77b4;stroke-opacity:0.8;" x="417.18125" xlink:href="#m9837e253d4" y="120.121034"/>
     <use style="fill:#1f77b4;fill-opacity:0.8;stroke:#1f77b4;stroke-opacity:0.8;" x="316.996635" xlink:href="#m9837e253d4" y="120.121034"/>
     <use style="fill:#1f77b4;fill-opacity:0.8;stroke:#1f77b4;stroke-opacity:0.8;" x="367.088942" xlink:href="#m9837e253d4" y="60.897915"/>
     <use style="fill:#1f77b4;fill-opacity:0.8;stroke:#1f77b4;stroke-opacity:0.8;" x="379.612019" xlink:href="#m9837e253d4" y="120.121034"/>
     <use style="fill:#1f77b4;fill-opacity:0.8;stroke:#1f77b4;stroke-opacity:0.8;" x="379.612019" xlink:href="#m9837e253d4" y="120.121034"/>
     <use style="fill:#1f77b4;fill-opacity:0.8;stroke:#1f77b4;stroke-opacity:0.8;" x="316.996635" xlink:href="#m9837e253d4" y="60.897915"/>
     <use style="fill:#1f77b4;fill-opacity:0.8;stroke:#1f77b4;stroke-opacity:0.8;" x="316.996635" xlink:href="#m9837e253d4" y="60.897915"/>
     <use style="fill:#1f77b4;fill-opacity:0.8;stroke:#1f77b4;stroke-opacity:0.8;" x="316.996635" xlink:href="#m9837e253d4" y="120.121034"/>
     <use style="fill:#1f77b4;fill-opacity:0.8;stroke:#1f77b4;stroke-opacity:0.8;" x="379.612019" xlink:href="#m9837e253d4" y="120.121034"/>
     <use style="fill:#1f77b4;fill-opacity:0.8;stroke:#1f77b4;stroke-opacity:0.8;" x="379.612019" xlink:href="#m9837e253d4" y="60.897915"/>
     <use style="fill:#1f77b4;fill-opacity:0.8;stroke:#1f77b4;stroke-opacity:0.8;" x="254.38125" xlink:href="#m9837e253d4" y="60.897915"/>
     <use style="fill:#1f77b4;fill-opacity:0.8;stroke:#1f77b4;stroke-opacity:0.8;" x="329.519712" xlink:href="#m9837e253d4" y="60.897915"/>
     <use style="fill:#1f77b4;fill-opacity:0.8;stroke:#1f77b4;stroke-opacity:0.8;" x="354.565865" xlink:href="#m9837e253d4" y="60.897915"/>
     <use style="fill:#1f77b4;fill-opacity:0.8;stroke:#1f77b4;stroke-opacity:0.8;" x="316.996635" xlink:href="#m9837e253d4" y="120.121034"/>
     <use style="fill:#1f77b4;fill-opacity:0.8;stroke:#1f77b4;stroke-opacity:0.8;" x="342.042788" xlink:href="#m9837e253d4" y="60.897915"/>
     <use style="fill:#1f77b4;fill-opacity:0.8;stroke:#1f77b4;stroke-opacity:0.8;" x="329.519712" xlink:href="#m9837e253d4" y="120.121034"/>
     <use style="fill:#1f77b4;fill-opacity:0.8;stroke:#1f77b4;stroke-opacity:0.8;" x="316.996635" xlink:href="#m9837e253d4" y="60.897915"/>
     <use style="fill:#1f77b4;fill-opacity:0.8;stroke:#1f77b4;stroke-opacity:0.8;" x="367.088942" xlink:href="#m9837e253d4" y="60.897915"/>
     <use style="fill:#1f77b4;fill-opacity:0.8;stroke:#1f77b4;stroke-opacity:0.8;" x="316.996635" xlink:href="#m9837e253d4" y="179.344153"/>
     <use style="fill:#1f77b4;fill-opacity:0.8;stroke:#1f77b4;stroke-opacity:0.8;" x="316.996635" xlink:href="#m9837e253d4" y="60.897915"/>
     <use style="fill:#1f77b4;fill-opacity:0.8;stroke:#1f77b4;stroke-opacity:0.8;" x="316.996635" xlink:href="#m9837e253d4" y="60.897915"/>
     <use style="fill:#1f77b4;fill-opacity:0.8;stroke:#1f77b4;stroke-opacity:0.8;" x="379.612019" xlink:href="#m9837e253d4" y="120.121034"/>
    </g>
   </g>
   <g id="PolyCollection_2">
    <path clip-path="url(#p05ac85372f)" d="M 254.38125 63.614196 
L 254.38125 156.071839 
L 256.025694 155.17192 
L 257.670139 154.272 
L 259.314583 153.372081 
L 260.959028 152.472162 
L 262.603472 151.572243 
L 264.247917 150.667714 
L 265.892361 149.550662 
L 267.536806 148.387638 
L 269.18125 147.336628 
L 270.825694 146.473698 
L 272.470139 145.821331 
L 274.114583 145.168965 
L 275.759028 144.369435 
L 277.403472 143.472589 
L 279.047917 142.569559 
L 280.692361 141.666528 
L 282.336806 140.705522 
L 283.98125 139.692447 
L 285.625694 138.965159 
L 287.270139 138.071004 
L 288.914583 137.173534 
L 290.559028 136.273615 
L 292.203472 135.371539 
L 293.847917 134.469165 
L 295.492361 133.566791 
L 297.136806 132.664417 
L 298.78125 131.75685 
L 300.425694 130.857391 
L 302.070139 129.963432 
L 303.714583 129.063941 
L 305.359028 128.170359 
L 307.003472 127.282038 
L 308.647917 126.734206 
L 310.292361 125.94004 
L 311.936806 125.121984 
L 313.58125 124.063327 
L 315.225694 123.145083 
L 316.870139 122.238015 
L 318.514583 121.313978 
L 320.159028 120.416722 
L 321.803472 119.787869 
L 323.447917 119.178793 
L 325.092361 118.321313 
L 326.736806 117.728733 
L 328.38125 117.233708 
L 330.025694 116.420547 
L 331.670139 115.853663 
L 333.314583 114.894172 
L 334.959028 114.250547 
L 336.603472 113.616897 
L 338.247917 113.16729 
L 339.892361 112.575982 
L 341.536806 112.287573 
L 343.18125 111.903936 
L 344.825694 111.482686 
L 346.470139 111.227428 
L 348.114583 110.943122 
L 349.759028 110.523617 
L 351.403472 110.341307 
L 353.047917 109.849413 
L 354.692361 109.535683 
L 356.336806 109.22187 
L 357.98125 108.850818 
L 359.625694 108.735203 
L 361.270139 108.579249 
L 362.914583 108.484977 
L 364.559028 108.355129 
L 366.203472 107.80175 
L 367.847917 107.839277 
L 369.492361 107.705162 
L 371.136806 107.655038 
L 372.78125 107.625422 
L 374.425694 107.634391 
L 376.070139 107.672556 
L 377.714583 107.877677 
L 379.359028 107.91633 
L 381.003472 108.25867 
L 382.647917 108.345867 
L 384.292361 108.661144 
L 385.936806 108.810934 
L 387.58125 109.098617 
L 389.225694 109.304311 
L 390.870139 109.578973 
L 392.514583 110.044242 
L 394.159028 110.58151 
L 395.803472 110.839767 
L 397.447917 111.354368 
L 399.092361 111.87384 
L 400.736806 112.168264 
L 402.38125 112.612078 
L 404.025694 113.099114 
L 405.670139 113.405184 
L 407.314583 113.684239 
L 408.959028 114.136748 
L 410.603472 114.617399 
L 412.247917 115.034545 
L 413.892361 115.531747 
L 415.536806 116.077411 
L 417.18125 116.460471 
L 417.18125 57.112727 
L 417.18125 57.112727 
L 415.536806 57.842245 
L 413.892361 58.763317 
L 412.247917 59.70386 
L 410.603472 60.614753 
L 408.959028 61.536762 
L 407.314583 62.458772 
L 405.670139 63.354593 
L 404.025694 64.091105 
L 402.38125 64.873228 
L 400.736806 65.815288 
L 399.092361 66.75881 
L 397.447917 67.702332 
L 395.803472 68.645854 
L 394.159028 69.594878 
L 392.514583 70.545765 
L 390.870139 71.416751 
L 389.225694 72.215527 
L 387.58125 73.008376 
L 385.936806 73.811395 
L 384.292361 74.928611 
L 382.647917 75.893474 
L 381.003472 76.739108 
L 379.359028 77.603571 
L 377.714583 78.433662 
L 376.070139 79.270156 
L 374.425694 80.113614 
L 372.78125 80.82746 
L 371.136806 81.422347 
L 369.492361 82.638889 
L 367.847917 83.426025 
L 366.203472 83.79152 
L 364.559028 84.130765 
L 362.914583 84.798936 
L 361.270139 85.446284 
L 359.625694 85.971708 
L 357.98125 86.21833 
L 356.336806 86.426998 
L 354.692361 86.806561 
L 353.047917 87.050566 
L 351.403472 87.123115 
L 349.759028 87.016588 
L 348.114583 87.148167 
L 346.470139 86.93917 
L 344.825694 86.829801 
L 343.18125 86.534064 
L 341.536806 86.254748 
L 339.892361 86.174954 
L 338.247917 85.89653 
L 336.603472 85.520916 
L 334.959028 85.127543 
L 333.314583 84.885662 
L 331.670139 84.629639 
L 330.025694 84.295708 
L 328.38125 84.014983 
L 326.736806 83.802643 
L 325.092361 83.489287 
L 323.447917 83.226588 
L 321.803472 82.96399 
L 320.159028 82.702016 
L 318.514583 82.264906 
L 316.870139 81.760517 
L 315.225694 81.225927 
L 313.58125 80.760992 
L 311.936806 80.388142 
L 310.292361 79.897632 
L 308.647917 79.410137 
L 307.003472 78.925166 
L 305.359028 78.483412 
L 303.714583 77.995404 
L 302.070139 77.549668 
L 300.425694 77.235783 
L 298.78125 76.726657 
L 297.136806 76.217531 
L 295.492361 75.708405 
L 293.847917 75.200332 
L 292.203472 74.75658 
L 290.559028 74.343903 
L 288.914583 73.81992 
L 287.270139 73.480222 
L 285.625694 73.136124 
L 283.98125 72.766559 
L 282.336806 72.269064 
L 280.692361 71.771568 
L 279.047917 71.274072 
L 277.403472 70.776576 
L 275.759028 70.279081 
L 274.114583 69.781585 
L 272.470139 69.284089 
L 270.825694 68.773458 
L 269.18125 68.256735 
L 267.536806 67.740012 
L 265.892361 67.223288 
L 264.247917 66.706565 
L 262.603472 66.189842 
L 260.959028 65.673119 
L 259.314583 65.157423 
L 257.670139 64.643014 
L 256.025694 64.128605 
L 254.38125 63.614196 
z
" style="fill:#1f77b4;fill-opacity:0.15;"/>
   </g>
   <g id="matplotlib.axis_3">
    <g id="xtick_4">
     <g id="line2d_14">
      <g>
       <use style="stroke:#000000;stroke-width:0.8;" x="291.950481" xlink:href="#ma2cbb63f9d" y="247.64"/>
      </g>
     </g>
     <g id="text_16">
      <!-- 2 -->
      <g transform="translate(288.769231 262.238437)scale(0.1 -0.1)">
       <use xlink:href="#DejaVuSans-50"/>
      </g>
     </g>
    </g>
    <g id="xtick_5">
     <g id="line2d_15">
      <g>
       <use style="stroke:#000000;stroke-width:0.8;" x="342.042788" xlink:href="#ma2cbb63f9d" y="247.64"/>
      </g>
     </g>
     <g id="text_17">
      <!-- 3 -->
      <g transform="translate(338.861538 262.238437)scale(0.1 -0.1)">
       <use xlink:href="#DejaVuSans-51"/>
      </g>
     </g>
    </g>
    <g id="xtick_6">
     <g id="line2d_16">
      <g>
       <use style="stroke:#000000;stroke-width:0.8;" x="392.135096" xlink:href="#ma2cbb63f9d" y="247.64"/>
      </g>
     </g>
     <g id="text_18">
      <!-- 4 -->
      <g transform="translate(388.953846 262.238437)scale(0.1 -0.1)">
       <use xlink:href="#DejaVuSans-52"/>
      </g>
     </g>
    </g>
    <g id="text_19">
     <!-- E -->
     <g transform="translate(332.621875 275.916562)scale(0.1 -0.1)">
      <use xlink:href="#DejaVuSans-69"/>
     </g>
    </g>
   </g>
   <g id="matplotlib.axis_4">
    <g id="ytick_10">
     <g id="line2d_17">
      <g>
       <use style="stroke:#000000;stroke-width:0.8;" x="254.38125" xlink:href="#m0ef5628d6c" y="238.567273"/>
      </g>
     </g>
     <g id="text_20">
      <!-- 2.0 -->
      <g transform="translate(231.478125 242.366491)scale(0.1 -0.1)">
       <use xlink:href="#DejaVuSans-50"/>
       <use x="63.623047" xlink:href="#DejaVuSans-46"/>
       <use x="95.410156" xlink:href="#DejaVuSans-48"/>
      </g>
     </g>
    </g>
    <g id="ytick_11">
     <g id="line2d_18">
      <g>
       <use style="stroke:#000000;stroke-width:0.8;" x="254.38125" xlink:href="#m0ef5628d6c" y="208.955713"/>
      </g>
     </g>
     <g id="text_21">
      <!-- 2.5 -->
      <g transform="translate(231.478125 212.754932)scale(0.1 -0.1)">
       <use xlink:href="#DejaVuSans-50"/>
       <use x="63.623047" xlink:href="#DejaVuSans-46"/>
       <use x="95.410156" xlink:href="#DejaVuSans-53"/>
      </g>
     </g>
    </g>
    <g id="ytick_12">
     <g id="line2d_19">
      <g>
       <use style="stroke:#000000;stroke-width:0.8;" x="254.38125" xlink:href="#m0ef5628d6c" y="179.344153"/>
      </g>
     </g>
     <g id="text_22">
      <!-- 3.0 -->
      <g transform="translate(231.478125 183.143372)scale(0.1 -0.1)">
       <use xlink:href="#DejaVuSans-51"/>
       <use x="63.623047" xlink:href="#DejaVuSans-46"/>
       <use x="95.410156" xlink:href="#DejaVuSans-48"/>
      </g>
     </g>
    </g>
    <g id="ytick_13">
     <g id="line2d_20">
      <g>
       <use style="stroke:#000000;stroke-width:0.8;" x="254.38125" xlink:href="#m0ef5628d6c" y="149.732594"/>
      </g>
     </g>
     <g id="text_23">
      <!-- 3.5 -->
      <g transform="translate(231.478125 153.531812)scale(0.1 -0.1)">
       <use xlink:href="#DejaVuSans-51"/>
       <use x="63.623047" xlink:href="#DejaVuSans-46"/>
       <use x="95.410156" xlink:href="#DejaVuSans-53"/>
      </g>
     </g>
    </g>
    <g id="ytick_14">
     <g id="line2d_21">
      <g>
       <use style="stroke:#000000;stroke-width:0.8;" x="254.38125" xlink:href="#m0ef5628d6c" y="120.121034"/>
      </g>
     </g>
     <g id="text_24">
      <!-- 4.0 -->
      <g transform="translate(231.478125 123.920253)scale(0.1 -0.1)">
       <use xlink:href="#DejaVuSans-52"/>
       <use x="63.623047" xlink:href="#DejaVuSans-46"/>
       <use x="95.410156" xlink:href="#DejaVuSans-48"/>
      </g>
     </g>
    </g>
    <g id="ytick_15">
     <g id="line2d_22">
      <g>
       <use style="stroke:#000000;stroke-width:0.8;" x="254.38125" xlink:href="#m0ef5628d6c" y="90.509474"/>
      </g>
     </g>
     <g id="text_25">
      <!-- 4.5 -->
      <g transform="translate(231.478125 94.308693)scale(0.1 -0.1)">
       <use xlink:href="#DejaVuSans-52"/>
       <use x="63.623047" xlink:href="#DejaVuSans-46"/>
       <use x="95.410156" xlink:href="#DejaVuSans-53"/>
      </g>
     </g>
    </g>
    <g id="ytick_16">
     <g id="line2d_23">
      <g>
       <use style="stroke:#000000;stroke-width:0.8;" x="254.38125" xlink:href="#m0ef5628d6c" y="60.897915"/>
      </g>
     </g>
     <g id="text_26">
      <!-- 5.0 -->
      <g transform="translate(231.478125 64.697133)scale(0.1 -0.1)">
       <use xlink:href="#DejaVuSans-53"/>
       <use x="63.623047" xlink:href="#DejaVuSans-46"/>
       <use x="95.410156" xlink:href="#DejaVuSans-48"/>
      </g>
     </g>
    </g>
    <g id="text_27">
     <!-- Expectation3 -->
     <g transform="translate(225.398437 180.741562)rotate(-90)scale(0.1 -0.1)">
      <use xlink:href="#DejaVuSans-69"/>
      <use x="63.183594" xlink:href="#DejaVuSans-120"/>
      <use x="122.363281" xlink:href="#DejaVuSans-112"/>
      <use x="185.839844" xlink:href="#DejaVuSans-101"/>
      <use x="247.363281" xlink:href="#DejaVuSans-99"/>
      <use x="302.34375" xlink:href="#DejaVuSans-116"/>
      <use x="341.552734" xlink:href="#DejaVuSans-97"/>
      <use x="402.832031" xlink:href="#DejaVuSans-116"/>
      <use x="442.041016" xlink:href="#DejaVuSans-105"/>
      <use x="469.824219" xlink:href="#DejaVuSans-111"/>
      <use x="531.005859" xlink:href="#DejaVuSans-110"/>
      <use x="594.384766" xlink:href="#DejaVuSans-51"/>
     </g>
    </g>
   </g>
   <g id="line2d_24">
    <path clip-path="url(#p05ac85372f)" d="M 254.38125 106.484232 
L 256.025694 106.342306 
L 257.670139 106.200379 
L 259.314583 106.058453 
L 260.959028 105.916526 
L 262.603472 105.774599 
L 264.247917 105.632673 
L 265.892361 105.490746 
L 267.536806 105.348819 
L 269.18125 105.206893 
L 270.825694 105.064966 
L 272.470139 104.92304 
L 274.114583 104.781113 
L 275.759028 104.639186 
L 277.403472 104.49726 
L 279.047917 104.355333 
L 280.692361 104.213407 
L 282.336806 104.07148 
L 283.98125 103.929553 
L 285.625694 103.787627 
L 287.270139 103.6457 
L 288.914583 103.503773 
L 290.559028 103.361847 
L 292.203472 103.21992 
L 293.847917 103.077994 
L 295.492361 102.936067 
L 297.136806 102.79414 
L 298.78125 102.652214 
L 300.425694 102.510287 
L 302.070139 102.368361 
L 303.714583 102.226434 
L 305.359028 102.084507 
L 307.003472 101.942581 
L 308.647917 101.800654 
L 310.292361 101.658727 
L 311.936806 101.516801 
L 313.58125 101.374874 
L 315.225694 101.232948 
L 316.870139 101.091021 
L 318.514583 100.949094 
L 320.159028 100.807168 
L 321.803472 100.665241 
L 323.447917 100.523315 
L 325.092361 100.381388 
L 326.736806 100.239461 
L 328.38125 100.097535 
L 330.025694 99.955608 
L 331.670139 99.813681 
L 333.314583 99.671755 
L 334.959028 99.529828 
L 336.603472 99.387902 
L 338.247917 99.245975 
L 339.892361 99.104048 
L 341.536806 98.962122 
L 343.18125 98.820195 
L 344.825694 98.678269 
L 346.470139 98.536342 
L 348.114583 98.394415 
L 349.759028 98.252489 
L 351.403472 98.110562 
L 353.047917 97.968635 
L 354.692361 97.826709 
L 356.336806 97.684782 
L 357.98125 97.542856 
L 359.625694 97.400929 
L 361.270139 97.259002 
L 362.914583 97.117076 
L 364.559028 96.975149 
L 366.203472 96.833223 
L 367.847917 96.691296 
L 369.492361 96.549369 
L 371.136806 96.407443 
L 372.78125 96.265516 
L 374.425694 96.123589 
L 376.070139 95.981663 
L 377.714583 95.839736 
L 379.359028 95.69781 
L 381.003472 95.555883 
L 382.647917 95.413956 
L 384.292361 95.27203 
L 385.936806 95.130103 
L 387.58125 94.988177 
L 389.225694 94.84625 
L 390.870139 94.704323 
L 392.514583 94.562397 
L 394.159028 94.42047 
L 395.803472 94.278543 
L 397.447917 94.136617 
L 399.092361 93.99469 
L 400.736806 93.852764 
L 402.38125 93.710837 
L 404.025694 93.56891 
L 405.670139 93.426984 
L 407.314583 93.285057 
L 408.959028 93.143131 
L 410.603472 93.001204 
L 412.247917 92.859277 
L 413.892361 92.717351 
L 415.536806 92.575424 
L 417.18125 92.433497 
" style="fill:none;stroke:#1f77b4;stroke-linecap:square;stroke-width:2.25;"/>
   </g>
   <g id="patch_8">
    <path d="M 254.38125 247.64 
L 254.38125 48.04 
" style="fill:none;stroke:#000000;stroke-linecap:square;stroke-linejoin:miter;stroke-width:0.8;"/>
   </g>
   <g id="patch_9">
    <path d="M 417.18125 247.64 
L 417.18125 48.04 
" style="fill:none;stroke:#000000;stroke-linecap:square;stroke-linejoin:miter;stroke-width:0.8;"/>
   </g>
   <g id="patch_10">
    <path d="M 254.38125 247.64 
L 417.18125 247.64 
" style="fill:none;stroke:#000000;stroke-linecap:square;stroke-linejoin:miter;stroke-width:0.8;"/>
   </g>
   <g id="patch_11">
    <path d="M 254.38125 48.04 
L 417.18125 48.04 
" style="fill:none;stroke:#000000;stroke-linecap:square;stroke-linejoin:miter;stroke-width:0.8;"/>
   </g>
   <g id="text_28">
    <!-- Group B -->
    <g transform="translate(254.38125 42.04)scale(0.12 -0.12)">
     <defs>
      <path d="M 19.671875 34.8125 
L 19.671875 8.109375 
L 35.5 8.109375 
Q 43.453125 8.109375 47.28125 11.40625 
Q 51.125 14.703125 51.125 21.484375 
Q 51.125 28.328125 47.28125 31.5625 
Q 43.453125 34.8125 35.5 34.8125 
z
M 19.671875 64.796875 
L 19.671875 42.828125 
L 34.28125 42.828125 
Q 41.5 42.828125 45.03125 45.53125 
Q 48.578125 48.25 48.578125 53.8125 
Q 48.578125 59.328125 45.03125 62.0625 
Q 41.5 64.796875 34.28125 64.796875 
z
M 9.8125 72.90625 
L 35.015625 72.90625 
Q 46.296875 72.90625 52.390625 68.21875 
Q 58.5 63.53125 58.5 54.890625 
Q 58.5 48.1875 55.375 44.234375 
Q 52.25 40.28125 46.1875 39.3125 
Q 53.46875 37.75 57.5 32.78125 
Q 61.53125 27.828125 61.53125 20.40625 
Q 61.53125 10.640625 54.890625 5.3125 
Q 48.25 0 35.984375 0 
L 9.8125 0 
z
" id="DejaVuSans-66"/>
     </defs>
     <use xlink:href="#DejaVuSans-71"/>
     <use x="77.490234" xlink:href="#DejaVuSans-114"/>
     <use x="116.353516" xlink:href="#DejaVuSans-111"/>
     <use x="177.535156" xlink:href="#DejaVuSans-117"/>
     <use x="240.914062" xlink:href="#DejaVuSans-112"/>
     <use x="304.390625" xlink:href="#DejaVuSans-32"/>
     <use x="336.177734" xlink:href="#DejaVuSans-66"/>
    </g>
   </g>
  </g>
  <g id="text_29">
   <!-- The chatbot's messages were appropriate. -->
   <g transform="translate(123.054595 13.529498)scale(0.0833 -0.0833)">
    <defs>
     <path d="M -0.296875 72.90625 
L 61.375 72.90625 
L 61.375 64.59375 
L 35.5 64.59375 
L 35.5 0 
L 25.59375 0 
L 25.59375 64.59375 
L -0.296875 64.59375 
z
" id="DejaVuSans-84"/>
     <path d="M 54.890625 33.015625 
L 54.890625 0 
L 45.90625 0 
L 45.90625 32.71875 
Q 45.90625 40.484375 42.875 44.328125 
Q 39.84375 48.1875 33.796875 48.1875 
Q 26.515625 48.1875 22.3125 43.546875 
Q 18.109375 38.921875 18.109375 30.90625 
L 18.109375 0 
L 9.078125 0 
L 9.078125 75.984375 
L 18.109375 75.984375 
L 18.109375 46.1875 
Q 21.34375 51.125 25.703125 53.5625 
Q 30.078125 56 35.796875 56 
Q 45.21875 56 50.046875 50.171875 
Q 54.890625 44.34375 54.890625 33.015625 
z
" id="DejaVuSans-104"/>
     <path d="M 48.6875 27.296875 
Q 48.6875 37.203125 44.609375 42.84375 
Q 40.53125 48.484375 33.40625 48.484375 
Q 26.265625 48.484375 22.1875 42.84375 
Q 18.109375 37.203125 18.109375 27.296875 
Q 18.109375 17.390625 22.1875 11.75 
Q 26.265625 6.109375 33.40625 6.109375 
Q 40.53125 6.109375 44.609375 11.75 
Q 48.6875 17.390625 48.6875 27.296875 
z
M 18.109375 46.390625 
Q 20.953125 51.265625 25.265625 53.625 
Q 29.59375 56 35.59375 56 
Q 45.5625 56 51.78125 48.09375 
Q 58.015625 40.1875 58.015625 27.296875 
Q 58.015625 14.40625 51.78125 6.484375 
Q 45.5625 -1.421875 35.59375 -1.421875 
Q 29.59375 -1.421875 25.265625 0.953125 
Q 20.953125 3.328125 18.109375 8.203125 
L 18.109375 0 
L 9.078125 0 
L 9.078125 75.984375 
L 18.109375 75.984375 
z
" id="DejaVuSans-98"/>
     <path d="M 17.921875 72.90625 
L 17.921875 45.796875 
L 9.625 45.796875 
L 9.625 72.90625 
z
" id="DejaVuSans-39"/>
     <path d="M 44.28125 53.078125 
L 44.28125 44.578125 
Q 40.484375 46.53125 36.375 47.5 
Q 32.28125 48.484375 27.875 48.484375 
Q 21.1875 48.484375 17.84375 46.4375 
Q 14.5 44.390625 14.5 40.28125 
Q 14.5 37.15625 16.890625 35.375 
Q 19.28125 33.59375 26.515625 31.984375 
L 29.59375 31.296875 
Q 39.15625 29.25 43.1875 25.515625 
Q 47.21875 21.78125 47.21875 15.09375 
Q 47.21875 7.46875 41.1875 3.015625 
Q 35.15625 -1.421875 24.609375 -1.421875 
Q 20.21875 -1.421875 15.453125 -0.5625 
Q 10.6875 0.296875 5.421875 2 
L 5.421875 11.28125 
Q 10.40625 8.6875 15.234375 7.390625 
Q 20.0625 6.109375 24.8125 6.109375 
Q 31.15625 6.109375 34.5625 8.28125 
Q 37.984375 10.453125 37.984375 14.40625 
Q 37.984375 18.0625 35.515625 20.015625 
Q 33.0625 21.96875 24.703125 23.78125 
L 21.578125 24.515625 
Q 13.234375 26.265625 9.515625 29.90625 
Q 5.8125 33.546875 5.8125 39.890625 
Q 5.8125 47.609375 11.28125 51.796875 
Q 16.75 56 26.8125 56 
Q 31.78125 56 36.171875 55.265625 
Q 40.578125 54.546875 44.28125 53.078125 
z
" id="DejaVuSans-115"/>
     <path d="M 52 44.1875 
Q 55.375 50.25 60.0625 53.125 
Q 64.75 56 71.09375 56 
Q 79.640625 56 84.28125 50.015625 
Q 88.921875 44.046875 88.921875 33.015625 
L 88.921875 0 
L 79.890625 0 
L 79.890625 32.71875 
Q 79.890625 40.578125 77.09375 44.375 
Q 74.3125 48.1875 68.609375 48.1875 
Q 61.625 48.1875 57.5625 43.546875 
Q 53.515625 38.921875 53.515625 30.90625 
L 53.515625 0 
L 44.484375 0 
L 44.484375 32.71875 
Q 44.484375 40.625 41.703125 44.40625 
Q 38.921875 48.1875 33.109375 48.1875 
Q 26.21875 48.1875 22.15625 43.53125 
Q 18.109375 38.875 18.109375 30.90625 
L 18.109375 0 
L 9.078125 0 
L 9.078125 54.6875 
L 18.109375 54.6875 
L 18.109375 46.1875 
Q 21.1875 51.21875 25.484375 53.609375 
Q 29.78125 56 35.6875 56 
Q 41.65625 56 45.828125 52.96875 
Q 50 49.953125 52 44.1875 
z
" id="DejaVuSans-109"/>
     <path d="M 45.40625 27.984375 
Q 45.40625 37.75 41.375 43.109375 
Q 37.359375 48.484375 30.078125 48.484375 
Q 22.859375 48.484375 18.828125 43.109375 
Q 14.796875 37.75 14.796875 27.984375 
Q 14.796875 18.265625 18.828125 12.890625 
Q 22.859375 7.515625 30.078125 7.515625 
Q 37.359375 7.515625 41.375 12.890625 
Q 45.40625 18.265625 45.40625 27.984375 
z
M 54.390625 6.78125 
Q 54.390625 -7.171875 48.1875 -13.984375 
Q 42 -20.796875 29.203125 -20.796875 
Q 24.46875 -20.796875 20.265625 -20.09375 
Q 16.0625 -19.390625 12.109375 -17.921875 
L 12.109375 -9.1875 
Q 16.0625 -11.328125 19.921875 -12.34375 
Q 23.78125 -13.375 27.78125 -13.375 
Q 36.625 -13.375 41.015625 -8.765625 
Q 45.40625 -4.15625 45.40625 5.171875 
L 45.40625 9.625 
Q 42.625 4.78125 38.28125 2.390625 
Q 33.9375 0 27.875 0 
Q 17.828125 0 11.671875 7.65625 
Q 5.515625 15.328125 5.515625 27.984375 
Q 5.515625 40.671875 11.671875 48.328125 
Q 17.828125 56 27.875 56 
Q 33.9375 56 38.28125 53.609375 
Q 42.625 51.21875 45.40625 46.390625 
L 45.40625 54.6875 
L 54.390625 54.6875 
z
" id="DejaVuSans-103"/>
     <path d="M 4.203125 54.6875 
L 13.1875 54.6875 
L 24.421875 12.015625 
L 35.59375 54.6875 
L 46.1875 54.6875 
L 57.421875 12.015625 
L 68.609375 54.6875 
L 77.59375 54.6875 
L 63.28125 0 
L 52.6875 0 
L 40.921875 44.828125 
L 29.109375 0 
L 18.5 0 
z
" id="DejaVuSans-119"/>
    </defs>
    <use xlink:href="#DejaVuSans-84"/>
    <use x="61.083984" xlink:href="#DejaVuSans-104"/>
    <use x="124.462891" xlink:href="#DejaVuSans-101"/>
    <use x="185.986328" xlink:href="#DejaVuSans-32"/>
    <use x="217.773438" xlink:href="#DejaVuSans-99"/>
    <use x="272.753906" xlink:href="#DejaVuSans-104"/>
    <use x="336.132812" xlink:href="#DejaVuSans-97"/>
    <use x="397.412109" xlink:href="#DejaVuSans-116"/>
    <use x="436.621094" xlink:href="#DejaVuSans-98"/>
    <use x="500.097656" xlink:href="#DejaVuSans-111"/>
    <use x="561.279297" xlink:href="#DejaVuSans-116"/>
    <use x="600.488281" xlink:href="#DejaVuSans-39"/>
    <use x="627.978516" xlink:href="#DejaVuSans-115"/>
    <use x="680.078125" xlink:href="#DejaVuSans-32"/>
    <use x="711.865234" xlink:href="#DejaVuSans-109"/>
    <use x="809.277344" xlink:href="#DejaVuSans-101"/>
    <use x="870.800781" xlink:href="#DejaVuSans-115"/>
    <use x="922.900391" xlink:href="#DejaVuSans-115"/>
    <use x="975" xlink:href="#DejaVuSans-97"/>
    <use x="1036.279297" xlink:href="#DejaVuSans-103"/>
    <use x="1099.755859" xlink:href="#DejaVuSans-101"/>
    <use x="1161.279297" xlink:href="#DejaVuSans-115"/>
    <use x="1213.378906" xlink:href="#DejaVuSans-32"/>
    <use x="1245.166016" xlink:href="#DejaVuSans-119"/>
    <use x="1326.953125" xlink:href="#DejaVuSans-101"/>
    <use x="1388.476562" xlink:href="#DejaVuSans-114"/>
    <use x="1427.339844" xlink:href="#DejaVuSans-101"/>
    <use x="1488.863281" xlink:href="#DejaVuSans-32"/>
    <use x="1520.650391" xlink:href="#DejaVuSans-97"/>
    <use x="1581.929688" xlink:href="#DejaVuSans-112"/>
    <use x="1645.40625" xlink:href="#DejaVuSans-112"/>
    <use x="1708.882812" xlink:href="#DejaVuSans-114"/>
    <use x="1747.746094" xlink:href="#DejaVuSans-111"/>
    <use x="1808.927734" xlink:href="#DejaVuSans-112"/>
    <use x="1872.404297" xlink:href="#DejaVuSans-114"/>
    <use x="1913.517578" xlink:href="#DejaVuSans-105"/>
    <use x="1941.300781" xlink:href="#DejaVuSans-97"/>
    <use x="2002.580078" xlink:href="#DejaVuSans-116"/>
    <use x="2041.789062" xlink:href="#DejaVuSans-101"/>
    <use x="2103.3125" xlink:href="#DejaVuSans-46"/>
   </g>
  </g>
 </g>
 <defs>
  <clipPath id="p7c247bf0a0">
   <rect height="199.6" width="162.8" x="43.78125" y="48.04"/>
  </clipPath>
  <clipPath id="p05ac85372f">
   <rect height="199.6" width="162.8" x="254.38125" y="48.04"/>
  </clipPath>
 </defs>
</svg>
