<?xml version="1.0" encoding="utf-8" standalone="no"?>
<!DOCTYPE svg PUBLIC "-//W3C//DTD SVG 1.1//EN"
  "http://www.w3.org/Graphics/SVG/1.1/DTD/svg11.dtd">
<!-- Created with matplotlib (https://matplotlib.org/) -->
<svg height="285.19625pt" version="1.1" viewBox="0 0 424.38125 285.19625" width="424.38125pt" xmlns="http://www.w3.org/2000/svg" xmlns:xlink="http://www.w3.org/1999/xlink">
 <metadata>
  <rdf:RDF xmlns:cc="http://creativecommons.org/ns#" xmlns:dc="http://purl.org/dc/elements/1.1/" xmlns:rdf="http://www.w3.org/1999/02/22-rdf-syntax-ns#">
   <cc:Work>
    <dc:type rdf:resource="http://purl.org/dc/dcmitype/StillImage"/>
    <dc:date>2021-02-21T18:27:40.374542</dc:date>
    <dc:format>image/svg+xml</dc:format>
    <dc:creator>
     <cc:Agent>
      <dc:title>Matplotlib v3.3.2, https://matplotlib.org/</dc:title>
     </cc:Agent>
    </dc:creator>
   </cc:Work>
  </rdf:RDF>
 </metadata>
 <defs>
  <style type="text/css">*{stroke-linecap:butt;stroke-linejoin:round;}</style>
 </defs>
 <g id="figure_1">
  <g id="patch_1">
   <path d="M 0 285.19625 
L 424.38125 285.19625 
L 424.38125 0 
L 0 0 
z
" style="fill:none;"/>
  </g>
  <g id="axes_1">
   <g id="patch_2">
    <path d="M 43.78125 247.64 
L 211.39375 247.64 
L 211.39375 48.04 
L 43.78125 48.04 
z
" style="fill:#ffffff;"/>
   </g>
   <g id="PathCollection_1">
    <defs>
     <path d="M 0 3 
C 0.795609 3 1.55874 2.683901 2.12132 2.12132 
C 2.683901 1.55874 3 0.795609 3 0 
C 3 -0.795609 2.683901 -1.55874 2.12132 -2.12132 
C 1.55874 -2.683901 0.795609 -3 0 -3 
C -0.795609 -3 -1.55874 -2.683901 -2.12132 -2.12132 
C -2.683901 -1.55874 -3 -0.795609 -3 0 
C -3 0.795609 -2.683901 1.55874 -2.12132 2.12132 
C -1.55874 2.683901 -0.795609 3 0 3 
z
" id="m953d31e72f" style="stroke:#1f77b4;stroke-opacity:0.8;"/>
    </defs>
    <g clip-path="url(#pa78283a65a)">
     <use style="fill:#1f77b4;fill-opacity:0.8;stroke:#1f77b4;stroke-opacity:0.8;" x="146.927404" xlink:href="#m953d31e72f" y="178.392884"/>
     <use style="fill:#1f77b4;fill-opacity:0.8;stroke:#1f77b4;stroke-opacity:0.8;" x="69.567788" xlink:href="#m953d31e72f" y="58.044105"/>
     <use style="fill:#1f77b4;fill-opacity:0.8;stroke:#1f77b4;stroke-opacity:0.8;" x="82.461058" xlink:href="#m953d31e72f" y="178.392884"/>
     <use style="fill:#1f77b4;fill-opacity:0.8;stroke:#1f77b4;stroke-opacity:0.8;" x="146.927404" xlink:href="#m953d31e72f" y="58.044105"/>
     <use style="fill:#1f77b4;fill-opacity:0.8;stroke:#1f77b4;stroke-opacity:0.8;" x="172.713942" xlink:href="#m953d31e72f" y="118.218495"/>
     <use style="fill:#1f77b4;fill-opacity:0.8;stroke:#1f77b4;stroke-opacity:0.8;" x="134.034135" xlink:href="#m953d31e72f" y="58.044105"/>
     <use style="fill:#1f77b4;fill-opacity:0.8;stroke:#1f77b4;stroke-opacity:0.8;" x="185.607212" xlink:href="#m953d31e72f" y="58.044105"/>
     <use style="fill:#1f77b4;fill-opacity:0.8;stroke:#1f77b4;stroke-opacity:0.8;" x="134.034135" xlink:href="#m953d31e72f" y="118.218495"/>
     <use style="fill:#1f77b4;fill-opacity:0.8;stroke:#1f77b4;stroke-opacity:0.8;" x="82.461058" xlink:href="#m953d31e72f" y="178.392884"/>
     <use style="fill:#1f77b4;fill-opacity:0.8;stroke:#1f77b4;stroke-opacity:0.8;" x="121.140865" xlink:href="#m953d31e72f" y="178.392884"/>
     <use style="fill:#1f77b4;fill-opacity:0.8;stroke:#1f77b4;stroke-opacity:0.8;" x="121.140865" xlink:href="#m953d31e72f" y="118.218495"/>
     <use style="fill:#1f77b4;fill-opacity:0.8;stroke:#1f77b4;stroke-opacity:0.8;" x="172.713942" xlink:href="#m953d31e72f" y="58.044105"/>
     <use style="fill:#1f77b4;fill-opacity:0.8;stroke:#1f77b4;stroke-opacity:0.8;" x="95.354327" xlink:href="#m953d31e72f" y="178.392884"/>
     <use style="fill:#1f77b4;fill-opacity:0.8;stroke:#1f77b4;stroke-opacity:0.8;" x="134.034135" xlink:href="#m953d31e72f" y="178.392884"/>
     <use style="fill:#1f77b4;fill-opacity:0.8;stroke:#1f77b4;stroke-opacity:0.8;" x="134.034135" xlink:href="#m953d31e72f" y="178.392884"/>
     <use style="fill:#1f77b4;fill-opacity:0.8;stroke:#1f77b4;stroke-opacity:0.8;" x="159.820673" xlink:href="#m953d31e72f" y="118.218495"/>
     <use style="fill:#1f77b4;fill-opacity:0.8;stroke:#1f77b4;stroke-opacity:0.8;" x="121.140865" xlink:href="#m953d31e72f" y="238.567273"/>
     <use style="fill:#1f77b4;fill-opacity:0.8;stroke:#1f77b4;stroke-opacity:0.8;" x="108.247596" xlink:href="#m953d31e72f" y="178.392884"/>
     <use style="fill:#1f77b4;fill-opacity:0.8;stroke:#1f77b4;stroke-opacity:0.8;" x="159.820673" xlink:href="#m953d31e72f" y="238.567273"/>
     <use style="fill:#1f77b4;fill-opacity:0.8;stroke:#1f77b4;stroke-opacity:0.8;" x="43.78125" xlink:href="#m953d31e72f" y="178.392884"/>
     <use style="fill:#1f77b4;fill-opacity:0.8;stroke:#1f77b4;stroke-opacity:0.8;" x="95.354327" xlink:href="#m953d31e72f" y="178.392884"/>
     <use style="fill:#1f77b4;fill-opacity:0.8;stroke:#1f77b4;stroke-opacity:0.8;" x="211.39375" xlink:href="#m953d31e72f" y="58.044105"/>
     <use style="fill:#1f77b4;fill-opacity:0.8;stroke:#1f77b4;stroke-opacity:0.8;" x="121.140865" xlink:href="#m953d31e72f" y="118.218495"/>
     <use style="fill:#1f77b4;fill-opacity:0.8;stroke:#1f77b4;stroke-opacity:0.8;" x="121.140865" xlink:href="#m953d31e72f" y="58.044105"/>
     <use style="fill:#1f77b4;fill-opacity:0.8;stroke:#1f77b4;stroke-opacity:0.8;" x="121.140865" xlink:href="#m953d31e72f" y="118.218495"/>
     <use style="fill:#1f77b4;fill-opacity:0.8;stroke:#1f77b4;stroke-opacity:0.8;" x="121.140865" xlink:href="#m953d31e72f" y="178.392884"/>
     <use style="fill:#1f77b4;fill-opacity:0.8;stroke:#1f77b4;stroke-opacity:0.8;" x="108.247596" xlink:href="#m953d31e72f" y="58.044105"/>
     <use style="fill:#1f77b4;fill-opacity:0.8;stroke:#1f77b4;stroke-opacity:0.8;" x="95.354327" xlink:href="#m953d31e72f" y="118.218495"/>
     <use style="fill:#1f77b4;fill-opacity:0.8;stroke:#1f77b4;stroke-opacity:0.8;" x="108.247596" xlink:href="#m953d31e72f" y="58.044105"/>
     <use style="fill:#1f77b4;fill-opacity:0.8;stroke:#1f77b4;stroke-opacity:0.8;" x="121.140865" xlink:href="#m953d31e72f" y="118.218495"/>
     <use style="fill:#1f77b4;fill-opacity:0.8;stroke:#1f77b4;stroke-opacity:0.8;" x="121.140865" xlink:href="#m953d31e72f" y="118.218495"/>
     <use style="fill:#1f77b4;fill-opacity:0.8;stroke:#1f77b4;stroke-opacity:0.8;" x="95.354327" xlink:href="#m953d31e72f" y="58.044105"/>
     <use style="fill:#1f77b4;fill-opacity:0.8;stroke:#1f77b4;stroke-opacity:0.8;" x="134.034135" xlink:href="#m953d31e72f" y="118.218495"/>
     <use style="fill:#1f77b4;fill-opacity:0.8;stroke:#1f77b4;stroke-opacity:0.8;" x="134.034135" xlink:href="#m953d31e72f" y="238.567273"/>
     <use style="fill:#1f77b4;fill-opacity:0.8;stroke:#1f77b4;stroke-opacity:0.8;" x="108.247596" xlink:href="#m953d31e72f" y="118.218495"/>
     <use style="fill:#1f77b4;fill-opacity:0.8;stroke:#1f77b4;stroke-opacity:0.8;" x="108.247596" xlink:href="#m953d31e72f" y="238.567273"/>
     <use style="fill:#1f77b4;fill-opacity:0.8;stroke:#1f77b4;stroke-opacity:0.8;" x="95.354327" xlink:href="#m953d31e72f" y="178.392884"/>
     <use style="fill:#1f77b4;fill-opacity:0.8;stroke:#1f77b4;stroke-opacity:0.8;" x="121.140865" xlink:href="#m953d31e72f" y="118.218495"/>
     <use style="fill:#1f77b4;fill-opacity:0.8;stroke:#1f77b4;stroke-opacity:0.8;" x="108.247596" xlink:href="#m953d31e72f" y="178.392884"/>
     <use style="fill:#1f77b4;fill-opacity:0.8;stroke:#1f77b4;stroke-opacity:0.8;" x="95.354327" xlink:href="#m953d31e72f" y="178.392884"/>
     <use style="fill:#1f77b4;fill-opacity:0.8;stroke:#1f77b4;stroke-opacity:0.8;" x="56.674519" xlink:href="#m953d31e72f" y="58.044105"/>
    </g>
   </g>
   <g id="PolyCollection_1">
    <path clip-path="url(#pa78283a65a)" d="M 43.78125 103.059557 
L 43.78125 204.319353 
L 45.474306 202.992878 
L 47.167361 201.666403 
L 48.860417 200.339927 
L 50.553472 199.013452 
L 52.246528 197.686977 
L 53.939583 196.356365 
L 55.632639 195.022528 
L 57.325694 193.688692 
L 59.01875 192.354855 
L 60.711806 190.84153 
L 62.404861 189.523915 
L 64.097917 188.37396 
L 65.790972 187.054314 
L 67.484028 185.726929 
L 69.177083 184.397764 
L 70.870139 183.068599 
L 72.563194 181.739434 
L 74.25625 180.410269 
L 75.949306 179.081104 
L 77.642361 177.751939 
L 79.335417 176.422774 
L 81.028472 175.089761 
L 82.721528 173.703758 
L 84.414583 172.426348 
L 86.107639 171.211937 
L 87.800694 169.99407 
L 89.49375 168.920577 
L 91.186806 167.571033 
L 92.879861 166.361359 
L 94.572917 165.854649 
L 96.265972 164.922936 
L 97.959028 163.297348 
L 99.652083 162.179523 
L 101.345139 161.009904 
L 103.038194 160.06683 
L 104.73125 158.904742 
L 106.424306 158.122109 
L 108.117361 157.244313 
L 109.810417 156.308339 
L 111.503472 154.936966 
L 113.196528 154.755665 
L 114.889583 154.567286 
L 116.582639 154.074443 
L 118.275694 153.932414 
L 119.96875 153.769319 
L 121.661806 153.557753 
L 123.354861 153.185881 
L 125.047917 152.362625 
L 126.740972 152.156003 
L 128.434028 152.602958 
L 130.127083 152.873581 
L 131.820139 152.964362 
L 133.513194 152.84676 
L 135.20625 153.624655 
L 136.899306 153.650819 
L 138.592361 154.091291 
L 140.285417 154.276485 
L 141.978472 155.009818 
L 143.671528 155.276169 
L 145.364583 155.25618 
L 147.057639 155.749847 
L 148.750694 156.268515 
L 150.44375 156.780971 
L 152.136806 157.488535 
L 153.829861 157.829333 
L 155.522917 158.348569 
L 157.215972 158.867079 
L 158.909028 159.739637 
L 160.602083 160.050124 
L 162.295139 160.438865 
L 163.988194 160.944748 
L 165.68125 161.707084 
L 167.374306 162.185061 
L 169.067361 162.638141 
L 170.760417 163.091221 
L 172.453472 163.704318 
L 174.146528 164.728608 
L 175.839583 165.320054 
L 177.532639 165.872613 
L 179.225694 166.601447 
L 180.91875 167.330281 
L 182.611806 168.059116 
L 184.304861 168.78795 
L 185.997917 169.516784 
L 187.690972 170.245619 
L 189.384028 170.963221 
L 191.077083 171.706109 
L 192.770139 172.482543 
L 194.463194 173.251265 
L 196.15625 174.019987 
L 197.849306 174.788709 
L 199.542361 175.557431 
L 201.235417 176.335736 
L 202.928472 177.163229 
L 204.621528 177.987023 
L 206.314583 178.810816 
L 208.007639 179.428359 
L 209.700694 180.299744 
L 211.39375 181.002647 
L 211.39375 57.112727 
L 211.39375 57.112727 
L 209.700694 58.258567 
L 208.007639 59.404407 
L 206.314583 61.031926 
L 204.621528 62.718346 
L 202.928472 64.404766 
L 201.235417 65.936886 
L 199.542361 67.311443 
L 197.849306 68.685999 
L 196.15625 70.060556 
L 194.463194 71.435112 
L 192.770139 72.770798 
L 191.077083 74.180217 
L 189.384028 75.565611 
L 187.690972 76.68641 
L 185.997917 77.97363 
L 184.304861 79.268973 
L 182.611806 80.56175 
L 180.91875 81.679108 
L 179.225694 82.636757 
L 177.532639 83.597947 
L 175.839583 85.179193 
L 174.146528 86.866069 
L 172.453472 87.935802 
L 170.760417 88.843839 
L 169.067361 90.461119 
L 167.374306 91.701108 
L 165.68125 93.22488 
L 163.988194 94.777598 
L 162.295139 95.844843 
L 160.602083 96.912522 
L 158.909028 97.69082 
L 157.215972 98.952081 
L 155.522917 99.99022 
L 153.829861 101.285971 
L 152.136806 102.2468 
L 150.44375 103.237228 
L 148.750694 104.232858 
L 147.057639 105.227289 
L 145.364583 106.132135 
L 143.671528 107.111392 
L 141.978472 107.924829 
L 140.285417 108.933039 
L 138.592361 109.603017 
L 136.899306 110.279935 
L 135.20625 110.834181 
L 133.513194 111.544539 
L 131.820139 112.049147 
L 130.127083 112.924023 
L 128.434028 113.587439 
L 126.740972 114.219126 
L 125.047917 115.036252 
L 123.354861 115.487851 
L 121.661806 116.198675 
L 119.96875 116.642202 
L 118.275694 117.563084 
L 116.582639 117.981925 
L 114.889583 118.336513 
L 113.196528 118.627244 
L 111.503472 118.983085 
L 109.810417 119.609695 
L 108.117361 120.010183 
L 106.424306 120.137319 
L 104.73125 120.309405 
L 103.038194 120.181046 
L 101.345139 119.523485 
L 99.652083 118.884443 
L 97.959028 119.119359 
L 96.265972 119.28599 
L 94.572917 118.842201 
L 92.879861 118.505143 
L 91.186806 118.487986 
L 89.49375 118.2073 
L 87.800694 118.18979 
L 86.107639 117.300025 
L 84.414583 116.92064 
L 82.721528 116.279327 
L 81.028472 115.980798 
L 79.335417 115.383549 
L 77.642361 115.129111 
L 75.949306 114.787761 
L 74.25625 113.954366 
L 72.563194 113.23237 
L 70.870139 112.992364 
L 69.177083 112.752357 
L 67.484028 112.041583 
L 65.790972 110.796356 
L 64.097917 109.730092 
L 62.404861 109.306331 
L 60.711806 108.889137 
L 59.01875 108.471943 
L 57.325694 108.05475 
L 55.632639 107.637556 
L 53.939583 107.037722 
L 52.246528 106.352284 
L 50.553472 105.666847 
L 48.860417 104.981409 
L 47.167361 104.295971 
L 45.474306 103.610533 
L 43.78125 103.059557 
z
" style="fill:#1f77b4;fill-opacity:0.15;"/>
   </g>
   <g id="matplotlib.axis_1">
    <g id="xtick_1">
     <g id="line2d_1">
      <defs>
       <path d="M 0 0 
L 0 3.5 
" id="m9c804e3fd7" style="stroke:#000000;stroke-width:0.8;"/>
      </defs>
      <g>
       <use style="stroke:#000000;stroke-width:0.8;" x="69.567788" xlink:href="#m9c804e3fd7" y="247.64"/>
      </g>
     </g>
     <g id="text_1">
      <!-- 2 -->
      <g transform="translate(66.386538 262.238437)scale(0.1 -0.1)">
       <defs>
        <path d="M 19.1875 8.296875 
L 53.609375 8.296875 
L 53.609375 0 
L 7.328125 0 
L 7.328125 8.296875 
Q 12.9375 14.109375 22.625 23.890625 
Q 32.328125 33.6875 34.8125 36.53125 
Q 39.546875 41.84375 41.421875 45.53125 
Q 43.3125 49.21875 43.3125 52.78125 
Q 43.3125 58.59375 39.234375 62.25 
Q 35.15625 65.921875 28.609375 65.921875 
Q 23.96875 65.921875 18.8125 64.3125 
Q 13.671875 62.703125 7.8125 59.421875 
L 7.8125 69.390625 
Q 13.765625 71.78125 18.9375 73 
Q 24.125 74.21875 28.421875 74.21875 
Q 39.75 74.21875 46.484375 68.546875 
Q 53.21875 62.890625 53.21875 53.421875 
Q 53.21875 48.921875 51.53125 44.890625 
Q 49.859375 40.875 45.40625 35.40625 
Q 44.1875 33.984375 37.640625 27.21875 
Q 31.109375 20.453125 19.1875 8.296875 
z
" id="DejaVuSans-50"/>
       </defs>
       <use xlink:href="#DejaVuSans-50"/>
      </g>
     </g>
    </g>
    <g id="xtick_2">
     <g id="line2d_2">
      <g>
       <use style="stroke:#000000;stroke-width:0.8;" x="121.140865" xlink:href="#m9c804e3fd7" y="247.64"/>
      </g>
     </g>
     <g id="text_2">
      <!-- 3 -->
      <g transform="translate(117.959615 262.238437)scale(0.1 -0.1)">
       <defs>
        <path d="M 40.578125 39.3125 
Q 47.65625 37.796875 51.625 33 
Q 55.609375 28.21875 55.609375 21.1875 
Q 55.609375 10.40625 48.1875 4.484375 
Q 40.765625 -1.421875 27.09375 -1.421875 
Q 22.515625 -1.421875 17.65625 -0.515625 
Q 12.796875 0.390625 7.625 2.203125 
L 7.625 11.71875 
Q 11.71875 9.328125 16.59375 8.109375 
Q 21.484375 6.890625 26.8125 6.890625 
Q 36.078125 6.890625 40.9375 10.546875 
Q 45.796875 14.203125 45.796875 21.1875 
Q 45.796875 27.640625 41.28125 31.265625 
Q 36.765625 34.90625 28.71875 34.90625 
L 20.21875 34.90625 
L 20.21875 43.015625 
L 29.109375 43.015625 
Q 36.375 43.015625 40.234375 45.921875 
Q 44.09375 48.828125 44.09375 54.296875 
Q 44.09375 59.90625 40.109375 62.90625 
Q 36.140625 65.921875 28.71875 65.921875 
Q 24.65625 65.921875 20.015625 65.03125 
Q 15.375 64.15625 9.8125 62.3125 
L 9.8125 71.09375 
Q 15.4375 72.65625 20.34375 73.4375 
Q 25.25 74.21875 29.59375 74.21875 
Q 40.828125 74.21875 47.359375 69.109375 
Q 53.90625 64.015625 53.90625 55.328125 
Q 53.90625 49.265625 50.4375 45.09375 
Q 46.96875 40.921875 40.578125 39.3125 
z
" id="DejaVuSans-51"/>
       </defs>
       <use xlink:href="#DejaVuSans-51"/>
      </g>
     </g>
    </g>
    <g id="xtick_3">
     <g id="line2d_3">
      <g>
       <use style="stroke:#000000;stroke-width:0.8;" x="172.713942" xlink:href="#m9c804e3fd7" y="247.64"/>
      </g>
     </g>
     <g id="text_3">
      <!-- 4 -->
      <g transform="translate(169.532692 262.238437)scale(0.1 -0.1)">
       <defs>
        <path d="M 37.796875 64.3125 
L 12.890625 25.390625 
L 37.796875 25.390625 
z
M 35.203125 72.90625 
L 47.609375 72.90625 
L 47.609375 25.390625 
L 58.015625 25.390625 
L 58.015625 17.1875 
L 47.609375 17.1875 
L 47.609375 0 
L 37.796875 0 
L 37.796875 17.1875 
L 4.890625 17.1875 
L 4.890625 26.703125 
z
" id="DejaVuSans-52"/>
       </defs>
       <use xlink:href="#DejaVuSans-52"/>
      </g>
     </g>
    </g>
    <g id="text_4">
     <!-- E -->
     <g transform="translate(124.428125 275.916562)scale(0.1 -0.1)">
      <defs>
       <path d="M 9.8125 72.90625 
L 55.90625 72.90625 
L 55.90625 64.59375 
L 19.671875 64.59375 
L 19.671875 43.015625 
L 54.390625 43.015625 
L 54.390625 34.71875 
L 19.671875 34.71875 
L 19.671875 8.296875 
L 56.78125 8.296875 
L 56.78125 0 
L 9.8125 0 
z
" id="DejaVuSans-69"/>
      </defs>
      <use xlink:href="#DejaVuSans-69"/>
     </g>
    </g>
   </g>
   <g id="matplotlib.axis_2">
    <g id="ytick_1">
     <g id="line2d_4">
      <defs>
       <path d="M 0 0 
L -3.5 0 
" id="ma5ed174017" style="stroke:#000000;stroke-width:0.8;"/>
      </defs>
      <g>
       <use style="stroke:#000000;stroke-width:0.8;" x="43.78125" xlink:href="#ma5ed174017" y="238.567273"/>
      </g>
     </g>
     <g id="text_5">
      <!-- 4.0 -->
      <g transform="translate(20.878125 242.366491)scale(0.1 -0.1)">
       <defs>
        <path d="M 10.6875 12.40625 
L 21 12.40625 
L 21 0 
L 10.6875 0 
z
" id="DejaVuSans-46"/>
        <path d="M 31.78125 66.40625 
Q 24.171875 66.40625 20.328125 58.90625 
Q 16.5 51.421875 16.5 36.375 
Q 16.5 21.390625 20.328125 13.890625 
Q 24.171875 6.390625 31.78125 6.390625 
Q 39.453125 6.390625 43.28125 13.890625 
Q 47.125 21.390625 47.125 36.375 
Q 47.125 51.421875 43.28125 58.90625 
Q 39.453125 66.40625 31.78125 66.40625 
z
M 31.78125 74.21875 
Q 44.046875 74.21875 50.515625 64.515625 
Q 56.984375 54.828125 56.984375 36.375 
Q 56.984375 17.96875 50.515625 8.265625 
Q 44.046875 -1.421875 31.78125 -1.421875 
Q 19.53125 -1.421875 13.0625 8.265625 
Q 6.59375 17.96875 6.59375 36.375 
Q 6.59375 54.828125 13.0625 64.515625 
Q 19.53125 74.21875 31.78125 74.21875 
z
" id="DejaVuSans-48"/>
       </defs>
       <use xlink:href="#DejaVuSans-52"/>
       <use x="63.623047" xlink:href="#DejaVuSans-46"/>
       <use x="95.410156" xlink:href="#DejaVuSans-48"/>
      </g>
     </g>
    </g>
    <g id="ytick_2">
     <g id="line2d_5">
      <g>
       <use style="stroke:#000000;stroke-width:0.8;" x="43.78125" xlink:href="#ma5ed174017" y="208.480078"/>
      </g>
     </g>
     <g id="text_6">
      <!-- 4.5 -->
      <g transform="translate(20.878125 212.279297)scale(0.1 -0.1)">
       <defs>
        <path d="M 10.796875 72.90625 
L 49.515625 72.90625 
L 49.515625 64.59375 
L 19.828125 64.59375 
L 19.828125 46.734375 
Q 21.96875 47.46875 24.109375 47.828125 
Q 26.265625 48.1875 28.421875 48.1875 
Q 40.625 48.1875 47.75 41.5 
Q 54.890625 34.8125 54.890625 23.390625 
Q 54.890625 11.625 47.5625 5.09375 
Q 40.234375 -1.421875 26.90625 -1.421875 
Q 22.3125 -1.421875 17.546875 -0.640625 
Q 12.796875 0.140625 7.71875 1.703125 
L 7.71875 11.625 
Q 12.109375 9.234375 16.796875 8.0625 
Q 21.484375 6.890625 26.703125 6.890625 
Q 35.15625 6.890625 40.078125 11.328125 
Q 45.015625 15.765625 45.015625 23.390625 
Q 45.015625 31 40.078125 35.4375 
Q 35.15625 39.890625 26.703125 39.890625 
Q 22.75 39.890625 18.8125 39.015625 
Q 14.890625 38.140625 10.796875 36.28125 
z
" id="DejaVuSans-53"/>
       </defs>
       <use xlink:href="#DejaVuSans-52"/>
       <use x="63.623047" xlink:href="#DejaVuSans-46"/>
       <use x="95.410156" xlink:href="#DejaVuSans-53"/>
      </g>
     </g>
    </g>
    <g id="ytick_3">
     <g id="line2d_6">
      <g>
       <use style="stroke:#000000;stroke-width:0.8;" x="43.78125" xlink:href="#ma5ed174017" y="178.392884"/>
      </g>
     </g>
     <g id="text_7">
      <!-- 5.0 -->
      <g transform="translate(20.878125 182.192102)scale(0.1 -0.1)">
       <use xlink:href="#DejaVuSans-53"/>
       <use x="63.623047" xlink:href="#DejaVuSans-46"/>
       <use x="95.410156" xlink:href="#DejaVuSans-48"/>
      </g>
     </g>
    </g>
    <g id="ytick_4">
     <g id="line2d_7">
      <g>
       <use style="stroke:#000000;stroke-width:0.8;" x="43.78125" xlink:href="#ma5ed174017" y="148.305689"/>
      </g>
     </g>
     <g id="text_8">
      <!-- 5.5 -->
      <g transform="translate(20.878125 152.104908)scale(0.1 -0.1)">
       <use xlink:href="#DejaVuSans-53"/>
       <use x="63.623047" xlink:href="#DejaVuSans-46"/>
       <use x="95.410156" xlink:href="#DejaVuSans-53"/>
      </g>
     </g>
    </g>
    <g id="ytick_5">
     <g id="line2d_8">
      <g>
       <use style="stroke:#000000;stroke-width:0.8;" x="43.78125" xlink:href="#ma5ed174017" y="118.218495"/>
      </g>
     </g>
     <g id="text_9">
      <!-- 6.0 -->
      <g transform="translate(20.878125 122.017713)scale(0.1 -0.1)">
       <defs>
        <path d="M 33.015625 40.375 
Q 26.375 40.375 22.484375 35.828125 
Q 18.609375 31.296875 18.609375 23.390625 
Q 18.609375 15.53125 22.484375 10.953125 
Q 26.375 6.390625 33.015625 6.390625 
Q 39.65625 6.390625 43.53125 10.953125 
Q 47.40625 15.53125 47.40625 23.390625 
Q 47.40625 31.296875 43.53125 35.828125 
Q 39.65625 40.375 33.015625 40.375 
z
M 52.59375 71.296875 
L 52.59375 62.3125 
Q 48.875 64.0625 45.09375 64.984375 
Q 41.3125 65.921875 37.59375 65.921875 
Q 27.828125 65.921875 22.671875 59.328125 
Q 17.53125 52.734375 16.796875 39.40625 
Q 19.671875 43.65625 24.015625 45.921875 
Q 28.375 48.1875 33.59375 48.1875 
Q 44.578125 48.1875 50.953125 41.515625 
Q 57.328125 34.859375 57.328125 23.390625 
Q 57.328125 12.15625 50.6875 5.359375 
Q 44.046875 -1.421875 33.015625 -1.421875 
Q 20.359375 -1.421875 13.671875 8.265625 
Q 6.984375 17.96875 6.984375 36.375 
Q 6.984375 53.65625 15.1875 63.9375 
Q 23.390625 74.21875 37.203125 74.21875 
Q 40.921875 74.21875 44.703125 73.484375 
Q 48.484375 72.75 52.59375 71.296875 
z
" id="DejaVuSans-54"/>
       </defs>
       <use xlink:href="#DejaVuSans-54"/>
       <use x="63.623047" xlink:href="#DejaVuSans-46"/>
       <use x="95.410156" xlink:href="#DejaVuSans-48"/>
      </g>
     </g>
    </g>
    <g id="ytick_6">
     <g id="line2d_9">
      <g>
       <use style="stroke:#000000;stroke-width:0.8;" x="43.78125" xlink:href="#ma5ed174017" y="88.1313"/>
      </g>
     </g>
     <g id="text_10">
      <!-- 6.5 -->
      <g transform="translate(20.878125 91.930519)scale(0.1 -0.1)">
       <use xlink:href="#DejaVuSans-54"/>
       <use x="63.623047" xlink:href="#DejaVuSans-46"/>
       <use x="95.410156" xlink:href="#DejaVuSans-53"/>
      </g>
     </g>
    </g>
    <g id="ytick_7">
     <g id="line2d_10">
      <g>
       <use style="stroke:#000000;stroke-width:0.8;" x="43.78125" xlink:href="#ma5ed174017" y="58.044105"/>
      </g>
     </g>
     <g id="text_11">
      <!-- 7.0 -->
      <g transform="translate(20.878125 61.843324)scale(0.1 -0.1)">
       <defs>
        <path d="M 8.203125 72.90625 
L 55.078125 72.90625 
L 55.078125 68.703125 
L 28.609375 0 
L 18.3125 0 
L 43.21875 64.59375 
L 8.203125 64.59375 
z
" id="DejaVuSans-55"/>
       </defs>
       <use xlink:href="#DejaVuSans-55"/>
       <use x="63.623047" xlink:href="#DejaVuSans-46"/>
       <use x="95.410156" xlink:href="#DejaVuSans-48"/>
      </g>
     </g>
    </g>
    <g id="text_12">
     <!-- Offering2 -->
     <g transform="translate(14.798438 171.341562)rotate(-90)scale(0.1 -0.1)">
      <defs>
       <path d="M 39.40625 66.21875 
Q 28.65625 66.21875 22.328125 58.203125 
Q 16.015625 50.203125 16.015625 36.375 
Q 16.015625 22.609375 22.328125 14.59375 
Q 28.65625 6.59375 39.40625 6.59375 
Q 50.140625 6.59375 56.421875 14.59375 
Q 62.703125 22.609375 62.703125 36.375 
Q 62.703125 50.203125 56.421875 58.203125 
Q 50.140625 66.21875 39.40625 66.21875 
z
M 39.40625 74.21875 
Q 54.734375 74.21875 63.90625 63.9375 
Q 73.09375 53.65625 73.09375 36.375 
Q 73.09375 19.140625 63.90625 8.859375 
Q 54.734375 -1.421875 39.40625 -1.421875 
Q 24.03125 -1.421875 14.8125 8.828125 
Q 5.609375 19.09375 5.609375 36.375 
Q 5.609375 53.65625 14.8125 63.9375 
Q 24.03125 74.21875 39.40625 74.21875 
z
" id="DejaVuSans-79"/>
       <path d="M 37.109375 75.984375 
L 37.109375 68.5 
L 28.515625 68.5 
Q 23.6875 68.5 21.796875 66.546875 
Q 19.921875 64.59375 19.921875 59.515625 
L 19.921875 54.6875 
L 34.71875 54.6875 
L 34.71875 47.703125 
L 19.921875 47.703125 
L 19.921875 0 
L 10.890625 0 
L 10.890625 47.703125 
L 2.296875 47.703125 
L 2.296875 54.6875 
L 10.890625 54.6875 
L 10.890625 58.5 
Q 10.890625 67.625 15.140625 71.796875 
Q 19.390625 75.984375 28.609375 75.984375 
z
" id="DejaVuSans-102"/>
       <path d="M 56.203125 29.59375 
L 56.203125 25.203125 
L 14.890625 25.203125 
Q 15.484375 15.921875 20.484375 11.0625 
Q 25.484375 6.203125 34.421875 6.203125 
Q 39.59375 6.203125 44.453125 7.46875 
Q 49.3125 8.734375 54.109375 11.28125 
L 54.109375 2.78125 
Q 49.265625 0.734375 44.1875 -0.34375 
Q 39.109375 -1.421875 33.890625 -1.421875 
Q 20.796875 -1.421875 13.15625 6.1875 
Q 5.515625 13.8125 5.515625 26.8125 
Q 5.515625 40.234375 12.765625 48.109375 
Q 20.015625 56 32.328125 56 
Q 43.359375 56 49.78125 48.890625 
Q 56.203125 41.796875 56.203125 29.59375 
z
M 47.21875 32.234375 
Q 47.125 39.59375 43.09375 43.984375 
Q 39.0625 48.390625 32.421875 48.390625 
Q 24.90625 48.390625 20.390625 44.140625 
Q 15.875 39.890625 15.1875 32.171875 
z
" id="DejaVuSans-101"/>
       <path d="M 41.109375 46.296875 
Q 39.59375 47.171875 37.8125 47.578125 
Q 36.03125 48 33.890625 48 
Q 26.265625 48 22.1875 43.046875 
Q 18.109375 38.09375 18.109375 28.8125 
L 18.109375 0 
L 9.078125 0 
L 9.078125 54.6875 
L 18.109375 54.6875 
L 18.109375 46.1875 
Q 20.953125 51.171875 25.484375 53.578125 
Q 30.03125 56 36.53125 56 
Q 37.453125 56 38.578125 55.875 
Q 39.703125 55.765625 41.0625 55.515625 
z
" id="DejaVuSans-114"/>
       <path d="M 9.421875 54.6875 
L 18.40625 54.6875 
L 18.40625 0 
L 9.421875 0 
z
M 9.421875 75.984375 
L 18.40625 75.984375 
L 18.40625 64.59375 
L 9.421875 64.59375 
z
" id="DejaVuSans-105"/>
       <path d="M 54.890625 33.015625 
L 54.890625 0 
L 45.90625 0 
L 45.90625 32.71875 
Q 45.90625 40.484375 42.875 44.328125 
Q 39.84375 48.1875 33.796875 48.1875 
Q 26.515625 48.1875 22.3125 43.546875 
Q 18.109375 38.921875 18.109375 30.90625 
L 18.109375 0 
L 9.078125 0 
L 9.078125 54.6875 
L 18.109375 54.6875 
L 18.109375 46.1875 
Q 21.34375 51.125 25.703125 53.5625 
Q 30.078125 56 35.796875 56 
Q 45.21875 56 50.046875 50.171875 
Q 54.890625 44.34375 54.890625 33.015625 
z
" id="DejaVuSans-110"/>
       <path d="M 45.40625 27.984375 
Q 45.40625 37.75 41.375 43.109375 
Q 37.359375 48.484375 30.078125 48.484375 
Q 22.859375 48.484375 18.828125 43.109375 
Q 14.796875 37.75 14.796875 27.984375 
Q 14.796875 18.265625 18.828125 12.890625 
Q 22.859375 7.515625 30.078125 7.515625 
Q 37.359375 7.515625 41.375 12.890625 
Q 45.40625 18.265625 45.40625 27.984375 
z
M 54.390625 6.78125 
Q 54.390625 -7.171875 48.1875 -13.984375 
Q 42 -20.796875 29.203125 -20.796875 
Q 24.46875 -20.796875 20.265625 -20.09375 
Q 16.0625 -19.390625 12.109375 -17.921875 
L 12.109375 -9.1875 
Q 16.0625 -11.328125 19.921875 -12.34375 
Q 23.78125 -13.375 27.78125 -13.375 
Q 36.625 -13.375 41.015625 -8.765625 
Q 45.40625 -4.15625 45.40625 5.171875 
L 45.40625 9.625 
Q 42.625 4.78125 38.28125 2.390625 
Q 33.9375 0 27.875 0 
Q 17.828125 0 11.671875 7.65625 
Q 5.515625 15.328125 5.515625 27.984375 
Q 5.515625 40.671875 11.671875 48.328125 
Q 17.828125 56 27.875 56 
Q 33.9375 56 38.28125 53.609375 
Q 42.625 51.21875 45.40625 46.390625 
L 45.40625 54.6875 
L 54.390625 54.6875 
z
" id="DejaVuSans-103"/>
      </defs>
      <use xlink:href="#DejaVuSans-79"/>
      <use x="78.710938" xlink:href="#DejaVuSans-102"/>
      <use x="113.916016" xlink:href="#DejaVuSans-102"/>
      <use x="149.121094" xlink:href="#DejaVuSans-101"/>
      <use x="210.644531" xlink:href="#DejaVuSans-114"/>
      <use x="251.757812" xlink:href="#DejaVuSans-105"/>
      <use x="279.541016" xlink:href="#DejaVuSans-110"/>
      <use x="342.919922" xlink:href="#DejaVuSans-103"/>
      <use x="406.396484" xlink:href="#DejaVuSans-50"/>
     </g>
    </g>
   </g>
   <g id="line2d_11">
    <path clip-path="url(#pa78283a65a)" d="M 43.78125 157.699909 
L 45.474306 157.182859 
L 47.167361 156.66581 
L 48.860417 156.148761 
L 50.553472 155.631711 
L 52.246528 155.114662 
L 53.939583 154.597613 
L 55.632639 154.080563 
L 57.325694 153.563514 
L 59.01875 153.046465 
L 60.711806 152.529415 
L 62.404861 152.012366 
L 64.097917 151.495317 
L 65.790972 150.978267 
L 67.484028 150.461218 
L 69.177083 149.944169 
L 70.870139 149.427119 
L 72.563194 148.91007 
L 74.25625 148.39302 
L 75.949306 147.875971 
L 77.642361 147.358922 
L 79.335417 146.841872 
L 81.028472 146.324823 
L 82.721528 145.807774 
L 84.414583 145.290724 
L 86.107639 144.773675 
L 87.800694 144.256626 
L 89.49375 143.739576 
L 91.186806 143.222527 
L 92.879861 142.705478 
L 94.572917 142.188428 
L 96.265972 141.671379 
L 97.959028 141.15433 
L 99.652083 140.63728 
L 101.345139 140.120231 
L 103.038194 139.603182 
L 104.73125 139.086132 
L 106.424306 138.569083 
L 108.117361 138.052034 
L 109.810417 137.534984 
L 111.503472 137.017935 
L 113.196528 136.500886 
L 114.889583 135.983836 
L 116.582639 135.466787 
L 118.275694 134.949737 
L 119.96875 134.432688 
L 121.661806 133.915639 
L 123.354861 133.398589 
L 125.047917 132.88154 
L 126.740972 132.364491 
L 128.434028 131.847441 
L 130.127083 131.330392 
L 131.820139 130.813343 
L 133.513194 130.296293 
L 135.20625 129.779244 
L 136.899306 129.262195 
L 138.592361 128.745145 
L 140.285417 128.228096 
L 141.978472 127.711047 
L 143.671528 127.193997 
L 145.364583 126.676948 
L 147.057639 126.159899 
L 148.750694 125.642849 
L 150.44375 125.1258 
L 152.136806 124.608751 
L 153.829861 124.091701 
L 155.522917 123.574652 
L 157.215972 123.057602 
L 158.909028 122.540553 
L 160.602083 122.023504 
L 162.295139 121.506454 
L 163.988194 120.989405 
L 165.68125 120.472356 
L 167.374306 119.955306 
L 169.067361 119.438257 
L 170.760417 118.921208 
L 172.453472 118.404158 
L 174.146528 117.887109 
L 175.839583 117.37006 
L 177.532639 116.85301 
L 179.225694 116.335961 
L 180.91875 115.818912 
L 182.611806 115.301862 
L 184.304861 114.784813 
L 185.997917 114.267764 
L 187.690972 113.750714 
L 189.384028 113.233665 
L 191.077083 112.716616 
L 192.770139 112.199566 
L 194.463194 111.682517 
L 196.15625 111.165468 
L 197.849306 110.648418 
L 199.542361 110.131369 
L 201.235417 109.614319 
L 202.928472 109.09727 
L 204.621528 108.580221 
L 206.314583 108.063171 
L 208.007639 107.546122 
L 209.700694 107.029073 
L 211.39375 106.512023 
" style="fill:none;stroke:#1f77b4;stroke-linecap:square;stroke-width:2.25;"/>
   </g>
   <g id="patch_3">
    <path d="M 43.78125 247.64 
L 43.78125 48.04 
" style="fill:none;stroke:#000000;stroke-linecap:square;stroke-linejoin:miter;stroke-width:0.8;"/>
   </g>
   <g id="patch_4">
    <path d="M 211.39375 247.64 
L 211.39375 48.04 
" style="fill:none;stroke:#000000;stroke-linecap:square;stroke-linejoin:miter;stroke-width:0.8;"/>
   </g>
   <g id="patch_5">
    <path d="M 43.78125 247.64 
L 211.39375 247.64 
" style="fill:none;stroke:#000000;stroke-linecap:square;stroke-linejoin:miter;stroke-width:0.8;"/>
   </g>
   <g id="patch_6">
    <path d="M 43.78125 48.04 
L 211.39375 48.04 
" style="fill:none;stroke:#000000;stroke-linecap:square;stroke-linejoin:miter;stroke-width:0.8;"/>
   </g>
   <g id="text_13">
    <!-- Group A -->
    <g transform="translate(43.78125 42.04)scale(0.12 -0.12)">
     <defs>
      <path d="M 59.515625 10.40625 
L 59.515625 29.984375 
L 43.40625 29.984375 
L 43.40625 38.09375 
L 69.28125 38.09375 
L 69.28125 6.78125 
Q 63.578125 2.734375 56.6875 0.65625 
Q 49.8125 -1.421875 42 -1.421875 
Q 24.90625 -1.421875 15.25 8.5625 
Q 5.609375 18.5625 5.609375 36.375 
Q 5.609375 54.25 15.25 64.234375 
Q 24.90625 74.21875 42 74.21875 
Q 49.125 74.21875 55.546875 72.453125 
Q 61.96875 70.703125 67.390625 67.28125 
L 67.390625 56.78125 
Q 61.921875 61.421875 55.765625 63.765625 
Q 49.609375 66.109375 42.828125 66.109375 
Q 29.4375 66.109375 22.71875 58.640625 
Q 16.015625 51.171875 16.015625 36.375 
Q 16.015625 21.625 22.71875 14.15625 
Q 29.4375 6.6875 42.828125 6.6875 
Q 48.046875 6.6875 52.140625 7.59375 
Q 56.25 8.5 59.515625 10.40625 
z
" id="DejaVuSans-71"/>
      <path d="M 30.609375 48.390625 
Q 23.390625 48.390625 19.1875 42.75 
Q 14.984375 37.109375 14.984375 27.296875 
Q 14.984375 17.484375 19.15625 11.84375 
Q 23.34375 6.203125 30.609375 6.203125 
Q 37.796875 6.203125 41.984375 11.859375 
Q 46.1875 17.53125 46.1875 27.296875 
Q 46.1875 37.015625 41.984375 42.703125 
Q 37.796875 48.390625 30.609375 48.390625 
z
M 30.609375 56 
Q 42.328125 56 49.015625 48.375 
Q 55.71875 40.765625 55.71875 27.296875 
Q 55.71875 13.875 49.015625 6.21875 
Q 42.328125 -1.421875 30.609375 -1.421875 
Q 18.84375 -1.421875 12.171875 6.21875 
Q 5.515625 13.875 5.515625 27.296875 
Q 5.515625 40.765625 12.171875 48.375 
Q 18.84375 56 30.609375 56 
z
" id="DejaVuSans-111"/>
      <path d="M 8.5 21.578125 
L 8.5 54.6875 
L 17.484375 54.6875 
L 17.484375 21.921875 
Q 17.484375 14.15625 20.5 10.265625 
Q 23.53125 6.390625 29.59375 6.390625 
Q 36.859375 6.390625 41.078125 11.03125 
Q 45.3125 15.671875 45.3125 23.6875 
L 45.3125 54.6875 
L 54.296875 54.6875 
L 54.296875 0 
L 45.3125 0 
L 45.3125 8.40625 
Q 42.046875 3.421875 37.71875 1 
Q 33.40625 -1.421875 27.6875 -1.421875 
Q 18.265625 -1.421875 13.375 4.4375 
Q 8.5 10.296875 8.5 21.578125 
z
M 31.109375 56 
z
" id="DejaVuSans-117"/>
      <path d="M 18.109375 8.203125 
L 18.109375 -20.796875 
L 9.078125 -20.796875 
L 9.078125 54.6875 
L 18.109375 54.6875 
L 18.109375 46.390625 
Q 20.953125 51.265625 25.265625 53.625 
Q 29.59375 56 35.59375 56 
Q 45.5625 56 51.78125 48.09375 
Q 58.015625 40.1875 58.015625 27.296875 
Q 58.015625 14.40625 51.78125 6.484375 
Q 45.5625 -1.421875 35.59375 -1.421875 
Q 29.59375 -1.421875 25.265625 0.953125 
Q 20.953125 3.328125 18.109375 8.203125 
z
M 48.6875 27.296875 
Q 48.6875 37.203125 44.609375 42.84375 
Q 40.53125 48.484375 33.40625 48.484375 
Q 26.265625 48.484375 22.1875 42.84375 
Q 18.109375 37.203125 18.109375 27.296875 
Q 18.109375 17.390625 22.1875 11.75 
Q 26.265625 6.109375 33.40625 6.109375 
Q 40.53125 6.109375 44.609375 11.75 
Q 48.6875 17.390625 48.6875 27.296875 
z
" id="DejaVuSans-112"/>
      <path id="DejaVuSans-32"/>
      <path d="M 34.1875 63.1875 
L 20.796875 26.90625 
L 47.609375 26.90625 
z
M 28.609375 72.90625 
L 39.796875 72.90625 
L 67.578125 0 
L 57.328125 0 
L 50.6875 18.703125 
L 17.828125 18.703125 
L 11.1875 0 
L 0.78125 0 
z
" id="DejaVuSans-65"/>
     </defs>
     <use xlink:href="#DejaVuSans-71"/>
     <use x="77.490234" xlink:href="#DejaVuSans-114"/>
     <use x="116.353516" xlink:href="#DejaVuSans-111"/>
     <use x="177.535156" xlink:href="#DejaVuSans-117"/>
     <use x="240.914062" xlink:href="#DejaVuSans-112"/>
     <use x="304.390625" xlink:href="#DejaVuSans-32"/>
     <use x="336.177734" xlink:href="#DejaVuSans-65"/>
    </g>
   </g>
  </g>
  <g id="axes_2">
   <g id="patch_7">
    <path d="M 249.56875 247.64 
L 417.18125 247.64 
L 417.18125 48.04 
L 249.56875 48.04 
z
" style="fill:#ffffff;"/>
   </g>
   <g id="PathCollection_2">
    <g clip-path="url(#p3bac4efa9f)">
     <use style="fill:#1f77b4;fill-opacity:0.8;stroke:#1f77b4;stroke-opacity:0.8;" x="249.56875" xlink:href="#m953d31e72f" y="166.337949"/>
     <use style="fill:#1f77b4;fill-opacity:0.8;stroke:#1f77b4;stroke-opacity:0.8;" x="262.462019" xlink:href="#m953d31e72f" y="130.223287"/>
     <use style="fill:#1f77b4;fill-opacity:0.8;stroke:#1f77b4;stroke-opacity:0.8;" x="378.501442" xlink:href="#m953d31e72f" y="94.108625"/>
     <use style="fill:#1f77b4;fill-opacity:0.8;stroke:#1f77b4;stroke-opacity:0.8;" x="339.821635" xlink:href="#m953d31e72f" y="130.223287"/>
     <use style="fill:#1f77b4;fill-opacity:0.8;stroke:#1f77b4;stroke-opacity:0.8;" x="314.035096" xlink:href="#m953d31e72f" y="94.108625"/>
     <use style="fill:#1f77b4;fill-opacity:0.8;stroke:#1f77b4;stroke-opacity:0.8;" x="378.501442" xlink:href="#m953d31e72f" y="94.108625"/>
     <use style="fill:#1f77b4;fill-opacity:0.8;stroke:#1f77b4;stroke-opacity:0.8;" x="314.035096" xlink:href="#m953d31e72f" y="94.108625"/>
     <use style="fill:#1f77b4;fill-opacity:0.8;stroke:#1f77b4;stroke-opacity:0.8;" x="339.821635" xlink:href="#m953d31e72f" y="238.567273"/>
     <use style="fill:#1f77b4;fill-opacity:0.8;stroke:#1f77b4;stroke-opacity:0.8;" x="339.821635" xlink:href="#m953d31e72f" y="57.993963"/>
     <use style="fill:#1f77b4;fill-opacity:0.8;stroke:#1f77b4;stroke-opacity:0.8;" x="365.608173" xlink:href="#m953d31e72f" y="57.993963"/>
     <use style="fill:#1f77b4;fill-opacity:0.8;stroke:#1f77b4;stroke-opacity:0.8;" x="339.821635" xlink:href="#m953d31e72f" y="130.223287"/>
     <use style="fill:#1f77b4;fill-opacity:0.8;stroke:#1f77b4;stroke-opacity:0.8;" x="378.501442" xlink:href="#m953d31e72f" y="94.108625"/>
     <use style="fill:#1f77b4;fill-opacity:0.8;stroke:#1f77b4;stroke-opacity:0.8;" x="339.821635" xlink:href="#m953d31e72f" y="166.337949"/>
     <use style="fill:#1f77b4;fill-opacity:0.8;stroke:#1f77b4;stroke-opacity:0.8;" x="391.394712" xlink:href="#m953d31e72f" y="94.108625"/>
     <use style="fill:#1f77b4;fill-opacity:0.8;stroke:#1f77b4;stroke-opacity:0.8;" x="352.714904" xlink:href="#m953d31e72f" y="94.108625"/>
     <use style="fill:#1f77b4;fill-opacity:0.8;stroke:#1f77b4;stroke-opacity:0.8;" x="391.394712" xlink:href="#m953d31e72f" y="94.108625"/>
     <use style="fill:#1f77b4;fill-opacity:0.8;stroke:#1f77b4;stroke-opacity:0.8;" x="352.714904" xlink:href="#m953d31e72f" y="130.223287"/>
     <use style="fill:#1f77b4;fill-opacity:0.8;stroke:#1f77b4;stroke-opacity:0.8;" x="314.035096" xlink:href="#m953d31e72f" y="94.108625"/>
     <use style="fill:#1f77b4;fill-opacity:0.8;stroke:#1f77b4;stroke-opacity:0.8;" x="365.608173" xlink:href="#m953d31e72f" y="57.993963"/>
     <use style="fill:#1f77b4;fill-opacity:0.8;stroke:#1f77b4;stroke-opacity:0.8;" x="275.355288" xlink:href="#m953d31e72f" y="238.567273"/>
     <use style="fill:#1f77b4;fill-opacity:0.8;stroke:#1f77b4;stroke-opacity:0.8;" x="417.18125" xlink:href="#m953d31e72f" y="130.223287"/>
     <use style="fill:#1f77b4;fill-opacity:0.8;stroke:#1f77b4;stroke-opacity:0.8;" x="314.035096" xlink:href="#m953d31e72f" y="94.108625"/>
     <use style="fill:#1f77b4;fill-opacity:0.8;stroke:#1f77b4;stroke-opacity:0.8;" x="365.608173" xlink:href="#m953d31e72f" y="57.993963"/>
     <use style="fill:#1f77b4;fill-opacity:0.8;stroke:#1f77b4;stroke-opacity:0.8;" x="378.501442" xlink:href="#m953d31e72f" y="166.337949"/>
     <use style="fill:#1f77b4;fill-opacity:0.8;stroke:#1f77b4;stroke-opacity:0.8;" x="378.501442" xlink:href="#m953d31e72f" y="130.223287"/>
     <use style="fill:#1f77b4;fill-opacity:0.8;stroke:#1f77b4;stroke-opacity:0.8;" x="314.035096" xlink:href="#m953d31e72f" y="94.108625"/>
     <use style="fill:#1f77b4;fill-opacity:0.8;stroke:#1f77b4;stroke-opacity:0.8;" x="314.035096" xlink:href="#m953d31e72f" y="94.108625"/>
     <use style="fill:#1f77b4;fill-opacity:0.8;stroke:#1f77b4;stroke-opacity:0.8;" x="314.035096" xlink:href="#m953d31e72f" y="94.108625"/>
     <use style="fill:#1f77b4;fill-opacity:0.8;stroke:#1f77b4;stroke-opacity:0.8;" x="378.501442" xlink:href="#m953d31e72f" y="94.108625"/>
     <use style="fill:#1f77b4;fill-opacity:0.8;stroke:#1f77b4;stroke-opacity:0.8;" x="378.501442" xlink:href="#m953d31e72f" y="94.108625"/>
     <use style="fill:#1f77b4;fill-opacity:0.8;stroke:#1f77b4;stroke-opacity:0.8;" x="249.56875" xlink:href="#m953d31e72f" y="130.223287"/>
     <use style="fill:#1f77b4;fill-opacity:0.8;stroke:#1f77b4;stroke-opacity:0.8;" x="326.928365" xlink:href="#m953d31e72f" y="130.223287"/>
     <use style="fill:#1f77b4;fill-opacity:0.8;stroke:#1f77b4;stroke-opacity:0.8;" x="352.714904" xlink:href="#m953d31e72f" y="130.223287"/>
     <use style="fill:#1f77b4;fill-opacity:0.8;stroke:#1f77b4;stroke-opacity:0.8;" x="314.035096" xlink:href="#m953d31e72f" y="130.223287"/>
     <use style="fill:#1f77b4;fill-opacity:0.8;stroke:#1f77b4;stroke-opacity:0.8;" x="339.821635" xlink:href="#m953d31e72f" y="94.108625"/>
     <use style="fill:#1f77b4;fill-opacity:0.8;stroke:#1f77b4;stroke-opacity:0.8;" x="326.928365" xlink:href="#m953d31e72f" y="94.108625"/>
     <use style="fill:#1f77b4;fill-opacity:0.8;stroke:#1f77b4;stroke-opacity:0.8;" x="314.035096" xlink:href="#m953d31e72f" y="130.223287"/>
     <use style="fill:#1f77b4;fill-opacity:0.8;stroke:#1f77b4;stroke-opacity:0.8;" x="365.608173" xlink:href="#m953d31e72f" y="57.993963"/>
     <use style="fill:#1f77b4;fill-opacity:0.8;stroke:#1f77b4;stroke-opacity:0.8;" x="314.035096" xlink:href="#m953d31e72f" y="94.108625"/>
     <use style="fill:#1f77b4;fill-opacity:0.8;stroke:#1f77b4;stroke-opacity:0.8;" x="314.035096" xlink:href="#m953d31e72f" y="130.223287"/>
     <use style="fill:#1f77b4;fill-opacity:0.8;stroke:#1f77b4;stroke-opacity:0.8;" x="314.035096" xlink:href="#m953d31e72f" y="57.993963"/>
     <use style="fill:#1f77b4;fill-opacity:0.8;stroke:#1f77b4;stroke-opacity:0.8;" x="378.501442" xlink:href="#m953d31e72f" y="57.993963"/>
    </g>
   </g>
   <g id="PolyCollection_2">
    <path clip-path="url(#p3bac4efa9f)" d="M 249.56875 108.376884 
L 249.56875 174.794252 
L 251.261806 173.625128 
L 252.954861 172.394769 
L 254.647917 171.325643 
L 256.340972 170.124641 
L 258.034028 168.922912 
L 259.727083 167.788709 
L 261.420139 166.727184 
L 263.113194 165.665659 
L 264.80625 164.604134 
L 266.499306 163.511607 
L 268.192361 162.329205 
L 269.885417 161.234321 
L 271.578472 160.243263 
L 273.271528 159.01069 
L 274.964583 158.023647 
L 276.657639 157.035372 
L 278.350694 156.047096 
L 280.04375 155.058821 
L 281.736806 154.019668 
L 283.429861 152.961262 
L 285.122917 151.875276 
L 286.815972 150.740754 
L 288.509028 149.606232 
L 290.202083 148.471709 
L 291.895139 147.468822 
L 293.588194 146.353228 
L 295.28125 145.299679 
L 296.974306 144.441028 
L 298.667361 143.357645 
L 300.360417 142.442484 
L 302.053472 141.533421 
L 303.746528 140.515669 
L 305.439583 139.342477 
L 307.132639 138.454708 
L 308.825694 137.57881 
L 310.51875 136.840099 
L 312.211806 136.056556 
L 313.904861 135.058323 
L 315.597917 134.266952 
L 317.290972 133.420386 
L 318.984028 132.375959 
L 320.677083 131.386807 
L 322.370139 130.397656 
L 324.063194 129.35465 
L 325.75625 128.64984 
L 327.449306 127.980239 
L 329.142361 127.275422 
L 330.835417 126.373465 
L 332.528472 125.469962 
L 334.221528 124.556537 
L 335.914583 123.758136 
L 337.607639 123.183933 
L 339.300694 122.606057 
L 340.99375 121.995663 
L 342.686806 121.347631 
L 344.379861 120.667517 
L 346.072917 120.071332 
L 347.765972 119.477929 
L 349.459028 118.885813 
L 351.152083 118.544152 
L 352.845139 117.993127 
L 354.538194 117.269054 
L 356.23125 116.870557 
L 357.924306 116.531808 
L 359.617361 116.284099 
L 361.310417 116.113371 
L 363.003472 115.666421 
L 364.696528 115.251224 
L 366.389583 115.012054 
L 368.082639 114.654989 
L 369.775694 114.278711 
L 371.46875 114.101278 
L 373.161806 113.965826 
L 374.854861 113.61192 
L 376.547917 113.256254 
L 378.240972 113.10305 
L 379.934028 112.713176 
L 381.627083 112.26921 
L 383.320139 112.085971 
L 385.013194 112.022378 
L 386.70625 111.919056 
L 388.399306 111.841629 
L 390.092361 111.243726 
L 391.785417 110.643101 
L 393.478472 110.616137 
L 395.171528 110.671665 
L 396.864583 110.34173 
L 398.557639 110.017383 
L 400.250694 109.695386 
L 401.94375 109.561192 
L 403.636806 109.419101 
L 405.329861 109.17058 
L 407.022917 109.095913 
L 408.715972 109.083621 
L 410.409028 108.882524 
L 412.102083 108.653611 
L 413.795139 108.420313 
L 415.488194 108.186436 
L 417.18125 108.087632 
L 417.18125 57.112727 
L 417.18125 57.112727 
L 415.488194 58.162268 
L 413.795139 59.163159 
L 412.102083 60.165058 
L 410.409028 61.199554 
L 408.715972 62.23405 
L 407.022917 63.268547 
L 405.329861 64.301698 
L 403.636806 65.163724 
L 401.94375 66.185141 
L 400.250694 67.198797 
L 398.557639 68.367251 
L 396.864583 69.240763 
L 395.171528 70.172865 
L 393.478472 71.371955 
L 391.785417 72.35384 
L 390.092361 73.265072 
L 388.399306 74.229582 
L 386.70625 75.275836 
L 385.013194 76.315632 
L 383.320139 77.371739 
L 381.627083 78.416729 
L 379.934028 79.41856 
L 378.240972 80.333526 
L 376.547917 81.25156 
L 374.854861 82.417576 
L 373.161806 83.518665 
L 371.46875 84.346566 
L 369.775694 85.487524 
L 368.082639 86.658058 
L 366.389583 87.61102 
L 364.696528 88.532047 
L 363.003472 89.191919 
L 361.310417 90.061856 
L 359.617361 90.834074 
L 357.924306 91.613292 
L 356.23125 92.596738 
L 354.538194 93.559016 
L 352.845139 94.341713 
L 351.152083 94.987272 
L 349.459028 95.492672 
L 347.765972 95.966069 
L 346.072917 96.63379 
L 344.379861 97.365685 
L 342.686806 97.89275 
L 340.99375 98.59342 
L 339.300694 99.245554 
L 337.607639 99.596708 
L 335.914583 99.942186 
L 334.221528 100.541476 
L 332.528472 100.674614 
L 330.835417 101.093725 
L 329.142361 101.403714 
L 327.449306 101.688894 
L 325.75625 102.034012 
L 324.063194 102.379864 
L 322.370139 102.654444 
L 320.677083 102.790364 
L 318.984028 102.925385 
L 317.290972 103.119742 
L 315.597917 103.251473 
L 313.904861 103.383204 
L 312.211806 103.51498 
L 310.51875 103.927214 
L 308.825694 104.375444 
L 307.132639 104.344149 
L 305.439583 104.552794 
L 303.746528 104.903628 
L 302.053472 105.249318 
L 300.360417 105.337025 
L 298.667361 105.373084 
L 296.974306 105.360488 
L 295.28125 105.385646 
L 293.588194 105.53454 
L 291.895139 105.528975 
L 290.202083 105.445764 
L 288.509028 105.424401 
L 286.815972 105.62521 
L 285.122917 105.826019 
L 283.429861 106.026828 
L 281.736806 106.01587 
L 280.04375 106.044575 
L 278.350694 106.146257 
L 276.657639 106.270978 
L 274.964583 106.3957 
L 273.271528 106.520422 
L 271.578472 106.645143 
L 269.885417 106.769865 
L 268.192361 106.897989 
L 266.499306 107.033577 
L 264.80625 107.137491 
L 263.113194 107.229113 
L 261.420139 107.320734 
L 259.727083 107.412356 
L 258.034028 107.503977 
L 256.340972 107.595599 
L 254.647917 107.687221 
L 252.954861 107.920767 
L 251.261806 108.205532 
L 249.56875 108.376884 
z
" style="fill:#1f77b4;fill-opacity:0.15;"/>
   </g>
   <g id="matplotlib.axis_3">
    <g id="xtick_4">
     <g id="line2d_12">
      <g>
       <use style="stroke:#000000;stroke-width:0.8;" x="288.248558" xlink:href="#m9c804e3fd7" y="247.64"/>
      </g>
     </g>
     <g id="text_14">
      <!-- 2 -->
      <g transform="translate(285.067308 262.238437)scale(0.1 -0.1)">
       <use xlink:href="#DejaVuSans-50"/>
      </g>
     </g>
    </g>
    <g id="xtick_5">
     <g id="line2d_13">
      <g>
       <use style="stroke:#000000;stroke-width:0.8;" x="339.821635" xlink:href="#m9c804e3fd7" y="247.64"/>
      </g>
     </g>
     <g id="text_15">
      <!-- 3 -->
      <g transform="translate(336.640385 262.238437)scale(0.1 -0.1)">
       <use xlink:href="#DejaVuSans-51"/>
      </g>
     </g>
    </g>
    <g id="xtick_6">
     <g id="line2d_14">
      <g>
       <use style="stroke:#000000;stroke-width:0.8;" x="391.394712" xlink:href="#m9c804e3fd7" y="247.64"/>
      </g>
     </g>
     <g id="text_16">
      <!-- 4 -->
      <g transform="translate(388.213462 262.238437)scale(0.1 -0.1)">
       <use xlink:href="#DejaVuSans-52"/>
      </g>
     </g>
    </g>
    <g id="text_17">
     <!-- E -->
     <g transform="translate(330.215625 275.916562)scale(0.1 -0.1)">
      <use xlink:href="#DejaVuSans-69"/>
     </g>
    </g>
   </g>
   <g id="matplotlib.axis_4">
    <g id="ytick_8">
     <g id="line2d_15">
      <g>
       <use style="stroke:#000000;stroke-width:0.8;" x="249.56875" xlink:href="#ma5ed174017" y="238.567273"/>
      </g>
     </g>
     <g id="text_18">
      <!-- 2 -->
      <g transform="translate(236.20625 242.366491)scale(0.1 -0.1)">
       <use xlink:href="#DejaVuSans-50"/>
      </g>
     </g>
    </g>
    <g id="ytick_9">
     <g id="line2d_16">
      <g>
       <use style="stroke:#000000;stroke-width:0.8;" x="249.56875" xlink:href="#ma5ed174017" y="202.452611"/>
      </g>
     </g>
     <g id="text_19">
      <!-- 3 -->
      <g transform="translate(236.20625 206.251829)scale(0.1 -0.1)">
       <use xlink:href="#DejaVuSans-51"/>
      </g>
     </g>
    </g>
    <g id="ytick_10">
     <g id="line2d_17">
      <g>
       <use style="stroke:#000000;stroke-width:0.8;" x="249.56875" xlink:href="#ma5ed174017" y="166.337949"/>
      </g>
     </g>
     <g id="text_20">
      <!-- 4 -->
      <g transform="translate(236.20625 170.137167)scale(0.1 -0.1)">
       <use xlink:href="#DejaVuSans-52"/>
      </g>
     </g>
    </g>
    <g id="ytick_11">
     <g id="line2d_18">
      <g>
       <use style="stroke:#000000;stroke-width:0.8;" x="249.56875" xlink:href="#ma5ed174017" y="130.223287"/>
      </g>
     </g>
     <g id="text_21">
      <!-- 5 -->
      <g transform="translate(236.20625 134.022505)scale(0.1 -0.1)">
       <use xlink:href="#DejaVuSans-53"/>
      </g>
     </g>
    </g>
    <g id="ytick_12">
     <g id="line2d_19">
      <g>
       <use style="stroke:#000000;stroke-width:0.8;" x="249.56875" xlink:href="#ma5ed174017" y="94.108625"/>
      </g>
     </g>
     <g id="text_22">
      <!-- 6 -->
      <g transform="translate(236.20625 97.907843)scale(0.1 -0.1)">
       <use xlink:href="#DejaVuSans-54"/>
      </g>
     </g>
    </g>
    <g id="ytick_13">
     <g id="line2d_20">
      <g>
       <use style="stroke:#000000;stroke-width:0.8;" x="249.56875" xlink:href="#ma5ed174017" y="57.993963"/>
      </g>
     </g>
     <g id="text_23">
      <!-- 7 -->
      <g transform="translate(236.20625 61.793181)scale(0.1 -0.1)">
       <use xlink:href="#DejaVuSans-55"/>
      </g>
     </g>
    </g>
    <g id="text_24">
     <!-- Offering2 -->
     <g transform="translate(230.126562 171.341562)rotate(-90)scale(0.1 -0.1)">
      <use xlink:href="#DejaVuSans-79"/>
      <use x="78.710938" xlink:href="#DejaVuSans-102"/>
      <use x="113.916016" xlink:href="#DejaVuSans-102"/>
      <use x="149.121094" xlink:href="#DejaVuSans-101"/>
      <use x="210.644531" xlink:href="#DejaVuSans-114"/>
      <use x="251.757812" xlink:href="#DejaVuSans-105"/>
      <use x="279.541016" xlink:href="#DejaVuSans-110"/>
      <use x="342.919922" xlink:href="#DejaVuSans-103"/>
      <use x="406.396484" xlink:href="#DejaVuSans-50"/>
     </g>
    </g>
   </g>
   <g id="line2d_21">
    <path clip-path="url(#p3bac4efa9f)" d="M 249.56875 141.222225 
L 251.261806 140.640943 
L 252.954861 140.059661 
L 254.647917 139.478379 
L 256.340972 138.897097 
L 258.034028 138.315815 
L 259.727083 137.734532 
L 261.420139 137.15325 
L 263.113194 136.571968 
L 264.80625 135.990686 
L 266.499306 135.409404 
L 268.192361 134.828122 
L 269.885417 134.24684 
L 271.578472 133.665557 
L 273.271528 133.084275 
L 274.964583 132.502993 
L 276.657639 131.921711 
L 278.350694 131.340429 
L 280.04375 130.759147 
L 281.736806 130.177864 
L 283.429861 129.596582 
L 285.122917 129.0153 
L 286.815972 128.434018 
L 288.509028 127.852736 
L 290.202083 127.271454 
L 291.895139 126.690172 
L 293.588194 126.108889 
L 295.28125 125.527607 
L 296.974306 124.946325 
L 298.667361 124.365043 
L 300.360417 123.783761 
L 302.053472 123.202479 
L 303.746528 122.621196 
L 305.439583 122.039914 
L 307.132639 121.458632 
L 308.825694 120.87735 
L 310.51875 120.296068 
L 312.211806 119.714786 
L 313.904861 119.133504 
L 315.597917 118.552221 
L 317.290972 117.970939 
L 318.984028 117.389657 
L 320.677083 116.808375 
L 322.370139 116.227093 
L 324.063194 115.645811 
L 325.75625 115.064529 
L 327.449306 114.483246 
L 329.142361 113.901964 
L 330.835417 113.320682 
L 332.528472 112.7394 
L 334.221528 112.158118 
L 335.914583 111.576836 
L 337.607639 110.995553 
L 339.300694 110.414271 
L 340.99375 109.832989 
L 342.686806 109.251707 
L 344.379861 108.670425 
L 346.072917 108.089143 
L 347.765972 107.507861 
L 349.459028 106.926578 
L 351.152083 106.345296 
L 352.845139 105.764014 
L 354.538194 105.182732 
L 356.23125 104.60145 
L 357.924306 104.020168 
L 359.617361 103.438886 
L 361.310417 102.857603 
L 363.003472 102.276321 
L 364.696528 101.695039 
L 366.389583 101.113757 
L 368.082639 100.532475 
L 369.775694 99.951193 
L 371.46875 99.36991 
L 373.161806 98.788628 
L 374.854861 98.207346 
L 376.547917 97.626064 
L 378.240972 97.044782 
L 379.934028 96.4635 
L 381.627083 95.882218 
L 383.320139 95.300935 
L 385.013194 94.719653 
L 386.70625 94.138371 
L 388.399306 93.557089 
L 390.092361 92.975807 
L 391.785417 92.394525 
L 393.478472 91.813242 
L 395.171528 91.23196 
L 396.864583 90.650678 
L 398.557639 90.069396 
L 400.250694 89.488114 
L 401.94375 88.906832 
L 403.636806 88.32555 
L 405.329861 87.744267 
L 407.022917 87.162985 
L 408.715972 86.581703 
L 410.409028 86.000421 
L 412.102083 85.419139 
L 413.795139 84.837857 
L 415.488194 84.256575 
L 417.18125 83.675292 
" style="fill:none;stroke:#1f77b4;stroke-linecap:square;stroke-width:2.25;"/>
   </g>
   <g id="patch_8">
    <path d="M 249.56875 247.64 
L 249.56875 48.04 
" style="fill:none;stroke:#000000;stroke-linecap:square;stroke-linejoin:miter;stroke-width:0.8;"/>
   </g>
   <g id="patch_9">
    <path d="M 417.18125 247.64 
L 417.18125 48.04 
" style="fill:none;stroke:#000000;stroke-linecap:square;stroke-linejoin:miter;stroke-width:0.8;"/>
   </g>
   <g id="patch_10">
    <path d="M 249.56875 247.64 
L 417.18125 247.64 
" style="fill:none;stroke:#000000;stroke-linecap:square;stroke-linejoin:miter;stroke-width:0.8;"/>
   </g>
   <g id="patch_11">
    <path d="M 249.56875 48.04 
L 417.18125 48.04 
" style="fill:none;stroke:#000000;stroke-linecap:square;stroke-linejoin:miter;stroke-width:0.8;"/>
   </g>
   <g id="text_25">
    <!-- Group B -->
    <g transform="translate(249.56875 42.04)scale(0.12 -0.12)">
     <defs>
      <path d="M 19.671875 34.8125 
L 19.671875 8.109375 
L 35.5 8.109375 
Q 43.453125 8.109375 47.28125 11.40625 
Q 51.125 14.703125 51.125 21.484375 
Q 51.125 28.328125 47.28125 31.5625 
Q 43.453125 34.8125 35.5 34.8125 
z
M 19.671875 64.796875 
L 19.671875 42.828125 
L 34.28125 42.828125 
Q 41.5 42.828125 45.03125 45.53125 
Q 48.578125 48.25 48.578125 53.8125 
Q 48.578125 59.328125 45.03125 62.0625 
Q 41.5 64.796875 34.28125 64.796875 
z
M 9.8125 72.90625 
L 35.015625 72.90625 
Q 46.296875 72.90625 52.390625 68.21875 
Q 58.5 63.53125 58.5 54.890625 
Q 58.5 48.1875 55.375 44.234375 
Q 52.25 40.28125 46.1875 39.3125 
Q 53.46875 37.75 57.5 32.78125 
Q 61.53125 27.828125 61.53125 20.40625 
Q 61.53125 10.640625 54.890625 5.3125 
Q 48.25 0 35.984375 0 
L 9.8125 0 
z
" id="DejaVuSans-66"/>
     </defs>
     <use xlink:href="#DejaVuSans-71"/>
     <use x="77.490234" xlink:href="#DejaVuSans-114"/>
     <use x="116.353516" xlink:href="#DejaVuSans-111"/>
     <use x="177.535156" xlink:href="#DejaVuSans-117"/>
     <use x="240.914062" xlink:href="#DejaVuSans-112"/>
     <use x="304.390625" xlink:href="#DejaVuSans-32"/>
     <use x="336.177734" xlink:href="#DejaVuSans-66"/>
    </g>
   </g>
  </g>
  <g id="text_26">
   <!-- How probable is it that you would accept the chatbots offer to help find a bike? -->
   <g transform="translate(45.568024 13.529498)scale(0.0833 -0.0833)">
    <defs>
     <path d="M 9.8125 72.90625 
L 19.671875 72.90625 
L 19.671875 43.015625 
L 55.515625 43.015625 
L 55.515625 72.90625 
L 65.375 72.90625 
L 65.375 0 
L 55.515625 0 
L 55.515625 34.71875 
L 19.671875 34.71875 
L 19.671875 0 
L 9.8125 0 
z
" id="DejaVuSans-72"/>
     <path d="M 4.203125 54.6875 
L 13.1875 54.6875 
L 24.421875 12.015625 
L 35.59375 54.6875 
L 46.1875 54.6875 
L 57.421875 12.015625 
L 68.609375 54.6875 
L 77.59375 54.6875 
L 63.28125 0 
L 52.6875 0 
L 40.921875 44.828125 
L 29.109375 0 
L 18.5 0 
z
" id="DejaVuSans-119"/>
     <path d="M 48.6875 27.296875 
Q 48.6875 37.203125 44.609375 42.84375 
Q 40.53125 48.484375 33.40625 48.484375 
Q 26.265625 48.484375 22.1875 42.84375 
Q 18.109375 37.203125 18.109375 27.296875 
Q 18.109375 17.390625 22.1875 11.75 
Q 26.265625 6.109375 33.40625 6.109375 
Q 40.53125 6.109375 44.609375 11.75 
Q 48.6875 17.390625 48.6875 27.296875 
z
M 18.109375 46.390625 
Q 20.953125 51.265625 25.265625 53.625 
Q 29.59375 56 35.59375 56 
Q 45.5625 56 51.78125 48.09375 
Q 58.015625 40.1875 58.015625 27.296875 
Q 58.015625 14.40625 51.78125 6.484375 
Q 45.5625 -1.421875 35.59375 -1.421875 
Q 29.59375 -1.421875 25.265625 0.953125 
Q 20.953125 3.328125 18.109375 8.203125 
L 18.109375 0 
L 9.078125 0 
L 9.078125 75.984375 
L 18.109375 75.984375 
z
" id="DejaVuSans-98"/>
     <path d="M 34.28125 27.484375 
Q 23.390625 27.484375 19.1875 25 
Q 14.984375 22.515625 14.984375 16.5 
Q 14.984375 11.71875 18.140625 8.90625 
Q 21.296875 6.109375 26.703125 6.109375 
Q 34.1875 6.109375 38.703125 11.40625 
Q 43.21875 16.703125 43.21875 25.484375 
L 43.21875 27.484375 
z
M 52.203125 31.203125 
L 52.203125 0 
L 43.21875 0 
L 43.21875 8.296875 
Q 40.140625 3.328125 35.546875 0.953125 
Q 30.953125 -1.421875 24.3125 -1.421875 
Q 15.921875 -1.421875 10.953125 3.296875 
Q 6 8.015625 6 15.921875 
Q 6 25.140625 12.171875 29.828125 
Q 18.359375 34.515625 30.609375 34.515625 
L 43.21875 34.515625 
L 43.21875 35.40625 
Q 43.21875 41.609375 39.140625 45 
Q 35.0625 48.390625 27.6875 48.390625 
Q 23 48.390625 18.546875 47.265625 
Q 14.109375 46.140625 10.015625 43.890625 
L 10.015625 52.203125 
Q 14.9375 54.109375 19.578125 55.046875 
Q 24.21875 56 28.609375 56 
Q 40.484375 56 46.34375 49.84375 
Q 52.203125 43.703125 52.203125 31.203125 
z
" id="DejaVuSans-97"/>
     <path d="M 9.421875 75.984375 
L 18.40625 75.984375 
L 18.40625 0 
L 9.421875 0 
z
" id="DejaVuSans-108"/>
     <path d="M 44.28125 53.078125 
L 44.28125 44.578125 
Q 40.484375 46.53125 36.375 47.5 
Q 32.28125 48.484375 27.875 48.484375 
Q 21.1875 48.484375 17.84375 46.4375 
Q 14.5 44.390625 14.5 40.28125 
Q 14.5 37.15625 16.890625 35.375 
Q 19.28125 33.59375 26.515625 31.984375 
L 29.59375 31.296875 
Q 39.15625 29.25 43.1875 25.515625 
Q 47.21875 21.78125 47.21875 15.09375 
Q 47.21875 7.46875 41.1875 3.015625 
Q 35.15625 -1.421875 24.609375 -1.421875 
Q 20.21875 -1.421875 15.453125 -0.5625 
Q 10.6875 0.296875 5.421875 2 
L 5.421875 11.28125 
Q 10.40625 8.6875 15.234375 7.390625 
Q 20.0625 6.109375 24.8125 6.109375 
Q 31.15625 6.109375 34.5625 8.28125 
Q 37.984375 10.453125 37.984375 14.40625 
Q 37.984375 18.0625 35.515625 20.015625 
Q 33.0625 21.96875 24.703125 23.78125 
L 21.578125 24.515625 
Q 13.234375 26.265625 9.515625 29.90625 
Q 5.8125 33.546875 5.8125 39.890625 
Q 5.8125 47.609375 11.28125 51.796875 
Q 16.75 56 26.8125 56 
Q 31.78125 56 36.171875 55.265625 
Q 40.578125 54.546875 44.28125 53.078125 
z
" id="DejaVuSans-115"/>
     <path d="M 18.3125 70.21875 
L 18.3125 54.6875 
L 36.8125 54.6875 
L 36.8125 47.703125 
L 18.3125 47.703125 
L 18.3125 18.015625 
Q 18.3125 11.328125 20.140625 9.421875 
Q 21.96875 7.515625 27.59375 7.515625 
L 36.8125 7.515625 
L 36.8125 0 
L 27.59375 0 
Q 17.1875 0 13.234375 3.875 
Q 9.28125 7.765625 9.28125 18.015625 
L 9.28125 47.703125 
L 2.6875 47.703125 
L 2.6875 54.6875 
L 9.28125 54.6875 
L 9.28125 70.21875 
z
" id="DejaVuSans-116"/>
     <path d="M 54.890625 33.015625 
L 54.890625 0 
L 45.90625 0 
L 45.90625 32.71875 
Q 45.90625 40.484375 42.875 44.328125 
Q 39.84375 48.1875 33.796875 48.1875 
Q 26.515625 48.1875 22.3125 43.546875 
Q 18.109375 38.921875 18.109375 30.90625 
L 18.109375 0 
L 9.078125 0 
L 9.078125 75.984375 
L 18.109375 75.984375 
L 18.109375 46.1875 
Q 21.34375 51.125 25.703125 53.5625 
Q 30.078125 56 35.796875 56 
Q 45.21875 56 50.046875 50.171875 
Q 54.890625 44.34375 54.890625 33.015625 
z
" id="DejaVuSans-104"/>
     <path d="M 32.171875 -5.078125 
Q 28.375 -14.84375 24.75 -17.8125 
Q 21.140625 -20.796875 15.09375 -20.796875 
L 7.90625 -20.796875 
L 7.90625 -13.28125 
L 13.1875 -13.28125 
Q 16.890625 -13.28125 18.9375 -11.515625 
Q 21 -9.765625 23.484375 -3.21875 
L 25.09375 0.875 
L 2.984375 54.6875 
L 12.5 54.6875 
L 29.59375 11.921875 
L 46.6875 54.6875 
L 56.203125 54.6875 
z
" id="DejaVuSans-121"/>
     <path d="M 45.40625 46.390625 
L 45.40625 75.984375 
L 54.390625 75.984375 
L 54.390625 0 
L 45.40625 0 
L 45.40625 8.203125 
Q 42.578125 3.328125 38.25 0.953125 
Q 33.9375 -1.421875 27.875 -1.421875 
Q 17.96875 -1.421875 11.734375 6.484375 
Q 5.515625 14.40625 5.515625 27.296875 
Q 5.515625 40.1875 11.734375 48.09375 
Q 17.96875 56 27.875 56 
Q 33.9375 56 38.25 53.625 
Q 42.578125 51.265625 45.40625 46.390625 
z
M 14.796875 27.296875 
Q 14.796875 17.390625 18.875 11.75 
Q 22.953125 6.109375 30.078125 6.109375 
Q 37.203125 6.109375 41.296875 11.75 
Q 45.40625 17.390625 45.40625 27.296875 
Q 45.40625 37.203125 41.296875 42.84375 
Q 37.203125 48.484375 30.078125 48.484375 
Q 22.953125 48.484375 18.875 42.84375 
Q 14.796875 37.203125 14.796875 27.296875 
z
" id="DejaVuSans-100"/>
     <path d="M 48.78125 52.59375 
L 48.78125 44.1875 
Q 44.96875 46.296875 41.140625 47.34375 
Q 37.3125 48.390625 33.40625 48.390625 
Q 24.65625 48.390625 19.8125 42.84375 
Q 14.984375 37.3125 14.984375 27.296875 
Q 14.984375 17.28125 19.8125 11.734375 
Q 24.65625 6.203125 33.40625 6.203125 
Q 37.3125 6.203125 41.140625 7.25 
Q 44.96875 8.296875 48.78125 10.40625 
L 48.78125 2.09375 
Q 45.015625 0.34375 40.984375 -0.53125 
Q 36.96875 -1.421875 32.421875 -1.421875 
Q 20.0625 -1.421875 12.78125 6.34375 
Q 5.515625 14.109375 5.515625 27.296875 
Q 5.515625 40.671875 12.859375 48.328125 
Q 20.21875 56 33.015625 56 
Q 37.15625 56 41.109375 55.140625 
Q 45.0625 54.296875 48.78125 52.59375 
z
" id="DejaVuSans-99"/>
     <path d="M 12.703125 72.90625 
L 23 72.90625 
L 23 65.484375 
L 14.984375 49.90625 
L 8.6875 49.90625 
L 12.703125 65.484375 
z
" id="DejaVuSans-8217"/>
     <path d="M 9.078125 75.984375 
L 18.109375 75.984375 
L 18.109375 31.109375 
L 44.921875 54.6875 
L 56.390625 54.6875 
L 27.390625 29.109375 
L 57.625 0 
L 45.90625 0 
L 18.109375 26.703125 
L 18.109375 0 
L 9.078125 0 
z
" id="DejaVuSans-107"/>
     <path d="M 19.09375 12.40625 
L 29 12.40625 
L 29 0 
L 19.09375 0 
z
M 28.71875 19.578125 
L 19.390625 19.578125 
L 19.390625 27.09375 
Q 19.390625 32.03125 20.75 35.203125 
Q 22.125 38.375 26.515625 42.578125 
L 30.90625 46.921875 
Q 33.6875 49.515625 34.9375 51.8125 
Q 36.1875 54.109375 36.1875 56.5 
Q 36.1875 60.84375 32.984375 63.53125 
Q 29.78125 66.21875 24.515625 66.21875 
Q 20.65625 66.21875 16.28125 64.5 
Q 11.921875 62.796875 7.171875 59.515625 
L 7.171875 68.703125 
Q 11.765625 71.484375 16.46875 72.84375 
Q 21.1875 74.21875 26.21875 74.21875 
Q 35.203125 74.21875 40.640625 69.484375 
Q 46.09375 64.75 46.09375 56.984375 
Q 46.09375 53.265625 44.328125 49.921875 
Q 42.578125 46.578125 38.1875 42.390625 
L 33.890625 38.1875 
Q 31.59375 35.890625 30.640625 34.59375 
Q 29.6875 33.296875 29.296875 32.078125 
Q 29 31.0625 28.859375 29.59375 
Q 28.71875 28.125 28.71875 25.59375 
z
" id="DejaVuSans-63"/>
    </defs>
    <use xlink:href="#DejaVuSans-72"/>
    <use x="75.195312" xlink:href="#DejaVuSans-111"/>
    <use x="136.376953" xlink:href="#DejaVuSans-119"/>
    <use x="218.164062" xlink:href="#DejaVuSans-32"/>
    <use x="249.951172" xlink:href="#DejaVuSans-112"/>
    <use x="313.427734" xlink:href="#DejaVuSans-114"/>
    <use x="352.291016" xlink:href="#DejaVuSans-111"/>
    <use x="413.472656" xlink:href="#DejaVuSans-98"/>
    <use x="476.949219" xlink:href="#DejaVuSans-97"/>
    <use x="538.228516" xlink:href="#DejaVuSans-98"/>
    <use x="601.705078" xlink:href="#DejaVuSans-108"/>
    <use x="629.488281" xlink:href="#DejaVuSans-101"/>
    <use x="691.011719" xlink:href="#DejaVuSans-32"/>
    <use x="722.798828" xlink:href="#DejaVuSans-105"/>
    <use x="750.582031" xlink:href="#DejaVuSans-115"/>
    <use x="802.681641" xlink:href="#DejaVuSans-32"/>
    <use x="834.46875" xlink:href="#DejaVuSans-105"/>
    <use x="862.251953" xlink:href="#DejaVuSans-116"/>
    <use x="901.460938" xlink:href="#DejaVuSans-32"/>
    <use x="933.248047" xlink:href="#DejaVuSans-116"/>
    <use x="972.457031" xlink:href="#DejaVuSans-104"/>
    <use x="1035.835938" xlink:href="#DejaVuSans-97"/>
    <use x="1097.115234" xlink:href="#DejaVuSans-116"/>
    <use x="1136.324219" xlink:href="#DejaVuSans-32"/>
    <use x="1168.111328" xlink:href="#DejaVuSans-121"/>
    <use x="1227.291016" xlink:href="#DejaVuSans-111"/>
    <use x="1288.472656" xlink:href="#DejaVuSans-117"/>
    <use x="1351.851562" xlink:href="#DejaVuSans-32"/>
    <use x="1383.638672" xlink:href="#DejaVuSans-119"/>
    <use x="1465.425781" xlink:href="#DejaVuSans-111"/>
    <use x="1526.607422" xlink:href="#DejaVuSans-117"/>
    <use x="1589.986328" xlink:href="#DejaVuSans-108"/>
    <use x="1617.769531" xlink:href="#DejaVuSans-100"/>
    <use x="1681.246094" xlink:href="#DejaVuSans-32"/>
    <use x="1713.033203" xlink:href="#DejaVuSans-97"/>
    <use x="1774.3125" xlink:href="#DejaVuSans-99"/>
    <use x="1829.292969" xlink:href="#DejaVuSans-99"/>
    <use x="1884.273438" xlink:href="#DejaVuSans-101"/>
    <use x="1945.796875" xlink:href="#DejaVuSans-112"/>
    <use x="2009.273438" xlink:href="#DejaVuSans-116"/>
    <use x="2048.482422" xlink:href="#DejaVuSans-32"/>
    <use x="2080.269531" xlink:href="#DejaVuSans-116"/>
    <use x="2119.478516" xlink:href="#DejaVuSans-104"/>
    <use x="2182.857422" xlink:href="#DejaVuSans-101"/>
    <use x="2244.380859" xlink:href="#DejaVuSans-32"/>
    <use x="2276.167969" xlink:href="#DejaVuSans-99"/>
    <use x="2331.148438" xlink:href="#DejaVuSans-104"/>
    <use x="2394.527344" xlink:href="#DejaVuSans-97"/>
    <use x="2455.806641" xlink:href="#DejaVuSans-116"/>
    <use x="2495.015625" xlink:href="#DejaVuSans-98"/>
    <use x="2558.492188" xlink:href="#DejaVuSans-111"/>
    <use x="2619.673828" xlink:href="#DejaVuSans-116"/>
    <use x="2658.882812" xlink:href="#DejaVuSans-8217"/>
    <use x="2690.669922" xlink:href="#DejaVuSans-115"/>
    <use x="2742.769531" xlink:href="#DejaVuSans-32"/>
    <use x="2774.556641" xlink:href="#DejaVuSans-111"/>
    <use x="2835.738281" xlink:href="#DejaVuSans-102"/>
    <use x="2870.943359" xlink:href="#DejaVuSans-102"/>
    <use x="2906.148438" xlink:href="#DejaVuSans-101"/>
    <use x="2967.671875" xlink:href="#DejaVuSans-114"/>
    <use x="3008.785156" xlink:href="#DejaVuSans-32"/>
    <use x="3040.572266" xlink:href="#DejaVuSans-116"/>
    <use x="3079.78125" xlink:href="#DejaVuSans-111"/>
    <use x="3140.962891" xlink:href="#DejaVuSans-32"/>
    <use x="3172.75" xlink:href="#DejaVuSans-104"/>
    <use x="3236.128906" xlink:href="#DejaVuSans-101"/>
    <use x="3297.652344" xlink:href="#DejaVuSans-108"/>
    <use x="3325.435547" xlink:href="#DejaVuSans-112"/>
    <use x="3388.912109" xlink:href="#DejaVuSans-32"/>
    <use x="3420.699219" xlink:href="#DejaVuSans-102"/>
    <use x="3455.904297" xlink:href="#DejaVuSans-105"/>
    <use x="3483.6875" xlink:href="#DejaVuSans-110"/>
    <use x="3547.066406" xlink:href="#DejaVuSans-100"/>
    <use x="3610.542969" xlink:href="#DejaVuSans-32"/>
    <use x="3642.330078" xlink:href="#DejaVuSans-97"/>
    <use x="3703.609375" xlink:href="#DejaVuSans-32"/>
    <use x="3735.396484" xlink:href="#DejaVuSans-98"/>
    <use x="3798.873047" xlink:href="#DejaVuSans-105"/>
    <use x="3826.65625" xlink:href="#DejaVuSans-107"/>
    <use x="3880.941406" xlink:href="#DejaVuSans-101"/>
    <use x="3942.464844" xlink:href="#DejaVuSans-63"/>
   </g>
  </g>
 </g>
 <defs>
  <clipPath id="pa78283a65a">
   <rect height="199.6" width="167.6125" x="43.78125" y="48.04"/>
  </clipPath>
  <clipPath id="p3bac4efa9f">
   <rect height="199.6" width="167.6125" x="249.56875" y="48.04"/>
  </clipPath>
 </defs>
</svg>
