<?xml version="1.0" encoding="utf-8" standalone="no"?>
<!DOCTYPE svg PUBLIC "-//W3C//DTD SVG 1.1//EN"
  "http://www.w3.org/Graphics/SVG/1.1/DTD/svg11.dtd">
<!-- Created with matplotlib (https://matplotlib.org/) -->
<svg height="285.19625pt" version="1.1" viewBox="0 0 424.38125 285.19625" width="424.38125pt" xmlns="http://www.w3.org/2000/svg" xmlns:xlink="http://www.w3.org/1999/xlink">
 <metadata>
  <rdf:RDF xmlns:cc="http://creativecommons.org/ns#" xmlns:dc="http://purl.org/dc/elements/1.1/" xmlns:rdf="http://www.w3.org/1999/02/22-rdf-syntax-ns#">
   <cc:Work>
    <dc:type rdf:resource="http://purl.org/dc/dcmitype/StillImage"/>
    <dc:date>2021-02-21T18:27:35.936066</dc:date>
    <dc:format>image/svg+xml</dc:format>
    <dc:creator>
     <cc:Agent>
      <dc:title>Matplotlib v3.3.2, https://matplotlib.org/</dc:title>
     </cc:Agent>
    </dc:creator>
   </cc:Work>
  </rdf:RDF>
 </metadata>
 <defs>
  <style type="text/css">*{stroke-linecap:butt;stroke-linejoin:round;}</style>
 </defs>
 <g id="figure_1">
  <g id="patch_1">
   <path d="M 0 285.19625 
L 424.38125 285.19625 
L 424.38125 0 
L 0 0 
z
" style="fill:none;"/>
  </g>
  <g id="axes_1">
   <g id="patch_2">
    <path d="M 43.78125 247.64 
L 206.58125 247.64 
L 206.58125 48.04 
L 43.78125 48.04 
z
" style="fill:#ffffff;"/>
   </g>
   <g id="PathCollection_1">
    <defs>
     <path d="M 0 3 
C 0.795609 3 1.55874 2.683901 2.12132 2.12132 
C 2.683901 1.55874 3 0.795609 3 0 
C 3 -0.795609 2.683901 -1.55874 2.12132 -2.12132 
C 1.55874 -2.683901 0.795609 -3 0 -3 
C -0.795609 -3 -1.55874 -2.683901 -2.12132 -2.12132 
C -2.683901 -1.55874 -3 -0.795609 -3 0 
C -3 0.795609 -2.683901 1.55874 -2.12132 2.12132 
C -1.55874 2.683901 -0.795609 3 0 3 
z
" id="mf4194539de" style="stroke:#1f77b4;stroke-opacity:0.8;"/>
    </defs>
    <g clip-path="url(#pf5368ddfd0)">
     <use style="fill:#1f77b4;fill-opacity:0.8;stroke:#1f77b4;stroke-opacity:0.8;" x="143.965865" xlink:href="#mf4194539de" y="135.264274"/>
     <use style="fill:#1f77b4;fill-opacity:0.8;stroke:#1f77b4;stroke-opacity:0.8;" x="68.827404" xlink:href="#mf4194539de" y="135.264274"/>
     <use style="fill:#1f77b4;fill-opacity:0.8;stroke:#1f77b4;stroke-opacity:0.8;" x="81.350481" xlink:href="#mf4194539de" y="135.264274"/>
     <use style="fill:#1f77b4;fill-opacity:0.8;stroke:#1f77b4;stroke-opacity:0.8;" x="143.965865" xlink:href="#mf4194539de" y="135.264274"/>
     <use style="fill:#1f77b4;fill-opacity:0.8;stroke:#1f77b4;stroke-opacity:0.8;" x="169.012019" xlink:href="#mf4194539de" y="83.612774"/>
     <use style="fill:#1f77b4;fill-opacity:0.8;stroke:#1f77b4;stroke-opacity:0.8;" x="131.442788" xlink:href="#mf4194539de" y="83.612774"/>
     <use style="fill:#1f77b4;fill-opacity:0.8;stroke:#1f77b4;stroke-opacity:0.8;" x="181.535096" xlink:href="#mf4194539de" y="83.612774"/>
     <use style="fill:#1f77b4;fill-opacity:0.8;stroke:#1f77b4;stroke-opacity:0.8;" x="131.442788" xlink:href="#mf4194539de" y="135.264274"/>
     <use style="fill:#1f77b4;fill-opacity:0.8;stroke:#1f77b4;stroke-opacity:0.8;" x="81.350481" xlink:href="#mf4194539de" y="135.264274"/>
     <use style="fill:#1f77b4;fill-opacity:0.8;stroke:#1f77b4;stroke-opacity:0.8;" x="118.919712" xlink:href="#mf4194539de" y="135.264274"/>
     <use style="fill:#1f77b4;fill-opacity:0.8;stroke:#1f77b4;stroke-opacity:0.8;" x="118.919712" xlink:href="#mf4194539de" y="135.264274"/>
     <use style="fill:#1f77b4;fill-opacity:0.8;stroke:#1f77b4;stroke-opacity:0.8;" x="169.012019" xlink:href="#mf4194539de" y="83.612774"/>
     <use style="fill:#1f77b4;fill-opacity:0.8;stroke:#1f77b4;stroke-opacity:0.8;" x="93.873558" xlink:href="#mf4194539de" y="135.264274"/>
     <use style="fill:#1f77b4;fill-opacity:0.8;stroke:#1f77b4;stroke-opacity:0.8;" x="131.442788" xlink:href="#mf4194539de" y="135.264274"/>
     <use style="fill:#1f77b4;fill-opacity:0.8;stroke:#1f77b4;stroke-opacity:0.8;" x="131.442788" xlink:href="#mf4194539de" y="135.264274"/>
     <use style="fill:#1f77b4;fill-opacity:0.8;stroke:#1f77b4;stroke-opacity:0.8;" x="156.488942" xlink:href="#mf4194539de" y="135.264274"/>
     <use style="fill:#1f77b4;fill-opacity:0.8;stroke:#1f77b4;stroke-opacity:0.8;" x="118.919712" xlink:href="#mf4194539de" y="83.612774"/>
     <use style="fill:#1f77b4;fill-opacity:0.8;stroke:#1f77b4;stroke-opacity:0.8;" x="106.396635" xlink:href="#mf4194539de" y="83.612774"/>
     <use style="fill:#1f77b4;fill-opacity:0.8;stroke:#1f77b4;stroke-opacity:0.8;" x="156.488942" xlink:href="#mf4194539de" y="186.915773"/>
     <use style="fill:#1f77b4;fill-opacity:0.8;stroke:#1f77b4;stroke-opacity:0.8;" x="43.78125" xlink:href="#mf4194539de" y="238.567273"/>
     <use style="fill:#1f77b4;fill-opacity:0.8;stroke:#1f77b4;stroke-opacity:0.8;" x="93.873558" xlink:href="#mf4194539de" y="135.264274"/>
     <use style="fill:#1f77b4;fill-opacity:0.8;stroke:#1f77b4;stroke-opacity:0.8;" x="206.58125" xlink:href="#mf4194539de" y="83.612774"/>
     <use style="fill:#1f77b4;fill-opacity:0.8;stroke:#1f77b4;stroke-opacity:0.8;" x="118.919712" xlink:href="#mf4194539de" y="135.264274"/>
     <use style="fill:#1f77b4;fill-opacity:0.8;stroke:#1f77b4;stroke-opacity:0.8;" x="118.919712" xlink:href="#mf4194539de" y="135.264274"/>
     <use style="fill:#1f77b4;fill-opacity:0.8;stroke:#1f77b4;stroke-opacity:0.8;" x="118.919712" xlink:href="#mf4194539de" y="135.264274"/>
     <use style="fill:#1f77b4;fill-opacity:0.8;stroke:#1f77b4;stroke-opacity:0.8;" x="118.919712" xlink:href="#mf4194539de" y="83.612774"/>
     <use style="fill:#1f77b4;fill-opacity:0.8;stroke:#1f77b4;stroke-opacity:0.8;" x="106.396635" xlink:href="#mf4194539de" y="135.264274"/>
     <use style="fill:#1f77b4;fill-opacity:0.8;stroke:#1f77b4;stroke-opacity:0.8;" x="93.873558" xlink:href="#mf4194539de" y="83.612774"/>
     <use style="fill:#1f77b4;fill-opacity:0.8;stroke:#1f77b4;stroke-opacity:0.8;" x="106.396635" xlink:href="#mf4194539de" y="83.612774"/>
     <use style="fill:#1f77b4;fill-opacity:0.8;stroke:#1f77b4;stroke-opacity:0.8;" x="118.919712" xlink:href="#mf4194539de" y="83.612774"/>
     <use style="fill:#1f77b4;fill-opacity:0.8;stroke:#1f77b4;stroke-opacity:0.8;" x="118.919712" xlink:href="#mf4194539de" y="83.612774"/>
     <use style="fill:#1f77b4;fill-opacity:0.8;stroke:#1f77b4;stroke-opacity:0.8;" x="93.873558" xlink:href="#mf4194539de" y="135.264274"/>
     <use style="fill:#1f77b4;fill-opacity:0.8;stroke:#1f77b4;stroke-opacity:0.8;" x="131.442788" xlink:href="#mf4194539de" y="135.264274"/>
     <use style="fill:#1f77b4;fill-opacity:0.8;stroke:#1f77b4;stroke-opacity:0.8;" x="131.442788" xlink:href="#mf4194539de" y="135.264274"/>
     <use style="fill:#1f77b4;fill-opacity:0.8;stroke:#1f77b4;stroke-opacity:0.8;" x="106.396635" xlink:href="#mf4194539de" y="135.264274"/>
     <use style="fill:#1f77b4;fill-opacity:0.8;stroke:#1f77b4;stroke-opacity:0.8;" x="106.396635" xlink:href="#mf4194539de" y="186.915773"/>
     <use style="fill:#1f77b4;fill-opacity:0.8;stroke:#1f77b4;stroke-opacity:0.8;" x="93.873558" xlink:href="#mf4194539de" y="186.915773"/>
     <use style="fill:#1f77b4;fill-opacity:0.8;stroke:#1f77b4;stroke-opacity:0.8;" x="118.919712" xlink:href="#mf4194539de" y="135.264274"/>
     <use style="fill:#1f77b4;fill-opacity:0.8;stroke:#1f77b4;stroke-opacity:0.8;" x="106.396635" xlink:href="#mf4194539de" y="135.264274"/>
     <use style="fill:#1f77b4;fill-opacity:0.8;stroke:#1f77b4;stroke-opacity:0.8;" x="93.873558" xlink:href="#mf4194539de" y="186.915773"/>
     <use style="fill:#1f77b4;fill-opacity:0.8;stroke:#1f77b4;stroke-opacity:0.8;" x="56.304327" xlink:href="#mf4194539de" y="83.612774"/>
    </g>
   </g>
   <g id="PolyCollection_1">
    <path clip-path="url(#pf5368ddfd0)" d="M 43.78125 121.667771 
L 43.78125 190.409154 
L 45.425694 189.2936 
L 47.070139 188.034067 
L 48.714583 186.760338 
L 50.359028 185.484633 
L 52.003472 184.208929 
L 53.647917 182.933224 
L 55.292361 181.657519 
L 56.936806 180.381814 
L 58.58125 179.120375 
L 60.225694 177.958773 
L 61.870139 176.591628 
L 63.514583 175.277601 
L 65.159028 174.002819 
L 66.803472 172.75005 
L 68.447917 171.445162 
L 70.092361 170.166334 
L 71.736806 168.887506 
L 73.38125 167.51119 
L 75.025694 166.1321 
L 76.670139 164.78436 
L 78.314583 163.663939 
L 79.959028 162.507434 
L 81.603472 161.235239 
L 83.247917 159.963043 
L 84.892361 158.683211 
L 86.536806 157.487097 
L 88.18125 156.331967 
L 89.825694 155.223304 
L 91.470139 154.082772 
L 93.114583 152.941069 
L 94.759028 151.70992 
L 96.403472 150.381653 
L 98.047917 149.317896 
L 99.692361 148.243714 
L 101.336806 147.090929 
L 102.98125 145.935799 
L 104.625694 144.810913 
L 106.270139 143.650346 
L 107.914583 142.51421 
L 109.559028 141.311608 
L 111.203472 140.239269 
L 112.847917 139.253464 
L 114.492361 138.215924 
L 116.136806 137.321382 
L 117.78125 136.282968 
L 119.425694 135.546361 
L 121.070139 134.859391 
L 122.714583 134.101052 
L 124.359028 133.564847 
L 126.003472 132.798416 
L 127.647917 132.454835 
L 129.292361 132.109756 
L 130.936806 131.501391 
L 132.58125 131.060223 
L 134.225694 130.726315 
L 135.870139 130.387222 
L 137.514583 129.898374 
L 139.159028 129.623587 
L 140.803472 129.137464 
L 142.447917 129.04277 
L 144.092361 128.662512 
L 145.736806 128.161939 
L 147.38125 128.165409 
L 149.025694 127.96641 
L 150.670139 127.903139 
L 152.314583 127.779917 
L 153.959028 127.474146 
L 155.603472 127.22498 
L 157.247917 127.3394 
L 158.892361 127.543398 
L 160.536806 127.561383 
L 162.18125 127.503329 
L 163.825694 127.445276 
L 165.470139 127.387222 
L 167.114583 127.323519 
L 168.759028 127.273306 
L 170.403472 127.219419 
L 172.047917 127.165533 
L 173.692361 127.111646 
L 175.336806 127.055621 
L 176.98125 126.994278 
L 178.625694 126.947453 
L 180.270139 126.875403 
L 181.914583 126.724629 
L 183.559028 126.385722 
L 185.203472 126.496486 
L 186.847917 126.646587 
L 188.492361 126.593757 
L 190.136806 126.533336 
L 191.78125 126.364458 
L 193.425694 126.175014 
L 195.070139 126.220748 
L 196.714583 126.14673 
L 198.359028 125.96873 
L 200.003472 126.013381 
L 201.647917 126.074517 
L 203.292361 126.078939 
L 204.936806 125.988654 
L 206.58125 125.792225 
L 206.58125 57.112727 
L 206.58125 57.112727 
L 204.936806 58.340003 
L 203.292361 59.679564 
L 201.647917 61.023472 
L 200.003472 62.429201 
L 198.359028 63.735003 
L 196.714583 65.099409 
L 195.070139 66.551165 
L 193.425694 67.890057 
L 191.78125 69.07136 
L 190.136806 70.395666 
L 188.492361 71.580033 
L 186.847917 72.766781 
L 185.203472 73.948442 
L 183.559028 75.207605 
L 181.914583 76.693544 
L 180.270139 78.184418 
L 178.625694 79.675292 
L 176.98125 80.972283 
L 175.336806 82.159536 
L 173.692361 83.348068 
L 172.047917 84.603079 
L 170.403472 85.960683 
L 168.759028 86.894658 
L 167.114583 88.041569 
L 165.470139 89.078918 
L 163.825694 90.183365 
L 162.18125 91.498584 
L 160.536806 92.508078 
L 158.892361 93.49553 
L 157.247917 94.481966 
L 155.603472 95.463595 
L 153.959028 96.491723 
L 152.314583 97.853996 
L 150.670139 99.169991 
L 149.025694 100.023091 
L 147.38125 101.249968 
L 145.736806 102.46415 
L 144.092361 103.477579 
L 142.447917 104.647387 
L 140.803472 105.528784 
L 139.159028 106.656021 
L 137.514583 107.472677 
L 135.870139 108.416896 
L 134.225694 108.950829 
L 132.58125 110.065745 
L 130.936806 110.862027 
L 129.292361 111.738453 
L 127.647917 112.182881 
L 126.003472 112.930528 
L 124.359028 113.87346 
L 122.714583 114.299735 
L 121.070139 114.78311 
L 119.425694 115.77994 
L 117.78125 116.259757 
L 116.136806 116.600376 
L 114.492361 116.983408 
L 112.847917 117.306974 
L 111.203472 117.63417 
L 109.559028 117.812854 
L 107.914583 118.221905 
L 106.270139 118.62653 
L 104.625694 118.690838 
L 102.98125 118.695094 
L 101.336806 118.785831 
L 99.692361 118.925015 
L 98.047917 119.313983 
L 96.403472 119.259655 
L 94.759028 119.158102 
L 93.114583 119.253258 
L 91.470139 119.349217 
L 89.825694 119.355697 
L 88.18125 119.541135 
L 86.536806 119.644191 
L 84.892361 119.79611 
L 83.247917 119.822707 
L 81.603472 119.912766 
L 79.959028 120.006155 
L 78.314583 120.105323 
L 76.670139 120.212559 
L 75.025694 120.412802 
L 73.38125 120.699107 
L 71.736806 120.985412 
L 70.092361 120.934275 
L 68.447917 120.871146 
L 66.803472 120.810504 
L 65.159028 120.857022 
L 63.514583 120.949931 
L 61.870139 120.976567 
L 60.225694 120.998731 
L 58.58125 121.101497 
L 56.936806 121.213564 
L 55.292361 121.32563 
L 53.647917 121.516197 
L 52.003472 121.610574 
L 50.359028 121.643745 
L 48.714583 121.743586 
L 47.070139 121.768391 
L 45.425694 121.716493 
L 43.78125 121.667771 
z
" style="fill:#1f77b4;fill-opacity:0.15;"/>
   </g>
   <g id="matplotlib.axis_1">
    <g id="xtick_1">
     <g id="line2d_1">
      <defs>
       <path d="M 0 0 
L 0 3.5 
" id="m003d231e49" style="stroke:#000000;stroke-width:0.8;"/>
      </defs>
      <g>
       <use style="stroke:#000000;stroke-width:0.8;" x="68.827404" xlink:href="#m003d231e49" y="247.64"/>
      </g>
     </g>
     <g id="text_1">
      <!-- 2 -->
      <g transform="translate(65.646154 262.238437)scale(0.1 -0.1)">
       <defs>
        <path d="M 19.1875 8.296875 
L 53.609375 8.296875 
L 53.609375 0 
L 7.328125 0 
L 7.328125 8.296875 
Q 12.9375 14.109375 22.625 23.890625 
Q 32.328125 33.6875 34.8125 36.53125 
Q 39.546875 41.84375 41.421875 45.53125 
Q 43.3125 49.21875 43.3125 52.78125 
Q 43.3125 58.59375 39.234375 62.25 
Q 35.15625 65.921875 28.609375 65.921875 
Q 23.96875 65.921875 18.8125 64.3125 
Q 13.671875 62.703125 7.8125 59.421875 
L 7.8125 69.390625 
Q 13.765625 71.78125 18.9375 73 
Q 24.125 74.21875 28.421875 74.21875 
Q 39.75 74.21875 46.484375 68.546875 
Q 53.21875 62.890625 53.21875 53.421875 
Q 53.21875 48.921875 51.53125 44.890625 
Q 49.859375 40.875 45.40625 35.40625 
Q 44.1875 33.984375 37.640625 27.21875 
Q 31.109375 20.453125 19.1875 8.296875 
z
" id="DejaVuSans-50"/>
       </defs>
       <use xlink:href="#DejaVuSans-50"/>
      </g>
     </g>
    </g>
    <g id="xtick_2">
     <g id="line2d_2">
      <g>
       <use style="stroke:#000000;stroke-width:0.8;" x="118.919712" xlink:href="#m003d231e49" y="247.64"/>
      </g>
     </g>
     <g id="text_2">
      <!-- 3 -->
      <g transform="translate(115.738462 262.238437)scale(0.1 -0.1)">
       <defs>
        <path d="M 40.578125 39.3125 
Q 47.65625 37.796875 51.625 33 
Q 55.609375 28.21875 55.609375 21.1875 
Q 55.609375 10.40625 48.1875 4.484375 
Q 40.765625 -1.421875 27.09375 -1.421875 
Q 22.515625 -1.421875 17.65625 -0.515625 
Q 12.796875 0.390625 7.625 2.203125 
L 7.625 11.71875 
Q 11.71875 9.328125 16.59375 8.109375 
Q 21.484375 6.890625 26.8125 6.890625 
Q 36.078125 6.890625 40.9375 10.546875 
Q 45.796875 14.203125 45.796875 21.1875 
Q 45.796875 27.640625 41.28125 31.265625 
Q 36.765625 34.90625 28.71875 34.90625 
L 20.21875 34.90625 
L 20.21875 43.015625 
L 29.109375 43.015625 
Q 36.375 43.015625 40.234375 45.921875 
Q 44.09375 48.828125 44.09375 54.296875 
Q 44.09375 59.90625 40.109375 62.90625 
Q 36.140625 65.921875 28.71875 65.921875 
Q 24.65625 65.921875 20.015625 65.03125 
Q 15.375 64.15625 9.8125 62.3125 
L 9.8125 71.09375 
Q 15.4375 72.65625 20.34375 73.4375 
Q 25.25 74.21875 29.59375 74.21875 
Q 40.828125 74.21875 47.359375 69.109375 
Q 53.90625 64.015625 53.90625 55.328125 
Q 53.90625 49.265625 50.4375 45.09375 
Q 46.96875 40.921875 40.578125 39.3125 
z
" id="DejaVuSans-51"/>
       </defs>
       <use xlink:href="#DejaVuSans-51"/>
      </g>
     </g>
    </g>
    <g id="xtick_3">
     <g id="line2d_3">
      <g>
       <use style="stroke:#000000;stroke-width:0.8;" x="169.012019" xlink:href="#m003d231e49" y="247.64"/>
      </g>
     </g>
     <g id="text_3">
      <!-- 4 -->
      <g transform="translate(165.830769 262.238437)scale(0.1 -0.1)">
       <defs>
        <path d="M 37.796875 64.3125 
L 12.890625 25.390625 
L 37.796875 25.390625 
z
M 35.203125 72.90625 
L 47.609375 72.90625 
L 47.609375 25.390625 
L 58.015625 25.390625 
L 58.015625 17.1875 
L 47.609375 17.1875 
L 47.609375 0 
L 37.796875 0 
L 37.796875 17.1875 
L 4.890625 17.1875 
L 4.890625 26.703125 
z
" id="DejaVuSans-52"/>
       </defs>
       <use xlink:href="#DejaVuSans-52"/>
      </g>
     </g>
    </g>
    <g id="text_4">
     <!-- E -->
     <g transform="translate(122.021875 275.916562)scale(0.1 -0.1)">
      <defs>
       <path d="M 9.8125 72.90625 
L 55.90625 72.90625 
L 55.90625 64.59375 
L 19.671875 64.59375 
L 19.671875 43.015625 
L 54.390625 43.015625 
L 54.390625 34.71875 
L 19.671875 34.71875 
L 19.671875 8.296875 
L 56.78125 8.296875 
L 56.78125 0 
L 9.8125 0 
z
" id="DejaVuSans-69"/>
      </defs>
      <use xlink:href="#DejaVuSans-69"/>
     </g>
    </g>
   </g>
   <g id="matplotlib.axis_2">
    <g id="ytick_1">
     <g id="line2d_4">
      <defs>
       <path d="M 0 0 
L -3.5 0 
" id="m79de62e0d1" style="stroke:#000000;stroke-width:0.8;"/>
      </defs>
      <g>
       <use style="stroke:#000000;stroke-width:0.8;" x="43.78125" xlink:href="#m79de62e0d1" y="238.567273"/>
      </g>
     </g>
     <g id="text_5">
      <!-- 2.0 -->
      <g transform="translate(20.878125 242.366491)scale(0.1 -0.1)">
       <defs>
        <path d="M 10.6875 12.40625 
L 21 12.40625 
L 21 0 
L 10.6875 0 
z
" id="DejaVuSans-46"/>
        <path d="M 31.78125 66.40625 
Q 24.171875 66.40625 20.328125 58.90625 
Q 16.5 51.421875 16.5 36.375 
Q 16.5 21.390625 20.328125 13.890625 
Q 24.171875 6.390625 31.78125 6.390625 
Q 39.453125 6.390625 43.28125 13.890625 
Q 47.125 21.390625 47.125 36.375 
Q 47.125 51.421875 43.28125 58.90625 
Q 39.453125 66.40625 31.78125 66.40625 
z
M 31.78125 74.21875 
Q 44.046875 74.21875 50.515625 64.515625 
Q 56.984375 54.828125 56.984375 36.375 
Q 56.984375 17.96875 50.515625 8.265625 
Q 44.046875 -1.421875 31.78125 -1.421875 
Q 19.53125 -1.421875 13.0625 8.265625 
Q 6.59375 17.96875 6.59375 36.375 
Q 6.59375 54.828125 13.0625 64.515625 
Q 19.53125 74.21875 31.78125 74.21875 
z
" id="DejaVuSans-48"/>
       </defs>
       <use xlink:href="#DejaVuSans-50"/>
       <use x="63.623047" xlink:href="#DejaVuSans-46"/>
       <use x="95.410156" xlink:href="#DejaVuSans-48"/>
      </g>
     </g>
    </g>
    <g id="ytick_2">
     <g id="line2d_5">
      <g>
       <use style="stroke:#000000;stroke-width:0.8;" x="43.78125" xlink:href="#m79de62e0d1" y="212.741523"/>
      </g>
     </g>
     <g id="text_6">
      <!-- 2.5 -->
      <g transform="translate(20.878125 216.540742)scale(0.1 -0.1)">
       <defs>
        <path d="M 10.796875 72.90625 
L 49.515625 72.90625 
L 49.515625 64.59375 
L 19.828125 64.59375 
L 19.828125 46.734375 
Q 21.96875 47.46875 24.109375 47.828125 
Q 26.265625 48.1875 28.421875 48.1875 
Q 40.625 48.1875 47.75 41.5 
Q 54.890625 34.8125 54.890625 23.390625 
Q 54.890625 11.625 47.5625 5.09375 
Q 40.234375 -1.421875 26.90625 -1.421875 
Q 22.3125 -1.421875 17.546875 -0.640625 
Q 12.796875 0.140625 7.71875 1.703125 
L 7.71875 11.625 
Q 12.109375 9.234375 16.796875 8.0625 
Q 21.484375 6.890625 26.703125 6.890625 
Q 35.15625 6.890625 40.078125 11.328125 
Q 45.015625 15.765625 45.015625 23.390625 
Q 45.015625 31 40.078125 35.4375 
Q 35.15625 39.890625 26.703125 39.890625 
Q 22.75 39.890625 18.8125 39.015625 
Q 14.890625 38.140625 10.796875 36.28125 
z
" id="DejaVuSans-53"/>
       </defs>
       <use xlink:href="#DejaVuSans-50"/>
       <use x="63.623047" xlink:href="#DejaVuSans-46"/>
       <use x="95.410156" xlink:href="#DejaVuSans-53"/>
      </g>
     </g>
    </g>
    <g id="ytick_3">
     <g id="line2d_6">
      <g>
       <use style="stroke:#000000;stroke-width:0.8;" x="43.78125" xlink:href="#m79de62e0d1" y="186.915773"/>
      </g>
     </g>
     <g id="text_7">
      <!-- 3.0 -->
      <g transform="translate(20.878125 190.714992)scale(0.1 -0.1)">
       <use xlink:href="#DejaVuSans-51"/>
       <use x="63.623047" xlink:href="#DejaVuSans-46"/>
       <use x="95.410156" xlink:href="#DejaVuSans-48"/>
      </g>
     </g>
    </g>
    <g id="ytick_4">
     <g id="line2d_7">
      <g>
       <use style="stroke:#000000;stroke-width:0.8;" x="43.78125" xlink:href="#m79de62e0d1" y="161.090023"/>
      </g>
     </g>
     <g id="text_8">
      <!-- 3.5 -->
      <g transform="translate(20.878125 164.889242)scale(0.1 -0.1)">
       <use xlink:href="#DejaVuSans-51"/>
       <use x="63.623047" xlink:href="#DejaVuSans-46"/>
       <use x="95.410156" xlink:href="#DejaVuSans-53"/>
      </g>
     </g>
    </g>
    <g id="ytick_5">
     <g id="line2d_8">
      <g>
       <use style="stroke:#000000;stroke-width:0.8;" x="43.78125" xlink:href="#m79de62e0d1" y="135.264274"/>
      </g>
     </g>
     <g id="text_9">
      <!-- 4.0 -->
      <g transform="translate(20.878125 139.063493)scale(0.1 -0.1)">
       <use xlink:href="#DejaVuSans-52"/>
       <use x="63.623047" xlink:href="#DejaVuSans-46"/>
       <use x="95.410156" xlink:href="#DejaVuSans-48"/>
      </g>
     </g>
    </g>
    <g id="ytick_6">
     <g id="line2d_9">
      <g>
       <use style="stroke:#000000;stroke-width:0.8;" x="43.78125" xlink:href="#m79de62e0d1" y="109.438524"/>
      </g>
     </g>
     <g id="text_10">
      <!-- 4.5 -->
      <g transform="translate(20.878125 113.237743)scale(0.1 -0.1)">
       <use xlink:href="#DejaVuSans-52"/>
       <use x="63.623047" xlink:href="#DejaVuSans-46"/>
       <use x="95.410156" xlink:href="#DejaVuSans-53"/>
      </g>
     </g>
    </g>
    <g id="ytick_7">
     <g id="line2d_10">
      <g>
       <use style="stroke:#000000;stroke-width:0.8;" x="43.78125" xlink:href="#m79de62e0d1" y="83.612774"/>
      </g>
     </g>
     <g id="text_11">
      <!-- 5.0 -->
      <g transform="translate(20.878125 87.411993)scale(0.1 -0.1)">
       <use xlink:href="#DejaVuSans-53"/>
       <use x="63.623047" xlink:href="#DejaVuSans-46"/>
       <use x="95.410156" xlink:href="#DejaVuSans-48"/>
      </g>
     </g>
    </g>
    <g id="ytick_8">
     <g id="line2d_11">
      <g>
       <use style="stroke:#000000;stroke-width:0.8;" x="43.78125" xlink:href="#m79de62e0d1" y="57.787025"/>
      </g>
     </g>
     <g id="text_12">
      <!-- 5.5 -->
      <g transform="translate(20.878125 61.586243)scale(0.1 -0.1)">
       <use xlink:href="#DejaVuSans-53"/>
       <use x="63.623047" xlink:href="#DejaVuSans-46"/>
       <use x="95.410156" xlink:href="#DejaVuSans-53"/>
      </g>
     </g>
    </g>
    <g id="text_13">
     <!-- Trust2 -->
     <g transform="translate(14.798438 163.126719)rotate(-90)scale(0.1 -0.1)">
      <defs>
       <path d="M -0.296875 72.90625 
L 61.375 72.90625 
L 61.375 64.59375 
L 35.5 64.59375 
L 35.5 0 
L 25.59375 0 
L 25.59375 64.59375 
L -0.296875 64.59375 
z
" id="DejaVuSans-84"/>
       <path d="M 41.109375 46.296875 
Q 39.59375 47.171875 37.8125 47.578125 
Q 36.03125 48 33.890625 48 
Q 26.265625 48 22.1875 43.046875 
Q 18.109375 38.09375 18.109375 28.8125 
L 18.109375 0 
L 9.078125 0 
L 9.078125 54.6875 
L 18.109375 54.6875 
L 18.109375 46.1875 
Q 20.953125 51.171875 25.484375 53.578125 
Q 30.03125 56 36.53125 56 
Q 37.453125 56 38.578125 55.875 
Q 39.703125 55.765625 41.0625 55.515625 
z
" id="DejaVuSans-114"/>
       <path d="M 8.5 21.578125 
L 8.5 54.6875 
L 17.484375 54.6875 
L 17.484375 21.921875 
Q 17.484375 14.15625 20.5 10.265625 
Q 23.53125 6.390625 29.59375 6.390625 
Q 36.859375 6.390625 41.078125 11.03125 
Q 45.3125 15.671875 45.3125 23.6875 
L 45.3125 54.6875 
L 54.296875 54.6875 
L 54.296875 0 
L 45.3125 0 
L 45.3125 8.40625 
Q 42.046875 3.421875 37.71875 1 
Q 33.40625 -1.421875 27.6875 -1.421875 
Q 18.265625 -1.421875 13.375 4.4375 
Q 8.5 10.296875 8.5 21.578125 
z
M 31.109375 56 
z
" id="DejaVuSans-117"/>
       <path d="M 44.28125 53.078125 
L 44.28125 44.578125 
Q 40.484375 46.53125 36.375 47.5 
Q 32.28125 48.484375 27.875 48.484375 
Q 21.1875 48.484375 17.84375 46.4375 
Q 14.5 44.390625 14.5 40.28125 
Q 14.5 37.15625 16.890625 35.375 
Q 19.28125 33.59375 26.515625 31.984375 
L 29.59375 31.296875 
Q 39.15625 29.25 43.1875 25.515625 
Q 47.21875 21.78125 47.21875 15.09375 
Q 47.21875 7.46875 41.1875 3.015625 
Q 35.15625 -1.421875 24.609375 -1.421875 
Q 20.21875 -1.421875 15.453125 -0.5625 
Q 10.6875 0.296875 5.421875 2 
L 5.421875 11.28125 
Q 10.40625 8.6875 15.234375 7.390625 
Q 20.0625 6.109375 24.8125 6.109375 
Q 31.15625 6.109375 34.5625 8.28125 
Q 37.984375 10.453125 37.984375 14.40625 
Q 37.984375 18.0625 35.515625 20.015625 
Q 33.0625 21.96875 24.703125 23.78125 
L 21.578125 24.515625 
Q 13.234375 26.265625 9.515625 29.90625 
Q 5.8125 33.546875 5.8125 39.890625 
Q 5.8125 47.609375 11.28125 51.796875 
Q 16.75 56 26.8125 56 
Q 31.78125 56 36.171875 55.265625 
Q 40.578125 54.546875 44.28125 53.078125 
z
" id="DejaVuSans-115"/>
       <path d="M 18.3125 70.21875 
L 18.3125 54.6875 
L 36.8125 54.6875 
L 36.8125 47.703125 
L 18.3125 47.703125 
L 18.3125 18.015625 
Q 18.3125 11.328125 20.140625 9.421875 
Q 21.96875 7.515625 27.59375 7.515625 
L 36.8125 7.515625 
L 36.8125 0 
L 27.59375 0 
Q 17.1875 0 13.234375 3.875 
Q 9.28125 7.765625 9.28125 18.015625 
L 9.28125 47.703125 
L 2.6875 47.703125 
L 2.6875 54.6875 
L 9.28125 54.6875 
L 9.28125 70.21875 
z
" id="DejaVuSans-116"/>
      </defs>
      <use xlink:href="#DejaVuSans-84"/>
      <use x="46.333984" xlink:href="#DejaVuSans-114"/>
      <use x="87.447266" xlink:href="#DejaVuSans-117"/>
      <use x="150.826172" xlink:href="#DejaVuSans-115"/>
      <use x="202.925781" xlink:href="#DejaVuSans-116"/>
      <use x="242.134766" xlink:href="#DejaVuSans-50"/>
     </g>
    </g>
   </g>
   <g id="line2d_12">
    <path clip-path="url(#pf5368ddfd0)" d="M 43.78125 157.331459 
L 45.425694 156.647163 
L 47.070139 155.962868 
L 48.714583 155.278572 
L 50.359028 154.594277 
L 52.003472 153.909981 
L 53.647917 153.225686 
L 55.292361 152.541391 
L 56.936806 151.857095 
L 58.58125 151.1728 
L 60.225694 150.488504 
L 61.870139 149.804209 
L 63.514583 149.119913 
L 65.159028 148.435618 
L 66.803472 147.751322 
L 68.447917 147.067027 
L 70.092361 146.382731 
L 71.736806 145.698436 
L 73.38125 145.01414 
L 75.025694 144.329845 
L 76.670139 143.645549 
L 78.314583 142.961254 
L 79.959028 142.276959 
L 81.603472 141.592663 
L 83.247917 140.908368 
L 84.892361 140.224072 
L 86.536806 139.539777 
L 88.18125 138.855481 
L 89.825694 138.171186 
L 91.470139 137.48689 
L 93.114583 136.802595 
L 94.759028 136.118299 
L 96.403472 135.434004 
L 98.047917 134.749708 
L 99.692361 134.065413 
L 101.336806 133.381117 
L 102.98125 132.696822 
L 104.625694 132.012526 
L 106.270139 131.328231 
L 107.914583 130.643936 
L 109.559028 129.95964 
L 111.203472 129.275345 
L 112.847917 128.591049 
L 114.492361 127.906754 
L 116.136806 127.222458 
L 117.78125 126.538163 
L 119.425694 125.853867 
L 121.070139 125.169572 
L 122.714583 124.485276 
L 124.359028 123.800981 
L 126.003472 123.116685 
L 127.647917 122.43239 
L 129.292361 121.748094 
L 130.936806 121.063799 
L 132.58125 120.379504 
L 134.225694 119.695208 
L 135.870139 119.010913 
L 137.514583 118.326617 
L 139.159028 117.642322 
L 140.803472 116.958026 
L 142.447917 116.273731 
L 144.092361 115.589435 
L 145.736806 114.90514 
L 147.38125 114.220844 
L 149.025694 113.536549 
L 150.670139 112.852253 
L 152.314583 112.167958 
L 153.959028 111.483662 
L 155.603472 110.799367 
L 157.247917 110.115071 
L 158.892361 109.430776 
L 160.536806 108.746481 
L 162.18125 108.062185 
L 163.825694 107.37789 
L 165.470139 106.693594 
L 167.114583 106.009299 
L 168.759028 105.325003 
L 170.403472 104.640708 
L 172.047917 103.956412 
L 173.692361 103.272117 
L 175.336806 102.587821 
L 176.98125 101.903526 
L 178.625694 101.21923 
L 180.270139 100.534935 
L 181.914583 99.850639 
L 183.559028 99.166344 
L 185.203472 98.482048 
L 186.847917 97.797753 
L 188.492361 97.113458 
L 190.136806 96.429162 
L 191.78125 95.744867 
L 193.425694 95.060571 
L 195.070139 94.376276 
L 196.714583 93.69198 
L 198.359028 93.007685 
L 200.003472 92.323389 
L 201.647917 91.639094 
L 203.292361 90.954798 
L 204.936806 90.270503 
L 206.58125 89.586207 
" style="fill:none;stroke:#1f77b4;stroke-linecap:square;stroke-width:2.25;"/>
   </g>
   <g id="patch_3">
    <path d="M 43.78125 247.64 
L 43.78125 48.04 
" style="fill:none;stroke:#000000;stroke-linecap:square;stroke-linejoin:miter;stroke-width:0.8;"/>
   </g>
   <g id="patch_4">
    <path d="M 206.58125 247.64 
L 206.58125 48.04 
" style="fill:none;stroke:#000000;stroke-linecap:square;stroke-linejoin:miter;stroke-width:0.8;"/>
   </g>
   <g id="patch_5">
    <path d="M 43.78125 247.64 
L 206.58125 247.64 
" style="fill:none;stroke:#000000;stroke-linecap:square;stroke-linejoin:miter;stroke-width:0.8;"/>
   </g>
   <g id="patch_6">
    <path d="M 43.78125 48.04 
L 206.58125 48.04 
" style="fill:none;stroke:#000000;stroke-linecap:square;stroke-linejoin:miter;stroke-width:0.8;"/>
   </g>
   <g id="text_14">
    <!-- Group A -->
    <g transform="translate(43.78125 42.04)scale(0.12 -0.12)">
     <defs>
      <path d="M 59.515625 10.40625 
L 59.515625 29.984375 
L 43.40625 29.984375 
L 43.40625 38.09375 
L 69.28125 38.09375 
L 69.28125 6.78125 
Q 63.578125 2.734375 56.6875 0.65625 
Q 49.8125 -1.421875 42 -1.421875 
Q 24.90625 -1.421875 15.25 8.5625 
Q 5.609375 18.5625 5.609375 36.375 
Q 5.609375 54.25 15.25 64.234375 
Q 24.90625 74.21875 42 74.21875 
Q 49.125 74.21875 55.546875 72.453125 
Q 61.96875 70.703125 67.390625 67.28125 
L 67.390625 56.78125 
Q 61.921875 61.421875 55.765625 63.765625 
Q 49.609375 66.109375 42.828125 66.109375 
Q 29.4375 66.109375 22.71875 58.640625 
Q 16.015625 51.171875 16.015625 36.375 
Q 16.015625 21.625 22.71875 14.15625 
Q 29.4375 6.6875 42.828125 6.6875 
Q 48.046875 6.6875 52.140625 7.59375 
Q 56.25 8.5 59.515625 10.40625 
z
" id="DejaVuSans-71"/>
      <path d="M 30.609375 48.390625 
Q 23.390625 48.390625 19.1875 42.75 
Q 14.984375 37.109375 14.984375 27.296875 
Q 14.984375 17.484375 19.15625 11.84375 
Q 23.34375 6.203125 30.609375 6.203125 
Q 37.796875 6.203125 41.984375 11.859375 
Q 46.1875 17.53125 46.1875 27.296875 
Q 46.1875 37.015625 41.984375 42.703125 
Q 37.796875 48.390625 30.609375 48.390625 
z
M 30.609375 56 
Q 42.328125 56 49.015625 48.375 
Q 55.71875 40.765625 55.71875 27.296875 
Q 55.71875 13.875 49.015625 6.21875 
Q 42.328125 -1.421875 30.609375 -1.421875 
Q 18.84375 -1.421875 12.171875 6.21875 
Q 5.515625 13.875 5.515625 27.296875 
Q 5.515625 40.765625 12.171875 48.375 
Q 18.84375 56 30.609375 56 
z
" id="DejaVuSans-111"/>
      <path d="M 18.109375 8.203125 
L 18.109375 -20.796875 
L 9.078125 -20.796875 
L 9.078125 54.6875 
L 18.109375 54.6875 
L 18.109375 46.390625 
Q 20.953125 51.265625 25.265625 53.625 
Q 29.59375 56 35.59375 56 
Q 45.5625 56 51.78125 48.09375 
Q 58.015625 40.1875 58.015625 27.296875 
Q 58.015625 14.40625 51.78125 6.484375 
Q 45.5625 -1.421875 35.59375 -1.421875 
Q 29.59375 -1.421875 25.265625 0.953125 
Q 20.953125 3.328125 18.109375 8.203125 
z
M 48.6875 27.296875 
Q 48.6875 37.203125 44.609375 42.84375 
Q 40.53125 48.484375 33.40625 48.484375 
Q 26.265625 48.484375 22.1875 42.84375 
Q 18.109375 37.203125 18.109375 27.296875 
Q 18.109375 17.390625 22.1875 11.75 
Q 26.265625 6.109375 33.40625 6.109375 
Q 40.53125 6.109375 44.609375 11.75 
Q 48.6875 17.390625 48.6875 27.296875 
z
" id="DejaVuSans-112"/>
      <path id="DejaVuSans-32"/>
      <path d="M 34.1875 63.1875 
L 20.796875 26.90625 
L 47.609375 26.90625 
z
M 28.609375 72.90625 
L 39.796875 72.90625 
L 67.578125 0 
L 57.328125 0 
L 50.6875 18.703125 
L 17.828125 18.703125 
L 11.1875 0 
L 0.78125 0 
z
" id="DejaVuSans-65"/>
     </defs>
     <use xlink:href="#DejaVuSans-71"/>
     <use x="77.490234" xlink:href="#DejaVuSans-114"/>
     <use x="116.353516" xlink:href="#DejaVuSans-111"/>
     <use x="177.535156" xlink:href="#DejaVuSans-117"/>
     <use x="240.914062" xlink:href="#DejaVuSans-112"/>
     <use x="304.390625" xlink:href="#DejaVuSans-32"/>
     <use x="336.177734" xlink:href="#DejaVuSans-65"/>
    </g>
   </g>
  </g>
  <g id="axes_2">
   <g id="patch_7">
    <path d="M 254.38125 247.64 
L 417.18125 247.64 
L 417.18125 48.04 
L 254.38125 48.04 
z
" style="fill:#ffffff;"/>
   </g>
   <g id="PathCollection_2">
    <g clip-path="url(#p0f1003f8ab)">
     <use style="fill:#1f77b4;fill-opacity:0.8;stroke:#1f77b4;stroke-opacity:0.8;" x="254.38125" xlink:href="#mf4194539de" y="181.408284"/>
     <use style="fill:#1f77b4;fill-opacity:0.8;stroke:#1f77b4;stroke-opacity:0.8;" x="266.904327" xlink:href="#mf4194539de" y="181.408284"/>
     <use style="fill:#1f77b4;fill-opacity:0.8;stroke:#1f77b4;stroke-opacity:0.8;" x="379.612019" xlink:href="#mf4194539de" y="124.249295"/>
     <use style="fill:#1f77b4;fill-opacity:0.8;stroke:#1f77b4;stroke-opacity:0.8;" x="342.042788" xlink:href="#mf4194539de" y="124.249295"/>
     <use style="fill:#1f77b4;fill-opacity:0.8;stroke:#1f77b4;stroke-opacity:0.8;" x="316.996635" xlink:href="#mf4194539de" y="124.249295"/>
     <use style="fill:#1f77b4;fill-opacity:0.8;stroke:#1f77b4;stroke-opacity:0.8;" x="379.612019" xlink:href="#mf4194539de" y="124.249295"/>
     <use style="fill:#1f77b4;fill-opacity:0.8;stroke:#1f77b4;stroke-opacity:0.8;" x="316.996635" xlink:href="#mf4194539de" y="124.249295"/>
     <use style="fill:#1f77b4;fill-opacity:0.8;stroke:#1f77b4;stroke-opacity:0.8;" x="342.042788" xlink:href="#mf4194539de" y="181.408284"/>
     <use style="fill:#1f77b4;fill-opacity:0.8;stroke:#1f77b4;stroke-opacity:0.8;" x="342.042788" xlink:href="#mf4194539de" y="67.090306"/>
     <use style="fill:#1f77b4;fill-opacity:0.8;stroke:#1f77b4;stroke-opacity:0.8;" x="367.088942" xlink:href="#mf4194539de" y="124.249295"/>
     <use style="fill:#1f77b4;fill-opacity:0.8;stroke:#1f77b4;stroke-opacity:0.8;" x="342.042788" xlink:href="#mf4194539de" y="124.249295"/>
     <use style="fill:#1f77b4;fill-opacity:0.8;stroke:#1f77b4;stroke-opacity:0.8;" x="379.612019" xlink:href="#mf4194539de" y="124.249295"/>
     <use style="fill:#1f77b4;fill-opacity:0.8;stroke:#1f77b4;stroke-opacity:0.8;" x="342.042788" xlink:href="#mf4194539de" y="124.249295"/>
     <use style="fill:#1f77b4;fill-opacity:0.8;stroke:#1f77b4;stroke-opacity:0.8;" x="392.135096" xlink:href="#mf4194539de" y="124.249295"/>
     <use style="fill:#1f77b4;fill-opacity:0.8;stroke:#1f77b4;stroke-opacity:0.8;" x="354.565865" xlink:href="#mf4194539de" y="124.249295"/>
     <use style="fill:#1f77b4;fill-opacity:0.8;stroke:#1f77b4;stroke-opacity:0.8;" x="392.135096" xlink:href="#mf4194539de" y="67.090306"/>
     <use style="fill:#1f77b4;fill-opacity:0.8;stroke:#1f77b4;stroke-opacity:0.8;" x="354.565865" xlink:href="#mf4194539de" y="124.249295"/>
     <use style="fill:#1f77b4;fill-opacity:0.8;stroke:#1f77b4;stroke-opacity:0.8;" x="316.996635" xlink:href="#mf4194539de" y="67.090306"/>
     <use style="fill:#1f77b4;fill-opacity:0.8;stroke:#1f77b4;stroke-opacity:0.8;" x="367.088942" xlink:href="#mf4194539de" y="67.090306"/>
     <use style="fill:#1f77b4;fill-opacity:0.8;stroke:#1f77b4;stroke-opacity:0.8;" x="279.427404" xlink:href="#mf4194539de" y="181.408284"/>
     <use style="fill:#1f77b4;fill-opacity:0.8;stroke:#1f77b4;stroke-opacity:0.8;" x="417.18125" xlink:href="#mf4194539de" y="124.249295"/>
     <use style="fill:#1f77b4;fill-opacity:0.8;stroke:#1f77b4;stroke-opacity:0.8;" x="316.996635" xlink:href="#mf4194539de" y="238.567273"/>
     <use style="fill:#1f77b4;fill-opacity:0.8;stroke:#1f77b4;stroke-opacity:0.8;" x="367.088942" xlink:href="#mf4194539de" y="67.090306"/>
     <use style="fill:#1f77b4;fill-opacity:0.8;stroke:#1f77b4;stroke-opacity:0.8;" x="379.612019" xlink:href="#mf4194539de" y="67.090306"/>
     <use style="fill:#1f77b4;fill-opacity:0.8;stroke:#1f77b4;stroke-opacity:0.8;" x="379.612019" xlink:href="#mf4194539de" y="124.249295"/>
     <use style="fill:#1f77b4;fill-opacity:0.8;stroke:#1f77b4;stroke-opacity:0.8;" x="316.996635" xlink:href="#mf4194539de" y="124.249295"/>
     <use style="fill:#1f77b4;fill-opacity:0.8;stroke:#1f77b4;stroke-opacity:0.8;" x="316.996635" xlink:href="#mf4194539de" y="67.090306"/>
     <use style="fill:#1f77b4;fill-opacity:0.8;stroke:#1f77b4;stroke-opacity:0.8;" x="316.996635" xlink:href="#mf4194539de" y="67.090306"/>
     <use style="fill:#1f77b4;fill-opacity:0.8;stroke:#1f77b4;stroke-opacity:0.8;" x="379.612019" xlink:href="#mf4194539de" y="67.090306"/>
     <use style="fill:#1f77b4;fill-opacity:0.8;stroke:#1f77b4;stroke-opacity:0.8;" x="379.612019" xlink:href="#mf4194539de" y="67.090306"/>
     <use style="fill:#1f77b4;fill-opacity:0.8;stroke:#1f77b4;stroke-opacity:0.8;" x="254.38125" xlink:href="#mf4194539de" y="124.249295"/>
     <use style="fill:#1f77b4;fill-opacity:0.8;stroke:#1f77b4;stroke-opacity:0.8;" x="329.519712" xlink:href="#mf4194539de" y="124.249295"/>
     <use style="fill:#1f77b4;fill-opacity:0.8;stroke:#1f77b4;stroke-opacity:0.8;" x="354.565865" xlink:href="#mf4194539de" y="67.090306"/>
     <use style="fill:#1f77b4;fill-opacity:0.8;stroke:#1f77b4;stroke-opacity:0.8;" x="316.996635" xlink:href="#mf4194539de" y="124.249295"/>
     <use style="fill:#1f77b4;fill-opacity:0.8;stroke:#1f77b4;stroke-opacity:0.8;" x="342.042788" xlink:href="#mf4194539de" y="124.249295"/>
     <use style="fill:#1f77b4;fill-opacity:0.8;stroke:#1f77b4;stroke-opacity:0.8;" x="329.519712" xlink:href="#mf4194539de" y="181.408284"/>
     <use style="fill:#1f77b4;fill-opacity:0.8;stroke:#1f77b4;stroke-opacity:0.8;" x="316.996635" xlink:href="#mf4194539de" y="124.249295"/>
     <use style="fill:#1f77b4;fill-opacity:0.8;stroke:#1f77b4;stroke-opacity:0.8;" x="367.088942" xlink:href="#mf4194539de" y="67.090306"/>
     <use style="fill:#1f77b4;fill-opacity:0.8;stroke:#1f77b4;stroke-opacity:0.8;" x="316.996635" xlink:href="#mf4194539de" y="124.249295"/>
     <use style="fill:#1f77b4;fill-opacity:0.8;stroke:#1f77b4;stroke-opacity:0.8;" x="316.996635" xlink:href="#mf4194539de" y="67.090306"/>
     <use style="fill:#1f77b4;fill-opacity:0.8;stroke:#1f77b4;stroke-opacity:0.8;" x="316.996635" xlink:href="#mf4194539de" y="67.090306"/>
     <use style="fill:#1f77b4;fill-opacity:0.8;stroke:#1f77b4;stroke-opacity:0.8;" x="379.612019" xlink:href="#mf4194539de" y="67.090306"/>
    </g>
   </g>
   <g id="PolyCollection_2">
    <path clip-path="url(#p0f1003f8ab)" d="M 254.38125 118.084833 
L 254.38125 181.635693 
L 256.025694 180.463279 
L 257.670139 179.288886 
L 259.314583 178.113278 
L 260.959028 176.93427 
L 262.603472 175.615713 
L 264.247917 174.376763 
L 265.892361 173.209054 
L 267.536806 172.045617 
L 269.18125 170.917336 
L 270.825694 169.789056 
L 272.470139 168.660288 
L 274.114583 167.398712 
L 275.759028 166.304269 
L 277.403472 165.117257 
L 279.047917 163.866884 
L 280.692361 162.696452 
L 282.336806 161.425909 
L 283.98125 160.203316 
L 285.625694 159.187312 
L 287.270139 158.028844 
L 288.914583 156.960019 
L 290.559028 155.892346 
L 292.203472 154.72475 
L 293.847917 153.611391 
L 295.492361 152.414695 
L 297.136806 151.217999 
L 298.78125 150.093287 
L 300.425694 149.111306 
L 302.070139 148.129193 
L 303.714583 146.944777 
L 305.359028 145.805654 
L 307.003472 144.599724 
L 308.647917 143.56028 
L 310.292361 142.5237 
L 311.936806 141.516334 
L 313.58125 140.457773 
L 315.225694 139.417065 
L 316.870139 138.335962 
L 318.514583 137.452073 
L 320.159028 136.6104 
L 321.803472 135.714829 
L 323.447917 134.730702 
L 325.092361 133.624564 
L 326.736806 132.56007 
L 328.38125 131.648154 
L 330.025694 130.68346 
L 331.670139 129.852752 
L 333.314583 129.010241 
L 334.959028 128.108907 
L 336.603472 127.117705 
L 338.247917 126.407833 
L 339.892361 125.474878 
L 341.536806 124.54074 
L 343.18125 123.685573 
L 344.825694 122.937578 
L 346.470139 122.15275 
L 348.114583 121.492817 
L 349.759028 120.754382 
L 351.403472 120.100237 
L 353.047917 119.301961 
L 354.692361 118.587254 
L 356.336806 117.815763 
L 357.98125 117.069589 
L 359.625694 116.447328 
L 361.270139 115.868195 
L 362.914583 115.273841 
L 364.559028 114.645781 
L 366.203472 113.953669 
L 367.847917 112.961647 
L 369.492361 112.362405 
L 371.136806 112.008352 
L 372.78125 111.572057 
L 374.425694 110.941137 
L 376.070139 110.371648 
L 377.714583 109.812669 
L 379.359028 109.263343 
L 381.003472 108.939506 
L 382.647917 108.635302 
L 384.292361 107.986261 
L 385.936806 107.513465 
L 387.58125 107.080633 
L 389.225694 106.792362 
L 390.870139 106.334989 
L 392.514583 105.858026 
L 394.159028 105.729927 
L 395.803472 105.543582 
L 397.447917 105.135468 
L 399.092361 104.713407 
L 400.736806 104.314659 
L 402.38125 104.011052 
L 404.025694 103.464998 
L 405.670139 103.046854 
L 407.314583 102.62871 
L 408.959028 102.297508 
L 410.603472 102.006253 
L 412.247917 101.793669 
L 413.892361 101.641735 
L 415.536806 101.42729 
L 417.18125 101.212476 
L 417.18125 57.112727 
L 417.18125 57.112727 
L 415.536806 58.264808 
L 413.892361 59.365625 
L 412.247917 60.459342 
L 410.603472 61.614081 
L 408.959028 62.76882 
L 407.314583 63.884785 
L 405.670139 64.989275 
L 404.025694 66.045521 
L 402.38125 67.164633 
L 400.736806 68.289525 
L 399.092361 69.423788 
L 397.447917 70.558052 
L 395.803472 71.692315 
L 394.159028 72.786729 
L 392.514583 73.876705 
L 390.870139 74.994241 
L 389.225694 76.114332 
L 387.58125 77.363633 
L 385.936806 78.497897 
L 384.292361 79.63216 
L 382.647917 80.766424 
L 381.003472 81.89867 
L 379.359028 82.900095 
L 377.714583 83.880847 
L 376.070139 84.841859 
L 374.425694 85.895683 
L 372.78125 87.026866 
L 371.136806 88.199623 
L 369.492361 89.223011 
L 367.847917 90.231612 
L 366.203472 91.028908 
L 364.559028 92.187925 
L 362.914583 93.147911 
L 361.270139 94.062272 
L 359.625694 94.88267 
L 357.98125 95.677394 
L 356.336806 96.43607 
L 354.692361 97.122313 
L 353.047917 97.702802 
L 351.403472 98.210688 
L 349.759028 98.822174 
L 348.114583 99.487412 
L 346.470139 99.999253 
L 344.825694 100.665979 
L 343.18125 101.102113 
L 341.536806 101.889571 
L 339.892361 102.480311 
L 338.247917 102.790034 
L 336.603472 103.170931 
L 334.959028 103.639206 
L 333.314583 104.181618 
L 331.670139 104.576206 
L 330.025694 104.819479 
L 328.38125 105.013613 
L 326.736806 105.423126 
L 325.092361 105.897752 
L 323.447917 106.145691 
L 321.803472 106.492833 
L 320.159028 106.641818 
L 318.514583 106.961506 
L 316.870139 107.500293 
L 315.225694 108.016458 
L 313.58125 108.39055 
L 311.936806 108.748152 
L 310.292361 109.103158 
L 308.647917 109.458164 
L 307.003472 109.64742 
L 305.359028 110.118683 
L 303.714583 110.491516 
L 302.070139 110.647654 
L 300.425694 110.804857 
L 298.78125 111.089939 
L 297.136806 111.457011 
L 295.492361 111.689253 
L 293.847917 111.780449 
L 292.203472 112.056351 
L 290.559028 112.333467 
L 288.914583 112.612843 
L 287.270139 112.892219 
L 285.625694 113.171594 
L 283.98125 113.45097 
L 282.336806 113.727024 
L 280.692361 113.837958 
L 279.047917 113.949336 
L 277.403472 114.193284 
L 275.759028 114.578199 
L 274.114583 114.966547 
L 272.470139 115.354895 
L 270.825694 115.704495 
L 269.18125 115.91119 
L 267.536806 116.086917 
L 265.892361 116.319553 
L 264.247917 116.65828 
L 262.603472 116.997008 
L 260.959028 117.335735 
L 259.314583 117.614384 
L 257.670139 117.7712 
L 256.025694 117.928016 
L 254.38125 118.084833 
z
" style="fill:#1f77b4;fill-opacity:0.15;"/>
   </g>
   <g id="matplotlib.axis_3">
    <g id="xtick_4">
     <g id="line2d_13">
      <g>
       <use style="stroke:#000000;stroke-width:0.8;" x="291.950481" xlink:href="#m003d231e49" y="247.64"/>
      </g>
     </g>
     <g id="text_15">
      <!-- 2 -->
      <g transform="translate(288.769231 262.238437)scale(0.1 -0.1)">
       <use xlink:href="#DejaVuSans-50"/>
      </g>
     </g>
    </g>
    <g id="xtick_5">
     <g id="line2d_14">
      <g>
       <use style="stroke:#000000;stroke-width:0.8;" x="342.042788" xlink:href="#m003d231e49" y="247.64"/>
      </g>
     </g>
     <g id="text_16">
      <!-- 3 -->
      <g transform="translate(338.861538 262.238437)scale(0.1 -0.1)">
       <use xlink:href="#DejaVuSans-51"/>
      </g>
     </g>
    </g>
    <g id="xtick_6">
     <g id="line2d_15">
      <g>
       <use style="stroke:#000000;stroke-width:0.8;" x="392.135096" xlink:href="#m003d231e49" y="247.64"/>
      </g>
     </g>
     <g id="text_17">
      <!-- 4 -->
      <g transform="translate(388.953846 262.238437)scale(0.1 -0.1)">
       <use xlink:href="#DejaVuSans-52"/>
      </g>
     </g>
    </g>
    <g id="text_18">
     <!-- E -->
     <g transform="translate(332.621875 275.916562)scale(0.1 -0.1)">
      <use xlink:href="#DejaVuSans-69"/>
     </g>
    </g>
   </g>
   <g id="matplotlib.axis_4">
    <g id="ytick_9">
     <g id="line2d_16">
      <g>
       <use style="stroke:#000000;stroke-width:0.8;" x="254.38125" xlink:href="#m79de62e0d1" y="238.567273"/>
      </g>
     </g>
     <g id="text_19">
      <!-- 2.0 -->
      <g transform="translate(231.478125 242.366491)scale(0.1 -0.1)">
       <use xlink:href="#DejaVuSans-50"/>
       <use x="63.623047" xlink:href="#DejaVuSans-46"/>
       <use x="95.410156" xlink:href="#DejaVuSans-48"/>
      </g>
     </g>
    </g>
    <g id="ytick_10">
     <g id="line2d_17">
      <g>
       <use style="stroke:#000000;stroke-width:0.8;" x="254.38125" xlink:href="#m79de62e0d1" y="209.987778"/>
      </g>
     </g>
     <g id="text_20">
      <!-- 2.5 -->
      <g transform="translate(231.478125 213.786997)scale(0.1 -0.1)">
       <use xlink:href="#DejaVuSans-50"/>
       <use x="63.623047" xlink:href="#DejaVuSans-46"/>
       <use x="95.410156" xlink:href="#DejaVuSans-53"/>
      </g>
     </g>
    </g>
    <g id="ytick_11">
     <g id="line2d_18">
      <g>
       <use style="stroke:#000000;stroke-width:0.8;" x="254.38125" xlink:href="#m79de62e0d1" y="181.408284"/>
      </g>
     </g>
     <g id="text_21">
      <!-- 3.0 -->
      <g transform="translate(231.478125 185.207502)scale(0.1 -0.1)">
       <use xlink:href="#DejaVuSans-51"/>
       <use x="63.623047" xlink:href="#DejaVuSans-46"/>
       <use x="95.410156" xlink:href="#DejaVuSans-48"/>
      </g>
     </g>
    </g>
    <g id="ytick_12">
     <g id="line2d_19">
      <g>
       <use style="stroke:#000000;stroke-width:0.8;" x="254.38125" xlink:href="#m79de62e0d1" y="152.828789"/>
      </g>
     </g>
     <g id="text_22">
      <!-- 3.5 -->
      <g transform="translate(231.478125 156.628008)scale(0.1 -0.1)">
       <use xlink:href="#DejaVuSans-51"/>
       <use x="63.623047" xlink:href="#DejaVuSans-46"/>
       <use x="95.410156" xlink:href="#DejaVuSans-53"/>
      </g>
     </g>
    </g>
    <g id="ytick_13">
     <g id="line2d_20">
      <g>
       <use style="stroke:#000000;stroke-width:0.8;" x="254.38125" xlink:href="#m79de62e0d1" y="124.249295"/>
      </g>
     </g>
     <g id="text_23">
      <!-- 4.0 -->
      <g transform="translate(231.478125 128.048513)scale(0.1 -0.1)">
       <use xlink:href="#DejaVuSans-52"/>
       <use x="63.623047" xlink:href="#DejaVuSans-46"/>
       <use x="95.410156" xlink:href="#DejaVuSans-48"/>
      </g>
     </g>
    </g>
    <g id="ytick_14">
     <g id="line2d_21">
      <g>
       <use style="stroke:#000000;stroke-width:0.8;" x="254.38125" xlink:href="#m79de62e0d1" y="95.6698"/>
      </g>
     </g>
     <g id="text_24">
      <!-- 4.5 -->
      <g transform="translate(231.478125 99.469019)scale(0.1 -0.1)">
       <use xlink:href="#DejaVuSans-52"/>
       <use x="63.623047" xlink:href="#DejaVuSans-46"/>
       <use x="95.410156" xlink:href="#DejaVuSans-53"/>
      </g>
     </g>
    </g>
    <g id="ytick_15">
     <g id="line2d_22">
      <g>
       <use style="stroke:#000000;stroke-width:0.8;" x="254.38125" xlink:href="#m79de62e0d1" y="67.090306"/>
      </g>
     </g>
     <g id="text_25">
      <!-- 5.0 -->
      <g transform="translate(231.478125 70.889524)scale(0.1 -0.1)">
       <use xlink:href="#DejaVuSans-53"/>
       <use x="63.623047" xlink:href="#DejaVuSans-46"/>
       <use x="95.410156" xlink:href="#DejaVuSans-48"/>
      </g>
     </g>
    </g>
    <g id="text_26">
     <!-- Trust2 -->
     <g transform="translate(225.398437 163.126719)rotate(-90)scale(0.1 -0.1)">
      <use xlink:href="#DejaVuSans-84"/>
      <use x="46.333984" xlink:href="#DejaVuSans-114"/>
      <use x="87.447266" xlink:href="#DejaVuSans-117"/>
      <use x="150.826172" xlink:href="#DejaVuSans-115"/>
      <use x="202.925781" xlink:href="#DejaVuSans-116"/>
      <use x="242.134766" xlink:href="#DejaVuSans-50"/>
     </g>
    </g>
   </g>
   <g id="line2d_23">
    <path clip-path="url(#p0f1003f8ab)" d="M 254.38125 152.658629 
L 256.025694 151.916411 
L 257.670139 151.174194 
L 259.314583 150.431976 
L 260.959028 149.689758 
L 262.603472 148.94754 
L 264.247917 148.205322 
L 265.892361 147.463105 
L 267.536806 146.720887 
L 269.18125 145.978669 
L 270.825694 145.236451 
L 272.470139 144.494234 
L 274.114583 143.752016 
L 275.759028 143.009798 
L 277.403472 142.26758 
L 279.047917 141.525362 
L 280.692361 140.783145 
L 282.336806 140.040927 
L 283.98125 139.298709 
L 285.625694 138.556491 
L 287.270139 137.814274 
L 288.914583 137.072056 
L 290.559028 136.329838 
L 292.203472 135.58762 
L 293.847917 134.845402 
L 295.492361 134.103185 
L 297.136806 133.360967 
L 298.78125 132.618749 
L 300.425694 131.876531 
L 302.070139 131.134314 
L 303.714583 130.392096 
L 305.359028 129.649878 
L 307.003472 128.90766 
L 308.647917 128.165442 
L 310.292361 127.423225 
L 311.936806 126.681007 
L 313.58125 125.938789 
L 315.225694 125.196571 
L 316.870139 124.454354 
L 318.514583 123.712136 
L 320.159028 122.969918 
L 321.803472 122.2277 
L 323.447917 121.485482 
L 325.092361 120.743265 
L 326.736806 120.001047 
L 328.38125 119.258829 
L 330.025694 118.516611 
L 331.670139 117.774394 
L 333.314583 117.032176 
L 334.959028 116.289958 
L 336.603472 115.54774 
L 338.247917 114.805522 
L 339.892361 114.063305 
L 341.536806 113.321087 
L 343.18125 112.578869 
L 344.825694 111.836651 
L 346.470139 111.094434 
L 348.114583 110.352216 
L 349.759028 109.609998 
L 351.403472 108.86778 
L 353.047917 108.125562 
L 354.692361 107.383345 
L 356.336806 106.641127 
L 357.98125 105.898909 
L 359.625694 105.156691 
L 361.270139 104.414474 
L 362.914583 103.672256 
L 364.559028 102.930038 
L 366.203472 102.18782 
L 367.847917 101.445603 
L 369.492361 100.703385 
L 371.136806 99.961167 
L 372.78125 99.218949 
L 374.425694 98.476731 
L 376.070139 97.734514 
L 377.714583 96.992296 
L 379.359028 96.250078 
L 381.003472 95.50786 
L 382.647917 94.765643 
L 384.292361 94.023425 
L 385.936806 93.281207 
L 387.58125 92.538989 
L 389.225694 91.796771 
L 390.870139 91.054554 
L 392.514583 90.312336 
L 394.159028 89.570118 
L 395.803472 88.8279 
L 397.447917 88.085683 
L 399.092361 87.343465 
L 400.736806 86.601247 
L 402.38125 85.859029 
L 404.025694 85.116811 
L 405.670139 84.374594 
L 407.314583 83.632376 
L 408.959028 82.890158 
L 410.603472 82.14794 
L 412.247917 81.405723 
L 413.892361 80.663505 
L 415.536806 79.921287 
L 417.18125 79.179069 
" style="fill:none;stroke:#1f77b4;stroke-linecap:square;stroke-width:2.25;"/>
   </g>
   <g id="patch_8">
    <path d="M 254.38125 247.64 
L 254.38125 48.04 
" style="fill:none;stroke:#000000;stroke-linecap:square;stroke-linejoin:miter;stroke-width:0.8;"/>
   </g>
   <g id="patch_9">
    <path d="M 417.18125 247.64 
L 417.18125 48.04 
" style="fill:none;stroke:#000000;stroke-linecap:square;stroke-linejoin:miter;stroke-width:0.8;"/>
   </g>
   <g id="patch_10">
    <path d="M 254.38125 247.64 
L 417.18125 247.64 
" style="fill:none;stroke:#000000;stroke-linecap:square;stroke-linejoin:miter;stroke-width:0.8;"/>
   </g>
   <g id="patch_11">
    <path d="M 254.38125 48.04 
L 417.18125 48.04 
" style="fill:none;stroke:#000000;stroke-linecap:square;stroke-linejoin:miter;stroke-width:0.8;"/>
   </g>
   <g id="text_27">
    <!-- Group B -->
    <g transform="translate(254.38125 42.04)scale(0.12 -0.12)">
     <defs>
      <path d="M 19.671875 34.8125 
L 19.671875 8.109375 
L 35.5 8.109375 
Q 43.453125 8.109375 47.28125 11.40625 
Q 51.125 14.703125 51.125 21.484375 
Q 51.125 28.328125 47.28125 31.5625 
Q 43.453125 34.8125 35.5 34.8125 
z
M 19.671875 64.796875 
L 19.671875 42.828125 
L 34.28125 42.828125 
Q 41.5 42.828125 45.03125 45.53125 
Q 48.578125 48.25 48.578125 53.8125 
Q 48.578125 59.328125 45.03125 62.0625 
Q 41.5 64.796875 34.28125 64.796875 
z
M 9.8125 72.90625 
L 35.015625 72.90625 
Q 46.296875 72.90625 52.390625 68.21875 
Q 58.5 63.53125 58.5 54.890625 
Q 58.5 48.1875 55.375 44.234375 
Q 52.25 40.28125 46.1875 39.3125 
Q 53.46875 37.75 57.5 32.78125 
Q 61.53125 27.828125 61.53125 20.40625 
Q 61.53125 10.640625 54.890625 5.3125 
Q 48.25 0 35.984375 0 
L 9.8125 0 
z
" id="DejaVuSans-66"/>
     </defs>
     <use xlink:href="#DejaVuSans-71"/>
     <use x="77.490234" xlink:href="#DejaVuSans-114"/>
     <use x="116.353516" xlink:href="#DejaVuSans-111"/>
     <use x="177.535156" xlink:href="#DejaVuSans-117"/>
     <use x="240.914062" xlink:href="#DejaVuSans-112"/>
     <use x="304.390625" xlink:href="#DejaVuSans-32"/>
     <use x="336.177734" xlink:href="#DejaVuSans-66"/>
    </g>
   </g>
  </g>
  <g id="text_28">
   <!-- The bike chatbot made me feel good. -->
   <g transform="translate(133.834136 13.529498)scale(0.0833 -0.0833)">
    <defs>
     <path d="M 54.890625 33.015625 
L 54.890625 0 
L 45.90625 0 
L 45.90625 32.71875 
Q 45.90625 40.484375 42.875 44.328125 
Q 39.84375 48.1875 33.796875 48.1875 
Q 26.515625 48.1875 22.3125 43.546875 
Q 18.109375 38.921875 18.109375 30.90625 
L 18.109375 0 
L 9.078125 0 
L 9.078125 75.984375 
L 18.109375 75.984375 
L 18.109375 46.1875 
Q 21.34375 51.125 25.703125 53.5625 
Q 30.078125 56 35.796875 56 
Q 45.21875 56 50.046875 50.171875 
Q 54.890625 44.34375 54.890625 33.015625 
z
" id="DejaVuSans-104"/>
     <path d="M 56.203125 29.59375 
L 56.203125 25.203125 
L 14.890625 25.203125 
Q 15.484375 15.921875 20.484375 11.0625 
Q 25.484375 6.203125 34.421875 6.203125 
Q 39.59375 6.203125 44.453125 7.46875 
Q 49.3125 8.734375 54.109375 11.28125 
L 54.109375 2.78125 
Q 49.265625 0.734375 44.1875 -0.34375 
Q 39.109375 -1.421875 33.890625 -1.421875 
Q 20.796875 -1.421875 13.15625 6.1875 
Q 5.515625 13.8125 5.515625 26.8125 
Q 5.515625 40.234375 12.765625 48.109375 
Q 20.015625 56 32.328125 56 
Q 43.359375 56 49.78125 48.890625 
Q 56.203125 41.796875 56.203125 29.59375 
z
M 47.21875 32.234375 
Q 47.125 39.59375 43.09375 43.984375 
Q 39.0625 48.390625 32.421875 48.390625 
Q 24.90625 48.390625 20.390625 44.140625 
Q 15.875 39.890625 15.1875 32.171875 
z
" id="DejaVuSans-101"/>
     <path d="M 48.6875 27.296875 
Q 48.6875 37.203125 44.609375 42.84375 
Q 40.53125 48.484375 33.40625 48.484375 
Q 26.265625 48.484375 22.1875 42.84375 
Q 18.109375 37.203125 18.109375 27.296875 
Q 18.109375 17.390625 22.1875 11.75 
Q 26.265625 6.109375 33.40625 6.109375 
Q 40.53125 6.109375 44.609375 11.75 
Q 48.6875 17.390625 48.6875 27.296875 
z
M 18.109375 46.390625 
Q 20.953125 51.265625 25.265625 53.625 
Q 29.59375 56 35.59375 56 
Q 45.5625 56 51.78125 48.09375 
Q 58.015625 40.1875 58.015625 27.296875 
Q 58.015625 14.40625 51.78125 6.484375 
Q 45.5625 -1.421875 35.59375 -1.421875 
Q 29.59375 -1.421875 25.265625 0.953125 
Q 20.953125 3.328125 18.109375 8.203125 
L 18.109375 0 
L 9.078125 0 
L 9.078125 75.984375 
L 18.109375 75.984375 
z
" id="DejaVuSans-98"/>
     <path d="M 9.421875 54.6875 
L 18.40625 54.6875 
L 18.40625 0 
L 9.421875 0 
z
M 9.421875 75.984375 
L 18.40625 75.984375 
L 18.40625 64.59375 
L 9.421875 64.59375 
z
" id="DejaVuSans-105"/>
     <path d="M 9.078125 75.984375 
L 18.109375 75.984375 
L 18.109375 31.109375 
L 44.921875 54.6875 
L 56.390625 54.6875 
L 27.390625 29.109375 
L 57.625 0 
L 45.90625 0 
L 18.109375 26.703125 
L 18.109375 0 
L 9.078125 0 
z
" id="DejaVuSans-107"/>
     <path d="M 48.78125 52.59375 
L 48.78125 44.1875 
Q 44.96875 46.296875 41.140625 47.34375 
Q 37.3125 48.390625 33.40625 48.390625 
Q 24.65625 48.390625 19.8125 42.84375 
Q 14.984375 37.3125 14.984375 27.296875 
Q 14.984375 17.28125 19.8125 11.734375 
Q 24.65625 6.203125 33.40625 6.203125 
Q 37.3125 6.203125 41.140625 7.25 
Q 44.96875 8.296875 48.78125 10.40625 
L 48.78125 2.09375 
Q 45.015625 0.34375 40.984375 -0.53125 
Q 36.96875 -1.421875 32.421875 -1.421875 
Q 20.0625 -1.421875 12.78125 6.34375 
Q 5.515625 14.109375 5.515625 27.296875 
Q 5.515625 40.671875 12.859375 48.328125 
Q 20.21875 56 33.015625 56 
Q 37.15625 56 41.109375 55.140625 
Q 45.0625 54.296875 48.78125 52.59375 
z
" id="DejaVuSans-99"/>
     <path d="M 34.28125 27.484375 
Q 23.390625 27.484375 19.1875 25 
Q 14.984375 22.515625 14.984375 16.5 
Q 14.984375 11.71875 18.140625 8.90625 
Q 21.296875 6.109375 26.703125 6.109375 
Q 34.1875 6.109375 38.703125 11.40625 
Q 43.21875 16.703125 43.21875 25.484375 
L 43.21875 27.484375 
z
M 52.203125 31.203125 
L 52.203125 0 
L 43.21875 0 
L 43.21875 8.296875 
Q 40.140625 3.328125 35.546875 0.953125 
Q 30.953125 -1.421875 24.3125 -1.421875 
Q 15.921875 -1.421875 10.953125 3.296875 
Q 6 8.015625 6 15.921875 
Q 6 25.140625 12.171875 29.828125 
Q 18.359375 34.515625 30.609375 34.515625 
L 43.21875 34.515625 
L 43.21875 35.40625 
Q 43.21875 41.609375 39.140625 45 
Q 35.0625 48.390625 27.6875 48.390625 
Q 23 48.390625 18.546875 47.265625 
Q 14.109375 46.140625 10.015625 43.890625 
L 10.015625 52.203125 
Q 14.9375 54.109375 19.578125 55.046875 
Q 24.21875 56 28.609375 56 
Q 40.484375 56 46.34375 49.84375 
Q 52.203125 43.703125 52.203125 31.203125 
z
" id="DejaVuSans-97"/>
     <path d="M 52 44.1875 
Q 55.375 50.25 60.0625 53.125 
Q 64.75 56 71.09375 56 
Q 79.640625 56 84.28125 50.015625 
Q 88.921875 44.046875 88.921875 33.015625 
L 88.921875 0 
L 79.890625 0 
L 79.890625 32.71875 
Q 79.890625 40.578125 77.09375 44.375 
Q 74.3125 48.1875 68.609375 48.1875 
Q 61.625 48.1875 57.5625 43.546875 
Q 53.515625 38.921875 53.515625 30.90625 
L 53.515625 0 
L 44.484375 0 
L 44.484375 32.71875 
Q 44.484375 40.625 41.703125 44.40625 
Q 38.921875 48.1875 33.109375 48.1875 
Q 26.21875 48.1875 22.15625 43.53125 
Q 18.109375 38.875 18.109375 30.90625 
L 18.109375 0 
L 9.078125 0 
L 9.078125 54.6875 
L 18.109375 54.6875 
L 18.109375 46.1875 
Q 21.1875 51.21875 25.484375 53.609375 
Q 29.78125 56 35.6875 56 
Q 41.65625 56 45.828125 52.96875 
Q 50 49.953125 52 44.1875 
z
" id="DejaVuSans-109"/>
     <path d="M 45.40625 46.390625 
L 45.40625 75.984375 
L 54.390625 75.984375 
L 54.390625 0 
L 45.40625 0 
L 45.40625 8.203125 
Q 42.578125 3.328125 38.25 0.953125 
Q 33.9375 -1.421875 27.875 -1.421875 
Q 17.96875 -1.421875 11.734375 6.484375 
Q 5.515625 14.40625 5.515625 27.296875 
Q 5.515625 40.1875 11.734375 48.09375 
Q 17.96875 56 27.875 56 
Q 33.9375 56 38.25 53.625 
Q 42.578125 51.265625 45.40625 46.390625 
z
M 14.796875 27.296875 
Q 14.796875 17.390625 18.875 11.75 
Q 22.953125 6.109375 30.078125 6.109375 
Q 37.203125 6.109375 41.296875 11.75 
Q 45.40625 17.390625 45.40625 27.296875 
Q 45.40625 37.203125 41.296875 42.84375 
Q 37.203125 48.484375 30.078125 48.484375 
Q 22.953125 48.484375 18.875 42.84375 
Q 14.796875 37.203125 14.796875 27.296875 
z
" id="DejaVuSans-100"/>
     <path d="M 37.109375 75.984375 
L 37.109375 68.5 
L 28.515625 68.5 
Q 23.6875 68.5 21.796875 66.546875 
Q 19.921875 64.59375 19.921875 59.515625 
L 19.921875 54.6875 
L 34.71875 54.6875 
L 34.71875 47.703125 
L 19.921875 47.703125 
L 19.921875 0 
L 10.890625 0 
L 10.890625 47.703125 
L 2.296875 47.703125 
L 2.296875 54.6875 
L 10.890625 54.6875 
L 10.890625 58.5 
Q 10.890625 67.625 15.140625 71.796875 
Q 19.390625 75.984375 28.609375 75.984375 
z
" id="DejaVuSans-102"/>
     <path d="M 9.421875 75.984375 
L 18.40625 75.984375 
L 18.40625 0 
L 9.421875 0 
z
" id="DejaVuSans-108"/>
     <path d="M 45.40625 27.984375 
Q 45.40625 37.75 41.375 43.109375 
Q 37.359375 48.484375 30.078125 48.484375 
Q 22.859375 48.484375 18.828125 43.109375 
Q 14.796875 37.75 14.796875 27.984375 
Q 14.796875 18.265625 18.828125 12.890625 
Q 22.859375 7.515625 30.078125 7.515625 
Q 37.359375 7.515625 41.375 12.890625 
Q 45.40625 18.265625 45.40625 27.984375 
z
M 54.390625 6.78125 
Q 54.390625 -7.171875 48.1875 -13.984375 
Q 42 -20.796875 29.203125 -20.796875 
Q 24.46875 -20.796875 20.265625 -20.09375 
Q 16.0625 -19.390625 12.109375 -17.921875 
L 12.109375 -9.1875 
Q 16.0625 -11.328125 19.921875 -12.34375 
Q 23.78125 -13.375 27.78125 -13.375 
Q 36.625 -13.375 41.015625 -8.765625 
Q 45.40625 -4.15625 45.40625 5.171875 
L 45.40625 9.625 
Q 42.625 4.78125 38.28125 2.390625 
Q 33.9375 0 27.875 0 
Q 17.828125 0 11.671875 7.65625 
Q 5.515625 15.328125 5.515625 27.984375 
Q 5.515625 40.671875 11.671875 48.328125 
Q 17.828125 56 27.875 56 
Q 33.9375 56 38.28125 53.609375 
Q 42.625 51.21875 45.40625 46.390625 
L 45.40625 54.6875 
L 54.390625 54.6875 
z
" id="DejaVuSans-103"/>
    </defs>
    <use xlink:href="#DejaVuSans-84"/>
    <use x="61.083984" xlink:href="#DejaVuSans-104"/>
    <use x="124.462891" xlink:href="#DejaVuSans-101"/>
    <use x="185.986328" xlink:href="#DejaVuSans-32"/>
    <use x="217.773438" xlink:href="#DejaVuSans-98"/>
    <use x="281.25" xlink:href="#DejaVuSans-105"/>
    <use x="309.033203" xlink:href="#DejaVuSans-107"/>
    <use x="363.318359" xlink:href="#DejaVuSans-101"/>
    <use x="424.841797" xlink:href="#DejaVuSans-32"/>
    <use x="456.628906" xlink:href="#DejaVuSans-99"/>
    <use x="511.609375" xlink:href="#DejaVuSans-104"/>
    <use x="574.988281" xlink:href="#DejaVuSans-97"/>
    <use x="636.267578" xlink:href="#DejaVuSans-116"/>
    <use x="675.476562" xlink:href="#DejaVuSans-98"/>
    <use x="738.953125" xlink:href="#DejaVuSans-111"/>
    <use x="800.134766" xlink:href="#DejaVuSans-116"/>
    <use x="839.34375" xlink:href="#DejaVuSans-32"/>
    <use x="871.130859" xlink:href="#DejaVuSans-109"/>
    <use x="968.542969" xlink:href="#DejaVuSans-97"/>
    <use x="1029.822266" xlink:href="#DejaVuSans-100"/>
    <use x="1093.298828" xlink:href="#DejaVuSans-101"/>
    <use x="1154.822266" xlink:href="#DejaVuSans-32"/>
    <use x="1186.609375" xlink:href="#DejaVuSans-109"/>
    <use x="1284.021484" xlink:href="#DejaVuSans-101"/>
    <use x="1345.544922" xlink:href="#DejaVuSans-32"/>
    <use x="1377.332031" xlink:href="#DejaVuSans-102"/>
    <use x="1412.537109" xlink:href="#DejaVuSans-101"/>
    <use x="1474.060547" xlink:href="#DejaVuSans-101"/>
    <use x="1535.583984" xlink:href="#DejaVuSans-108"/>
    <use x="1563.367188" xlink:href="#DejaVuSans-32"/>
    <use x="1595.154297" xlink:href="#DejaVuSans-103"/>
    <use x="1658.630859" xlink:href="#DejaVuSans-111"/>
    <use x="1719.8125" xlink:href="#DejaVuSans-111"/>
    <use x="1780.994141" xlink:href="#DejaVuSans-100"/>
    <use x="1844.470703" xlink:href="#DejaVuSans-46"/>
   </g>
  </g>
 </g>
 <defs>
  <clipPath id="pf5368ddfd0">
   <rect height="199.6" width="162.8" x="43.78125" y="48.04"/>
  </clipPath>
  <clipPath id="p0f1003f8ab">
   <rect height="199.6" width="162.8" x="254.38125" y="48.04"/>
  </clipPath>
 </defs>
</svg>
