<?xml version="1.0" encoding="utf-8" standalone="no"?>
<!DOCTYPE svg PUBLIC "-//W3C//DTD SVG 1.1//EN"
  "http://www.w3.org/Graphics/SVG/1.1/DTD/svg11.dtd">
<!-- Created with matplotlib (https://matplotlib.org/) -->
<svg height="285.19625pt" version="1.1" viewBox="0 0 424.465625 285.19625" width="424.465625pt" xmlns="http://www.w3.org/2000/svg" xmlns:xlink="http://www.w3.org/1999/xlink">
 <metadata>
  <rdf:RDF xmlns:cc="http://creativecommons.org/ns#" xmlns:dc="http://purl.org/dc/elements/1.1/" xmlns:rdf="http://www.w3.org/1999/02/22-rdf-syntax-ns#">
   <cc:Work>
    <dc:type rdf:resource="http://purl.org/dc/dcmitype/StillImage"/>
    <dc:date>2021-02-21T18:27:34.802683</dc:date>
    <dc:format>image/svg+xml</dc:format>
    <dc:creator>
     <cc:Agent>
      <dc:title>Matplotlib v3.3.2, https://matplotlib.org/</dc:title>
     </cc:Agent>
    </dc:creator>
   </cc:Work>
  </rdf:RDF>
 </metadata>
 <defs>
  <style type="text/css">*{stroke-linecap:butt;stroke-linejoin:round;}</style>
 </defs>
 <g id="figure_1">
  <g id="patch_1">
   <path d="M 0 285.19625 
L 424.465625 285.19625 
L 424.465625 0 
L 0 0 
z
" style="fill:none;"/>
  </g>
  <g id="axes_1">
   <g id="patch_2">
    <path d="M 34.240625 247.64 
L 201.853125 247.64 
L 201.853125 48.04 
L 34.240625 48.04 
z
" style="fill:#ffffff;"/>
   </g>
   <g id="PathCollection_1">
    <defs>
     <path d="M 0 3 
C 0.795609 3 1.55874 2.683901 2.12132 2.12132 
C 2.683901 1.55874 3 0.795609 3 0 
C 3 -0.795609 2.683901 -1.55874 2.12132 -2.12132 
C 1.55874 -2.683901 0.795609 -3 0 -3 
C -0.795609 -3 -1.55874 -2.683901 -2.12132 -2.12132 
C -2.683901 -1.55874 -3 -0.795609 -3 0 
C -3 0.795609 -2.683901 1.55874 -2.12132 2.12132 
C -1.55874 2.683901 -0.795609 3 0 3 
z
" id="m6df97fd306" style="stroke:#1f77b4;stroke-opacity:0.8;"/>
    </defs>
    <g clip-path="url(#pcf143ed2a7)">
     <use style="fill:#1f77b4;fill-opacity:0.8;stroke:#1f77b4;stroke-opacity:0.8;" x="137.386779" xlink:href="#m6df97fd306" y="164.103913"/>
     <use style="fill:#1f77b4;fill-opacity:0.8;stroke:#1f77b4;stroke-opacity:0.8;" x="60.027163" xlink:href="#m6df97fd306" y="89.640553"/>
     <use style="fill:#1f77b4;fill-opacity:0.8;stroke:#1f77b4;stroke-opacity:0.8;" x="72.920433" xlink:href="#m6df97fd306" y="126.872233"/>
     <use style="fill:#1f77b4;fill-opacity:0.8;stroke:#1f77b4;stroke-opacity:0.8;" x="137.386779" xlink:href="#m6df97fd306" y="89.640553"/>
     <use style="fill:#1f77b4;fill-opacity:0.8;stroke:#1f77b4;stroke-opacity:0.8;" x="163.173317" xlink:href="#m6df97fd306" y="126.872233"/>
     <use style="fill:#1f77b4;fill-opacity:0.8;stroke:#1f77b4;stroke-opacity:0.8;" x="124.49351" xlink:href="#m6df97fd306" y="89.640553"/>
     <use style="fill:#1f77b4;fill-opacity:0.8;stroke:#1f77b4;stroke-opacity:0.8;" x="176.066587" xlink:href="#m6df97fd306" y="89.640553"/>
     <use style="fill:#1f77b4;fill-opacity:0.8;stroke:#1f77b4;stroke-opacity:0.8;" x="124.49351" xlink:href="#m6df97fd306" y="164.103913"/>
     <use style="fill:#1f77b4;fill-opacity:0.8;stroke:#1f77b4;stroke-opacity:0.8;" x="72.920433" xlink:href="#m6df97fd306" y="126.872233"/>
     <use style="fill:#1f77b4;fill-opacity:0.8;stroke:#1f77b4;stroke-opacity:0.8;" x="111.60024" xlink:href="#m6df97fd306" y="89.640553"/>
     <use style="fill:#1f77b4;fill-opacity:0.8;stroke:#1f77b4;stroke-opacity:0.8;" x="111.60024" xlink:href="#m6df97fd306" y="89.640553"/>
     <use style="fill:#1f77b4;fill-opacity:0.8;stroke:#1f77b4;stroke-opacity:0.8;" x="163.173317" xlink:href="#m6df97fd306" y="89.640553"/>
     <use style="fill:#1f77b4;fill-opacity:0.8;stroke:#1f77b4;stroke-opacity:0.8;" x="85.813702" xlink:href="#m6df97fd306" y="89.640553"/>
     <use style="fill:#1f77b4;fill-opacity:0.8;stroke:#1f77b4;stroke-opacity:0.8;" x="124.49351" xlink:href="#m6df97fd306" y="164.103913"/>
     <use style="fill:#1f77b4;fill-opacity:0.8;stroke:#1f77b4;stroke-opacity:0.8;" x="124.49351" xlink:href="#m6df97fd306" y="164.103913"/>
     <use style="fill:#1f77b4;fill-opacity:0.8;stroke:#1f77b4;stroke-opacity:0.8;" x="150.280048" xlink:href="#m6df97fd306" y="89.640553"/>
     <use style="fill:#1f77b4;fill-opacity:0.8;stroke:#1f77b4;stroke-opacity:0.8;" x="111.60024" xlink:href="#m6df97fd306" y="126.872233"/>
     <use style="fill:#1f77b4;fill-opacity:0.8;stroke:#1f77b4;stroke-opacity:0.8;" x="98.706971" xlink:href="#m6df97fd306" y="126.872233"/>
     <use style="fill:#1f77b4;fill-opacity:0.8;stroke:#1f77b4;stroke-opacity:0.8;" x="150.280048" xlink:href="#m6df97fd306" y="89.640553"/>
     <use style="fill:#1f77b4;fill-opacity:0.8;stroke:#1f77b4;stroke-opacity:0.8;" x="34.240625" xlink:href="#m6df97fd306" y="238.567273"/>
     <use style="fill:#1f77b4;fill-opacity:0.8;stroke:#1f77b4;stroke-opacity:0.8;" x="85.813702" xlink:href="#m6df97fd306" y="126.872233"/>
     <use style="fill:#1f77b4;fill-opacity:0.8;stroke:#1f77b4;stroke-opacity:0.8;" x="201.853125" xlink:href="#m6df97fd306" y="89.640553"/>
     <use style="fill:#1f77b4;fill-opacity:0.8;stroke:#1f77b4;stroke-opacity:0.8;" x="111.60024" xlink:href="#m6df97fd306" y="89.640553"/>
     <use style="fill:#1f77b4;fill-opacity:0.8;stroke:#1f77b4;stroke-opacity:0.8;" x="111.60024" xlink:href="#m6df97fd306" y="126.872233"/>
     <use style="fill:#1f77b4;fill-opacity:0.8;stroke:#1f77b4;stroke-opacity:0.8;" x="111.60024" xlink:href="#m6df97fd306" y="89.640553"/>
     <use style="fill:#1f77b4;fill-opacity:0.8;stroke:#1f77b4;stroke-opacity:0.8;" x="111.60024" xlink:href="#m6df97fd306" y="126.872233"/>
     <use style="fill:#1f77b4;fill-opacity:0.8;stroke:#1f77b4;stroke-opacity:0.8;" x="98.706971" xlink:href="#m6df97fd306" y="89.640553"/>
     <use style="fill:#1f77b4;fill-opacity:0.8;stroke:#1f77b4;stroke-opacity:0.8;" x="85.813702" xlink:href="#m6df97fd306" y="89.640553"/>
     <use style="fill:#1f77b4;fill-opacity:0.8;stroke:#1f77b4;stroke-opacity:0.8;" x="98.706971" xlink:href="#m6df97fd306" y="126.872233"/>
     <use style="fill:#1f77b4;fill-opacity:0.8;stroke:#1f77b4;stroke-opacity:0.8;" x="111.60024" xlink:href="#m6df97fd306" y="89.640553"/>
     <use style="fill:#1f77b4;fill-opacity:0.8;stroke:#1f77b4;stroke-opacity:0.8;" x="111.60024" xlink:href="#m6df97fd306" y="126.872233"/>
     <use style="fill:#1f77b4;fill-opacity:0.8;stroke:#1f77b4;stroke-opacity:0.8;" x="85.813702" xlink:href="#m6df97fd306" y="89.640553"/>
     <use style="fill:#1f77b4;fill-opacity:0.8;stroke:#1f77b4;stroke-opacity:0.8;" x="124.49351" xlink:href="#m6df97fd306" y="89.640553"/>
     <use style="fill:#1f77b4;fill-opacity:0.8;stroke:#1f77b4;stroke-opacity:0.8;" x="124.49351" xlink:href="#m6df97fd306" y="126.872233"/>
     <use style="fill:#1f77b4;fill-opacity:0.8;stroke:#1f77b4;stroke-opacity:0.8;" x="98.706971" xlink:href="#m6df97fd306" y="89.640553"/>
     <use style="fill:#1f77b4;fill-opacity:0.8;stroke:#1f77b4;stroke-opacity:0.8;" x="98.706971" xlink:href="#m6df97fd306" y="126.872233"/>
     <use style="fill:#1f77b4;fill-opacity:0.8;stroke:#1f77b4;stroke-opacity:0.8;" x="85.813702" xlink:href="#m6df97fd306" y="126.872233"/>
     <use style="fill:#1f77b4;fill-opacity:0.8;stroke:#1f77b4;stroke-opacity:0.8;" x="111.60024" xlink:href="#m6df97fd306" y="126.872233"/>
     <use style="fill:#1f77b4;fill-opacity:0.8;stroke:#1f77b4;stroke-opacity:0.8;" x="98.706971" xlink:href="#m6df97fd306" y="89.640553"/>
     <use style="fill:#1f77b4;fill-opacity:0.8;stroke:#1f77b4;stroke-opacity:0.8;" x="85.813702" xlink:href="#m6df97fd306" y="164.103913"/>
     <use style="fill:#1f77b4;fill-opacity:0.8;stroke:#1f77b4;stroke-opacity:0.8;" x="47.133894" xlink:href="#m6df97fd306" y="89.640553"/>
    </g>
   </g>
   <g id="PolyCollection_1">
    <path clip-path="url(#pcf143ed2a7)" d="M 34.240625 100.205513 
L 34.240625 168.770975 
L 35.933681 167.581372 
L 37.626736 166.419719 
L 39.319792 165.334527 
L 41.012847 164.191045 
L 42.705903 163.137716 
L 44.398958 162.093929 
L 46.092014 161.015548 
L 47.785069 159.937167 
L 49.478125 158.858786 
L 51.171181 157.780405 
L 52.864236 156.702024 
L 54.557292 155.623643 
L 56.250347 154.543682 
L 57.943403 153.61753 
L 59.636458 152.694924 
L 61.329514 151.581544 
L 63.022569 150.462526 
L 64.715625 149.367701 
L 66.408681 148.223431 
L 68.101736 147.166591 
L 69.794792 146.102148 
L 71.487847 144.875649 
L 73.180903 143.755302 
L 74.873958 142.915937 
L 76.567014 141.769423 
L 78.260069 140.795236 
L 79.953125 139.75152 
L 81.646181 138.900584 
L 83.339236 138.180602 
L 85.032292 137.236981 
L 86.725347 136.341313 
L 88.418403 135.471499 
L 90.111458 134.512835 
L 91.804514 133.656066 
L 93.497569 132.799296 
L 95.190625 132.060293 
L 96.883681 131.093062 
L 98.576736 130.234094 
L 100.269792 129.530744 
L 101.962847 128.806471 
L 103.655903 127.937351 
L 105.348958 126.970204 
L 107.042014 126.052559 
L 108.735069 125.131996 
L 110.428125 124.339424 
L 112.121181 123.570218 
L 113.814236 123.143409 
L 115.507292 122.422919 
L 117.200347 121.832666 
L 118.893403 121.263821 
L 120.586458 121.114472 
L 122.279514 120.876622 
L 123.972569 120.3851 
L 125.665625 120.343139 
L 127.358681 120.43104 
L 129.051736 120.225405 
L 130.744792 120.202382 
L 132.437847 120.18695 
L 134.130903 120.181364 
L 135.823958 120.276129 
L 137.517014 120.532057 
L 139.210069 120.496149 
L 140.903125 120.398103 
L 142.596181 120.84654 
L 144.289236 121.332001 
L 145.982292 121.686521 
L 147.675347 121.940374 
L 149.368403 122.095654 
L 151.061458 122.34806 
L 152.754514 122.488831 
L 154.447569 122.626063 
L 156.140625 122.763295 
L 157.833681 123.024485 
L 159.526736 123.367622 
L 161.219792 123.705647 
L 162.912847 124.042821 
L 164.605903 124.102821 
L 166.298958 124.2284 
L 167.992014 124.57131 
L 169.685069 124.929301 
L 171.378125 125.091277 
L 173.071181 125.382803 
L 174.764236 125.673525 
L 176.457292 125.900656 
L 178.150347 125.980691 
L 179.843403 126.322878 
L 181.536458 126.662969 
L 183.229514 126.891226 
L 184.922569 127.044141 
L 186.615625 127.197057 
L 188.308681 127.348666 
L 190.001736 127.500236 
L 191.694792 127.651805 
L 193.387847 127.803374 
L 195.080903 128.040932 
L 196.773958 128.340413 
L 198.467014 128.639895 
L 200.160069 128.939376 
L 201.853125 129.238858 
L 201.853125 57.112727 
L 201.853125 57.112727 
L 200.160069 58.068792 
L 198.467014 59.024857 
L 196.773958 59.980922 
L 195.080903 60.936987 
L 193.387847 62.006916 
L 191.694792 62.983953 
L 190.001736 63.916195 
L 188.308681 64.848438 
L 186.615625 65.780681 
L 184.922569 66.714212 
L 183.229514 67.73379 
L 181.536458 68.765585 
L 179.843403 69.799216 
L 178.150347 70.832846 
L 176.457292 71.868123 
L 174.764236 72.941912 
L 173.071181 74.123043 
L 171.378125 75.306117 
L 169.685069 76.489944 
L 167.992014 77.561603 
L 166.298958 78.523875 
L 164.605903 79.486148 
L 162.912847 80.458597 
L 161.219792 81.431099 
L 159.526736 82.366772 
L 157.833681 83.621246 
L 156.140625 84.749534 
L 154.447569 85.818491 
L 152.754514 86.890054 
L 151.061458 87.966026 
L 149.368403 89.047032 
L 147.675347 90.122429 
L 145.982292 91.117211 
L 144.289236 92.030045 
L 142.596181 93.06795 
L 140.903125 94.170007 
L 139.210069 95.219767 
L 137.517014 96.221795 
L 135.823958 97.173804 
L 134.130903 98.059913 
L 132.437847 99.003327 
L 130.744792 99.946924 
L 129.051736 100.776956 
L 127.358681 101.593457 
L 125.665625 102.288303 
L 123.972569 102.932838 
L 122.279514 103.516635 
L 120.586458 104.263409 
L 118.893403 104.752383 
L 117.200347 105.17823 
L 115.507292 105.697914 
L 113.814236 106.005577 
L 112.121181 106.28896 
L 110.428125 106.539407 
L 108.735069 106.740958 
L 107.042014 106.85306 
L 105.348958 106.968923 
L 103.655903 107.046641 
L 101.962847 106.979703 
L 100.269792 107.01371 
L 98.576736 107.09446 
L 96.883681 107.125478 
L 95.190625 107.027205 
L 93.497569 106.822722 
L 91.804514 106.715034 
L 90.111458 106.677576 
L 88.418403 106.654267 
L 86.725347 106.552364 
L 85.032292 106.534274 
L 83.339236 106.417576 
L 81.646181 106.285664 
L 79.953125 106.11437 
L 78.260069 105.821336 
L 76.567014 105.626622 
L 74.873958 105.474524 
L 73.180903 105.213236 
L 71.487847 105.264819 
L 69.794792 105.049668 
L 68.101736 104.707634 
L 66.408681 104.3656 
L 64.715625 104.023566 
L 63.022569 103.761667 
L 61.329514 103.538799 
L 59.636458 103.243086 
L 57.943403 103.09186 
L 56.250347 102.94308 
L 54.557292 102.795085 
L 52.864236 102.796884 
L 51.171181 102.627289 
L 49.478125 102.367884 
L 47.785069 102.132278 
L 46.092014 101.990869 
L 44.398958 101.820492 
L 42.705903 101.514978 
L 41.012847 101.282166 
L 39.319792 101.013002 
L 37.626736 100.743839 
L 35.933681 100.474676 
L 34.240625 100.205513 
z
" style="fill:#1f77b4;fill-opacity:0.15;"/>
   </g>
   <g id="matplotlib.axis_1">
    <g id="xtick_1">
     <g id="line2d_1">
      <defs>
       <path d="M 0 0 
L 0 3.5 
" id="m8243e95502" style="stroke:#000000;stroke-width:0.8;"/>
      </defs>
      <g>
       <use style="stroke:#000000;stroke-width:0.8;" x="60.027163" xlink:href="#m8243e95502" y="247.64"/>
      </g>
     </g>
     <g id="text_1">
      <!-- 2 -->
      <g transform="translate(56.845913 262.238437)scale(0.1 -0.1)">
       <defs>
        <path d="M 19.1875 8.296875 
L 53.609375 8.296875 
L 53.609375 0 
L 7.328125 0 
L 7.328125 8.296875 
Q 12.9375 14.109375 22.625 23.890625 
Q 32.328125 33.6875 34.8125 36.53125 
Q 39.546875 41.84375 41.421875 45.53125 
Q 43.3125 49.21875 43.3125 52.78125 
Q 43.3125 58.59375 39.234375 62.25 
Q 35.15625 65.921875 28.609375 65.921875 
Q 23.96875 65.921875 18.8125 64.3125 
Q 13.671875 62.703125 7.8125 59.421875 
L 7.8125 69.390625 
Q 13.765625 71.78125 18.9375 73 
Q 24.125 74.21875 28.421875 74.21875 
Q 39.75 74.21875 46.484375 68.546875 
Q 53.21875 62.890625 53.21875 53.421875 
Q 53.21875 48.921875 51.53125 44.890625 
Q 49.859375 40.875 45.40625 35.40625 
Q 44.1875 33.984375 37.640625 27.21875 
Q 31.109375 20.453125 19.1875 8.296875 
z
" id="DejaVuSans-50"/>
       </defs>
       <use xlink:href="#DejaVuSans-50"/>
      </g>
     </g>
    </g>
    <g id="xtick_2">
     <g id="line2d_2">
      <g>
       <use style="stroke:#000000;stroke-width:0.8;" x="111.60024" xlink:href="#m8243e95502" y="247.64"/>
      </g>
     </g>
     <g id="text_2">
      <!-- 3 -->
      <g transform="translate(108.41899 262.238437)scale(0.1 -0.1)">
       <defs>
        <path d="M 40.578125 39.3125 
Q 47.65625 37.796875 51.625 33 
Q 55.609375 28.21875 55.609375 21.1875 
Q 55.609375 10.40625 48.1875 4.484375 
Q 40.765625 -1.421875 27.09375 -1.421875 
Q 22.515625 -1.421875 17.65625 -0.515625 
Q 12.796875 0.390625 7.625 2.203125 
L 7.625 11.71875 
Q 11.71875 9.328125 16.59375 8.109375 
Q 21.484375 6.890625 26.8125 6.890625 
Q 36.078125 6.890625 40.9375 10.546875 
Q 45.796875 14.203125 45.796875 21.1875 
Q 45.796875 27.640625 41.28125 31.265625 
Q 36.765625 34.90625 28.71875 34.90625 
L 20.21875 34.90625 
L 20.21875 43.015625 
L 29.109375 43.015625 
Q 36.375 43.015625 40.234375 45.921875 
Q 44.09375 48.828125 44.09375 54.296875 
Q 44.09375 59.90625 40.109375 62.90625 
Q 36.140625 65.921875 28.71875 65.921875 
Q 24.65625 65.921875 20.015625 65.03125 
Q 15.375 64.15625 9.8125 62.3125 
L 9.8125 71.09375 
Q 15.4375 72.65625 20.34375 73.4375 
Q 25.25 74.21875 29.59375 74.21875 
Q 40.828125 74.21875 47.359375 69.109375 
Q 53.90625 64.015625 53.90625 55.328125 
Q 53.90625 49.265625 50.4375 45.09375 
Q 46.96875 40.921875 40.578125 39.3125 
z
" id="DejaVuSans-51"/>
       </defs>
       <use xlink:href="#DejaVuSans-51"/>
      </g>
     </g>
    </g>
    <g id="xtick_3">
     <g id="line2d_3">
      <g>
       <use style="stroke:#000000;stroke-width:0.8;" x="163.173317" xlink:href="#m8243e95502" y="247.64"/>
      </g>
     </g>
     <g id="text_3">
      <!-- 4 -->
      <g transform="translate(159.992067 262.238437)scale(0.1 -0.1)">
       <defs>
        <path d="M 37.796875 64.3125 
L 12.890625 25.390625 
L 37.796875 25.390625 
z
M 35.203125 72.90625 
L 47.609375 72.90625 
L 47.609375 25.390625 
L 58.015625 25.390625 
L 58.015625 17.1875 
L 47.609375 17.1875 
L 47.609375 0 
L 37.796875 0 
L 37.796875 17.1875 
L 4.890625 17.1875 
L 4.890625 26.703125 
z
" id="DejaVuSans-52"/>
       </defs>
       <use xlink:href="#DejaVuSans-52"/>
      </g>
     </g>
    </g>
    <g id="text_4">
     <!-- E -->
     <g transform="translate(114.8875 275.916562)scale(0.1 -0.1)">
      <defs>
       <path d="M 9.8125 72.90625 
L 55.90625 72.90625 
L 55.90625 64.59375 
L 19.671875 64.59375 
L 19.671875 43.015625 
L 54.390625 43.015625 
L 54.390625 34.71875 
L 19.671875 34.71875 
L 19.671875 8.296875 
L 56.78125 8.296875 
L 56.78125 0 
L 9.8125 0 
z
" id="DejaVuSans-69"/>
      </defs>
      <use xlink:href="#DejaVuSans-69"/>
     </g>
    </g>
   </g>
   <g id="matplotlib.axis_2">
    <g id="ytick_1">
     <g id="line2d_4">
      <defs>
       <path d="M 0 0 
L -3.5 0 
" id="mbf26602686" style="stroke:#000000;stroke-width:0.8;"/>
      </defs>
      <g>
       <use style="stroke:#000000;stroke-width:0.8;" x="34.240625" xlink:href="#mbf26602686" y="238.567273"/>
      </g>
     </g>
     <g id="text_5">
      <!-- 1 -->
      <g transform="translate(20.878125 242.366491)scale(0.1 -0.1)">
       <defs>
        <path d="M 12.40625 8.296875 
L 28.515625 8.296875 
L 28.515625 63.921875 
L 10.984375 60.40625 
L 10.984375 69.390625 
L 28.421875 72.90625 
L 38.28125 72.90625 
L 38.28125 8.296875 
L 54.390625 8.296875 
L 54.390625 0 
L 12.40625 0 
z
" id="DejaVuSans-49"/>
       </defs>
       <use xlink:href="#DejaVuSans-49"/>
      </g>
     </g>
    </g>
    <g id="ytick_2">
     <g id="line2d_5">
      <g>
       <use style="stroke:#000000;stroke-width:0.8;" x="34.240625" xlink:href="#mbf26602686" y="201.335593"/>
      </g>
     </g>
     <g id="text_6">
      <!-- 2 -->
      <g transform="translate(20.878125 205.134812)scale(0.1 -0.1)">
       <use xlink:href="#DejaVuSans-50"/>
      </g>
     </g>
    </g>
    <g id="ytick_3">
     <g id="line2d_6">
      <g>
       <use style="stroke:#000000;stroke-width:0.8;" x="34.240625" xlink:href="#mbf26602686" y="164.103913"/>
      </g>
     </g>
     <g id="text_7">
      <!-- 3 -->
      <g transform="translate(20.878125 167.903132)scale(0.1 -0.1)">
       <use xlink:href="#DejaVuSans-51"/>
      </g>
     </g>
    </g>
    <g id="ytick_4">
     <g id="line2d_7">
      <g>
       <use style="stroke:#000000;stroke-width:0.8;" x="34.240625" xlink:href="#mbf26602686" y="126.872233"/>
      </g>
     </g>
     <g id="text_8">
      <!-- 4 -->
      <g transform="translate(20.878125 130.671452)scale(0.1 -0.1)">
       <use xlink:href="#DejaVuSans-52"/>
      </g>
     </g>
    </g>
    <g id="ytick_5">
     <g id="line2d_8">
      <g>
       <use style="stroke:#000000;stroke-width:0.8;" x="34.240625" xlink:href="#mbf26602686" y="89.640553"/>
      </g>
     </g>
     <g id="text_9">
      <!-- 5 -->
      <g transform="translate(20.878125 93.439772)scale(0.1 -0.1)">
       <defs>
        <path d="M 10.796875 72.90625 
L 49.515625 72.90625 
L 49.515625 64.59375 
L 19.828125 64.59375 
L 19.828125 46.734375 
Q 21.96875 47.46875 24.109375 47.828125 
Q 26.265625 48.1875 28.421875 48.1875 
Q 40.625 48.1875 47.75 41.5 
Q 54.890625 34.8125 54.890625 23.390625 
Q 54.890625 11.625 47.5625 5.09375 
Q 40.234375 -1.421875 26.90625 -1.421875 
Q 22.3125 -1.421875 17.546875 -0.640625 
Q 12.796875 0.140625 7.71875 1.703125 
L 7.71875 11.625 
Q 12.109375 9.234375 16.796875 8.0625 
Q 21.484375 6.890625 26.703125 6.890625 
Q 35.15625 6.890625 40.078125 11.328125 
Q 45.015625 15.765625 45.015625 23.390625 
Q 45.015625 31 40.078125 35.4375 
Q 35.15625 39.890625 26.703125 39.890625 
Q 22.75 39.890625 18.8125 39.015625 
Q 14.890625 38.140625 10.796875 36.28125 
z
" id="DejaVuSans-53"/>
       </defs>
       <use xlink:href="#DejaVuSans-53"/>
      </g>
     </g>
    </g>
    <g id="ytick_6">
     <g id="line2d_9">
      <g>
       <use style="stroke:#000000;stroke-width:0.8;" x="34.240625" xlink:href="#mbf26602686" y="52.408873"/>
      </g>
     </g>
     <g id="text_10">
      <!-- 6 -->
      <g transform="translate(20.878125 56.208092)scale(0.1 -0.1)">
       <defs>
        <path d="M 33.015625 40.375 
Q 26.375 40.375 22.484375 35.828125 
Q 18.609375 31.296875 18.609375 23.390625 
Q 18.609375 15.53125 22.484375 10.953125 
Q 26.375 6.390625 33.015625 6.390625 
Q 39.65625 6.390625 43.53125 10.953125 
Q 47.40625 15.53125 47.40625 23.390625 
Q 47.40625 31.296875 43.53125 35.828125 
Q 39.65625 40.375 33.015625 40.375 
z
M 52.59375 71.296875 
L 52.59375 62.3125 
Q 48.875 64.0625 45.09375 64.984375 
Q 41.3125 65.921875 37.59375 65.921875 
Q 27.828125 65.921875 22.671875 59.328125 
Q 17.53125 52.734375 16.796875 39.40625 
Q 19.671875 43.65625 24.015625 45.921875 
Q 28.375 48.1875 33.59375 48.1875 
Q 44.578125 48.1875 50.953125 41.515625 
Q 57.328125 34.859375 57.328125 23.390625 
Q 57.328125 12.15625 50.6875 5.359375 
Q 44.046875 -1.421875 33.015625 -1.421875 
Q 20.359375 -1.421875 13.671875 8.265625 
Q 6.984375 17.96875 6.984375 36.375 
Q 6.984375 53.65625 15.1875 63.9375 
Q 23.390625 74.21875 37.203125 74.21875 
Q 40.921875 74.21875 44.703125 73.484375 
Q 48.484375 72.75 52.59375 71.296875 
z
" id="DejaVuSans-54"/>
       </defs>
       <use xlink:href="#DejaVuSans-54"/>
      </g>
     </g>
    </g>
    <g id="text_11">
     <!-- Expectation2 -->
     <g transform="translate(14.798438 180.741562)rotate(-90)scale(0.1 -0.1)">
      <defs>
       <path d="M 54.890625 54.6875 
L 35.109375 28.078125 
L 55.90625 0 
L 45.3125 0 
L 29.390625 21.484375 
L 13.484375 0 
L 2.875 0 
L 24.125 28.609375 
L 4.6875 54.6875 
L 15.28125 54.6875 
L 29.78125 35.203125 
L 44.28125 54.6875 
z
" id="DejaVuSans-120"/>
       <path d="M 18.109375 8.203125 
L 18.109375 -20.796875 
L 9.078125 -20.796875 
L 9.078125 54.6875 
L 18.109375 54.6875 
L 18.109375 46.390625 
Q 20.953125 51.265625 25.265625 53.625 
Q 29.59375 56 35.59375 56 
Q 45.5625 56 51.78125 48.09375 
Q 58.015625 40.1875 58.015625 27.296875 
Q 58.015625 14.40625 51.78125 6.484375 
Q 45.5625 -1.421875 35.59375 -1.421875 
Q 29.59375 -1.421875 25.265625 0.953125 
Q 20.953125 3.328125 18.109375 8.203125 
z
M 48.6875 27.296875 
Q 48.6875 37.203125 44.609375 42.84375 
Q 40.53125 48.484375 33.40625 48.484375 
Q 26.265625 48.484375 22.1875 42.84375 
Q 18.109375 37.203125 18.109375 27.296875 
Q 18.109375 17.390625 22.1875 11.75 
Q 26.265625 6.109375 33.40625 6.109375 
Q 40.53125 6.109375 44.609375 11.75 
Q 48.6875 17.390625 48.6875 27.296875 
z
" id="DejaVuSans-112"/>
       <path d="M 56.203125 29.59375 
L 56.203125 25.203125 
L 14.890625 25.203125 
Q 15.484375 15.921875 20.484375 11.0625 
Q 25.484375 6.203125 34.421875 6.203125 
Q 39.59375 6.203125 44.453125 7.46875 
Q 49.3125 8.734375 54.109375 11.28125 
L 54.109375 2.78125 
Q 49.265625 0.734375 44.1875 -0.34375 
Q 39.109375 -1.421875 33.890625 -1.421875 
Q 20.796875 -1.421875 13.15625 6.1875 
Q 5.515625 13.8125 5.515625 26.8125 
Q 5.515625 40.234375 12.765625 48.109375 
Q 20.015625 56 32.328125 56 
Q 43.359375 56 49.78125 48.890625 
Q 56.203125 41.796875 56.203125 29.59375 
z
M 47.21875 32.234375 
Q 47.125 39.59375 43.09375 43.984375 
Q 39.0625 48.390625 32.421875 48.390625 
Q 24.90625 48.390625 20.390625 44.140625 
Q 15.875 39.890625 15.1875 32.171875 
z
" id="DejaVuSans-101"/>
       <path d="M 48.78125 52.59375 
L 48.78125 44.1875 
Q 44.96875 46.296875 41.140625 47.34375 
Q 37.3125 48.390625 33.40625 48.390625 
Q 24.65625 48.390625 19.8125 42.84375 
Q 14.984375 37.3125 14.984375 27.296875 
Q 14.984375 17.28125 19.8125 11.734375 
Q 24.65625 6.203125 33.40625 6.203125 
Q 37.3125 6.203125 41.140625 7.25 
Q 44.96875 8.296875 48.78125 10.40625 
L 48.78125 2.09375 
Q 45.015625 0.34375 40.984375 -0.53125 
Q 36.96875 -1.421875 32.421875 -1.421875 
Q 20.0625 -1.421875 12.78125 6.34375 
Q 5.515625 14.109375 5.515625 27.296875 
Q 5.515625 40.671875 12.859375 48.328125 
Q 20.21875 56 33.015625 56 
Q 37.15625 56 41.109375 55.140625 
Q 45.0625 54.296875 48.78125 52.59375 
z
" id="DejaVuSans-99"/>
       <path d="M 18.3125 70.21875 
L 18.3125 54.6875 
L 36.8125 54.6875 
L 36.8125 47.703125 
L 18.3125 47.703125 
L 18.3125 18.015625 
Q 18.3125 11.328125 20.140625 9.421875 
Q 21.96875 7.515625 27.59375 7.515625 
L 36.8125 7.515625 
L 36.8125 0 
L 27.59375 0 
Q 17.1875 0 13.234375 3.875 
Q 9.28125 7.765625 9.28125 18.015625 
L 9.28125 47.703125 
L 2.6875 47.703125 
L 2.6875 54.6875 
L 9.28125 54.6875 
L 9.28125 70.21875 
z
" id="DejaVuSans-116"/>
       <path d="M 34.28125 27.484375 
Q 23.390625 27.484375 19.1875 25 
Q 14.984375 22.515625 14.984375 16.5 
Q 14.984375 11.71875 18.140625 8.90625 
Q 21.296875 6.109375 26.703125 6.109375 
Q 34.1875 6.109375 38.703125 11.40625 
Q 43.21875 16.703125 43.21875 25.484375 
L 43.21875 27.484375 
z
M 52.203125 31.203125 
L 52.203125 0 
L 43.21875 0 
L 43.21875 8.296875 
Q 40.140625 3.328125 35.546875 0.953125 
Q 30.953125 -1.421875 24.3125 -1.421875 
Q 15.921875 -1.421875 10.953125 3.296875 
Q 6 8.015625 6 15.921875 
Q 6 25.140625 12.171875 29.828125 
Q 18.359375 34.515625 30.609375 34.515625 
L 43.21875 34.515625 
L 43.21875 35.40625 
Q 43.21875 41.609375 39.140625 45 
Q 35.0625 48.390625 27.6875 48.390625 
Q 23 48.390625 18.546875 47.265625 
Q 14.109375 46.140625 10.015625 43.890625 
L 10.015625 52.203125 
Q 14.9375 54.109375 19.578125 55.046875 
Q 24.21875 56 28.609375 56 
Q 40.484375 56 46.34375 49.84375 
Q 52.203125 43.703125 52.203125 31.203125 
z
" id="DejaVuSans-97"/>
       <path d="M 9.421875 54.6875 
L 18.40625 54.6875 
L 18.40625 0 
L 9.421875 0 
z
M 9.421875 75.984375 
L 18.40625 75.984375 
L 18.40625 64.59375 
L 9.421875 64.59375 
z
" id="DejaVuSans-105"/>
       <path d="M 30.609375 48.390625 
Q 23.390625 48.390625 19.1875 42.75 
Q 14.984375 37.109375 14.984375 27.296875 
Q 14.984375 17.484375 19.15625 11.84375 
Q 23.34375 6.203125 30.609375 6.203125 
Q 37.796875 6.203125 41.984375 11.859375 
Q 46.1875 17.53125 46.1875 27.296875 
Q 46.1875 37.015625 41.984375 42.703125 
Q 37.796875 48.390625 30.609375 48.390625 
z
M 30.609375 56 
Q 42.328125 56 49.015625 48.375 
Q 55.71875 40.765625 55.71875 27.296875 
Q 55.71875 13.875 49.015625 6.21875 
Q 42.328125 -1.421875 30.609375 -1.421875 
Q 18.84375 -1.421875 12.171875 6.21875 
Q 5.515625 13.875 5.515625 27.296875 
Q 5.515625 40.765625 12.171875 48.375 
Q 18.84375 56 30.609375 56 
z
" id="DejaVuSans-111"/>
       <path d="M 54.890625 33.015625 
L 54.890625 0 
L 45.90625 0 
L 45.90625 32.71875 
Q 45.90625 40.484375 42.875 44.328125 
Q 39.84375 48.1875 33.796875 48.1875 
Q 26.515625 48.1875 22.3125 43.546875 
Q 18.109375 38.921875 18.109375 30.90625 
L 18.109375 0 
L 9.078125 0 
L 9.078125 54.6875 
L 18.109375 54.6875 
L 18.109375 46.1875 
Q 21.34375 51.125 25.703125 53.5625 
Q 30.078125 56 35.796875 56 
Q 45.21875 56 50.046875 50.171875 
Q 54.890625 44.34375 54.890625 33.015625 
z
" id="DejaVuSans-110"/>
      </defs>
      <use xlink:href="#DejaVuSans-69"/>
      <use x="63.183594" xlink:href="#DejaVuSans-120"/>
      <use x="122.363281" xlink:href="#DejaVuSans-112"/>
      <use x="185.839844" xlink:href="#DejaVuSans-101"/>
      <use x="247.363281" xlink:href="#DejaVuSans-99"/>
      <use x="302.34375" xlink:href="#DejaVuSans-116"/>
      <use x="341.552734" xlink:href="#DejaVuSans-97"/>
      <use x="402.832031" xlink:href="#DejaVuSans-116"/>
      <use x="442.041016" xlink:href="#DejaVuSans-105"/>
      <use x="469.824219" xlink:href="#DejaVuSans-111"/>
      <use x="531.005859" xlink:href="#DejaVuSans-110"/>
      <use x="594.384766" xlink:href="#DejaVuSans-50"/>
     </g>
    </g>
   </g>
   <g id="line2d_10">
    <path clip-path="url(#pcf143ed2a7)" d="M 34.240625 135.179729 
L 35.933681 134.734118 
L 37.626736 134.288508 
L 39.319792 133.842897 
L 41.012847 133.397287 
L 42.705903 132.951677 
L 44.398958 132.506066 
L 46.092014 132.060456 
L 47.785069 131.614845 
L 49.478125 131.169235 
L 51.171181 130.723625 
L 52.864236 130.278014 
L 54.557292 129.832404 
L 56.250347 129.386793 
L 57.943403 128.941183 
L 59.636458 128.495573 
L 61.329514 128.049962 
L 63.022569 127.604352 
L 64.715625 127.158742 
L 66.408681 126.713131 
L 68.101736 126.267521 
L 69.794792 125.82191 
L 71.487847 125.3763 
L 73.180903 124.93069 
L 74.873958 124.485079 
L 76.567014 124.039469 
L 78.260069 123.593858 
L 79.953125 123.148248 
L 81.646181 122.702638 
L 83.339236 122.257027 
L 85.032292 121.811417 
L 86.725347 121.365806 
L 88.418403 120.920196 
L 90.111458 120.474586 
L 91.804514 120.028975 
L 93.497569 119.583365 
L 95.190625 119.137755 
L 96.883681 118.692144 
L 98.576736 118.246534 
L 100.269792 117.800923 
L 101.962847 117.355313 
L 103.655903 116.909703 
L 105.348958 116.464092 
L 107.042014 116.018482 
L 108.735069 115.572871 
L 110.428125 115.127261 
L 112.121181 114.681651 
L 113.814236 114.23604 
L 115.507292 113.79043 
L 117.200347 113.344819 
L 118.893403 112.899209 
L 120.586458 112.453599 
L 122.279514 112.007988 
L 123.972569 111.562378 
L 125.665625 111.116768 
L 127.358681 110.671157 
L 129.051736 110.225547 
L 130.744792 109.779936 
L 132.437847 109.334326 
L 134.130903 108.888716 
L 135.823958 108.443105 
L 137.517014 107.997495 
L 139.210069 107.551884 
L 140.903125 107.106274 
L 142.596181 106.660664 
L 144.289236 106.215053 
L 145.982292 105.769443 
L 147.675347 105.323832 
L 149.368403 104.878222 
L 151.061458 104.432612 
L 152.754514 103.987001 
L 154.447569 103.541391 
L 156.140625 103.095781 
L 157.833681 102.65017 
L 159.526736 102.20456 
L 161.219792 101.758949 
L 162.912847 101.313339 
L 164.605903 100.867729 
L 166.298958 100.422118 
L 167.992014 99.976508 
L 169.685069 99.530897 
L 171.378125 99.085287 
L 173.071181 98.639677 
L 174.764236 98.194066 
L 176.457292 97.748456 
L 178.150347 97.302845 
L 179.843403 96.857235 
L 181.536458 96.411625 
L 183.229514 95.966014 
L 184.922569 95.520404 
L 186.615625 95.074794 
L 188.308681 94.629183 
L 190.001736 94.183573 
L 191.694792 93.737962 
L 193.387847 93.292352 
L 195.080903 92.846742 
L 196.773958 92.401131 
L 198.467014 91.955521 
L 200.160069 91.50991 
L 201.853125 91.0643 
" style="fill:none;stroke:#1f77b4;stroke-linecap:square;stroke-width:2.25;"/>
   </g>
   <g id="patch_3">
    <path d="M 34.240625 247.64 
L 34.240625 48.04 
" style="fill:none;stroke:#000000;stroke-linecap:square;stroke-linejoin:miter;stroke-width:0.8;"/>
   </g>
   <g id="patch_4">
    <path d="M 201.853125 247.64 
L 201.853125 48.04 
" style="fill:none;stroke:#000000;stroke-linecap:square;stroke-linejoin:miter;stroke-width:0.8;"/>
   </g>
   <g id="patch_5">
    <path d="M 34.240625 247.64 
L 201.853125 247.64 
" style="fill:none;stroke:#000000;stroke-linecap:square;stroke-linejoin:miter;stroke-width:0.8;"/>
   </g>
   <g id="patch_6">
    <path d="M 34.240625 48.04 
L 201.853125 48.04 
" style="fill:none;stroke:#000000;stroke-linecap:square;stroke-linejoin:miter;stroke-width:0.8;"/>
   </g>
   <g id="text_12">
    <!-- Group A -->
    <g transform="translate(34.240625 42.04)scale(0.12 -0.12)">
     <defs>
      <path d="M 59.515625 10.40625 
L 59.515625 29.984375 
L 43.40625 29.984375 
L 43.40625 38.09375 
L 69.28125 38.09375 
L 69.28125 6.78125 
Q 63.578125 2.734375 56.6875 0.65625 
Q 49.8125 -1.421875 42 -1.421875 
Q 24.90625 -1.421875 15.25 8.5625 
Q 5.609375 18.5625 5.609375 36.375 
Q 5.609375 54.25 15.25 64.234375 
Q 24.90625 74.21875 42 74.21875 
Q 49.125 74.21875 55.546875 72.453125 
Q 61.96875 70.703125 67.390625 67.28125 
L 67.390625 56.78125 
Q 61.921875 61.421875 55.765625 63.765625 
Q 49.609375 66.109375 42.828125 66.109375 
Q 29.4375 66.109375 22.71875 58.640625 
Q 16.015625 51.171875 16.015625 36.375 
Q 16.015625 21.625 22.71875 14.15625 
Q 29.4375 6.6875 42.828125 6.6875 
Q 48.046875 6.6875 52.140625 7.59375 
Q 56.25 8.5 59.515625 10.40625 
z
" id="DejaVuSans-71"/>
      <path d="M 41.109375 46.296875 
Q 39.59375 47.171875 37.8125 47.578125 
Q 36.03125 48 33.890625 48 
Q 26.265625 48 22.1875 43.046875 
Q 18.109375 38.09375 18.109375 28.8125 
L 18.109375 0 
L 9.078125 0 
L 9.078125 54.6875 
L 18.109375 54.6875 
L 18.109375 46.1875 
Q 20.953125 51.171875 25.484375 53.578125 
Q 30.03125 56 36.53125 56 
Q 37.453125 56 38.578125 55.875 
Q 39.703125 55.765625 41.0625 55.515625 
z
" id="DejaVuSans-114"/>
      <path d="M 8.5 21.578125 
L 8.5 54.6875 
L 17.484375 54.6875 
L 17.484375 21.921875 
Q 17.484375 14.15625 20.5 10.265625 
Q 23.53125 6.390625 29.59375 6.390625 
Q 36.859375 6.390625 41.078125 11.03125 
Q 45.3125 15.671875 45.3125 23.6875 
L 45.3125 54.6875 
L 54.296875 54.6875 
L 54.296875 0 
L 45.3125 0 
L 45.3125 8.40625 
Q 42.046875 3.421875 37.71875 1 
Q 33.40625 -1.421875 27.6875 -1.421875 
Q 18.265625 -1.421875 13.375 4.4375 
Q 8.5 10.296875 8.5 21.578125 
z
M 31.109375 56 
z
" id="DejaVuSans-117"/>
      <path id="DejaVuSans-32"/>
      <path d="M 34.1875 63.1875 
L 20.796875 26.90625 
L 47.609375 26.90625 
z
M 28.609375 72.90625 
L 39.796875 72.90625 
L 67.578125 0 
L 57.328125 0 
L 50.6875 18.703125 
L 17.828125 18.703125 
L 11.1875 0 
L 0.78125 0 
z
" id="DejaVuSans-65"/>
     </defs>
     <use xlink:href="#DejaVuSans-71"/>
     <use x="77.490234" xlink:href="#DejaVuSans-114"/>
     <use x="116.353516" xlink:href="#DejaVuSans-111"/>
     <use x="177.535156" xlink:href="#DejaVuSans-117"/>
     <use x="240.914062" xlink:href="#DejaVuSans-112"/>
     <use x="304.390625" xlink:href="#DejaVuSans-32"/>
     <use x="336.177734" xlink:href="#DejaVuSans-65"/>
    </g>
   </g>
  </g>
  <g id="axes_2">
   <g id="patch_7">
    <path d="M 249.653125 247.64 
L 417.265625 247.64 
L 417.265625 48.04 
L 249.653125 48.04 
z
" style="fill:#ffffff;"/>
   </g>
   <g id="PathCollection_2">
    <g clip-path="url(#p3a08430b94)">
     <use style="fill:#1f77b4;fill-opacity:0.8;stroke:#1f77b4;stroke-opacity:0.8;" x="249.653125" xlink:href="#m6df97fd306" y="102.476364"/>
     <use style="fill:#1f77b4;fill-opacity:0.8;stroke:#1f77b4;stroke-opacity:0.8;" x="262.546394" xlink:href="#m6df97fd306" y="102.476364"/>
     <use style="fill:#1f77b4;fill-opacity:0.8;stroke:#1f77b4;stroke-opacity:0.8;" x="378.585817" xlink:href="#m6df97fd306" y="102.476364"/>
     <use style="fill:#1f77b4;fill-opacity:0.8;stroke:#1f77b4;stroke-opacity:0.8;" x="339.90601" xlink:href="#m6df97fd306" y="102.476364"/>
     <use style="fill:#1f77b4;fill-opacity:0.8;stroke:#1f77b4;stroke-opacity:0.8;" x="314.119471" xlink:href="#m6df97fd306" y="102.476364"/>
     <use style="fill:#1f77b4;fill-opacity:0.8;stroke:#1f77b4;stroke-opacity:0.8;" x="378.585817" xlink:href="#m6df97fd306" y="102.476364"/>
     <use style="fill:#1f77b4;fill-opacity:0.8;stroke:#1f77b4;stroke-opacity:0.8;" x="314.119471" xlink:href="#m6df97fd306" y="102.476364"/>
     <use style="fill:#1f77b4;fill-opacity:0.8;stroke:#1f77b4;stroke-opacity:0.8;" x="339.90601" xlink:href="#m6df97fd306" y="147.84"/>
     <use style="fill:#1f77b4;fill-opacity:0.8;stroke:#1f77b4;stroke-opacity:0.8;" x="339.90601" xlink:href="#m6df97fd306" y="57.112727"/>
     <use style="fill:#1f77b4;fill-opacity:0.8;stroke:#1f77b4;stroke-opacity:0.8;" x="365.692548" xlink:href="#m6df97fd306" y="102.476364"/>
     <use style="fill:#1f77b4;fill-opacity:0.8;stroke:#1f77b4;stroke-opacity:0.8;" x="339.90601" xlink:href="#m6df97fd306" y="102.476364"/>
     <use style="fill:#1f77b4;fill-opacity:0.8;stroke:#1f77b4;stroke-opacity:0.8;" x="378.585817" xlink:href="#m6df97fd306" y="57.112727"/>
     <use style="fill:#1f77b4;fill-opacity:0.8;stroke:#1f77b4;stroke-opacity:0.8;" x="339.90601" xlink:href="#m6df97fd306" y="102.476364"/>
     <use style="fill:#1f77b4;fill-opacity:0.8;stroke:#1f77b4;stroke-opacity:0.8;" x="391.479087" xlink:href="#m6df97fd306" y="102.476364"/>
     <use style="fill:#1f77b4;fill-opacity:0.8;stroke:#1f77b4;stroke-opacity:0.8;" x="352.799279" xlink:href="#m6df97fd306" y="102.476364"/>
     <use style="fill:#1f77b4;fill-opacity:0.8;stroke:#1f77b4;stroke-opacity:0.8;" x="391.479087" xlink:href="#m6df97fd306" y="102.476364"/>
     <use style="fill:#1f77b4;fill-opacity:0.8;stroke:#1f77b4;stroke-opacity:0.8;" x="352.799279" xlink:href="#m6df97fd306" y="102.476364"/>
     <use style="fill:#1f77b4;fill-opacity:0.8;stroke:#1f77b4;stroke-opacity:0.8;" x="314.119471" xlink:href="#m6df97fd306" y="102.476364"/>
     <use style="fill:#1f77b4;fill-opacity:0.8;stroke:#1f77b4;stroke-opacity:0.8;" x="365.692548" xlink:href="#m6df97fd306" y="57.112727"/>
     <use style="fill:#1f77b4;fill-opacity:0.8;stroke:#1f77b4;stroke-opacity:0.8;" x="275.439663" xlink:href="#m6df97fd306" y="238.567273"/>
     <use style="fill:#1f77b4;fill-opacity:0.8;stroke:#1f77b4;stroke-opacity:0.8;" x="417.265625" xlink:href="#m6df97fd306" y="102.476364"/>
     <use style="fill:#1f77b4;fill-opacity:0.8;stroke:#1f77b4;stroke-opacity:0.8;" x="314.119471" xlink:href="#m6df97fd306" y="57.112727"/>
     <use style="fill:#1f77b4;fill-opacity:0.8;stroke:#1f77b4;stroke-opacity:0.8;" x="365.692548" xlink:href="#m6df97fd306" y="102.476364"/>
     <use style="fill:#1f77b4;fill-opacity:0.8;stroke:#1f77b4;stroke-opacity:0.8;" x="378.585817" xlink:href="#m6df97fd306" y="147.84"/>
     <use style="fill:#1f77b4;fill-opacity:0.8;stroke:#1f77b4;stroke-opacity:0.8;" x="378.585817" xlink:href="#m6df97fd306" y="102.476364"/>
     <use style="fill:#1f77b4;fill-opacity:0.8;stroke:#1f77b4;stroke-opacity:0.8;" x="314.119471" xlink:href="#m6df97fd306" y="102.476364"/>
     <use style="fill:#1f77b4;fill-opacity:0.8;stroke:#1f77b4;stroke-opacity:0.8;" x="314.119471" xlink:href="#m6df97fd306" y="102.476364"/>
     <use style="fill:#1f77b4;fill-opacity:0.8;stroke:#1f77b4;stroke-opacity:0.8;" x="314.119471" xlink:href="#m6df97fd306" y="102.476364"/>
     <use style="fill:#1f77b4;fill-opacity:0.8;stroke:#1f77b4;stroke-opacity:0.8;" x="378.585817" xlink:href="#m6df97fd306" y="102.476364"/>
     <use style="fill:#1f77b4;fill-opacity:0.8;stroke:#1f77b4;stroke-opacity:0.8;" x="378.585817" xlink:href="#m6df97fd306" y="57.112727"/>
     <use style="fill:#1f77b4;fill-opacity:0.8;stroke:#1f77b4;stroke-opacity:0.8;" x="249.653125" xlink:href="#m6df97fd306" y="102.476364"/>
     <use style="fill:#1f77b4;fill-opacity:0.8;stroke:#1f77b4;stroke-opacity:0.8;" x="327.01274" xlink:href="#m6df97fd306" y="102.476364"/>
     <use style="fill:#1f77b4;fill-opacity:0.8;stroke:#1f77b4;stroke-opacity:0.8;" x="352.799279" xlink:href="#m6df97fd306" y="57.112727"/>
     <use style="fill:#1f77b4;fill-opacity:0.8;stroke:#1f77b4;stroke-opacity:0.8;" x="314.119471" xlink:href="#m6df97fd306" y="102.476364"/>
     <use style="fill:#1f77b4;fill-opacity:0.8;stroke:#1f77b4;stroke-opacity:0.8;" x="339.90601" xlink:href="#m6df97fd306" y="102.476364"/>
     <use style="fill:#1f77b4;fill-opacity:0.8;stroke:#1f77b4;stroke-opacity:0.8;" x="327.01274" xlink:href="#m6df97fd306" y="102.476364"/>
     <use style="fill:#1f77b4;fill-opacity:0.8;stroke:#1f77b4;stroke-opacity:0.8;" x="314.119471" xlink:href="#m6df97fd306" y="102.476364"/>
     <use style="fill:#1f77b4;fill-opacity:0.8;stroke:#1f77b4;stroke-opacity:0.8;" x="365.692548" xlink:href="#m6df97fd306" y="57.112727"/>
     <use style="fill:#1f77b4;fill-opacity:0.8;stroke:#1f77b4;stroke-opacity:0.8;" x="314.119471" xlink:href="#m6df97fd306" y="147.84"/>
     <use style="fill:#1f77b4;fill-opacity:0.8;stroke:#1f77b4;stroke-opacity:0.8;" x="314.119471" xlink:href="#m6df97fd306" y="102.476364"/>
     <use style="fill:#1f77b4;fill-opacity:0.8;stroke:#1f77b4;stroke-opacity:0.8;" x="314.119471" xlink:href="#m6df97fd306" y="57.112727"/>
     <use style="fill:#1f77b4;fill-opacity:0.8;stroke:#1f77b4;stroke-opacity:0.8;" x="378.585817" xlink:href="#m6df97fd306" y="102.476364"/>
    </g>
   </g>
   <g id="PolyCollection_2">
    <path clip-path="url(#p3a08430b94)" d="M 249.653125 90.494993 
L 249.653125 156.159878 
L 251.346181 155.163777 
L 253.039236 154.167675 
L 254.732292 153.171573 
L 256.425347 152.175471 
L 258.118403 151.17937 
L 259.811458 150.183268 
L 261.504514 149.187166 
L 263.197569 148.191064 
L 264.890625 147.212399 
L 266.583681 146.256602 
L 268.276736 145.300805 
L 269.969792 144.345008 
L 271.662847 143.38921 
L 273.355903 142.433413 
L 275.048958 141.477616 
L 276.742014 140.560666 
L 278.435069 139.846999 
L 280.128125 139.133331 
L 281.821181 138.419663 
L 283.514236 137.522097 
L 285.207292 136.672412 
L 286.900347 135.946525 
L 288.593403 135.067988 
L 290.286458 134.112592 
L 291.979514 133.157196 
L 293.672569 132.2018 
L 295.365625 131.244212 
L 297.058681 130.582156 
L 298.751736 129.967501 
L 300.444792 129.1558 
L 302.137847 128.127829 
L 303.830903 127.091186 
L 305.523958 126.312397 
L 307.217014 125.40637 
L 308.910069 124.338705 
L 310.603125 123.259187 
L 312.296181 122.25171 
L 313.989236 121.573934 
L 315.682292 120.787222 
L 317.375347 119.958206 
L 319.068403 119.209263 
L 320.761458 118.490851 
L 322.454514 117.629366 
L 324.147569 116.654 
L 325.840625 115.738009 
L 327.533681 115.037614 
L 329.226736 114.424292 
L 330.919792 113.549832 
L 332.612847 112.895218 
L 334.305903 112.118637 
L 335.998958 111.414356 
L 337.692014 110.676381 
L 339.385069 110.191981 
L 341.078125 109.686896 
L 342.771181 109.019414 
L 344.464236 108.68667 
L 346.157292 108.077152 
L 347.850347 107.448892 
L 349.543403 107.080558 
L 351.236458 106.577028 
L 352.929514 105.975256 
L 354.622569 105.547402 
L 356.315625 105.368401 
L 358.008681 105.009406 
L 359.701736 104.75696 
L 361.394792 104.082886 
L 363.087847 103.786206 
L 364.780903 103.284027 
L 366.473958 103.049825 
L 368.167014 102.928451 
L 369.860069 102.757466 
L 371.553125 102.721725 
L 373.246181 102.705648 
L 374.939236 102.436799 
L 376.632292 102.249496 
L 378.325347 102.101451 
L 380.018403 102.057288 
L 381.711458 102.03514 
L 383.404514 101.923174 
L 385.097569 101.785523 
L 386.790625 101.778384 
L 388.483681 101.756016 
L 390.176736 101.719561 
L 391.869792 101.68253 
L 393.562847 101.642977 
L 395.255903 101.615269 
L 396.948958 101.744141 
L 398.642014 101.749235 
L 400.335069 101.738511 
L 402.028125 101.720044 
L 403.721181 101.701578 
L 405.414236 101.72874 
L 407.107292 101.743573 
L 408.800347 101.804597 
L 410.493403 101.857025 
L 412.186458 101.898131 
L 413.879514 101.939527 
L 415.572569 101.980924 
L 417.265625 102.056542 
L 417.265625 58.309766 
L 417.265625 58.309766 
L 415.572569 59.296249 
L 413.879514 60.282732 
L 412.186458 61.269216 
L 410.493403 62.311635 
L 408.800347 63.242182 
L 407.107292 64.228665 
L 405.414236 65.215149 
L 403.721181 66.201291 
L 402.028125 67.186657 
L 400.335069 68.174598 
L 398.642014 69.161082 
L 396.948958 70.147565 
L 395.255903 71.132033 
L 393.562847 72.120531 
L 391.869792 73.107015 
L 390.176736 74.093498 
L 388.483681 75.079981 
L 386.790625 76.066464 
L 385.097569 76.943197 
L 383.404514 77.762189 
L 381.711458 78.631252 
L 380.018403 79.548092 
L 378.325347 80.386493 
L 376.632292 81.256679 
L 374.939236 82.19659 
L 373.246181 82.919072 
L 371.553125 83.611493 
L 369.860069 84.351729 
L 368.167014 85.039622 
L 366.473958 85.443091 
L 364.780903 85.93063 
L 363.087847 86.46118 
L 361.394792 86.973026 
L 359.701736 87.571426 
L 358.008681 87.937799 
L 356.315625 88.384205 
L 354.622569 88.95696 
L 352.929514 89.375172 
L 351.236458 89.577838 
L 349.543403 89.682464 
L 347.850347 90.003588 
L 346.157292 90.450288 
L 344.464236 90.726561 
L 342.771181 90.734769 
L 341.078125 90.995408 
L 339.385069 91.286087 
L 337.692014 91.488159 
L 335.998958 91.545385 
L 334.305903 91.535095 
L 332.612847 91.666642 
L 330.919792 91.78191 
L 329.226736 91.822878 
L 327.533681 91.928751 
L 325.840625 92.084427 
L 324.147569 92.192142 
L 322.454514 92.267314 
L 320.761458 92.219562 
L 319.068403 92.335601 
L 317.375347 92.499165 
L 315.682292 92.453361 
L 313.989236 92.506693 
L 312.296181 92.509705 
L 310.603125 92.633153 
L 308.910069 92.63127 
L 307.217014 92.626736 
L 305.523958 92.622202 
L 303.830903 92.604661 
L 302.137847 92.611536 
L 300.444792 92.601241 
L 298.751736 92.589583 
L 297.058681 92.45208 
L 295.365625 92.300812 
L 293.672569 92.298507 
L 291.979514 92.146075 
L 290.286458 92.092543 
L 288.593403 92.101914 
L 286.900347 92.113848 
L 285.207292 92.125783 
L 283.514236 92.137718 
L 281.821181 92.149652 
L 280.128125 92.161587 
L 278.435069 92.135963 
L 276.742014 92.01305 
L 275.048958 91.890137 
L 273.355903 91.767225 
L 271.662847 91.644312 
L 269.969792 91.588242 
L 268.276736 91.559633 
L 266.583681 91.403265 
L 264.890625 91.276814 
L 263.197569 91.157581 
L 261.504514 90.994491 
L 259.811458 90.831402 
L 258.118403 90.778322 
L 256.425347 90.804266 
L 254.732292 90.750657 
L 253.039236 90.620712 
L 251.346181 90.516594 
L 249.653125 90.494993 
z
" style="fill:#1f77b4;fill-opacity:0.15;"/>
   </g>
   <g id="matplotlib.axis_3">
    <g id="xtick_4">
     <g id="line2d_11">
      <g>
       <use style="stroke:#000000;stroke-width:0.8;" x="288.332933" xlink:href="#m8243e95502" y="247.64"/>
      </g>
     </g>
     <g id="text_13">
      <!-- 2 -->
      <g transform="translate(285.151683 262.238437)scale(0.1 -0.1)">
       <use xlink:href="#DejaVuSans-50"/>
      </g>
     </g>
    </g>
    <g id="xtick_5">
     <g id="line2d_12">
      <g>
       <use style="stroke:#000000;stroke-width:0.8;" x="339.90601" xlink:href="#m8243e95502" y="247.64"/>
      </g>
     </g>
     <g id="text_14">
      <!-- 3 -->
      <g transform="translate(336.72476 262.238437)scale(0.1 -0.1)">
       <use xlink:href="#DejaVuSans-51"/>
      </g>
     </g>
    </g>
    <g id="xtick_6">
     <g id="line2d_13">
      <g>
       <use style="stroke:#000000;stroke-width:0.8;" x="391.479087" xlink:href="#m8243e95502" y="247.64"/>
      </g>
     </g>
     <g id="text_15">
      <!-- 4 -->
      <g transform="translate(388.297837 262.238437)scale(0.1 -0.1)">
       <use xlink:href="#DejaVuSans-52"/>
      </g>
     </g>
    </g>
    <g id="text_16">
     <!-- E -->
     <g transform="translate(330.3 275.916562)scale(0.1 -0.1)">
      <use xlink:href="#DejaVuSans-69"/>
     </g>
    </g>
   </g>
   <g id="matplotlib.axis_4">
    <g id="ytick_7">
     <g id="line2d_14">
      <g>
       <use style="stroke:#000000;stroke-width:0.8;" x="249.653125" xlink:href="#mbf26602686" y="238.567273"/>
      </g>
     </g>
     <g id="text_17">
      <!-- 1.0 -->
      <g transform="translate(226.75 242.366491)scale(0.1 -0.1)">
       <defs>
        <path d="M 10.6875 12.40625 
L 21 12.40625 
L 21 0 
L 10.6875 0 
z
" id="DejaVuSans-46"/>
        <path d="M 31.78125 66.40625 
Q 24.171875 66.40625 20.328125 58.90625 
Q 16.5 51.421875 16.5 36.375 
Q 16.5 21.390625 20.328125 13.890625 
Q 24.171875 6.390625 31.78125 6.390625 
Q 39.453125 6.390625 43.28125 13.890625 
Q 47.125 21.390625 47.125 36.375 
Q 47.125 51.421875 43.28125 58.90625 
Q 39.453125 66.40625 31.78125 66.40625 
z
M 31.78125 74.21875 
Q 44.046875 74.21875 50.515625 64.515625 
Q 56.984375 54.828125 56.984375 36.375 
Q 56.984375 17.96875 50.515625 8.265625 
Q 44.046875 -1.421875 31.78125 -1.421875 
Q 19.53125 -1.421875 13.0625 8.265625 
Q 6.59375 17.96875 6.59375 36.375 
Q 6.59375 54.828125 13.0625 64.515625 
Q 19.53125 74.21875 31.78125 74.21875 
z
" id="DejaVuSans-48"/>
       </defs>
       <use xlink:href="#DejaVuSans-49"/>
       <use x="63.623047" xlink:href="#DejaVuSans-46"/>
       <use x="95.410156" xlink:href="#DejaVuSans-48"/>
      </g>
     </g>
    </g>
    <g id="ytick_8">
     <g id="line2d_15">
      <g>
       <use style="stroke:#000000;stroke-width:0.8;" x="249.653125" xlink:href="#mbf26602686" y="215.885455"/>
      </g>
     </g>
     <g id="text_18">
      <!-- 1.5 -->
      <g transform="translate(226.75 219.684673)scale(0.1 -0.1)">
       <use xlink:href="#DejaVuSans-49"/>
       <use x="63.623047" xlink:href="#DejaVuSans-46"/>
       <use x="95.410156" xlink:href="#DejaVuSans-53"/>
      </g>
     </g>
    </g>
    <g id="ytick_9">
     <g id="line2d_16">
      <g>
       <use style="stroke:#000000;stroke-width:0.8;" x="249.653125" xlink:href="#mbf26602686" y="193.203636"/>
      </g>
     </g>
     <g id="text_19">
      <!-- 2.0 -->
      <g transform="translate(226.75 197.002855)scale(0.1 -0.1)">
       <use xlink:href="#DejaVuSans-50"/>
       <use x="63.623047" xlink:href="#DejaVuSans-46"/>
       <use x="95.410156" xlink:href="#DejaVuSans-48"/>
      </g>
     </g>
    </g>
    <g id="ytick_10">
     <g id="line2d_17">
      <g>
       <use style="stroke:#000000;stroke-width:0.8;" x="249.653125" xlink:href="#mbf26602686" y="170.521818"/>
      </g>
     </g>
     <g id="text_20">
      <!-- 2.5 -->
      <g transform="translate(226.75 174.321037)scale(0.1 -0.1)">
       <use xlink:href="#DejaVuSans-50"/>
       <use x="63.623047" xlink:href="#DejaVuSans-46"/>
       <use x="95.410156" xlink:href="#DejaVuSans-53"/>
      </g>
     </g>
    </g>
    <g id="ytick_11">
     <g id="line2d_18">
      <g>
       <use style="stroke:#000000;stroke-width:0.8;" x="249.653125" xlink:href="#mbf26602686" y="147.84"/>
      </g>
     </g>
     <g id="text_21">
      <!-- 3.0 -->
      <g transform="translate(226.75 151.639219)scale(0.1 -0.1)">
       <use xlink:href="#DejaVuSans-51"/>
       <use x="63.623047" xlink:href="#DejaVuSans-46"/>
       <use x="95.410156" xlink:href="#DejaVuSans-48"/>
      </g>
     </g>
    </g>
    <g id="ytick_12">
     <g id="line2d_19">
      <g>
       <use style="stroke:#000000;stroke-width:0.8;" x="249.653125" xlink:href="#mbf26602686" y="125.158182"/>
      </g>
     </g>
     <g id="text_22">
      <!-- 3.5 -->
      <g transform="translate(226.75 128.957401)scale(0.1 -0.1)">
       <use xlink:href="#DejaVuSans-51"/>
       <use x="63.623047" xlink:href="#DejaVuSans-46"/>
       <use x="95.410156" xlink:href="#DejaVuSans-53"/>
      </g>
     </g>
    </g>
    <g id="ytick_13">
     <g id="line2d_20">
      <g>
       <use style="stroke:#000000;stroke-width:0.8;" x="249.653125" xlink:href="#mbf26602686" y="102.476364"/>
      </g>
     </g>
     <g id="text_23">
      <!-- 4.0 -->
      <g transform="translate(226.75 106.275582)scale(0.1 -0.1)">
       <use xlink:href="#DejaVuSans-52"/>
       <use x="63.623047" xlink:href="#DejaVuSans-46"/>
       <use x="95.410156" xlink:href="#DejaVuSans-48"/>
      </g>
     </g>
    </g>
    <g id="ytick_14">
     <g id="line2d_21">
      <g>
       <use style="stroke:#000000;stroke-width:0.8;" x="249.653125" xlink:href="#mbf26602686" y="79.794545"/>
      </g>
     </g>
     <g id="text_24">
      <!-- 4.5 -->
      <g transform="translate(226.75 83.593764)scale(0.1 -0.1)">
       <use xlink:href="#DejaVuSans-52"/>
       <use x="63.623047" xlink:href="#DejaVuSans-46"/>
       <use x="95.410156" xlink:href="#DejaVuSans-53"/>
      </g>
     </g>
    </g>
    <g id="ytick_15">
     <g id="line2d_22">
      <g>
       <use style="stroke:#000000;stroke-width:0.8;" x="249.653125" xlink:href="#mbf26602686" y="57.112727"/>
      </g>
     </g>
     <g id="text_25">
      <!-- 5.0 -->
      <g transform="translate(226.75 60.911946)scale(0.1 -0.1)">
       <use xlink:href="#DejaVuSans-53"/>
       <use x="63.623047" xlink:href="#DejaVuSans-46"/>
       <use x="95.410156" xlink:href="#DejaVuSans-48"/>
      </g>
     </g>
    </g>
    <g id="text_26">
     <!-- Expectation2 -->
     <g transform="translate(220.670312 180.741562)rotate(-90)scale(0.1 -0.1)">
      <use xlink:href="#DejaVuSans-69"/>
      <use x="63.183594" xlink:href="#DejaVuSans-120"/>
      <use x="122.363281" xlink:href="#DejaVuSans-112"/>
      <use x="185.839844" xlink:href="#DejaVuSans-101"/>
      <use x="247.363281" xlink:href="#DejaVuSans-99"/>
      <use x="302.34375" xlink:href="#DejaVuSans-116"/>
      <use x="341.552734" xlink:href="#DejaVuSans-97"/>
      <use x="402.832031" xlink:href="#DejaVuSans-116"/>
      <use x="442.041016" xlink:href="#DejaVuSans-105"/>
      <use x="469.824219" xlink:href="#DejaVuSans-111"/>
      <use x="531.005859" xlink:href="#DejaVuSans-110"/>
      <use x="594.384766" xlink:href="#DejaVuSans-50"/>
     </g>
    </g>
   </g>
   <g id="line2d_23">
    <path clip-path="url(#p3a08430b94)" d="M 249.653125 118.400022 
L 251.346181 118.058463 
L 253.039236 117.716905 
L 254.732292 117.375346 
L 256.425347 117.033788 
L 258.118403 116.692229 
L 259.811458 116.350671 
L 261.504514 116.009112 
L 263.197569 115.667554 
L 264.890625 115.325996 
L 266.583681 114.984437 
L 268.276736 114.642879 
L 269.969792 114.30132 
L 271.662847 113.959762 
L 273.355903 113.618203 
L 275.048958 113.276645 
L 276.742014 112.935086 
L 278.435069 112.593528 
L 280.128125 112.251969 
L 281.821181 111.910411 
L 283.514236 111.568853 
L 285.207292 111.227294 
L 286.900347 110.885736 
L 288.593403 110.544177 
L 290.286458 110.202619 
L 291.979514 109.86106 
L 293.672569 109.519502 
L 295.365625 109.177943 
L 297.058681 108.836385 
L 298.751736 108.494826 
L 300.444792 108.153268 
L 302.137847 107.81171 
L 303.830903 107.470151 
L 305.523958 107.128593 
L 307.217014 106.787034 
L 308.910069 106.445476 
L 310.603125 106.103917 
L 312.296181 105.762359 
L 313.989236 105.4208 
L 315.682292 105.079242 
L 317.375347 104.737683 
L 319.068403 104.396125 
L 320.761458 104.054567 
L 322.454514 103.713008 
L 324.147569 103.37145 
L 325.840625 103.029891 
L 327.533681 102.688333 
L 329.226736 102.346774 
L 330.919792 102.005216 
L 332.612847 101.663657 
L 334.305903 101.322099 
L 335.998958 100.98054 
L 337.692014 100.638982 
L 339.385069 100.297424 
L 341.078125 99.955865 
L 342.771181 99.614307 
L 344.464236 99.272748 
L 346.157292 98.93119 
L 347.850347 98.589631 
L 349.543403 98.248073 
L 351.236458 97.906514 
L 352.929514 97.564956 
L 354.622569 97.223397 
L 356.315625 96.881839 
L 358.008681 96.540281 
L 359.701736 96.198722 
L 361.394792 95.857164 
L 363.087847 95.515605 
L 364.780903 95.174047 
L 366.473958 94.832488 
L 368.167014 94.49093 
L 369.860069 94.149371 
L 371.553125 93.807813 
L 373.246181 93.466254 
L 374.939236 93.124696 
L 376.632292 92.783138 
L 378.325347 92.441579 
L 380.018403 92.100021 
L 381.711458 91.758462 
L 383.404514 91.416904 
L 385.097569 91.075345 
L 386.790625 90.733787 
L 388.483681 90.392228 
L 390.176736 90.05067 
L 391.869792 89.709111 
L 393.562847 89.367553 
L 395.255903 89.025995 
L 396.948958 88.684436 
L 398.642014 88.342878 
L 400.335069 88.001319 
L 402.028125 87.659761 
L 403.721181 87.318202 
L 405.414236 86.976644 
L 407.107292 86.635085 
L 408.800347 86.293527 
L 410.493403 85.951968 
L 412.186458 85.61041 
L 413.879514 85.268852 
L 415.572569 84.927293 
L 417.265625 84.585735 
" style="fill:none;stroke:#1f77b4;stroke-linecap:square;stroke-width:2.25;"/>
   </g>
   <g id="patch_8">
    <path d="M 249.653125 247.64 
L 249.653125 48.04 
" style="fill:none;stroke:#000000;stroke-linecap:square;stroke-linejoin:miter;stroke-width:0.8;"/>
   </g>
   <g id="patch_9">
    <path d="M 417.265625 247.64 
L 417.265625 48.04 
" style="fill:none;stroke:#000000;stroke-linecap:square;stroke-linejoin:miter;stroke-width:0.8;"/>
   </g>
   <g id="patch_10">
    <path d="M 249.653125 247.64 
L 417.265625 247.64 
" style="fill:none;stroke:#000000;stroke-linecap:square;stroke-linejoin:miter;stroke-width:0.8;"/>
   </g>
   <g id="patch_11">
    <path d="M 249.653125 48.04 
L 417.265625 48.04 
" style="fill:none;stroke:#000000;stroke-linecap:square;stroke-linejoin:miter;stroke-width:0.8;"/>
   </g>
   <g id="text_27">
    <!-- Group B -->
    <g transform="translate(249.653125 42.04)scale(0.12 -0.12)">
     <defs>
      <path d="M 19.671875 34.8125 
L 19.671875 8.109375 
L 35.5 8.109375 
Q 43.453125 8.109375 47.28125 11.40625 
Q 51.125 14.703125 51.125 21.484375 
Q 51.125 28.328125 47.28125 31.5625 
Q 43.453125 34.8125 35.5 34.8125 
z
M 19.671875 64.796875 
L 19.671875 42.828125 
L 34.28125 42.828125 
Q 41.5 42.828125 45.03125 45.53125 
Q 48.578125 48.25 48.578125 53.8125 
Q 48.578125 59.328125 45.03125 62.0625 
Q 41.5 64.796875 34.28125 64.796875 
z
M 9.8125 72.90625 
L 35.015625 72.90625 
Q 46.296875 72.90625 52.390625 68.21875 
Q 58.5 63.53125 58.5 54.890625 
Q 58.5 48.1875 55.375 44.234375 
Q 52.25 40.28125 46.1875 39.3125 
Q 53.46875 37.75 57.5 32.78125 
Q 61.53125 27.828125 61.53125 20.40625 
Q 61.53125 10.640625 54.890625 5.3125 
Q 48.25 0 35.984375 0 
L 9.8125 0 
z
" id="DejaVuSans-66"/>
     </defs>
     <use xlink:href="#DejaVuSans-71"/>
     <use x="77.490234" xlink:href="#DejaVuSans-114"/>
     <use x="116.353516" xlink:href="#DejaVuSans-111"/>
     <use x="177.535156" xlink:href="#DejaVuSans-117"/>
     <use x="240.914062" xlink:href="#DejaVuSans-112"/>
     <use x="304.390625" xlink:href="#DejaVuSans-32"/>
     <use x="336.177734" xlink:href="#DejaVuSans-66"/>
    </g>
   </g>
  </g>
  <g id="text_28">
   <!-- The chatbot's messages corresponded to how I expected it to communicate with me. -->
   <g transform="translate(34.30733 13.529498)scale(0.0833 -0.0833)">
    <defs>
     <path d="M -0.296875 72.90625 
L 61.375 72.90625 
L 61.375 64.59375 
L 35.5 64.59375 
L 35.5 0 
L 25.59375 0 
L 25.59375 64.59375 
L -0.296875 64.59375 
z
" id="DejaVuSans-84"/>
     <path d="M 54.890625 33.015625 
L 54.890625 0 
L 45.90625 0 
L 45.90625 32.71875 
Q 45.90625 40.484375 42.875 44.328125 
Q 39.84375 48.1875 33.796875 48.1875 
Q 26.515625 48.1875 22.3125 43.546875 
Q 18.109375 38.921875 18.109375 30.90625 
L 18.109375 0 
L 9.078125 0 
L 9.078125 75.984375 
L 18.109375 75.984375 
L 18.109375 46.1875 
Q 21.34375 51.125 25.703125 53.5625 
Q 30.078125 56 35.796875 56 
Q 45.21875 56 50.046875 50.171875 
Q 54.890625 44.34375 54.890625 33.015625 
z
" id="DejaVuSans-104"/>
     <path d="M 48.6875 27.296875 
Q 48.6875 37.203125 44.609375 42.84375 
Q 40.53125 48.484375 33.40625 48.484375 
Q 26.265625 48.484375 22.1875 42.84375 
Q 18.109375 37.203125 18.109375 27.296875 
Q 18.109375 17.390625 22.1875 11.75 
Q 26.265625 6.109375 33.40625 6.109375 
Q 40.53125 6.109375 44.609375 11.75 
Q 48.6875 17.390625 48.6875 27.296875 
z
M 18.109375 46.390625 
Q 20.953125 51.265625 25.265625 53.625 
Q 29.59375 56 35.59375 56 
Q 45.5625 56 51.78125 48.09375 
Q 58.015625 40.1875 58.015625 27.296875 
Q 58.015625 14.40625 51.78125 6.484375 
Q 45.5625 -1.421875 35.59375 -1.421875 
Q 29.59375 -1.421875 25.265625 0.953125 
Q 20.953125 3.328125 18.109375 8.203125 
L 18.109375 0 
L 9.078125 0 
L 9.078125 75.984375 
L 18.109375 75.984375 
z
" id="DejaVuSans-98"/>
     <path d="M 17.921875 72.90625 
L 17.921875 45.796875 
L 9.625 45.796875 
L 9.625 72.90625 
z
" id="DejaVuSans-39"/>
     <path d="M 44.28125 53.078125 
L 44.28125 44.578125 
Q 40.484375 46.53125 36.375 47.5 
Q 32.28125 48.484375 27.875 48.484375 
Q 21.1875 48.484375 17.84375 46.4375 
Q 14.5 44.390625 14.5 40.28125 
Q 14.5 37.15625 16.890625 35.375 
Q 19.28125 33.59375 26.515625 31.984375 
L 29.59375 31.296875 
Q 39.15625 29.25 43.1875 25.515625 
Q 47.21875 21.78125 47.21875 15.09375 
Q 47.21875 7.46875 41.1875 3.015625 
Q 35.15625 -1.421875 24.609375 -1.421875 
Q 20.21875 -1.421875 15.453125 -0.5625 
Q 10.6875 0.296875 5.421875 2 
L 5.421875 11.28125 
Q 10.40625 8.6875 15.234375 7.390625 
Q 20.0625 6.109375 24.8125 6.109375 
Q 31.15625 6.109375 34.5625 8.28125 
Q 37.984375 10.453125 37.984375 14.40625 
Q 37.984375 18.0625 35.515625 20.015625 
Q 33.0625 21.96875 24.703125 23.78125 
L 21.578125 24.515625 
Q 13.234375 26.265625 9.515625 29.90625 
Q 5.8125 33.546875 5.8125 39.890625 
Q 5.8125 47.609375 11.28125 51.796875 
Q 16.75 56 26.8125 56 
Q 31.78125 56 36.171875 55.265625 
Q 40.578125 54.546875 44.28125 53.078125 
z
" id="DejaVuSans-115"/>
     <path d="M 52 44.1875 
Q 55.375 50.25 60.0625 53.125 
Q 64.75 56 71.09375 56 
Q 79.640625 56 84.28125 50.015625 
Q 88.921875 44.046875 88.921875 33.015625 
L 88.921875 0 
L 79.890625 0 
L 79.890625 32.71875 
Q 79.890625 40.578125 77.09375 44.375 
Q 74.3125 48.1875 68.609375 48.1875 
Q 61.625 48.1875 57.5625 43.546875 
Q 53.515625 38.921875 53.515625 30.90625 
L 53.515625 0 
L 44.484375 0 
L 44.484375 32.71875 
Q 44.484375 40.625 41.703125 44.40625 
Q 38.921875 48.1875 33.109375 48.1875 
Q 26.21875 48.1875 22.15625 43.53125 
Q 18.109375 38.875 18.109375 30.90625 
L 18.109375 0 
L 9.078125 0 
L 9.078125 54.6875 
L 18.109375 54.6875 
L 18.109375 46.1875 
Q 21.1875 51.21875 25.484375 53.609375 
Q 29.78125 56 35.6875 56 
Q 41.65625 56 45.828125 52.96875 
Q 50 49.953125 52 44.1875 
z
" id="DejaVuSans-109"/>
     <path d="M 45.40625 27.984375 
Q 45.40625 37.75 41.375 43.109375 
Q 37.359375 48.484375 30.078125 48.484375 
Q 22.859375 48.484375 18.828125 43.109375 
Q 14.796875 37.75 14.796875 27.984375 
Q 14.796875 18.265625 18.828125 12.890625 
Q 22.859375 7.515625 30.078125 7.515625 
Q 37.359375 7.515625 41.375 12.890625 
Q 45.40625 18.265625 45.40625 27.984375 
z
M 54.390625 6.78125 
Q 54.390625 -7.171875 48.1875 -13.984375 
Q 42 -20.796875 29.203125 -20.796875 
Q 24.46875 -20.796875 20.265625 -20.09375 
Q 16.0625 -19.390625 12.109375 -17.921875 
L 12.109375 -9.1875 
Q 16.0625 -11.328125 19.921875 -12.34375 
Q 23.78125 -13.375 27.78125 -13.375 
Q 36.625 -13.375 41.015625 -8.765625 
Q 45.40625 -4.15625 45.40625 5.171875 
L 45.40625 9.625 
Q 42.625 4.78125 38.28125 2.390625 
Q 33.9375 0 27.875 0 
Q 17.828125 0 11.671875 7.65625 
Q 5.515625 15.328125 5.515625 27.984375 
Q 5.515625 40.671875 11.671875 48.328125 
Q 17.828125 56 27.875 56 
Q 33.9375 56 38.28125 53.609375 
Q 42.625 51.21875 45.40625 46.390625 
L 45.40625 54.6875 
L 54.390625 54.6875 
z
" id="DejaVuSans-103"/>
     <path d="M 45.40625 46.390625 
L 45.40625 75.984375 
L 54.390625 75.984375 
L 54.390625 0 
L 45.40625 0 
L 45.40625 8.203125 
Q 42.578125 3.328125 38.25 0.953125 
Q 33.9375 -1.421875 27.875 -1.421875 
Q 17.96875 -1.421875 11.734375 6.484375 
Q 5.515625 14.40625 5.515625 27.296875 
Q 5.515625 40.1875 11.734375 48.09375 
Q 17.96875 56 27.875 56 
Q 33.9375 56 38.25 53.625 
Q 42.578125 51.265625 45.40625 46.390625 
z
M 14.796875 27.296875 
Q 14.796875 17.390625 18.875 11.75 
Q 22.953125 6.109375 30.078125 6.109375 
Q 37.203125 6.109375 41.296875 11.75 
Q 45.40625 17.390625 45.40625 27.296875 
Q 45.40625 37.203125 41.296875 42.84375 
Q 37.203125 48.484375 30.078125 48.484375 
Q 22.953125 48.484375 18.875 42.84375 
Q 14.796875 37.203125 14.796875 27.296875 
z
" id="DejaVuSans-100"/>
     <path d="M 4.203125 54.6875 
L 13.1875 54.6875 
L 24.421875 12.015625 
L 35.59375 54.6875 
L 46.1875 54.6875 
L 57.421875 12.015625 
L 68.609375 54.6875 
L 77.59375 54.6875 
L 63.28125 0 
L 52.6875 0 
L 40.921875 44.828125 
L 29.109375 0 
L 18.5 0 
z
" id="DejaVuSans-119"/>
     <path d="M 9.8125 72.90625 
L 19.671875 72.90625 
L 19.671875 0 
L 9.8125 0 
z
" id="DejaVuSans-73"/>
    </defs>
    <use xlink:href="#DejaVuSans-84"/>
    <use x="61.083984" xlink:href="#DejaVuSans-104"/>
    <use x="124.462891" xlink:href="#DejaVuSans-101"/>
    <use x="185.986328" xlink:href="#DejaVuSans-32"/>
    <use x="217.773438" xlink:href="#DejaVuSans-99"/>
    <use x="272.753906" xlink:href="#DejaVuSans-104"/>
    <use x="336.132812" xlink:href="#DejaVuSans-97"/>
    <use x="397.412109" xlink:href="#DejaVuSans-116"/>
    <use x="436.621094" xlink:href="#DejaVuSans-98"/>
    <use x="500.097656" xlink:href="#DejaVuSans-111"/>
    <use x="561.279297" xlink:href="#DejaVuSans-116"/>
    <use x="600.488281" xlink:href="#DejaVuSans-39"/>
    <use x="627.978516" xlink:href="#DejaVuSans-115"/>
    <use x="680.078125" xlink:href="#DejaVuSans-32"/>
    <use x="711.865234" xlink:href="#DejaVuSans-109"/>
    <use x="809.277344" xlink:href="#DejaVuSans-101"/>
    <use x="870.800781" xlink:href="#DejaVuSans-115"/>
    <use x="922.900391" xlink:href="#DejaVuSans-115"/>
    <use x="975" xlink:href="#DejaVuSans-97"/>
    <use x="1036.279297" xlink:href="#DejaVuSans-103"/>
    <use x="1099.755859" xlink:href="#DejaVuSans-101"/>
    <use x="1161.279297" xlink:href="#DejaVuSans-115"/>
    <use x="1213.378906" xlink:href="#DejaVuSans-32"/>
    <use x="1245.166016" xlink:href="#DejaVuSans-99"/>
    <use x="1300.146484" xlink:href="#DejaVuSans-111"/>
    <use x="1361.328125" xlink:href="#DejaVuSans-114"/>
    <use x="1400.691406" xlink:href="#DejaVuSans-114"/>
    <use x="1439.554688" xlink:href="#DejaVuSans-101"/>
    <use x="1501.078125" xlink:href="#DejaVuSans-115"/>
    <use x="1553.177734" xlink:href="#DejaVuSans-112"/>
    <use x="1616.654297" xlink:href="#DejaVuSans-111"/>
    <use x="1677.835938" xlink:href="#DejaVuSans-110"/>
    <use x="1741.214844" xlink:href="#DejaVuSans-100"/>
    <use x="1804.691406" xlink:href="#DejaVuSans-101"/>
    <use x="1866.214844" xlink:href="#DejaVuSans-100"/>
    <use x="1929.691406" xlink:href="#DejaVuSans-32"/>
    <use x="1961.478516" xlink:href="#DejaVuSans-116"/>
    <use x="2000.6875" xlink:href="#DejaVuSans-111"/>
    <use x="2061.869141" xlink:href="#DejaVuSans-32"/>
    <use x="2093.65625" xlink:href="#DejaVuSans-104"/>
    <use x="2157.035156" xlink:href="#DejaVuSans-111"/>
    <use x="2218.216797" xlink:href="#DejaVuSans-119"/>
    <use x="2300.003906" xlink:href="#DejaVuSans-32"/>
    <use x="2331.791016" xlink:href="#DejaVuSans-73"/>
    <use x="2361.283203" xlink:href="#DejaVuSans-32"/>
    <use x="2393.070312" xlink:href="#DejaVuSans-101"/>
    <use x="2452.84375" xlink:href="#DejaVuSans-120"/>
    <use x="2512.023438" xlink:href="#DejaVuSans-112"/>
    <use x="2575.5" xlink:href="#DejaVuSans-101"/>
    <use x="2637.023438" xlink:href="#DejaVuSans-99"/>
    <use x="2692.003906" xlink:href="#DejaVuSans-116"/>
    <use x="2731.212891" xlink:href="#DejaVuSans-101"/>
    <use x="2792.736328" xlink:href="#DejaVuSans-100"/>
    <use x="2856.212891" xlink:href="#DejaVuSans-32"/>
    <use x="2888" xlink:href="#DejaVuSans-105"/>
    <use x="2915.783203" xlink:href="#DejaVuSans-116"/>
    <use x="2954.992188" xlink:href="#DejaVuSans-32"/>
    <use x="2986.779297" xlink:href="#DejaVuSans-116"/>
    <use x="3025.988281" xlink:href="#DejaVuSans-111"/>
    <use x="3087.169922" xlink:href="#DejaVuSans-32"/>
    <use x="3118.957031" xlink:href="#DejaVuSans-99"/>
    <use x="3173.9375" xlink:href="#DejaVuSans-111"/>
    <use x="3235.119141" xlink:href="#DejaVuSans-109"/>
    <use x="3332.53125" xlink:href="#DejaVuSans-109"/>
    <use x="3429.943359" xlink:href="#DejaVuSans-117"/>
    <use x="3493.322266" xlink:href="#DejaVuSans-110"/>
    <use x="3556.701172" xlink:href="#DejaVuSans-105"/>
    <use x="3584.484375" xlink:href="#DejaVuSans-99"/>
    <use x="3639.464844" xlink:href="#DejaVuSans-97"/>
    <use x="3700.744141" xlink:href="#DejaVuSans-116"/>
    <use x="3739.953125" xlink:href="#DejaVuSans-101"/>
    <use x="3801.476562" xlink:href="#DejaVuSans-32"/>
    <use x="3833.263672" xlink:href="#DejaVuSans-119"/>
    <use x="3915.050781" xlink:href="#DejaVuSans-105"/>
    <use x="3942.833984" xlink:href="#DejaVuSans-116"/>
    <use x="3982.042969" xlink:href="#DejaVuSans-104"/>
    <use x="4045.421875" xlink:href="#DejaVuSans-32"/>
    <use x="4077.208984" xlink:href="#DejaVuSans-109"/>
    <use x="4174.621094" xlink:href="#DejaVuSans-101"/>
    <use x="4236.144531" xlink:href="#DejaVuSans-46"/>
   </g>
  </g>
 </g>
 <defs>
  <clipPath id="pcf143ed2a7">
   <rect height="199.6" width="167.6125" x="34.240625" y="48.04"/>
  </clipPath>
  <clipPath id="p3a08430b94">
   <rect height="199.6" width="167.6125" x="249.653125" y="48.04"/>
  </clipPath>
 </defs>
</svg>
