<?xml version="1.0" encoding="utf-8" standalone="no"?>
<!DOCTYPE svg PUBLIC "-//W3C//DTD SVG 1.1//EN"
  "http://www.w3.org/Graphics/SVG/1.1/DTD/svg11.dtd">
<!-- Created with matplotlib (https://matplotlib.org/) -->
<svg height="285.19625pt" version="1.1" viewBox="0 0 424.50625 285.19625" width="424.50625pt" xmlns="http://www.w3.org/2000/svg" xmlns:xlink="http://www.w3.org/1999/xlink">
 <metadata>
  <rdf:RDF xmlns:cc="http://creativecommons.org/ns#" xmlns:dc="http://purl.org/dc/elements/1.1/" xmlns:rdf="http://www.w3.org/1999/02/22-rdf-syntax-ns#">
   <cc:Work>
    <dc:type rdf:resource="http://purl.org/dc/dcmitype/StillImage"/>
    <dc:date>2021-02-21T18:27:35.387949</dc:date>
    <dc:format>image/svg+xml</dc:format>
    <dc:creator>
     <cc:Agent>
      <dc:title>Matplotlib v3.3.2, https://matplotlib.org/</dc:title>
     </cc:Agent>
    </dc:creator>
   </cc:Work>
  </rdf:RDF>
 </metadata>
 <defs>
  <style type="text/css">*{stroke-linecap:butt;stroke-linejoin:round;}</style>
 </defs>
 <g id="figure_1">
  <g id="patch_1">
   <path d="M 0 285.19625 
L 424.50625 285.19625 
L 424.50625 0 
L 0 0 
z
" style="fill:none;"/>
  </g>
  <g id="axes_1">
   <g id="patch_2">
    <path d="M 43.78125 247.64 
L 206.64375 247.64 
L 206.64375 48.04 
L 43.78125 48.04 
z
" style="fill:#ffffff;"/>
   </g>
   <g id="PathCollection_1">
    <defs>
     <path d="M 0 3 
C 0.795609 3 1.55874 2.683901 2.12132 2.12132 
C 2.683901 1.55874 3 0.795609 3 0 
C 3 -0.795609 2.683901 -1.55874 2.12132 -2.12132 
C 1.55874 -2.683901 0.795609 -3 0 -3 
C -0.795609 -3 -1.55874 -2.683901 -2.12132 -2.12132 
C -2.683901 -1.55874 -3 -0.795609 -3 0 
C -3 0.795609 -2.683901 1.55874 -2.12132 2.12132 
C -1.55874 2.683901 -0.795609 3 0 3 
z
" id="m5537da2206" style="stroke:#1f77b4;stroke-opacity:0.8;"/>
    </defs>
    <g clip-path="url(#p7bc3dc1713)">
     <use style="fill:#1f77b4;fill-opacity:0.8;stroke:#1f77b4;stroke-opacity:0.8;" x="144.004327" xlink:href="#m5537da2206" y="238.567273"/>
     <use style="fill:#1f77b4;fill-opacity:0.8;stroke:#1f77b4;stroke-opacity:0.8;" x="68.837019" xlink:href="#m5537da2206" y="67.136951"/>
     <use style="fill:#1f77b4;fill-opacity:0.8;stroke:#1f77b4;stroke-opacity:0.8;" x="81.364904" xlink:href="#m5537da2206" y="67.136951"/>
     <use style="fill:#1f77b4;fill-opacity:0.8;stroke:#1f77b4;stroke-opacity:0.8;" x="144.004327" xlink:href="#m5537da2206" y="67.136951"/>
     <use style="fill:#1f77b4;fill-opacity:0.8;stroke:#1f77b4;stroke-opacity:0.8;" x="169.060096" xlink:href="#m5537da2206" y="152.852112"/>
     <use style="fill:#1f77b4;fill-opacity:0.8;stroke:#1f77b4;stroke-opacity:0.8;" x="131.476442" xlink:href="#m5537da2206" y="152.852112"/>
     <use style="fill:#1f77b4;fill-opacity:0.8;stroke:#1f77b4;stroke-opacity:0.8;" x="181.587981" xlink:href="#m5537da2206" y="67.136951"/>
     <use style="fill:#1f77b4;fill-opacity:0.8;stroke:#1f77b4;stroke-opacity:0.8;" x="131.476442" xlink:href="#m5537da2206" y="152.852112"/>
     <use style="fill:#1f77b4;fill-opacity:0.8;stroke:#1f77b4;stroke-opacity:0.8;" x="81.364904" xlink:href="#m5537da2206" y="152.852112"/>
     <use style="fill:#1f77b4;fill-opacity:0.8;stroke:#1f77b4;stroke-opacity:0.8;" x="118.948558" xlink:href="#m5537da2206" y="152.852112"/>
     <use style="fill:#1f77b4;fill-opacity:0.8;stroke:#1f77b4;stroke-opacity:0.8;" x="118.948558" xlink:href="#m5537da2206" y="152.852112"/>
     <use style="fill:#1f77b4;fill-opacity:0.8;stroke:#1f77b4;stroke-opacity:0.8;" x="169.060096" xlink:href="#m5537da2206" y="67.136951"/>
     <use style="fill:#1f77b4;fill-opacity:0.8;stroke:#1f77b4;stroke-opacity:0.8;" x="93.892788" xlink:href="#m5537da2206" y="238.567273"/>
     <use style="fill:#1f77b4;fill-opacity:0.8;stroke:#1f77b4;stroke-opacity:0.8;" x="131.476442" xlink:href="#m5537da2206" y="238.567273"/>
     <use style="fill:#1f77b4;fill-opacity:0.8;stroke:#1f77b4;stroke-opacity:0.8;" x="131.476442" xlink:href="#m5537da2206" y="152.852112"/>
     <use style="fill:#1f77b4;fill-opacity:0.8;stroke:#1f77b4;stroke-opacity:0.8;" x="156.532212" xlink:href="#m5537da2206" y="152.852112"/>
     <use style="fill:#1f77b4;fill-opacity:0.8;stroke:#1f77b4;stroke-opacity:0.8;" x="118.948558" xlink:href="#m5537da2206" y="152.852112"/>
     <use style="fill:#1f77b4;fill-opacity:0.8;stroke:#1f77b4;stroke-opacity:0.8;" x="106.420673" xlink:href="#m5537da2206" y="67.136951"/>
     <use style="fill:#1f77b4;fill-opacity:0.8;stroke:#1f77b4;stroke-opacity:0.8;" x="156.532212" xlink:href="#m5537da2206" y="67.136951"/>
     <use style="fill:#1f77b4;fill-opacity:0.8;stroke:#1f77b4;stroke-opacity:0.8;" x="43.78125" xlink:href="#m5537da2206" y="238.567273"/>
     <use style="fill:#1f77b4;fill-opacity:0.8;stroke:#1f77b4;stroke-opacity:0.8;" x="93.892788" xlink:href="#m5537da2206" y="67.136951"/>
     <use style="fill:#1f77b4;fill-opacity:0.8;stroke:#1f77b4;stroke-opacity:0.8;" x="206.64375" xlink:href="#m5537da2206" y="67.136951"/>
     <use style="fill:#1f77b4;fill-opacity:0.8;stroke:#1f77b4;stroke-opacity:0.8;" x="118.948558" xlink:href="#m5537da2206" y="152.852112"/>
     <use style="fill:#1f77b4;fill-opacity:0.8;stroke:#1f77b4;stroke-opacity:0.8;" x="118.948558" xlink:href="#m5537da2206" y="67.136951"/>
     <use style="fill:#1f77b4;fill-opacity:0.8;stroke:#1f77b4;stroke-opacity:0.8;" x="118.948558" xlink:href="#m5537da2206" y="67.136951"/>
     <use style="fill:#1f77b4;fill-opacity:0.8;stroke:#1f77b4;stroke-opacity:0.8;" x="118.948558" xlink:href="#m5537da2206" y="152.852112"/>
     <use style="fill:#1f77b4;fill-opacity:0.8;stroke:#1f77b4;stroke-opacity:0.8;" x="106.420673" xlink:href="#m5537da2206" y="67.136951"/>
     <use style="fill:#1f77b4;fill-opacity:0.8;stroke:#1f77b4;stroke-opacity:0.8;" x="93.892788" xlink:href="#m5537da2206" y="152.852112"/>
     <use style="fill:#1f77b4;fill-opacity:0.8;stroke:#1f77b4;stroke-opacity:0.8;" x="106.420673" xlink:href="#m5537da2206" y="152.852112"/>
     <use style="fill:#1f77b4;fill-opacity:0.8;stroke:#1f77b4;stroke-opacity:0.8;" x="118.948558" xlink:href="#m5537da2206" y="152.852112"/>
     <use style="fill:#1f77b4;fill-opacity:0.8;stroke:#1f77b4;stroke-opacity:0.8;" x="118.948558" xlink:href="#m5537da2206" y="67.136951"/>
     <use style="fill:#1f77b4;fill-opacity:0.8;stroke:#1f77b4;stroke-opacity:0.8;" x="93.892788" xlink:href="#m5537da2206" y="152.852112"/>
     <use style="fill:#1f77b4;fill-opacity:0.8;stroke:#1f77b4;stroke-opacity:0.8;" x="131.476442" xlink:href="#m5537da2206" y="67.136951"/>
     <use style="fill:#1f77b4;fill-opacity:0.8;stroke:#1f77b4;stroke-opacity:0.8;" x="131.476442" xlink:href="#m5537da2206" y="238.567273"/>
     <use style="fill:#1f77b4;fill-opacity:0.8;stroke:#1f77b4;stroke-opacity:0.8;" x="106.420673" xlink:href="#m5537da2206" y="67.136951"/>
     <use style="fill:#1f77b4;fill-opacity:0.8;stroke:#1f77b4;stroke-opacity:0.8;" x="106.420673" xlink:href="#m5537da2206" y="238.567273"/>
     <use style="fill:#1f77b4;fill-opacity:0.8;stroke:#1f77b4;stroke-opacity:0.8;" x="93.892788" xlink:href="#m5537da2206" y="152.852112"/>
     <use style="fill:#1f77b4;fill-opacity:0.8;stroke:#1f77b4;stroke-opacity:0.8;" x="118.948558" xlink:href="#m5537da2206" y="152.852112"/>
     <use style="fill:#1f77b4;fill-opacity:0.8;stroke:#1f77b4;stroke-opacity:0.8;" x="106.420673" xlink:href="#m5537da2206" y="152.852112"/>
     <use style="fill:#1f77b4;fill-opacity:0.8;stroke:#1f77b4;stroke-opacity:0.8;" x="93.892788" xlink:href="#m5537da2206" y="152.852112"/>
     <use style="fill:#1f77b4;fill-opacity:0.8;stroke:#1f77b4;stroke-opacity:0.8;" x="56.309135" xlink:href="#m5537da2206" y="152.852112"/>
    </g>
   </g>
   <g id="PolyCollection_1">
    <path clip-path="url(#p7bc3dc1713)" d="M 43.78125 113.662766 
L 43.78125 205.911462 
L 45.426326 204.646677 
L 47.071402 203.079747 
L 48.716477 201.599582 
L 50.361553 200.284722 
L 52.006629 199.010564 
L 53.651705 197.734954 
L 55.29678 196.457327 
L 56.941856 195.179699 
L 58.586932 193.837229 
L 60.232008 192.366317 
L 61.877083 190.727474 
L 63.522159 189.444855 
L 65.167235 187.966983 
L 66.812311 186.482491 
L 68.457386 184.995065 
L 70.102462 183.50764 
L 71.747538 182.111919 
L 73.392614 180.905876 
L 75.037689 179.755629 
L 76.682765 178.298536 
L 78.327841 177.024052 
L 79.972917 175.755403 
L 81.617992 174.410026 
L 83.263068 173.065462 
L 84.908144 171.915229 
L 86.55322 170.71068 
L 88.198295 169.446503 
L 89.843371 168.120485 
L 91.488447 166.809309 
L 93.133523 165.627333 
L 94.778598 164.399525 
L 96.423674 163.334281 
L 98.06875 162.319695 
L 99.713826 161.304676 
L 101.358902 160.386855 
L 103.003977 159.419344 
L 104.649053 158.437911 
L 106.294129 157.83513 
L 107.939205 156.811629 
L 109.58428 155.78531 
L 111.229356 155.264181 
L 112.874432 154.055595 
L 114.519508 152.990412 
L 116.164583 152.073335 
L 117.809659 151.628573 
L 119.454735 151.39066 
L 121.099811 150.857462 
L 122.744886 150.09409 
L 124.389962 149.745696 
L 126.035038 149.970778 
L 127.680114 149.447972 
L 129.325189 149.168804 
L 130.970265 148.896696 
L 132.615341 148.810507 
L 134.260417 148.625015 
L 135.905492 148.289313 
L 137.550568 147.875391 
L 139.195644 147.808146 
L 140.84072 147.628421 
L 142.485795 147.600672 
L 144.130871 147.499034 
L 145.775947 147.592053 
L 147.421023 147.497768 
L 149.066098 147.433837 
L 150.711174 147.380976 
L 152.35625 147.551812 
L 154.001326 148.011475 
L 155.646402 148.075295 
L 157.291477 148.124259 
L 158.936553 148.17678 
L 160.581629 148.317732 
L 162.226705 149.00506 
L 163.87178 149.510574 
L 165.516856 149.82198 
L 167.161932 150.014239 
L 168.807008 150.206498 
L 170.452083 150.398757 
L 172.097159 150.587689 
L 173.742235 150.94737 
L 175.387311 151.27194 
L 177.032386 151.134863 
L 178.677462 151.47256 
L 180.322538 151.845516 
L 181.967614 152.218472 
L 183.612689 152.591428 
L 185.257765 152.964384 
L 186.902841 153.33734 
L 188.547917 153.710296 
L 190.192992 154.081346 
L 191.838068 154.446382 
L 193.483144 154.89715 
L 195.12822 155.183139 
L 196.773295 155.558752 
L 198.418371 155.934365 
L 200.063447 156.309978 
L 201.708523 156.682667 
L 203.353598 157.053212 
L 204.998674 157.423758 
L 206.64375 157.794304 
L 206.64375 57.112727 
L 206.64375 57.112727 
L 204.998674 58.640468 
L 203.353598 60.167524 
L 201.708523 61.692318 
L 200.063447 63.217112 
L 198.418371 64.674188 
L 196.773295 66.082418 
L 195.12822 67.490649 
L 193.483144 68.898879 
L 191.838068 70.163299 
L 190.192992 71.336229 
L 188.547917 72.620082 
L 186.902841 74.087342 
L 185.257765 75.401577 
L 183.612689 76.542469 
L 181.967614 77.69681 
L 180.322538 78.658225 
L 178.677462 79.913143 
L 177.032386 81.256579 
L 175.387311 82.601693 
L 173.742235 83.938512 
L 172.097159 85.053861 
L 170.452083 86.343631 
L 168.807008 87.815248 
L 167.161932 89.191268 
L 165.516856 90.249043 
L 163.87178 91.450868 
L 162.226705 92.788529 
L 160.581629 93.774237 
L 158.936553 94.742131 
L 157.291477 95.841911 
L 155.646402 96.846232 
L 154.001326 98.002882 
L 152.35625 98.765581 
L 150.711174 99.706197 
L 149.066098 100.880483 
L 147.421023 101.8372 
L 145.775947 103.008504 
L 144.130871 104.003414 
L 142.485795 104.895023 
L 140.84072 105.92151 
L 139.195644 107.052897 
L 137.550568 108.02632 
L 135.905492 108.965613 
L 134.260417 109.837882 
L 132.615341 110.839454 
L 130.970265 111.708626 
L 129.325189 112.382892 
L 127.680114 113.141223 
L 126.035038 113.939503 
L 124.389962 114.58786 
L 122.744886 114.969468 
L 121.099811 115.63621 
L 119.454735 116.201367 
L 117.809659 116.672264 
L 116.164583 117.174296 
L 114.519508 117.480235 
L 112.874432 117.82785 
L 111.229356 118.733015 
L 109.58428 119.464604 
L 107.939205 119.721723 
L 106.294129 119.86028 
L 104.649053 120.15196 
L 103.003977 120.18816 
L 101.358902 120.549272 
L 99.713826 120.821778 
L 98.06875 120.544836 
L 96.423674 120.738223 
L 94.778598 120.667364 
L 93.133523 120.562483 
L 91.488447 120.524049 
L 89.843371 120.458817 
L 88.198295 120.385681 
L 86.55322 120.491091 
L 84.908144 120.245921 
L 83.263068 119.78198 
L 81.617992 119.52675 
L 79.972917 119.071915 
L 78.327841 119.266717 
L 76.682765 118.800822 
L 75.037689 118.599619 
L 73.392614 118.632648 
L 71.747538 118.672644 
L 70.102462 118.274352 
L 68.457386 117.569474 
L 66.812311 116.873088 
L 65.167235 116.636464 
L 63.522159 116.40606 
L 61.877083 116.175655 
L 60.232008 115.948449 
L 58.586932 115.723852 
L 56.941856 115.540902 
L 55.29678 115.260883 
L 53.651705 115.034244 
L 52.006629 114.810541 
L 50.361553 114.793877 
L 48.716477 114.613873 
L 47.071402 114.273324 
L 45.426326 113.932775 
L 43.78125 113.662766 
z
" style="fill:#1f77b4;fill-opacity:0.15;"/>
   </g>
   <g id="matplotlib.axis_1">
    <g id="xtick_1">
     <g id="line2d_1">
      <defs>
       <path d="M 0 0 
L 0 3.5 
" id="m70e7b17814" style="stroke:#000000;stroke-width:0.8;"/>
      </defs>
      <g>
       <use style="stroke:#000000;stroke-width:0.8;" x="68.837019" xlink:href="#m70e7b17814" y="247.64"/>
      </g>
     </g>
     <g id="text_1">
      <!-- 2 -->
      <g transform="translate(65.655769 262.238437)scale(0.1 -0.1)">
       <defs>
        <path d="M 19.1875 8.296875 
L 53.609375 8.296875 
L 53.609375 0 
L 7.328125 0 
L 7.328125 8.296875 
Q 12.9375 14.109375 22.625 23.890625 
Q 32.328125 33.6875 34.8125 36.53125 
Q 39.546875 41.84375 41.421875 45.53125 
Q 43.3125 49.21875 43.3125 52.78125 
Q 43.3125 58.59375 39.234375 62.25 
Q 35.15625 65.921875 28.609375 65.921875 
Q 23.96875 65.921875 18.8125 64.3125 
Q 13.671875 62.703125 7.8125 59.421875 
L 7.8125 69.390625 
Q 13.765625 71.78125 18.9375 73 
Q 24.125 74.21875 28.421875 74.21875 
Q 39.75 74.21875 46.484375 68.546875 
Q 53.21875 62.890625 53.21875 53.421875 
Q 53.21875 48.921875 51.53125 44.890625 
Q 49.859375 40.875 45.40625 35.40625 
Q 44.1875 33.984375 37.640625 27.21875 
Q 31.109375 20.453125 19.1875 8.296875 
z
" id="DejaVuSans-50"/>
       </defs>
       <use xlink:href="#DejaVuSans-50"/>
      </g>
     </g>
    </g>
    <g id="xtick_2">
     <g id="line2d_2">
      <g>
       <use style="stroke:#000000;stroke-width:0.8;" x="118.948558" xlink:href="#m70e7b17814" y="247.64"/>
      </g>
     </g>
     <g id="text_2">
      <!-- 3 -->
      <g transform="translate(115.767308 262.238437)scale(0.1 -0.1)">
       <defs>
        <path d="M 40.578125 39.3125 
Q 47.65625 37.796875 51.625 33 
Q 55.609375 28.21875 55.609375 21.1875 
Q 55.609375 10.40625 48.1875 4.484375 
Q 40.765625 -1.421875 27.09375 -1.421875 
Q 22.515625 -1.421875 17.65625 -0.515625 
Q 12.796875 0.390625 7.625 2.203125 
L 7.625 11.71875 
Q 11.71875 9.328125 16.59375 8.109375 
Q 21.484375 6.890625 26.8125 6.890625 
Q 36.078125 6.890625 40.9375 10.546875 
Q 45.796875 14.203125 45.796875 21.1875 
Q 45.796875 27.640625 41.28125 31.265625 
Q 36.765625 34.90625 28.71875 34.90625 
L 20.21875 34.90625 
L 20.21875 43.015625 
L 29.109375 43.015625 
Q 36.375 43.015625 40.234375 45.921875 
Q 44.09375 48.828125 44.09375 54.296875 
Q 44.09375 59.90625 40.109375 62.90625 
Q 36.140625 65.921875 28.71875 65.921875 
Q 24.65625 65.921875 20.015625 65.03125 
Q 15.375 64.15625 9.8125 62.3125 
L 9.8125 71.09375 
Q 15.4375 72.65625 20.34375 73.4375 
Q 25.25 74.21875 29.59375 74.21875 
Q 40.828125 74.21875 47.359375 69.109375 
Q 53.90625 64.015625 53.90625 55.328125 
Q 53.90625 49.265625 50.4375 45.09375 
Q 46.96875 40.921875 40.578125 39.3125 
z
" id="DejaVuSans-51"/>
       </defs>
       <use xlink:href="#DejaVuSans-51"/>
      </g>
     </g>
    </g>
    <g id="xtick_3">
     <g id="line2d_3">
      <g>
       <use style="stroke:#000000;stroke-width:0.8;" x="169.060096" xlink:href="#m70e7b17814" y="247.64"/>
      </g>
     </g>
     <g id="text_3">
      <!-- 4 -->
      <g transform="translate(165.878846 262.238437)scale(0.1 -0.1)">
       <defs>
        <path d="M 37.796875 64.3125 
L 12.890625 25.390625 
L 37.796875 25.390625 
z
M 35.203125 72.90625 
L 47.609375 72.90625 
L 47.609375 25.390625 
L 58.015625 25.390625 
L 58.015625 17.1875 
L 47.609375 17.1875 
L 47.609375 0 
L 37.796875 0 
L 37.796875 17.1875 
L 4.890625 17.1875 
L 4.890625 26.703125 
z
" id="DejaVuSans-52"/>
       </defs>
       <use xlink:href="#DejaVuSans-52"/>
      </g>
     </g>
    </g>
    <g id="text_4">
     <!-- E -->
     <g transform="translate(122.053125 275.916562)scale(0.1 -0.1)">
      <defs>
       <path d="M 9.8125 72.90625 
L 55.90625 72.90625 
L 55.90625 64.59375 
L 19.671875 64.59375 
L 19.671875 43.015625 
L 54.390625 43.015625 
L 54.390625 34.71875 
L 19.671875 34.71875 
L 19.671875 8.296875 
L 56.78125 8.296875 
L 56.78125 0 
L 9.8125 0 
z
" id="DejaVuSans-69"/>
      </defs>
      <use xlink:href="#DejaVuSans-69"/>
     </g>
    </g>
   </g>
   <g id="matplotlib.axis_2">
    <g id="ytick_1">
     <g id="line2d_4">
      <defs>
       <path d="M 0 0 
L -3.5 0 
" id="m2a376e5115" style="stroke:#000000;stroke-width:0.8;"/>
      </defs>
      <g>
       <use style="stroke:#000000;stroke-width:0.8;" x="43.78125" xlink:href="#m2a376e5115" y="238.567273"/>
      </g>
     </g>
     <g id="text_5">
      <!-- 3.0 -->
      <g transform="translate(20.878125 242.366491)scale(0.1 -0.1)">
       <defs>
        <path d="M 10.6875 12.40625 
L 21 12.40625 
L 21 0 
L 10.6875 0 
z
" id="DejaVuSans-46"/>
        <path d="M 31.78125 66.40625 
Q 24.171875 66.40625 20.328125 58.90625 
Q 16.5 51.421875 16.5 36.375 
Q 16.5 21.390625 20.328125 13.890625 
Q 24.171875 6.390625 31.78125 6.390625 
Q 39.453125 6.390625 43.28125 13.890625 
Q 47.125 21.390625 47.125 36.375 
Q 47.125 51.421875 43.28125 58.90625 
Q 39.453125 66.40625 31.78125 66.40625 
z
M 31.78125 74.21875 
Q 44.046875 74.21875 50.515625 64.515625 
Q 56.984375 54.828125 56.984375 36.375 
Q 56.984375 17.96875 50.515625 8.265625 
Q 44.046875 -1.421875 31.78125 -1.421875 
Q 19.53125 -1.421875 13.0625 8.265625 
Q 6.59375 17.96875 6.59375 36.375 
Q 6.59375 54.828125 13.0625 64.515625 
Q 19.53125 74.21875 31.78125 74.21875 
z
" id="DejaVuSans-48"/>
       </defs>
       <use xlink:href="#DejaVuSans-51"/>
       <use x="63.623047" xlink:href="#DejaVuSans-46"/>
       <use x="95.410156" xlink:href="#DejaVuSans-48"/>
      </g>
     </g>
    </g>
    <g id="ytick_2">
     <g id="line2d_5">
      <g>
       <use style="stroke:#000000;stroke-width:0.8;" x="43.78125" xlink:href="#m2a376e5115" y="195.709692"/>
      </g>
     </g>
     <g id="text_6">
      <!-- 3.5 -->
      <g transform="translate(20.878125 199.508911)scale(0.1 -0.1)">
       <defs>
        <path d="M 10.796875 72.90625 
L 49.515625 72.90625 
L 49.515625 64.59375 
L 19.828125 64.59375 
L 19.828125 46.734375 
Q 21.96875 47.46875 24.109375 47.828125 
Q 26.265625 48.1875 28.421875 48.1875 
Q 40.625 48.1875 47.75 41.5 
Q 54.890625 34.8125 54.890625 23.390625 
Q 54.890625 11.625 47.5625 5.09375 
Q 40.234375 -1.421875 26.90625 -1.421875 
Q 22.3125 -1.421875 17.546875 -0.640625 
Q 12.796875 0.140625 7.71875 1.703125 
L 7.71875 11.625 
Q 12.109375 9.234375 16.796875 8.0625 
Q 21.484375 6.890625 26.703125 6.890625 
Q 35.15625 6.890625 40.078125 11.328125 
Q 45.015625 15.765625 45.015625 23.390625 
Q 45.015625 31 40.078125 35.4375 
Q 35.15625 39.890625 26.703125 39.890625 
Q 22.75 39.890625 18.8125 39.015625 
Q 14.890625 38.140625 10.796875 36.28125 
z
" id="DejaVuSans-53"/>
       </defs>
       <use xlink:href="#DejaVuSans-51"/>
       <use x="63.623047" xlink:href="#DejaVuSans-46"/>
       <use x="95.410156" xlink:href="#DejaVuSans-53"/>
      </g>
     </g>
    </g>
    <g id="ytick_3">
     <g id="line2d_6">
      <g>
       <use style="stroke:#000000;stroke-width:0.8;" x="43.78125" xlink:href="#m2a376e5115" y="152.852112"/>
      </g>
     </g>
     <g id="text_7">
      <!-- 4.0 -->
      <g transform="translate(20.878125 156.651331)scale(0.1 -0.1)">
       <use xlink:href="#DejaVuSans-52"/>
       <use x="63.623047" xlink:href="#DejaVuSans-46"/>
       <use x="95.410156" xlink:href="#DejaVuSans-48"/>
      </g>
     </g>
    </g>
    <g id="ytick_4">
     <g id="line2d_7">
      <g>
       <use style="stroke:#000000;stroke-width:0.8;" x="43.78125" xlink:href="#m2a376e5115" y="109.994531"/>
      </g>
     </g>
     <g id="text_8">
      <!-- 4.5 -->
      <g transform="translate(20.878125 113.79375)scale(0.1 -0.1)">
       <use xlink:href="#DejaVuSans-52"/>
       <use x="63.623047" xlink:href="#DejaVuSans-46"/>
       <use x="95.410156" xlink:href="#DejaVuSans-53"/>
      </g>
     </g>
    </g>
    <g id="ytick_5">
     <g id="line2d_8">
      <g>
       <use style="stroke:#000000;stroke-width:0.8;" x="43.78125" xlink:href="#m2a376e5115" y="67.136951"/>
      </g>
     </g>
     <g id="text_9">
      <!-- 5.0 -->
      <g transform="translate(20.878125 70.93617)scale(0.1 -0.1)">
       <use xlink:href="#DejaVuSans-53"/>
       <use x="63.623047" xlink:href="#DejaVuSans-46"/>
       <use x="95.410156" xlink:href="#DejaVuSans-48"/>
      </g>
     </g>
    </g>
    <g id="text_10">
     <!-- Trust1 -->
     <g transform="translate(14.798438 163.126719)rotate(-90)scale(0.1 -0.1)">
      <defs>
       <path d="M -0.296875 72.90625 
L 61.375 72.90625 
L 61.375 64.59375 
L 35.5 64.59375 
L 35.5 0 
L 25.59375 0 
L 25.59375 64.59375 
L -0.296875 64.59375 
z
" id="DejaVuSans-84"/>
       <path d="M 41.109375 46.296875 
Q 39.59375 47.171875 37.8125 47.578125 
Q 36.03125 48 33.890625 48 
Q 26.265625 48 22.1875 43.046875 
Q 18.109375 38.09375 18.109375 28.8125 
L 18.109375 0 
L 9.078125 0 
L 9.078125 54.6875 
L 18.109375 54.6875 
L 18.109375 46.1875 
Q 20.953125 51.171875 25.484375 53.578125 
Q 30.03125 56 36.53125 56 
Q 37.453125 56 38.578125 55.875 
Q 39.703125 55.765625 41.0625 55.515625 
z
" id="DejaVuSans-114"/>
       <path d="M 8.5 21.578125 
L 8.5 54.6875 
L 17.484375 54.6875 
L 17.484375 21.921875 
Q 17.484375 14.15625 20.5 10.265625 
Q 23.53125 6.390625 29.59375 6.390625 
Q 36.859375 6.390625 41.078125 11.03125 
Q 45.3125 15.671875 45.3125 23.6875 
L 45.3125 54.6875 
L 54.296875 54.6875 
L 54.296875 0 
L 45.3125 0 
L 45.3125 8.40625 
Q 42.046875 3.421875 37.71875 1 
Q 33.40625 -1.421875 27.6875 -1.421875 
Q 18.265625 -1.421875 13.375 4.4375 
Q 8.5 10.296875 8.5 21.578125 
z
M 31.109375 56 
z
" id="DejaVuSans-117"/>
       <path d="M 44.28125 53.078125 
L 44.28125 44.578125 
Q 40.484375 46.53125 36.375 47.5 
Q 32.28125 48.484375 27.875 48.484375 
Q 21.1875 48.484375 17.84375 46.4375 
Q 14.5 44.390625 14.5 40.28125 
Q 14.5 37.15625 16.890625 35.375 
Q 19.28125 33.59375 26.515625 31.984375 
L 29.59375 31.296875 
Q 39.15625 29.25 43.1875 25.515625 
Q 47.21875 21.78125 47.21875 15.09375 
Q 47.21875 7.46875 41.1875 3.015625 
Q 35.15625 -1.421875 24.609375 -1.421875 
Q 20.21875 -1.421875 15.453125 -0.5625 
Q 10.6875 0.296875 5.421875 2 
L 5.421875 11.28125 
Q 10.40625 8.6875 15.234375 7.390625 
Q 20.0625 6.109375 24.8125 6.109375 
Q 31.15625 6.109375 34.5625 8.28125 
Q 37.984375 10.453125 37.984375 14.40625 
Q 37.984375 18.0625 35.515625 20.015625 
Q 33.0625 21.96875 24.703125 23.78125 
L 21.578125 24.515625 
Q 13.234375 26.265625 9.515625 29.90625 
Q 5.8125 33.546875 5.8125 39.890625 
Q 5.8125 47.609375 11.28125 51.796875 
Q 16.75 56 26.8125 56 
Q 31.78125 56 36.171875 55.265625 
Q 40.578125 54.546875 44.28125 53.078125 
z
" id="DejaVuSans-115"/>
       <path d="M 18.3125 70.21875 
L 18.3125 54.6875 
L 36.8125 54.6875 
L 36.8125 47.703125 
L 18.3125 47.703125 
L 18.3125 18.015625 
Q 18.3125 11.328125 20.140625 9.421875 
Q 21.96875 7.515625 27.59375 7.515625 
L 36.8125 7.515625 
L 36.8125 0 
L 27.59375 0 
Q 17.1875 0 13.234375 3.875 
Q 9.28125 7.765625 9.28125 18.015625 
L 9.28125 47.703125 
L 2.6875 47.703125 
L 2.6875 54.6875 
L 9.28125 54.6875 
L 9.28125 70.21875 
z
" id="DejaVuSans-116"/>
       <path d="M 12.40625 8.296875 
L 28.515625 8.296875 
L 28.515625 63.921875 
L 10.984375 60.40625 
L 10.984375 69.390625 
L 28.421875 72.90625 
L 38.28125 72.90625 
L 38.28125 8.296875 
L 54.390625 8.296875 
L 54.390625 0 
L 12.40625 0 
z
" id="DejaVuSans-49"/>
      </defs>
      <use xlink:href="#DejaVuSans-84"/>
      <use x="46.333984" xlink:href="#DejaVuSans-114"/>
      <use x="87.447266" xlink:href="#DejaVuSans-117"/>
      <use x="150.826172" xlink:href="#DejaVuSans-115"/>
      <use x="202.925781" xlink:href="#DejaVuSans-116"/>
      <use x="242.134766" xlink:href="#DejaVuSans-49"/>
     </g>
    </g>
   </g>
   <g id="line2d_9">
    <path clip-path="url(#p7bc3dc1713)" d="M 43.78125 164.30838 
L 45.426326 163.637687 
L 47.071402 162.966994 
L 48.716477 162.2963 
L 50.361553 161.625607 
L 52.006629 160.954914 
L 53.651705 160.284221 
L 55.29678 159.613528 
L 56.941856 158.942835 
L 58.586932 158.272142 
L 60.232008 157.601449 
L 61.877083 156.930755 
L 63.522159 156.260062 
L 65.167235 155.589369 
L 66.812311 154.918676 
L 68.457386 154.247983 
L 70.102462 153.57729 
L 71.747538 152.906597 
L 73.392614 152.235903 
L 75.037689 151.56521 
L 76.682765 150.894517 
L 78.327841 150.223824 
L 79.972917 149.553131 
L 81.617992 148.882438 
L 83.263068 148.211745 
L 84.908144 147.541052 
L 86.55322 146.870358 
L 88.198295 146.199665 
L 89.843371 145.528972 
L 91.488447 144.858279 
L 93.133523 144.187586 
L 94.778598 143.516893 
L 96.423674 142.8462 
L 98.06875 142.175506 
L 99.713826 141.504813 
L 101.358902 140.83412 
L 103.003977 140.163427 
L 104.649053 139.492734 
L 106.294129 138.822041 
L 107.939205 138.151348 
L 109.58428 137.480655 
L 111.229356 136.809961 
L 112.874432 136.139268 
L 114.519508 135.468575 
L 116.164583 134.797882 
L 117.809659 134.127189 
L 119.454735 133.456496 
L 121.099811 132.785803 
L 122.744886 132.11511 
L 124.389962 131.444416 
L 126.035038 130.773723 
L 127.680114 130.10303 
L 129.325189 129.432337 
L 130.970265 128.761644 
L 132.615341 128.090951 
L 134.260417 127.420258 
L 135.905492 126.749564 
L 137.550568 126.078871 
L 139.195644 125.408178 
L 140.84072 124.737485 
L 142.485795 124.066792 
L 144.130871 123.396099 
L 145.775947 122.725406 
L 147.421023 122.054713 
L 149.066098 121.384019 
L 150.711174 120.713326 
L 152.35625 120.042633 
L 154.001326 119.37194 
L 155.646402 118.701247 
L 157.291477 118.030554 
L 158.936553 117.359861 
L 160.581629 116.689167 
L 162.226705 116.018474 
L 163.87178 115.347781 
L 165.516856 114.677088 
L 167.161932 114.006395 
L 168.807008 113.335702 
L 170.452083 112.665009 
L 172.097159 111.994316 
L 173.742235 111.323622 
L 175.387311 110.652929 
L 177.032386 109.982236 
L 178.677462 109.311543 
L 180.322538 108.64085 
L 181.967614 107.970157 
L 183.612689 107.299464 
L 185.257765 106.62877 
L 186.902841 105.958077 
L 188.547917 105.287384 
L 190.192992 104.616691 
L 191.838068 103.945998 
L 193.483144 103.275305 
L 195.12822 102.604612 
L 196.773295 101.933919 
L 198.418371 101.263225 
L 200.063447 100.592532 
L 201.708523 99.921839 
L 203.353598 99.251146 
L 204.998674 98.580453 
L 206.64375 97.90976 
" style="fill:none;stroke:#1f77b4;stroke-linecap:square;stroke-width:2.25;"/>
   </g>
   <g id="patch_3">
    <path d="M 43.78125 247.64 
L 43.78125 48.04 
" style="fill:none;stroke:#000000;stroke-linecap:square;stroke-linejoin:miter;stroke-width:0.8;"/>
   </g>
   <g id="patch_4">
    <path d="M 206.64375 247.64 
L 206.64375 48.04 
" style="fill:none;stroke:#000000;stroke-linecap:square;stroke-linejoin:miter;stroke-width:0.8;"/>
   </g>
   <g id="patch_5">
    <path d="M 43.78125 247.64 
L 206.64375 247.64 
" style="fill:none;stroke:#000000;stroke-linecap:square;stroke-linejoin:miter;stroke-width:0.8;"/>
   </g>
   <g id="patch_6">
    <path d="M 43.78125 48.04 
L 206.64375 48.04 
" style="fill:none;stroke:#000000;stroke-linecap:square;stroke-linejoin:miter;stroke-width:0.8;"/>
   </g>
   <g id="text_11">
    <!-- Group A -->
    <g transform="translate(43.78125 42.04)scale(0.12 -0.12)">
     <defs>
      <path d="M 59.515625 10.40625 
L 59.515625 29.984375 
L 43.40625 29.984375 
L 43.40625 38.09375 
L 69.28125 38.09375 
L 69.28125 6.78125 
Q 63.578125 2.734375 56.6875 0.65625 
Q 49.8125 -1.421875 42 -1.421875 
Q 24.90625 -1.421875 15.25 8.5625 
Q 5.609375 18.5625 5.609375 36.375 
Q 5.609375 54.25 15.25 64.234375 
Q 24.90625 74.21875 42 74.21875 
Q 49.125 74.21875 55.546875 72.453125 
Q 61.96875 70.703125 67.390625 67.28125 
L 67.390625 56.78125 
Q 61.921875 61.421875 55.765625 63.765625 
Q 49.609375 66.109375 42.828125 66.109375 
Q 29.4375 66.109375 22.71875 58.640625 
Q 16.015625 51.171875 16.015625 36.375 
Q 16.015625 21.625 22.71875 14.15625 
Q 29.4375 6.6875 42.828125 6.6875 
Q 48.046875 6.6875 52.140625 7.59375 
Q 56.25 8.5 59.515625 10.40625 
z
" id="DejaVuSans-71"/>
      <path d="M 30.609375 48.390625 
Q 23.390625 48.390625 19.1875 42.75 
Q 14.984375 37.109375 14.984375 27.296875 
Q 14.984375 17.484375 19.15625 11.84375 
Q 23.34375 6.203125 30.609375 6.203125 
Q 37.796875 6.203125 41.984375 11.859375 
Q 46.1875 17.53125 46.1875 27.296875 
Q 46.1875 37.015625 41.984375 42.703125 
Q 37.796875 48.390625 30.609375 48.390625 
z
M 30.609375 56 
Q 42.328125 56 49.015625 48.375 
Q 55.71875 40.765625 55.71875 27.296875 
Q 55.71875 13.875 49.015625 6.21875 
Q 42.328125 -1.421875 30.609375 -1.421875 
Q 18.84375 -1.421875 12.171875 6.21875 
Q 5.515625 13.875 5.515625 27.296875 
Q 5.515625 40.765625 12.171875 48.375 
Q 18.84375 56 30.609375 56 
z
" id="DejaVuSans-111"/>
      <path d="M 18.109375 8.203125 
L 18.109375 -20.796875 
L 9.078125 -20.796875 
L 9.078125 54.6875 
L 18.109375 54.6875 
L 18.109375 46.390625 
Q 20.953125 51.265625 25.265625 53.625 
Q 29.59375 56 35.59375 56 
Q 45.5625 56 51.78125 48.09375 
Q 58.015625 40.1875 58.015625 27.296875 
Q 58.015625 14.40625 51.78125 6.484375 
Q 45.5625 -1.421875 35.59375 -1.421875 
Q 29.59375 -1.421875 25.265625 0.953125 
Q 20.953125 3.328125 18.109375 8.203125 
z
M 48.6875 27.296875 
Q 48.6875 37.203125 44.609375 42.84375 
Q 40.53125 48.484375 33.40625 48.484375 
Q 26.265625 48.484375 22.1875 42.84375 
Q 18.109375 37.203125 18.109375 27.296875 
Q 18.109375 17.390625 22.1875 11.75 
Q 26.265625 6.109375 33.40625 6.109375 
Q 40.53125 6.109375 44.609375 11.75 
Q 48.6875 17.390625 48.6875 27.296875 
z
" id="DejaVuSans-112"/>
      <path id="DejaVuSans-32"/>
      <path d="M 34.1875 63.1875 
L 20.796875 26.90625 
L 47.609375 26.90625 
z
M 28.609375 72.90625 
L 39.796875 72.90625 
L 67.578125 0 
L 57.328125 0 
L 50.6875 18.703125 
L 17.828125 18.703125 
L 11.1875 0 
L 0.78125 0 
z
" id="DejaVuSans-65"/>
     </defs>
     <use xlink:href="#DejaVuSans-71"/>
     <use x="77.490234" xlink:href="#DejaVuSans-114"/>
     <use x="116.353516" xlink:href="#DejaVuSans-111"/>
     <use x="177.535156" xlink:href="#DejaVuSans-117"/>
     <use x="240.914062" xlink:href="#DejaVuSans-112"/>
     <use x="304.390625" xlink:href="#DejaVuSans-32"/>
     <use x="336.177734" xlink:href="#DejaVuSans-65"/>
    </g>
   </g>
  </g>
  <g id="axes_2">
   <g id="patch_7">
    <path d="M 254.44375 247.64 
L 417.30625 247.64 
L 417.30625 48.04 
L 254.44375 48.04 
z
" style="fill:#ffffff;"/>
   </g>
   <g id="PathCollection_2">
    <g clip-path="url(#p8ea82f4f1b)">
     <use style="fill:#1f77b4;fill-opacity:0.8;stroke:#1f77b4;stroke-opacity:0.8;" x="254.44375" xlink:href="#m5537da2206" y="102.476364"/>
     <use style="fill:#1f77b4;fill-opacity:0.8;stroke:#1f77b4;stroke-opacity:0.8;" x="266.971635" xlink:href="#m5537da2206" y="102.476364"/>
     <use style="fill:#1f77b4;fill-opacity:0.8;stroke:#1f77b4;stroke-opacity:0.8;" x="379.722596" xlink:href="#m5537da2206" y="57.112727"/>
     <use style="fill:#1f77b4;fill-opacity:0.8;stroke:#1f77b4;stroke-opacity:0.8;" x="342.138942" xlink:href="#m5537da2206" y="57.112727"/>
     <use style="fill:#1f77b4;fill-opacity:0.8;stroke:#1f77b4;stroke-opacity:0.8;" x="317.083173" xlink:href="#m5537da2206" y="57.112727"/>
     <use style="fill:#1f77b4;fill-opacity:0.8;stroke:#1f77b4;stroke-opacity:0.8;" x="379.722596" xlink:href="#m5537da2206" y="102.476364"/>
     <use style="fill:#1f77b4;fill-opacity:0.8;stroke:#1f77b4;stroke-opacity:0.8;" x="317.083173" xlink:href="#m5537da2206" y="57.112727"/>
     <use style="fill:#1f77b4;fill-opacity:0.8;stroke:#1f77b4;stroke-opacity:0.8;" x="342.138942" xlink:href="#m5537da2206" y="238.567273"/>
     <use style="fill:#1f77b4;fill-opacity:0.8;stroke:#1f77b4;stroke-opacity:0.8;" x="342.138942" xlink:href="#m5537da2206" y="57.112727"/>
     <use style="fill:#1f77b4;fill-opacity:0.8;stroke:#1f77b4;stroke-opacity:0.8;" x="367.194712" xlink:href="#m5537da2206" y="102.476364"/>
     <use style="fill:#1f77b4;fill-opacity:0.8;stroke:#1f77b4;stroke-opacity:0.8;" x="342.138942" xlink:href="#m5537da2206" y="147.84"/>
     <use style="fill:#1f77b4;fill-opacity:0.8;stroke:#1f77b4;stroke-opacity:0.8;" x="379.722596" xlink:href="#m5537da2206" y="57.112727"/>
     <use style="fill:#1f77b4;fill-opacity:0.8;stroke:#1f77b4;stroke-opacity:0.8;" x="342.138942" xlink:href="#m5537da2206" y="147.84"/>
     <use style="fill:#1f77b4;fill-opacity:0.8;stroke:#1f77b4;stroke-opacity:0.8;" x="392.250481" xlink:href="#m5537da2206" y="102.476364"/>
     <use style="fill:#1f77b4;fill-opacity:0.8;stroke:#1f77b4;stroke-opacity:0.8;" x="354.666827" xlink:href="#m5537da2206" y="57.112727"/>
     <use style="fill:#1f77b4;fill-opacity:0.8;stroke:#1f77b4;stroke-opacity:0.8;" x="392.250481" xlink:href="#m5537da2206" y="57.112727"/>
     <use style="fill:#1f77b4;fill-opacity:0.8;stroke:#1f77b4;stroke-opacity:0.8;" x="354.666827" xlink:href="#m5537da2206" y="57.112727"/>
     <use style="fill:#1f77b4;fill-opacity:0.8;stroke:#1f77b4;stroke-opacity:0.8;" x="317.083173" xlink:href="#m5537da2206" y="57.112727"/>
     <use style="fill:#1f77b4;fill-opacity:0.8;stroke:#1f77b4;stroke-opacity:0.8;" x="367.194712" xlink:href="#m5537da2206" y="102.476364"/>
     <use style="fill:#1f77b4;fill-opacity:0.8;stroke:#1f77b4;stroke-opacity:0.8;" x="279.499519" xlink:href="#m5537da2206" y="147.84"/>
     <use style="fill:#1f77b4;fill-opacity:0.8;stroke:#1f77b4;stroke-opacity:0.8;" x="417.30625" xlink:href="#m5537da2206" y="102.476364"/>
     <use style="fill:#1f77b4;fill-opacity:0.8;stroke:#1f77b4;stroke-opacity:0.8;" x="317.083173" xlink:href="#m5537da2206" y="57.112727"/>
     <use style="fill:#1f77b4;fill-opacity:0.8;stroke:#1f77b4;stroke-opacity:0.8;" x="367.194712" xlink:href="#m5537da2206" y="57.112727"/>
     <use style="fill:#1f77b4;fill-opacity:0.8;stroke:#1f77b4;stroke-opacity:0.8;" x="379.722596" xlink:href="#m5537da2206" y="102.476364"/>
     <use style="fill:#1f77b4;fill-opacity:0.8;stroke:#1f77b4;stroke-opacity:0.8;" x="379.722596" xlink:href="#m5537da2206" y="102.476364"/>
     <use style="fill:#1f77b4;fill-opacity:0.8;stroke:#1f77b4;stroke-opacity:0.8;" x="317.083173" xlink:href="#m5537da2206" y="57.112727"/>
     <use style="fill:#1f77b4;fill-opacity:0.8;stroke:#1f77b4;stroke-opacity:0.8;" x="317.083173" xlink:href="#m5537da2206" y="102.476364"/>
     <use style="fill:#1f77b4;fill-opacity:0.8;stroke:#1f77b4;stroke-opacity:0.8;" x="317.083173" xlink:href="#m5537da2206" y="102.476364"/>
     <use style="fill:#1f77b4;fill-opacity:0.8;stroke:#1f77b4;stroke-opacity:0.8;" x="379.722596" xlink:href="#m5537da2206" y="193.203636"/>
     <use style="fill:#1f77b4;fill-opacity:0.8;stroke:#1f77b4;stroke-opacity:0.8;" x="379.722596" xlink:href="#m5537da2206" y="102.476364"/>
     <use style="fill:#1f77b4;fill-opacity:0.8;stroke:#1f77b4;stroke-opacity:0.8;" x="254.44375" xlink:href="#m5537da2206" y="147.84"/>
     <use style="fill:#1f77b4;fill-opacity:0.8;stroke:#1f77b4;stroke-opacity:0.8;" x="329.611058" xlink:href="#m5537da2206" y="57.112727"/>
     <use style="fill:#1f77b4;fill-opacity:0.8;stroke:#1f77b4;stroke-opacity:0.8;" x="354.666827" xlink:href="#m5537da2206" y="102.476364"/>
     <use style="fill:#1f77b4;fill-opacity:0.8;stroke:#1f77b4;stroke-opacity:0.8;" x="317.083173" xlink:href="#m5537da2206" y="102.476364"/>
     <use style="fill:#1f77b4;fill-opacity:0.8;stroke:#1f77b4;stroke-opacity:0.8;" x="342.138942" xlink:href="#m5537da2206" y="102.476364"/>
     <use style="fill:#1f77b4;fill-opacity:0.8;stroke:#1f77b4;stroke-opacity:0.8;" x="329.611058" xlink:href="#m5537da2206" y="102.476364"/>
     <use style="fill:#1f77b4;fill-opacity:0.8;stroke:#1f77b4;stroke-opacity:0.8;" x="317.083173" xlink:href="#m5537da2206" y="57.112727"/>
     <use style="fill:#1f77b4;fill-opacity:0.8;stroke:#1f77b4;stroke-opacity:0.8;" x="367.194712" xlink:href="#m5537da2206" y="147.84"/>
     <use style="fill:#1f77b4;fill-opacity:0.8;stroke:#1f77b4;stroke-opacity:0.8;" x="317.083173" xlink:href="#m5537da2206" y="102.476364"/>
     <use style="fill:#1f77b4;fill-opacity:0.8;stroke:#1f77b4;stroke-opacity:0.8;" x="317.083173" xlink:href="#m5537da2206" y="57.112727"/>
     <use style="fill:#1f77b4;fill-opacity:0.8;stroke:#1f77b4;stroke-opacity:0.8;" x="317.083173" xlink:href="#m5537da2206" y="57.112727"/>
     <use style="fill:#1f77b4;fill-opacity:0.8;stroke:#1f77b4;stroke-opacity:0.8;" x="379.722596" xlink:href="#m5537da2206" y="57.112727"/>
    </g>
   </g>
   <g id="PolyCollection_2">
    <path clip-path="url(#p8ea82f4f1b)" d="M 254.44375 68.311163 
L 254.44375 121.653714 
L 256.088826 121.270003 
L 257.733902 120.992997 
L 259.378977 120.715991 
L 261.024053 120.30641 
L 262.669129 119.946259 
L 264.314205 119.672084 
L 265.95928 119.30898 
L 267.604356 119.00847 
L 269.249432 118.756015 
L 270.894508 118.339063 
L 272.539583 117.779966 
L 274.184659 117.233679 
L 275.829735 116.882201 
L 277.474811 116.465592 
L 279.119886 115.989444 
L 280.764962 115.597042 
L 282.410038 115.26631 
L 284.055114 114.934112 
L 285.700189 114.478699 
L 287.345265 114.063586 
L 288.990341 113.761152 
L 290.635417 113.373055 
L 292.280492 113.026749 
L 293.925568 112.577441 
L 295.570644 112.242327 
L 297.21572 111.863792 
L 298.860795 111.638657 
L 300.505871 111.303914 
L 302.150947 110.959619 
L 303.796023 110.729559 
L 305.441098 110.426955 
L 307.086174 110.277691 
L 308.73125 110.035991 
L 310.376326 109.55636 
L 312.021402 109.343407 
L 313.666477 108.913257 
L 315.311553 108.655537 
L 316.956629 108.397527 
L 318.601705 108.116611 
L 320.24678 108.214339 
L 321.891856 108.163255 
L 323.536932 108.23582 
L 325.182008 108.21477 
L 326.827083 108.180435 
L 328.472159 108.098091 
L 330.117235 107.882186 
L 331.762311 107.879015 
L 333.407386 107.874434 
L 335.052462 107.872184 
L 336.697538 107.870384 
L 338.342614 107.63001 
L 339.987689 107.572549 
L 341.632765 107.682126 
L 343.277841 107.667326 
L 344.922917 107.651329 
L 346.567992 107.730052 
L 348.213068 107.817353 
L 349.858144 107.859734 
L 351.50322 107.919028 
L 353.148295 108.114779 
L 354.793371 108.642432 
L 356.438447 108.525015 
L 358.083523 108.875819 
L 359.728598 109.270155 
L 361.373674 109.331893 
L 363.01875 109.68732 
L 364.663826 109.893036 
L 366.308902 110.103075 
L 367.953977 110.175931 
L 369.599053 110.494757 
L 371.244129 110.575548 
L 372.889205 110.66231 
L 374.53428 110.743175 
L 376.179356 110.822871 
L 377.824432 110.899103 
L 379.469508 110.955771 
L 381.114583 111.056912 
L 382.759659 111.149531 
L 384.404735 111.625238 
L 386.049811 112.06993 
L 387.694886 112.177208 
L 389.339962 112.28421 
L 390.985038 112.549137 
L 392.630114 112.895885 
L 394.275189 113.242633 
L 395.920265 113.589382 
L 397.565341 113.93613 
L 399.210417 114.335918 
L 400.855492 114.636772 
L 402.500568 114.990998 
L 404.145644 115.345224 
L 405.79072 115.69362 
L 407.435795 116.039281 
L 409.080871 116.285356 
L 410.725947 116.543991 
L 412.371023 116.699099 
L 414.016098 117.091613 
L 415.661174 117.515885 
L 417.30625 117.939457 
L 417.30625 66.337347 
L 417.30625 66.337347 
L 415.661174 66.849468 
L 414.016098 67.358503 
L 412.371023 67.867538 
L 410.725947 68.376573 
L 409.080871 68.886555 
L 407.435795 69.21386 
L 405.79072 69.477166 
L 404.145644 69.740472 
L 402.500568 70.289415 
L 400.855492 70.886705 
L 399.210417 71.408156 
L 397.565341 71.714134 
L 395.920265 72.050218 
L 394.275189 72.518575 
L 392.630114 72.988937 
L 390.985038 73.456651 
L 389.339962 73.922858 
L 387.694886 74.437363 
L 386.049811 74.859515 
L 384.404735 75.324343 
L 382.759659 75.641316 
L 381.114583 75.967821 
L 379.469508 76.316552 
L 377.824432 76.844644 
L 376.179356 77.185129 
L 374.53428 77.520333 
L 372.889205 78.02289 
L 371.244129 78.668344 
L 369.599053 79.113327 
L 367.953977 79.45646 
L 366.308902 79.620145 
L 364.663826 80.13096 
L 363.01875 80.354373 
L 361.373674 80.461613 
L 359.728598 80.672148 
L 358.083523 80.98651 
L 356.438447 81.062827 
L 354.793371 81.013794 
L 353.148295 81.321431 
L 351.50322 81.537575 
L 349.858144 81.633012 
L 348.213068 81.885246 
L 346.567992 81.926954 
L 344.922917 81.805455 
L 343.277841 81.688186 
L 341.632765 81.897725 
L 339.987689 81.949919 
L 338.342614 81.847857 
L 336.697538 81.765641 
L 335.052462 81.643698 
L 333.407386 81.65634 
L 331.762311 81.5516 
L 330.117235 81.584898 
L 328.472159 81.559518 
L 326.827083 81.308285 
L 325.182008 81.161592 
L 323.536932 81.180519 
L 321.891856 81.025231 
L 320.24678 80.793038 
L 318.601705 80.426927 
L 316.956629 80.027974 
L 315.311553 79.808834 
L 313.666477 79.89721 
L 312.021402 79.676483 
L 310.376326 79.455757 
L 308.73125 79.284956 
L 307.086174 79.02545 
L 305.441098 78.901914 
L 303.796023 78.746281 
L 302.150947 78.470322 
L 300.505871 78.264945 
L 298.860795 77.892986 
L 297.21572 77.671936 
L 295.570644 77.420295 
L 293.925568 77.054548 
L 292.280492 76.688801 
L 290.635417 76.325639 
L 288.990341 76.0852 
L 287.345265 75.727511 
L 285.700189 75.250608 
L 284.055114 75.172199 
L 282.410038 75.155515 
L 280.764962 74.742847 
L 279.119886 74.231679 
L 277.474811 73.724769 
L 275.829735 73.425128 
L 274.184659 73.260366 
L 272.539583 73.099112 
L 270.894508 72.833213 
L 269.249432 72.35178 
L 267.604356 71.870347 
L 265.95928 71.388914 
L 264.314205 70.907481 
L 262.669129 70.426048 
L 261.024053 69.944615 
L 259.378977 69.463182 
L 257.733902 69.045352 
L 256.088826 68.678257 
L 254.44375 68.311163 
z
" style="fill:#1f77b4;fill-opacity:0.15;"/>
   </g>
   <g id="matplotlib.axis_3">
    <g id="xtick_4">
     <g id="line2d_10">
      <g>
       <use style="stroke:#000000;stroke-width:0.8;" x="292.027404" xlink:href="#m70e7b17814" y="247.64"/>
      </g>
     </g>
     <g id="text_12">
      <!-- 2 -->
      <g transform="translate(288.846154 262.238437)scale(0.1 -0.1)">
       <use xlink:href="#DejaVuSans-50"/>
      </g>
     </g>
    </g>
    <g id="xtick_5">
     <g id="line2d_11">
      <g>
       <use style="stroke:#000000;stroke-width:0.8;" x="342.138942" xlink:href="#m70e7b17814" y="247.64"/>
      </g>
     </g>
     <g id="text_13">
      <!-- 3 -->
      <g transform="translate(338.957692 262.238437)scale(0.1 -0.1)">
       <use xlink:href="#DejaVuSans-51"/>
      </g>
     </g>
    </g>
    <g id="xtick_6">
     <g id="line2d_12">
      <g>
       <use style="stroke:#000000;stroke-width:0.8;" x="392.250481" xlink:href="#m70e7b17814" y="247.64"/>
      </g>
     </g>
     <g id="text_14">
      <!-- 4 -->
      <g transform="translate(389.069231 262.238437)scale(0.1 -0.1)">
       <use xlink:href="#DejaVuSans-52"/>
      </g>
     </g>
    </g>
    <g id="text_15">
     <!-- E -->
     <g transform="translate(332.715625 275.916562)scale(0.1 -0.1)">
      <use xlink:href="#DejaVuSans-69"/>
     </g>
    </g>
   </g>
   <g id="matplotlib.axis_4">
    <g id="ytick_6">
     <g id="line2d_13">
      <g>
       <use style="stroke:#000000;stroke-width:0.8;" x="254.44375" xlink:href="#m2a376e5115" y="238.567273"/>
      </g>
     </g>
     <g id="text_16">
      <!-- 1.0 -->
      <g transform="translate(231.540625 242.366491)scale(0.1 -0.1)">
       <use xlink:href="#DejaVuSans-49"/>
       <use x="63.623047" xlink:href="#DejaVuSans-46"/>
       <use x="95.410156" xlink:href="#DejaVuSans-48"/>
      </g>
     </g>
    </g>
    <g id="ytick_7">
     <g id="line2d_14">
      <g>
       <use style="stroke:#000000;stroke-width:0.8;" x="254.44375" xlink:href="#m2a376e5115" y="215.885455"/>
      </g>
     </g>
     <g id="text_17">
      <!-- 1.5 -->
      <g transform="translate(231.540625 219.684673)scale(0.1 -0.1)">
       <use xlink:href="#DejaVuSans-49"/>
       <use x="63.623047" xlink:href="#DejaVuSans-46"/>
       <use x="95.410156" xlink:href="#DejaVuSans-53"/>
      </g>
     </g>
    </g>
    <g id="ytick_8">
     <g id="line2d_15">
      <g>
       <use style="stroke:#000000;stroke-width:0.8;" x="254.44375" xlink:href="#m2a376e5115" y="193.203636"/>
      </g>
     </g>
     <g id="text_18">
      <!-- 2.0 -->
      <g transform="translate(231.540625 197.002855)scale(0.1 -0.1)">
       <use xlink:href="#DejaVuSans-50"/>
       <use x="63.623047" xlink:href="#DejaVuSans-46"/>
       <use x="95.410156" xlink:href="#DejaVuSans-48"/>
      </g>
     </g>
    </g>
    <g id="ytick_9">
     <g id="line2d_16">
      <g>
       <use style="stroke:#000000;stroke-width:0.8;" x="254.44375" xlink:href="#m2a376e5115" y="170.521818"/>
      </g>
     </g>
     <g id="text_19">
      <!-- 2.5 -->
      <g transform="translate(231.540625 174.321037)scale(0.1 -0.1)">
       <use xlink:href="#DejaVuSans-50"/>
       <use x="63.623047" xlink:href="#DejaVuSans-46"/>
       <use x="95.410156" xlink:href="#DejaVuSans-53"/>
      </g>
     </g>
    </g>
    <g id="ytick_10">
     <g id="line2d_17">
      <g>
       <use style="stroke:#000000;stroke-width:0.8;" x="254.44375" xlink:href="#m2a376e5115" y="147.84"/>
      </g>
     </g>
     <g id="text_20">
      <!-- 3.0 -->
      <g transform="translate(231.540625 151.639219)scale(0.1 -0.1)">
       <use xlink:href="#DejaVuSans-51"/>
       <use x="63.623047" xlink:href="#DejaVuSans-46"/>
       <use x="95.410156" xlink:href="#DejaVuSans-48"/>
      </g>
     </g>
    </g>
    <g id="ytick_11">
     <g id="line2d_18">
      <g>
       <use style="stroke:#000000;stroke-width:0.8;" x="254.44375" xlink:href="#m2a376e5115" y="125.158182"/>
      </g>
     </g>
     <g id="text_21">
      <!-- 3.5 -->
      <g transform="translate(231.540625 128.957401)scale(0.1 -0.1)">
       <use xlink:href="#DejaVuSans-51"/>
       <use x="63.623047" xlink:href="#DejaVuSans-46"/>
       <use x="95.410156" xlink:href="#DejaVuSans-53"/>
      </g>
     </g>
    </g>
    <g id="ytick_12">
     <g id="line2d_19">
      <g>
       <use style="stroke:#000000;stroke-width:0.8;" x="254.44375" xlink:href="#m2a376e5115" y="102.476364"/>
      </g>
     </g>
     <g id="text_22">
      <!-- 4.0 -->
      <g transform="translate(231.540625 106.275582)scale(0.1 -0.1)">
       <use xlink:href="#DejaVuSans-52"/>
       <use x="63.623047" xlink:href="#DejaVuSans-46"/>
       <use x="95.410156" xlink:href="#DejaVuSans-48"/>
      </g>
     </g>
    </g>
    <g id="ytick_13">
     <g id="line2d_20">
      <g>
       <use style="stroke:#000000;stroke-width:0.8;" x="254.44375" xlink:href="#m2a376e5115" y="79.794545"/>
      </g>
     </g>
     <g id="text_23">
      <!-- 4.5 -->
      <g transform="translate(231.540625 83.593764)scale(0.1 -0.1)">
       <use xlink:href="#DejaVuSans-52"/>
       <use x="63.623047" xlink:href="#DejaVuSans-46"/>
       <use x="95.410156" xlink:href="#DejaVuSans-53"/>
      </g>
     </g>
    </g>
    <g id="ytick_14">
     <g id="line2d_21">
      <g>
       <use style="stroke:#000000;stroke-width:0.8;" x="254.44375" xlink:href="#m2a376e5115" y="57.112727"/>
      </g>
     </g>
     <g id="text_24">
      <!-- 5.0 -->
      <g transform="translate(231.540625 60.911946)scale(0.1 -0.1)">
       <use xlink:href="#DejaVuSans-53"/>
       <use x="63.623047" xlink:href="#DejaVuSans-46"/>
       <use x="95.410156" xlink:href="#DejaVuSans-48"/>
      </g>
     </g>
    </g>
    <g id="text_25">
     <!-- Trust1 -->
     <g transform="translate(225.460938 163.126719)rotate(-90)scale(0.1 -0.1)">
      <use xlink:href="#DejaVuSans-84"/>
      <use x="46.333984" xlink:href="#DejaVuSans-114"/>
      <use x="87.447266" xlink:href="#DejaVuSans-117"/>
      <use x="150.826172" xlink:href="#DejaVuSans-115"/>
      <use x="202.925781" xlink:href="#DejaVuSans-116"/>
      <use x="242.134766" xlink:href="#DejaVuSans-49"/>
     </g>
    </g>
   </g>
   <g id="line2d_22">
    <path clip-path="url(#p8ea82f4f1b)" d="M 254.44375 97.59123 
L 256.088826 97.520296 
L 257.733902 97.449363 
L 259.378977 97.37843 
L 261.024053 97.307497 
L 262.669129 97.236564 
L 264.314205 97.165631 
L 265.95928 97.094698 
L 267.604356 97.023765 
L 269.249432 96.952831 
L 270.894508 96.881898 
L 272.539583 96.810965 
L 274.184659 96.740032 
L 275.829735 96.669099 
L 277.474811 96.598166 
L 279.119886 96.527233 
L 280.764962 96.456299 
L 282.410038 96.385366 
L 284.055114 96.314433 
L 285.700189 96.2435 
L 287.345265 96.172567 
L 288.990341 96.101634 
L 290.635417 96.030701 
L 292.280492 95.959768 
L 293.925568 95.888834 
L 295.570644 95.817901 
L 297.21572 95.746968 
L 298.860795 95.676035 
L 300.505871 95.605102 
L 302.150947 95.534169 
L 303.796023 95.463236 
L 305.441098 95.392302 
L 307.086174 95.321369 
L 308.73125 95.250436 
L 310.376326 95.179503 
L 312.021402 95.10857 
L 313.666477 95.037637 
L 315.311553 94.966704 
L 316.956629 94.895771 
L 318.601705 94.824837 
L 320.24678 94.753904 
L 321.891856 94.682971 
L 323.536932 94.612038 
L 325.182008 94.541105 
L 326.827083 94.470172 
L 328.472159 94.399239 
L 330.117235 94.328306 
L 331.762311 94.257372 
L 333.407386 94.186439 
L 335.052462 94.115506 
L 336.697538 94.044573 
L 338.342614 93.97364 
L 339.987689 93.902707 
L 341.632765 93.831774 
L 343.277841 93.76084 
L 344.922917 93.689907 
L 346.567992 93.618974 
L 348.213068 93.548041 
L 349.858144 93.477108 
L 351.50322 93.406175 
L 353.148295 93.335242 
L 354.793371 93.264309 
L 356.438447 93.193375 
L 358.083523 93.122442 
L 359.728598 93.051509 
L 361.373674 92.980576 
L 363.01875 92.909643 
L 364.663826 92.83871 
L 366.308902 92.767777 
L 367.953977 92.696843 
L 369.599053 92.62591 
L 371.244129 92.554977 
L 372.889205 92.484044 
L 374.53428 92.413111 
L 376.179356 92.342178 
L 377.824432 92.271245 
L 379.469508 92.200312 
L 381.114583 92.129378 
L 382.759659 92.058445 
L 384.404735 91.987512 
L 386.049811 91.916579 
L 387.694886 91.845646 
L 389.339962 91.774713 
L 390.985038 91.70378 
L 392.630114 91.632846 
L 394.275189 91.561913 
L 395.920265 91.49098 
L 397.565341 91.420047 
L 399.210417 91.349114 
L 400.855492 91.278181 
L 402.500568 91.207248 
L 404.145644 91.136315 
L 405.79072 91.065381 
L 407.435795 90.994448 
L 409.080871 90.923515 
L 410.725947 90.852582 
L 412.371023 90.781649 
L 414.016098 90.710716 
L 415.661174 90.639783 
L 417.30625 90.568849 
" style="fill:none;stroke:#1f77b4;stroke-linecap:square;stroke-width:2.25;"/>
   </g>
   <g id="patch_8">
    <path d="M 254.44375 247.64 
L 254.44375 48.04 
" style="fill:none;stroke:#000000;stroke-linecap:square;stroke-linejoin:miter;stroke-width:0.8;"/>
   </g>
   <g id="patch_9">
    <path d="M 417.30625 247.64 
L 417.30625 48.04 
" style="fill:none;stroke:#000000;stroke-linecap:square;stroke-linejoin:miter;stroke-width:0.8;"/>
   </g>
   <g id="patch_10">
    <path d="M 254.44375 247.64 
L 417.30625 247.64 
" style="fill:none;stroke:#000000;stroke-linecap:square;stroke-linejoin:miter;stroke-width:0.8;"/>
   </g>
   <g id="patch_11">
    <path d="M 254.44375 48.04 
L 417.30625 48.04 
" style="fill:none;stroke:#000000;stroke-linecap:square;stroke-linejoin:miter;stroke-width:0.8;"/>
   </g>
   <g id="text_26">
    <!-- Group B -->
    <g transform="translate(254.44375 42.04)scale(0.12 -0.12)">
     <defs>
      <path d="M 19.671875 34.8125 
L 19.671875 8.109375 
L 35.5 8.109375 
Q 43.453125 8.109375 47.28125 11.40625 
Q 51.125 14.703125 51.125 21.484375 
Q 51.125 28.328125 47.28125 31.5625 
Q 43.453125 34.8125 35.5 34.8125 
z
M 19.671875 64.796875 
L 19.671875 42.828125 
L 34.28125 42.828125 
Q 41.5 42.828125 45.03125 45.53125 
Q 48.578125 48.25 48.578125 53.8125 
Q 48.578125 59.328125 45.03125 62.0625 
Q 41.5 64.796875 34.28125 64.796875 
z
M 9.8125 72.90625 
L 35.015625 72.90625 
Q 46.296875 72.90625 52.390625 68.21875 
Q 58.5 63.53125 58.5 54.890625 
Q 58.5 48.1875 55.375 44.234375 
Q 52.25 40.28125 46.1875 39.3125 
Q 53.46875 37.75 57.5 32.78125 
Q 61.53125 27.828125 61.53125 20.40625 
Q 61.53125 10.640625 54.890625 5.3125 
Q 48.25 0 35.984375 0 
L 9.8125 0 
z
" id="DejaVuSans-66"/>
     </defs>
     <use xlink:href="#DejaVuSans-71"/>
     <use x="77.490234" xlink:href="#DejaVuSans-114"/>
     <use x="116.353516" xlink:href="#DejaVuSans-111"/>
     <use x="177.535156" xlink:href="#DejaVuSans-117"/>
     <use x="240.914062" xlink:href="#DejaVuSans-112"/>
     <use x="304.390625" xlink:href="#DejaVuSans-32"/>
     <use x="336.177734" xlink:href="#DejaVuSans-66"/>
    </g>
   </g>
  </g>
  <g id="text_27">
   <!-- The bike chatbot seemed to care about me. -->
   <g transform="translate(120.804244 13.529498)scale(0.0833 -0.0833)">
    <defs>
     <path d="M 54.890625 33.015625 
L 54.890625 0 
L 45.90625 0 
L 45.90625 32.71875 
Q 45.90625 40.484375 42.875 44.328125 
Q 39.84375 48.1875 33.796875 48.1875 
Q 26.515625 48.1875 22.3125 43.546875 
Q 18.109375 38.921875 18.109375 30.90625 
L 18.109375 0 
L 9.078125 0 
L 9.078125 75.984375 
L 18.109375 75.984375 
L 18.109375 46.1875 
Q 21.34375 51.125 25.703125 53.5625 
Q 30.078125 56 35.796875 56 
Q 45.21875 56 50.046875 50.171875 
Q 54.890625 44.34375 54.890625 33.015625 
z
" id="DejaVuSans-104"/>
     <path d="M 56.203125 29.59375 
L 56.203125 25.203125 
L 14.890625 25.203125 
Q 15.484375 15.921875 20.484375 11.0625 
Q 25.484375 6.203125 34.421875 6.203125 
Q 39.59375 6.203125 44.453125 7.46875 
Q 49.3125 8.734375 54.109375 11.28125 
L 54.109375 2.78125 
Q 49.265625 0.734375 44.1875 -0.34375 
Q 39.109375 -1.421875 33.890625 -1.421875 
Q 20.796875 -1.421875 13.15625 6.1875 
Q 5.515625 13.8125 5.515625 26.8125 
Q 5.515625 40.234375 12.765625 48.109375 
Q 20.015625 56 32.328125 56 
Q 43.359375 56 49.78125 48.890625 
Q 56.203125 41.796875 56.203125 29.59375 
z
M 47.21875 32.234375 
Q 47.125 39.59375 43.09375 43.984375 
Q 39.0625 48.390625 32.421875 48.390625 
Q 24.90625 48.390625 20.390625 44.140625 
Q 15.875 39.890625 15.1875 32.171875 
z
" id="DejaVuSans-101"/>
     <path d="M 48.6875 27.296875 
Q 48.6875 37.203125 44.609375 42.84375 
Q 40.53125 48.484375 33.40625 48.484375 
Q 26.265625 48.484375 22.1875 42.84375 
Q 18.109375 37.203125 18.109375 27.296875 
Q 18.109375 17.390625 22.1875 11.75 
Q 26.265625 6.109375 33.40625 6.109375 
Q 40.53125 6.109375 44.609375 11.75 
Q 48.6875 17.390625 48.6875 27.296875 
z
M 18.109375 46.390625 
Q 20.953125 51.265625 25.265625 53.625 
Q 29.59375 56 35.59375 56 
Q 45.5625 56 51.78125 48.09375 
Q 58.015625 40.1875 58.015625 27.296875 
Q 58.015625 14.40625 51.78125 6.484375 
Q 45.5625 -1.421875 35.59375 -1.421875 
Q 29.59375 -1.421875 25.265625 0.953125 
Q 20.953125 3.328125 18.109375 8.203125 
L 18.109375 0 
L 9.078125 0 
L 9.078125 75.984375 
L 18.109375 75.984375 
z
" id="DejaVuSans-98"/>
     <path d="M 9.421875 54.6875 
L 18.40625 54.6875 
L 18.40625 0 
L 9.421875 0 
z
M 9.421875 75.984375 
L 18.40625 75.984375 
L 18.40625 64.59375 
L 9.421875 64.59375 
z
" id="DejaVuSans-105"/>
     <path d="M 9.078125 75.984375 
L 18.109375 75.984375 
L 18.109375 31.109375 
L 44.921875 54.6875 
L 56.390625 54.6875 
L 27.390625 29.109375 
L 57.625 0 
L 45.90625 0 
L 18.109375 26.703125 
L 18.109375 0 
L 9.078125 0 
z
" id="DejaVuSans-107"/>
     <path d="M 48.78125 52.59375 
L 48.78125 44.1875 
Q 44.96875 46.296875 41.140625 47.34375 
Q 37.3125 48.390625 33.40625 48.390625 
Q 24.65625 48.390625 19.8125 42.84375 
Q 14.984375 37.3125 14.984375 27.296875 
Q 14.984375 17.28125 19.8125 11.734375 
Q 24.65625 6.203125 33.40625 6.203125 
Q 37.3125 6.203125 41.140625 7.25 
Q 44.96875 8.296875 48.78125 10.40625 
L 48.78125 2.09375 
Q 45.015625 0.34375 40.984375 -0.53125 
Q 36.96875 -1.421875 32.421875 -1.421875 
Q 20.0625 -1.421875 12.78125 6.34375 
Q 5.515625 14.109375 5.515625 27.296875 
Q 5.515625 40.671875 12.859375 48.328125 
Q 20.21875 56 33.015625 56 
Q 37.15625 56 41.109375 55.140625 
Q 45.0625 54.296875 48.78125 52.59375 
z
" id="DejaVuSans-99"/>
     <path d="M 34.28125 27.484375 
Q 23.390625 27.484375 19.1875 25 
Q 14.984375 22.515625 14.984375 16.5 
Q 14.984375 11.71875 18.140625 8.90625 
Q 21.296875 6.109375 26.703125 6.109375 
Q 34.1875 6.109375 38.703125 11.40625 
Q 43.21875 16.703125 43.21875 25.484375 
L 43.21875 27.484375 
z
M 52.203125 31.203125 
L 52.203125 0 
L 43.21875 0 
L 43.21875 8.296875 
Q 40.140625 3.328125 35.546875 0.953125 
Q 30.953125 -1.421875 24.3125 -1.421875 
Q 15.921875 -1.421875 10.953125 3.296875 
Q 6 8.015625 6 15.921875 
Q 6 25.140625 12.171875 29.828125 
Q 18.359375 34.515625 30.609375 34.515625 
L 43.21875 34.515625 
L 43.21875 35.40625 
Q 43.21875 41.609375 39.140625 45 
Q 35.0625 48.390625 27.6875 48.390625 
Q 23 48.390625 18.546875 47.265625 
Q 14.109375 46.140625 10.015625 43.890625 
L 10.015625 52.203125 
Q 14.9375 54.109375 19.578125 55.046875 
Q 24.21875 56 28.609375 56 
Q 40.484375 56 46.34375 49.84375 
Q 52.203125 43.703125 52.203125 31.203125 
z
" id="DejaVuSans-97"/>
     <path d="M 52 44.1875 
Q 55.375 50.25 60.0625 53.125 
Q 64.75 56 71.09375 56 
Q 79.640625 56 84.28125 50.015625 
Q 88.921875 44.046875 88.921875 33.015625 
L 88.921875 0 
L 79.890625 0 
L 79.890625 32.71875 
Q 79.890625 40.578125 77.09375 44.375 
Q 74.3125 48.1875 68.609375 48.1875 
Q 61.625 48.1875 57.5625 43.546875 
Q 53.515625 38.921875 53.515625 30.90625 
L 53.515625 0 
L 44.484375 0 
L 44.484375 32.71875 
Q 44.484375 40.625 41.703125 44.40625 
Q 38.921875 48.1875 33.109375 48.1875 
Q 26.21875 48.1875 22.15625 43.53125 
Q 18.109375 38.875 18.109375 30.90625 
L 18.109375 0 
L 9.078125 0 
L 9.078125 54.6875 
L 18.109375 54.6875 
L 18.109375 46.1875 
Q 21.1875 51.21875 25.484375 53.609375 
Q 29.78125 56 35.6875 56 
Q 41.65625 56 45.828125 52.96875 
Q 50 49.953125 52 44.1875 
z
" id="DejaVuSans-109"/>
     <path d="M 45.40625 46.390625 
L 45.40625 75.984375 
L 54.390625 75.984375 
L 54.390625 0 
L 45.40625 0 
L 45.40625 8.203125 
Q 42.578125 3.328125 38.25 0.953125 
Q 33.9375 -1.421875 27.875 -1.421875 
Q 17.96875 -1.421875 11.734375 6.484375 
Q 5.515625 14.40625 5.515625 27.296875 
Q 5.515625 40.1875 11.734375 48.09375 
Q 17.96875 56 27.875 56 
Q 33.9375 56 38.25 53.625 
Q 42.578125 51.265625 45.40625 46.390625 
z
M 14.796875 27.296875 
Q 14.796875 17.390625 18.875 11.75 
Q 22.953125 6.109375 30.078125 6.109375 
Q 37.203125 6.109375 41.296875 11.75 
Q 45.40625 17.390625 45.40625 27.296875 
Q 45.40625 37.203125 41.296875 42.84375 
Q 37.203125 48.484375 30.078125 48.484375 
Q 22.953125 48.484375 18.875 42.84375 
Q 14.796875 37.203125 14.796875 27.296875 
z
" id="DejaVuSans-100"/>
    </defs>
    <use xlink:href="#DejaVuSans-84"/>
    <use x="61.083984" xlink:href="#DejaVuSans-104"/>
    <use x="124.462891" xlink:href="#DejaVuSans-101"/>
    <use x="185.986328" xlink:href="#DejaVuSans-32"/>
    <use x="217.773438" xlink:href="#DejaVuSans-98"/>
    <use x="281.25" xlink:href="#DejaVuSans-105"/>
    <use x="309.033203" xlink:href="#DejaVuSans-107"/>
    <use x="363.318359" xlink:href="#DejaVuSans-101"/>
    <use x="424.841797" xlink:href="#DejaVuSans-32"/>
    <use x="456.628906" xlink:href="#DejaVuSans-99"/>
    <use x="511.609375" xlink:href="#DejaVuSans-104"/>
    <use x="574.988281" xlink:href="#DejaVuSans-97"/>
    <use x="636.267578" xlink:href="#DejaVuSans-116"/>
    <use x="675.476562" xlink:href="#DejaVuSans-98"/>
    <use x="738.953125" xlink:href="#DejaVuSans-111"/>
    <use x="800.134766" xlink:href="#DejaVuSans-116"/>
    <use x="839.34375" xlink:href="#DejaVuSans-32"/>
    <use x="871.130859" xlink:href="#DejaVuSans-115"/>
    <use x="923.230469" xlink:href="#DejaVuSans-101"/>
    <use x="984.753906" xlink:href="#DejaVuSans-101"/>
    <use x="1046.277344" xlink:href="#DejaVuSans-109"/>
    <use x="1143.689453" xlink:href="#DejaVuSans-101"/>
    <use x="1205.212891" xlink:href="#DejaVuSans-100"/>
    <use x="1268.689453" xlink:href="#DejaVuSans-32"/>
    <use x="1300.476562" xlink:href="#DejaVuSans-116"/>
    <use x="1339.685547" xlink:href="#DejaVuSans-111"/>
    <use x="1400.867188" xlink:href="#DejaVuSans-32"/>
    <use x="1432.654297" xlink:href="#DejaVuSans-99"/>
    <use x="1487.634766" xlink:href="#DejaVuSans-97"/>
    <use x="1548.914062" xlink:href="#DejaVuSans-114"/>
    <use x="1587.777344" xlink:href="#DejaVuSans-101"/>
    <use x="1649.300781" xlink:href="#DejaVuSans-32"/>
    <use x="1681.087891" xlink:href="#DejaVuSans-97"/>
    <use x="1742.367188" xlink:href="#DejaVuSans-98"/>
    <use x="1805.84375" xlink:href="#DejaVuSans-111"/>
    <use x="1867.025391" xlink:href="#DejaVuSans-117"/>
    <use x="1930.404297" xlink:href="#DejaVuSans-116"/>
    <use x="1969.613281" xlink:href="#DejaVuSans-32"/>
    <use x="2001.400391" xlink:href="#DejaVuSans-109"/>
    <use x="2098.8125" xlink:href="#DejaVuSans-101"/>
    <use x="2160.335938" xlink:href="#DejaVuSans-46"/>
   </g>
  </g>
 </g>
 <defs>
  <clipPath id="p7bc3dc1713">
   <rect height="199.6" width="162.8625" x="43.78125" y="48.04"/>
  </clipPath>
  <clipPath id="p8ea82f4f1b">
   <rect height="199.6" width="162.8625" x="254.44375" y="48.04"/>
  </clipPath>
 </defs>
</svg>
