<?xml version="1.0" encoding="utf-8" standalone="no"?>
<!DOCTYPE svg PUBLIC "-//W3C//DTD SVG 1.1//EN"
  "http://www.w3.org/Graphics/SVG/1.1/DTD/svg11.dtd">
<!-- Created with matplotlib (https://matplotlib.org/) -->
<svg height="285.19625pt" version="1.1" viewBox="0 0 424.38125 285.19625" width="424.38125pt" xmlns="http://www.w3.org/2000/svg" xmlns:xlink="http://www.w3.org/1999/xlink">
 <metadata>
  <rdf:RDF xmlns:cc="http://creativecommons.org/ns#" xmlns:dc="http://purl.org/dc/elements/1.1/" xmlns:rdf="http://www.w3.org/1999/02/22-rdf-syntax-ns#">
   <cc:Work>
    <dc:type rdf:resource="http://purl.org/dc/dcmitype/StillImage"/>
    <dc:date>2021-02-21T18:27:34.280781</dc:date>
    <dc:format>image/svg+xml</dc:format>
    <dc:creator>
     <cc:Agent>
      <dc:title>Matplotlib v3.3.2, https://matplotlib.org/</dc:title>
     </cc:Agent>
    </dc:creator>
   </cc:Work>
  </rdf:RDF>
 </metadata>
 <defs>
  <style type="text/css">*{stroke-linecap:butt;stroke-linejoin:round;}</style>
 </defs>
 <g id="figure_1">
  <g id="patch_1">
   <path d="M 0 285.19625 
L 424.38125 285.19625 
L 424.38125 0 
L 0 0 
z
" style="fill:none;"/>
  </g>
  <g id="axes_1">
   <g id="patch_2">
    <path d="M 43.78125 247.64 
L 206.58125 247.64 
L 206.58125 48.04 
L 43.78125 48.04 
z
" style="fill:#ffffff;"/>
   </g>
   <g id="PathCollection_1">
    <defs>
     <path d="M 0 3 
C 0.795609 3 1.55874 2.683901 2.12132 2.12132 
C 2.683901 1.55874 3 0.795609 3 0 
C 3 -0.795609 2.683901 -1.55874 2.12132 -2.12132 
C 1.55874 -2.683901 0.795609 -3 0 -3 
C -0.795609 -3 -1.55874 -2.683901 -2.12132 -2.12132 
C -2.683901 -1.55874 -3 -0.795609 -3 0 
C -3 0.795609 -2.683901 1.55874 -2.12132 2.12132 
C -1.55874 2.683901 -0.795609 3 0 3 
z
" id="m9b5a2ab364" style="stroke:#1f77b4;stroke-opacity:0.8;"/>
    </defs>
    <g clip-path="url(#pc04fd3f224)">
     <use style="fill:#1f77b4;fill-opacity:0.8;stroke:#1f77b4;stroke-opacity:0.8;" x="143.965865" xlink:href="#m9b5a2ab364" y="189.209111"/>
     <use style="fill:#1f77b4;fill-opacity:0.8;stroke:#1f77b4;stroke-opacity:0.8;" x="68.827404" xlink:href="#m9b5a2ab364" y="139.85095"/>
     <use style="fill:#1f77b4;fill-opacity:0.8;stroke:#1f77b4;stroke-opacity:0.8;" x="81.350481" xlink:href="#m9b5a2ab364" y="139.85095"/>
     <use style="fill:#1f77b4;fill-opacity:0.8;stroke:#1f77b4;stroke-opacity:0.8;" x="143.965865" xlink:href="#m9b5a2ab364" y="90.492789"/>
     <use style="fill:#1f77b4;fill-opacity:0.8;stroke:#1f77b4;stroke-opacity:0.8;" x="169.012019" xlink:href="#m9b5a2ab364" y="90.492789"/>
     <use style="fill:#1f77b4;fill-opacity:0.8;stroke:#1f77b4;stroke-opacity:0.8;" x="131.442788" xlink:href="#m9b5a2ab364" y="90.492789"/>
     <use style="fill:#1f77b4;fill-opacity:0.8;stroke:#1f77b4;stroke-opacity:0.8;" x="181.535096" xlink:href="#m9b5a2ab364" y="90.492789"/>
     <use style="fill:#1f77b4;fill-opacity:0.8;stroke:#1f77b4;stroke-opacity:0.8;" x="131.442788" xlink:href="#m9b5a2ab364" y="139.85095"/>
     <use style="fill:#1f77b4;fill-opacity:0.8;stroke:#1f77b4;stroke-opacity:0.8;" x="81.350481" xlink:href="#m9b5a2ab364" y="139.85095"/>
     <use style="fill:#1f77b4;fill-opacity:0.8;stroke:#1f77b4;stroke-opacity:0.8;" x="118.919712" xlink:href="#m9b5a2ab364" y="90.492789"/>
     <use style="fill:#1f77b4;fill-opacity:0.8;stroke:#1f77b4;stroke-opacity:0.8;" x="118.919712" xlink:href="#m9b5a2ab364" y="139.85095"/>
     <use style="fill:#1f77b4;fill-opacity:0.8;stroke:#1f77b4;stroke-opacity:0.8;" x="169.012019" xlink:href="#m9b5a2ab364" y="90.492789"/>
     <use style="fill:#1f77b4;fill-opacity:0.8;stroke:#1f77b4;stroke-opacity:0.8;" x="93.873558" xlink:href="#m9b5a2ab364" y="139.85095"/>
     <use style="fill:#1f77b4;fill-opacity:0.8;stroke:#1f77b4;stroke-opacity:0.8;" x="131.442788" xlink:href="#m9b5a2ab364" y="90.492789"/>
     <use style="fill:#1f77b4;fill-opacity:0.8;stroke:#1f77b4;stroke-opacity:0.8;" x="131.442788" xlink:href="#m9b5a2ab364" y="139.85095"/>
     <use style="fill:#1f77b4;fill-opacity:0.8;stroke:#1f77b4;stroke-opacity:0.8;" x="156.488942" xlink:href="#m9b5a2ab364" y="139.85095"/>
     <use style="fill:#1f77b4;fill-opacity:0.8;stroke:#1f77b4;stroke-opacity:0.8;" x="118.919712" xlink:href="#m9b5a2ab364" y="139.85095"/>
     <use style="fill:#1f77b4;fill-opacity:0.8;stroke:#1f77b4;stroke-opacity:0.8;" x="106.396635" xlink:href="#m9b5a2ab364" y="139.85095"/>
     <use style="fill:#1f77b4;fill-opacity:0.8;stroke:#1f77b4;stroke-opacity:0.8;" x="156.488942" xlink:href="#m9b5a2ab364" y="90.492789"/>
     <use style="fill:#1f77b4;fill-opacity:0.8;stroke:#1f77b4;stroke-opacity:0.8;" x="43.78125" xlink:href="#m9b5a2ab364" y="238.567273"/>
     <use style="fill:#1f77b4;fill-opacity:0.8;stroke:#1f77b4;stroke-opacity:0.8;" x="93.873558" xlink:href="#m9b5a2ab364" y="90.492789"/>
     <use style="fill:#1f77b4;fill-opacity:0.8;stroke:#1f77b4;stroke-opacity:0.8;" x="206.58125" xlink:href="#m9b5a2ab364" y="90.492789"/>
     <use style="fill:#1f77b4;fill-opacity:0.8;stroke:#1f77b4;stroke-opacity:0.8;" x="118.919712" xlink:href="#m9b5a2ab364" y="139.85095"/>
     <use style="fill:#1f77b4;fill-opacity:0.8;stroke:#1f77b4;stroke-opacity:0.8;" x="118.919712" xlink:href="#m9b5a2ab364" y="139.85095"/>
     <use style="fill:#1f77b4;fill-opacity:0.8;stroke:#1f77b4;stroke-opacity:0.8;" x="118.919712" xlink:href="#m9b5a2ab364" y="139.85095"/>
     <use style="fill:#1f77b4;fill-opacity:0.8;stroke:#1f77b4;stroke-opacity:0.8;" x="118.919712" xlink:href="#m9b5a2ab364" y="139.85095"/>
     <use style="fill:#1f77b4;fill-opacity:0.8;stroke:#1f77b4;stroke-opacity:0.8;" x="106.396635" xlink:href="#m9b5a2ab364" y="90.492789"/>
     <use style="fill:#1f77b4;fill-opacity:0.8;stroke:#1f77b4;stroke-opacity:0.8;" x="93.873558" xlink:href="#m9b5a2ab364" y="90.492789"/>
     <use style="fill:#1f77b4;fill-opacity:0.8;stroke:#1f77b4;stroke-opacity:0.8;" x="106.396635" xlink:href="#m9b5a2ab364" y="139.85095"/>
     <use style="fill:#1f77b4;fill-opacity:0.8;stroke:#1f77b4;stroke-opacity:0.8;" x="118.919712" xlink:href="#m9b5a2ab364" y="90.492789"/>
     <use style="fill:#1f77b4;fill-opacity:0.8;stroke:#1f77b4;stroke-opacity:0.8;" x="118.919712" xlink:href="#m9b5a2ab364" y="139.85095"/>
     <use style="fill:#1f77b4;fill-opacity:0.8;stroke:#1f77b4;stroke-opacity:0.8;" x="93.873558" xlink:href="#m9b5a2ab364" y="139.85095"/>
     <use style="fill:#1f77b4;fill-opacity:0.8;stroke:#1f77b4;stroke-opacity:0.8;" x="131.442788" xlink:href="#m9b5a2ab364" y="139.85095"/>
     <use style="fill:#1f77b4;fill-opacity:0.8;stroke:#1f77b4;stroke-opacity:0.8;" x="131.442788" xlink:href="#m9b5a2ab364" y="139.85095"/>
     <use style="fill:#1f77b4;fill-opacity:0.8;stroke:#1f77b4;stroke-opacity:0.8;" x="106.396635" xlink:href="#m9b5a2ab364" y="90.492789"/>
     <use style="fill:#1f77b4;fill-opacity:0.8;stroke:#1f77b4;stroke-opacity:0.8;" x="106.396635" xlink:href="#m9b5a2ab364" y="189.209111"/>
     <use style="fill:#1f77b4;fill-opacity:0.8;stroke:#1f77b4;stroke-opacity:0.8;" x="93.873558" xlink:href="#m9b5a2ab364" y="139.85095"/>
     <use style="fill:#1f77b4;fill-opacity:0.8;stroke:#1f77b4;stroke-opacity:0.8;" x="118.919712" xlink:href="#m9b5a2ab364" y="90.492789"/>
     <use style="fill:#1f77b4;fill-opacity:0.8;stroke:#1f77b4;stroke-opacity:0.8;" x="106.396635" xlink:href="#m9b5a2ab364" y="90.492789"/>
     <use style="fill:#1f77b4;fill-opacity:0.8;stroke:#1f77b4;stroke-opacity:0.8;" x="93.873558" xlink:href="#m9b5a2ab364" y="139.85095"/>
     <use style="fill:#1f77b4;fill-opacity:0.8;stroke:#1f77b4;stroke-opacity:0.8;" x="56.304327" xlink:href="#m9b5a2ab364" y="90.492789"/>
    </g>
   </g>
   <g id="PolyCollection_1">
    <path clip-path="url(#pc04fd3f224)" d="M 43.78125 119.518028 
L 43.78125 185.643621 
L 45.425694 184.325637 
L 47.070139 183.039967 
L 48.714583 181.861219 
L 50.359028 180.525032 
L 52.003472 179.206914 
L 53.647917 177.896734 
L 55.292361 176.586735 
L 56.936806 175.369791 
L 58.58125 174.152848 
L 60.225694 172.999033 
L 61.870139 171.858095 
L 63.514583 170.65819 
L 65.159028 169.34072 
L 66.803472 168.090186 
L 68.447917 166.998999 
L 70.092361 165.711723 
L 71.736806 164.446517 
L 73.38125 163.231691 
L 75.025694 162.016866 
L 76.670139 160.795992 
L 78.314583 159.662284 
L 79.959028 158.547682 
L 81.603472 157.429709 
L 83.247917 156.314303 
L 84.892361 155.217299 
L 86.536806 154.244459 
L 88.18125 153.006378 
L 89.825694 151.855083 
L 91.470139 150.589458 
L 93.114583 149.435044 
L 94.759028 148.190065 
L 96.403472 147.204487 
L 98.047917 146.277599 
L 99.692361 145.163183 
L 101.336806 144.049225 
L 102.98125 142.934542 
L 104.625694 141.730934 
L 106.270139 140.642032 
L 107.914583 139.445175 
L 109.559028 138.33439 
L 111.203472 137.215598 
L 112.847917 136.239375 
L 114.492361 135.281706 
L 116.136806 134.375769 
L 117.78125 133.735023 
L 119.425694 132.880364 
L 121.070139 132.398753 
L 122.714583 131.897703 
L 124.359028 131.418409 
L 126.003472 130.790038 
L 127.647917 130.348137 
L 129.292361 129.952192 
L 130.936806 129.620675 
L 132.58125 129.094134 
L 134.225694 128.840676 
L 135.870139 128.563486 
L 137.514583 128.142516 
L 139.159028 127.819643 
L 140.803472 127.340112 
L 142.447917 127.15593 
L 144.092361 127.014254 
L 145.736806 126.900045 
L 147.38125 126.732958 
L 149.025694 126.586058 
L 150.670139 126.296576 
L 152.314583 126.277446 
L 153.959028 126.251515 
L 155.603472 126.133643 
L 157.247917 125.925688 
L 158.892361 125.810773 
L 160.536806 125.649186 
L 162.18125 125.89284 
L 163.825694 125.846799 
L 165.470139 125.753186 
L 167.114583 125.658094 
L 168.759028 125.567751 
L 170.403472 125.674631 
L 172.047917 125.606341 
L 173.692361 125.771588 
L 175.336806 125.979069 
L 176.98125 125.961481 
L 178.625694 126.066455 
L 180.270139 125.999214 
L 181.914583 125.907131 
L 183.559028 125.891002 
L 185.203472 125.873539 
L 186.847917 125.851017 
L 188.492361 125.827106 
L 190.136806 125.803195 
L 191.78125 125.779283 
L 193.425694 125.755372 
L 195.070139 125.731461 
L 196.714583 125.70755 
L 198.359028 125.657491 
L 200.003472 125.522475 
L 201.647917 125.387459 
L 203.292361 125.252443 
L 204.936806 125.117428 
L 206.58125 124.982412 
L 206.58125 57.112727 
L 206.58125 57.112727 
L 204.936806 58.396596 
L 203.292361 59.55905 
L 201.647917 60.682678 
L 200.003472 61.870623 
L 198.359028 63.058569 
L 196.714583 64.248109 
L 195.070139 65.442019 
L 193.425694 66.7755 
L 191.78125 68.122951 
L 190.136806 69.333013 
L 188.492361 70.479886 
L 186.847917 71.747985 
L 185.203472 72.848869 
L 183.559028 74.152605 
L 181.914583 75.473846 
L 180.270139 76.795087 
L 178.625694 78.116328 
L 176.98125 79.408194 
L 175.336806 80.589672 
L 173.692361 81.826854 
L 172.047917 83.187462 
L 170.403472 84.637725 
L 168.759028 85.70967 
L 167.114583 86.992579 
L 165.470139 88.286719 
L 163.825694 89.582855 
L 162.18125 90.756165 
L 160.536806 91.89424 
L 158.892361 92.754488 
L 157.247917 93.636965 
L 155.603472 94.806659 
L 153.959028 96.00947 
L 152.314583 97.091069 
L 150.670139 98.366341 
L 149.025694 99.657579 
L 147.38125 100.688827 
L 145.736806 101.803896 
L 144.092361 102.772698 
L 142.447917 103.848627 
L 140.803472 104.70842 
L 139.159028 105.81474 
L 137.514583 106.834743 
L 135.870139 107.721026 
L 134.225694 108.476778 
L 132.58125 109.329317 
L 130.936806 110.279415 
L 129.292361 110.811663 
L 127.647917 111.524311 
L 126.003472 112.103983 
L 124.359028 112.898873 
L 122.714583 113.364058 
L 121.070139 113.871096 
L 119.425694 114.295094 
L 117.78125 114.416384 
L 116.136806 114.754423 
L 114.492361 115.297176 
L 112.847917 115.532404 
L 111.203472 115.630661 
L 109.559028 115.672733 
L 107.914583 115.991737 
L 106.270139 116.275315 
L 104.625694 116.627256 
L 102.98125 116.885693 
L 101.336806 117.10257 
L 99.692361 117.101011 
L 98.047917 117.431182 
L 96.403472 117.400654 
L 94.759028 117.681064 
L 93.114583 117.96345 
L 91.470139 118.245835 
L 89.825694 118.394153 
L 88.18125 118.144904 
L 86.536806 118.410994 
L 84.892361 118.661294 
L 83.247917 118.923914 
L 81.603472 119.186534 
L 79.959028 119.336123 
L 78.314583 119.230408 
L 76.670139 119.425064 
L 75.025694 119.681196 
L 73.38125 119.629638 
L 71.736806 119.277331 
L 70.092361 119.05595 
L 68.447917 119.231431 
L 66.803472 119.406911 
L 65.159028 119.582392 
L 63.514583 119.757873 
L 61.870139 119.933354 
L 60.225694 120.028378 
L 58.58125 119.980463 
L 56.936806 119.931296 
L 55.292361 119.87698 
L 53.647917 119.836087 
L 52.003472 119.777386 
L 50.359028 119.721433 
L 48.714583 119.66548 
L 47.070139 119.613567 
L 45.425694 119.565798 
L 43.78125 119.518028 
z
" style="fill:#1f77b4;fill-opacity:0.15;"/>
   </g>
   <g id="matplotlib.axis_1">
    <g id="xtick_1">
     <g id="line2d_1">
      <defs>
       <path d="M 0 0 
L 0 3.5 
" id="m8fedef5f63" style="stroke:#000000;stroke-width:0.8;"/>
      </defs>
      <g>
       <use style="stroke:#000000;stroke-width:0.8;" x="68.827404" xlink:href="#m8fedef5f63" y="247.64"/>
      </g>
     </g>
     <g id="text_1">
      <!-- 2 -->
      <g transform="translate(65.646154 262.238437)scale(0.1 -0.1)">
       <defs>
        <path d="M 19.1875 8.296875 
L 53.609375 8.296875 
L 53.609375 0 
L 7.328125 0 
L 7.328125 8.296875 
Q 12.9375 14.109375 22.625 23.890625 
Q 32.328125 33.6875 34.8125 36.53125 
Q 39.546875 41.84375 41.421875 45.53125 
Q 43.3125 49.21875 43.3125 52.78125 
Q 43.3125 58.59375 39.234375 62.25 
Q 35.15625 65.921875 28.609375 65.921875 
Q 23.96875 65.921875 18.8125 64.3125 
Q 13.671875 62.703125 7.8125 59.421875 
L 7.8125 69.390625 
Q 13.765625 71.78125 18.9375 73 
Q 24.125 74.21875 28.421875 74.21875 
Q 39.75 74.21875 46.484375 68.546875 
Q 53.21875 62.890625 53.21875 53.421875 
Q 53.21875 48.921875 51.53125 44.890625 
Q 49.859375 40.875 45.40625 35.40625 
Q 44.1875 33.984375 37.640625 27.21875 
Q 31.109375 20.453125 19.1875 8.296875 
z
" id="DejaVuSans-50"/>
       </defs>
       <use xlink:href="#DejaVuSans-50"/>
      </g>
     </g>
    </g>
    <g id="xtick_2">
     <g id="line2d_2">
      <g>
       <use style="stroke:#000000;stroke-width:0.8;" x="118.919712" xlink:href="#m8fedef5f63" y="247.64"/>
      </g>
     </g>
     <g id="text_2">
      <!-- 3 -->
      <g transform="translate(115.738462 262.238437)scale(0.1 -0.1)">
       <defs>
        <path d="M 40.578125 39.3125 
Q 47.65625 37.796875 51.625 33 
Q 55.609375 28.21875 55.609375 21.1875 
Q 55.609375 10.40625 48.1875 4.484375 
Q 40.765625 -1.421875 27.09375 -1.421875 
Q 22.515625 -1.421875 17.65625 -0.515625 
Q 12.796875 0.390625 7.625 2.203125 
L 7.625 11.71875 
Q 11.71875 9.328125 16.59375 8.109375 
Q 21.484375 6.890625 26.8125 6.890625 
Q 36.078125 6.890625 40.9375 10.546875 
Q 45.796875 14.203125 45.796875 21.1875 
Q 45.796875 27.640625 41.28125 31.265625 
Q 36.765625 34.90625 28.71875 34.90625 
L 20.21875 34.90625 
L 20.21875 43.015625 
L 29.109375 43.015625 
Q 36.375 43.015625 40.234375 45.921875 
Q 44.09375 48.828125 44.09375 54.296875 
Q 44.09375 59.90625 40.109375 62.90625 
Q 36.140625 65.921875 28.71875 65.921875 
Q 24.65625 65.921875 20.015625 65.03125 
Q 15.375 64.15625 9.8125 62.3125 
L 9.8125 71.09375 
Q 15.4375 72.65625 20.34375 73.4375 
Q 25.25 74.21875 29.59375 74.21875 
Q 40.828125 74.21875 47.359375 69.109375 
Q 53.90625 64.015625 53.90625 55.328125 
Q 53.90625 49.265625 50.4375 45.09375 
Q 46.96875 40.921875 40.578125 39.3125 
z
" id="DejaVuSans-51"/>
       </defs>
       <use xlink:href="#DejaVuSans-51"/>
      </g>
     </g>
    </g>
    <g id="xtick_3">
     <g id="line2d_3">
      <g>
       <use style="stroke:#000000;stroke-width:0.8;" x="169.012019" xlink:href="#m8fedef5f63" y="247.64"/>
      </g>
     </g>
     <g id="text_3">
      <!-- 4 -->
      <g transform="translate(165.830769 262.238437)scale(0.1 -0.1)">
       <defs>
        <path d="M 37.796875 64.3125 
L 12.890625 25.390625 
L 37.796875 25.390625 
z
M 35.203125 72.90625 
L 47.609375 72.90625 
L 47.609375 25.390625 
L 58.015625 25.390625 
L 58.015625 17.1875 
L 47.609375 17.1875 
L 47.609375 0 
L 37.796875 0 
L 37.796875 17.1875 
L 4.890625 17.1875 
L 4.890625 26.703125 
z
" id="DejaVuSans-52"/>
       </defs>
       <use xlink:href="#DejaVuSans-52"/>
      </g>
     </g>
    </g>
    <g id="text_4">
     <!-- E -->
     <g transform="translate(122.021875 275.916562)scale(0.1 -0.1)">
      <defs>
       <path d="M 9.8125 72.90625 
L 55.90625 72.90625 
L 55.90625 64.59375 
L 19.671875 64.59375 
L 19.671875 43.015625 
L 54.390625 43.015625 
L 54.390625 34.71875 
L 19.671875 34.71875 
L 19.671875 8.296875 
L 56.78125 8.296875 
L 56.78125 0 
L 9.8125 0 
z
" id="DejaVuSans-69"/>
      </defs>
      <use xlink:href="#DejaVuSans-69"/>
     </g>
    </g>
   </g>
   <g id="matplotlib.axis_2">
    <g id="ytick_1">
     <g id="line2d_4">
      <defs>
       <path d="M 0 0 
L -3.5 0 
" id="m2d633e24d8" style="stroke:#000000;stroke-width:0.8;"/>
      </defs>
      <g>
       <use style="stroke:#000000;stroke-width:0.8;" x="43.78125" xlink:href="#m2d633e24d8" y="238.567273"/>
      </g>
     </g>
     <g id="text_5">
      <!-- 2.0 -->
      <g transform="translate(20.878125 242.366491)scale(0.1 -0.1)">
       <defs>
        <path d="M 10.6875 12.40625 
L 21 12.40625 
L 21 0 
L 10.6875 0 
z
" id="DejaVuSans-46"/>
        <path d="M 31.78125 66.40625 
Q 24.171875 66.40625 20.328125 58.90625 
Q 16.5 51.421875 16.5 36.375 
Q 16.5 21.390625 20.328125 13.890625 
Q 24.171875 6.390625 31.78125 6.390625 
Q 39.453125 6.390625 43.28125 13.890625 
Q 47.125 21.390625 47.125 36.375 
Q 47.125 51.421875 43.28125 58.90625 
Q 39.453125 66.40625 31.78125 66.40625 
z
M 31.78125 74.21875 
Q 44.046875 74.21875 50.515625 64.515625 
Q 56.984375 54.828125 56.984375 36.375 
Q 56.984375 17.96875 50.515625 8.265625 
Q 44.046875 -1.421875 31.78125 -1.421875 
Q 19.53125 -1.421875 13.0625 8.265625 
Q 6.59375 17.96875 6.59375 36.375 
Q 6.59375 54.828125 13.0625 64.515625 
Q 19.53125 74.21875 31.78125 74.21875 
z
" id="DejaVuSans-48"/>
       </defs>
       <use xlink:href="#DejaVuSans-50"/>
       <use x="63.623047" xlink:href="#DejaVuSans-46"/>
       <use x="95.410156" xlink:href="#DejaVuSans-48"/>
      </g>
     </g>
    </g>
    <g id="ytick_2">
     <g id="line2d_5">
      <g>
       <use style="stroke:#000000;stroke-width:0.8;" x="43.78125" xlink:href="#m2d633e24d8" y="213.888192"/>
      </g>
     </g>
     <g id="text_6">
      <!-- 2.5 -->
      <g transform="translate(20.878125 217.687411)scale(0.1 -0.1)">
       <defs>
        <path d="M 10.796875 72.90625 
L 49.515625 72.90625 
L 49.515625 64.59375 
L 19.828125 64.59375 
L 19.828125 46.734375 
Q 21.96875 47.46875 24.109375 47.828125 
Q 26.265625 48.1875 28.421875 48.1875 
Q 40.625 48.1875 47.75 41.5 
Q 54.890625 34.8125 54.890625 23.390625 
Q 54.890625 11.625 47.5625 5.09375 
Q 40.234375 -1.421875 26.90625 -1.421875 
Q 22.3125 -1.421875 17.546875 -0.640625 
Q 12.796875 0.140625 7.71875 1.703125 
L 7.71875 11.625 
Q 12.109375 9.234375 16.796875 8.0625 
Q 21.484375 6.890625 26.703125 6.890625 
Q 35.15625 6.890625 40.078125 11.328125 
Q 45.015625 15.765625 45.015625 23.390625 
Q 45.015625 31 40.078125 35.4375 
Q 35.15625 39.890625 26.703125 39.890625 
Q 22.75 39.890625 18.8125 39.015625 
Q 14.890625 38.140625 10.796875 36.28125 
z
" id="DejaVuSans-53"/>
       </defs>
       <use xlink:href="#DejaVuSans-50"/>
       <use x="63.623047" xlink:href="#DejaVuSans-46"/>
       <use x="95.410156" xlink:href="#DejaVuSans-53"/>
      </g>
     </g>
    </g>
    <g id="ytick_3">
     <g id="line2d_6">
      <g>
       <use style="stroke:#000000;stroke-width:0.8;" x="43.78125" xlink:href="#m2d633e24d8" y="189.209111"/>
      </g>
     </g>
     <g id="text_7">
      <!-- 3.0 -->
      <g transform="translate(20.878125 193.00833)scale(0.1 -0.1)">
       <use xlink:href="#DejaVuSans-51"/>
       <use x="63.623047" xlink:href="#DejaVuSans-46"/>
       <use x="95.410156" xlink:href="#DejaVuSans-48"/>
      </g>
     </g>
    </g>
    <g id="ytick_4">
     <g id="line2d_7">
      <g>
       <use style="stroke:#000000;stroke-width:0.8;" x="43.78125" xlink:href="#m2d633e24d8" y="164.530031"/>
      </g>
     </g>
     <g id="text_8">
      <!-- 3.5 -->
      <g transform="translate(20.878125 168.32925)scale(0.1 -0.1)">
       <use xlink:href="#DejaVuSans-51"/>
       <use x="63.623047" xlink:href="#DejaVuSans-46"/>
       <use x="95.410156" xlink:href="#DejaVuSans-53"/>
      </g>
     </g>
    </g>
    <g id="ytick_5">
     <g id="line2d_8">
      <g>
       <use style="stroke:#000000;stroke-width:0.8;" x="43.78125" xlink:href="#m2d633e24d8" y="139.85095"/>
      </g>
     </g>
     <g id="text_9">
      <!-- 4.0 -->
      <g transform="translate(20.878125 143.650169)scale(0.1 -0.1)">
       <use xlink:href="#DejaVuSans-52"/>
       <use x="63.623047" xlink:href="#DejaVuSans-46"/>
       <use x="95.410156" xlink:href="#DejaVuSans-48"/>
      </g>
     </g>
    </g>
    <g id="ytick_6">
     <g id="line2d_9">
      <g>
       <use style="stroke:#000000;stroke-width:0.8;" x="43.78125" xlink:href="#m2d633e24d8" y="115.17187"/>
      </g>
     </g>
     <g id="text_10">
      <!-- 4.5 -->
      <g transform="translate(20.878125 118.971088)scale(0.1 -0.1)">
       <use xlink:href="#DejaVuSans-52"/>
       <use x="63.623047" xlink:href="#DejaVuSans-46"/>
       <use x="95.410156" xlink:href="#DejaVuSans-53"/>
      </g>
     </g>
    </g>
    <g id="ytick_7">
     <g id="line2d_10">
      <g>
       <use style="stroke:#000000;stroke-width:0.8;" x="43.78125" xlink:href="#m2d633e24d8" y="90.492789"/>
      </g>
     </g>
     <g id="text_11">
      <!-- 5.0 -->
      <g transform="translate(20.878125 94.292008)scale(0.1 -0.1)">
       <use xlink:href="#DejaVuSans-53"/>
       <use x="63.623047" xlink:href="#DejaVuSans-46"/>
       <use x="95.410156" xlink:href="#DejaVuSans-48"/>
      </g>
     </g>
    </g>
    <g id="ytick_8">
     <g id="line2d_11">
      <g>
       <use style="stroke:#000000;stroke-width:0.8;" x="43.78125" xlink:href="#m2d633e24d8" y="65.813708"/>
      </g>
     </g>
     <g id="text_12">
      <!-- 5.5 -->
      <g transform="translate(20.878125 69.612927)scale(0.1 -0.1)">
       <use xlink:href="#DejaVuSans-53"/>
       <use x="63.623047" xlink:href="#DejaVuSans-46"/>
       <use x="95.410156" xlink:href="#DejaVuSans-53"/>
      </g>
     </g>
    </g>
    <g id="text_13">
     <!-- Expectation1 -->
     <g transform="translate(14.798438 180.741562)rotate(-90)scale(0.1 -0.1)">
      <defs>
       <path d="M 54.890625 54.6875 
L 35.109375 28.078125 
L 55.90625 0 
L 45.3125 0 
L 29.390625 21.484375 
L 13.484375 0 
L 2.875 0 
L 24.125 28.609375 
L 4.6875 54.6875 
L 15.28125 54.6875 
L 29.78125 35.203125 
L 44.28125 54.6875 
z
" id="DejaVuSans-120"/>
       <path d="M 18.109375 8.203125 
L 18.109375 -20.796875 
L 9.078125 -20.796875 
L 9.078125 54.6875 
L 18.109375 54.6875 
L 18.109375 46.390625 
Q 20.953125 51.265625 25.265625 53.625 
Q 29.59375 56 35.59375 56 
Q 45.5625 56 51.78125 48.09375 
Q 58.015625 40.1875 58.015625 27.296875 
Q 58.015625 14.40625 51.78125 6.484375 
Q 45.5625 -1.421875 35.59375 -1.421875 
Q 29.59375 -1.421875 25.265625 0.953125 
Q 20.953125 3.328125 18.109375 8.203125 
z
M 48.6875 27.296875 
Q 48.6875 37.203125 44.609375 42.84375 
Q 40.53125 48.484375 33.40625 48.484375 
Q 26.265625 48.484375 22.1875 42.84375 
Q 18.109375 37.203125 18.109375 27.296875 
Q 18.109375 17.390625 22.1875 11.75 
Q 26.265625 6.109375 33.40625 6.109375 
Q 40.53125 6.109375 44.609375 11.75 
Q 48.6875 17.390625 48.6875 27.296875 
z
" id="DejaVuSans-112"/>
       <path d="M 56.203125 29.59375 
L 56.203125 25.203125 
L 14.890625 25.203125 
Q 15.484375 15.921875 20.484375 11.0625 
Q 25.484375 6.203125 34.421875 6.203125 
Q 39.59375 6.203125 44.453125 7.46875 
Q 49.3125 8.734375 54.109375 11.28125 
L 54.109375 2.78125 
Q 49.265625 0.734375 44.1875 -0.34375 
Q 39.109375 -1.421875 33.890625 -1.421875 
Q 20.796875 -1.421875 13.15625 6.1875 
Q 5.515625 13.8125 5.515625 26.8125 
Q 5.515625 40.234375 12.765625 48.109375 
Q 20.015625 56 32.328125 56 
Q 43.359375 56 49.78125 48.890625 
Q 56.203125 41.796875 56.203125 29.59375 
z
M 47.21875 32.234375 
Q 47.125 39.59375 43.09375 43.984375 
Q 39.0625 48.390625 32.421875 48.390625 
Q 24.90625 48.390625 20.390625 44.140625 
Q 15.875 39.890625 15.1875 32.171875 
z
" id="DejaVuSans-101"/>
       <path d="M 48.78125 52.59375 
L 48.78125 44.1875 
Q 44.96875 46.296875 41.140625 47.34375 
Q 37.3125 48.390625 33.40625 48.390625 
Q 24.65625 48.390625 19.8125 42.84375 
Q 14.984375 37.3125 14.984375 27.296875 
Q 14.984375 17.28125 19.8125 11.734375 
Q 24.65625 6.203125 33.40625 6.203125 
Q 37.3125 6.203125 41.140625 7.25 
Q 44.96875 8.296875 48.78125 10.40625 
L 48.78125 2.09375 
Q 45.015625 0.34375 40.984375 -0.53125 
Q 36.96875 -1.421875 32.421875 -1.421875 
Q 20.0625 -1.421875 12.78125 6.34375 
Q 5.515625 14.109375 5.515625 27.296875 
Q 5.515625 40.671875 12.859375 48.328125 
Q 20.21875 56 33.015625 56 
Q 37.15625 56 41.109375 55.140625 
Q 45.0625 54.296875 48.78125 52.59375 
z
" id="DejaVuSans-99"/>
       <path d="M 18.3125 70.21875 
L 18.3125 54.6875 
L 36.8125 54.6875 
L 36.8125 47.703125 
L 18.3125 47.703125 
L 18.3125 18.015625 
Q 18.3125 11.328125 20.140625 9.421875 
Q 21.96875 7.515625 27.59375 7.515625 
L 36.8125 7.515625 
L 36.8125 0 
L 27.59375 0 
Q 17.1875 0 13.234375 3.875 
Q 9.28125 7.765625 9.28125 18.015625 
L 9.28125 47.703125 
L 2.6875 47.703125 
L 2.6875 54.6875 
L 9.28125 54.6875 
L 9.28125 70.21875 
z
" id="DejaVuSans-116"/>
       <path d="M 34.28125 27.484375 
Q 23.390625 27.484375 19.1875 25 
Q 14.984375 22.515625 14.984375 16.5 
Q 14.984375 11.71875 18.140625 8.90625 
Q 21.296875 6.109375 26.703125 6.109375 
Q 34.1875 6.109375 38.703125 11.40625 
Q 43.21875 16.703125 43.21875 25.484375 
L 43.21875 27.484375 
z
M 52.203125 31.203125 
L 52.203125 0 
L 43.21875 0 
L 43.21875 8.296875 
Q 40.140625 3.328125 35.546875 0.953125 
Q 30.953125 -1.421875 24.3125 -1.421875 
Q 15.921875 -1.421875 10.953125 3.296875 
Q 6 8.015625 6 15.921875 
Q 6 25.140625 12.171875 29.828125 
Q 18.359375 34.515625 30.609375 34.515625 
L 43.21875 34.515625 
L 43.21875 35.40625 
Q 43.21875 41.609375 39.140625 45 
Q 35.0625 48.390625 27.6875 48.390625 
Q 23 48.390625 18.546875 47.265625 
Q 14.109375 46.140625 10.015625 43.890625 
L 10.015625 52.203125 
Q 14.9375 54.109375 19.578125 55.046875 
Q 24.21875 56 28.609375 56 
Q 40.484375 56 46.34375 49.84375 
Q 52.203125 43.703125 52.203125 31.203125 
z
" id="DejaVuSans-97"/>
       <path d="M 9.421875 54.6875 
L 18.40625 54.6875 
L 18.40625 0 
L 9.421875 0 
z
M 9.421875 75.984375 
L 18.40625 75.984375 
L 18.40625 64.59375 
L 9.421875 64.59375 
z
" id="DejaVuSans-105"/>
       <path d="M 30.609375 48.390625 
Q 23.390625 48.390625 19.1875 42.75 
Q 14.984375 37.109375 14.984375 27.296875 
Q 14.984375 17.484375 19.15625 11.84375 
Q 23.34375 6.203125 30.609375 6.203125 
Q 37.796875 6.203125 41.984375 11.859375 
Q 46.1875 17.53125 46.1875 27.296875 
Q 46.1875 37.015625 41.984375 42.703125 
Q 37.796875 48.390625 30.609375 48.390625 
z
M 30.609375 56 
Q 42.328125 56 49.015625 48.375 
Q 55.71875 40.765625 55.71875 27.296875 
Q 55.71875 13.875 49.015625 6.21875 
Q 42.328125 -1.421875 30.609375 -1.421875 
Q 18.84375 -1.421875 12.171875 6.21875 
Q 5.515625 13.875 5.515625 27.296875 
Q 5.515625 40.765625 12.171875 48.375 
Q 18.84375 56 30.609375 56 
z
" id="DejaVuSans-111"/>
       <path d="M 54.890625 33.015625 
L 54.890625 0 
L 45.90625 0 
L 45.90625 32.71875 
Q 45.90625 40.484375 42.875 44.328125 
Q 39.84375 48.1875 33.796875 48.1875 
Q 26.515625 48.1875 22.3125 43.546875 
Q 18.109375 38.921875 18.109375 30.90625 
L 18.109375 0 
L 9.078125 0 
L 9.078125 54.6875 
L 18.109375 54.6875 
L 18.109375 46.1875 
Q 21.34375 51.125 25.703125 53.5625 
Q 30.078125 56 35.796875 56 
Q 45.21875 56 50.046875 50.171875 
Q 54.890625 44.34375 54.890625 33.015625 
z
" id="DejaVuSans-110"/>
       <path d="M 12.40625 8.296875 
L 28.515625 8.296875 
L 28.515625 63.921875 
L 10.984375 60.40625 
L 10.984375 69.390625 
L 28.421875 72.90625 
L 38.28125 72.90625 
L 38.28125 8.296875 
L 54.390625 8.296875 
L 54.390625 0 
L 12.40625 0 
z
" id="DejaVuSans-49"/>
      </defs>
      <use xlink:href="#DejaVuSans-69"/>
      <use x="63.183594" xlink:href="#DejaVuSans-120"/>
      <use x="122.363281" xlink:href="#DejaVuSans-112"/>
      <use x="185.839844" xlink:href="#DejaVuSans-101"/>
      <use x="247.363281" xlink:href="#DejaVuSans-99"/>
      <use x="302.34375" xlink:href="#DejaVuSans-116"/>
      <use x="341.552734" xlink:href="#DejaVuSans-97"/>
      <use x="402.832031" xlink:href="#DejaVuSans-116"/>
      <use x="442.041016" xlink:href="#DejaVuSans-105"/>
      <use x="469.824219" xlink:href="#DejaVuSans-111"/>
      <use x="531.005859" xlink:href="#DejaVuSans-110"/>
      <use x="594.384766" xlink:href="#DejaVuSans-49"/>
     </g>
    </g>
   </g>
   <g id="line2d_12">
    <path clip-path="url(#pc04fd3f224)" d="M 43.78125 154.203941 
L 45.425694 153.5392 
L 47.070139 152.874459 
L 48.714583 152.209718 
L 50.359028 151.544977 
L 52.003472 150.880236 
L 53.647917 150.215495 
L 55.292361 149.550754 
L 56.936806 148.886013 
L 58.58125 148.221272 
L 60.225694 147.556531 
L 61.870139 146.89179 
L 63.514583 146.227049 
L 65.159028 145.562308 
L 66.803472 144.897567 
L 68.447917 144.232826 
L 70.092361 143.568085 
L 71.736806 142.903344 
L 73.38125 142.238604 
L 75.025694 141.573863 
L 76.670139 140.909122 
L 78.314583 140.244381 
L 79.959028 139.57964 
L 81.603472 138.914899 
L 83.247917 138.250158 
L 84.892361 137.585417 
L 86.536806 136.920676 
L 88.18125 136.255935 
L 89.825694 135.591194 
L 91.470139 134.926453 
L 93.114583 134.261712 
L 94.759028 133.596971 
L 96.403472 132.93223 
L 98.047917 132.267489 
L 99.692361 131.602748 
L 101.336806 130.938007 
L 102.98125 130.273266 
L 104.625694 129.608525 
L 106.270139 128.943784 
L 107.914583 128.279043 
L 109.559028 127.614303 
L 111.203472 126.949562 
L 112.847917 126.284821 
L 114.492361 125.62008 
L 116.136806 124.955339 
L 117.78125 124.290598 
L 119.425694 123.625857 
L 121.070139 122.961116 
L 122.714583 122.296375 
L 124.359028 121.631634 
L 126.003472 120.966893 
L 127.647917 120.302152 
L 129.292361 119.637411 
L 130.936806 118.97267 
L 132.58125 118.307929 
L 134.225694 117.643188 
L 135.870139 116.978447 
L 137.514583 116.313706 
L 139.159028 115.648965 
L 140.803472 114.984224 
L 142.447917 114.319483 
L 144.092361 113.654742 
L 145.736806 112.990001 
L 147.38125 112.325261 
L 149.025694 111.66052 
L 150.670139 110.995779 
L 152.314583 110.331038 
L 153.959028 109.666297 
L 155.603472 109.001556 
L 157.247917 108.336815 
L 158.892361 107.672074 
L 160.536806 107.007333 
L 162.18125 106.342592 
L 163.825694 105.677851 
L 165.470139 105.01311 
L 167.114583 104.348369 
L 168.759028 103.683628 
L 170.403472 103.018887 
L 172.047917 102.354146 
L 173.692361 101.689405 
L 175.336806 101.024664 
L 176.98125 100.359923 
L 178.625694 99.695182 
L 180.270139 99.030441 
L 181.914583 98.3657 
L 183.559028 97.70096 
L 185.203472 97.036219 
L 186.847917 96.371478 
L 188.492361 95.706737 
L 190.136806 95.041996 
L 191.78125 94.377255 
L 193.425694 93.712514 
L 195.070139 93.047773 
L 196.714583 92.383032 
L 198.359028 91.718291 
L 200.003472 91.05355 
L 201.647917 90.388809 
L 203.292361 89.724068 
L 204.936806 89.059327 
L 206.58125 88.394586 
" style="fill:none;stroke:#1f77b4;stroke-linecap:square;stroke-width:2.25;"/>
   </g>
   <g id="patch_3">
    <path d="M 43.78125 247.64 
L 43.78125 48.04 
" style="fill:none;stroke:#000000;stroke-linecap:square;stroke-linejoin:miter;stroke-width:0.8;"/>
   </g>
   <g id="patch_4">
    <path d="M 206.58125 247.64 
L 206.58125 48.04 
" style="fill:none;stroke:#000000;stroke-linecap:square;stroke-linejoin:miter;stroke-width:0.8;"/>
   </g>
   <g id="patch_5">
    <path d="M 43.78125 247.64 
L 206.58125 247.64 
" style="fill:none;stroke:#000000;stroke-linecap:square;stroke-linejoin:miter;stroke-width:0.8;"/>
   </g>
   <g id="patch_6">
    <path d="M 43.78125 48.04 
L 206.58125 48.04 
" style="fill:none;stroke:#000000;stroke-linecap:square;stroke-linejoin:miter;stroke-width:0.8;"/>
   </g>
   <g id="text_14">
    <!-- Group A -->
    <g transform="translate(43.78125 42.04)scale(0.12 -0.12)">
     <defs>
      <path d="M 59.515625 10.40625 
L 59.515625 29.984375 
L 43.40625 29.984375 
L 43.40625 38.09375 
L 69.28125 38.09375 
L 69.28125 6.78125 
Q 63.578125 2.734375 56.6875 0.65625 
Q 49.8125 -1.421875 42 -1.421875 
Q 24.90625 -1.421875 15.25 8.5625 
Q 5.609375 18.5625 5.609375 36.375 
Q 5.609375 54.25 15.25 64.234375 
Q 24.90625 74.21875 42 74.21875 
Q 49.125 74.21875 55.546875 72.453125 
Q 61.96875 70.703125 67.390625 67.28125 
L 67.390625 56.78125 
Q 61.921875 61.421875 55.765625 63.765625 
Q 49.609375 66.109375 42.828125 66.109375 
Q 29.4375 66.109375 22.71875 58.640625 
Q 16.015625 51.171875 16.015625 36.375 
Q 16.015625 21.625 22.71875 14.15625 
Q 29.4375 6.6875 42.828125 6.6875 
Q 48.046875 6.6875 52.140625 7.59375 
Q 56.25 8.5 59.515625 10.40625 
z
" id="DejaVuSans-71"/>
      <path d="M 41.109375 46.296875 
Q 39.59375 47.171875 37.8125 47.578125 
Q 36.03125 48 33.890625 48 
Q 26.265625 48 22.1875 43.046875 
Q 18.109375 38.09375 18.109375 28.8125 
L 18.109375 0 
L 9.078125 0 
L 9.078125 54.6875 
L 18.109375 54.6875 
L 18.109375 46.1875 
Q 20.953125 51.171875 25.484375 53.578125 
Q 30.03125 56 36.53125 56 
Q 37.453125 56 38.578125 55.875 
Q 39.703125 55.765625 41.0625 55.515625 
z
" id="DejaVuSans-114"/>
      <path d="M 8.5 21.578125 
L 8.5 54.6875 
L 17.484375 54.6875 
L 17.484375 21.921875 
Q 17.484375 14.15625 20.5 10.265625 
Q 23.53125 6.390625 29.59375 6.390625 
Q 36.859375 6.390625 41.078125 11.03125 
Q 45.3125 15.671875 45.3125 23.6875 
L 45.3125 54.6875 
L 54.296875 54.6875 
L 54.296875 0 
L 45.3125 0 
L 45.3125 8.40625 
Q 42.046875 3.421875 37.71875 1 
Q 33.40625 -1.421875 27.6875 -1.421875 
Q 18.265625 -1.421875 13.375 4.4375 
Q 8.5 10.296875 8.5 21.578125 
z
M 31.109375 56 
z
" id="DejaVuSans-117"/>
      <path id="DejaVuSans-32"/>
      <path d="M 34.1875 63.1875 
L 20.796875 26.90625 
L 47.609375 26.90625 
z
M 28.609375 72.90625 
L 39.796875 72.90625 
L 67.578125 0 
L 57.328125 0 
L 50.6875 18.703125 
L 17.828125 18.703125 
L 11.1875 0 
L 0.78125 0 
z
" id="DejaVuSans-65"/>
     </defs>
     <use xlink:href="#DejaVuSans-71"/>
     <use x="77.490234" xlink:href="#DejaVuSans-114"/>
     <use x="116.353516" xlink:href="#DejaVuSans-111"/>
     <use x="177.535156" xlink:href="#DejaVuSans-117"/>
     <use x="240.914062" xlink:href="#DejaVuSans-112"/>
     <use x="304.390625" xlink:href="#DejaVuSans-32"/>
     <use x="336.177734" xlink:href="#DejaVuSans-65"/>
    </g>
   </g>
  </g>
  <g id="axes_2">
   <g id="patch_7">
    <path d="M 254.38125 247.64 
L 417.18125 247.64 
L 417.18125 48.04 
L 254.38125 48.04 
z
" style="fill:#ffffff;"/>
   </g>
   <g id="PathCollection_2">
    <g clip-path="url(#p87432bd112)">
     <use style="fill:#1f77b4;fill-opacity:0.8;stroke:#1f77b4;stroke-opacity:0.8;" x="254.38125" xlink:href="#m9b5a2ab364" y="117.597576"/>
     <use style="fill:#1f77b4;fill-opacity:0.8;stroke:#1f77b4;stroke-opacity:0.8;" x="266.904327" xlink:href="#m9b5a2ab364" y="117.597576"/>
     <use style="fill:#1f77b4;fill-opacity:0.8;stroke:#1f77b4;stroke-opacity:0.8;" x="379.612019" xlink:href="#m9b5a2ab364" y="117.597576"/>
     <use style="fill:#1f77b4;fill-opacity:0.8;stroke:#1f77b4;stroke-opacity:0.8;" x="342.042788" xlink:href="#m9b5a2ab364" y="57.112727"/>
     <use style="fill:#1f77b4;fill-opacity:0.8;stroke:#1f77b4;stroke-opacity:0.8;" x="316.996635" xlink:href="#m9b5a2ab364" y="57.112727"/>
     <use style="fill:#1f77b4;fill-opacity:0.8;stroke:#1f77b4;stroke-opacity:0.8;" x="379.612019" xlink:href="#m9b5a2ab364" y="117.597576"/>
     <use style="fill:#1f77b4;fill-opacity:0.8;stroke:#1f77b4;stroke-opacity:0.8;" x="316.996635" xlink:href="#m9b5a2ab364" y="57.112727"/>
     <use style="fill:#1f77b4;fill-opacity:0.8;stroke:#1f77b4;stroke-opacity:0.8;" x="342.042788" xlink:href="#m9b5a2ab364" y="178.082424"/>
     <use style="fill:#1f77b4;fill-opacity:0.8;stroke:#1f77b4;stroke-opacity:0.8;" x="342.042788" xlink:href="#m9b5a2ab364" y="57.112727"/>
     <use style="fill:#1f77b4;fill-opacity:0.8;stroke:#1f77b4;stroke-opacity:0.8;" x="367.088942" xlink:href="#m9b5a2ab364" y="117.597576"/>
     <use style="fill:#1f77b4;fill-opacity:0.8;stroke:#1f77b4;stroke-opacity:0.8;" x="342.042788" xlink:href="#m9b5a2ab364" y="117.597576"/>
     <use style="fill:#1f77b4;fill-opacity:0.8;stroke:#1f77b4;stroke-opacity:0.8;" x="379.612019" xlink:href="#m9b5a2ab364" y="117.597576"/>
     <use style="fill:#1f77b4;fill-opacity:0.8;stroke:#1f77b4;stroke-opacity:0.8;" x="342.042788" xlink:href="#m9b5a2ab364" y="117.597576"/>
     <use style="fill:#1f77b4;fill-opacity:0.8;stroke:#1f77b4;stroke-opacity:0.8;" x="392.135096" xlink:href="#m9b5a2ab364" y="117.597576"/>
     <use style="fill:#1f77b4;fill-opacity:0.8;stroke:#1f77b4;stroke-opacity:0.8;" x="354.565865" xlink:href="#m9b5a2ab364" y="238.567273"/>
     <use style="fill:#1f77b4;fill-opacity:0.8;stroke:#1f77b4;stroke-opacity:0.8;" x="392.135096" xlink:href="#m9b5a2ab364" y="117.597576"/>
     <use style="fill:#1f77b4;fill-opacity:0.8;stroke:#1f77b4;stroke-opacity:0.8;" x="354.565865" xlink:href="#m9b5a2ab364" y="57.112727"/>
     <use style="fill:#1f77b4;fill-opacity:0.8;stroke:#1f77b4;stroke-opacity:0.8;" x="316.996635" xlink:href="#m9b5a2ab364" y="117.597576"/>
     <use style="fill:#1f77b4;fill-opacity:0.8;stroke:#1f77b4;stroke-opacity:0.8;" x="367.088942" xlink:href="#m9b5a2ab364" y="117.597576"/>
     <use style="fill:#1f77b4;fill-opacity:0.8;stroke:#1f77b4;stroke-opacity:0.8;" x="279.427404" xlink:href="#m9b5a2ab364" y="238.567273"/>
     <use style="fill:#1f77b4;fill-opacity:0.8;stroke:#1f77b4;stroke-opacity:0.8;" x="417.18125" xlink:href="#m9b5a2ab364" y="117.597576"/>
     <use style="fill:#1f77b4;fill-opacity:0.8;stroke:#1f77b4;stroke-opacity:0.8;" x="316.996635" xlink:href="#m9b5a2ab364" y="57.112727"/>
     <use style="fill:#1f77b4;fill-opacity:0.8;stroke:#1f77b4;stroke-opacity:0.8;" x="367.088942" xlink:href="#m9b5a2ab364" y="57.112727"/>
     <use style="fill:#1f77b4;fill-opacity:0.8;stroke:#1f77b4;stroke-opacity:0.8;" x="379.612019" xlink:href="#m9b5a2ab364" y="117.597576"/>
     <use style="fill:#1f77b4;fill-opacity:0.8;stroke:#1f77b4;stroke-opacity:0.8;" x="379.612019" xlink:href="#m9b5a2ab364" y="57.112727"/>
     <use style="fill:#1f77b4;fill-opacity:0.8;stroke:#1f77b4;stroke-opacity:0.8;" x="316.996635" xlink:href="#m9b5a2ab364" y="117.597576"/>
     <use style="fill:#1f77b4;fill-opacity:0.8;stroke:#1f77b4;stroke-opacity:0.8;" x="316.996635" xlink:href="#m9b5a2ab364" y="57.112727"/>
     <use style="fill:#1f77b4;fill-opacity:0.8;stroke:#1f77b4;stroke-opacity:0.8;" x="316.996635" xlink:href="#m9b5a2ab364" y="117.597576"/>
     <use style="fill:#1f77b4;fill-opacity:0.8;stroke:#1f77b4;stroke-opacity:0.8;" x="379.612019" xlink:href="#m9b5a2ab364" y="178.082424"/>
     <use style="fill:#1f77b4;fill-opacity:0.8;stroke:#1f77b4;stroke-opacity:0.8;" x="379.612019" xlink:href="#m9b5a2ab364" y="117.597576"/>
     <use style="fill:#1f77b4;fill-opacity:0.8;stroke:#1f77b4;stroke-opacity:0.8;" x="254.38125" xlink:href="#m9b5a2ab364" y="57.112727"/>
     <use style="fill:#1f77b4;fill-opacity:0.8;stroke:#1f77b4;stroke-opacity:0.8;" x="329.519712" xlink:href="#m9b5a2ab364" y="117.597576"/>
     <use style="fill:#1f77b4;fill-opacity:0.8;stroke:#1f77b4;stroke-opacity:0.8;" x="354.565865" xlink:href="#m9b5a2ab364" y="117.597576"/>
     <use style="fill:#1f77b4;fill-opacity:0.8;stroke:#1f77b4;stroke-opacity:0.8;" x="316.996635" xlink:href="#m9b5a2ab364" y="117.597576"/>
     <use style="fill:#1f77b4;fill-opacity:0.8;stroke:#1f77b4;stroke-opacity:0.8;" x="342.042788" xlink:href="#m9b5a2ab364" y="57.112727"/>
     <use style="fill:#1f77b4;fill-opacity:0.8;stroke:#1f77b4;stroke-opacity:0.8;" x="329.519712" xlink:href="#m9b5a2ab364" y="117.597576"/>
     <use style="fill:#1f77b4;fill-opacity:0.8;stroke:#1f77b4;stroke-opacity:0.8;" x="316.996635" xlink:href="#m9b5a2ab364" y="117.597576"/>
     <use style="fill:#1f77b4;fill-opacity:0.8;stroke:#1f77b4;stroke-opacity:0.8;" x="367.088942" xlink:href="#m9b5a2ab364" y="57.112727"/>
     <use style="fill:#1f77b4;fill-opacity:0.8;stroke:#1f77b4;stroke-opacity:0.8;" x="316.996635" xlink:href="#m9b5a2ab364" y="117.597576"/>
     <use style="fill:#1f77b4;fill-opacity:0.8;stroke:#1f77b4;stroke-opacity:0.8;" x="316.996635" xlink:href="#m9b5a2ab364" y="57.112727"/>
     <use style="fill:#1f77b4;fill-opacity:0.8;stroke:#1f77b4;stroke-opacity:0.8;" x="316.996635" xlink:href="#m9b5a2ab364" y="57.112727"/>
     <use style="fill:#1f77b4;fill-opacity:0.8;stroke:#1f77b4;stroke-opacity:0.8;" x="379.612019" xlink:href="#m9b5a2ab364" y="117.597576"/>
    </g>
   </g>
   <g id="PolyCollection_2">
    <path clip-path="url(#p87432bd112)" d="M 254.38125 62.424257 
L 254.38125 144.317202 
L 256.025694 143.750085 
L 257.670139 143.182968 
L 259.314583 142.615851 
L 260.959028 142.045825 
L 262.603472 141.473848 
L 264.247917 140.874131 
L 265.892361 140.337682 
L 267.536806 139.771134 
L 269.18125 139.201696 
L 270.825694 138.630253 
L 272.470139 137.804282 
L 274.114583 137.186488 
L 275.759028 136.679826 
L 277.403472 136.173165 
L 279.047917 135.678862 
L 280.692361 135.215625 
L 282.336806 134.646186 
L 283.98125 134.05304 
L 285.625694 133.458161 
L 287.270139 132.863281 
L 288.914583 132.268401 
L 290.559028 131.673521 
L 292.203472 131.078641 
L 293.847917 130.483761 
L 295.492361 129.886662 
L 297.136806 129.288738 
L 298.78125 128.627817 
L 300.425694 127.939659 
L 302.070139 127.505167 
L 303.714583 126.729105 
L 305.359028 126.089277 
L 307.003472 125.51891 
L 308.647917 124.948542 
L 310.292361 124.525301 
L 311.936806 124.087954 
L 313.58125 123.7509 
L 315.225694 123.181917 
L 316.870139 122.711599 
L 318.514583 122.148771 
L 320.159028 121.877832 
L 321.803472 121.774253 
L 323.447917 121.762608 
L 325.092361 121.433108 
L 326.736806 121.018584 
L 328.38125 120.79172 
L 330.025694 120.441193 
L 331.670139 120.129364 
L 333.314583 120.154654 
L 334.959028 120.00471 
L 336.603472 119.884906 
L 338.247917 119.755534 
L 339.892361 119.844793 
L 341.536806 119.479125 
L 343.18125 119.54553 
L 344.825694 119.622038 
L 346.470139 119.804338 
L 348.114583 119.615921 
L 349.759028 119.600296 
L 351.403472 119.723915 
L 353.047917 119.607005 
L 354.692361 119.730232 
L 356.336806 119.717067 
L 357.98125 119.774175 
L 359.625694 119.938907 
L 361.270139 120.186309 
L 362.914583 120.501659 
L 364.559028 120.69449 
L 366.203472 120.981105 
L 367.847917 121.286454 
L 369.492361 121.572095 
L 371.136806 121.884892 
L 372.78125 122.358738 
L 374.425694 122.630176 
L 376.070139 123.048477 
L 377.714583 123.628215 
L 379.359028 124.20059 
L 381.003472 124.768831 
L 382.647917 125.337072 
L 384.292361 126.078262 
L 385.936806 126.884432 
L 387.58125 127.450371 
L 389.225694 127.915142 
L 390.870139 128.266933 
L 392.514583 128.675835 
L 394.159028 129.260517 
L 395.803472 129.91181 
L 397.447917 130.488222 
L 399.092361 131.058712 
L 400.736806 131.629203 
L 402.38125 132.160088 
L 404.025694 132.683653 
L 405.670139 133.34734 
L 407.314583 133.950785 
L 408.959028 134.588101 
L 410.603472 135.225417 
L 412.247917 135.862732 
L 413.892361 136.500048 
L 415.536806 137.137364 
L 417.18125 137.77468 
L 417.18125 80.867169 
L 417.18125 80.867169 
L 415.536806 81.373358 
L 413.892361 81.74958 
L 412.247917 82.125802 
L 410.603472 82.502025 
L 408.959028 82.878247 
L 407.314583 83.343435 
L 405.670139 83.860944 
L 404.025694 84.380007 
L 402.38125 84.893338 
L 400.736806 85.411092 
L 399.092361 85.935451 
L 397.447917 86.418506 
L 395.803472 86.867974 
L 394.159028 87.47694 
L 392.514583 87.992313 
L 390.870139 88.376183 
L 389.225694 88.916095 
L 387.58125 89.563256 
L 385.936806 90.079733 
L 384.292361 90.903514 
L 382.647917 91.441977 
L 381.003472 91.733166 
L 379.359028 92.153709 
L 377.714583 92.435861 
L 376.070139 92.646011 
L 374.425694 92.899122 
L 372.78125 93.304687 
L 371.136806 93.265964 
L 369.492361 93.340757 
L 367.847917 93.677893 
L 366.203472 93.769493 
L 364.559028 93.830869 
L 362.914583 93.88864 
L 361.270139 94.232001 
L 359.625694 94.448296 
L 357.98125 94.626666 
L 356.336806 94.685839 
L 354.692361 94.586052 
L 353.047917 94.535047 
L 351.403472 94.536989 
L 349.759028 94.432684 
L 348.114583 94.53877 
L 346.470139 94.459908 
L 344.825694 94.367512 
L 343.18125 94.065189 
L 341.536806 93.949839 
L 339.892361 93.635152 
L 338.247917 93.25806 
L 336.603472 92.979692 
L 334.959028 92.562898 
L 333.314583 92.124096 
L 331.670139 91.660653 
L 330.025694 91.154241 
L 328.38125 90.563464 
L 326.736806 90.234878 
L 325.092361 89.636792 
L 323.447917 88.967258 
L 321.803472 88.279799 
L 320.159028 87.836562 
L 318.514583 87.237084 
L 316.870139 86.660012 
L 315.225694 86.173332 
L 313.58125 85.436879 
L 311.936806 84.837129 
L 310.292361 84.237379 
L 308.647917 83.568442 
L 307.003472 82.974977 
L 305.359028 82.393221 
L 303.714583 81.809377 
L 302.070139 81.230696 
L 300.425694 80.640156 
L 298.78125 80.116051 
L 297.136806 79.548551 
L 295.492361 78.929619 
L 293.847917 78.406231 
L 292.203472 77.882842 
L 290.559028 77.359454 
L 288.914583 76.836065 
L 287.270139 76.251207 
L 285.625694 75.480436 
L 283.98125 75.035194 
L 282.336806 74.400308 
L 280.692361 73.762827 
L 279.047917 73.089957 
L 277.403472 72.364534 
L 275.759028 71.794924 
L 274.114583 71.077404 
L 272.470139 70.357803 
L 270.825694 69.636572 
L 269.18125 68.915341 
L 267.536806 68.218711 
L 265.892361 67.620712 
L 264.247917 66.768507 
L 262.603472 66.03136 
L 260.959028 65.309183 
L 259.314583 64.587952 
L 257.670139 63.86672 
L 256.025694 63.145489 
L 254.38125 62.424257 
z
" style="fill:#1f77b4;fill-opacity:0.15;"/>
   </g>
   <g id="matplotlib.axis_3">
    <g id="xtick_4">
     <g id="line2d_13">
      <g>
       <use style="stroke:#000000;stroke-width:0.8;" x="291.950481" xlink:href="#m8fedef5f63" y="247.64"/>
      </g>
     </g>
     <g id="text_15">
      <!-- 2 -->
      <g transform="translate(288.769231 262.238437)scale(0.1 -0.1)">
       <use xlink:href="#DejaVuSans-50"/>
      </g>
     </g>
    </g>
    <g id="xtick_5">
     <g id="line2d_14">
      <g>
       <use style="stroke:#000000;stroke-width:0.8;" x="342.042788" xlink:href="#m8fedef5f63" y="247.64"/>
      </g>
     </g>
     <g id="text_16">
      <!-- 3 -->
      <g transform="translate(338.861538 262.238437)scale(0.1 -0.1)">
       <use xlink:href="#DejaVuSans-51"/>
      </g>
     </g>
    </g>
    <g id="xtick_6">
     <g id="line2d_15">
      <g>
       <use style="stroke:#000000;stroke-width:0.8;" x="392.135096" xlink:href="#m8fedef5f63" y="247.64"/>
      </g>
     </g>
     <g id="text_17">
      <!-- 4 -->
      <g transform="translate(388.953846 262.238437)scale(0.1 -0.1)">
       <use xlink:href="#DejaVuSans-52"/>
      </g>
     </g>
    </g>
    <g id="text_18">
     <!-- E -->
     <g transform="translate(332.621875 275.916562)scale(0.1 -0.1)">
      <use xlink:href="#DejaVuSans-69"/>
     </g>
    </g>
   </g>
   <g id="matplotlib.axis_4">
    <g id="ytick_9">
     <g id="line2d_16">
      <g>
       <use style="stroke:#000000;stroke-width:0.8;" x="254.38125" xlink:href="#m2d633e24d8" y="238.567273"/>
      </g>
     </g>
     <g id="text_19">
      <!-- 2.0 -->
      <g transform="translate(231.478125 242.366491)scale(0.1 -0.1)">
       <use xlink:href="#DejaVuSans-50"/>
       <use x="63.623047" xlink:href="#DejaVuSans-46"/>
       <use x="95.410156" xlink:href="#DejaVuSans-48"/>
      </g>
     </g>
    </g>
    <g id="ytick_10">
     <g id="line2d_17">
      <g>
       <use style="stroke:#000000;stroke-width:0.8;" x="254.38125" xlink:href="#m2d633e24d8" y="208.324848"/>
      </g>
     </g>
     <g id="text_20">
      <!-- 2.5 -->
      <g transform="translate(231.478125 212.124067)scale(0.1 -0.1)">
       <use xlink:href="#DejaVuSans-50"/>
       <use x="63.623047" xlink:href="#DejaVuSans-46"/>
       <use x="95.410156" xlink:href="#DejaVuSans-53"/>
      </g>
     </g>
    </g>
    <g id="ytick_11">
     <g id="line2d_18">
      <g>
       <use style="stroke:#000000;stroke-width:0.8;" x="254.38125" xlink:href="#m2d633e24d8" y="178.082424"/>
      </g>
     </g>
     <g id="text_21">
      <!-- 3.0 -->
      <g transform="translate(231.478125 181.881643)scale(0.1 -0.1)">
       <use xlink:href="#DejaVuSans-51"/>
       <use x="63.623047" xlink:href="#DejaVuSans-46"/>
       <use x="95.410156" xlink:href="#DejaVuSans-48"/>
      </g>
     </g>
    </g>
    <g id="ytick_12">
     <g id="line2d_19">
      <g>
       <use style="stroke:#000000;stroke-width:0.8;" x="254.38125" xlink:href="#m2d633e24d8" y="147.84"/>
      </g>
     </g>
     <g id="text_22">
      <!-- 3.5 -->
      <g transform="translate(231.478125 151.639219)scale(0.1 -0.1)">
       <use xlink:href="#DejaVuSans-51"/>
       <use x="63.623047" xlink:href="#DejaVuSans-46"/>
       <use x="95.410156" xlink:href="#DejaVuSans-53"/>
      </g>
     </g>
    </g>
    <g id="ytick_13">
     <g id="line2d_20">
      <g>
       <use style="stroke:#000000;stroke-width:0.8;" x="254.38125" xlink:href="#m2d633e24d8" y="117.597576"/>
      </g>
     </g>
     <g id="text_23">
      <!-- 4.0 -->
      <g transform="translate(231.478125 121.396795)scale(0.1 -0.1)">
       <use xlink:href="#DejaVuSans-52"/>
       <use x="63.623047" xlink:href="#DejaVuSans-46"/>
       <use x="95.410156" xlink:href="#DejaVuSans-48"/>
      </g>
     </g>
    </g>
    <g id="ytick_14">
     <g id="line2d_21">
      <g>
       <use style="stroke:#000000;stroke-width:0.8;" x="254.38125" xlink:href="#m2d633e24d8" y="87.355152"/>
      </g>
     </g>
     <g id="text_24">
      <!-- 4.5 -->
      <g transform="translate(231.478125 91.15437)scale(0.1 -0.1)">
       <use xlink:href="#DejaVuSans-52"/>
       <use x="63.623047" xlink:href="#DejaVuSans-46"/>
       <use x="95.410156" xlink:href="#DejaVuSans-53"/>
      </g>
     </g>
    </g>
    <g id="ytick_15">
     <g id="line2d_22">
      <g>
       <use style="stroke:#000000;stroke-width:0.8;" x="254.38125" xlink:href="#m2d633e24d8" y="57.112727"/>
      </g>
     </g>
     <g id="text_25">
      <!-- 5.0 -->
      <g transform="translate(231.478125 60.911946)scale(0.1 -0.1)">
       <use xlink:href="#DejaVuSans-53"/>
       <use x="63.623047" xlink:href="#DejaVuSans-46"/>
       <use x="95.410156" xlink:href="#DejaVuSans-48"/>
      </g>
     </g>
    </g>
    <g id="text_26">
     <!-- Expectation1 -->
     <g transform="translate(225.398437 180.741562)rotate(-90)scale(0.1 -0.1)">
      <use xlink:href="#DejaVuSans-69"/>
      <use x="63.183594" xlink:href="#DejaVuSans-120"/>
      <use x="122.363281" xlink:href="#DejaVuSans-112"/>
      <use x="185.839844" xlink:href="#DejaVuSans-101"/>
      <use x="247.363281" xlink:href="#DejaVuSans-99"/>
      <use x="302.34375" xlink:href="#DejaVuSans-116"/>
      <use x="341.552734" xlink:href="#DejaVuSans-97"/>
      <use x="402.832031" xlink:href="#DejaVuSans-116"/>
      <use x="442.041016" xlink:href="#DejaVuSans-105"/>
      <use x="469.824219" xlink:href="#DejaVuSans-111"/>
      <use x="531.005859" xlink:href="#DejaVuSans-110"/>
      <use x="594.384766" xlink:href="#DejaVuSans-49"/>
     </g>
    </g>
   </g>
   <g id="line2d_23">
    <path clip-path="url(#p87432bd112)" d="M 254.38125 99.654103 
L 256.025694 99.775409 
L 257.670139 99.896715 
L 259.314583 100.018021 
L 260.959028 100.139326 
L 262.603472 100.260632 
L 264.247917 100.381938 
L 265.892361 100.503244 
L 267.536806 100.62455 
L 269.18125 100.745856 
L 270.825694 100.867162 
L 272.470139 100.988468 
L 274.114583 101.109774 
L 275.759028 101.23108 
L 277.403472 101.352386 
L 279.047917 101.473692 
L 280.692361 101.594998 
L 282.336806 101.716304 
L 283.98125 101.83761 
L 285.625694 101.958916 
L 287.270139 102.080221 
L 288.914583 102.201527 
L 290.559028 102.322833 
L 292.203472 102.444139 
L 293.847917 102.565445 
L 295.492361 102.686751 
L 297.136806 102.808057 
L 298.78125 102.929363 
L 300.425694 103.050669 
L 302.070139 103.171975 
L 303.714583 103.293281 
L 305.359028 103.414587 
L 307.003472 103.535893 
L 308.647917 103.657199 
L 310.292361 103.778505 
L 311.936806 103.899811 
L 313.58125 104.021116 
L 315.225694 104.142422 
L 316.870139 104.263728 
L 318.514583 104.385034 
L 320.159028 104.50634 
L 321.803472 104.627646 
L 323.447917 104.748952 
L 325.092361 104.870258 
L 326.736806 104.991564 
L 328.38125 105.11287 
L 330.025694 105.234176 
L 331.670139 105.355482 
L 333.314583 105.476788 
L 334.959028 105.598094 
L 336.603472 105.7194 
L 338.247917 105.840706 
L 339.892361 105.962011 
L 341.536806 106.083317 
L 343.18125 106.204623 
L 344.825694 106.325929 
L 346.470139 106.447235 
L 348.114583 106.568541 
L 349.759028 106.689847 
L 351.403472 106.811153 
L 353.047917 106.932459 
L 354.692361 107.053765 
L 356.336806 107.175071 
L 357.98125 107.296377 
L 359.625694 107.417683 
L 361.270139 107.538989 
L 362.914583 107.660295 
L 364.559028 107.781601 
L 366.203472 107.902906 
L 367.847917 108.024212 
L 369.492361 108.145518 
L 371.136806 108.266824 
L 372.78125 108.38813 
L 374.425694 108.509436 
L 376.070139 108.630742 
L 377.714583 108.752048 
L 379.359028 108.873354 
L 381.003472 108.99466 
L 382.647917 109.115966 
L 384.292361 109.237272 
L 385.936806 109.358578 
L 387.58125 109.479884 
L 389.225694 109.60119 
L 390.870139 109.722496 
L 392.514583 109.843801 
L 394.159028 109.965107 
L 395.803472 110.086413 
L 397.447917 110.207719 
L 399.092361 110.329025 
L 400.736806 110.450331 
L 402.38125 110.571637 
L 404.025694 110.692943 
L 405.670139 110.814249 
L 407.314583 110.935555 
L 408.959028 111.056861 
L 410.603472 111.178167 
L 412.247917 111.299473 
L 413.892361 111.420779 
L 415.536806 111.542085 
L 417.18125 111.663391 
" style="fill:none;stroke:#1f77b4;stroke-linecap:square;stroke-width:2.25;"/>
   </g>
   <g id="patch_8">
    <path d="M 254.38125 247.64 
L 254.38125 48.04 
" style="fill:none;stroke:#000000;stroke-linecap:square;stroke-linejoin:miter;stroke-width:0.8;"/>
   </g>
   <g id="patch_9">
    <path d="M 417.18125 247.64 
L 417.18125 48.04 
" style="fill:none;stroke:#000000;stroke-linecap:square;stroke-linejoin:miter;stroke-width:0.8;"/>
   </g>
   <g id="patch_10">
    <path d="M 254.38125 247.64 
L 417.18125 247.64 
" style="fill:none;stroke:#000000;stroke-linecap:square;stroke-linejoin:miter;stroke-width:0.8;"/>
   </g>
   <g id="patch_11">
    <path d="M 254.38125 48.04 
L 417.18125 48.04 
" style="fill:none;stroke:#000000;stroke-linecap:square;stroke-linejoin:miter;stroke-width:0.8;"/>
   </g>
   <g id="text_27">
    <!-- Group B -->
    <g transform="translate(254.38125 42.04)scale(0.12 -0.12)">
     <defs>
      <path d="M 19.671875 34.8125 
L 19.671875 8.109375 
L 35.5 8.109375 
Q 43.453125 8.109375 47.28125 11.40625 
Q 51.125 14.703125 51.125 21.484375 
Q 51.125 28.328125 47.28125 31.5625 
Q 43.453125 34.8125 35.5 34.8125 
z
M 19.671875 64.796875 
L 19.671875 42.828125 
L 34.28125 42.828125 
Q 41.5 42.828125 45.03125 45.53125 
Q 48.578125 48.25 48.578125 53.8125 
Q 48.578125 59.328125 45.03125 62.0625 
Q 41.5 64.796875 34.28125 64.796875 
z
M 9.8125 72.90625 
L 35.015625 72.90625 
Q 46.296875 72.90625 52.390625 68.21875 
Q 58.5 63.53125 58.5 54.890625 
Q 58.5 48.1875 55.375 44.234375 
Q 52.25 40.28125 46.1875 39.3125 
Q 53.46875 37.75 57.5 32.78125 
Q 61.53125 27.828125 61.53125 20.40625 
Q 61.53125 10.640625 54.890625 5.3125 
Q 48.25 0 35.984375 0 
L 9.8125 0 
z
" id="DejaVuSans-66"/>
     </defs>
     <use xlink:href="#DejaVuSans-71"/>
     <use x="77.490234" xlink:href="#DejaVuSans-114"/>
     <use x="116.353516" xlink:href="#DejaVuSans-111"/>
     <use x="177.535156" xlink:href="#DejaVuSans-117"/>
     <use x="240.914062" xlink:href="#DejaVuSans-112"/>
     <use x="304.390625" xlink:href="#DejaVuSans-32"/>
     <use x="336.177734" xlink:href="#DejaVuSans-66"/>
    </g>
   </g>
  </g>
  <g id="text_28">
   <!-- The chatbot's messages met my expectations. -->
   <g transform="translate(114.590534 13.529498)scale(0.0833 -0.0833)">
    <defs>
     <path d="M -0.296875 72.90625 
L 61.375 72.90625 
L 61.375 64.59375 
L 35.5 64.59375 
L 35.5 0 
L 25.59375 0 
L 25.59375 64.59375 
L -0.296875 64.59375 
z
" id="DejaVuSans-84"/>
     <path d="M 54.890625 33.015625 
L 54.890625 0 
L 45.90625 0 
L 45.90625 32.71875 
Q 45.90625 40.484375 42.875 44.328125 
Q 39.84375 48.1875 33.796875 48.1875 
Q 26.515625 48.1875 22.3125 43.546875 
Q 18.109375 38.921875 18.109375 30.90625 
L 18.109375 0 
L 9.078125 0 
L 9.078125 75.984375 
L 18.109375 75.984375 
L 18.109375 46.1875 
Q 21.34375 51.125 25.703125 53.5625 
Q 30.078125 56 35.796875 56 
Q 45.21875 56 50.046875 50.171875 
Q 54.890625 44.34375 54.890625 33.015625 
z
" id="DejaVuSans-104"/>
     <path d="M 48.6875 27.296875 
Q 48.6875 37.203125 44.609375 42.84375 
Q 40.53125 48.484375 33.40625 48.484375 
Q 26.265625 48.484375 22.1875 42.84375 
Q 18.109375 37.203125 18.109375 27.296875 
Q 18.109375 17.390625 22.1875 11.75 
Q 26.265625 6.109375 33.40625 6.109375 
Q 40.53125 6.109375 44.609375 11.75 
Q 48.6875 17.390625 48.6875 27.296875 
z
M 18.109375 46.390625 
Q 20.953125 51.265625 25.265625 53.625 
Q 29.59375 56 35.59375 56 
Q 45.5625 56 51.78125 48.09375 
Q 58.015625 40.1875 58.015625 27.296875 
Q 58.015625 14.40625 51.78125 6.484375 
Q 45.5625 -1.421875 35.59375 -1.421875 
Q 29.59375 -1.421875 25.265625 0.953125 
Q 20.953125 3.328125 18.109375 8.203125 
L 18.109375 0 
L 9.078125 0 
L 9.078125 75.984375 
L 18.109375 75.984375 
z
" id="DejaVuSans-98"/>
     <path d="M 17.921875 72.90625 
L 17.921875 45.796875 
L 9.625 45.796875 
L 9.625 72.90625 
z
" id="DejaVuSans-39"/>
     <path d="M 44.28125 53.078125 
L 44.28125 44.578125 
Q 40.484375 46.53125 36.375 47.5 
Q 32.28125 48.484375 27.875 48.484375 
Q 21.1875 48.484375 17.84375 46.4375 
Q 14.5 44.390625 14.5 40.28125 
Q 14.5 37.15625 16.890625 35.375 
Q 19.28125 33.59375 26.515625 31.984375 
L 29.59375 31.296875 
Q 39.15625 29.25 43.1875 25.515625 
Q 47.21875 21.78125 47.21875 15.09375 
Q 47.21875 7.46875 41.1875 3.015625 
Q 35.15625 -1.421875 24.609375 -1.421875 
Q 20.21875 -1.421875 15.453125 -0.5625 
Q 10.6875 0.296875 5.421875 2 
L 5.421875 11.28125 
Q 10.40625 8.6875 15.234375 7.390625 
Q 20.0625 6.109375 24.8125 6.109375 
Q 31.15625 6.109375 34.5625 8.28125 
Q 37.984375 10.453125 37.984375 14.40625 
Q 37.984375 18.0625 35.515625 20.015625 
Q 33.0625 21.96875 24.703125 23.78125 
L 21.578125 24.515625 
Q 13.234375 26.265625 9.515625 29.90625 
Q 5.8125 33.546875 5.8125 39.890625 
Q 5.8125 47.609375 11.28125 51.796875 
Q 16.75 56 26.8125 56 
Q 31.78125 56 36.171875 55.265625 
Q 40.578125 54.546875 44.28125 53.078125 
z
" id="DejaVuSans-115"/>
     <path d="M 52 44.1875 
Q 55.375 50.25 60.0625 53.125 
Q 64.75 56 71.09375 56 
Q 79.640625 56 84.28125 50.015625 
Q 88.921875 44.046875 88.921875 33.015625 
L 88.921875 0 
L 79.890625 0 
L 79.890625 32.71875 
Q 79.890625 40.578125 77.09375 44.375 
Q 74.3125 48.1875 68.609375 48.1875 
Q 61.625 48.1875 57.5625 43.546875 
Q 53.515625 38.921875 53.515625 30.90625 
L 53.515625 0 
L 44.484375 0 
L 44.484375 32.71875 
Q 44.484375 40.625 41.703125 44.40625 
Q 38.921875 48.1875 33.109375 48.1875 
Q 26.21875 48.1875 22.15625 43.53125 
Q 18.109375 38.875 18.109375 30.90625 
L 18.109375 0 
L 9.078125 0 
L 9.078125 54.6875 
L 18.109375 54.6875 
L 18.109375 46.1875 
Q 21.1875 51.21875 25.484375 53.609375 
Q 29.78125 56 35.6875 56 
Q 41.65625 56 45.828125 52.96875 
Q 50 49.953125 52 44.1875 
z
" id="DejaVuSans-109"/>
     <path d="M 45.40625 27.984375 
Q 45.40625 37.75 41.375 43.109375 
Q 37.359375 48.484375 30.078125 48.484375 
Q 22.859375 48.484375 18.828125 43.109375 
Q 14.796875 37.75 14.796875 27.984375 
Q 14.796875 18.265625 18.828125 12.890625 
Q 22.859375 7.515625 30.078125 7.515625 
Q 37.359375 7.515625 41.375 12.890625 
Q 45.40625 18.265625 45.40625 27.984375 
z
M 54.390625 6.78125 
Q 54.390625 -7.171875 48.1875 -13.984375 
Q 42 -20.796875 29.203125 -20.796875 
Q 24.46875 -20.796875 20.265625 -20.09375 
Q 16.0625 -19.390625 12.109375 -17.921875 
L 12.109375 -9.1875 
Q 16.0625 -11.328125 19.921875 -12.34375 
Q 23.78125 -13.375 27.78125 -13.375 
Q 36.625 -13.375 41.015625 -8.765625 
Q 45.40625 -4.15625 45.40625 5.171875 
L 45.40625 9.625 
Q 42.625 4.78125 38.28125 2.390625 
Q 33.9375 0 27.875 0 
Q 17.828125 0 11.671875 7.65625 
Q 5.515625 15.328125 5.515625 27.984375 
Q 5.515625 40.671875 11.671875 48.328125 
Q 17.828125 56 27.875 56 
Q 33.9375 56 38.28125 53.609375 
Q 42.625 51.21875 45.40625 46.390625 
L 45.40625 54.6875 
L 54.390625 54.6875 
z
" id="DejaVuSans-103"/>
     <path d="M 32.171875 -5.078125 
Q 28.375 -14.84375 24.75 -17.8125 
Q 21.140625 -20.796875 15.09375 -20.796875 
L 7.90625 -20.796875 
L 7.90625 -13.28125 
L 13.1875 -13.28125 
Q 16.890625 -13.28125 18.9375 -11.515625 
Q 21 -9.765625 23.484375 -3.21875 
L 25.09375 0.875 
L 2.984375 54.6875 
L 12.5 54.6875 
L 29.59375 11.921875 
L 46.6875 54.6875 
L 56.203125 54.6875 
z
" id="DejaVuSans-121"/>
    </defs>
    <use xlink:href="#DejaVuSans-84"/>
    <use x="61.083984" xlink:href="#DejaVuSans-104"/>
    <use x="124.462891" xlink:href="#DejaVuSans-101"/>
    <use x="185.986328" xlink:href="#DejaVuSans-32"/>
    <use x="217.773438" xlink:href="#DejaVuSans-99"/>
    <use x="272.753906" xlink:href="#DejaVuSans-104"/>
    <use x="336.132812" xlink:href="#DejaVuSans-97"/>
    <use x="397.412109" xlink:href="#DejaVuSans-116"/>
    <use x="436.621094" xlink:href="#DejaVuSans-98"/>
    <use x="500.097656" xlink:href="#DejaVuSans-111"/>
    <use x="561.279297" xlink:href="#DejaVuSans-116"/>
    <use x="600.488281" xlink:href="#DejaVuSans-39"/>
    <use x="627.978516" xlink:href="#DejaVuSans-115"/>
    <use x="680.078125" xlink:href="#DejaVuSans-32"/>
    <use x="711.865234" xlink:href="#DejaVuSans-109"/>
    <use x="809.277344" xlink:href="#DejaVuSans-101"/>
    <use x="870.800781" xlink:href="#DejaVuSans-115"/>
    <use x="922.900391" xlink:href="#DejaVuSans-115"/>
    <use x="975" xlink:href="#DejaVuSans-97"/>
    <use x="1036.279297" xlink:href="#DejaVuSans-103"/>
    <use x="1099.755859" xlink:href="#DejaVuSans-101"/>
    <use x="1161.279297" xlink:href="#DejaVuSans-115"/>
    <use x="1213.378906" xlink:href="#DejaVuSans-32"/>
    <use x="1245.166016" xlink:href="#DejaVuSans-109"/>
    <use x="1342.578125" xlink:href="#DejaVuSans-101"/>
    <use x="1404.101562" xlink:href="#DejaVuSans-116"/>
    <use x="1443.310547" xlink:href="#DejaVuSans-32"/>
    <use x="1475.097656" xlink:href="#DejaVuSans-109"/>
    <use x="1572.509766" xlink:href="#DejaVuSans-121"/>
    <use x="1631.689453" xlink:href="#DejaVuSans-32"/>
    <use x="1663.476562" xlink:href="#DejaVuSans-101"/>
    <use x="1723.25" xlink:href="#DejaVuSans-120"/>
    <use x="1782.429688" xlink:href="#DejaVuSans-112"/>
    <use x="1845.90625" xlink:href="#DejaVuSans-101"/>
    <use x="1907.429688" xlink:href="#DejaVuSans-99"/>
    <use x="1962.410156" xlink:href="#DejaVuSans-116"/>
    <use x="2001.619141" xlink:href="#DejaVuSans-97"/>
    <use x="2062.898438" xlink:href="#DejaVuSans-116"/>
    <use x="2102.107422" xlink:href="#DejaVuSans-105"/>
    <use x="2129.890625" xlink:href="#DejaVuSans-111"/>
    <use x="2191.072266" xlink:href="#DejaVuSans-110"/>
    <use x="2254.451172" xlink:href="#DejaVuSans-115"/>
    <use x="2306.550781" xlink:href="#DejaVuSans-46"/>
   </g>
  </g>
 </g>
 <defs>
  <clipPath id="pc04fd3f224">
   <rect height="199.6" width="162.8" x="43.78125" y="48.04"/>
  </clipPath>
  <clipPath id="p87432bd112">
   <rect height="199.6" width="162.8" x="254.38125" y="48.04"/>
  </clipPath>
 </defs>
</svg>
