<?xml version="1.0" encoding="utf-8" standalone="no"?>
<!DOCTYPE svg PUBLIC "-//W3C//DTD SVG 1.1//EN"
  "http://www.w3.org/Graphics/SVG/1.1/DTD/svg11.dtd">
<!-- Created with matplotlib (https://matplotlib.org/) -->
<svg height="263.63625pt" version="1.1" viewBox="0 0 372.103125 263.63625" width="372.103125pt" xmlns="http://www.w3.org/2000/svg" xmlns:xlink="http://www.w3.org/1999/xlink">
 <metadata>
  <rdf:RDF xmlns:cc="http://creativecommons.org/ns#" xmlns:dc="http://purl.org/dc/elements/1.1/" xmlns:rdf="http://www.w3.org/1999/02/22-rdf-syntax-ns#">
   <cc:Work>
    <dc:type rdf:resource="http://purl.org/dc/dcmitype/StillImage"/>
    <dc:date>2021-02-13T19:11:31.449294</dc:date>
    <dc:format>image/svg+xml</dc:format>
    <dc:creator>
     <cc:Agent>
      <dc:title>Matplotlib v3.3.4, https://matplotlib.org/</dc:title>
     </cc:Agent>
    </dc:creator>
   </cc:Work>
  </rdf:RDF>
 </metadata>
 <defs>
  <style type="text/css">*{stroke-linecap:butt;stroke-linejoin:round;}</style>
 </defs>
 <g id="figure_1">
  <g id="patch_1">
   <path d="M 0 263.63625 
L 372.103125 263.63625 
L 372.103125 0 
L 0 0 
z
" style="fill:none;"/>
  </g>
  <g id="axes_1">
   <g id="patch_2">
    <path d="M 30.103125 239.758125 
L 364.903125 239.758125 
L 364.903125 22.318125 
L 30.103125 22.318125 
z
" style="fill:#ffffff;"/>
   </g>
   <g id="matplotlib.axis_1">
    <g id="xtick_1">
     <g id="line2d_1">
      <path clip-path="url(#p13b23e79c0)" d="M 45.321307 239.758125 
L 45.321307 22.318125 
" style="fill:none;stroke:#b0b0b0;stroke-linecap:square;stroke-width:0.8;"/>
     </g>
     <g id="line2d_2">
      <defs>
       <path d="M 0 0 
L 0 3.5 
" id="m26e000870e" style="stroke:#000000;stroke-width:0.8;"/>
      </defs>
      <g>
       <use style="stroke:#000000;stroke-width:0.8;" x="45.321307" xlink:href="#m26e000870e" y="239.758125"/>
      </g>
     </g>
     <g id="text_1">
      <!-- 0 -->
      <g transform="translate(42.140057 254.356563)scale(0.1 -0.1)">
       <defs>
        <path d="M 31.78125 66.40625 
Q 24.171875 66.40625 20.328125 58.90625 
Q 16.5 51.421875 16.5 36.375 
Q 16.5 21.390625 20.328125 13.890625 
Q 24.171875 6.390625 31.78125 6.390625 
Q 39.453125 6.390625 43.28125 13.890625 
Q 47.125 21.390625 47.125 36.375 
Q 47.125 51.421875 43.28125 58.90625 
Q 39.453125 66.40625 31.78125 66.40625 
z
M 31.78125 74.21875 
Q 44.046875 74.21875 50.515625 64.515625 
Q 56.984375 54.828125 56.984375 36.375 
Q 56.984375 17.96875 50.515625 8.265625 
Q 44.046875 -1.421875 31.78125 -1.421875 
Q 19.53125 -1.421875 13.0625 8.265625 
Q 6.59375 17.96875 6.59375 36.375 
Q 6.59375 54.828125 13.0625 64.515625 
Q 19.53125 74.21875 31.78125 74.21875 
z
" id="DejaVuSans-48"/>
       </defs>
       <use xlink:href="#DejaVuSans-48"/>
      </g>
     </g>
    </g>
    <g id="xtick_2">
     <g id="line2d_3">
      <path clip-path="url(#p13b23e79c0)" d="M 88.117094 239.758125 
L 88.117094 22.318125 
" style="fill:none;stroke:#b0b0b0;stroke-linecap:square;stroke-width:0.8;"/>
     </g>
     <g id="line2d_4">
      <g>
       <use style="stroke:#000000;stroke-width:0.8;" x="88.117094" xlink:href="#m26e000870e" y="239.758125"/>
      </g>
     </g>
     <g id="text_2">
      <!-- 500 -->
      <g transform="translate(78.573344 254.356563)scale(0.1 -0.1)">
       <defs>
        <path d="M 10.796875 72.90625 
L 49.515625 72.90625 
L 49.515625 64.59375 
L 19.828125 64.59375 
L 19.828125 46.734375 
Q 21.96875 47.46875 24.109375 47.828125 
Q 26.265625 48.1875 28.421875 48.1875 
Q 40.625 48.1875 47.75 41.5 
Q 54.890625 34.8125 54.890625 23.390625 
Q 54.890625 11.625 47.5625 5.09375 
Q 40.234375 -1.421875 26.90625 -1.421875 
Q 22.3125 -1.421875 17.546875 -0.640625 
Q 12.796875 0.140625 7.71875 1.703125 
L 7.71875 11.625 
Q 12.109375 9.234375 16.796875 8.0625 
Q 21.484375 6.890625 26.703125 6.890625 
Q 35.15625 6.890625 40.078125 11.328125 
Q 45.015625 15.765625 45.015625 23.390625 
Q 45.015625 31 40.078125 35.4375 
Q 35.15625 39.890625 26.703125 39.890625 
Q 22.75 39.890625 18.8125 39.015625 
Q 14.890625 38.140625 10.796875 36.28125 
z
" id="DejaVuSans-53"/>
       </defs>
       <use xlink:href="#DejaVuSans-53"/>
       <use x="63.623047" xlink:href="#DejaVuSans-48"/>
       <use x="127.246094" xlink:href="#DejaVuSans-48"/>
      </g>
     </g>
    </g>
    <g id="xtick_3">
     <g id="line2d_5">
      <path clip-path="url(#p13b23e79c0)" d="M 130.912881 239.758125 
L 130.912881 22.318125 
" style="fill:none;stroke:#b0b0b0;stroke-linecap:square;stroke-width:0.8;"/>
     </g>
     <g id="line2d_6">
      <g>
       <use style="stroke:#000000;stroke-width:0.8;" x="130.912881" xlink:href="#m26e000870e" y="239.758125"/>
      </g>
     </g>
     <g id="text_3">
      <!-- 1000 -->
      <g transform="translate(118.187881 254.356563)scale(0.1 -0.1)">
       <defs>
        <path d="M 12.40625 8.296875 
L 28.515625 8.296875 
L 28.515625 63.921875 
L 10.984375 60.40625 
L 10.984375 69.390625 
L 28.421875 72.90625 
L 38.28125 72.90625 
L 38.28125 8.296875 
L 54.390625 8.296875 
L 54.390625 0 
L 12.40625 0 
z
" id="DejaVuSans-49"/>
       </defs>
       <use xlink:href="#DejaVuSans-49"/>
       <use x="63.623047" xlink:href="#DejaVuSans-48"/>
       <use x="127.246094" xlink:href="#DejaVuSans-48"/>
       <use x="190.869141" xlink:href="#DejaVuSans-48"/>
      </g>
     </g>
    </g>
    <g id="xtick_4">
     <g id="line2d_7">
      <path clip-path="url(#p13b23e79c0)" d="M 173.708667 239.758125 
L 173.708667 22.318125 
" style="fill:none;stroke:#b0b0b0;stroke-linecap:square;stroke-width:0.8;"/>
     </g>
     <g id="line2d_8">
      <g>
       <use style="stroke:#000000;stroke-width:0.8;" x="173.708667" xlink:href="#m26e000870e" y="239.758125"/>
      </g>
     </g>
     <g id="text_4">
      <!-- 1500 -->
      <g transform="translate(160.983667 254.356563)scale(0.1 -0.1)">
       <use xlink:href="#DejaVuSans-49"/>
       <use x="63.623047" xlink:href="#DejaVuSans-53"/>
       <use x="127.246094" xlink:href="#DejaVuSans-48"/>
       <use x="190.869141" xlink:href="#DejaVuSans-48"/>
      </g>
     </g>
    </g>
    <g id="xtick_5">
     <g id="line2d_9">
      <path clip-path="url(#p13b23e79c0)" d="M 216.504454 239.758125 
L 216.504454 22.318125 
" style="fill:none;stroke:#b0b0b0;stroke-linecap:square;stroke-width:0.8;"/>
     </g>
     <g id="line2d_10">
      <g>
       <use style="stroke:#000000;stroke-width:0.8;" x="216.504454" xlink:href="#m26e000870e" y="239.758125"/>
      </g>
     </g>
     <g id="text_5">
      <!-- 2000 -->
      <g transform="translate(203.779454 254.356563)scale(0.1 -0.1)">
       <defs>
        <path d="M 19.1875 8.296875 
L 53.609375 8.296875 
L 53.609375 0 
L 7.328125 0 
L 7.328125 8.296875 
Q 12.9375 14.109375 22.625 23.890625 
Q 32.328125 33.6875 34.8125 36.53125 
Q 39.546875 41.84375 41.421875 45.53125 
Q 43.3125 49.21875 43.3125 52.78125 
Q 43.3125 58.59375 39.234375 62.25 
Q 35.15625 65.921875 28.609375 65.921875 
Q 23.96875 65.921875 18.8125 64.3125 
Q 13.671875 62.703125 7.8125 59.421875 
L 7.8125 69.390625 
Q 13.765625 71.78125 18.9375 73 
Q 24.125 74.21875 28.421875 74.21875 
Q 39.75 74.21875 46.484375 68.546875 
Q 53.21875 62.890625 53.21875 53.421875 
Q 53.21875 48.921875 51.53125 44.890625 
Q 49.859375 40.875 45.40625 35.40625 
Q 44.1875 33.984375 37.640625 27.21875 
Q 31.109375 20.453125 19.1875 8.296875 
z
" id="DejaVuSans-50"/>
       </defs>
       <use xlink:href="#DejaVuSans-50"/>
       <use x="63.623047" xlink:href="#DejaVuSans-48"/>
       <use x="127.246094" xlink:href="#DejaVuSans-48"/>
       <use x="190.869141" xlink:href="#DejaVuSans-48"/>
      </g>
     </g>
    </g>
    <g id="xtick_6">
     <g id="line2d_11">
      <path clip-path="url(#p13b23e79c0)" d="M 259.300241 239.758125 
L 259.300241 22.318125 
" style="fill:none;stroke:#b0b0b0;stroke-linecap:square;stroke-width:0.8;"/>
     </g>
     <g id="line2d_12">
      <g>
       <use style="stroke:#000000;stroke-width:0.8;" x="259.300241" xlink:href="#m26e000870e" y="239.758125"/>
      </g>
     </g>
     <g id="text_6">
      <!-- 2500 -->
      <g transform="translate(246.575241 254.356563)scale(0.1 -0.1)">
       <use xlink:href="#DejaVuSans-50"/>
       <use x="63.623047" xlink:href="#DejaVuSans-53"/>
       <use x="127.246094" xlink:href="#DejaVuSans-48"/>
       <use x="190.869141" xlink:href="#DejaVuSans-48"/>
      </g>
     </g>
    </g>
    <g id="xtick_7">
     <g id="line2d_13">
      <path clip-path="url(#p13b23e79c0)" d="M 302.096028 239.758125 
L 302.096028 22.318125 
" style="fill:none;stroke:#b0b0b0;stroke-linecap:square;stroke-width:0.8;"/>
     </g>
     <g id="line2d_14">
      <g>
       <use style="stroke:#000000;stroke-width:0.8;" x="302.096028" xlink:href="#m26e000870e" y="239.758125"/>
      </g>
     </g>
     <g id="text_7">
      <!-- 3000 -->
      <g transform="translate(289.371028 254.356563)scale(0.1 -0.1)">
       <defs>
        <path d="M 40.578125 39.3125 
Q 47.65625 37.796875 51.625 33 
Q 55.609375 28.21875 55.609375 21.1875 
Q 55.609375 10.40625 48.1875 4.484375 
Q 40.765625 -1.421875 27.09375 -1.421875 
Q 22.515625 -1.421875 17.65625 -0.515625 
Q 12.796875 0.390625 7.625 2.203125 
L 7.625 11.71875 
Q 11.71875 9.328125 16.59375 8.109375 
Q 21.484375 6.890625 26.8125 6.890625 
Q 36.078125 6.890625 40.9375 10.546875 
Q 45.796875 14.203125 45.796875 21.1875 
Q 45.796875 27.640625 41.28125 31.265625 
Q 36.765625 34.90625 28.71875 34.90625 
L 20.21875 34.90625 
L 20.21875 43.015625 
L 29.109375 43.015625 
Q 36.375 43.015625 40.234375 45.921875 
Q 44.09375 48.828125 44.09375 54.296875 
Q 44.09375 59.90625 40.109375 62.90625 
Q 36.140625 65.921875 28.71875 65.921875 
Q 24.65625 65.921875 20.015625 65.03125 
Q 15.375 64.15625 9.8125 62.3125 
L 9.8125 71.09375 
Q 15.4375 72.65625 20.34375 73.4375 
Q 25.25 74.21875 29.59375 74.21875 
Q 40.828125 74.21875 47.359375 69.109375 
Q 53.90625 64.015625 53.90625 55.328125 
Q 53.90625 49.265625 50.4375 45.09375 
Q 46.96875 40.921875 40.578125 39.3125 
z
" id="DejaVuSans-51"/>
       </defs>
       <use xlink:href="#DejaVuSans-51"/>
       <use x="63.623047" xlink:href="#DejaVuSans-48"/>
       <use x="127.246094" xlink:href="#DejaVuSans-48"/>
       <use x="190.869141" xlink:href="#DejaVuSans-48"/>
      </g>
     </g>
    </g>
    <g id="xtick_8">
     <g id="line2d_15">
      <path clip-path="url(#p13b23e79c0)" d="M 344.891815 239.758125 
L 344.891815 22.318125 
" style="fill:none;stroke:#b0b0b0;stroke-linecap:square;stroke-width:0.8;"/>
     </g>
     <g id="line2d_16">
      <g>
       <use style="stroke:#000000;stroke-width:0.8;" x="344.891815" xlink:href="#m26e000870e" y="239.758125"/>
      </g>
     </g>
     <g id="text_8">
      <!-- 3500 -->
      <g transform="translate(332.166815 254.356563)scale(0.1 -0.1)">
       <use xlink:href="#DejaVuSans-51"/>
       <use x="63.623047" xlink:href="#DejaVuSans-53"/>
       <use x="127.246094" xlink:href="#DejaVuSans-48"/>
       <use x="190.869141" xlink:href="#DejaVuSans-48"/>
      </g>
     </g>
    </g>
   </g>
   <g id="matplotlib.axis_2">
    <g id="ytick_1">
     <g id="line2d_17">
      <path clip-path="url(#p13b23e79c0)" d="M 30.103125 229.897057 
L 364.903125 229.897057 
" style="fill:none;stroke:#b0b0b0;stroke-linecap:square;stroke-width:0.8;"/>
     </g>
     <g id="line2d_18">
      <defs>
       <path d="M 0 0 
L -3.5 0 
" id="m8041ac92a2" style="stroke:#000000;stroke-width:0.8;"/>
      </defs>
      <g>
       <use style="stroke:#000000;stroke-width:0.8;" x="30.103125" xlink:href="#m8041ac92a2" y="229.897057"/>
      </g>
     </g>
     <g id="text_9">
      <!-- 0.0 -->
      <g transform="translate(7.2 233.696275)scale(0.1 -0.1)">
       <defs>
        <path d="M 10.6875 12.40625 
L 21 12.40625 
L 21 0 
L 10.6875 0 
z
" id="DejaVuSans-46"/>
       </defs>
       <use xlink:href="#DejaVuSans-48"/>
       <use x="63.623047" xlink:href="#DejaVuSans-46"/>
       <use x="95.410156" xlink:href="#DejaVuSans-48"/>
      </g>
     </g>
    </g>
    <g id="ytick_2">
     <g id="line2d_19">
      <path clip-path="url(#p13b23e79c0)" d="M 30.103125 190.357998 
L 364.903125 190.357998 
" style="fill:none;stroke:#b0b0b0;stroke-linecap:square;stroke-width:0.8;"/>
     </g>
     <g id="line2d_20">
      <g>
       <use style="stroke:#000000;stroke-width:0.8;" x="30.103125" xlink:href="#m8041ac92a2" y="190.357998"/>
      </g>
     </g>
     <g id="text_10">
      <!-- 0.2 -->
      <g transform="translate(7.2 194.157216)scale(0.1 -0.1)">
       <use xlink:href="#DejaVuSans-48"/>
       <use x="63.623047" xlink:href="#DejaVuSans-46"/>
       <use x="95.410156" xlink:href="#DejaVuSans-50"/>
      </g>
     </g>
    </g>
    <g id="ytick_3">
     <g id="line2d_21">
      <path clip-path="url(#p13b23e79c0)" d="M 30.103125 150.818939 
L 364.903125 150.818939 
" style="fill:none;stroke:#b0b0b0;stroke-linecap:square;stroke-width:0.8;"/>
     </g>
     <g id="line2d_22">
      <g>
       <use style="stroke:#000000;stroke-width:0.8;" x="30.103125" xlink:href="#m8041ac92a2" y="150.818939"/>
      </g>
     </g>
     <g id="text_11">
      <!-- 0.4 -->
      <g transform="translate(7.2 154.618157)scale(0.1 -0.1)">
       <defs>
        <path d="M 37.796875 64.3125 
L 12.890625 25.390625 
L 37.796875 25.390625 
z
M 35.203125 72.90625 
L 47.609375 72.90625 
L 47.609375 25.390625 
L 58.015625 25.390625 
L 58.015625 17.1875 
L 47.609375 17.1875 
L 47.609375 0 
L 37.796875 0 
L 37.796875 17.1875 
L 4.890625 17.1875 
L 4.890625 26.703125 
z
" id="DejaVuSans-52"/>
       </defs>
       <use xlink:href="#DejaVuSans-48"/>
       <use x="63.623047" xlink:href="#DejaVuSans-46"/>
       <use x="95.410156" xlink:href="#DejaVuSans-52"/>
      </g>
     </g>
    </g>
    <g id="ytick_4">
     <g id="line2d_23">
      <path clip-path="url(#p13b23e79c0)" d="M 30.103125 111.279879 
L 364.903125 111.279879 
" style="fill:none;stroke:#b0b0b0;stroke-linecap:square;stroke-width:0.8;"/>
     </g>
     <g id="line2d_24">
      <g>
       <use style="stroke:#000000;stroke-width:0.8;" x="30.103125" xlink:href="#m8041ac92a2" y="111.279879"/>
      </g>
     </g>
     <g id="text_12">
      <!-- 0.6 -->
      <g transform="translate(7.2 115.079098)scale(0.1 -0.1)">
       <defs>
        <path d="M 33.015625 40.375 
Q 26.375 40.375 22.484375 35.828125 
Q 18.609375 31.296875 18.609375 23.390625 
Q 18.609375 15.53125 22.484375 10.953125 
Q 26.375 6.390625 33.015625 6.390625 
Q 39.65625 6.390625 43.53125 10.953125 
Q 47.40625 15.53125 47.40625 23.390625 
Q 47.40625 31.296875 43.53125 35.828125 
Q 39.65625 40.375 33.015625 40.375 
z
M 52.59375 71.296875 
L 52.59375 62.3125 
Q 48.875 64.0625 45.09375 64.984375 
Q 41.3125 65.921875 37.59375 65.921875 
Q 27.828125 65.921875 22.671875 59.328125 
Q 17.53125 52.734375 16.796875 39.40625 
Q 19.671875 43.65625 24.015625 45.921875 
Q 28.375 48.1875 33.59375 48.1875 
Q 44.578125 48.1875 50.953125 41.515625 
Q 57.328125 34.859375 57.328125 23.390625 
Q 57.328125 12.15625 50.6875 5.359375 
Q 44.046875 -1.421875 33.015625 -1.421875 
Q 20.359375 -1.421875 13.671875 8.265625 
Q 6.984375 17.96875 6.984375 36.375 
Q 6.984375 53.65625 15.1875 63.9375 
Q 23.390625 74.21875 37.203125 74.21875 
Q 40.921875 74.21875 44.703125 73.484375 
Q 48.484375 72.75 52.59375 71.296875 
z
" id="DejaVuSans-54"/>
       </defs>
       <use xlink:href="#DejaVuSans-48"/>
       <use x="63.623047" xlink:href="#DejaVuSans-46"/>
       <use x="95.410156" xlink:href="#DejaVuSans-54"/>
      </g>
     </g>
    </g>
    <g id="ytick_5">
     <g id="line2d_25">
      <path clip-path="url(#p13b23e79c0)" d="M 30.103125 71.74082 
L 364.903125 71.74082 
" style="fill:none;stroke:#b0b0b0;stroke-linecap:square;stroke-width:0.8;"/>
     </g>
     <g id="line2d_26">
      <g>
       <use style="stroke:#000000;stroke-width:0.8;" x="30.103125" xlink:href="#m8041ac92a2" y="71.74082"/>
      </g>
     </g>
     <g id="text_13">
      <!-- 0.8 -->
      <g transform="translate(7.2 75.540039)scale(0.1 -0.1)">
       <defs>
        <path d="M 31.78125 34.625 
Q 24.75 34.625 20.71875 30.859375 
Q 16.703125 27.09375 16.703125 20.515625 
Q 16.703125 13.921875 20.71875 10.15625 
Q 24.75 6.390625 31.78125 6.390625 
Q 38.8125 6.390625 42.859375 10.171875 
Q 46.921875 13.96875 46.921875 20.515625 
Q 46.921875 27.09375 42.890625 30.859375 
Q 38.875 34.625 31.78125 34.625 
z
M 21.921875 38.8125 
Q 15.578125 40.375 12.03125 44.71875 
Q 8.5 49.078125 8.5 55.328125 
Q 8.5 64.0625 14.71875 69.140625 
Q 20.953125 74.21875 31.78125 74.21875 
Q 42.671875 74.21875 48.875 69.140625 
Q 55.078125 64.0625 55.078125 55.328125 
Q 55.078125 49.078125 51.53125 44.71875 
Q 48 40.375 41.703125 38.8125 
Q 48.828125 37.15625 52.796875 32.3125 
Q 56.78125 27.484375 56.78125 20.515625 
Q 56.78125 9.90625 50.3125 4.234375 
Q 43.84375 -1.421875 31.78125 -1.421875 
Q 19.734375 -1.421875 13.25 4.234375 
Q 6.78125 9.90625 6.78125 20.515625 
Q 6.78125 27.484375 10.78125 32.3125 
Q 14.796875 37.15625 21.921875 38.8125 
z
M 18.3125 54.390625 
Q 18.3125 48.734375 21.84375 45.5625 
Q 25.390625 42.390625 31.78125 42.390625 
Q 38.140625 42.390625 41.71875 45.5625 
Q 45.3125 48.734375 45.3125 54.390625 
Q 45.3125 60.0625 41.71875 63.234375 
Q 38.140625 66.40625 31.78125 66.40625 
Q 25.390625 66.40625 21.84375 63.234375 
Q 18.3125 60.0625 18.3125 54.390625 
z
" id="DejaVuSans-56"/>
       </defs>
       <use xlink:href="#DejaVuSans-48"/>
       <use x="63.623047" xlink:href="#DejaVuSans-46"/>
       <use x="95.410156" xlink:href="#DejaVuSans-56"/>
      </g>
     </g>
    </g>
    <g id="ytick_6">
     <g id="line2d_27">
      <path clip-path="url(#p13b23e79c0)" d="M 30.103125 32.201761 
L 364.903125 32.201761 
" style="fill:none;stroke:#b0b0b0;stroke-linecap:square;stroke-width:0.8;"/>
     </g>
     <g id="line2d_28">
      <g>
       <use style="stroke:#000000;stroke-width:0.8;" x="30.103125" xlink:href="#m8041ac92a2" y="32.201761"/>
      </g>
     </g>
     <g id="text_14">
      <!-- 1.0 -->
      <g transform="translate(7.2 36.00098)scale(0.1 -0.1)">
       <use xlink:href="#DejaVuSans-49"/>
       <use x="63.623047" xlink:href="#DejaVuSans-46"/>
       <use x="95.410156" xlink:href="#DejaVuSans-48"/>
      </g>
     </g>
    </g>
   </g>
   <g id="line2d_29">
    <path clip-path="url(#p13b23e79c0)" d="M 45.321307 229.874489 
L 45.321307 223.23951 
L 45.663673 223.104102 
L 45.749265 222.946126 
L 46.006039 222.765582 
L 46.091631 222.359359 
L 46.177223 222.223952 
L 46.262814 222.043408 
L 46.348406 221.908 
L 46.433997 221.727456 
L 46.60518 221.569481 
L 46.690772 221.366369 
L 46.776364 221.230961 
L 46.861955 220.80217 
L 46.947547 220.666763 
L 47.033138 220.373379 
L 47.204321 220.215403 
L 47.289913 219.69634 
L 47.375505 219.560933 
L 47.461096 219.290117 
L 47.632279 219.132142 
L 47.717871 218.748486 
L 47.803462 218.613079 
L 47.889054 218.251991 
L 47.974646 218.116584 
L 48.060237 217.732928 
L 48.145829 217.597521 
L 48.23142 217.236433 
L 48.317012 217.101025 
L 48.402603 216.875346 
L 48.488195 216.739938 
L 48.573787 216.378851 
L 48.659378 216.243443 
L 48.74497 215.792084 
L 48.830561 215.656676 
L 48.916153 215.295589 
L 49.001744 215.160181 
L 49.087336 214.889366 
L 49.172928 214.753958 
L 49.258519 214.370303 
L 49.344111 214.234895 
L 49.429702 213.85124 
L 49.515294 213.715832 
L 49.600886 213.332177 
L 49.686477 213.196769 
L 49.772069 212.903386 
L 49.943252 212.74541 
L 50.028843 212.271483 
L 50.114435 212.136075 
L 50.200027 211.887828 
L 50.285618 211.75242 
L 50.37121 211.301061 
L 50.456801 211.165653 
L 50.542393 210.804566 
L 50.627984 210.669158 
L 50.713576 210.172663 
L 50.884759 210.014687 
L 50.970351 209.563328 
L 51.055942 209.42792 
L 51.141534 209.089401 
L 51.227125 208.953993 
L 51.312717 208.728314 
L 51.398309 208.592906 
L 51.4839 208.073843 
L 51.569492 207.938435 
L 51.655083 207.757892 
L 51.740675 207.622484 
L 51.826266 207.306533 
L 51.911858 207.171125 
L 51.99745 206.877741 
L 52.083041 206.742334 
L 52.168633 206.290975 
L 52.254224 206.155567 
L 52.339816 205.749344 
L 52.510999 205.591368 
L 52.596591 205.230281 
L 52.767774 205.072305 
L 52.853365 204.869193 
L 52.938957 204.733786 
L 53.024548 204.530674 
L 53.195732 204.372698 
L 53.281323 203.921339 
L 53.366915 203.785931 
L 53.452506 203.447412 
L 53.538098 203.312004 
L 53.623689 202.973485 
L 53.709281 202.838077 
L 53.794873 202.567262 
L 53.880464 202.431854 
L 53.966056 202.296446 
L 54.051647 202.161039 
L 54.137239 201.641976 
L 54.22283 201.506568 
L 54.308422 201.213184 
L 54.394014 201.077777 
L 54.479605 200.671553 
L 54.565197 200.536146 
L 54.650788 200.220194 
L 54.73638 200.084787 
L 54.821972 199.746267 
L 54.907563 199.61086 
L 54.993155 199.38518 
L 55.164338 199.227204 
L 55.249929 198.775845 
L 55.335521 198.640437 
L 55.421113 198.369622 
L 55.506704 198.234214 
L 55.592296 198.031103 
L 55.763479 197.873127 
L 55.84907 197.150952 
L 55.934662 197.015545 
L 56.020254 196.744729 
L 56.105845 196.609321 
L 56.191437 196.315938 
L 56.277028 196.18053 
L 56.36262 195.864579 
L 56.448211 195.729171 
L 56.533803 195.616331 
L 56.619395 195.480924 
L 56.704986 195.097268 
L 56.790578 194.961861 
L 56.876169 194.781317 
L 57.047352 194.623341 
L 57.132944 194.171982 
L 57.218536 194.036574 
L 57.304127 193.675487 
L 57.389719 193.540079 
L 57.47531 193.178992 
L 57.560902 193.043584 
L 57.646493 192.727633 
L 57.732085 192.592225 
L 57.817677 192.140866 
L 57.903268 192.005458 
L 57.98886 191.689507 
L 58.074451 191.554099 
L 58.160043 191.10274 
L 58.245634 190.967332 
L 58.331226 190.493405 
L 58.502409 190.33543 
L 58.588001 189.951774 
L 58.673592 189.816367 
L 58.759184 189.500415 
L 58.844775 189.365007 
L 58.930367 189.11676 
L 59.015959 188.981352 
L 59.10155 188.620265 
L 59.187142 188.484857 
L 59.272733 188.12377 
L 59.358325 187.988362 
L 59.443916 187.424163 
L 59.529508 187.288756 
L 59.6151 186.9051 
L 59.700691 186.769693 
L 59.786283 186.25063 
L 59.871874 186.115222 
L 59.957466 185.618727 
L 60.043058 185.483319 
L 60.128649 185.099664 
L 60.214241 184.964256 
L 60.299832 184.535465 
L 60.471015 184.377489 
L 60.556607 183.81329 
L 60.72779 183.655315 
L 60.813382 183.294227 
L 60.898973 183.15882 
L 60.984565 182.752596 
L 61.070156 182.617189 
L 61.155748 182.143262 
L 61.24134 182.007854 
L 61.326931 181.646767 
L 61.412523 181.511359 
L 61.498114 180.924592 
L 61.583706 180.789184 
L 61.669297 180.382961 
L 61.754889 180.247553 
L 61.840481 179.909034 
L 62.011664 179.751058 
L 62.097255 179.209427 
L 62.182847 179.07402 
L 62.268438 178.803204 
L 62.35403 178.667796 
L 62.439622 178.442117 
L 62.610805 178.284141 
L 62.696396 177.96819 
L 62.781988 177.832782 
L 62.867579 177.652238 
L 62.953171 177.516831 
L 63.038763 177.155743 
L 63.124354 177.020336 
L 63.209946 176.772088 
L 63.295537 176.63668 
L 63.381129 176.298161 
L 63.46672 176.162753 
L 63.552312 175.688826 
L 63.637904 175.553418 
L 63.723495 175.079491 
L 63.809087 174.944084 
L 63.894678 174.628132 
L 63.98027 174.492724 
L 64.065861 174.154205 
L 64.237045 173.996229 
L 64.322636 173.499734 
L 64.408228 173.364327 
L 64.493819 172.935535 
L 64.579411 172.800128 
L 64.665002 172.326201 
L 64.750594 172.190793 
L 64.836186 171.739434 
L 65.007369 171.581458 
L 65.09296 171.175235 
L 65.178552 171.039827 
L 65.264144 170.723876 
L 65.349735 170.588468 
L 65.435327 170.362788 
L 65.520918 170.227381 
L 65.60651 169.956565 
L 65.692101 169.821158 
L 65.777693 169.482638 
L 65.863285 169.34723 
L 65.948876 168.918439 
L 66.120059 168.760464 
L 66.205651 168.286537 
L 66.376834 168.128561 
L 66.462426 167.69977 
L 66.548017 167.564362 
L 66.633609 167.248411 
L 66.7192 167.113003 
L 66.804792 166.864755 
L 66.890383 166.729348 
L 66.975975 166.323124 
L 67.061567 166.187717 
L 67.147158 165.939469 
L 67.23275 165.804061 
L 67.318341 165.668654 
L 67.403933 165.533246 
L 67.489524 165.081887 
L 67.575116 164.946479 
L 67.660708 164.675664 
L 67.746299 164.540256 
L 67.831891 164.043761 
L 67.917482 163.908353 
L 68.003074 163.61497 
L 68.088665 163.479562 
L 68.174257 163.073339 
L 68.259849 162.937931 
L 68.34544 162.734819 
L 68.431032 162.599412 
L 68.516623 162.351164 
L 68.602215 162.215756 
L 68.687806 161.832101 
L 68.85899 161.674125 
L 68.944581 161.380742 
L 69.030173 161.245334 
L 69.115764 160.793975 
L 69.201356 160.658567 
L 69.286947 160.52316 
L 69.372539 160.387752 
L 69.458131 160.094368 
L 69.543722 159.958961 
L 69.629314 159.733281 
L 69.714905 159.597873 
L 69.800497 159.236786 
L 69.97168 159.07881 
L 70.057272 158.717723 
L 70.142863 158.582315 
L 70.228455 158.379204 
L 70.314046 158.243796 
L 70.399638 158.040684 
L 70.48523 157.905277 
L 70.570821 157.657029 
L 70.656413 157.521621 
L 70.742004 157.295942 
L 70.913187 157.137966 
L 70.998779 156.822015 
L 71.084371 156.686607 
L 71.169962 156.460928 
L 71.255554 156.32552 
L 71.341145 156.054704 
L 71.426737 155.919297 
L 71.512328 155.625913 
L 71.683512 155.467937 
L 71.769103 155.016578 
L 71.854695 154.881171 
L 71.940286 154.610355 
L 72.025878 154.474947 
L 72.111469 154.362108 
L 72.197061 154.2267 
L 72.282653 154.046156 
L 72.368244 153.910748 
L 72.453836 153.662501 
L 72.625019 153.504525 
L 72.71061 153.23371 
L 72.796202 153.098302 
L 72.881794 152.872623 
L 73.052977 152.714647 
L 73.138568 152.443831 
L 73.22416 152.308424 
L 73.309751 152.037608 
L 73.395343 151.9022 
L 73.480935 151.699089 
L 73.652118 151.541113 
L 73.737709 151.24773 
L 73.823301 151.112322 
L 73.908892 150.864074 
L 73.994484 150.728667 
L 74.080076 150.548123 
L 74.165667 150.412715 
L 74.251259 150.299876 
L 74.422442 150.1419 
L 74.508033 149.825948 
L 74.593625 149.690541 
L 74.679217 149.442293 
L 74.8504 149.284317 
L 74.935991 148.990934 
L 75.192766 148.81039 
L 75.278358 148.517007 
L 75.449541 148.359031 
L 75.535132 147.997944 
L 75.620724 147.862536 
L 75.706316 147.569153 
L 75.791907 147.433745 
L 75.877499 147.275769 
L 76.134273 147.095226 
L 76.219865 146.892114 
L 76.305457 146.756706 
L 76.391048 146.621299 
L 76.562231 146.463323 
L 76.647823 146.260211 
L 76.819006 146.102236 
L 76.904598 145.989396 
L 76.990189 145.853988 
L 77.075781 145.741148 
L 77.161372 145.605741 
L 77.246964 145.357493 
L 77.418147 145.199517 
L 77.503739 144.83843 
L 77.674922 144.680454 
L 77.760513 144.499911 
L 77.931696 144.341935 
L 78.017288 143.95828 
L 78.188471 143.800304 
L 78.274063 143.529489 
L 78.445246 143.371513 
L 78.530837 143.100698 
L 78.702021 142.942722 
L 78.787612 142.829882 
L 78.958795 142.671906 
L 79.044387 142.446227 
L 79.21557 142.288251 
L 79.301162 141.994868 
L 79.557936 141.814324 
L 79.643528 141.588644 
L 79.729119 141.453237 
L 79.814711 141.114717 
L 79.985894 140.956742 
L 80.071486 140.685926 
L 80.32826 140.505383 
L 80.413852 140.279703 
L 80.585035 140.121727 
L 80.670627 140.008888 
L 80.84181 139.850912 
L 80.927402 139.670368 
L 81.098585 139.512393 
L 81.184176 139.331849 
L 81.355359 139.173873 
L 81.440951 138.948194 
L 81.612134 138.790218 
L 81.697726 138.632242 
L 81.783317 138.496834 
L 81.868909 138.293723 
L 82.040092 138.135747 
L 82.125684 137.977771 
L 82.296867 137.819796 
L 82.382458 137.729524 
L 82.553641 137.571548 
L 82.639233 137.323301 
L 82.810416 137.165325 
L 82.896008 137.097621 
L 82.981599 136.962213 
L 83.067191 136.871942 
L 83.238374 136.713966 
L 83.323966 136.398015 
L 83.666332 136.194903 
L 83.751923 136.082063 
L 83.923107 135.924087 
L 84.008698 135.856384 
L 84.09429 135.720976 
L 84.179881 135.608136 
L 84.351064 135.45016 
L 84.436656 135.247049 
L 84.693431 135.066505 
L 84.779022 134.79569 
L 85.035797 134.615146 
L 85.121389 134.524874 
L 85.20698 134.389466 
L 85.292572 134.231491 
L 85.463755 134.073515 
L 85.549346 133.892971 
L 85.977304 133.667292 
L 86.062896 133.486748 
L 86.234079 133.328773 
L 86.319671 133.283637 
L 86.576445 133.103093 
L 86.662037 132.967685 
L 86.83322 132.80971 
L 86.918812 132.606598 
L 87.089995 132.448622 
L 87.175586 132.313215 
L 87.34677 132.155239 
L 87.432361 131.997263 
L 87.774727 131.794152 
L 87.860319 131.70388 
L 88.031502 131.545904 
L 88.117094 131.433064 
L 88.373868 131.252521 
L 88.45946 131.049409 
L 88.716235 130.868865 
L 88.801826 130.733458 
L 89.058601 130.552914 
L 89.144193 130.417506 
L 89.315376 130.259531 
L 89.400967 130.146691 
L 89.57215 129.988715 
L 89.657742 129.830739 
L 89.914517 129.650196 
L 90.000108 129.401948 
L 90.256883 129.26654 
L 90.342475 129.131133 
L 90.599249 128.950589 
L 90.684841 128.815181 
L 90.770432 128.679774 
L 90.856024 128.544366 
L 90.941616 128.408958 
L 91.027207 128.27355 
L 91.283982 128.093007 
L 91.369574 127.935031 
L 91.71194 127.731919 
L 91.797531 127.664216 
L 91.968715 127.50624 
L 92.054306 127.3934 
L 92.396672 127.190288 
L 92.482264 127.145153 
L 92.653447 126.987177 
L 92.739039 126.761497 
L 92.82463 126.62609 
L 92.910222 126.377842 
L 93.166997 126.197298 
L 93.252588 126.061891 
L 93.423771 125.903915 
L 93.509363 125.6331 
L 93.766138 125.452556 
L 93.851729 125.339716 
L 93.937321 125.204308 
L 94.022912 125.023765 
L 94.194095 124.865789 
L 94.279687 124.685245 
L 94.536462 124.504702 
L 94.622053 124.324158 
L 94.793236 124.211318 
L 94.878828 124.030775 
L 95.050011 123.872799 
L 95.135603 123.759959 
L 95.221194 123.624551 
L 95.306786 123.444008 
L 95.477969 123.286032 
L 95.563561 123.060353 
L 95.734744 122.902377 
L 95.820335 122.699265 
L 95.991518 122.54129 
L 96.07711 122.383314 
L 96.333885 122.20277 
L 96.419476 122.135066 
L 96.676251 121.954523 
L 96.676251 121.728843 
L 96.933026 121.593435 
L 97.018617 121.480596 
L 97.189801 121.32262 
L 97.189801 121.277484 
L 97.446575 121.142076 
L 97.532167 120.984101 
L 97.70335 120.826125 
L 97.788942 120.690717 
L 97.874533 120.555309 
L 97.960125 120.487606 
L 98.045716 120.352198 
L 98.131308 120.307062 
L 98.302491 120.149086 
L 98.388083 119.991111 
L 98.644857 119.810567 
L 98.730449 119.562319 
L 98.901632 119.404344 
L 98.987224 119.314072 
L 99.158407 119.156096 
L 99.243998 119.065824 
L 99.415181 118.907849 
L 99.500773 118.817577 
L 99.757548 118.637033 
L 99.843139 118.524193 
L 100.014322 118.366218 
L 100.099914 118.275946 
L 100.356689 118.095402 
L 100.44228 117.779451 
L 100.613463 117.621475 
L 100.699055 117.395796 
L 100.95583 117.215252 
L 101.041421 117.102412 
L 101.127013 116.967004 
L 101.212604 116.831597 
L 101.383788 116.673621 
L 101.469379 116.493077 
L 101.640562 116.335102 
L 101.726154 116.154558 
L 101.982929 115.974014 
L 102.06852 115.838607 
L 102.239703 115.680631 
L 102.325295 115.500087 
L 102.58207 115.319544 
L 102.667661 115.139 
L 102.838844 114.981024 
L 102.924436 114.755345 
L 103.095619 114.597369 
L 103.181211 114.349121 
L 103.352394 114.191146 
L 103.437985 114.055738 
L 103.609169 113.897762 
L 103.69476 113.717219 
L 103.780352 113.581811 
L 103.865943 113.491539 
L 104.20831 113.288428 
L 104.293901 113.130452 
L 104.465084 112.972476 
L 104.550676 112.8145 
L 104.807451 112.679093 
L 104.893042 112.475981 
L 105.064225 112.318005 
L 105.149817 112.069758 
L 105.321 111.911782 
L 105.406592 111.798942 
L 105.663366 111.618399 
L 105.748958 111.505559 
L 105.920141 111.347583 
L 106.005733 111.257311 
L 106.176916 111.099336 
L 106.262507 110.94136 
L 106.43369 110.783384 
L 106.519282 110.647977 
L 106.604874 110.512569 
L 106.690465 110.377161 
L 106.776057 110.241753 
L 106.861648 110.016074 
L 107.032832 109.858098 
L 107.118423 109.745258 
L 107.289606 109.587283 
L 107.375198 109.474443 
L 107.546381 109.316467 
L 107.631973 109.226195 
L 107.974339 109.023084 
L 108.05993 108.84254 
L 108.316705 108.661997 
L 108.402297 108.571725 
L 108.659071 108.436317 
L 108.744663 108.188069 
L 109.087029 107.984958 
L 109.172621 107.84955 
L 109.600579 107.623871 
L 109.68617 107.398191 
L 109.857353 107.240215 
L 109.942945 107.172511 
L 110.19972 106.991968 
L 110.285311 106.833992 
L 110.456494 106.676016 
L 110.542086 106.540609 
L 110.627678 106.405201 
L 110.713269 106.202089 
L 110.884452 106.08925 
L 110.970044 105.97641 
L 111.055635 105.841002 
L 111.141227 105.705594 
L 111.31241 105.547619 
L 111.398002 105.367075 
L 111.654776 105.186531 
L 111.740368 104.98342 
L 111.911551 104.825444 
L 111.997143 104.690036 
L 112.253918 104.509493 
L 112.339509 104.328949 
L 112.510692 104.170973 
L 112.596284 103.922726 
L 112.853059 103.742182 
L 112.93865 103.606774 
L 113.109833 103.448799 
L 113.195425 103.313391 
L 113.366608 103.155415 
L 113.4522 102.952304 
L 113.623383 102.794328 
L 113.708974 102.636352 
L 114.051341 102.433241 
L 114.136932 102.365537 
L 114.479298 102.162425 
L 114.56489 102.027017 
L 114.650482 101.89161 
L 114.736073 101.823906 
L 114.992848 101.643362 
L 115.078439 101.55309 
L 115.335214 101.372547 
L 115.420806 101.146867 
L 115.67758 100.966324 
L 115.67758 100.943756 
L 115.934355 100.808348 
L 116.105538 100.650372 
L 116.19113 100.537532 
L 116.447905 100.356989 
L 116.533496 100.199013 
L 116.790271 100.018469 
L 116.875862 99.973333 
L 117.047046 99.815358 
L 117.132637 99.657382 
L 117.389412 99.476838 
L 117.475004 99.386567 
L 117.731778 99.206023 
L 117.81737 99.002911 
L 117.988553 98.844936 
L 118.074145 98.68696 
L 118.330919 98.506416 
L 118.416511 98.416144 
L 118.93006 98.167897 
L 119.015652 98.055057 
L 119.101243 97.919649 
L 119.186835 97.874514 
L 119.358018 97.716538 
L 119.44361 97.626266 
L 119.614793 97.46829 
L 119.700384 97.423154 
L 119.957159 97.242611 
L 120.042751 97.174907 
L 120.385117 96.971795 
L 120.470709 96.836388 
L 120.641892 96.723548 
L 120.727483 96.610708 
L 120.898666 96.452732 
L 120.984258 96.385028 
L 121.412216 96.159349 
L 121.497807 96.069077 
L 122.011357 95.82083 
L 122.096948 95.753126 
L 122.439315 95.550014 
L 122.524906 95.346902 
L 122.867273 95.143791 
L 122.952864 94.963247 
L 123.209639 94.782704 
L 123.295231 94.692432 
L 123.380822 94.557024 
L 123.466414 94.466752 
L 123.637597 94.308776 
L 123.723188 94.150801 
L 124.065555 93.947689 
L 124.151146 93.767146 
L 124.236738 93.631738 
L 124.322329 93.49633 
L 124.493513 93.338354 
L 124.579104 93.180379 
L 124.835879 92.999835 
L 124.92147 92.864427 
L 125.092654 92.706452 
L 125.178245 92.593612 
L 125.263837 92.458204 
L 125.349428 92.367932 
L 125.520611 92.209957 
L 125.606203 92.051981 
L 125.777386 91.894005 
L 125.862978 91.736029 
L 126.034161 91.578054 
L 126.119752 91.374942 
L 126.462119 91.171831 
L 126.54771 91.036423 
L 127.146851 90.765607 
L 127.232443 90.607632 
L 127.403626 90.449656 
L 127.489218 90.336816 
L 127.745992 90.156273 
L 127.831584 90.020865 
L 128.088359 89.840321 
L 128.17395 89.682345 
L 128.430725 89.501802 
L 128.516317 89.208418 
L 128.6875 89.050443 
L 128.773091 88.937603 
L 129.115458 88.734491 
L 129.201049 88.64422 
L 129.372232 88.486244 
L 129.457824 88.19286 
L 129.714599 88.012317 
L 129.80019 87.876909 
L 130.056965 87.696365 
L 130.142556 87.560958 
L 130.31374 87.402982 
L 130.399331 87.222438 
L 130.570514 87.064463 
L 130.656106 86.906487 
L 130.998472 86.703375 
L 131.084064 86.590536 
L 131.255247 86.43256 
L 131.340838 86.252016 
L 131.597613 86.071473 
L 131.683205 86.026337 
L 132.025571 85.823225 
L 132.111163 85.665249 
L 132.282346 85.507274 
L 132.367937 85.417002 
L 132.624712 85.236458 
L 132.710304 85.10105 
L 132.967078 84.920507 
L 133.05267 84.739963 
L 133.223853 84.581987 
L 133.309445 84.514284 
L 133.480628 84.356308 
L 133.566219 84.175764 
L 133.737403 84.017789 
L 133.822994 83.927517 
L 134.16536 83.724405 
L 134.250952 83.498726 
L 134.422135 83.34075 
L 134.507727 83.250478 
L 134.850093 83.11507 
L 134.935685 82.934527 
L 135.106868 82.821687 
L 135.192459 82.776551 
L 135.534826 82.573439 
L 135.620417 82.392896 
L 135.877192 82.212352 
L 135.962783 82.099512 
L 136.219558 81.918969 
L 136.30515 81.738425 
L 136.561924 81.557881 
L 136.647516 81.445042 
L 136.818699 81.287066 
L 136.904291 81.12909 
L 137.075474 80.971114 
L 137.161065 80.790571 
L 137.332249 80.632595 
L 137.41784 80.452051 
L 137.674615 80.271508 
L 137.760207 80.158668 
L 138.016981 80.02326 
L 138.102573 79.910421 
L 138.359348 79.729877 
L 138.444939 79.549333 
L 138.958489 79.301086 
L 139.04408 79.14311 
L 139.215263 78.985134 
L 139.215263 78.939998 
L 139.472038 78.804591 
L 139.55763 78.691751 
L 139.985587 78.466071 
L 140.071179 78.26296 
L 140.327954 78.082416 
L 140.413545 77.947008 
L 140.584728 77.789033 
L 140.67032 77.698761 
L 140.841503 77.540785 
L 140.927095 77.360241 
L 141.098278 77.202266 
L 141.183869 77.066858 
L 141.440644 76.886314 
L 141.526236 76.773475 
L 141.868602 76.570363 
L 141.954194 76.457523 
L 142.382151 76.231844 
L 142.467743 76.141572 
L 143.066884 75.870756 
L 143.152476 75.757917 
L 143.40925 75.577373 
L 143.494842 75.441965 
L 143.9228 75.216286 
L 144.008391 75.103446 
L 144.265166 74.922902 
L 144.350758 74.764927 
L 144.607532 74.584383 
L 144.693124 74.448975 
L 145.03549 74.245864 
L 145.121082 74.06532 
L 145.377857 73.884776 
L 145.463448 73.83964 
L 145.805814 73.636529 
L 145.891406 73.478553 
L 146.062589 73.320577 
L 146.148181 73.252873 
L 146.490547 73.049762 
L 146.576139 72.914354 
L 146.747322 72.756378 
L 146.832913 72.643539 
L 147.004096 72.485563 
L 147.089688 72.417859 
L 147.260871 72.259883 
L 147.346463 72.147044 
L 147.774421 71.921364 
L 147.860012 71.808524 
L 148.116787 71.627981 
L 148.202379 71.492573 
L 148.715928 71.244325 
L 148.80152 71.041214 
L 149.143886 70.838102 
L 149.143886 70.74783 
L 149.400661 70.612423 
L 149.486252 70.544719 
L 149.828618 70.341607 
L 149.91421 70.228767 
L 150.256576 70.025656 
L 150.342168 69.957952 
L 150.855717 69.709704 
L 150.941309 69.574297 
L 151.369267 69.348617 
L 151.454858 69.235777 
L 151.968408 68.98753 
L 152.053999 68.87469 
L 152.225182 68.716714 
L 152.310774 68.64901 
L 152.481957 68.491035 
L 152.567549 68.400763 
L 152.995507 68.175083 
L 153.081098 68.107379 
L 153.937014 67.76886 
L 154.022606 67.65602 
L 154.27938 67.475477 
L 154.364972 67.317501 
L 154.707338 67.114389 
L 154.79293 67.024118 
L 155.220888 66.798438 
L 155.306479 66.617894 
L 155.648845 66.414783 
L 155.734437 66.279375 
L 155.90562 66.121399 
L 155.991212 66.031128 
L 156.847127 65.692608 
L 156.932719 65.602336 
L 157.275085 65.399225 
L 157.360677 65.331521 
L 158.045409 65.038137 
L 158.131001 64.925298 
L 159.1581 64.541642 
L 159.243692 64.473939 
L 160.527565 64.022579 
L 160.613157 63.864604 
L 161.212298 63.68406 
L 161.469072 63.503516 
L 161.554664 63.390677 
L 161.982622 63.164997 
L 162.068213 63.119861 
L 163.180904 62.713638 
L 163.180904 62.69107 
L 163.608862 62.533094 
L 163.608862 62.510526 
L 164.03682 62.352551 
L 164.635961 62.081735 
L 164.721552 61.991463 
L 165.235102 61.743216 
L 165.320693 61.652944 
L 165.66306 61.517536 
L 165.748651 61.382129 
L 167.118116 60.908201 
L 167.203708 60.863066 
L 167.974032 60.547114 
L 168.059624 60.456842 
L 168.573173 60.208595 
L 168.658765 60.140891 
L 169.086723 59.915211 
L 169.172314 59.802372 
L 170.456188 59.351013 
L 170.541779 59.260741 
L 170.798554 59.080197 
L 170.884146 58.944789 
L 171.825653 58.583702 
L 171.911244 58.515998 
L 173.023935 58.109775 
L 173.109526 58.019503 
L 173.794259 57.72612 
L 173.879851 57.568144 
L 175.163724 57.116785 
L 175.163724 57.071649 
L 175.848457 56.891105 
L 175.934048 56.845969 
L 176.362006 56.62029 
L 176.447598 56.552586 
L 177.988246 56.033523 
L 178.073838 55.875547 
L 178.501796 55.649868 
L 178.587387 55.582164 
L 179.785669 55.153373 
L 179.785669 55.130805 
L 180.38481 54.950261 
L 180.470402 54.837421 
L 181.583092 54.431198 
L 181.668684 54.318358 
L 182.5246 53.979839 
L 182.610191 53.889567 
L 185.777079 52.941713 
L 185.862671 52.828873 
L 186.632995 52.625762 
L 187.745686 52.219538 
L 187.831277 52.106699 
L 190.998165 51.158844 
L 191.083757 51.113709 
L 191.76849 50.820325 
L 191.854081 50.752621 
L 193.480321 50.21099 
L 193.565913 50.120718 
L 194.593011 49.962743 
L 194.678603 49.917607 
L 195.363336 49.737063 
L 195.448927 49.691927 
L 196.219251 49.55652 
L 202.724211 47.728515 
L 202.809803 47.683379 
L 206.404649 46.622685 
L 206.49024 46.554981 
L 206.918198 46.397006 
L 207.945297 46.01335 
L 207.945297 45.968215 
L 208.287663 45.832807 
L 208.373255 45.787671 
L 210.941002 44.997792 
L 211.026594 44.930089 
L 211.625735 44.659273 
L 211.711326 44.569001 
L 216.076497 43.305196 
L 216.162088 43.214924 
L 218.387469 42.515317 
L 218.473061 42.447613 
L 220.869625 41.905982 
L 221.468766 41.770575 
L 222.495865 41.386919 
L 222.495865 41.341784 
L 224.806837 40.93556 
L 229.34319 39.829731 
L 230.370289 39.649187 
L 230.455881 39.581483 
L 232.852445 39.039852 
L 234.821051 38.769037 
L 234.906643 38.723901 
L 236.532883 38.565925 
L 242.181927 37.121576 
L 243.209025 36.9636 
L 244.064941 36.805624 
L 244.664082 36.670217 
L 244.749674 36.625081 
L 247.231829 36.08345 
L 247.916562 35.925474 
L 249.286027 35.654659 
L 250.912267 35.451547 
L 252.110549 35.225867 
L 255.876578 34.797076 
L 255.876578 34.774508 
L 257.502818 34.616533 
L 261.696805 34.165174 
L 279.927811 33.442999 
L 285.576854 33.285023 
L 285.919221 33.239887 
L 323.579513 32.427441 
L 325.804894 32.382305 
L 337.873306 32.224329 
L 349.684943 32.201761 
L 349.684943 32.201761 
" style="fill:none;stroke:#1f77b4;stroke-linecap:square;stroke-width:1.5;"/>
   </g>
   <g id="patch_3">
    <path d="M 30.103125 239.758125 
L 30.103125 22.318125 
" style="fill:none;stroke:#000000;stroke-linecap:square;stroke-linejoin:miter;stroke-width:0.8;"/>
   </g>
   <g id="patch_4">
    <path d="M 364.903125 239.758125 
L 364.903125 22.318125 
" style="fill:none;stroke:#000000;stroke-linecap:square;stroke-linejoin:miter;stroke-width:0.8;"/>
   </g>
   <g id="patch_5">
    <path d="M 30.103125 239.758125 
L 364.903125 239.758125 
" style="fill:none;stroke:#000000;stroke-linecap:square;stroke-linejoin:miter;stroke-width:0.8;"/>
   </g>
   <g id="patch_6">
    <path d="M 30.103125 22.318125 
L 364.903125 22.318125 
" style="fill:none;stroke:#000000;stroke-linecap:square;stroke-linejoin:miter;stroke-width:0.8;"/>
   </g>
   <g id="text_15">
    <!-- Rented Bike Count -->
    <g transform="translate(141.8925 16.318125)scale(0.12 -0.12)">
     <defs>
      <path d="M 44.390625 34.1875 
Q 47.5625 33.109375 50.5625 29.59375 
Q 53.5625 26.078125 56.59375 19.921875 
L 66.609375 0 
L 56 0 
L 46.6875 18.703125 
Q 43.0625 26.03125 39.671875 28.421875 
Q 36.28125 30.8125 30.421875 30.8125 
L 19.671875 30.8125 
L 19.671875 0 
L 9.8125 0 
L 9.8125 72.90625 
L 32.078125 72.90625 
Q 44.578125 72.90625 50.734375 67.671875 
Q 56.890625 62.453125 56.890625 51.90625 
Q 56.890625 45.015625 53.6875 40.46875 
Q 50.484375 35.9375 44.390625 34.1875 
z
M 19.671875 64.796875 
L 19.671875 38.921875 
L 32.078125 38.921875 
Q 39.203125 38.921875 42.84375 42.21875 
Q 46.484375 45.515625 46.484375 51.90625 
Q 46.484375 58.296875 42.84375 61.546875 
Q 39.203125 64.796875 32.078125 64.796875 
z
" id="DejaVuSans-82"/>
      <path d="M 56.203125 29.59375 
L 56.203125 25.203125 
L 14.890625 25.203125 
Q 15.484375 15.921875 20.484375 11.0625 
Q 25.484375 6.203125 34.421875 6.203125 
Q 39.59375 6.203125 44.453125 7.46875 
Q 49.3125 8.734375 54.109375 11.28125 
L 54.109375 2.78125 
Q 49.265625 0.734375 44.1875 -0.34375 
Q 39.109375 -1.421875 33.890625 -1.421875 
Q 20.796875 -1.421875 13.15625 6.1875 
Q 5.515625 13.8125 5.515625 26.8125 
Q 5.515625 40.234375 12.765625 48.109375 
Q 20.015625 56 32.328125 56 
Q 43.359375 56 49.78125 48.890625 
Q 56.203125 41.796875 56.203125 29.59375 
z
M 47.21875 32.234375 
Q 47.125 39.59375 43.09375 43.984375 
Q 39.0625 48.390625 32.421875 48.390625 
Q 24.90625 48.390625 20.390625 44.140625 
Q 15.875 39.890625 15.1875 32.171875 
z
" id="DejaVuSans-101"/>
      <path d="M 54.890625 33.015625 
L 54.890625 0 
L 45.90625 0 
L 45.90625 32.71875 
Q 45.90625 40.484375 42.875 44.328125 
Q 39.84375 48.1875 33.796875 48.1875 
Q 26.515625 48.1875 22.3125 43.546875 
Q 18.109375 38.921875 18.109375 30.90625 
L 18.109375 0 
L 9.078125 0 
L 9.078125 54.6875 
L 18.109375 54.6875 
L 18.109375 46.1875 
Q 21.34375 51.125 25.703125 53.5625 
Q 30.078125 56 35.796875 56 
Q 45.21875 56 50.046875 50.171875 
Q 54.890625 44.34375 54.890625 33.015625 
z
" id="DejaVuSans-110"/>
      <path d="M 18.3125 70.21875 
L 18.3125 54.6875 
L 36.8125 54.6875 
L 36.8125 47.703125 
L 18.3125 47.703125 
L 18.3125 18.015625 
Q 18.3125 11.328125 20.140625 9.421875 
Q 21.96875 7.515625 27.59375 7.515625 
L 36.8125 7.515625 
L 36.8125 0 
L 27.59375 0 
Q 17.1875 0 13.234375 3.875 
Q 9.28125 7.765625 9.28125 18.015625 
L 9.28125 47.703125 
L 2.6875 47.703125 
L 2.6875 54.6875 
L 9.28125 54.6875 
L 9.28125 70.21875 
z
" id="DejaVuSans-116"/>
      <path d="M 45.40625 46.390625 
L 45.40625 75.984375 
L 54.390625 75.984375 
L 54.390625 0 
L 45.40625 0 
L 45.40625 8.203125 
Q 42.578125 3.328125 38.25 0.953125 
Q 33.9375 -1.421875 27.875 -1.421875 
Q 17.96875 -1.421875 11.734375 6.484375 
Q 5.515625 14.40625 5.515625 27.296875 
Q 5.515625 40.1875 11.734375 48.09375 
Q 17.96875 56 27.875 56 
Q 33.9375 56 38.25 53.625 
Q 42.578125 51.265625 45.40625 46.390625 
z
M 14.796875 27.296875 
Q 14.796875 17.390625 18.875 11.75 
Q 22.953125 6.109375 30.078125 6.109375 
Q 37.203125 6.109375 41.296875 11.75 
Q 45.40625 17.390625 45.40625 27.296875 
Q 45.40625 37.203125 41.296875 42.84375 
Q 37.203125 48.484375 30.078125 48.484375 
Q 22.953125 48.484375 18.875 42.84375 
Q 14.796875 37.203125 14.796875 27.296875 
z
" id="DejaVuSans-100"/>
      <path id="DejaVuSans-32"/>
      <path d="M 19.671875 34.8125 
L 19.671875 8.109375 
L 35.5 8.109375 
Q 43.453125 8.109375 47.28125 11.40625 
Q 51.125 14.703125 51.125 21.484375 
Q 51.125 28.328125 47.28125 31.5625 
Q 43.453125 34.8125 35.5 34.8125 
z
M 19.671875 64.796875 
L 19.671875 42.828125 
L 34.28125 42.828125 
Q 41.5 42.828125 45.03125 45.53125 
Q 48.578125 48.25 48.578125 53.8125 
Q 48.578125 59.328125 45.03125 62.0625 
Q 41.5 64.796875 34.28125 64.796875 
z
M 9.8125 72.90625 
L 35.015625 72.90625 
Q 46.296875 72.90625 52.390625 68.21875 
Q 58.5 63.53125 58.5 54.890625 
Q 58.5 48.1875 55.375 44.234375 
Q 52.25 40.28125 46.1875 39.3125 
Q 53.46875 37.75 57.5 32.78125 
Q 61.53125 27.828125 61.53125 20.40625 
Q 61.53125 10.640625 54.890625 5.3125 
Q 48.25 0 35.984375 0 
L 9.8125 0 
z
" id="DejaVuSans-66"/>
      <path d="M 9.421875 54.6875 
L 18.40625 54.6875 
L 18.40625 0 
L 9.421875 0 
z
M 9.421875 75.984375 
L 18.40625 75.984375 
L 18.40625 64.59375 
L 9.421875 64.59375 
z
" id="DejaVuSans-105"/>
      <path d="M 9.078125 75.984375 
L 18.109375 75.984375 
L 18.109375 31.109375 
L 44.921875 54.6875 
L 56.390625 54.6875 
L 27.390625 29.109375 
L 57.625 0 
L 45.90625 0 
L 18.109375 26.703125 
L 18.109375 0 
L 9.078125 0 
z
" id="DejaVuSans-107"/>
      <path d="M 64.40625 67.28125 
L 64.40625 56.890625 
Q 59.421875 61.53125 53.78125 63.8125 
Q 48.140625 66.109375 41.796875 66.109375 
Q 29.296875 66.109375 22.65625 58.46875 
Q 16.015625 50.828125 16.015625 36.375 
Q 16.015625 21.96875 22.65625 14.328125 
Q 29.296875 6.6875 41.796875 6.6875 
Q 48.140625 6.6875 53.78125 8.984375 
Q 59.421875 11.28125 64.40625 15.921875 
L 64.40625 5.609375 
Q 59.234375 2.09375 53.4375 0.328125 
Q 47.65625 -1.421875 41.21875 -1.421875 
Q 24.65625 -1.421875 15.125 8.703125 
Q 5.609375 18.84375 5.609375 36.375 
Q 5.609375 53.953125 15.125 64.078125 
Q 24.65625 74.21875 41.21875 74.21875 
Q 47.75 74.21875 53.53125 72.484375 
Q 59.328125 70.75 64.40625 67.28125 
z
" id="DejaVuSans-67"/>
      <path d="M 30.609375 48.390625 
Q 23.390625 48.390625 19.1875 42.75 
Q 14.984375 37.109375 14.984375 27.296875 
Q 14.984375 17.484375 19.15625 11.84375 
Q 23.34375 6.203125 30.609375 6.203125 
Q 37.796875 6.203125 41.984375 11.859375 
Q 46.1875 17.53125 46.1875 27.296875 
Q 46.1875 37.015625 41.984375 42.703125 
Q 37.796875 48.390625 30.609375 48.390625 
z
M 30.609375 56 
Q 42.328125 56 49.015625 48.375 
Q 55.71875 40.765625 55.71875 27.296875 
Q 55.71875 13.875 49.015625 6.21875 
Q 42.328125 -1.421875 30.609375 -1.421875 
Q 18.84375 -1.421875 12.171875 6.21875 
Q 5.515625 13.875 5.515625 27.296875 
Q 5.515625 40.765625 12.171875 48.375 
Q 18.84375 56 30.609375 56 
z
" id="DejaVuSans-111"/>
      <path d="M 8.5 21.578125 
L 8.5 54.6875 
L 17.484375 54.6875 
L 17.484375 21.921875 
Q 17.484375 14.15625 20.5 10.265625 
Q 23.53125 6.390625 29.59375 6.390625 
Q 36.859375 6.390625 41.078125 11.03125 
Q 45.3125 15.671875 45.3125 23.6875 
L 45.3125 54.6875 
L 54.296875 54.6875 
L 54.296875 0 
L 45.3125 0 
L 45.3125 8.40625 
Q 42.046875 3.421875 37.71875 1 
Q 33.40625 -1.421875 27.6875 -1.421875 
Q 18.265625 -1.421875 13.375 4.4375 
Q 8.5 10.296875 8.5 21.578125 
z
M 31.109375 56 
z
" id="DejaVuSans-117"/>
     </defs>
     <use xlink:href="#DejaVuSans-82"/>
     <use x="64.982422" xlink:href="#DejaVuSans-101"/>
     <use x="126.505859" xlink:href="#DejaVuSans-110"/>
     <use x="189.884766" xlink:href="#DejaVuSans-116"/>
     <use x="229.09375" xlink:href="#DejaVuSans-101"/>
     <use x="290.617188" xlink:href="#DejaVuSans-100"/>
     <use x="354.09375" xlink:href="#DejaVuSans-32"/>
     <use x="385.880859" xlink:href="#DejaVuSans-66"/>
     <use x="454.484375" xlink:href="#DejaVuSans-105"/>
     <use x="482.267578" xlink:href="#DejaVuSans-107"/>
     <use x="536.552734" xlink:href="#DejaVuSans-101"/>
     <use x="598.076172" xlink:href="#DejaVuSans-32"/>
     <use x="629.863281" xlink:href="#DejaVuSans-67"/>
     <use x="699.6875" xlink:href="#DejaVuSans-111"/>
     <use x="760.869141" xlink:href="#DejaVuSans-117"/>
     <use x="824.248047" xlink:href="#DejaVuSans-110"/>
     <use x="887.626953" xlink:href="#DejaVuSans-116"/>
    </g>
   </g>
  </g>
 </g>
 <defs>
  <clipPath id="p13b23e79c0">
   <rect height="217.44" width="334.8" x="30.103125" y="22.318125"/>
  </clipPath>
 </defs>
</svg>
