<?xml version="1.0" encoding="utf-8" standalone="no"?>
<!DOCTYPE svg PUBLIC "-//W3C//DTD SVG 1.1//EN"
  "http://www.w3.org/Graphics/SVG/1.1/DTD/svg11.dtd">
<!-- Created with matplotlib (https://matplotlib.org/) -->
<svg height="291.674375pt" version="1.1" viewBox="0 0 424.49375 291.674375" width="424.49375pt" xmlns="http://www.w3.org/2000/svg" xmlns:xlink="http://www.w3.org/1999/xlink">
 <metadata>
  <rdf:RDF xmlns:cc="http://creativecommons.org/ns#" xmlns:dc="http://purl.org/dc/elements/1.1/" xmlns:rdf="http://www.w3.org/1999/02/22-rdf-syntax-ns#">
   <cc:Work>
    <dc:type rdf:resource="http://purl.org/dc/dcmitype/StillImage"/>
    <dc:date>2021-02-20T15:29:26.404402</dc:date>
    <dc:format>image/svg+xml</dc:format>
    <dc:creator>
     <cc:Agent>
      <dc:title>Matplotlib v3.3.2, https://matplotlib.org/</dc:title>
     </cc:Agent>
    </dc:creator>
   </cc:Work>
  </rdf:RDF>
 </metadata>
 <defs>
  <style type="text/css">*{stroke-linecap:butt;stroke-linejoin:round;}</style>
 </defs>
 <g id="figure_1">
  <g id="patch_1">
   <path d="M 0 291.674375 
L 424.49375 291.674375 
L 424.49375 0 
L 0 0 
z
" style="fill:none;"/>
  </g>
  <g id="axes_1">
   <g id="patch_2">
    <path d="M 50.14375 254.118125 
L 209.81875 254.118125 
L 209.81875 22.318125 
L 50.14375 22.318125 
z
" style="fill:#ffffff;"/>
   </g>
   <g id="PathCollection_1">
    <defs>
     <path d="M 0 3 
C 0.795609 3 1.55874 2.683901 2.12132 2.12132 
C 2.683901 1.55874 3 0.795609 3 0 
C 3 -0.795609 2.683901 -1.55874 2.12132 -2.12132 
C 1.55874 -2.683901 0.795609 -3 0 -3 
C -0.795609 -3 -1.55874 -2.683901 -2.12132 -2.12132 
C -2.683901 -1.55874 -3 -0.795609 -3 0 
C -3 0.795609 -2.683901 1.55874 -2.12132 2.12132 
C -1.55874 2.683901 -0.795609 3 0 3 
z
" id="m05b818e632" style="stroke:#1f77b4;stroke-opacity:0.8;"/>
    </defs>
    <g clip-path="url(#pcf28d5b5c9)">
     <use style="fill:#1f77b4;fill-opacity:0.8;stroke:#1f77b4;stroke-opacity:0.8;" x="148.405288" xlink:href="#m05b818e632" y="138.218125"/>
     <use style="fill:#1f77b4;fill-opacity:0.8;stroke:#1f77b4;stroke-opacity:0.8;" x="74.709135" xlink:href="#m05b818e632" y="32.854489"/>
     <use style="fill:#1f77b4;fill-opacity:0.8;stroke:#1f77b4;stroke-opacity:0.8;" x="86.991827" xlink:href="#m05b818e632" y="32.854489"/>
     <use style="fill:#1f77b4;fill-opacity:0.8;stroke:#1f77b4;stroke-opacity:0.8;" x="148.405288" xlink:href="#m05b818e632" y="138.218125"/>
     <use style="fill:#1f77b4;fill-opacity:0.8;stroke:#1f77b4;stroke-opacity:0.8;" x="172.970673" xlink:href="#m05b818e632" y="138.218125"/>
     <use style="fill:#1f77b4;fill-opacity:0.8;stroke:#1f77b4;stroke-opacity:0.8;" x="136.122596" xlink:href="#m05b818e632" y="138.218125"/>
     <use style="fill:#1f77b4;fill-opacity:0.8;stroke:#1f77b4;stroke-opacity:0.8;" x="185.253365" xlink:href="#m05b818e632" y="138.218125"/>
     <use style="fill:#1f77b4;fill-opacity:0.8;stroke:#1f77b4;stroke-opacity:0.8;" x="136.122596" xlink:href="#m05b818e632" y="243.581761"/>
     <use style="fill:#1f77b4;fill-opacity:0.8;stroke:#1f77b4;stroke-opacity:0.8;" x="86.991827" xlink:href="#m05b818e632" y="138.218125"/>
     <use style="fill:#1f77b4;fill-opacity:0.8;stroke:#1f77b4;stroke-opacity:0.8;" x="123.839904" xlink:href="#m05b818e632" y="138.218125"/>
     <use style="fill:#1f77b4;fill-opacity:0.8;stroke:#1f77b4;stroke-opacity:0.8;" x="123.839904" xlink:href="#m05b818e632" y="32.854489"/>
     <use style="fill:#1f77b4;fill-opacity:0.8;stroke:#1f77b4;stroke-opacity:0.8;" x="172.970673" xlink:href="#m05b818e632" y="32.854489"/>
     <use style="fill:#1f77b4;fill-opacity:0.8;stroke:#1f77b4;stroke-opacity:0.8;" x="99.274519" xlink:href="#m05b818e632" y="32.854489"/>
     <use style="fill:#1f77b4;fill-opacity:0.8;stroke:#1f77b4;stroke-opacity:0.8;" x="136.122596" xlink:href="#m05b818e632" y="138.218125"/>
     <use style="fill:#1f77b4;fill-opacity:0.8;stroke:#1f77b4;stroke-opacity:0.8;" x="136.122596" xlink:href="#m05b818e632" y="138.218125"/>
     <use style="fill:#1f77b4;fill-opacity:0.8;stroke:#1f77b4;stroke-opacity:0.8;" x="160.687981" xlink:href="#m05b818e632" y="32.854489"/>
     <use style="fill:#1f77b4;fill-opacity:0.8;stroke:#1f77b4;stroke-opacity:0.8;" x="123.839904" xlink:href="#m05b818e632" y="138.218125"/>
     <use style="fill:#1f77b4;fill-opacity:0.8;stroke:#1f77b4;stroke-opacity:0.8;" x="111.557212" xlink:href="#m05b818e632" y="138.218125"/>
     <use style="fill:#1f77b4;fill-opacity:0.8;stroke:#1f77b4;stroke-opacity:0.8;" x="160.687981" xlink:href="#m05b818e632" y="138.218125"/>
     <use style="fill:#1f77b4;fill-opacity:0.8;stroke:#1f77b4;stroke-opacity:0.8;" x="50.14375" xlink:href="#m05b818e632" y="138.218125"/>
     <use style="fill:#1f77b4;fill-opacity:0.8;stroke:#1f77b4;stroke-opacity:0.8;" x="99.274519" xlink:href="#m05b818e632" y="32.854489"/>
     <use style="fill:#1f77b4;fill-opacity:0.8;stroke:#1f77b4;stroke-opacity:0.8;" x="209.81875" xlink:href="#m05b818e632" y="32.854489"/>
     <use style="fill:#1f77b4;fill-opacity:0.8;stroke:#1f77b4;stroke-opacity:0.8;" x="123.839904" xlink:href="#m05b818e632" y="32.854489"/>
     <use style="fill:#1f77b4;fill-opacity:0.8;stroke:#1f77b4;stroke-opacity:0.8;" x="123.839904" xlink:href="#m05b818e632" y="138.218125"/>
     <use style="fill:#1f77b4;fill-opacity:0.8;stroke:#1f77b4;stroke-opacity:0.8;" x="123.839904" xlink:href="#m05b818e632" y="32.854489"/>
     <use style="fill:#1f77b4;fill-opacity:0.8;stroke:#1f77b4;stroke-opacity:0.8;" x="123.839904" xlink:href="#m05b818e632" y="243.581761"/>
     <use style="fill:#1f77b4;fill-opacity:0.8;stroke:#1f77b4;stroke-opacity:0.8;" x="111.557212" xlink:href="#m05b818e632" y="138.218125"/>
     <use style="fill:#1f77b4;fill-opacity:0.8;stroke:#1f77b4;stroke-opacity:0.8;" x="99.274519" xlink:href="#m05b818e632" y="138.218125"/>
     <use style="fill:#1f77b4;fill-opacity:0.8;stroke:#1f77b4;stroke-opacity:0.8;" x="111.557212" xlink:href="#m05b818e632" y="138.218125"/>
     <use style="fill:#1f77b4;fill-opacity:0.8;stroke:#1f77b4;stroke-opacity:0.8;" x="123.839904" xlink:href="#m05b818e632" y="138.218125"/>
     <use style="fill:#1f77b4;fill-opacity:0.8;stroke:#1f77b4;stroke-opacity:0.8;" x="123.839904" xlink:href="#m05b818e632" y="138.218125"/>
     <use style="fill:#1f77b4;fill-opacity:0.8;stroke:#1f77b4;stroke-opacity:0.8;" x="99.274519" xlink:href="#m05b818e632" y="32.854489"/>
     <use style="fill:#1f77b4;fill-opacity:0.8;stroke:#1f77b4;stroke-opacity:0.8;" x="136.122596" xlink:href="#m05b818e632" y="138.218125"/>
     <use style="fill:#1f77b4;fill-opacity:0.8;stroke:#1f77b4;stroke-opacity:0.8;" x="136.122596" xlink:href="#m05b818e632" y="138.218125"/>
     <use style="fill:#1f77b4;fill-opacity:0.8;stroke:#1f77b4;stroke-opacity:0.8;" x="111.557212" xlink:href="#m05b818e632" y="32.854489"/>
     <use style="fill:#1f77b4;fill-opacity:0.8;stroke:#1f77b4;stroke-opacity:0.8;" x="111.557212" xlink:href="#m05b818e632" y="138.218125"/>
     <use style="fill:#1f77b4;fill-opacity:0.8;stroke:#1f77b4;stroke-opacity:0.8;" x="99.274519" xlink:href="#m05b818e632" y="243.581761"/>
     <use style="fill:#1f77b4;fill-opacity:0.8;stroke:#1f77b4;stroke-opacity:0.8;" x="123.839904" xlink:href="#m05b818e632" y="32.854489"/>
     <use style="fill:#1f77b4;fill-opacity:0.8;stroke:#1f77b4;stroke-opacity:0.8;" x="111.557212" xlink:href="#m05b818e632" y="138.218125"/>
     <use style="fill:#1f77b4;fill-opacity:0.8;stroke:#1f77b4;stroke-opacity:0.8;" x="99.274519" xlink:href="#m05b818e632" y="138.218125"/>
     <use style="fill:#1f77b4;fill-opacity:0.8;stroke:#1f77b4;stroke-opacity:0.8;" x="62.426442" xlink:href="#m05b818e632" y="32.854489"/>
    </g>
   </g>
   <g id="PolyCollection_1">
    <path clip-path="url(#pcf28d5b5c9)" d="M 50.14375 45.819266 
L 50.14375 152.850564 
L 51.756629 152.379768 
L 53.369508 151.908972 
L 54.982386 151.049008 
L 56.595265 150.248473 
L 58.208144 149.405316 
L 59.821023 148.513318 
L 61.433902 147.858779 
L 63.04678 147.317442 
L 64.659659 146.776105 
L 66.272538 146.231227 
L 67.885417 145.676059 
L 69.498295 145.119595 
L 71.111174 144.325137 
L 72.724053 143.142549 
L 74.336932 141.959962 
L 75.949811 141.248855 
L 77.562689 140.573484 
L 79.175568 139.960167 
L 80.788447 139.891578 
L 82.401326 139.690679 
L 84.014205 139.064327 
L 85.627083 138.324901 
L 87.239962 138.088035 
L 88.852841 137.233172 
L 90.46572 136.373291 
L 92.078598 135.818433 
L 93.691477 135.321413 
L 95.304356 134.818345 
L 96.917235 134.297442 
L 98.530114 133.708627 
L 100.142992 133.295518 
L 101.755871 133.013865 
L 103.36875 132.576554 
L 104.981629 132.049048 
L 106.594508 131.613469 
L 108.207386 131.294133 
L 109.820265 131.206546 
L 111.433144 130.969005 
L 113.046023 131.375884 
L 114.658902 131.004292 
L 116.27178 130.973184 
L 117.884659 130.933491 
L 119.497538 130.985098 
L 121.110417 131.132702 
L 122.723295 131.606123 
L 124.336174 131.721887 
L 125.949053 132.123771 
L 127.561932 132.722016 
L 129.174811 133.294876 
L 130.787689 133.696776 
L 132.400568 134.198798 
L 134.013447 135.150781 
L 135.626326 135.756785 
L 137.239205 136.362394 
L 138.852083 136.75069 
L 140.464962 137.804226 
L 142.077841 138.884394 
L 143.69072 139.734165 
L 145.303598 140.568357 
L 146.916477 141.478437 
L 148.529356 142.288715 
L 150.142235 143.236603 
L 151.755114 144.609484 
L 153.367992 145.343158 
L 154.980871 146.715493 
L 156.59375 147.976848 
L 158.206629 148.773325 
L 159.819508 150.085997 
L 161.432386 151.389451 
L 163.045265 152.692521 
L 164.658144 153.875139 
L 166.271023 155.115895 
L 167.883902 156.417883 
L 169.49678 157.714092 
L 171.109659 158.638622 
L 172.722538 160.222341 
L 174.335417 161.554741 
L 175.948295 162.919557 
L 177.561174 164.22447 
L 179.174053 165.522586 
L 180.786932 166.645257 
L 182.399811 167.626705 
L 184.012689 168.608153 
L 185.625568 169.589601 
L 187.238447 170.571049 
L 188.851326 171.552496 
L 190.464205 173.219933 
L 192.077083 175.008789 
L 193.689962 176.797645 
L 195.302841 178.529206 
L 196.91572 179.838253 
L 198.528598 181.139385 
L 200.141477 182.440516 
L 201.754356 183.741648 
L 203.367235 185.04278 
L 204.980114 186.343911 
L 206.592992 187.645043 
L 208.205871 188.946175 
L 209.81875 190.247306 
L 209.81875 68.684186 
L 209.81875 68.684186 
L 208.205871 69.451791 
L 206.592992 70.220272 
L 204.980114 70.990432 
L 203.367235 71.760592 
L 201.754356 72.531858 
L 200.141477 73.32509 
L 198.528598 74.087747 
L 196.91572 74.790803 
L 195.302841 75.603747 
L 193.689962 76.140192 
L 192.077083 76.666367 
L 190.464205 77.533065 
L 188.851326 78.263976 
L 187.238447 78.607517 
L 185.625568 79.199999 
L 184.012689 79.761064 
L 182.399811 80.421407 
L 180.786932 80.854824 
L 179.174053 81.618856 
L 177.561174 82.396432 
L 175.948295 82.734574 
L 174.335417 83.661952 
L 172.722538 84.184893 
L 171.109659 84.548781 
L 169.49678 85.154949 
L 167.883902 85.583276 
L 166.271023 85.923216 
L 164.658144 86.298082 
L 163.045265 86.507502 
L 161.432386 86.718197 
L 159.819508 87.224972 
L 158.206629 87.754608 
L 156.59375 88.166952 
L 154.980871 88.520738 
L 153.367992 88.955304 
L 151.755114 89.483723 
L 150.142235 90.276344 
L 148.529356 90.343893 
L 146.916477 90.708446 
L 145.303598 90.82631 
L 143.69072 91.017718 
L 142.077841 91.374039 
L 140.464962 91.735983 
L 138.852083 92.101033 
L 137.239205 92.462358 
L 135.626326 92.575431 
L 134.013447 92.633795 
L 132.400568 92.489938 
L 130.787689 92.267926 
L 129.174811 92.179114 
L 127.561932 92.100686 
L 125.949053 91.872544 
L 124.336174 91.439792 
L 122.723295 91.41533 
L 121.110417 90.953188 
L 119.497538 90.761259 
L 117.884659 89.939242 
L 116.27178 89.576881 
L 114.658902 88.929321 
L 113.046023 88.147289 
L 111.433144 87.286964 
L 109.820265 86.710395 
L 108.207386 86.005964 
L 106.594508 85.176597 
L 104.981629 84.606563 
L 103.36875 83.721889 
L 101.755871 82.752477 
L 100.142992 81.641428 
L 98.530114 80.625161 
L 96.917235 79.615705 
L 95.304356 78.437291 
L 93.691477 77.441778 
L 92.078598 76.69071 
L 90.46572 75.564261 
L 88.852841 74.460867 
L 87.239962 73.287553 
L 85.627083 71.958588 
L 84.014205 70.839064 
L 82.401326 70.099899 
L 80.788447 68.922326 
L 79.175568 67.749375 
L 77.562689 66.589706 
L 75.949811 65.606445 
L 74.336932 64.248956 
L 72.724053 63.332791 
L 71.111174 62.234061 
L 69.498295 60.99307 
L 67.885417 59.727905 
L 66.272538 58.378642 
L 64.659659 57.200921 
L 63.04678 55.85389 
L 61.433902 54.774108 
L 59.821023 53.670595 
L 58.208144 52.391976 
L 56.595265 51.100448 
L 54.982386 49.808921 
L 53.369508 48.545602 
L 51.756629 47.226954 
L 50.14375 45.819266 
z
" style="fill:#1f77b4;fill-opacity:0.15;"/>
   </g>
   <g id="matplotlib.axis_1">
    <g id="xtick_1">
     <g id="line2d_1">
      <defs>
       <path d="M 0 0 
L 0 3.5 
" id="me451f33eb7" style="stroke:#000000;stroke-width:0.8;"/>
      </defs>
      <g>
       <use style="stroke:#000000;stroke-width:0.8;" x="74.709135" xlink:href="#me451f33eb7" y="254.118125"/>
      </g>
     </g>
     <g id="text_1">
      <!-- 2 -->
      <g transform="translate(71.527885 268.716562)scale(0.1 -0.1)">
       <defs>
        <path d="M 19.1875 8.296875 
L 53.609375 8.296875 
L 53.609375 0 
L 7.328125 0 
L 7.328125 8.296875 
Q 12.9375 14.109375 22.625 23.890625 
Q 32.328125 33.6875 34.8125 36.53125 
Q 39.546875 41.84375 41.421875 45.53125 
Q 43.3125 49.21875 43.3125 52.78125 
Q 43.3125 58.59375 39.234375 62.25 
Q 35.15625 65.921875 28.609375 65.921875 
Q 23.96875 65.921875 18.8125 64.3125 
Q 13.671875 62.703125 7.8125 59.421875 
L 7.8125 69.390625 
Q 13.765625 71.78125 18.9375 73 
Q 24.125 74.21875 28.421875 74.21875 
Q 39.75 74.21875 46.484375 68.546875 
Q 53.21875 62.890625 53.21875 53.421875 
Q 53.21875 48.921875 51.53125 44.890625 
Q 49.859375 40.875 45.40625 35.40625 
Q 44.1875 33.984375 37.640625 27.21875 
Q 31.109375 20.453125 19.1875 8.296875 
z
" id="DejaVuSans-50"/>
       </defs>
       <use xlink:href="#DejaVuSans-50"/>
      </g>
     </g>
    </g>
    <g id="xtick_2">
     <g id="line2d_2">
      <g>
       <use style="stroke:#000000;stroke-width:0.8;" x="123.839904" xlink:href="#me451f33eb7" y="254.118125"/>
      </g>
     </g>
     <g id="text_2">
      <!-- 3 -->
      <g transform="translate(120.658654 268.716562)scale(0.1 -0.1)">
       <defs>
        <path d="M 40.578125 39.3125 
Q 47.65625 37.796875 51.625 33 
Q 55.609375 28.21875 55.609375 21.1875 
Q 55.609375 10.40625 48.1875 4.484375 
Q 40.765625 -1.421875 27.09375 -1.421875 
Q 22.515625 -1.421875 17.65625 -0.515625 
Q 12.796875 0.390625 7.625 2.203125 
L 7.625 11.71875 
Q 11.71875 9.328125 16.59375 8.109375 
Q 21.484375 6.890625 26.8125 6.890625 
Q 36.078125 6.890625 40.9375 10.546875 
Q 45.796875 14.203125 45.796875 21.1875 
Q 45.796875 27.640625 41.28125 31.265625 
Q 36.765625 34.90625 28.71875 34.90625 
L 20.21875 34.90625 
L 20.21875 43.015625 
L 29.109375 43.015625 
Q 36.375 43.015625 40.234375 45.921875 
Q 44.09375 48.828125 44.09375 54.296875 
Q 44.09375 59.90625 40.109375 62.90625 
Q 36.140625 65.921875 28.71875 65.921875 
Q 24.65625 65.921875 20.015625 65.03125 
Q 15.375 64.15625 9.8125 62.3125 
L 9.8125 71.09375 
Q 15.4375 72.65625 20.34375 73.4375 
Q 25.25 74.21875 29.59375 74.21875 
Q 40.828125 74.21875 47.359375 69.109375 
Q 53.90625 64.015625 53.90625 55.328125 
Q 53.90625 49.265625 50.4375 45.09375 
Q 46.96875 40.921875 40.578125 39.3125 
z
" id="DejaVuSans-51"/>
       </defs>
       <use xlink:href="#DejaVuSans-51"/>
      </g>
     </g>
    </g>
    <g id="xtick_3">
     <g id="line2d_3">
      <g>
       <use style="stroke:#000000;stroke-width:0.8;" x="172.970673" xlink:href="#me451f33eb7" y="254.118125"/>
      </g>
     </g>
     <g id="text_3">
      <!-- 4 -->
      <g transform="translate(169.789423 268.716562)scale(0.1 -0.1)">
       <defs>
        <path d="M 37.796875 64.3125 
L 12.890625 25.390625 
L 37.796875 25.390625 
z
M 35.203125 72.90625 
L 47.609375 72.90625 
L 47.609375 25.390625 
L 58.015625 25.390625 
L 58.015625 17.1875 
L 47.609375 17.1875 
L 47.609375 0 
L 37.796875 0 
L 37.796875 17.1875 
L 4.890625 17.1875 
L 4.890625 26.703125 
z
" id="DejaVuSans-52"/>
       </defs>
       <use xlink:href="#DejaVuSans-52"/>
      </g>
     </g>
    </g>
    <g id="text_4">
     <!-- E -->
     <g transform="translate(126.821875 282.394687)scale(0.1 -0.1)">
      <defs>
       <path d="M 9.8125 72.90625 
L 55.90625 72.90625 
L 55.90625 64.59375 
L 19.671875 64.59375 
L 19.671875 43.015625 
L 54.390625 43.015625 
L 54.390625 34.71875 
L 19.671875 34.71875 
L 19.671875 8.296875 
L 56.78125 8.296875 
L 56.78125 0 
L 9.8125 0 
z
" id="DejaVuSans-69"/>
      </defs>
      <use xlink:href="#DejaVuSans-69"/>
     </g>
    </g>
   </g>
   <g id="matplotlib.axis_2">
    <g id="ytick_1">
     <g id="line2d_4">
      <defs>
       <path d="M 0 0 
L -3.5 0 
" id="me4d2275fcf" style="stroke:#000000;stroke-width:0.8;"/>
      </defs>
      <g>
       <use style="stroke:#000000;stroke-width:0.8;" x="50.14375" xlink:href="#me4d2275fcf" y="243.581761"/>
      </g>
     </g>
     <g id="text_5">
      <!-- 3.00 -->
      <g transform="translate(20.878125 247.38098)scale(0.1 -0.1)">
       <defs>
        <path d="M 10.6875 12.40625 
L 21 12.40625 
L 21 0 
L 10.6875 0 
z
" id="DejaVuSans-46"/>
        <path d="M 31.78125 66.40625 
Q 24.171875 66.40625 20.328125 58.90625 
Q 16.5 51.421875 16.5 36.375 
Q 16.5 21.390625 20.328125 13.890625 
Q 24.171875 6.390625 31.78125 6.390625 
Q 39.453125 6.390625 43.28125 13.890625 
Q 47.125 21.390625 47.125 36.375 
Q 47.125 51.421875 43.28125 58.90625 
Q 39.453125 66.40625 31.78125 66.40625 
z
M 31.78125 74.21875 
Q 44.046875 74.21875 50.515625 64.515625 
Q 56.984375 54.828125 56.984375 36.375 
Q 56.984375 17.96875 50.515625 8.265625 
Q 44.046875 -1.421875 31.78125 -1.421875 
Q 19.53125 -1.421875 13.0625 8.265625 
Q 6.59375 17.96875 6.59375 36.375 
Q 6.59375 54.828125 13.0625 64.515625 
Q 19.53125 74.21875 31.78125 74.21875 
z
" id="DejaVuSans-48"/>
       </defs>
       <use xlink:href="#DejaVuSans-51"/>
       <use x="63.623047" xlink:href="#DejaVuSans-46"/>
       <use x="95.410156" xlink:href="#DejaVuSans-48"/>
       <use x="159.033203" xlink:href="#DejaVuSans-48"/>
      </g>
     </g>
    </g>
    <g id="ytick_2">
     <g id="line2d_5">
      <g>
       <use style="stroke:#000000;stroke-width:0.8;" x="50.14375" xlink:href="#me4d2275fcf" y="217.240852"/>
      </g>
     </g>
     <g id="text_6">
      <!-- 3.25 -->
      <g transform="translate(20.878125 221.040071)scale(0.1 -0.1)">
       <defs>
        <path d="M 10.796875 72.90625 
L 49.515625 72.90625 
L 49.515625 64.59375 
L 19.828125 64.59375 
L 19.828125 46.734375 
Q 21.96875 47.46875 24.109375 47.828125 
Q 26.265625 48.1875 28.421875 48.1875 
Q 40.625 48.1875 47.75 41.5 
Q 54.890625 34.8125 54.890625 23.390625 
Q 54.890625 11.625 47.5625 5.09375 
Q 40.234375 -1.421875 26.90625 -1.421875 
Q 22.3125 -1.421875 17.546875 -0.640625 
Q 12.796875 0.140625 7.71875 1.703125 
L 7.71875 11.625 
Q 12.109375 9.234375 16.796875 8.0625 
Q 21.484375 6.890625 26.703125 6.890625 
Q 35.15625 6.890625 40.078125 11.328125 
Q 45.015625 15.765625 45.015625 23.390625 
Q 45.015625 31 40.078125 35.4375 
Q 35.15625 39.890625 26.703125 39.890625 
Q 22.75 39.890625 18.8125 39.015625 
Q 14.890625 38.140625 10.796875 36.28125 
z
" id="DejaVuSans-53"/>
       </defs>
       <use xlink:href="#DejaVuSans-51"/>
       <use x="63.623047" xlink:href="#DejaVuSans-46"/>
       <use x="95.410156" xlink:href="#DejaVuSans-50"/>
       <use x="159.033203" xlink:href="#DejaVuSans-53"/>
      </g>
     </g>
    </g>
    <g id="ytick_3">
     <g id="line2d_6">
      <g>
       <use style="stroke:#000000;stroke-width:0.8;" x="50.14375" xlink:href="#me4d2275fcf" y="190.899943"/>
      </g>
     </g>
     <g id="text_7">
      <!-- 3.50 -->
      <g transform="translate(20.878125 194.699162)scale(0.1 -0.1)">
       <use xlink:href="#DejaVuSans-51"/>
       <use x="63.623047" xlink:href="#DejaVuSans-46"/>
       <use x="95.410156" xlink:href="#DejaVuSans-53"/>
       <use x="159.033203" xlink:href="#DejaVuSans-48"/>
      </g>
     </g>
    </g>
    <g id="ytick_4">
     <g id="line2d_7">
      <g>
       <use style="stroke:#000000;stroke-width:0.8;" x="50.14375" xlink:href="#me4d2275fcf" y="164.559034"/>
      </g>
     </g>
     <g id="text_8">
      <!-- 3.75 -->
      <g transform="translate(20.878125 168.358253)scale(0.1 -0.1)">
       <defs>
        <path d="M 8.203125 72.90625 
L 55.078125 72.90625 
L 55.078125 68.703125 
L 28.609375 0 
L 18.3125 0 
L 43.21875 64.59375 
L 8.203125 64.59375 
z
" id="DejaVuSans-55"/>
       </defs>
       <use xlink:href="#DejaVuSans-51"/>
       <use x="63.623047" xlink:href="#DejaVuSans-46"/>
       <use x="95.410156" xlink:href="#DejaVuSans-55"/>
       <use x="159.033203" xlink:href="#DejaVuSans-53"/>
      </g>
     </g>
    </g>
    <g id="ytick_5">
     <g id="line2d_8">
      <g>
       <use style="stroke:#000000;stroke-width:0.8;" x="50.14375" xlink:href="#me4d2275fcf" y="138.218125"/>
      </g>
     </g>
     <g id="text_9">
      <!-- 4.00 -->
      <g transform="translate(20.878125 142.017344)scale(0.1 -0.1)">
       <use xlink:href="#DejaVuSans-52"/>
       <use x="63.623047" xlink:href="#DejaVuSans-46"/>
       <use x="95.410156" xlink:href="#DejaVuSans-48"/>
       <use x="159.033203" xlink:href="#DejaVuSans-48"/>
      </g>
     </g>
    </g>
    <g id="ytick_6">
     <g id="line2d_9">
      <g>
       <use style="stroke:#000000;stroke-width:0.8;" x="50.14375" xlink:href="#me4d2275fcf" y="111.877216"/>
      </g>
     </g>
     <g id="text_10">
      <!-- 4.25 -->
      <g transform="translate(20.878125 115.676435)scale(0.1 -0.1)">
       <use xlink:href="#DejaVuSans-52"/>
       <use x="63.623047" xlink:href="#DejaVuSans-46"/>
       <use x="95.410156" xlink:href="#DejaVuSans-50"/>
       <use x="159.033203" xlink:href="#DejaVuSans-53"/>
      </g>
     </g>
    </g>
    <g id="ytick_7">
     <g id="line2d_10">
      <g>
       <use style="stroke:#000000;stroke-width:0.8;" x="50.14375" xlink:href="#me4d2275fcf" y="85.536307"/>
      </g>
     </g>
     <g id="text_11">
      <!-- 4.50 -->
      <g transform="translate(20.878125 89.335526)scale(0.1 -0.1)">
       <use xlink:href="#DejaVuSans-52"/>
       <use x="63.623047" xlink:href="#DejaVuSans-46"/>
       <use x="95.410156" xlink:href="#DejaVuSans-53"/>
       <use x="159.033203" xlink:href="#DejaVuSans-48"/>
      </g>
     </g>
    </g>
    <g id="ytick_8">
     <g id="line2d_11">
      <g>
       <use style="stroke:#000000;stroke-width:0.8;" x="50.14375" xlink:href="#me4d2275fcf" y="59.195398"/>
      </g>
     </g>
     <g id="text_12">
      <!-- 4.75 -->
      <g transform="translate(20.878125 62.994616)scale(0.1 -0.1)">
       <use xlink:href="#DejaVuSans-52"/>
       <use x="63.623047" xlink:href="#DejaVuSans-46"/>
       <use x="95.410156" xlink:href="#DejaVuSans-55"/>
       <use x="159.033203" xlink:href="#DejaVuSans-53"/>
      </g>
     </g>
    </g>
    <g id="ytick_9">
     <g id="line2d_12">
      <g>
       <use style="stroke:#000000;stroke-width:0.8;" x="50.14375" xlink:href="#me4d2275fcf" y="32.854489"/>
      </g>
     </g>
     <g id="text_13">
      <!-- 5.00 -->
      <g transform="translate(20.878125 36.653707)scale(0.1 -0.1)">
       <use xlink:href="#DejaVuSans-53"/>
       <use x="63.623047" xlink:href="#DejaVuSans-46"/>
       <use x="95.410156" xlink:href="#DejaVuSans-48"/>
       <use x="159.033203" xlink:href="#DejaVuSans-48"/>
      </g>
     </g>
    </g>
    <g id="text_14">
     <!-- Trust7 -->
     <g transform="translate(14.798438 153.504844)rotate(-90)scale(0.1 -0.1)">
      <defs>
       <path d="M -0.296875 72.90625 
L 61.375 72.90625 
L 61.375 64.59375 
L 35.5 64.59375 
L 35.5 0 
L 25.59375 0 
L 25.59375 64.59375 
L -0.296875 64.59375 
z
" id="DejaVuSans-84"/>
       <path d="M 41.109375 46.296875 
Q 39.59375 47.171875 37.8125 47.578125 
Q 36.03125 48 33.890625 48 
Q 26.265625 48 22.1875 43.046875 
Q 18.109375 38.09375 18.109375 28.8125 
L 18.109375 0 
L 9.078125 0 
L 9.078125 54.6875 
L 18.109375 54.6875 
L 18.109375 46.1875 
Q 20.953125 51.171875 25.484375 53.578125 
Q 30.03125 56 36.53125 56 
Q 37.453125 56 38.578125 55.875 
Q 39.703125 55.765625 41.0625 55.515625 
z
" id="DejaVuSans-114"/>
       <path d="M 8.5 21.578125 
L 8.5 54.6875 
L 17.484375 54.6875 
L 17.484375 21.921875 
Q 17.484375 14.15625 20.5 10.265625 
Q 23.53125 6.390625 29.59375 6.390625 
Q 36.859375 6.390625 41.078125 11.03125 
Q 45.3125 15.671875 45.3125 23.6875 
L 45.3125 54.6875 
L 54.296875 54.6875 
L 54.296875 0 
L 45.3125 0 
L 45.3125 8.40625 
Q 42.046875 3.421875 37.71875 1 
Q 33.40625 -1.421875 27.6875 -1.421875 
Q 18.265625 -1.421875 13.375 4.4375 
Q 8.5 10.296875 8.5 21.578125 
z
M 31.109375 56 
z
" id="DejaVuSans-117"/>
       <path d="M 44.28125 53.078125 
L 44.28125 44.578125 
Q 40.484375 46.53125 36.375 47.5 
Q 32.28125 48.484375 27.875 48.484375 
Q 21.1875 48.484375 17.84375 46.4375 
Q 14.5 44.390625 14.5 40.28125 
Q 14.5 37.15625 16.890625 35.375 
Q 19.28125 33.59375 26.515625 31.984375 
L 29.59375 31.296875 
Q 39.15625 29.25 43.1875 25.515625 
Q 47.21875 21.78125 47.21875 15.09375 
Q 47.21875 7.46875 41.1875 3.015625 
Q 35.15625 -1.421875 24.609375 -1.421875 
Q 20.21875 -1.421875 15.453125 -0.5625 
Q 10.6875 0.296875 5.421875 2 
L 5.421875 11.28125 
Q 10.40625 8.6875 15.234375 7.390625 
Q 20.0625 6.109375 24.8125 6.109375 
Q 31.15625 6.109375 34.5625 8.28125 
Q 37.984375 10.453125 37.984375 14.40625 
Q 37.984375 18.0625 35.515625 20.015625 
Q 33.0625 21.96875 24.703125 23.78125 
L 21.578125 24.515625 
Q 13.234375 26.265625 9.515625 29.90625 
Q 5.8125 33.546875 5.8125 39.890625 
Q 5.8125 47.609375 11.28125 51.796875 
Q 16.75 56 26.8125 56 
Q 31.78125 56 36.171875 55.265625 
Q 40.578125 54.546875 44.28125 53.078125 
z
" id="DejaVuSans-115"/>
       <path d="M 18.3125 70.21875 
L 18.3125 54.6875 
L 36.8125 54.6875 
L 36.8125 47.703125 
L 18.3125 47.703125 
L 18.3125 18.015625 
Q 18.3125 11.328125 20.140625 9.421875 
Q 21.96875 7.515625 27.59375 7.515625 
L 36.8125 7.515625 
L 36.8125 0 
L 27.59375 0 
Q 17.1875 0 13.234375 3.875 
Q 9.28125 7.765625 9.28125 18.015625 
L 9.28125 47.703125 
L 2.6875 47.703125 
L 2.6875 54.6875 
L 9.28125 54.6875 
L 9.28125 70.21875 
z
" id="DejaVuSans-116"/>
      </defs>
      <use xlink:href="#DejaVuSans-84"/>
      <use x="46.333984" xlink:href="#DejaVuSans-114"/>
      <use x="87.447266" xlink:href="#DejaVuSans-117"/>
      <use x="150.826172" xlink:href="#DejaVuSans-115"/>
      <use x="202.925781" xlink:href="#DejaVuSans-116"/>
      <use x="242.134766" xlink:href="#DejaVuSans-55"/>
     </g>
    </g>
   </g>
   <g id="line2d_13">
    <path clip-path="url(#pcf28d5b5c9)" d="M 50.14375 102.356936 
L 51.756629 102.525162 
L 53.369508 102.693388 
L 54.982386 102.861614 
L 56.595265 103.02984 
L 58.208144 103.198066 
L 59.821023 103.366292 
L 61.433902 103.534518 
L 63.04678 103.702744 
L 64.659659 103.87097 
L 66.272538 104.039196 
L 67.885417 104.207422 
L 69.498295 104.375648 
L 71.111174 104.543874 
L 72.724053 104.7121 
L 74.336932 104.880326 
L 75.949811 105.048552 
L 77.562689 105.216778 
L 79.175568 105.385004 
L 80.788447 105.55323 
L 82.401326 105.721456 
L 84.014205 105.889683 
L 85.627083 106.057909 
L 87.239962 106.226135 
L 88.852841 106.394361 
L 90.46572 106.562587 
L 92.078598 106.730813 
L 93.691477 106.899039 
L 95.304356 107.067265 
L 96.917235 107.235491 
L 98.530114 107.403717 
L 100.142992 107.571943 
L 101.755871 107.740169 
L 103.36875 107.908395 
L 104.981629 108.076621 
L 106.594508 108.244847 
L 108.207386 108.413073 
L 109.820265 108.581299 
L 111.433144 108.749525 
L 113.046023 108.917751 
L 114.658902 109.085977 
L 116.27178 109.254203 
L 117.884659 109.422429 
L 119.497538 109.590656 
L 121.110417 109.758882 
L 122.723295 109.927108 
L 124.336174 110.095334 
L 125.949053 110.26356 
L 127.561932 110.431786 
L 129.174811 110.600012 
L 130.787689 110.768238 
L 132.400568 110.936464 
L 134.013447 111.10469 
L 135.626326 111.272916 
L 137.239205 111.441142 
L 138.852083 111.609368 
L 140.464962 111.777594 
L 142.077841 111.94582 
L 143.69072 112.114046 
L 145.303598 112.282272 
L 146.916477 112.450498 
L 148.529356 112.618724 
L 150.142235 112.78695 
L 151.755114 112.955176 
L 153.367992 113.123402 
L 154.980871 113.291628 
L 156.59375 113.459855 
L 158.206629 113.628081 
L 159.819508 113.796307 
L 161.432386 113.964533 
L 163.045265 114.132759 
L 164.658144 114.300985 
L 166.271023 114.469211 
L 167.883902 114.637437 
L 169.49678 114.805663 
L 171.109659 114.973889 
L 172.722538 115.142115 
L 174.335417 115.310341 
L 175.948295 115.478567 
L 177.561174 115.646793 
L 179.174053 115.815019 
L 180.786932 115.983245 
L 182.399811 116.151471 
L 184.012689 116.319697 
L 185.625568 116.487923 
L 187.238447 116.656149 
L 188.851326 116.824375 
L 190.464205 116.992601 
L 192.077083 117.160828 
L 193.689962 117.329054 
L 195.302841 117.49728 
L 196.91572 117.665506 
L 198.528598 117.833732 
L 200.141477 118.001958 
L 201.754356 118.170184 
L 203.367235 118.33841 
L 204.980114 118.506636 
L 206.592992 118.674862 
L 208.205871 118.843088 
L 209.81875 119.011314 
" style="fill:none;stroke:#1f77b4;stroke-linecap:square;stroke-width:2.25;"/>
   </g>
   <g id="patch_3">
    <path d="M 50.14375 254.118125 
L 50.14375 22.318125 
" style="fill:none;stroke:#000000;stroke-linecap:square;stroke-linejoin:miter;stroke-width:0.8;"/>
   </g>
   <g id="patch_4">
    <path d="M 209.81875 254.118125 
L 209.81875 22.318125 
" style="fill:none;stroke:#000000;stroke-linecap:square;stroke-linejoin:miter;stroke-width:0.8;"/>
   </g>
   <g id="patch_5">
    <path d="M 50.14375 254.118125 
L 209.81875 254.118125 
" style="fill:none;stroke:#000000;stroke-linecap:square;stroke-linejoin:miter;stroke-width:0.8;"/>
   </g>
   <g id="patch_6">
    <path d="M 50.14375 22.318125 
L 209.81875 22.318125 
" style="fill:none;stroke:#000000;stroke-linecap:square;stroke-linejoin:miter;stroke-width:0.8;"/>
   </g>
   <g id="text_15">
    <!-- Group A -->
    <g transform="translate(50.14375 16.318125)scale(0.12 -0.12)">
     <defs>
      <path d="M 59.515625 10.40625 
L 59.515625 29.984375 
L 43.40625 29.984375 
L 43.40625 38.09375 
L 69.28125 38.09375 
L 69.28125 6.78125 
Q 63.578125 2.734375 56.6875 0.65625 
Q 49.8125 -1.421875 42 -1.421875 
Q 24.90625 -1.421875 15.25 8.5625 
Q 5.609375 18.5625 5.609375 36.375 
Q 5.609375 54.25 15.25 64.234375 
Q 24.90625 74.21875 42 74.21875 
Q 49.125 74.21875 55.546875 72.453125 
Q 61.96875 70.703125 67.390625 67.28125 
L 67.390625 56.78125 
Q 61.921875 61.421875 55.765625 63.765625 
Q 49.609375 66.109375 42.828125 66.109375 
Q 29.4375 66.109375 22.71875 58.640625 
Q 16.015625 51.171875 16.015625 36.375 
Q 16.015625 21.625 22.71875 14.15625 
Q 29.4375 6.6875 42.828125 6.6875 
Q 48.046875 6.6875 52.140625 7.59375 
Q 56.25 8.5 59.515625 10.40625 
z
" id="DejaVuSans-71"/>
      <path d="M 30.609375 48.390625 
Q 23.390625 48.390625 19.1875 42.75 
Q 14.984375 37.109375 14.984375 27.296875 
Q 14.984375 17.484375 19.15625 11.84375 
Q 23.34375 6.203125 30.609375 6.203125 
Q 37.796875 6.203125 41.984375 11.859375 
Q 46.1875 17.53125 46.1875 27.296875 
Q 46.1875 37.015625 41.984375 42.703125 
Q 37.796875 48.390625 30.609375 48.390625 
z
M 30.609375 56 
Q 42.328125 56 49.015625 48.375 
Q 55.71875 40.765625 55.71875 27.296875 
Q 55.71875 13.875 49.015625 6.21875 
Q 42.328125 -1.421875 30.609375 -1.421875 
Q 18.84375 -1.421875 12.171875 6.21875 
Q 5.515625 13.875 5.515625 27.296875 
Q 5.515625 40.765625 12.171875 48.375 
Q 18.84375 56 30.609375 56 
z
" id="DejaVuSans-111"/>
      <path d="M 18.109375 8.203125 
L 18.109375 -20.796875 
L 9.078125 -20.796875 
L 9.078125 54.6875 
L 18.109375 54.6875 
L 18.109375 46.390625 
Q 20.953125 51.265625 25.265625 53.625 
Q 29.59375 56 35.59375 56 
Q 45.5625 56 51.78125 48.09375 
Q 58.015625 40.1875 58.015625 27.296875 
Q 58.015625 14.40625 51.78125 6.484375 
Q 45.5625 -1.421875 35.59375 -1.421875 
Q 29.59375 -1.421875 25.265625 0.953125 
Q 20.953125 3.328125 18.109375 8.203125 
z
M 48.6875 27.296875 
Q 48.6875 37.203125 44.609375 42.84375 
Q 40.53125 48.484375 33.40625 48.484375 
Q 26.265625 48.484375 22.1875 42.84375 
Q 18.109375 37.203125 18.109375 27.296875 
Q 18.109375 17.390625 22.1875 11.75 
Q 26.265625 6.109375 33.40625 6.109375 
Q 40.53125 6.109375 44.609375 11.75 
Q 48.6875 17.390625 48.6875 27.296875 
z
" id="DejaVuSans-112"/>
      <path id="DejaVuSans-32"/>
      <path d="M 34.1875 63.1875 
L 20.796875 26.90625 
L 47.609375 26.90625 
z
M 28.609375 72.90625 
L 39.796875 72.90625 
L 67.578125 0 
L 57.328125 0 
L 50.6875 18.703125 
L 17.828125 18.703125 
L 11.1875 0 
L 0.78125 0 
z
" id="DejaVuSans-65"/>
     </defs>
     <use xlink:href="#DejaVuSans-71"/>
     <use x="77.490234" xlink:href="#DejaVuSans-114"/>
     <use x="116.353516" xlink:href="#DejaVuSans-111"/>
     <use x="177.535156" xlink:href="#DejaVuSans-117"/>
     <use x="240.914062" xlink:href="#DejaVuSans-112"/>
     <use x="304.390625" xlink:href="#DejaVuSans-32"/>
     <use x="336.177734" xlink:href="#DejaVuSans-65"/>
    </g>
   </g>
  </g>
  <g id="axes_2">
   <g id="patch_7">
    <path d="M 257.61875 254.118125 
L 417.29375 254.118125 
L 417.29375 22.318125 
L 257.61875 22.318125 
z
" style="fill:#ffffff;"/>
   </g>
   <g id="PathCollection_2">
    <g clip-path="url(#pa3557dea83)">
     <use style="fill:#1f77b4;fill-opacity:0.8;stroke:#1f77b4;stroke-opacity:0.8;" x="257.61875" xlink:href="#m05b818e632" y="88.278636"/>
     <use style="fill:#1f77b4;fill-opacity:0.8;stroke:#1f77b4;stroke-opacity:0.8;" x="269.901442" xlink:href="#m05b818e632" y="88.278636"/>
     <use style="fill:#1f77b4;fill-opacity:0.8;stroke:#1f77b4;stroke-opacity:0.8;" x="380.445673" xlink:href="#m05b818e632" y="88.278636"/>
     <use style="fill:#1f77b4;fill-opacity:0.8;stroke:#1f77b4;stroke-opacity:0.8;" x="343.597596" xlink:href="#m05b818e632" y="191.814053"/>
     <use style="fill:#1f77b4;fill-opacity:0.8;stroke:#1f77b4;stroke-opacity:0.8;" x="319.032212" xlink:href="#m05b818e632" y="88.278636"/>
     <use style="fill:#1f77b4;fill-opacity:0.8;stroke:#1f77b4;stroke-opacity:0.8;" x="380.445673" xlink:href="#m05b818e632" y="88.278636"/>
     <use style="fill:#1f77b4;fill-opacity:0.8;stroke:#1f77b4;stroke-opacity:0.8;" x="319.032212" xlink:href="#m05b818e632" y="36.510928"/>
     <use style="fill:#1f77b4;fill-opacity:0.8;stroke:#1f77b4;stroke-opacity:0.8;" x="343.597596" xlink:href="#m05b818e632" y="243.581761"/>
     <use style="fill:#1f77b4;fill-opacity:0.8;stroke:#1f77b4;stroke-opacity:0.8;" x="343.597596" xlink:href="#m05b818e632" y="88.278636"/>
     <use style="fill:#1f77b4;fill-opacity:0.8;stroke:#1f77b4;stroke-opacity:0.8;" x="368.162981" xlink:href="#m05b818e632" y="36.510928"/>
     <use style="fill:#1f77b4;fill-opacity:0.8;stroke:#1f77b4;stroke-opacity:0.8;" x="343.597596" xlink:href="#m05b818e632" y="140.046345"/>
     <use style="fill:#1f77b4;fill-opacity:0.8;stroke:#1f77b4;stroke-opacity:0.8;" x="380.445673" xlink:href="#m05b818e632" y="88.278636"/>
     <use style="fill:#1f77b4;fill-opacity:0.8;stroke:#1f77b4;stroke-opacity:0.8;" x="343.597596" xlink:href="#m05b818e632" y="140.046345"/>
     <use style="fill:#1f77b4;fill-opacity:0.8;stroke:#1f77b4;stroke-opacity:0.8;" x="392.728365" xlink:href="#m05b818e632" y="88.278636"/>
     <use style="fill:#1f77b4;fill-opacity:0.8;stroke:#1f77b4;stroke-opacity:0.8;" x="355.880288" xlink:href="#m05b818e632" y="140.046345"/>
     <use style="fill:#1f77b4;fill-opacity:0.8;stroke:#1f77b4;stroke-opacity:0.8;" x="392.728365" xlink:href="#m05b818e632" y="36.510928"/>
     <use style="fill:#1f77b4;fill-opacity:0.8;stroke:#1f77b4;stroke-opacity:0.8;" x="355.880288" xlink:href="#m05b818e632" y="36.510928"/>
     <use style="fill:#1f77b4;fill-opacity:0.8;stroke:#1f77b4;stroke-opacity:0.8;" x="319.032212" xlink:href="#m05b818e632" y="88.278636"/>
     <use style="fill:#1f77b4;fill-opacity:0.8;stroke:#1f77b4;stroke-opacity:0.8;" x="368.162981" xlink:href="#m05b818e632" y="36.510928"/>
     <use style="fill:#1f77b4;fill-opacity:0.8;stroke:#1f77b4;stroke-opacity:0.8;" x="282.184135" xlink:href="#m05b818e632" y="243.581761"/>
     <use style="fill:#1f77b4;fill-opacity:0.8;stroke:#1f77b4;stroke-opacity:0.8;" x="417.29375" xlink:href="#m05b818e632" y="88.278636"/>
     <use style="fill:#1f77b4;fill-opacity:0.8;stroke:#1f77b4;stroke-opacity:0.8;" x="319.032212" xlink:href="#m05b818e632" y="36.510928"/>
     <use style="fill:#1f77b4;fill-opacity:0.8;stroke:#1f77b4;stroke-opacity:0.8;" x="368.162981" xlink:href="#m05b818e632" y="88.278636"/>
     <use style="fill:#1f77b4;fill-opacity:0.8;stroke:#1f77b4;stroke-opacity:0.8;" x="380.445673" xlink:href="#m05b818e632" y="88.278636"/>
     <use style="fill:#1f77b4;fill-opacity:0.8;stroke:#1f77b4;stroke-opacity:0.8;" x="380.445673" xlink:href="#m05b818e632" y="36.510928"/>
     <use style="fill:#1f77b4;fill-opacity:0.8;stroke:#1f77b4;stroke-opacity:0.8;" x="319.032212" xlink:href="#m05b818e632" y="36.510928"/>
     <use style="fill:#1f77b4;fill-opacity:0.8;stroke:#1f77b4;stroke-opacity:0.8;" x="319.032212" xlink:href="#m05b818e632" y="88.278636"/>
     <use style="fill:#1f77b4;fill-opacity:0.8;stroke:#1f77b4;stroke-opacity:0.8;" x="319.032212" xlink:href="#m05b818e632" y="36.510928"/>
     <use style="fill:#1f77b4;fill-opacity:0.8;stroke:#1f77b4;stroke-opacity:0.8;" x="380.445673" xlink:href="#m05b818e632" y="36.510928"/>
     <use style="fill:#1f77b4;fill-opacity:0.8;stroke:#1f77b4;stroke-opacity:0.8;" x="380.445673" xlink:href="#m05b818e632" y="36.510928"/>
     <use style="fill:#1f77b4;fill-opacity:0.8;stroke:#1f77b4;stroke-opacity:0.8;" x="257.61875" xlink:href="#m05b818e632" y="88.278636"/>
     <use style="fill:#1f77b4;fill-opacity:0.8;stroke:#1f77b4;stroke-opacity:0.8;" x="331.314904" xlink:href="#m05b818e632" y="36.510928"/>
     <use style="fill:#1f77b4;fill-opacity:0.8;stroke:#1f77b4;stroke-opacity:0.8;" x="355.880288" xlink:href="#m05b818e632" y="88.278636"/>
     <use style="fill:#1f77b4;fill-opacity:0.8;stroke:#1f77b4;stroke-opacity:0.8;" x="319.032212" xlink:href="#m05b818e632" y="36.510928"/>
     <use style="fill:#1f77b4;fill-opacity:0.8;stroke:#1f77b4;stroke-opacity:0.8;" x="343.597596" xlink:href="#m05b818e632" y="88.278636"/>
     <use style="fill:#1f77b4;fill-opacity:0.8;stroke:#1f77b4;stroke-opacity:0.8;" x="331.314904" xlink:href="#m05b818e632" y="140.046345"/>
     <use style="fill:#1f77b4;fill-opacity:0.8;stroke:#1f77b4;stroke-opacity:0.8;" x="319.032212" xlink:href="#m05b818e632" y="88.278636"/>
     <use style="fill:#1f77b4;fill-opacity:0.8;stroke:#1f77b4;stroke-opacity:0.8;" x="368.162981" xlink:href="#m05b818e632" y="36.510928"/>
     <use style="fill:#1f77b4;fill-opacity:0.8;stroke:#1f77b4;stroke-opacity:0.8;" x="319.032212" xlink:href="#m05b818e632" y="140.046345"/>
     <use style="fill:#1f77b4;fill-opacity:0.8;stroke:#1f77b4;stroke-opacity:0.8;" x="319.032212" xlink:href="#m05b818e632" y="88.278636"/>
     <use style="fill:#1f77b4;fill-opacity:0.8;stroke:#1f77b4;stroke-opacity:0.8;" x="319.032212" xlink:href="#m05b818e632" y="36.510928"/>
     <use style="fill:#1f77b4;fill-opacity:0.8;stroke:#1f77b4;stroke-opacity:0.8;" x="380.445673" xlink:href="#m05b818e632" y="36.510928"/>
    </g>
   </g>
   <g id="PolyCollection_2">
    <path clip-path="url(#pa3557dea83)" d="M 257.61875 78.289669 
L 257.61875 158.612107 
L 259.231629 157.502089 
L 260.844508 156.31658 
L 262.457386 155.127967 
L 264.070265 153.939353 
L 265.683144 152.75074 
L 267.296023 151.562127 
L 268.908902 150.404702 
L 270.52178 149.339505 
L 272.134659 148.155305 
L 273.747538 146.967276 
L 275.360417 145.774454 
L 276.973295 144.745129 
L 278.586174 143.467448 
L 280.199053 142.206886 
L 281.811932 141.016788 
L 283.424811 139.82669 
L 285.037689 138.702358 
L 286.650568 137.656072 
L 288.263447 136.259449 
L 289.876326 135.246118 
L 291.489205 134.326214 
L 293.102083 133.366466 
L 294.714962 132.199753 
L 296.327841 131.030438 
L 297.94072 129.861124 
L 299.553598 128.89983 
L 301.166477 128.183142 
L 302.779356 127.290922 
L 304.392235 126.197135 
L 306.005114 124.92223 
L 307.617992 124.017877 
L 309.230871 123.113525 
L 310.84375 122.089831 
L 312.456629 120.721155 
L 314.069508 119.348214 
L 315.682386 118.205504 
L 317.295265 116.817824 
L 318.908144 115.78376 
L 320.521023 114.447619 
L 322.133902 113.423276 
L 323.74678 112.276186 
L 325.359659 111.376318 
L 326.972538 110.279758 
L 328.585417 109.48877 
L 330.198295 108.487186 
L 331.811174 107.589394 
L 333.424053 106.694689 
L 335.036932 106.493553 
L 336.649811 105.515822 
L 338.262689 104.486051 
L 339.875568 103.452436 
L 341.488447 102.696119 
L 343.101326 102.029132 
L 344.714205 101.415364 
L 346.327083 100.75728 
L 347.939962 100.195869 
L 349.552841 99.752776 
L 351.16572 99.250613 
L 352.778598 98.578162 
L 354.391477 97.756556 
L 356.004356 96.988719 
L 357.617235 96.085188 
L 359.230114 95.380356 
L 360.842992 94.902476 
L 362.455871 94.221467 
L 364.06875 93.50587 
L 365.681629 93.181987 
L 367.294508 92.913362 
L 368.907386 92.493528 
L 370.520265 92.304552 
L 372.133144 92.375934 
L 373.746023 92.072417 
L 375.358902 91.722419 
L 376.97178 91.228209 
L 378.584659 91.226571 
L 380.197538 90.908186 
L 381.810417 90.247843 
L 383.423295 89.595466 
L 385.036174 89.393954 
L 386.649053 89.292095 
L 388.261932 89.190236 
L 389.874811 88.73379 
L 391.487689 88.601218 
L 393.100568 88.677224 
L 394.713447 88.567644 
L 396.326326 88.39736 
L 397.939205 88.28638 
L 399.552083 88.28388 
L 401.164962 88.281379 
L 402.777841 88.289452 
L 404.39072 88.281745 
L 406.003598 88.283387 
L 407.616477 88.242067 
L 409.229356 88.019526 
L 410.842235 87.877017 
L 412.455114 87.891603 
L 414.067992 87.857053 
L 415.680871 87.813746 
L 417.29375 87.529049 
L 417.29375 32.854489 
L 417.29375 32.854489 
L 415.680871 34.105441 
L 414.067992 35.034774 
L 412.455114 36.311388 
L 410.842235 37.479498 
L 409.229356 38.638567 
L 407.616477 39.665784 
L 406.003598 40.6563 
L 404.39072 41.719846 
L 402.777841 42.662207 
L 401.164962 43.66516 
L 399.552083 44.668113 
L 397.939205 45.671066 
L 396.326326 46.679492 
L 394.713447 47.687091 
L 393.100568 48.672068 
L 391.487689 49.747076 
L 389.874811 50.709755 
L 388.261932 51.714682 
L 386.649053 52.713833 
L 385.036174 53.599575 
L 383.423295 54.783264 
L 381.810417 55.730205 
L 380.197538 56.63777 
L 378.584659 57.457689 
L 376.97178 58.272666 
L 375.358902 59.306602 
L 373.746023 60.174641 
L 372.133144 60.921451 
L 370.520265 61.606793 
L 368.907386 62.514303 
L 367.294508 63.17502 
L 365.681629 63.693436 
L 364.06875 64.365814 
L 362.455871 64.970458 
L 360.842992 65.451243 
L 359.230114 65.823604 
L 357.617235 66.32009 
L 356.004356 66.789858 
L 354.391477 67.306028 
L 352.778598 67.855171 
L 351.16572 68.341358 
L 349.552841 68.877597 
L 347.939962 69.503491 
L 346.327083 69.912652 
L 344.714205 70.255019 
L 343.101326 70.737777 
L 341.488447 71.163572 
L 339.875568 71.54224 
L 338.262689 71.842255 
L 336.649811 72.019725 
L 335.036932 72.557836 
L 333.424053 72.811895 
L 331.811174 72.765116 
L 330.198295 72.977752 
L 328.585417 73.016724 
L 326.972538 73.087463 
L 325.359659 73.630681 
L 323.74678 73.828796 
L 322.133902 73.787912 
L 320.521023 73.966536 
L 318.908144 74.247799 
L 317.295265 74.613304 
L 315.682386 74.703765 
L 314.069508 74.900948 
L 312.456629 74.966466 
L 310.84375 74.914462 
L 309.230871 74.98429 
L 307.617992 75.196905 
L 306.005114 75.413004 
L 304.392235 75.352853 
L 302.779356 75.509356 
L 301.166477 75.691472 
L 299.553598 75.877222 
L 297.94072 76.064633 
L 296.327841 76.252044 
L 294.714962 76.439455 
L 293.102083 76.550893 
L 291.489205 76.652657 
L 289.876326 76.870464 
L 288.263447 76.697997 
L 286.650568 76.748269 
L 285.037689 76.883084 
L 283.424811 77.152396 
L 281.811932 77.222879 
L 280.199053 77.296712 
L 278.586174 77.371918 
L 276.973295 77.588944 
L 275.360417 77.693267 
L 273.747538 77.706003 
L 272.134659 77.775358 
L 270.52178 77.764592 
L 268.908902 77.796706 
L 267.296023 77.865461 
L 265.683144 77.934217 
L 264.070265 78.002972 
L 262.457386 78.072546 
L 260.844508 78.14492 
L 259.231629 78.217295 
L 257.61875 78.289669 
z
" style="fill:#1f77b4;fill-opacity:0.15;"/>
   </g>
   <g id="matplotlib.axis_3">
    <g id="xtick_4">
     <g id="line2d_14">
      <g>
       <use style="stroke:#000000;stroke-width:0.8;" x="294.466827" xlink:href="#me451f33eb7" y="254.118125"/>
      </g>
     </g>
     <g id="text_16">
      <!-- 2 -->
      <g transform="translate(291.285577 268.716562)scale(0.1 -0.1)">
       <use xlink:href="#DejaVuSans-50"/>
      </g>
     </g>
    </g>
    <g id="xtick_5">
     <g id="line2d_15">
      <g>
       <use style="stroke:#000000;stroke-width:0.8;" x="343.597596" xlink:href="#me451f33eb7" y="254.118125"/>
      </g>
     </g>
     <g id="text_17">
      <!-- 3 -->
      <g transform="translate(340.416346 268.716562)scale(0.1 -0.1)">
       <use xlink:href="#DejaVuSans-51"/>
      </g>
     </g>
    </g>
    <g id="xtick_6">
     <g id="line2d_16">
      <g>
       <use style="stroke:#000000;stroke-width:0.8;" x="392.728365" xlink:href="#me451f33eb7" y="254.118125"/>
      </g>
     </g>
     <g id="text_18">
      <!-- 4 -->
      <g transform="translate(389.547115 268.716562)scale(0.1 -0.1)">
       <use xlink:href="#DejaVuSans-52"/>
      </g>
     </g>
    </g>
    <g id="text_19">
     <!-- E -->
     <g transform="translate(334.296875 282.394687)scale(0.1 -0.1)">
      <use xlink:href="#DejaVuSans-69"/>
     </g>
    </g>
   </g>
   <g id="matplotlib.axis_4">
    <g id="ytick_10">
     <g id="line2d_17">
      <g>
       <use style="stroke:#000000;stroke-width:0.8;" x="257.61875" xlink:href="#me4d2275fcf" y="243.581761"/>
      </g>
     </g>
     <g id="text_20">
      <!-- 1.0 -->
      <g transform="translate(234.715625 247.38098)scale(0.1 -0.1)">
       <defs>
        <path d="M 12.40625 8.296875 
L 28.515625 8.296875 
L 28.515625 63.921875 
L 10.984375 60.40625 
L 10.984375 69.390625 
L 28.421875 72.90625 
L 38.28125 72.90625 
L 38.28125 8.296875 
L 54.390625 8.296875 
L 54.390625 0 
L 12.40625 0 
z
" id="DejaVuSans-49"/>
       </defs>
       <use xlink:href="#DejaVuSans-49"/>
       <use x="63.623047" xlink:href="#DejaVuSans-46"/>
       <use x="95.410156" xlink:href="#DejaVuSans-48"/>
      </g>
     </g>
    </g>
    <g id="ytick_11">
     <g id="line2d_18">
      <g>
       <use style="stroke:#000000;stroke-width:0.8;" x="257.61875" xlink:href="#me4d2275fcf" y="217.697907"/>
      </g>
     </g>
     <g id="text_21">
      <!-- 1.5 -->
      <g transform="translate(234.715625 221.497126)scale(0.1 -0.1)">
       <use xlink:href="#DejaVuSans-49"/>
       <use x="63.623047" xlink:href="#DejaVuSans-46"/>
       <use x="95.410156" xlink:href="#DejaVuSans-53"/>
      </g>
     </g>
    </g>
    <g id="ytick_12">
     <g id="line2d_19">
      <g>
       <use style="stroke:#000000;stroke-width:0.8;" x="257.61875" xlink:href="#me4d2275fcf" y="191.814053"/>
      </g>
     </g>
     <g id="text_22">
      <!-- 2.0 -->
      <g transform="translate(234.715625 195.613272)scale(0.1 -0.1)">
       <use xlink:href="#DejaVuSans-50"/>
       <use x="63.623047" xlink:href="#DejaVuSans-46"/>
       <use x="95.410156" xlink:href="#DejaVuSans-48"/>
      </g>
     </g>
    </g>
    <g id="ytick_13">
     <g id="line2d_20">
      <g>
       <use style="stroke:#000000;stroke-width:0.8;" x="257.61875" xlink:href="#me4d2275fcf" y="165.930199"/>
      </g>
     </g>
     <g id="text_23">
      <!-- 2.5 -->
      <g transform="translate(234.715625 169.729418)scale(0.1 -0.1)">
       <use xlink:href="#DejaVuSans-50"/>
       <use x="63.623047" xlink:href="#DejaVuSans-46"/>
       <use x="95.410156" xlink:href="#DejaVuSans-53"/>
      </g>
     </g>
    </g>
    <g id="ytick_14">
     <g id="line2d_21">
      <g>
       <use style="stroke:#000000;stroke-width:0.8;" x="257.61875" xlink:href="#me4d2275fcf" y="140.046345"/>
      </g>
     </g>
     <g id="text_24">
      <!-- 3.0 -->
      <g transform="translate(234.715625 143.845563)scale(0.1 -0.1)">
       <use xlink:href="#DejaVuSans-51"/>
       <use x="63.623047" xlink:href="#DejaVuSans-46"/>
       <use x="95.410156" xlink:href="#DejaVuSans-48"/>
      </g>
     </g>
    </g>
    <g id="ytick_15">
     <g id="line2d_22">
      <g>
       <use style="stroke:#000000;stroke-width:0.8;" x="257.61875" xlink:href="#me4d2275fcf" y="114.162491"/>
      </g>
     </g>
     <g id="text_25">
      <!-- 3.5 -->
      <g transform="translate(234.715625 117.961709)scale(0.1 -0.1)">
       <use xlink:href="#DejaVuSans-51"/>
       <use x="63.623047" xlink:href="#DejaVuSans-46"/>
       <use x="95.410156" xlink:href="#DejaVuSans-53"/>
      </g>
     </g>
    </g>
    <g id="ytick_16">
     <g id="line2d_23">
      <g>
       <use style="stroke:#000000;stroke-width:0.8;" x="257.61875" xlink:href="#me4d2275fcf" y="88.278636"/>
      </g>
     </g>
     <g id="text_26">
      <!-- 4.0 -->
      <g transform="translate(234.715625 92.077855)scale(0.1 -0.1)">
       <use xlink:href="#DejaVuSans-52"/>
       <use x="63.623047" xlink:href="#DejaVuSans-46"/>
       <use x="95.410156" xlink:href="#DejaVuSans-48"/>
      </g>
     </g>
    </g>
    <g id="ytick_17">
     <g id="line2d_24">
      <g>
       <use style="stroke:#000000;stroke-width:0.8;" x="257.61875" xlink:href="#me4d2275fcf" y="62.394782"/>
      </g>
     </g>
     <g id="text_27">
      <!-- 4.5 -->
      <g transform="translate(234.715625 66.194001)scale(0.1 -0.1)">
       <use xlink:href="#DejaVuSans-52"/>
       <use x="63.623047" xlink:href="#DejaVuSans-46"/>
       <use x="95.410156" xlink:href="#DejaVuSans-53"/>
      </g>
     </g>
    </g>
    <g id="ytick_18">
     <g id="line2d_25">
      <g>
       <use style="stroke:#000000;stroke-width:0.8;" x="257.61875" xlink:href="#me4d2275fcf" y="36.510928"/>
      </g>
     </g>
     <g id="text_28">
      <!-- 5.0 -->
      <g transform="translate(234.715625 40.310147)scale(0.1 -0.1)">
       <use xlink:href="#DejaVuSans-53"/>
       <use x="63.623047" xlink:href="#DejaVuSans-46"/>
       <use x="95.410156" xlink:href="#DejaVuSans-48"/>
      </g>
     </g>
    </g>
    <g id="text_29">
     <!-- Trust7 -->
     <g transform="translate(228.635938 153.504844)rotate(-90)scale(0.1 -0.1)">
      <use xlink:href="#DejaVuSans-84"/>
      <use x="46.333984" xlink:href="#DejaVuSans-114"/>
      <use x="87.447266" xlink:href="#DejaVuSans-117"/>
      <use x="150.826172" xlink:href="#DejaVuSans-115"/>
      <use x="202.925781" xlink:href="#DejaVuSans-116"/>
      <use x="242.134766" xlink:href="#DejaVuSans-55"/>
     </g>
    </g>
   </g>
   <g id="line2d_26">
    <path clip-path="url(#pa3557dea83)" d="M 257.61875 111.133885 
L 259.231629 110.632366 
L 260.844508 110.130848 
L 262.457386 109.629329 
L 264.070265 109.12781 
L 265.683144 108.626291 
L 267.296023 108.124772 
L 268.908902 107.623253 
L 270.52178 107.121735 
L 272.134659 106.620216 
L 273.747538 106.118697 
L 275.360417 105.617178 
L 276.973295 105.115659 
L 278.586174 104.61414 
L 280.199053 104.112622 
L 281.811932 103.611103 
L 283.424811 103.109584 
L 285.037689 102.608065 
L 286.650568 102.106546 
L 288.263447 101.605027 
L 289.876326 101.103509 
L 291.489205 100.60199 
L 293.102083 100.100471 
L 294.714962 99.598952 
L 296.327841 99.097433 
L 297.94072 98.595914 
L 299.553598 98.094396 
L 301.166477 97.592877 
L 302.779356 97.091358 
L 304.392235 96.589839 
L 306.005114 96.08832 
L 307.617992 95.586801 
L 309.230871 95.085283 
L 310.84375 94.583764 
L 312.456629 94.082245 
L 314.069508 93.580726 
L 315.682386 93.079207 
L 317.295265 92.577688 
L 318.908144 92.07617 
L 320.521023 91.574651 
L 322.133902 91.073132 
L 323.74678 90.571613 
L 325.359659 90.070094 
L 326.972538 89.568575 
L 328.585417 89.067057 
L 330.198295 88.565538 
L 331.811174 88.064019 
L 333.424053 87.5625 
L 335.036932 87.060981 
L 336.649811 86.559462 
L 338.262689 86.057943 
L 339.875568 85.556425 
L 341.488447 85.054906 
L 343.101326 84.553387 
L 344.714205 84.051868 
L 346.327083 83.550349 
L 347.939962 83.04883 
L 349.552841 82.547312 
L 351.16572 82.045793 
L 352.778598 81.544274 
L 354.391477 81.042755 
L 356.004356 80.541236 
L 357.617235 80.039717 
L 359.230114 79.538199 
L 360.842992 79.03668 
L 362.455871 78.535161 
L 364.06875 78.033642 
L 365.681629 77.532123 
L 367.294508 77.030604 
L 368.907386 76.529086 
L 370.520265 76.027567 
L 372.133144 75.526048 
L 373.746023 75.024529 
L 375.358902 74.52301 
L 376.97178 74.021491 
L 378.584659 73.519973 
L 380.197538 73.018454 
L 381.810417 72.516935 
L 383.423295 72.015416 
L 385.036174 71.513897 
L 386.649053 71.012378 
L 388.261932 70.51086 
L 389.874811 70.009341 
L 391.487689 69.507822 
L 393.100568 69.006303 
L 394.713447 68.504784 
L 396.326326 68.003265 
L 397.939205 67.501747 
L 399.552083 67.000228 
L 401.164962 66.498709 
L 402.777841 65.99719 
L 404.39072 65.495671 
L 406.003598 64.994152 
L 407.616477 64.492634 
L 409.229356 63.991115 
L 410.842235 63.489596 
L 412.455114 62.988077 
L 414.067992 62.486558 
L 415.680871 61.985039 
L 417.29375 61.48352 
" style="fill:none;stroke:#1f77b4;stroke-linecap:square;stroke-width:2.25;"/>
   </g>
   <g id="patch_8">
    <path d="M 257.61875 254.118125 
L 257.61875 22.318125 
" style="fill:none;stroke:#000000;stroke-linecap:square;stroke-linejoin:miter;stroke-width:0.8;"/>
   </g>
   <g id="patch_9">
    <path d="M 417.29375 254.118125 
L 417.29375 22.318125 
" style="fill:none;stroke:#000000;stroke-linecap:square;stroke-linejoin:miter;stroke-width:0.8;"/>
   </g>
   <g id="patch_10">
    <path d="M 257.61875 254.118125 
L 417.29375 254.118125 
" style="fill:none;stroke:#000000;stroke-linecap:square;stroke-linejoin:miter;stroke-width:0.8;"/>
   </g>
   <g id="patch_11">
    <path d="M 257.61875 22.318125 
L 417.29375 22.318125 
" style="fill:none;stroke:#000000;stroke-linecap:square;stroke-linejoin:miter;stroke-width:0.8;"/>
   </g>
   <g id="text_30">
    <!-- Group B -->
    <g transform="translate(257.61875 16.318125)scale(0.12 -0.12)">
     <defs>
      <path d="M 19.671875 34.8125 
L 19.671875 8.109375 
L 35.5 8.109375 
Q 43.453125 8.109375 47.28125 11.40625 
Q 51.125 14.703125 51.125 21.484375 
Q 51.125 28.328125 47.28125 31.5625 
Q 43.453125 34.8125 35.5 34.8125 
z
M 19.671875 64.796875 
L 19.671875 42.828125 
L 34.28125 42.828125 
Q 41.5 42.828125 45.03125 45.53125 
Q 48.578125 48.25 48.578125 53.8125 
Q 48.578125 59.328125 45.03125 62.0625 
Q 41.5 64.796875 34.28125 64.796875 
z
M 9.8125 72.90625 
L 35.015625 72.90625 
Q 46.296875 72.90625 52.390625 68.21875 
Q 58.5 63.53125 58.5 54.890625 
Q 58.5 48.1875 55.375 44.234375 
Q 52.25 40.28125 46.1875 39.3125 
Q 53.46875 37.75 57.5 32.78125 
Q 61.53125 27.828125 61.53125 20.40625 
Q 61.53125 10.640625 54.890625 5.3125 
Q 48.25 0 35.984375 0 
L 9.8125 0 
z
" id="DejaVuSans-66"/>
     </defs>
     <use xlink:href="#DejaVuSans-71"/>
     <use x="77.490234" xlink:href="#DejaVuSans-114"/>
     <use x="116.353516" xlink:href="#DejaVuSans-111"/>
     <use x="177.535156" xlink:href="#DejaVuSans-117"/>
     <use x="240.914062" xlink:href="#DejaVuSans-112"/>
     <use x="304.390625" xlink:href="#DejaVuSans-32"/>
     <use x="336.177734" xlink:href="#DejaVuSans-66"/>
    </g>
   </g>
  </g>
  <g id="text_31">
   <!-- I believe the bike chatbot is trustworthy. -->
   <g transform="translate(91.184375 22.79625)scale(0.12 -0.12)">
    <defs>
     <path d="M 9.8125 72.90625 
L 19.671875 72.90625 
L 19.671875 0 
L 9.8125 0 
z
" id="DejaVuSans-73"/>
     <path d="M 48.6875 27.296875 
Q 48.6875 37.203125 44.609375 42.84375 
Q 40.53125 48.484375 33.40625 48.484375 
Q 26.265625 48.484375 22.1875 42.84375 
Q 18.109375 37.203125 18.109375 27.296875 
Q 18.109375 17.390625 22.1875 11.75 
Q 26.265625 6.109375 33.40625 6.109375 
Q 40.53125 6.109375 44.609375 11.75 
Q 48.6875 17.390625 48.6875 27.296875 
z
M 18.109375 46.390625 
Q 20.953125 51.265625 25.265625 53.625 
Q 29.59375 56 35.59375 56 
Q 45.5625 56 51.78125 48.09375 
Q 58.015625 40.1875 58.015625 27.296875 
Q 58.015625 14.40625 51.78125 6.484375 
Q 45.5625 -1.421875 35.59375 -1.421875 
Q 29.59375 -1.421875 25.265625 0.953125 
Q 20.953125 3.328125 18.109375 8.203125 
L 18.109375 0 
L 9.078125 0 
L 9.078125 75.984375 
L 18.109375 75.984375 
z
" id="DejaVuSans-98"/>
     <path d="M 56.203125 29.59375 
L 56.203125 25.203125 
L 14.890625 25.203125 
Q 15.484375 15.921875 20.484375 11.0625 
Q 25.484375 6.203125 34.421875 6.203125 
Q 39.59375 6.203125 44.453125 7.46875 
Q 49.3125 8.734375 54.109375 11.28125 
L 54.109375 2.78125 
Q 49.265625 0.734375 44.1875 -0.34375 
Q 39.109375 -1.421875 33.890625 -1.421875 
Q 20.796875 -1.421875 13.15625 6.1875 
Q 5.515625 13.8125 5.515625 26.8125 
Q 5.515625 40.234375 12.765625 48.109375 
Q 20.015625 56 32.328125 56 
Q 43.359375 56 49.78125 48.890625 
Q 56.203125 41.796875 56.203125 29.59375 
z
M 47.21875 32.234375 
Q 47.125 39.59375 43.09375 43.984375 
Q 39.0625 48.390625 32.421875 48.390625 
Q 24.90625 48.390625 20.390625 44.140625 
Q 15.875 39.890625 15.1875 32.171875 
z
" id="DejaVuSans-101"/>
     <path d="M 9.421875 75.984375 
L 18.40625 75.984375 
L 18.40625 0 
L 9.421875 0 
z
" id="DejaVuSans-108"/>
     <path d="M 9.421875 54.6875 
L 18.40625 54.6875 
L 18.40625 0 
L 9.421875 0 
z
M 9.421875 75.984375 
L 18.40625 75.984375 
L 18.40625 64.59375 
L 9.421875 64.59375 
z
" id="DejaVuSans-105"/>
     <path d="M 2.984375 54.6875 
L 12.5 54.6875 
L 29.59375 8.796875 
L 46.6875 54.6875 
L 56.203125 54.6875 
L 35.6875 0 
L 23.484375 0 
z
" id="DejaVuSans-118"/>
     <path d="M 54.890625 33.015625 
L 54.890625 0 
L 45.90625 0 
L 45.90625 32.71875 
Q 45.90625 40.484375 42.875 44.328125 
Q 39.84375 48.1875 33.796875 48.1875 
Q 26.515625 48.1875 22.3125 43.546875 
Q 18.109375 38.921875 18.109375 30.90625 
L 18.109375 0 
L 9.078125 0 
L 9.078125 75.984375 
L 18.109375 75.984375 
L 18.109375 46.1875 
Q 21.34375 51.125 25.703125 53.5625 
Q 30.078125 56 35.796875 56 
Q 45.21875 56 50.046875 50.171875 
Q 54.890625 44.34375 54.890625 33.015625 
z
" id="DejaVuSans-104"/>
     <path d="M 9.078125 75.984375 
L 18.109375 75.984375 
L 18.109375 31.109375 
L 44.921875 54.6875 
L 56.390625 54.6875 
L 27.390625 29.109375 
L 57.625 0 
L 45.90625 0 
L 18.109375 26.703125 
L 18.109375 0 
L 9.078125 0 
z
" id="DejaVuSans-107"/>
     <path d="M 48.78125 52.59375 
L 48.78125 44.1875 
Q 44.96875 46.296875 41.140625 47.34375 
Q 37.3125 48.390625 33.40625 48.390625 
Q 24.65625 48.390625 19.8125 42.84375 
Q 14.984375 37.3125 14.984375 27.296875 
Q 14.984375 17.28125 19.8125 11.734375 
Q 24.65625 6.203125 33.40625 6.203125 
Q 37.3125 6.203125 41.140625 7.25 
Q 44.96875 8.296875 48.78125 10.40625 
L 48.78125 2.09375 
Q 45.015625 0.34375 40.984375 -0.53125 
Q 36.96875 -1.421875 32.421875 -1.421875 
Q 20.0625 -1.421875 12.78125 6.34375 
Q 5.515625 14.109375 5.515625 27.296875 
Q 5.515625 40.671875 12.859375 48.328125 
Q 20.21875 56 33.015625 56 
Q 37.15625 56 41.109375 55.140625 
Q 45.0625 54.296875 48.78125 52.59375 
z
" id="DejaVuSans-99"/>
     <path d="M 34.28125 27.484375 
Q 23.390625 27.484375 19.1875 25 
Q 14.984375 22.515625 14.984375 16.5 
Q 14.984375 11.71875 18.140625 8.90625 
Q 21.296875 6.109375 26.703125 6.109375 
Q 34.1875 6.109375 38.703125 11.40625 
Q 43.21875 16.703125 43.21875 25.484375 
L 43.21875 27.484375 
z
M 52.203125 31.203125 
L 52.203125 0 
L 43.21875 0 
L 43.21875 8.296875 
Q 40.140625 3.328125 35.546875 0.953125 
Q 30.953125 -1.421875 24.3125 -1.421875 
Q 15.921875 -1.421875 10.953125 3.296875 
Q 6 8.015625 6 15.921875 
Q 6 25.140625 12.171875 29.828125 
Q 18.359375 34.515625 30.609375 34.515625 
L 43.21875 34.515625 
L 43.21875 35.40625 
Q 43.21875 41.609375 39.140625 45 
Q 35.0625 48.390625 27.6875 48.390625 
Q 23 48.390625 18.546875 47.265625 
Q 14.109375 46.140625 10.015625 43.890625 
L 10.015625 52.203125 
Q 14.9375 54.109375 19.578125 55.046875 
Q 24.21875 56 28.609375 56 
Q 40.484375 56 46.34375 49.84375 
Q 52.203125 43.703125 52.203125 31.203125 
z
" id="DejaVuSans-97"/>
     <path d="M 4.203125 54.6875 
L 13.1875 54.6875 
L 24.421875 12.015625 
L 35.59375 54.6875 
L 46.1875 54.6875 
L 57.421875 12.015625 
L 68.609375 54.6875 
L 77.59375 54.6875 
L 63.28125 0 
L 52.6875 0 
L 40.921875 44.828125 
L 29.109375 0 
L 18.5 0 
z
" id="DejaVuSans-119"/>
     <path d="M 32.171875 -5.078125 
Q 28.375 -14.84375 24.75 -17.8125 
Q 21.140625 -20.796875 15.09375 -20.796875 
L 7.90625 -20.796875 
L 7.90625 -13.28125 
L 13.1875 -13.28125 
Q 16.890625 -13.28125 18.9375 -11.515625 
Q 21 -9.765625 23.484375 -3.21875 
L 25.09375 0.875 
L 2.984375 54.6875 
L 12.5 54.6875 
L 29.59375 11.921875 
L 46.6875 54.6875 
L 56.203125 54.6875 
z
" id="DejaVuSans-121"/>
    </defs>
    <use xlink:href="#DejaVuSans-73"/>
    <use x="29.492188" xlink:href="#DejaVuSans-32"/>
    <use x="61.279297" xlink:href="#DejaVuSans-98"/>
    <use x="124.755859" xlink:href="#DejaVuSans-101"/>
    <use x="186.279297" xlink:href="#DejaVuSans-108"/>
    <use x="214.0625" xlink:href="#DejaVuSans-105"/>
    <use x="241.845703" xlink:href="#DejaVuSans-101"/>
    <use x="303.369141" xlink:href="#DejaVuSans-118"/>
    <use x="362.548828" xlink:href="#DejaVuSans-101"/>
    <use x="424.072266" xlink:href="#DejaVuSans-32"/>
    <use x="455.859375" xlink:href="#DejaVuSans-116"/>
    <use x="495.068359" xlink:href="#DejaVuSans-104"/>
    <use x="558.447266" xlink:href="#DejaVuSans-101"/>
    <use x="619.970703" xlink:href="#DejaVuSans-32"/>
    <use x="651.757812" xlink:href="#DejaVuSans-98"/>
    <use x="715.234375" xlink:href="#DejaVuSans-105"/>
    <use x="743.017578" xlink:href="#DejaVuSans-107"/>
    <use x="797.302734" xlink:href="#DejaVuSans-101"/>
    <use x="858.826172" xlink:href="#DejaVuSans-32"/>
    <use x="890.613281" xlink:href="#DejaVuSans-99"/>
    <use x="945.59375" xlink:href="#DejaVuSans-104"/>
    <use x="1008.972656" xlink:href="#DejaVuSans-97"/>
    <use x="1070.251953" xlink:href="#DejaVuSans-116"/>
    <use x="1109.460938" xlink:href="#DejaVuSans-98"/>
    <use x="1172.9375" xlink:href="#DejaVuSans-111"/>
    <use x="1234.119141" xlink:href="#DejaVuSans-116"/>
    <use x="1273.328125" xlink:href="#DejaVuSans-32"/>
    <use x="1305.115234" xlink:href="#DejaVuSans-105"/>
    <use x="1332.898438" xlink:href="#DejaVuSans-115"/>
    <use x="1384.998047" xlink:href="#DejaVuSans-32"/>
    <use x="1416.785156" xlink:href="#DejaVuSans-116"/>
    <use x="1455.994141" xlink:href="#DejaVuSans-114"/>
    <use x="1497.107422" xlink:href="#DejaVuSans-117"/>
    <use x="1560.486328" xlink:href="#DejaVuSans-115"/>
    <use x="1612.585938" xlink:href="#DejaVuSans-116"/>
    <use x="1651.794922" xlink:href="#DejaVuSans-119"/>
    <use x="1733.582031" xlink:href="#DejaVuSans-111"/>
    <use x="1794.763672" xlink:href="#DejaVuSans-114"/>
    <use x="1835.876953" xlink:href="#DejaVuSans-116"/>
    <use x="1875.085938" xlink:href="#DejaVuSans-104"/>
    <use x="1938.464844" xlink:href="#DejaVuSans-121"/>
    <use x="1983.394531" xlink:href="#DejaVuSans-46"/>
   </g>
  </g>
 </g>
 <defs>
  <clipPath id="pcf28d5b5c9">
   <rect height="231.8" width="159.675" x="50.14375" y="22.318125"/>
  </clipPath>
  <clipPath id="pa3557dea83">
   <rect height="231.8" width="159.675" x="257.61875" y="22.318125"/>
  </clipPath>
 </defs>
</svg>
