<?xml version="1.0" encoding="utf-8" standalone="no"?>
<!DOCTYPE svg PUBLIC "-//W3C//DTD SVG 1.1//EN"
  "http://www.w3.org/Graphics/SVG/1.1/DTD/svg11.dtd">
<!-- Created with matplotlib (https://matplotlib.org/) -->
<svg height="291.674375pt" version="1.1" viewBox="0 0 424.38125 291.674375" width="424.38125pt" xmlns="http://www.w3.org/2000/svg" xmlns:xlink="http://www.w3.org/1999/xlink">
 <metadata>
  <rdf:RDF xmlns:cc="http://creativecommons.org/ns#" xmlns:dc="http://purl.org/dc/elements/1.1/" xmlns:rdf="http://www.w3.org/1999/02/22-rdf-syntax-ns#">
   <cc:Work>
    <dc:type rdf:resource="http://purl.org/dc/dcmitype/StillImage"/>
    <dc:date>2021-02-20T15:29:27.400225</dc:date>
    <dc:format>image/svg+xml</dc:format>
    <dc:creator>
     <cc:Agent>
      <dc:title>Matplotlib v3.3.2, https://matplotlib.org/</dc:title>
     </cc:Agent>
    </dc:creator>
   </cc:Work>
  </rdf:RDF>
 </metadata>
 <defs>
  <style type="text/css">*{stroke-linecap:butt;stroke-linejoin:round;}</style>
 </defs>
 <g id="figure_1">
  <g id="patch_1">
   <path d="M 0 291.674375 
L 424.38125 291.674375 
L 424.38125 0 
L 0 0 
z
" style="fill:none;"/>
  </g>
  <g id="axes_1">
   <g id="patch_2">
    <path d="M 43.78125 254.118125 
L 206.58125 254.118125 
L 206.58125 22.318125 
L 43.78125 22.318125 
z
" style="fill:#ffffff;"/>
   </g>
   <g id="PathCollection_1">
    <defs>
     <path d="M 0 3 
C 0.795609 3 1.55874 2.683901 2.12132 2.12132 
C 2.683901 1.55874 3 0.795609 3 0 
C 3 -0.795609 2.683901 -1.55874 2.12132 -2.12132 
C 1.55874 -2.683901 0.795609 -3 0 -3 
C -0.795609 -3 -1.55874 -2.683901 -2.12132 -2.12132 
C -2.683901 -1.55874 -3 -0.795609 -3 0 
C -3 0.795609 -2.683901 1.55874 -2.12132 2.12132 
C -1.55874 2.683901 -0.795609 3 0 3 
z
" id="m54dbbd0627" style="stroke:#1f77b4;stroke-opacity:0.8;"/>
    </defs>
    <g clip-path="url(#p8a48717c5b)">
     <use style="fill:#1f77b4;fill-opacity:0.8;stroke:#1f77b4;stroke-opacity:0.8;" x="143.965865" xlink:href="#m54dbbd0627" y="112.431627"/>
     <use style="fill:#1f77b4;fill-opacity:0.8;stroke:#1f77b4;stroke-opacity:0.8;" x="68.827404" xlink:href="#m54dbbd0627" y="46.85656"/>
     <use style="fill:#1f77b4;fill-opacity:0.8;stroke:#1f77b4;stroke-opacity:0.8;" x="81.350481" xlink:href="#m54dbbd0627" y="46.85656"/>
     <use style="fill:#1f77b4;fill-opacity:0.8;stroke:#1f77b4;stroke-opacity:0.8;" x="143.965865" xlink:href="#m54dbbd0627" y="112.431627"/>
     <use style="fill:#1f77b4;fill-opacity:0.8;stroke:#1f77b4;stroke-opacity:0.8;" x="169.012019" xlink:href="#m54dbbd0627" y="46.85656"/>
     <use style="fill:#1f77b4;fill-opacity:0.8;stroke:#1f77b4;stroke-opacity:0.8;" x="131.442788" xlink:href="#m54dbbd0627" y="112.431627"/>
     <use style="fill:#1f77b4;fill-opacity:0.8;stroke:#1f77b4;stroke-opacity:0.8;" x="181.535096" xlink:href="#m54dbbd0627" y="46.85656"/>
     <use style="fill:#1f77b4;fill-opacity:0.8;stroke:#1f77b4;stroke-opacity:0.8;" x="131.442788" xlink:href="#m54dbbd0627" y="243.581761"/>
     <use style="fill:#1f77b4;fill-opacity:0.8;stroke:#1f77b4;stroke-opacity:0.8;" x="81.350481" xlink:href="#m54dbbd0627" y="112.431627"/>
     <use style="fill:#1f77b4;fill-opacity:0.8;stroke:#1f77b4;stroke-opacity:0.8;" x="118.919712" xlink:href="#m54dbbd0627" y="112.431627"/>
     <use style="fill:#1f77b4;fill-opacity:0.8;stroke:#1f77b4;stroke-opacity:0.8;" x="118.919712" xlink:href="#m54dbbd0627" y="112.431627"/>
     <use style="fill:#1f77b4;fill-opacity:0.8;stroke:#1f77b4;stroke-opacity:0.8;" x="169.012019" xlink:href="#m54dbbd0627" y="46.85656"/>
     <use style="fill:#1f77b4;fill-opacity:0.8;stroke:#1f77b4;stroke-opacity:0.8;" x="93.873558" xlink:href="#m54dbbd0627" y="112.431627"/>
     <use style="fill:#1f77b4;fill-opacity:0.8;stroke:#1f77b4;stroke-opacity:0.8;" x="131.442788" xlink:href="#m54dbbd0627" y="46.85656"/>
     <use style="fill:#1f77b4;fill-opacity:0.8;stroke:#1f77b4;stroke-opacity:0.8;" x="131.442788" xlink:href="#m54dbbd0627" y="112.431627"/>
     <use style="fill:#1f77b4;fill-opacity:0.8;stroke:#1f77b4;stroke-opacity:0.8;" x="156.488942" xlink:href="#m54dbbd0627" y="46.85656"/>
     <use style="fill:#1f77b4;fill-opacity:0.8;stroke:#1f77b4;stroke-opacity:0.8;" x="118.919712" xlink:href="#m54dbbd0627" y="112.431627"/>
     <use style="fill:#1f77b4;fill-opacity:0.8;stroke:#1f77b4;stroke-opacity:0.8;" x="106.396635" xlink:href="#m54dbbd0627" y="112.431627"/>
     <use style="fill:#1f77b4;fill-opacity:0.8;stroke:#1f77b4;stroke-opacity:0.8;" x="156.488942" xlink:href="#m54dbbd0627" y="178.006694"/>
     <use style="fill:#1f77b4;fill-opacity:0.8;stroke:#1f77b4;stroke-opacity:0.8;" x="43.78125" xlink:href="#m54dbbd0627" y="178.006694"/>
     <use style="fill:#1f77b4;fill-opacity:0.8;stroke:#1f77b4;stroke-opacity:0.8;" x="93.873558" xlink:href="#m54dbbd0627" y="112.431627"/>
     <use style="fill:#1f77b4;fill-opacity:0.8;stroke:#1f77b4;stroke-opacity:0.8;" x="206.58125" xlink:href="#m54dbbd0627" y="46.85656"/>
     <use style="fill:#1f77b4;fill-opacity:0.8;stroke:#1f77b4;stroke-opacity:0.8;" x="118.919712" xlink:href="#m54dbbd0627" y="46.85656"/>
     <use style="fill:#1f77b4;fill-opacity:0.8;stroke:#1f77b4;stroke-opacity:0.8;" x="118.919712" xlink:href="#m54dbbd0627" y="46.85656"/>
     <use style="fill:#1f77b4;fill-opacity:0.8;stroke:#1f77b4;stroke-opacity:0.8;" x="118.919712" xlink:href="#m54dbbd0627" y="112.431627"/>
     <use style="fill:#1f77b4;fill-opacity:0.8;stroke:#1f77b4;stroke-opacity:0.8;" x="118.919712" xlink:href="#m54dbbd0627" y="46.85656"/>
     <use style="fill:#1f77b4;fill-opacity:0.8;stroke:#1f77b4;stroke-opacity:0.8;" x="106.396635" xlink:href="#m54dbbd0627" y="112.431627"/>
     <use style="fill:#1f77b4;fill-opacity:0.8;stroke:#1f77b4;stroke-opacity:0.8;" x="93.873558" xlink:href="#m54dbbd0627" y="112.431627"/>
     <use style="fill:#1f77b4;fill-opacity:0.8;stroke:#1f77b4;stroke-opacity:0.8;" x="106.396635" xlink:href="#m54dbbd0627" y="46.85656"/>
     <use style="fill:#1f77b4;fill-opacity:0.8;stroke:#1f77b4;stroke-opacity:0.8;" x="118.919712" xlink:href="#m54dbbd0627" y="112.431627"/>
     <use style="fill:#1f77b4;fill-opacity:0.8;stroke:#1f77b4;stroke-opacity:0.8;" x="118.919712" xlink:href="#m54dbbd0627" y="46.85656"/>
     <use style="fill:#1f77b4;fill-opacity:0.8;stroke:#1f77b4;stroke-opacity:0.8;" x="93.873558" xlink:href="#m54dbbd0627" y="112.431627"/>
     <use style="fill:#1f77b4;fill-opacity:0.8;stroke:#1f77b4;stroke-opacity:0.8;" x="131.442788" xlink:href="#m54dbbd0627" y="46.85656"/>
     <use style="fill:#1f77b4;fill-opacity:0.8;stroke:#1f77b4;stroke-opacity:0.8;" x="131.442788" xlink:href="#m54dbbd0627" y="112.431627"/>
     <use style="fill:#1f77b4;fill-opacity:0.8;stroke:#1f77b4;stroke-opacity:0.8;" x="106.396635" xlink:href="#m54dbbd0627" y="112.431627"/>
     <use style="fill:#1f77b4;fill-opacity:0.8;stroke:#1f77b4;stroke-opacity:0.8;" x="106.396635" xlink:href="#m54dbbd0627" y="112.431627"/>
     <use style="fill:#1f77b4;fill-opacity:0.8;stroke:#1f77b4;stroke-opacity:0.8;" x="93.873558" xlink:href="#m54dbbd0627" y="112.431627"/>
     <use style="fill:#1f77b4;fill-opacity:0.8;stroke:#1f77b4;stroke-opacity:0.8;" x="118.919712" xlink:href="#m54dbbd0627" y="112.431627"/>
     <use style="fill:#1f77b4;fill-opacity:0.8;stroke:#1f77b4;stroke-opacity:0.8;" x="106.396635" xlink:href="#m54dbbd0627" y="46.85656"/>
     <use style="fill:#1f77b4;fill-opacity:0.8;stroke:#1f77b4;stroke-opacity:0.8;" x="93.873558" xlink:href="#m54dbbd0627" y="178.006694"/>
     <use style="fill:#1f77b4;fill-opacity:0.8;stroke:#1f77b4;stroke-opacity:0.8;" x="56.304327" xlink:href="#m54dbbd0627" y="46.85656"/>
    </g>
   </g>
   <g id="PolyCollection_1">
    <path clip-path="url(#p8a48717c5b)" d="M 43.78125 74.623366 
L 43.78125 149.008735 
L 45.425694 148.043411 
L 47.070139 147.078087 
L 48.714583 146.150488 
L 50.359028 145.256238 
L 52.003472 144.18876 
L 53.647917 143.318881 
L 55.292361 142.304986 
L 56.936806 141.289906 
L 58.58125 140.320818 
L 60.225694 139.352788 
L 61.870139 138.491418 
L 63.514583 137.419272 
L 65.159028 136.45388 
L 66.803472 135.783664 
L 68.447917 134.916727 
L 70.092361 133.926234 
L 71.736806 132.934017 
L 73.38125 131.793066 
L 75.025694 130.665074 
L 76.670139 129.678814 
L 78.314583 128.714171 
L 79.959028 127.740979 
L 81.603472 126.566566 
L 83.247917 125.881282 
L 84.892361 124.861316 
L 86.536806 123.987551 
L 88.18125 122.91377 
L 89.825694 121.998283 
L 91.470139 121.124475 
L 93.114583 120.20786 
L 94.759028 119.537217 
L 96.403472 118.759991 
L 98.047917 117.997754 
L 99.692361 117.016061 
L 101.336806 116.250961 
L 102.98125 115.575403 
L 104.625694 114.907639 
L 106.270139 114.098524 
L 107.914583 113.493189 
L 109.559028 112.762234 
L 111.203472 112.027321 
L 112.847917 111.255906 
L 114.492361 110.892783 
L 116.136806 110.479336 
L 117.78125 109.618304 
L 119.425694 109.322763 
L 121.070139 109.214071 
L 122.714583 109.085782 
L 124.359028 108.998529 
L 126.003472 108.791011 
L 127.647917 108.702167 
L 129.292361 109.116682 
L 130.936806 108.820489 
L 132.58125 108.673036 
L 134.225694 108.324909 
L 135.870139 108.824134 
L 137.514583 109.078186 
L 139.159028 109.329801 
L 140.803472 109.881297 
L 142.447917 110.178705 
L 144.092361 110.245519 
L 145.736806 110.217565 
L 147.38125 110.18961 
L 149.025694 110.502697 
L 150.670139 110.777436 
L 152.314583 111.264496 
L 153.959028 111.750701 
L 155.603472 112.224427 
L 157.247917 112.499442 
L 158.892361 113.07918 
L 160.536806 113.658918 
L 162.18125 114.162523 
L 163.825694 114.649413 
L 165.470139 115.136302 
L 167.114583 115.539385 
L 168.759028 115.392867 
L 170.403472 116.084256 
L 172.047917 116.771875 
L 173.692361 117.148414 
L 175.336806 117.452216 
L 176.98125 117.753919 
L 178.625694 118.055622 
L 180.270139 118.354304 
L 181.914583 118.649736 
L 183.559028 118.945168 
L 185.203472 119.240601 
L 186.847917 119.536033 
L 188.492361 119.831465 
L 190.136806 120.126898 
L 191.78125 120.42233 
L 193.425694 120.717763 
L 195.070139 121.013195 
L 196.714583 121.308627 
L 198.359028 121.622298 
L 200.003472 122.173626 
L 201.647917 122.416863 
L 203.292361 122.660099 
L 204.936806 122.903336 
L 206.58125 123.300677 
L 206.58125 32.854489 
L 206.58125 32.854489 
L 204.936806 33.979234 
L 203.292361 35.105398 
L 201.647917 36.217643 
L 200.003472 37.256315 
L 198.359028 38.474929 
L 196.714583 39.593454 
L 195.070139 40.70465 
L 193.425694 41.739703 
L 191.78125 42.770266 
L 190.136806 43.740955 
L 188.492361 44.801704 
L 186.847917 45.872669 
L 185.203472 46.902844 
L 183.559028 47.935051 
L 181.914583 48.968793 
L 180.270139 50.004355 
L 178.625694 51.036277 
L 176.98125 52.120655 
L 175.336806 53.227241 
L 173.692361 54.131417 
L 172.047917 55.158122 
L 170.403472 56.194678 
L 168.759028 57.226759 
L 167.114583 58.145593 
L 165.470139 59.134511 
L 163.825694 60.07234 
L 162.18125 61.278385 
L 160.536806 62.195887 
L 158.892361 63.074227 
L 157.247917 64.015352 
L 155.603472 64.96382 
L 153.959028 65.900067 
L 152.314583 66.874228 
L 150.670139 67.799113 
L 149.025694 68.710003 
L 147.38125 69.252169 
L 145.736806 69.820351 
L 144.092361 70.676474 
L 142.447917 71.532977 
L 140.803472 72.337353 
L 139.159028 73.084689 
L 137.514583 73.83912 
L 135.870139 74.589152 
L 134.225694 75.33809 
L 132.58125 76.021362 
L 130.936806 76.823111 
L 129.292361 77.523625 
L 127.647917 78.063986 
L 126.003472 78.351106 
L 124.359028 79.017117 
L 122.714583 79.444893 
L 121.070139 79.992067 
L 119.425694 80.523039 
L 117.78125 80.743282 
L 116.136806 81.038841 
L 114.492361 81.356211 
L 112.847917 81.749723 
L 111.203472 82.142207 
L 109.559028 82.537228 
L 107.914583 82.927761 
L 106.270139 83.308204 
L 104.625694 83.669658 
L 102.98125 83.856955 
L 101.336806 84.11234 
L 99.692361 84.215896 
L 98.047917 84.411294 
L 96.403472 84.541297 
L 94.759028 84.268063 
L 93.114583 84.000171 
L 91.470139 83.687302 
L 89.825694 83.369854 
L 88.18125 83.402766 
L 86.536806 83.275182 
L 84.892361 83.366419 
L 83.247917 83.263561 
L 81.603472 83.163689 
L 79.959028 82.750147 
L 78.314583 82.485278 
L 76.670139 82.074831 
L 75.025694 81.869617 
L 73.38125 81.471241 
L 71.736806 81.136952 
L 70.092361 80.594415 
L 68.447917 80.013141 
L 66.803472 79.803711 
L 65.159028 79.480234 
L 63.514583 79.202951 
L 61.870139 78.750146 
L 60.225694 78.458874 
L 58.58125 78.107383 
L 56.936806 77.871767 
L 55.292361 77.262865 
L 53.647917 76.868073 
L 52.003472 76.481703 
L 50.359028 76.095333 
L 48.714583 75.708963 
L 47.070139 75.322592 
L 45.425694 74.937781 
L 43.78125 74.623366 
z
" style="fill:#1f77b4;fill-opacity:0.15;"/>
   </g>
   <g id="matplotlib.axis_1">
    <g id="xtick_1">
     <g id="line2d_1">
      <defs>
       <path d="M 0 0 
L 0 3.5 
" id="m577b25d38c" style="stroke:#000000;stroke-width:0.8;"/>
      </defs>
      <g>
       <use style="stroke:#000000;stroke-width:0.8;" x="68.827404" xlink:href="#m577b25d38c" y="254.118125"/>
      </g>
     </g>
     <g id="text_1">
      <!-- 2 -->
      <g transform="translate(65.646154 268.716562)scale(0.1 -0.1)">
       <defs>
        <path d="M 19.1875 8.296875 
L 53.609375 8.296875 
L 53.609375 0 
L 7.328125 0 
L 7.328125 8.296875 
Q 12.9375 14.109375 22.625 23.890625 
Q 32.328125 33.6875 34.8125 36.53125 
Q 39.546875 41.84375 41.421875 45.53125 
Q 43.3125 49.21875 43.3125 52.78125 
Q 43.3125 58.59375 39.234375 62.25 
Q 35.15625 65.921875 28.609375 65.921875 
Q 23.96875 65.921875 18.8125 64.3125 
Q 13.671875 62.703125 7.8125 59.421875 
L 7.8125 69.390625 
Q 13.765625 71.78125 18.9375 73 
Q 24.125 74.21875 28.421875 74.21875 
Q 39.75 74.21875 46.484375 68.546875 
Q 53.21875 62.890625 53.21875 53.421875 
Q 53.21875 48.921875 51.53125 44.890625 
Q 49.859375 40.875 45.40625 35.40625 
Q 44.1875 33.984375 37.640625 27.21875 
Q 31.109375 20.453125 19.1875 8.296875 
z
" id="DejaVuSans-50"/>
       </defs>
       <use xlink:href="#DejaVuSans-50"/>
      </g>
     </g>
    </g>
    <g id="xtick_2">
     <g id="line2d_2">
      <g>
       <use style="stroke:#000000;stroke-width:0.8;" x="118.919712" xlink:href="#m577b25d38c" y="254.118125"/>
      </g>
     </g>
     <g id="text_2">
      <!-- 3 -->
      <g transform="translate(115.738462 268.716562)scale(0.1 -0.1)">
       <defs>
        <path d="M 40.578125 39.3125 
Q 47.65625 37.796875 51.625 33 
Q 55.609375 28.21875 55.609375 21.1875 
Q 55.609375 10.40625 48.1875 4.484375 
Q 40.765625 -1.421875 27.09375 -1.421875 
Q 22.515625 -1.421875 17.65625 -0.515625 
Q 12.796875 0.390625 7.625 2.203125 
L 7.625 11.71875 
Q 11.71875 9.328125 16.59375 8.109375 
Q 21.484375 6.890625 26.8125 6.890625 
Q 36.078125 6.890625 40.9375 10.546875 
Q 45.796875 14.203125 45.796875 21.1875 
Q 45.796875 27.640625 41.28125 31.265625 
Q 36.765625 34.90625 28.71875 34.90625 
L 20.21875 34.90625 
L 20.21875 43.015625 
L 29.109375 43.015625 
Q 36.375 43.015625 40.234375 45.921875 
Q 44.09375 48.828125 44.09375 54.296875 
Q 44.09375 59.90625 40.109375 62.90625 
Q 36.140625 65.921875 28.71875 65.921875 
Q 24.65625 65.921875 20.015625 65.03125 
Q 15.375 64.15625 9.8125 62.3125 
L 9.8125 71.09375 
Q 15.4375 72.65625 20.34375 73.4375 
Q 25.25 74.21875 29.59375 74.21875 
Q 40.828125 74.21875 47.359375 69.109375 
Q 53.90625 64.015625 53.90625 55.328125 
Q 53.90625 49.265625 50.4375 45.09375 
Q 46.96875 40.921875 40.578125 39.3125 
z
" id="DejaVuSans-51"/>
       </defs>
       <use xlink:href="#DejaVuSans-51"/>
      </g>
     </g>
    </g>
    <g id="xtick_3">
     <g id="line2d_3">
      <g>
       <use style="stroke:#000000;stroke-width:0.8;" x="169.012019" xlink:href="#m577b25d38c" y="254.118125"/>
      </g>
     </g>
     <g id="text_3">
      <!-- 4 -->
      <g transform="translate(165.830769 268.716562)scale(0.1 -0.1)">
       <defs>
        <path d="M 37.796875 64.3125 
L 12.890625 25.390625 
L 37.796875 25.390625 
z
M 35.203125 72.90625 
L 47.609375 72.90625 
L 47.609375 25.390625 
L 58.015625 25.390625 
L 58.015625 17.1875 
L 47.609375 17.1875 
L 47.609375 0 
L 37.796875 0 
L 37.796875 17.1875 
L 4.890625 17.1875 
L 4.890625 26.703125 
z
" id="DejaVuSans-52"/>
       </defs>
       <use xlink:href="#DejaVuSans-52"/>
      </g>
     </g>
    </g>
    <g id="text_4">
     <!-- E -->
     <g transform="translate(122.021875 282.394687)scale(0.1 -0.1)">
      <defs>
       <path d="M 9.8125 72.90625 
L 55.90625 72.90625 
L 55.90625 64.59375 
L 19.671875 64.59375 
L 19.671875 43.015625 
L 54.390625 43.015625 
L 54.390625 34.71875 
L 19.671875 34.71875 
L 19.671875 8.296875 
L 56.78125 8.296875 
L 56.78125 0 
L 9.8125 0 
z
" id="DejaVuSans-69"/>
      </defs>
      <use xlink:href="#DejaVuSans-69"/>
     </g>
    </g>
   </g>
   <g id="matplotlib.axis_2">
    <g id="ytick_1">
     <g id="line2d_4">
      <defs>
       <path d="M 0 0 
L -3.5 0 
" id="m33d0debbdc" style="stroke:#000000;stroke-width:0.8;"/>
      </defs>
      <g>
       <use style="stroke:#000000;stroke-width:0.8;" x="43.78125" xlink:href="#m33d0debbdc" y="243.581761"/>
      </g>
     </g>
     <g id="text_5">
      <!-- 2.0 -->
      <g transform="translate(20.878125 247.38098)scale(0.1 -0.1)">
       <defs>
        <path d="M 10.6875 12.40625 
L 21 12.40625 
L 21 0 
L 10.6875 0 
z
" id="DejaVuSans-46"/>
        <path d="M 31.78125 66.40625 
Q 24.171875 66.40625 20.328125 58.90625 
Q 16.5 51.421875 16.5 36.375 
Q 16.5 21.390625 20.328125 13.890625 
Q 24.171875 6.390625 31.78125 6.390625 
Q 39.453125 6.390625 43.28125 13.890625 
Q 47.125 21.390625 47.125 36.375 
Q 47.125 51.421875 43.28125 58.90625 
Q 39.453125 66.40625 31.78125 66.40625 
z
M 31.78125 74.21875 
Q 44.046875 74.21875 50.515625 64.515625 
Q 56.984375 54.828125 56.984375 36.375 
Q 56.984375 17.96875 50.515625 8.265625 
Q 44.046875 -1.421875 31.78125 -1.421875 
Q 19.53125 -1.421875 13.0625 8.265625 
Q 6.59375 17.96875 6.59375 36.375 
Q 6.59375 54.828125 13.0625 64.515625 
Q 19.53125 74.21875 31.78125 74.21875 
z
" id="DejaVuSans-48"/>
       </defs>
       <use xlink:href="#DejaVuSans-50"/>
       <use x="63.623047" xlink:href="#DejaVuSans-46"/>
       <use x="95.410156" xlink:href="#DejaVuSans-48"/>
      </g>
     </g>
    </g>
    <g id="ytick_2">
     <g id="line2d_5">
      <g>
       <use style="stroke:#000000;stroke-width:0.8;" x="43.78125" xlink:href="#m33d0debbdc" y="210.794228"/>
      </g>
     </g>
     <g id="text_6">
      <!-- 2.5 -->
      <g transform="translate(20.878125 214.593447)scale(0.1 -0.1)">
       <defs>
        <path d="M 10.796875 72.90625 
L 49.515625 72.90625 
L 49.515625 64.59375 
L 19.828125 64.59375 
L 19.828125 46.734375 
Q 21.96875 47.46875 24.109375 47.828125 
Q 26.265625 48.1875 28.421875 48.1875 
Q 40.625 48.1875 47.75 41.5 
Q 54.890625 34.8125 54.890625 23.390625 
Q 54.890625 11.625 47.5625 5.09375 
Q 40.234375 -1.421875 26.90625 -1.421875 
Q 22.3125 -1.421875 17.546875 -0.640625 
Q 12.796875 0.140625 7.71875 1.703125 
L 7.71875 11.625 
Q 12.109375 9.234375 16.796875 8.0625 
Q 21.484375 6.890625 26.703125 6.890625 
Q 35.15625 6.890625 40.078125 11.328125 
Q 45.015625 15.765625 45.015625 23.390625 
Q 45.015625 31 40.078125 35.4375 
Q 35.15625 39.890625 26.703125 39.890625 
Q 22.75 39.890625 18.8125 39.015625 
Q 14.890625 38.140625 10.796875 36.28125 
z
" id="DejaVuSans-53"/>
       </defs>
       <use xlink:href="#DejaVuSans-50"/>
       <use x="63.623047" xlink:href="#DejaVuSans-46"/>
       <use x="95.410156" xlink:href="#DejaVuSans-53"/>
      </g>
     </g>
    </g>
    <g id="ytick_3">
     <g id="line2d_6">
      <g>
       <use style="stroke:#000000;stroke-width:0.8;" x="43.78125" xlink:href="#m33d0debbdc" y="178.006694"/>
      </g>
     </g>
     <g id="text_7">
      <!-- 3.0 -->
      <g transform="translate(20.878125 181.805913)scale(0.1 -0.1)">
       <use xlink:href="#DejaVuSans-51"/>
       <use x="63.623047" xlink:href="#DejaVuSans-46"/>
       <use x="95.410156" xlink:href="#DejaVuSans-48"/>
      </g>
     </g>
    </g>
    <g id="ytick_4">
     <g id="line2d_7">
      <g>
       <use style="stroke:#000000;stroke-width:0.8;" x="43.78125" xlink:href="#m33d0debbdc" y="145.219161"/>
      </g>
     </g>
     <g id="text_8">
      <!-- 3.5 -->
      <g transform="translate(20.878125 149.01838)scale(0.1 -0.1)">
       <use xlink:href="#DejaVuSans-51"/>
       <use x="63.623047" xlink:href="#DejaVuSans-46"/>
       <use x="95.410156" xlink:href="#DejaVuSans-53"/>
      </g>
     </g>
    </g>
    <g id="ytick_5">
     <g id="line2d_8">
      <g>
       <use style="stroke:#000000;stroke-width:0.8;" x="43.78125" xlink:href="#m33d0debbdc" y="112.431627"/>
      </g>
     </g>
     <g id="text_9">
      <!-- 4.0 -->
      <g transform="translate(20.878125 116.230846)scale(0.1 -0.1)">
       <use xlink:href="#DejaVuSans-52"/>
       <use x="63.623047" xlink:href="#DejaVuSans-46"/>
       <use x="95.410156" xlink:href="#DejaVuSans-48"/>
      </g>
     </g>
    </g>
    <g id="ytick_6">
     <g id="line2d_9">
      <g>
       <use style="stroke:#000000;stroke-width:0.8;" x="43.78125" xlink:href="#m33d0debbdc" y="79.644094"/>
      </g>
     </g>
     <g id="text_10">
      <!-- 4.5 -->
      <g transform="translate(20.878125 83.443313)scale(0.1 -0.1)">
       <use xlink:href="#DejaVuSans-52"/>
       <use x="63.623047" xlink:href="#DejaVuSans-46"/>
       <use x="95.410156" xlink:href="#DejaVuSans-53"/>
      </g>
     </g>
    </g>
    <g id="ytick_7">
     <g id="line2d_10">
      <g>
       <use style="stroke:#000000;stroke-width:0.8;" x="43.78125" xlink:href="#m33d0debbdc" y="46.85656"/>
      </g>
     </g>
     <g id="text_11">
      <!-- 5.0 -->
      <g transform="translate(20.878125 50.655779)scale(0.1 -0.1)">
       <use xlink:href="#DejaVuSans-53"/>
       <use x="63.623047" xlink:href="#DejaVuSans-46"/>
       <use x="95.410156" xlink:href="#DejaVuSans-48"/>
      </g>
     </g>
    </g>
    <g id="text_12">
     <!-- Trust9 -->
     <g transform="translate(14.798438 153.504844)rotate(-90)scale(0.1 -0.1)">
      <defs>
       <path d="M -0.296875 72.90625 
L 61.375 72.90625 
L 61.375 64.59375 
L 35.5 64.59375 
L 35.5 0 
L 25.59375 0 
L 25.59375 64.59375 
L -0.296875 64.59375 
z
" id="DejaVuSans-84"/>
       <path d="M 41.109375 46.296875 
Q 39.59375 47.171875 37.8125 47.578125 
Q 36.03125 48 33.890625 48 
Q 26.265625 48 22.1875 43.046875 
Q 18.109375 38.09375 18.109375 28.8125 
L 18.109375 0 
L 9.078125 0 
L 9.078125 54.6875 
L 18.109375 54.6875 
L 18.109375 46.1875 
Q 20.953125 51.171875 25.484375 53.578125 
Q 30.03125 56 36.53125 56 
Q 37.453125 56 38.578125 55.875 
Q 39.703125 55.765625 41.0625 55.515625 
z
" id="DejaVuSans-114"/>
       <path d="M 8.5 21.578125 
L 8.5 54.6875 
L 17.484375 54.6875 
L 17.484375 21.921875 
Q 17.484375 14.15625 20.5 10.265625 
Q 23.53125 6.390625 29.59375 6.390625 
Q 36.859375 6.390625 41.078125 11.03125 
Q 45.3125 15.671875 45.3125 23.6875 
L 45.3125 54.6875 
L 54.296875 54.6875 
L 54.296875 0 
L 45.3125 0 
L 45.3125 8.40625 
Q 42.046875 3.421875 37.71875 1 
Q 33.40625 -1.421875 27.6875 -1.421875 
Q 18.265625 -1.421875 13.375 4.4375 
Q 8.5 10.296875 8.5 21.578125 
z
M 31.109375 56 
z
" id="DejaVuSans-117"/>
       <path d="M 44.28125 53.078125 
L 44.28125 44.578125 
Q 40.484375 46.53125 36.375 47.5 
Q 32.28125 48.484375 27.875 48.484375 
Q 21.1875 48.484375 17.84375 46.4375 
Q 14.5 44.390625 14.5 40.28125 
Q 14.5 37.15625 16.890625 35.375 
Q 19.28125 33.59375 26.515625 31.984375 
L 29.59375 31.296875 
Q 39.15625 29.25 43.1875 25.515625 
Q 47.21875 21.78125 47.21875 15.09375 
Q 47.21875 7.46875 41.1875 3.015625 
Q 35.15625 -1.421875 24.609375 -1.421875 
Q 20.21875 -1.421875 15.453125 -0.5625 
Q 10.6875 0.296875 5.421875 2 
L 5.421875 11.28125 
Q 10.40625 8.6875 15.234375 7.390625 
Q 20.0625 6.109375 24.8125 6.109375 
Q 31.15625 6.109375 34.5625 8.28125 
Q 37.984375 10.453125 37.984375 14.40625 
Q 37.984375 18.0625 35.515625 20.015625 
Q 33.0625 21.96875 24.703125 23.78125 
L 21.578125 24.515625 
Q 13.234375 26.265625 9.515625 29.90625 
Q 5.8125 33.546875 5.8125 39.890625 
Q 5.8125 47.609375 11.28125 51.796875 
Q 16.75 56 26.8125 56 
Q 31.78125 56 36.171875 55.265625 
Q 40.578125 54.546875 44.28125 53.078125 
z
" id="DejaVuSans-115"/>
       <path d="M 18.3125 70.21875 
L 18.3125 54.6875 
L 36.8125 54.6875 
L 36.8125 47.703125 
L 18.3125 47.703125 
L 18.3125 18.015625 
Q 18.3125 11.328125 20.140625 9.421875 
Q 21.96875 7.515625 27.59375 7.515625 
L 36.8125 7.515625 
L 36.8125 0 
L 27.59375 0 
Q 17.1875 0 13.234375 3.875 
Q 9.28125 7.765625 9.28125 18.015625 
L 9.28125 47.703125 
L 2.6875 47.703125 
L 2.6875 54.6875 
L 9.28125 54.6875 
L 9.28125 70.21875 
z
" id="DejaVuSans-116"/>
       <path d="M 10.984375 1.515625 
L 10.984375 10.5 
Q 14.703125 8.734375 18.5 7.8125 
Q 22.3125 6.890625 25.984375 6.890625 
Q 35.75 6.890625 40.890625 13.453125 
Q 46.046875 20.015625 46.78125 33.40625 
Q 43.953125 29.203125 39.59375 26.953125 
Q 35.25 24.703125 29.984375 24.703125 
Q 19.046875 24.703125 12.671875 31.3125 
Q 6.296875 37.9375 6.296875 49.421875 
Q 6.296875 60.640625 12.9375 67.421875 
Q 19.578125 74.21875 30.609375 74.21875 
Q 43.265625 74.21875 49.921875 64.515625 
Q 56.59375 54.828125 56.59375 36.375 
Q 56.59375 19.140625 48.40625 8.859375 
Q 40.234375 -1.421875 26.421875 -1.421875 
Q 22.703125 -1.421875 18.890625 -0.6875 
Q 15.09375 0.046875 10.984375 1.515625 
z
M 30.609375 32.421875 
Q 37.25 32.421875 41.125 36.953125 
Q 45.015625 41.5 45.015625 49.421875 
Q 45.015625 57.28125 41.125 61.84375 
Q 37.25 66.40625 30.609375 66.40625 
Q 23.96875 66.40625 20.09375 61.84375 
Q 16.21875 57.28125 16.21875 49.421875 
Q 16.21875 41.5 20.09375 36.953125 
Q 23.96875 32.421875 30.609375 32.421875 
z
" id="DejaVuSans-57"/>
      </defs>
      <use xlink:href="#DejaVuSans-84"/>
      <use x="46.333984" xlink:href="#DejaVuSans-114"/>
      <use x="87.447266" xlink:href="#DejaVuSans-117"/>
      <use x="150.826172" xlink:href="#DejaVuSans-115"/>
      <use x="202.925781" xlink:href="#DejaVuSans-116"/>
      <use x="242.134766" xlink:href="#DejaVuSans-57"/>
     </g>
    </g>
   </g>
   <g id="line2d_11">
    <path clip-path="url(#p8a48717c5b)" d="M 43.78125 116.734725 
L 45.425694 116.249594 
L 47.070139 115.764464 
L 48.714583 115.279333 
L 50.359028 114.794203 
L 52.003472 114.309072 
L 53.647917 113.823942 
L 55.292361 113.338811 
L 56.936806 112.853681 
L 58.58125 112.36855 
L 60.225694 111.883419 
L 61.870139 111.398289 
L 63.514583 110.913158 
L 65.159028 110.428028 
L 66.803472 109.942897 
L 68.447917 109.457767 
L 70.092361 108.972636 
L 71.736806 108.487506 
L 73.38125 108.002375 
L 75.025694 107.517245 
L 76.670139 107.032114 
L 78.314583 106.546983 
L 79.959028 106.061853 
L 81.603472 105.576722 
L 83.247917 105.091592 
L 84.892361 104.606461 
L 86.536806 104.121331 
L 88.18125 103.6362 
L 89.825694 103.15107 
L 91.470139 102.665939 
L 93.114583 102.180808 
L 94.759028 101.695678 
L 96.403472 101.210547 
L 98.047917 100.725417 
L 99.692361 100.240286 
L 101.336806 99.755156 
L 102.98125 99.270025 
L 104.625694 98.784895 
L 106.270139 98.299764 
L 107.914583 97.814634 
L 109.559028 97.329503 
L 111.203472 96.844372 
L 112.847917 96.359242 
L 114.492361 95.874111 
L 116.136806 95.388981 
L 117.78125 94.90385 
L 119.425694 94.41872 
L 121.070139 93.933589 
L 122.714583 93.448459 
L 124.359028 92.963328 
L 126.003472 92.478198 
L 127.647917 91.993067 
L 129.292361 91.507936 
L 130.936806 91.022806 
L 132.58125 90.537675 
L 134.225694 90.052545 
L 135.870139 89.567414 
L 137.514583 89.082284 
L 139.159028 88.597153 
L 140.803472 88.112023 
L 142.447917 87.626892 
L 144.092361 87.141762 
L 145.736806 86.656631 
L 147.38125 86.1715 
L 149.025694 85.68637 
L 150.670139 85.201239 
L 152.314583 84.716109 
L 153.959028 84.230978 
L 155.603472 83.745848 
L 157.247917 83.260717 
L 158.892361 82.775587 
L 160.536806 82.290456 
L 162.18125 81.805326 
L 163.825694 81.320195 
L 165.470139 80.835064 
L 167.114583 80.349934 
L 168.759028 79.864803 
L 170.403472 79.379673 
L 172.047917 78.894542 
L 173.692361 78.409412 
L 175.336806 77.924281 
L 176.98125 77.439151 
L 178.625694 76.95402 
L 180.270139 76.46889 
L 181.914583 75.983759 
L 183.559028 75.498628 
L 185.203472 75.013498 
L 186.847917 74.528367 
L 188.492361 74.043237 
L 190.136806 73.558106 
L 191.78125 73.072976 
L 193.425694 72.587845 
L 195.070139 72.102715 
L 196.714583 71.617584 
L 198.359028 71.132454 
L 200.003472 70.647323 
L 201.647917 70.162192 
L 203.292361 69.677062 
L 204.936806 69.191931 
L 206.58125 68.706801 
" style="fill:none;stroke:#1f77b4;stroke-linecap:square;stroke-width:2.25;"/>
   </g>
   <g id="patch_3">
    <path d="M 43.78125 254.118125 
L 43.78125 22.318125 
" style="fill:none;stroke:#000000;stroke-linecap:square;stroke-linejoin:miter;stroke-width:0.8;"/>
   </g>
   <g id="patch_4">
    <path d="M 206.58125 254.118125 
L 206.58125 22.318125 
" style="fill:none;stroke:#000000;stroke-linecap:square;stroke-linejoin:miter;stroke-width:0.8;"/>
   </g>
   <g id="patch_5">
    <path d="M 43.78125 254.118125 
L 206.58125 254.118125 
" style="fill:none;stroke:#000000;stroke-linecap:square;stroke-linejoin:miter;stroke-width:0.8;"/>
   </g>
   <g id="patch_6">
    <path d="M 43.78125 22.318125 
L 206.58125 22.318125 
" style="fill:none;stroke:#000000;stroke-linecap:square;stroke-linejoin:miter;stroke-width:0.8;"/>
   </g>
   <g id="text_13">
    <!-- Group A -->
    <g transform="translate(43.78125 16.318125)scale(0.12 -0.12)">
     <defs>
      <path d="M 59.515625 10.40625 
L 59.515625 29.984375 
L 43.40625 29.984375 
L 43.40625 38.09375 
L 69.28125 38.09375 
L 69.28125 6.78125 
Q 63.578125 2.734375 56.6875 0.65625 
Q 49.8125 -1.421875 42 -1.421875 
Q 24.90625 -1.421875 15.25 8.5625 
Q 5.609375 18.5625 5.609375 36.375 
Q 5.609375 54.25 15.25 64.234375 
Q 24.90625 74.21875 42 74.21875 
Q 49.125 74.21875 55.546875 72.453125 
Q 61.96875 70.703125 67.390625 67.28125 
L 67.390625 56.78125 
Q 61.921875 61.421875 55.765625 63.765625 
Q 49.609375 66.109375 42.828125 66.109375 
Q 29.4375 66.109375 22.71875 58.640625 
Q 16.015625 51.171875 16.015625 36.375 
Q 16.015625 21.625 22.71875 14.15625 
Q 29.4375 6.6875 42.828125 6.6875 
Q 48.046875 6.6875 52.140625 7.59375 
Q 56.25 8.5 59.515625 10.40625 
z
" id="DejaVuSans-71"/>
      <path d="M 30.609375 48.390625 
Q 23.390625 48.390625 19.1875 42.75 
Q 14.984375 37.109375 14.984375 27.296875 
Q 14.984375 17.484375 19.15625 11.84375 
Q 23.34375 6.203125 30.609375 6.203125 
Q 37.796875 6.203125 41.984375 11.859375 
Q 46.1875 17.53125 46.1875 27.296875 
Q 46.1875 37.015625 41.984375 42.703125 
Q 37.796875 48.390625 30.609375 48.390625 
z
M 30.609375 56 
Q 42.328125 56 49.015625 48.375 
Q 55.71875 40.765625 55.71875 27.296875 
Q 55.71875 13.875 49.015625 6.21875 
Q 42.328125 -1.421875 30.609375 -1.421875 
Q 18.84375 -1.421875 12.171875 6.21875 
Q 5.515625 13.875 5.515625 27.296875 
Q 5.515625 40.765625 12.171875 48.375 
Q 18.84375 56 30.609375 56 
z
" id="DejaVuSans-111"/>
      <path d="M 18.109375 8.203125 
L 18.109375 -20.796875 
L 9.078125 -20.796875 
L 9.078125 54.6875 
L 18.109375 54.6875 
L 18.109375 46.390625 
Q 20.953125 51.265625 25.265625 53.625 
Q 29.59375 56 35.59375 56 
Q 45.5625 56 51.78125 48.09375 
Q 58.015625 40.1875 58.015625 27.296875 
Q 58.015625 14.40625 51.78125 6.484375 
Q 45.5625 -1.421875 35.59375 -1.421875 
Q 29.59375 -1.421875 25.265625 0.953125 
Q 20.953125 3.328125 18.109375 8.203125 
z
M 48.6875 27.296875 
Q 48.6875 37.203125 44.609375 42.84375 
Q 40.53125 48.484375 33.40625 48.484375 
Q 26.265625 48.484375 22.1875 42.84375 
Q 18.109375 37.203125 18.109375 27.296875 
Q 18.109375 17.390625 22.1875 11.75 
Q 26.265625 6.109375 33.40625 6.109375 
Q 40.53125 6.109375 44.609375 11.75 
Q 48.6875 17.390625 48.6875 27.296875 
z
" id="DejaVuSans-112"/>
      <path id="DejaVuSans-32"/>
      <path d="M 34.1875 63.1875 
L 20.796875 26.90625 
L 47.609375 26.90625 
z
M 28.609375 72.90625 
L 39.796875 72.90625 
L 67.578125 0 
L 57.328125 0 
L 50.6875 18.703125 
L 17.828125 18.703125 
L 11.1875 0 
L 0.78125 0 
z
" id="DejaVuSans-65"/>
     </defs>
     <use xlink:href="#DejaVuSans-71"/>
     <use x="77.490234" xlink:href="#DejaVuSans-114"/>
     <use x="116.353516" xlink:href="#DejaVuSans-111"/>
     <use x="177.535156" xlink:href="#DejaVuSans-117"/>
     <use x="240.914062" xlink:href="#DejaVuSans-112"/>
     <use x="304.390625" xlink:href="#DejaVuSans-32"/>
     <use x="336.177734" xlink:href="#DejaVuSans-65"/>
    </g>
   </g>
  </g>
  <g id="axes_2">
   <g id="patch_7">
    <path d="M 254.38125 254.118125 
L 417.18125 254.118125 
L 417.18125 22.318125 
L 254.38125 22.318125 
z
" style="fill:#ffffff;"/>
   </g>
   <g id="PathCollection_2">
    <g clip-path="url(#p8774c33d4c)">
     <use style="fill:#1f77b4;fill-opacity:0.8;stroke:#1f77b4;stroke-opacity:0.8;" x="254.38125" xlink:href="#m54dbbd0627" y="111.531012"/>
     <use style="fill:#1f77b4;fill-opacity:0.8;stroke:#1f77b4;stroke-opacity:0.8;" x="266.904327" xlink:href="#m54dbbd0627" y="177.556386"/>
     <use style="fill:#1f77b4;fill-opacity:0.8;stroke:#1f77b4;stroke-opacity:0.8;" x="379.612019" xlink:href="#m54dbbd0627" y="111.531012"/>
     <use style="fill:#1f77b4;fill-opacity:0.8;stroke:#1f77b4;stroke-opacity:0.8;" x="342.042788" xlink:href="#m54dbbd0627" y="111.531012"/>
     <use style="fill:#1f77b4;fill-opacity:0.8;stroke:#1f77b4;stroke-opacity:0.8;" x="316.996635" xlink:href="#m54dbbd0627" y="45.505637"/>
     <use style="fill:#1f77b4;fill-opacity:0.8;stroke:#1f77b4;stroke-opacity:0.8;" x="379.612019" xlink:href="#m54dbbd0627" y="111.531012"/>
     <use style="fill:#1f77b4;fill-opacity:0.8;stroke:#1f77b4;stroke-opacity:0.8;" x="316.996635" xlink:href="#m54dbbd0627" y="45.505637"/>
     <use style="fill:#1f77b4;fill-opacity:0.8;stroke:#1f77b4;stroke-opacity:0.8;" x="342.042788" xlink:href="#m54dbbd0627" y="177.556386"/>
     <use style="fill:#1f77b4;fill-opacity:0.8;stroke:#1f77b4;stroke-opacity:0.8;" x="342.042788" xlink:href="#m54dbbd0627" y="45.505637"/>
     <use style="fill:#1f77b4;fill-opacity:0.8;stroke:#1f77b4;stroke-opacity:0.8;" x="367.088942" xlink:href="#m54dbbd0627" y="111.531012"/>
     <use style="fill:#1f77b4;fill-opacity:0.8;stroke:#1f77b4;stroke-opacity:0.8;" x="342.042788" xlink:href="#m54dbbd0627" y="111.531012"/>
     <use style="fill:#1f77b4;fill-opacity:0.8;stroke:#1f77b4;stroke-opacity:0.8;" x="379.612019" xlink:href="#m54dbbd0627" y="111.531012"/>
     <use style="fill:#1f77b4;fill-opacity:0.8;stroke:#1f77b4;stroke-opacity:0.8;" x="342.042788" xlink:href="#m54dbbd0627" y="111.531012"/>
     <use style="fill:#1f77b4;fill-opacity:0.8;stroke:#1f77b4;stroke-opacity:0.8;" x="392.135096" xlink:href="#m54dbbd0627" y="111.531012"/>
     <use style="fill:#1f77b4;fill-opacity:0.8;stroke:#1f77b4;stroke-opacity:0.8;" x="354.565865" xlink:href="#m54dbbd0627" y="111.531012"/>
     <use style="fill:#1f77b4;fill-opacity:0.8;stroke:#1f77b4;stroke-opacity:0.8;" x="392.135096" xlink:href="#m54dbbd0627" y="111.531012"/>
     <use style="fill:#1f77b4;fill-opacity:0.8;stroke:#1f77b4;stroke-opacity:0.8;" x="354.565865" xlink:href="#m54dbbd0627" y="45.505637"/>
     <use style="fill:#1f77b4;fill-opacity:0.8;stroke:#1f77b4;stroke-opacity:0.8;" x="316.996635" xlink:href="#m54dbbd0627" y="111.531012"/>
     <use style="fill:#1f77b4;fill-opacity:0.8;stroke:#1f77b4;stroke-opacity:0.8;" x="367.088942" xlink:href="#m54dbbd0627" y="45.505637"/>
     <use style="fill:#1f77b4;fill-opacity:0.8;stroke:#1f77b4;stroke-opacity:0.8;" x="279.427404" xlink:href="#m54dbbd0627" y="243.581761"/>
     <use style="fill:#1f77b4;fill-opacity:0.8;stroke:#1f77b4;stroke-opacity:0.8;" x="417.18125" xlink:href="#m54dbbd0627" y="45.505637"/>
     <use style="fill:#1f77b4;fill-opacity:0.8;stroke:#1f77b4;stroke-opacity:0.8;" x="316.996635" xlink:href="#m54dbbd0627" y="177.556386"/>
     <use style="fill:#1f77b4;fill-opacity:0.8;stroke:#1f77b4;stroke-opacity:0.8;" x="367.088942" xlink:href="#m54dbbd0627" y="45.505637"/>
     <use style="fill:#1f77b4;fill-opacity:0.8;stroke:#1f77b4;stroke-opacity:0.8;" x="379.612019" xlink:href="#m54dbbd0627" y="45.505637"/>
     <use style="fill:#1f77b4;fill-opacity:0.8;stroke:#1f77b4;stroke-opacity:0.8;" x="379.612019" xlink:href="#m54dbbd0627" y="45.505637"/>
     <use style="fill:#1f77b4;fill-opacity:0.8;stroke:#1f77b4;stroke-opacity:0.8;" x="316.996635" xlink:href="#m54dbbd0627" y="45.505637"/>
     <use style="fill:#1f77b4;fill-opacity:0.8;stroke:#1f77b4;stroke-opacity:0.8;" x="316.996635" xlink:href="#m54dbbd0627" y="111.531012"/>
     <use style="fill:#1f77b4;fill-opacity:0.8;stroke:#1f77b4;stroke-opacity:0.8;" x="316.996635" xlink:href="#m54dbbd0627" y="111.531012"/>
     <use style="fill:#1f77b4;fill-opacity:0.8;stroke:#1f77b4;stroke-opacity:0.8;" x="379.612019" xlink:href="#m54dbbd0627" y="45.505637"/>
     <use style="fill:#1f77b4;fill-opacity:0.8;stroke:#1f77b4;stroke-opacity:0.8;" x="379.612019" xlink:href="#m54dbbd0627" y="111.531012"/>
     <use style="fill:#1f77b4;fill-opacity:0.8;stroke:#1f77b4;stroke-opacity:0.8;" x="254.38125" xlink:href="#m54dbbd0627" y="45.505637"/>
     <use style="fill:#1f77b4;fill-opacity:0.8;stroke:#1f77b4;stroke-opacity:0.8;" x="329.519712" xlink:href="#m54dbbd0627" y="45.505637"/>
     <use style="fill:#1f77b4;fill-opacity:0.8;stroke:#1f77b4;stroke-opacity:0.8;" x="354.565865" xlink:href="#m54dbbd0627" y="45.505637"/>
     <use style="fill:#1f77b4;fill-opacity:0.8;stroke:#1f77b4;stroke-opacity:0.8;" x="316.996635" xlink:href="#m54dbbd0627" y="111.531012"/>
     <use style="fill:#1f77b4;fill-opacity:0.8;stroke:#1f77b4;stroke-opacity:0.8;" x="342.042788" xlink:href="#m54dbbd0627" y="45.505637"/>
     <use style="fill:#1f77b4;fill-opacity:0.8;stroke:#1f77b4;stroke-opacity:0.8;" x="329.519712" xlink:href="#m54dbbd0627" y="177.556386"/>
     <use style="fill:#1f77b4;fill-opacity:0.8;stroke:#1f77b4;stroke-opacity:0.8;" x="316.996635" xlink:href="#m54dbbd0627" y="111.531012"/>
     <use style="fill:#1f77b4;fill-opacity:0.8;stroke:#1f77b4;stroke-opacity:0.8;" x="367.088942" xlink:href="#m54dbbd0627" y="177.556386"/>
     <use style="fill:#1f77b4;fill-opacity:0.8;stroke:#1f77b4;stroke-opacity:0.8;" x="316.996635" xlink:href="#m54dbbd0627" y="111.531012"/>
     <use style="fill:#1f77b4;fill-opacity:0.8;stroke:#1f77b4;stroke-opacity:0.8;" x="316.996635" xlink:href="#m54dbbd0627" y="111.531012"/>
     <use style="fill:#1f77b4;fill-opacity:0.8;stroke:#1f77b4;stroke-opacity:0.8;" x="316.996635" xlink:href="#m54dbbd0627" y="45.505637"/>
     <use style="fill:#1f77b4;fill-opacity:0.8;stroke:#1f77b4;stroke-opacity:0.8;" x="379.612019" xlink:href="#m54dbbd0627" y="45.505637"/>
    </g>
   </g>
   <g id="PolyCollection_2">
    <path clip-path="url(#p8774c33d4c)" d="M 254.38125 83.754059 
L 254.38125 179.209964 
L 256.025694 178.006136 
L 257.670139 176.802308 
L 259.314583 175.596463 
L 260.959028 174.390239 
L 262.603472 173.184015 
L 264.247917 171.82586 
L 265.892361 170.596657 
L 267.536806 169.050791 
L 269.18125 167.504925 
L 270.825694 166.05508 
L 272.470139 164.848453 
L 274.114583 163.402588 
L 275.759028 161.956723 
L 277.403472 160.510858 
L 279.047917 159.059593 
L 280.692361 157.606169 
L 282.336806 156.152744 
L 283.98125 154.699319 
L 285.625694 153.245895 
L 287.270139 151.79247 
L 288.914583 150.38764 
L 290.559028 149.1361 
L 292.203472 147.647721 
L 293.847917 146.286122 
L 295.492361 144.861633 
L 297.136806 143.369733 
L 298.78125 141.876428 
L 300.425694 140.376965 
L 302.070139 138.957494 
L 303.714583 137.671021 
L 305.359028 136.384549 
L 307.003472 134.848468 
L 308.647917 133.212794 
L 310.292361 131.921404 
L 311.936806 130.706892 
L 313.58125 129.624371 
L 315.225694 128.692863 
L 316.870139 127.447433 
L 318.514583 126.177285 
L 320.159028 124.904033 
L 321.803472 123.619584 
L 323.447917 122.335136 
L 325.092361 121.086102 
L 326.736806 119.944401 
L 328.38125 118.89358 
L 330.025694 117.904283 
L 331.670139 116.870149 
L 333.314583 115.700306 
L 334.959028 114.584517 
L 336.603472 113.519326 
L 338.247917 112.123464 
L 339.892361 111.437875 
L 341.536806 110.721712 
L 343.18125 110.067697 
L 344.825694 109.032762 
L 346.470139 108.1072 
L 348.114583 107.33771 
L 349.759028 106.695131 
L 351.403472 106.096186 
L 353.047917 105.404231 
L 354.692361 104.836939 
L 356.336806 103.926905 
L 357.98125 103.389854 
L 359.625694 102.932007 
L 361.270139 102.583677 
L 362.914583 102.226869 
L 364.559028 101.911666 
L 366.203472 101.351569 
L 367.847917 101.466419 
L 369.492361 101.272153 
L 371.136806 100.817866 
L 372.78125 100.586538 
L 374.425694 100.180151 
L 376.070139 100.154395 
L 377.714583 100.33751 
L 379.359028 99.890825 
L 381.003472 99.896947 
L 382.647917 100.027449 
L 384.292361 99.685742 
L 385.936806 99.65612 
L 387.58125 99.626497 
L 389.225694 99.722832 
L 390.870139 99.627057 
L 392.514583 99.52707 
L 394.159028 99.433095 
L 395.803472 99.484134 
L 397.447917 99.490225 
L 399.092361 99.562871 
L 400.736806 99.511105 
L 402.38125 99.381572 
L 404.025694 99.418953 
L 405.670139 99.469033 
L 407.314583 99.503141 
L 408.959028 99.574178 
L 410.603472 99.629223 
L 412.247917 99.684268 
L 413.892361 99.739312 
L 415.536806 99.794357 
L 417.18125 99.780963 
L 417.18125 32.854489 
L 417.18125 32.854489 
L 415.536806 34.334705 
L 413.892361 35.851141 
L 412.247917 37.369696 
L 410.603472 38.764166 
L 408.959028 40.236569 
L 407.314583 41.640122 
L 405.670139 42.940847 
L 404.025694 44.08187 
L 402.38125 45.418614 
L 400.736806 46.497779 
L 399.092361 47.888383 
L 397.447917 49.364497 
L 395.803472 50.791186 
L 394.159028 52.127439 
L 392.514583 53.112422 
L 390.870139 54.53121 
L 389.225694 55.685789 
L 387.58125 56.505709 
L 385.936806 57.567499 
L 384.292361 58.931672 
L 382.647917 60.572525 
L 381.003472 61.898252 
L 379.359028 63.368834 
L 377.714583 64.907863 
L 376.070139 65.815758 
L 374.425694 66.953296 
L 372.78125 67.998194 
L 371.136806 69.015653 
L 369.492361 70.143309 
L 367.847917 71.216661 
L 366.203472 72.506417 
L 364.559028 73.378701 
L 362.914583 74.120344 
L 361.270139 74.534689 
L 359.625694 75.161638 
L 357.98125 75.738951 
L 356.336806 76.623855 
L 354.692361 77.268229 
L 353.047917 77.618956 
L 351.403472 77.86107 
L 349.759028 78.334239 
L 348.114583 79.394319 
L 346.470139 80.081547 
L 344.825694 80.162799 
L 343.18125 80.793931 
L 341.536806 81.34752 
L 339.892361 81.903686 
L 338.247917 82.198442 
L 336.603472 82.658543 
L 334.959028 83.026395 
L 333.314583 83.274623 
L 331.670139 83.395421 
L 330.025694 83.732696 
L 328.38125 84.057227 
L 326.736806 84.210641 
L 325.092361 84.224811 
L 323.447917 84.265533 
L 321.803472 84.346483 
L 320.159028 84.464474 
L 318.514583 84.469251 
L 316.870139 84.352432 
L 315.225694 84.511618 
L 313.58125 84.715384 
L 311.936806 84.850261 
L 310.292361 84.505062 
L 308.647917 84.305985 
L 307.003472 84.365696 
L 305.359028 84.560808 
L 303.714583 84.481902 
L 302.070139 84.359973 
L 300.425694 84.335599 
L 298.78125 84.584339 
L 297.136806 84.673439 
L 295.492361 84.617857 
L 293.847917 84.620827 
L 292.203472 84.588333 
L 290.559028 84.513792 
L 288.914583 84.6946 
L 287.270139 84.451267 
L 285.625694 84.458336 
L 283.98125 84.321221 
L 282.336806 84.184398 
L 280.692361 84.087849 
L 279.047917 84.028349 
L 277.403472 84.02866 
L 275.759028 84.07545 
L 274.114583 84.125202 
L 272.470139 84.17761 
L 270.825694 84.30026 
L 269.18125 84.282666 
L 267.536806 84.318912 
L 265.892361 84.360022 
L 264.247917 84.402976 
L 262.603472 84.426779 
L 260.959028 84.292235 
L 259.314583 84.157691 
L 257.670139 84.023147 
L 256.025694 83.888603 
L 254.38125 83.754059 
z
" style="fill:#1f77b4;fill-opacity:0.15;"/>
   </g>
   <g id="matplotlib.axis_3">
    <g id="xtick_4">
     <g id="line2d_12">
      <g>
       <use style="stroke:#000000;stroke-width:0.8;" x="291.950481" xlink:href="#m577b25d38c" y="254.118125"/>
      </g>
     </g>
     <g id="text_14">
      <!-- 2 -->
      <g transform="translate(288.769231 268.716562)scale(0.1 -0.1)">
       <use xlink:href="#DejaVuSans-50"/>
      </g>
     </g>
    </g>
    <g id="xtick_5">
     <g id="line2d_13">
      <g>
       <use style="stroke:#000000;stroke-width:0.8;" x="342.042788" xlink:href="#m577b25d38c" y="254.118125"/>
      </g>
     </g>
     <g id="text_15">
      <!-- 3 -->
      <g transform="translate(338.861538 268.716562)scale(0.1 -0.1)">
       <use xlink:href="#DejaVuSans-51"/>
      </g>
     </g>
    </g>
    <g id="xtick_6">
     <g id="line2d_14">
      <g>
       <use style="stroke:#000000;stroke-width:0.8;" x="392.135096" xlink:href="#m577b25d38c" y="254.118125"/>
      </g>
     </g>
     <g id="text_16">
      <!-- 4 -->
      <g transform="translate(388.953846 268.716562)scale(0.1 -0.1)">
       <use xlink:href="#DejaVuSans-52"/>
      </g>
     </g>
    </g>
    <g id="text_17">
     <!-- E -->
     <g transform="translate(332.621875 282.394687)scale(0.1 -0.1)">
      <use xlink:href="#DejaVuSans-69"/>
     </g>
    </g>
   </g>
   <g id="matplotlib.axis_4">
    <g id="ytick_8">
     <g id="line2d_15">
      <g>
       <use style="stroke:#000000;stroke-width:0.8;" x="254.38125" xlink:href="#m33d0debbdc" y="243.581761"/>
      </g>
     </g>
     <g id="text_18">
      <!-- 2.0 -->
      <g transform="translate(231.478125 247.38098)scale(0.1 -0.1)">
       <use xlink:href="#DejaVuSans-50"/>
       <use x="63.623047" xlink:href="#DejaVuSans-46"/>
       <use x="95.410156" xlink:href="#DejaVuSans-48"/>
      </g>
     </g>
    </g>
    <g id="ytick_9">
     <g id="line2d_16">
      <g>
       <use style="stroke:#000000;stroke-width:0.8;" x="254.38125" xlink:href="#m33d0debbdc" y="210.569074"/>
      </g>
     </g>
     <g id="text_19">
      <!-- 2.5 -->
      <g transform="translate(231.478125 214.368293)scale(0.1 -0.1)">
       <use xlink:href="#DejaVuSans-50"/>
       <use x="63.623047" xlink:href="#DejaVuSans-46"/>
       <use x="95.410156" xlink:href="#DejaVuSans-53"/>
      </g>
     </g>
    </g>
    <g id="ytick_10">
     <g id="line2d_17">
      <g>
       <use style="stroke:#000000;stroke-width:0.8;" x="254.38125" xlink:href="#m33d0debbdc" y="177.556386"/>
      </g>
     </g>
     <g id="text_20">
      <!-- 3.0 -->
      <g transform="translate(231.478125 181.355605)scale(0.1 -0.1)">
       <use xlink:href="#DejaVuSans-51"/>
       <use x="63.623047" xlink:href="#DejaVuSans-46"/>
       <use x="95.410156" xlink:href="#DejaVuSans-48"/>
      </g>
     </g>
    </g>
    <g id="ytick_11">
     <g id="line2d_18">
      <g>
       <use style="stroke:#000000;stroke-width:0.8;" x="254.38125" xlink:href="#m33d0debbdc" y="144.543699"/>
      </g>
     </g>
     <g id="text_21">
      <!-- 3.5 -->
      <g transform="translate(231.478125 148.342918)scale(0.1 -0.1)">
       <use xlink:href="#DejaVuSans-51"/>
       <use x="63.623047" xlink:href="#DejaVuSans-46"/>
       <use x="95.410156" xlink:href="#DejaVuSans-53"/>
      </g>
     </g>
    </g>
    <g id="ytick_12">
     <g id="line2d_19">
      <g>
       <use style="stroke:#000000;stroke-width:0.8;" x="254.38125" xlink:href="#m33d0debbdc" y="111.531012"/>
      </g>
     </g>
     <g id="text_22">
      <!-- 4.0 -->
      <g transform="translate(231.478125 115.33023)scale(0.1 -0.1)">
       <use xlink:href="#DejaVuSans-52"/>
       <use x="63.623047" xlink:href="#DejaVuSans-46"/>
       <use x="95.410156" xlink:href="#DejaVuSans-48"/>
      </g>
     </g>
    </g>
    <g id="ytick_13">
     <g id="line2d_20">
      <g>
       <use style="stroke:#000000;stroke-width:0.8;" x="254.38125" xlink:href="#m33d0debbdc" y="78.518324"/>
      </g>
     </g>
     <g id="text_23">
      <!-- 4.5 -->
      <g transform="translate(231.478125 82.317543)scale(0.1 -0.1)">
       <use xlink:href="#DejaVuSans-52"/>
       <use x="63.623047" xlink:href="#DejaVuSans-46"/>
       <use x="95.410156" xlink:href="#DejaVuSans-53"/>
      </g>
     </g>
    </g>
    <g id="ytick_14">
     <g id="line2d_21">
      <g>
       <use style="stroke:#000000;stroke-width:0.8;" x="254.38125" xlink:href="#m33d0debbdc" y="45.505637"/>
      </g>
     </g>
     <g id="text_24">
      <!-- 5.0 -->
      <g transform="translate(231.478125 49.304855)scale(0.1 -0.1)">
       <use xlink:href="#DejaVuSans-53"/>
       <use x="63.623047" xlink:href="#DejaVuSans-46"/>
       <use x="95.410156" xlink:href="#DejaVuSans-48"/>
      </g>
     </g>
    </g>
    <g id="text_25">
     <!-- Trust9 -->
     <g transform="translate(225.398437 153.504844)rotate(-90)scale(0.1 -0.1)">
      <use xlink:href="#DejaVuSans-84"/>
      <use x="46.333984" xlink:href="#DejaVuSans-114"/>
      <use x="87.447266" xlink:href="#DejaVuSans-117"/>
      <use x="150.826172" xlink:href="#DejaVuSans-115"/>
      <use x="202.925781" xlink:href="#DejaVuSans-116"/>
      <use x="242.134766" xlink:href="#DejaVuSans-57"/>
     </g>
    </g>
   </g>
   <g id="line2d_22">
    <path clip-path="url(#p8774c33d4c)" d="M 254.38125 127.597243 
L 256.025694 126.996874 
L 257.670139 126.396506 
L 259.314583 125.796137 
L 260.959028 125.195768 
L 262.603472 124.595399 
L 264.247917 123.99503 
L 265.892361 123.394662 
L 267.536806 122.794293 
L 269.18125 122.193924 
L 270.825694 121.593555 
L 272.470139 120.993186 
L 274.114583 120.392818 
L 275.759028 119.792449 
L 277.403472 119.19208 
L 279.047917 118.591711 
L 280.692361 117.991342 
L 282.336806 117.390974 
L 283.98125 116.790605 
L 285.625694 116.190236 
L 287.270139 115.589867 
L 288.914583 114.989498 
L 290.559028 114.38913 
L 292.203472 113.788761 
L 293.847917 113.188392 
L 295.492361 112.588023 
L 297.136806 111.987654 
L 298.78125 111.387286 
L 300.425694 110.786917 
L 302.070139 110.186548 
L 303.714583 109.586179 
L 305.359028 108.98581 
L 307.003472 108.385442 
L 308.647917 107.785073 
L 310.292361 107.184704 
L 311.936806 106.584335 
L 313.58125 105.983966 
L 315.225694 105.383598 
L 316.870139 104.783229 
L 318.514583 104.18286 
L 320.159028 103.582491 
L 321.803472 102.982122 
L 323.447917 102.381754 
L 325.092361 101.781385 
L 326.736806 101.181016 
L 328.38125 100.580647 
L 330.025694 99.980278 
L 331.670139 99.37991 
L 333.314583 98.779541 
L 334.959028 98.179172 
L 336.603472 97.578803 
L 338.247917 96.978435 
L 339.892361 96.378066 
L 341.536806 95.777697 
L 343.18125 95.177328 
L 344.825694 94.576959 
L 346.470139 93.976591 
L 348.114583 93.376222 
L 349.759028 92.775853 
L 351.403472 92.175484 
L 353.047917 91.575115 
L 354.692361 90.974747 
L 356.336806 90.374378 
L 357.98125 89.774009 
L 359.625694 89.17364 
L 361.270139 88.573271 
L 362.914583 87.972903 
L 364.559028 87.372534 
L 366.203472 86.772165 
L 367.847917 86.171796 
L 369.492361 85.571427 
L 371.136806 84.971059 
L 372.78125 84.37069 
L 374.425694 83.770321 
L 376.070139 83.169952 
L 377.714583 82.569583 
L 379.359028 81.969215 
L 381.003472 81.368846 
L 382.647917 80.768477 
L 384.292361 80.168108 
L 385.936806 79.567739 
L 387.58125 78.967371 
L 389.225694 78.367002 
L 390.870139 77.766633 
L 392.514583 77.166264 
L 394.159028 76.565895 
L 395.803472 75.965527 
L 397.447917 75.365158 
L 399.092361 74.764789 
L 400.736806 74.16442 
L 402.38125 73.564051 
L 404.025694 72.963683 
L 405.670139 72.363314 
L 407.314583 71.762945 
L 408.959028 71.162576 
L 410.603472 70.562207 
L 412.247917 69.961839 
L 413.892361 69.36147 
L 415.536806 68.761101 
L 417.18125 68.160732 
" style="fill:none;stroke:#1f77b4;stroke-linecap:square;stroke-width:2.25;"/>
   </g>
   <g id="patch_8">
    <path d="M 254.38125 254.118125 
L 254.38125 22.318125 
" style="fill:none;stroke:#000000;stroke-linecap:square;stroke-linejoin:miter;stroke-width:0.8;"/>
   </g>
   <g id="patch_9">
    <path d="M 417.18125 254.118125 
L 417.18125 22.318125 
" style="fill:none;stroke:#000000;stroke-linecap:square;stroke-linejoin:miter;stroke-width:0.8;"/>
   </g>
   <g id="patch_10">
    <path d="M 254.38125 254.118125 
L 417.18125 254.118125 
" style="fill:none;stroke:#000000;stroke-linecap:square;stroke-linejoin:miter;stroke-width:0.8;"/>
   </g>
   <g id="patch_11">
    <path d="M 254.38125 22.318125 
L 417.18125 22.318125 
" style="fill:none;stroke:#000000;stroke-linecap:square;stroke-linejoin:miter;stroke-width:0.8;"/>
   </g>
   <g id="text_26">
    <!-- Group B -->
    <g transform="translate(254.38125 16.318125)scale(0.12 -0.12)">
     <defs>
      <path d="M 19.671875 34.8125 
L 19.671875 8.109375 
L 35.5 8.109375 
Q 43.453125 8.109375 47.28125 11.40625 
Q 51.125 14.703125 51.125 21.484375 
Q 51.125 28.328125 47.28125 31.5625 
Q 43.453125 34.8125 35.5 34.8125 
z
M 19.671875 64.796875 
L 19.671875 42.828125 
L 34.28125 42.828125 
Q 41.5 42.828125 45.03125 45.53125 
Q 48.578125 48.25 48.578125 53.8125 
Q 48.578125 59.328125 45.03125 62.0625 
Q 41.5 64.796875 34.28125 64.796875 
z
M 9.8125 72.90625 
L 35.015625 72.90625 
Q 46.296875 72.90625 52.390625 68.21875 
Q 58.5 63.53125 58.5 54.890625 
Q 58.5 48.1875 55.375 44.234375 
Q 52.25 40.28125 46.1875 39.3125 
Q 53.46875 37.75 57.5 32.78125 
Q 61.53125 27.828125 61.53125 20.40625 
Q 61.53125 10.640625 54.890625 5.3125 
Q 48.25 0 35.984375 0 
L 9.8125 0 
z
" id="DejaVuSans-66"/>
     </defs>
     <use xlink:href="#DejaVuSans-71"/>
     <use x="77.490234" xlink:href="#DejaVuSans-114"/>
     <use x="116.353516" xlink:href="#DejaVuSans-111"/>
     <use x="177.535156" xlink:href="#DejaVuSans-117"/>
     <use x="240.914062" xlink:href="#DejaVuSans-112"/>
     <use x="304.390625" xlink:href="#DejaVuSans-32"/>
     <use x="336.177734" xlink:href="#DejaVuSans-66"/>
    </g>
   </g>
  </g>
  <g id="text_27">
   <!-- The bike chatbot seemed adequate to my needs. -->
   <g transform="translate(64.274375 22.79625)scale(0.12 -0.12)">
    <defs>
     <path d="M 54.890625 33.015625 
L 54.890625 0 
L 45.90625 0 
L 45.90625 32.71875 
Q 45.90625 40.484375 42.875 44.328125 
Q 39.84375 48.1875 33.796875 48.1875 
Q 26.515625 48.1875 22.3125 43.546875 
Q 18.109375 38.921875 18.109375 30.90625 
L 18.109375 0 
L 9.078125 0 
L 9.078125 75.984375 
L 18.109375 75.984375 
L 18.109375 46.1875 
Q 21.34375 51.125 25.703125 53.5625 
Q 30.078125 56 35.796875 56 
Q 45.21875 56 50.046875 50.171875 
Q 54.890625 44.34375 54.890625 33.015625 
z
" id="DejaVuSans-104"/>
     <path d="M 56.203125 29.59375 
L 56.203125 25.203125 
L 14.890625 25.203125 
Q 15.484375 15.921875 20.484375 11.0625 
Q 25.484375 6.203125 34.421875 6.203125 
Q 39.59375 6.203125 44.453125 7.46875 
Q 49.3125 8.734375 54.109375 11.28125 
L 54.109375 2.78125 
Q 49.265625 0.734375 44.1875 -0.34375 
Q 39.109375 -1.421875 33.890625 -1.421875 
Q 20.796875 -1.421875 13.15625 6.1875 
Q 5.515625 13.8125 5.515625 26.8125 
Q 5.515625 40.234375 12.765625 48.109375 
Q 20.015625 56 32.328125 56 
Q 43.359375 56 49.78125 48.890625 
Q 56.203125 41.796875 56.203125 29.59375 
z
M 47.21875 32.234375 
Q 47.125 39.59375 43.09375 43.984375 
Q 39.0625 48.390625 32.421875 48.390625 
Q 24.90625 48.390625 20.390625 44.140625 
Q 15.875 39.890625 15.1875 32.171875 
z
" id="DejaVuSans-101"/>
     <path d="M 48.6875 27.296875 
Q 48.6875 37.203125 44.609375 42.84375 
Q 40.53125 48.484375 33.40625 48.484375 
Q 26.265625 48.484375 22.1875 42.84375 
Q 18.109375 37.203125 18.109375 27.296875 
Q 18.109375 17.390625 22.1875 11.75 
Q 26.265625 6.109375 33.40625 6.109375 
Q 40.53125 6.109375 44.609375 11.75 
Q 48.6875 17.390625 48.6875 27.296875 
z
M 18.109375 46.390625 
Q 20.953125 51.265625 25.265625 53.625 
Q 29.59375 56 35.59375 56 
Q 45.5625 56 51.78125 48.09375 
Q 58.015625 40.1875 58.015625 27.296875 
Q 58.015625 14.40625 51.78125 6.484375 
Q 45.5625 -1.421875 35.59375 -1.421875 
Q 29.59375 -1.421875 25.265625 0.953125 
Q 20.953125 3.328125 18.109375 8.203125 
L 18.109375 0 
L 9.078125 0 
L 9.078125 75.984375 
L 18.109375 75.984375 
z
" id="DejaVuSans-98"/>
     <path d="M 9.421875 54.6875 
L 18.40625 54.6875 
L 18.40625 0 
L 9.421875 0 
z
M 9.421875 75.984375 
L 18.40625 75.984375 
L 18.40625 64.59375 
L 9.421875 64.59375 
z
" id="DejaVuSans-105"/>
     <path d="M 9.078125 75.984375 
L 18.109375 75.984375 
L 18.109375 31.109375 
L 44.921875 54.6875 
L 56.390625 54.6875 
L 27.390625 29.109375 
L 57.625 0 
L 45.90625 0 
L 18.109375 26.703125 
L 18.109375 0 
L 9.078125 0 
z
" id="DejaVuSans-107"/>
     <path d="M 48.78125 52.59375 
L 48.78125 44.1875 
Q 44.96875 46.296875 41.140625 47.34375 
Q 37.3125 48.390625 33.40625 48.390625 
Q 24.65625 48.390625 19.8125 42.84375 
Q 14.984375 37.3125 14.984375 27.296875 
Q 14.984375 17.28125 19.8125 11.734375 
Q 24.65625 6.203125 33.40625 6.203125 
Q 37.3125 6.203125 41.140625 7.25 
Q 44.96875 8.296875 48.78125 10.40625 
L 48.78125 2.09375 
Q 45.015625 0.34375 40.984375 -0.53125 
Q 36.96875 -1.421875 32.421875 -1.421875 
Q 20.0625 -1.421875 12.78125 6.34375 
Q 5.515625 14.109375 5.515625 27.296875 
Q 5.515625 40.671875 12.859375 48.328125 
Q 20.21875 56 33.015625 56 
Q 37.15625 56 41.109375 55.140625 
Q 45.0625 54.296875 48.78125 52.59375 
z
" id="DejaVuSans-99"/>
     <path d="M 34.28125 27.484375 
Q 23.390625 27.484375 19.1875 25 
Q 14.984375 22.515625 14.984375 16.5 
Q 14.984375 11.71875 18.140625 8.90625 
Q 21.296875 6.109375 26.703125 6.109375 
Q 34.1875 6.109375 38.703125 11.40625 
Q 43.21875 16.703125 43.21875 25.484375 
L 43.21875 27.484375 
z
M 52.203125 31.203125 
L 52.203125 0 
L 43.21875 0 
L 43.21875 8.296875 
Q 40.140625 3.328125 35.546875 0.953125 
Q 30.953125 -1.421875 24.3125 -1.421875 
Q 15.921875 -1.421875 10.953125 3.296875 
Q 6 8.015625 6 15.921875 
Q 6 25.140625 12.171875 29.828125 
Q 18.359375 34.515625 30.609375 34.515625 
L 43.21875 34.515625 
L 43.21875 35.40625 
Q 43.21875 41.609375 39.140625 45 
Q 35.0625 48.390625 27.6875 48.390625 
Q 23 48.390625 18.546875 47.265625 
Q 14.109375 46.140625 10.015625 43.890625 
L 10.015625 52.203125 
Q 14.9375 54.109375 19.578125 55.046875 
Q 24.21875 56 28.609375 56 
Q 40.484375 56 46.34375 49.84375 
Q 52.203125 43.703125 52.203125 31.203125 
z
" id="DejaVuSans-97"/>
     <path d="M 52 44.1875 
Q 55.375 50.25 60.0625 53.125 
Q 64.75 56 71.09375 56 
Q 79.640625 56 84.28125 50.015625 
Q 88.921875 44.046875 88.921875 33.015625 
L 88.921875 0 
L 79.890625 0 
L 79.890625 32.71875 
Q 79.890625 40.578125 77.09375 44.375 
Q 74.3125 48.1875 68.609375 48.1875 
Q 61.625 48.1875 57.5625 43.546875 
Q 53.515625 38.921875 53.515625 30.90625 
L 53.515625 0 
L 44.484375 0 
L 44.484375 32.71875 
Q 44.484375 40.625 41.703125 44.40625 
Q 38.921875 48.1875 33.109375 48.1875 
Q 26.21875 48.1875 22.15625 43.53125 
Q 18.109375 38.875 18.109375 30.90625 
L 18.109375 0 
L 9.078125 0 
L 9.078125 54.6875 
L 18.109375 54.6875 
L 18.109375 46.1875 
Q 21.1875 51.21875 25.484375 53.609375 
Q 29.78125 56 35.6875 56 
Q 41.65625 56 45.828125 52.96875 
Q 50 49.953125 52 44.1875 
z
" id="DejaVuSans-109"/>
     <path d="M 45.40625 46.390625 
L 45.40625 75.984375 
L 54.390625 75.984375 
L 54.390625 0 
L 45.40625 0 
L 45.40625 8.203125 
Q 42.578125 3.328125 38.25 0.953125 
Q 33.9375 -1.421875 27.875 -1.421875 
Q 17.96875 -1.421875 11.734375 6.484375 
Q 5.515625 14.40625 5.515625 27.296875 
Q 5.515625 40.1875 11.734375 48.09375 
Q 17.96875 56 27.875 56 
Q 33.9375 56 38.25 53.625 
Q 42.578125 51.265625 45.40625 46.390625 
z
M 14.796875 27.296875 
Q 14.796875 17.390625 18.875 11.75 
Q 22.953125 6.109375 30.078125 6.109375 
Q 37.203125 6.109375 41.296875 11.75 
Q 45.40625 17.390625 45.40625 27.296875 
Q 45.40625 37.203125 41.296875 42.84375 
Q 37.203125 48.484375 30.078125 48.484375 
Q 22.953125 48.484375 18.875 42.84375 
Q 14.796875 37.203125 14.796875 27.296875 
z
" id="DejaVuSans-100"/>
     <path d="M 14.796875 27.296875 
Q 14.796875 17.390625 18.875 11.75 
Q 22.953125 6.109375 30.078125 6.109375 
Q 37.203125 6.109375 41.296875 11.75 
Q 45.40625 17.390625 45.40625 27.296875 
Q 45.40625 37.203125 41.296875 42.84375 
Q 37.203125 48.484375 30.078125 48.484375 
Q 22.953125 48.484375 18.875 42.84375 
Q 14.796875 37.203125 14.796875 27.296875 
z
M 45.40625 8.203125 
Q 42.578125 3.328125 38.25 0.953125 
Q 33.9375 -1.421875 27.875 -1.421875 
Q 17.96875 -1.421875 11.734375 6.484375 
Q 5.515625 14.40625 5.515625 27.296875 
Q 5.515625 40.1875 11.734375 48.09375 
Q 17.96875 56 27.875 56 
Q 33.9375 56 38.25 53.625 
Q 42.578125 51.265625 45.40625 46.390625 
L 45.40625 54.6875 
L 54.390625 54.6875 
L 54.390625 -20.796875 
L 45.40625 -20.796875 
z
" id="DejaVuSans-113"/>
     <path d="M 32.171875 -5.078125 
Q 28.375 -14.84375 24.75 -17.8125 
Q 21.140625 -20.796875 15.09375 -20.796875 
L 7.90625 -20.796875 
L 7.90625 -13.28125 
L 13.1875 -13.28125 
Q 16.890625 -13.28125 18.9375 -11.515625 
Q 21 -9.765625 23.484375 -3.21875 
L 25.09375 0.875 
L 2.984375 54.6875 
L 12.5 54.6875 
L 29.59375 11.921875 
L 46.6875 54.6875 
L 56.203125 54.6875 
z
" id="DejaVuSans-121"/>
     <path d="M 54.890625 33.015625 
L 54.890625 0 
L 45.90625 0 
L 45.90625 32.71875 
Q 45.90625 40.484375 42.875 44.328125 
Q 39.84375 48.1875 33.796875 48.1875 
Q 26.515625 48.1875 22.3125 43.546875 
Q 18.109375 38.921875 18.109375 30.90625 
L 18.109375 0 
L 9.078125 0 
L 9.078125 54.6875 
L 18.109375 54.6875 
L 18.109375 46.1875 
Q 21.34375 51.125 25.703125 53.5625 
Q 30.078125 56 35.796875 56 
Q 45.21875 56 50.046875 50.171875 
Q 54.890625 44.34375 54.890625 33.015625 
z
" id="DejaVuSans-110"/>
    </defs>
    <use xlink:href="#DejaVuSans-84"/>
    <use x="61.083984" xlink:href="#DejaVuSans-104"/>
    <use x="124.462891" xlink:href="#DejaVuSans-101"/>
    <use x="185.986328" xlink:href="#DejaVuSans-32"/>
    <use x="217.773438" xlink:href="#DejaVuSans-98"/>
    <use x="281.25" xlink:href="#DejaVuSans-105"/>
    <use x="309.033203" xlink:href="#DejaVuSans-107"/>
    <use x="363.318359" xlink:href="#DejaVuSans-101"/>
    <use x="424.841797" xlink:href="#DejaVuSans-32"/>
    <use x="456.628906" xlink:href="#DejaVuSans-99"/>
    <use x="511.609375" xlink:href="#DejaVuSans-104"/>
    <use x="574.988281" xlink:href="#DejaVuSans-97"/>
    <use x="636.267578" xlink:href="#DejaVuSans-116"/>
    <use x="675.476562" xlink:href="#DejaVuSans-98"/>
    <use x="738.953125" xlink:href="#DejaVuSans-111"/>
    <use x="800.134766" xlink:href="#DejaVuSans-116"/>
    <use x="839.34375" xlink:href="#DejaVuSans-32"/>
    <use x="871.130859" xlink:href="#DejaVuSans-115"/>
    <use x="923.230469" xlink:href="#DejaVuSans-101"/>
    <use x="984.753906" xlink:href="#DejaVuSans-101"/>
    <use x="1046.277344" xlink:href="#DejaVuSans-109"/>
    <use x="1143.689453" xlink:href="#DejaVuSans-101"/>
    <use x="1205.212891" xlink:href="#DejaVuSans-100"/>
    <use x="1268.689453" xlink:href="#DejaVuSans-32"/>
    <use x="1300.476562" xlink:href="#DejaVuSans-97"/>
    <use x="1361.755859" xlink:href="#DejaVuSans-100"/>
    <use x="1425.232422" xlink:href="#DejaVuSans-101"/>
    <use x="1486.755859" xlink:href="#DejaVuSans-113"/>
    <use x="1550.232422" xlink:href="#DejaVuSans-117"/>
    <use x="1613.611328" xlink:href="#DejaVuSans-97"/>
    <use x="1674.890625" xlink:href="#DejaVuSans-116"/>
    <use x="1714.099609" xlink:href="#DejaVuSans-101"/>
    <use x="1775.623047" xlink:href="#DejaVuSans-32"/>
    <use x="1807.410156" xlink:href="#DejaVuSans-116"/>
    <use x="1846.619141" xlink:href="#DejaVuSans-111"/>
    <use x="1907.800781" xlink:href="#DejaVuSans-32"/>
    <use x="1939.587891" xlink:href="#DejaVuSans-109"/>
    <use x="2037" xlink:href="#DejaVuSans-121"/>
    <use x="2096.179688" xlink:href="#DejaVuSans-32"/>
    <use x="2127.966797" xlink:href="#DejaVuSans-110"/>
    <use x="2191.345703" xlink:href="#DejaVuSans-101"/>
    <use x="2252.869141" xlink:href="#DejaVuSans-101"/>
    <use x="2314.392578" xlink:href="#DejaVuSans-100"/>
    <use x="2377.869141" xlink:href="#DejaVuSans-115"/>
    <use x="2429.96875" xlink:href="#DejaVuSans-46"/>
   </g>
  </g>
 </g>
 <defs>
  <clipPath id="p8a48717c5b">
   <rect height="231.8" width="162.8" x="43.78125" y="22.318125"/>
  </clipPath>
  <clipPath id="p8774c33d4c">
   <rect height="231.8" width="162.8" x="254.38125" y="22.318125"/>
  </clipPath>
 </defs>
</svg>
