<?xml version="1.0" encoding="utf-8" standalone="no"?>
<!DOCTYPE svg PUBLIC "-//W3C//DTD SVG 1.1//EN"
  "http://www.w3.org/Graphics/SVG/1.1/DTD/svg11.dtd">
<!-- Created with matplotlib (https://matplotlib.org/) -->
<svg height="291.674375pt" version="1.1" viewBox="0 0 463.636875 291.674375" width="463.636875pt" xmlns="http://www.w3.org/2000/svg" xmlns:xlink="http://www.w3.org/1999/xlink">
 <metadata>
  <rdf:RDF xmlns:cc="http://creativecommons.org/ns#" xmlns:dc="http://purl.org/dc/elements/1.1/" xmlns:rdf="http://www.w3.org/1999/02/22-rdf-syntax-ns#">
   <cc:Work>
    <dc:type rdf:resource="http://purl.org/dc/dcmitype/StillImage"/>
    <dc:date>2021-02-20T15:29:29.551271</dc:date>
    <dc:format>image/svg+xml</dc:format>
    <dc:creator>
     <cc:Agent>
      <dc:title>Matplotlib v3.3.2, https://matplotlib.org/</dc:title>
     </cc:Agent>
    </dc:creator>
   </cc:Work>
  </rdf:RDF>
 </metadata>
 <defs>
  <style type="text/css">*{stroke-linecap:butt;stroke-linejoin:round;}</style>
 </defs>
 <g id="figure_1">
  <g id="patch_1">
   <path d="M 0 291.674375 
L 463.636875 291.674375 
L 463.636875 0 
L 0 0 
z
" style="fill:none;"/>
  </g>
  <g id="axes_1">
   <g id="patch_2">
    <path d="M 53.993437 254.118125 
L 226.418437 254.118125 
L 226.418437 22.318125 
L 53.993437 22.318125 
z
" style="fill:#ffffff;"/>
   </g>
   <g id="PathCollection_1">
    <defs>
     <path d="M 0 3 
C 0.795609 3 1.55874 2.683901 2.12132 2.12132 
C 2.683901 1.55874 3 0.795609 3 0 
C 3 -0.795609 2.683901 -1.55874 2.12132 -2.12132 
C 1.55874 -2.683901 0.795609 -3 0 -3 
C -0.795609 -3 -1.55874 -2.683901 -2.12132 -2.12132 
C -2.683901 -1.55874 -3 -0.795609 -3 0 
C -3 0.795609 -2.683901 1.55874 -2.12132 2.12132 
C -1.55874 2.683901 -0.795609 3 0 3 
z
" id="m614c3cf77a" style="stroke:#1f77b4;stroke-opacity:0.8;"/>
    </defs>
    <g clip-path="url(#p52ee1a70bd)">
     <use style="fill:#1f77b4;fill-opacity:0.8;stroke:#1f77b4;stroke-opacity:0.8;" x="160.10113" xlink:href="#m614c3cf77a" y="151.991417"/>
     <use style="fill:#1f77b4;fill-opacity:0.8;stroke:#1f77b4;stroke-opacity:0.8;" x="80.520361" xlink:href="#m614c3cf77a" y="90.931187"/>
     <use style="fill:#1f77b4;fill-opacity:0.8;stroke:#1f77b4;stroke-opacity:0.8;" x="93.783822" xlink:href="#m614c3cf77a" y="60.401072"/>
     <use style="fill:#1f77b4;fill-opacity:0.8;stroke:#1f77b4;stroke-opacity:0.8;" x="160.10113" xlink:href="#m614c3cf77a" y="60.401072"/>
     <use style="fill:#1f77b4;fill-opacity:0.8;stroke:#1f77b4;stroke-opacity:0.8;" x="186.628053" xlink:href="#m614c3cf77a" y="213.051646"/>
     <use style="fill:#1f77b4;fill-opacity:0.8;stroke:#1f77b4;stroke-opacity:0.8;" x="146.837668" xlink:href="#m614c3cf77a" y="90.931187"/>
     <use style="fill:#1f77b4;fill-opacity:0.8;stroke:#1f77b4;stroke-opacity:0.8;" x="199.891514" xlink:href="#m614c3cf77a" y="90.931187"/>
     <use style="fill:#1f77b4;fill-opacity:0.8;stroke:#1f77b4;stroke-opacity:0.8;" x="146.837668" xlink:href="#m614c3cf77a" y="121.461302"/>
     <use style="fill:#1f77b4;fill-opacity:0.8;stroke:#1f77b4;stroke-opacity:0.8;" x="93.783822" xlink:href="#m614c3cf77a" y="90.931187"/>
     <use style="fill:#1f77b4;fill-opacity:0.8;stroke:#1f77b4;stroke-opacity:0.8;" x="133.574207" xlink:href="#m614c3cf77a" y="121.461302"/>
     <use style="fill:#1f77b4;fill-opacity:0.8;stroke:#1f77b4;stroke-opacity:0.8;" x="133.574207" xlink:href="#m614c3cf77a" y="60.401072"/>
     <use style="fill:#1f77b4;fill-opacity:0.8;stroke:#1f77b4;stroke-opacity:0.8;" x="186.628053" xlink:href="#m614c3cf77a" y="60.401072"/>
     <use style="fill:#1f77b4;fill-opacity:0.8;stroke:#1f77b4;stroke-opacity:0.8;" x="107.047284" xlink:href="#m614c3cf77a" y="60.401072"/>
     <use style="fill:#1f77b4;fill-opacity:0.8;stroke:#1f77b4;stroke-opacity:0.8;" x="146.837668" xlink:href="#m614c3cf77a" y="90.931187"/>
     <use style="fill:#1f77b4;fill-opacity:0.8;stroke:#1f77b4;stroke-opacity:0.8;" x="146.837668" xlink:href="#m614c3cf77a" y="121.461302"/>
     <use style="fill:#1f77b4;fill-opacity:0.8;stroke:#1f77b4;stroke-opacity:0.8;" x="173.364591" xlink:href="#m614c3cf77a" y="90.931187"/>
     <use style="fill:#1f77b4;fill-opacity:0.8;stroke:#1f77b4;stroke-opacity:0.8;" x="133.574207" xlink:href="#m614c3cf77a" y="121.461302"/>
     <use style="fill:#1f77b4;fill-opacity:0.8;stroke:#1f77b4;stroke-opacity:0.8;" x="120.310745" xlink:href="#m614c3cf77a" y="60.401072"/>
     <use style="fill:#1f77b4;fill-opacity:0.8;stroke:#1f77b4;stroke-opacity:0.8;" x="173.364591" xlink:href="#m614c3cf77a" y="60.401072"/>
     <use style="fill:#1f77b4;fill-opacity:0.8;stroke:#1f77b4;stroke-opacity:0.8;" x="53.993437" xlink:href="#m614c3cf77a" y="243.581761"/>
     <use style="fill:#1f77b4;fill-opacity:0.8;stroke:#1f77b4;stroke-opacity:0.8;" x="107.047284" xlink:href="#m614c3cf77a" y="121.461302"/>
     <use style="fill:#1f77b4;fill-opacity:0.8;stroke:#1f77b4;stroke-opacity:0.8;" x="226.418437" xlink:href="#m614c3cf77a" y="60.401072"/>
     <use style="fill:#1f77b4;fill-opacity:0.8;stroke:#1f77b4;stroke-opacity:0.8;" x="133.574207" xlink:href="#m614c3cf77a" y="90.931187"/>
     <use style="fill:#1f77b4;fill-opacity:0.8;stroke:#1f77b4;stroke-opacity:0.8;" x="133.574207" xlink:href="#m614c3cf77a" y="90.931187"/>
     <use style="fill:#1f77b4;fill-opacity:0.8;stroke:#1f77b4;stroke-opacity:0.8;" x="133.574207" xlink:href="#m614c3cf77a" y="60.401072"/>
     <use style="fill:#1f77b4;fill-opacity:0.8;stroke:#1f77b4;stroke-opacity:0.8;" x="133.574207" xlink:href="#m614c3cf77a" y="121.461302"/>
     <use style="fill:#1f77b4;fill-opacity:0.8;stroke:#1f77b4;stroke-opacity:0.8;" x="120.310745" xlink:href="#m614c3cf77a" y="60.401072"/>
     <use style="fill:#1f77b4;fill-opacity:0.8;stroke:#1f77b4;stroke-opacity:0.8;" x="107.047284" xlink:href="#m614c3cf77a" y="121.461302"/>
     <use style="fill:#1f77b4;fill-opacity:0.8;stroke:#1f77b4;stroke-opacity:0.8;" x="120.310745" xlink:href="#m614c3cf77a" y="90.931187"/>
     <use style="fill:#1f77b4;fill-opacity:0.8;stroke:#1f77b4;stroke-opacity:0.8;" x="133.574207" xlink:href="#m614c3cf77a" y="90.931187"/>
     <use style="fill:#1f77b4;fill-opacity:0.8;stroke:#1f77b4;stroke-opacity:0.8;" x="133.574207" xlink:href="#m614c3cf77a" y="121.461302"/>
     <use style="fill:#1f77b4;fill-opacity:0.8;stroke:#1f77b4;stroke-opacity:0.8;" x="107.047284" xlink:href="#m614c3cf77a" y="60.401072"/>
     <use style="fill:#1f77b4;fill-opacity:0.8;stroke:#1f77b4;stroke-opacity:0.8;" x="146.837668" xlink:href="#m614c3cf77a" y="90.931187"/>
     <use style="fill:#1f77b4;fill-opacity:0.8;stroke:#1f77b4;stroke-opacity:0.8;" x="146.837668" xlink:href="#m614c3cf77a" y="121.461302"/>
     <use style="fill:#1f77b4;fill-opacity:0.8;stroke:#1f77b4;stroke-opacity:0.8;" x="120.310745" xlink:href="#m614c3cf77a" y="121.461302"/>
     <use style="fill:#1f77b4;fill-opacity:0.8;stroke:#1f77b4;stroke-opacity:0.8;" x="120.310745" xlink:href="#m614c3cf77a" y="121.461302"/>
     <use style="fill:#1f77b4;fill-opacity:0.8;stroke:#1f77b4;stroke-opacity:0.8;" x="107.047284" xlink:href="#m614c3cf77a" y="121.461302"/>
     <use style="fill:#1f77b4;fill-opacity:0.8;stroke:#1f77b4;stroke-opacity:0.8;" x="133.574207" xlink:href="#m614c3cf77a" y="90.931187"/>
     <use style="fill:#1f77b4;fill-opacity:0.8;stroke:#1f77b4;stroke-opacity:0.8;" x="120.310745" xlink:href="#m614c3cf77a" y="90.931187"/>
     <use style="fill:#1f77b4;fill-opacity:0.8;stroke:#1f77b4;stroke-opacity:0.8;" x="107.047284" xlink:href="#m614c3cf77a" y="121.461302"/>
     <use style="fill:#1f77b4;fill-opacity:0.8;stroke:#1f77b4;stroke-opacity:0.8;" x="67.256899" xlink:href="#m614c3cf77a" y="60.401072"/>
    </g>
   </g>
   <g id="PolyCollection_1">
    <path clip-path="url(#p52ee1a70bd)" d="M 53.993437 63.428177 
L 53.993437 161.331776 
L 55.735104 160.097491 
L 57.476771 158.859747 
L 59.218437 157.568584 
L 60.960104 156.404158 
L 62.701771 155.177479 
L 64.443438 153.950799 
L 66.185104 152.723868 
L 67.926771 151.491148 
L 69.668437 150.576714 
L 71.410104 149.383591 
L 73.151771 148.317788 
L 74.893437 147.310393 
L 76.635104 146.291292 
L 78.376771 145.046686 
L 80.118437 143.720769 
L 81.860104 142.20231 
L 83.601771 140.619932 
L 85.343437 139.178493 
L 87.085104 137.940713 
L 88.826771 136.491198 
L 90.568437 135.009643 
L 92.310104 133.700555 
L 94.051771 132.390479 
L 95.793437 131.030517 
L 97.535104 129.944526 
L 99.276771 129.220914 
L 101.018438 128.019785 
L 102.760104 126.878866 
L 104.501771 125.956127 
L 106.243437 125.365433 
L 107.985104 124.228961 
L 109.726771 122.787493 
L 111.468437 121.815105 
L 113.210104 120.825486 
L 114.951771 119.776659 
L 116.693437 118.566258 
L 118.435104 117.695577 
L 120.176771 116.874161 
L 121.918437 116.263741 
L 123.660104 115.529106 
L 125.401771 115.043429 
L 127.143437 114.582763 
L 128.885104 114.144189 
L 130.626771 113.664111 
L 132.368437 113.082553 
L 134.110104 112.522427 
L 135.851771 111.956768 
L 137.593437 111.654057 
L 139.335104 111.063401 
L 141.076771 111.008514 
L 142.818437 111.229564 
L 144.560104 111.700105 
L 146.301771 112.288764 
L 148.043437 112.74943 
L 149.785104 113.023302 
L 151.526771 114.132659 
L 153.268437 114.605039 
L 155.010104 114.956843 
L 156.751771 115.572717 
L 158.493437 116.262603 
L 160.235104 116.951046 
L 161.976771 117.785672 
L 163.718437 118.337512 
L 165.460104 119.073239 
L 167.201771 119.681658 
L 168.943437 120.293478 
L 170.685104 121.183547 
L 172.426771 122.083111 
L 174.168438 122.976546 
L 175.910104 123.809129 
L 177.651771 124.676817 
L 179.393437 125.337763 
L 181.135104 125.996147 
L 182.876771 126.654531 
L 184.618437 127.312592 
L 186.360104 127.969082 
L 188.101771 128.732227 
L 189.843437 129.810734 
L 191.585104 130.647294 
L 193.326771 131.344204 
L 195.068437 132.039582 
L 196.810104 132.734959 
L 198.551771 133.454148 
L 200.293437 134.342108 
L 202.035104 135.230067 
L 203.776771 136.118027 
L 205.518437 137.005986 
L 207.260104 137.880445 
L 209.001771 138.417329 
L 210.743437 139.057743 
L 212.485104 139.972312 
L 214.226771 140.88688 
L 215.968437 141.728395 
L 217.710104 142.501375 
L 219.451771 143.274355 
L 221.193438 144.044612 
L 222.935104 144.81428 
L 224.676771 145.583947 
L 226.418437 146.353614 
L 226.418437 32.854489 
L 226.418437 32.854489 
L 224.676771 34.004746 
L 222.935104 35.176352 
L 221.193438 36.366227 
L 219.451771 37.691372 
L 217.710104 39.029652 
L 215.968437 40.313668 
L 214.226771 41.597683 
L 212.485104 42.881699 
L 210.743437 44.162415 
L 209.001771 45.347966 
L 207.260104 46.512517 
L 205.518437 47.668392 
L 203.776771 48.824494 
L 202.035104 49.986293 
L 200.293437 51.148091 
L 198.551771 52.309889 
L 196.810104 53.66509 
L 195.068437 54.850302 
L 193.326771 56.035514 
L 191.585104 57.220727 
L 189.843437 58.413893 
L 188.101771 59.906359 
L 186.360104 61.406178 
L 184.618437 62.700378 
L 182.876771 63.836367 
L 181.135104 64.972356 
L 179.393437 66.108345 
L 177.651771 67.244334 
L 175.910104 68.353356 
L 174.168438 69.301033 
L 172.426771 70.273174 
L 170.685104 71.18837 
L 168.943437 72.442588 
L 167.201771 73.737467 
L 165.460104 75.008834 
L 163.718437 76.151083 
L 161.976771 77.381718 
L 160.235104 78.5741 
L 158.493437 79.60282 
L 156.751771 80.805318 
L 155.010104 81.825152 
L 153.268437 82.860749 
L 151.526771 83.402712 
L 149.785104 84.461741 
L 148.043437 85.293129 
L 146.301771 85.921682 
L 144.560104 86.508275 
L 142.818437 86.997743 
L 141.076771 87.266672 
L 139.335104 87.54456 
L 137.593437 87.901216 
L 135.851771 88.221726 
L 134.110104 88.391928 
L 132.368437 88.559817 
L 130.626771 88.699906 
L 128.885104 88.772937 
L 127.143437 88.72834 
L 125.401771 88.871546 
L 123.660104 88.883136 
L 121.918437 88.949852 
L 120.176771 88.672902 
L 118.435104 88.428124 
L 116.693437 88.060138 
L 114.951771 87.440614 
L 113.210104 86.965568 
L 111.468437 86.577866 
L 109.726771 86.268963 
L 107.985104 85.729979 
L 106.243437 84.777939 
L 104.501771 84.259388 
L 102.760104 83.788472 
L 101.018438 83.446007 
L 99.276771 82.908331 
L 97.535104 82.423559 
L 95.793437 81.779769 
L 94.051771 81.174832 
L 92.310104 80.458919 
L 90.568437 79.717816 
L 88.826771 78.901087 
L 87.085104 78.170286 
L 85.343437 77.377345 
L 83.601771 76.599094 
L 81.860104 75.867429 
L 80.118437 75.136812 
L 78.376771 74.408992 
L 76.635104 73.682981 
L 74.893437 72.825507 
L 73.151771 72.181499 
L 71.410104 71.495549 
L 69.668437 70.774021 
L 67.926771 70.042419 
L 66.185104 69.308659 
L 64.443438 68.559606 
L 62.701771 67.796001 
L 60.960104 67.032701 
L 59.218437 66.270348 
L 57.476771 65.322958 
L 55.735104 64.375568 
L 53.993437 63.428177 
z
" style="fill:#1f77b4;fill-opacity:0.15;"/>
   </g>
   <g id="matplotlib.axis_1">
    <g id="xtick_1">
     <g id="line2d_1">
      <defs>
       <path d="M 0 0 
L 0 3.5 
" id="m3bb482b2cb" style="stroke:#000000;stroke-width:0.8;"/>
      </defs>
      <g>
       <use style="stroke:#000000;stroke-width:0.8;" x="80.520361" xlink:href="#m3bb482b2cb" y="254.118125"/>
      </g>
     </g>
     <g id="text_1">
      <!-- 2 -->
      <g transform="translate(77.339111 268.716562)scale(0.1 -0.1)">
       <defs>
        <path d="M 19.1875 8.296875 
L 53.609375 8.296875 
L 53.609375 0 
L 7.328125 0 
L 7.328125 8.296875 
Q 12.9375 14.109375 22.625 23.890625 
Q 32.328125 33.6875 34.8125 36.53125 
Q 39.546875 41.84375 41.421875 45.53125 
Q 43.3125 49.21875 43.3125 52.78125 
Q 43.3125 58.59375 39.234375 62.25 
Q 35.15625 65.921875 28.609375 65.921875 
Q 23.96875 65.921875 18.8125 64.3125 
Q 13.671875 62.703125 7.8125 59.421875 
L 7.8125 69.390625 
Q 13.765625 71.78125 18.9375 73 
Q 24.125 74.21875 28.421875 74.21875 
Q 39.75 74.21875 46.484375 68.546875 
Q 53.21875 62.890625 53.21875 53.421875 
Q 53.21875 48.921875 51.53125 44.890625 
Q 49.859375 40.875 45.40625 35.40625 
Q 44.1875 33.984375 37.640625 27.21875 
Q 31.109375 20.453125 19.1875 8.296875 
z
" id="DejaVuSans-50"/>
       </defs>
       <use xlink:href="#DejaVuSans-50"/>
      </g>
     </g>
    </g>
    <g id="xtick_2">
     <g id="line2d_2">
      <g>
       <use style="stroke:#000000;stroke-width:0.8;" x="133.574207" xlink:href="#m3bb482b2cb" y="254.118125"/>
      </g>
     </g>
     <g id="text_2">
      <!-- 3 -->
      <g transform="translate(130.392957 268.716562)scale(0.1 -0.1)">
       <defs>
        <path d="M 40.578125 39.3125 
Q 47.65625 37.796875 51.625 33 
Q 55.609375 28.21875 55.609375 21.1875 
Q 55.609375 10.40625 48.1875 4.484375 
Q 40.765625 -1.421875 27.09375 -1.421875 
Q 22.515625 -1.421875 17.65625 -0.515625 
Q 12.796875 0.390625 7.625 2.203125 
L 7.625 11.71875 
Q 11.71875 9.328125 16.59375 8.109375 
Q 21.484375 6.890625 26.8125 6.890625 
Q 36.078125 6.890625 40.9375 10.546875 
Q 45.796875 14.203125 45.796875 21.1875 
Q 45.796875 27.640625 41.28125 31.265625 
Q 36.765625 34.90625 28.71875 34.90625 
L 20.21875 34.90625 
L 20.21875 43.015625 
L 29.109375 43.015625 
Q 36.375 43.015625 40.234375 45.921875 
Q 44.09375 48.828125 44.09375 54.296875 
Q 44.09375 59.90625 40.109375 62.90625 
Q 36.140625 65.921875 28.71875 65.921875 
Q 24.65625 65.921875 20.015625 65.03125 
Q 15.375 64.15625 9.8125 62.3125 
L 9.8125 71.09375 
Q 15.4375 72.65625 20.34375 73.4375 
Q 25.25 74.21875 29.59375 74.21875 
Q 40.828125 74.21875 47.359375 69.109375 
Q 53.90625 64.015625 53.90625 55.328125 
Q 53.90625 49.265625 50.4375 45.09375 
Q 46.96875 40.921875 40.578125 39.3125 
z
" id="DejaVuSans-51"/>
       </defs>
       <use xlink:href="#DejaVuSans-51"/>
      </g>
     </g>
    </g>
    <g id="xtick_3">
     <g id="line2d_3">
      <g>
       <use style="stroke:#000000;stroke-width:0.8;" x="186.628053" xlink:href="#m3bb482b2cb" y="254.118125"/>
      </g>
     </g>
     <g id="text_3">
      <!-- 4 -->
      <g transform="translate(183.446803 268.716562)scale(0.1 -0.1)">
       <defs>
        <path d="M 37.796875 64.3125 
L 12.890625 25.390625 
L 37.796875 25.390625 
z
M 35.203125 72.90625 
L 47.609375 72.90625 
L 47.609375 25.390625 
L 58.015625 25.390625 
L 58.015625 17.1875 
L 47.609375 17.1875 
L 47.609375 0 
L 37.796875 0 
L 37.796875 17.1875 
L 4.890625 17.1875 
L 4.890625 26.703125 
z
" id="DejaVuSans-52"/>
       </defs>
       <use xlink:href="#DejaVuSans-52"/>
      </g>
     </g>
    </g>
    <g id="text_4">
     <!-- E -->
     <g transform="translate(137.046562 282.394687)scale(0.1 -0.1)">
      <defs>
       <path d="M 9.8125 72.90625 
L 55.90625 72.90625 
L 55.90625 64.59375 
L 19.671875 64.59375 
L 19.671875 43.015625 
L 54.390625 43.015625 
L 54.390625 34.71875 
L 19.671875 34.71875 
L 19.671875 8.296875 
L 56.78125 8.296875 
L 56.78125 0 
L 9.8125 0 
z
" id="DejaVuSans-69"/>
      </defs>
      <use xlink:href="#DejaVuSans-69"/>
     </g>
    </g>
   </g>
   <g id="matplotlib.axis_2">
    <g id="ytick_1">
     <g id="line2d_4">
      <defs>
       <path d="M 0 0 
L -3.5 0 
" id="m29b4e1530c" style="stroke:#000000;stroke-width:0.8;"/>
      </defs>
      <g>
       <use style="stroke:#000000;stroke-width:0.8;" x="53.993437" xlink:href="#m29b4e1530c" y="243.581761"/>
      </g>
     </g>
     <g id="text_5">
      <!-- 1 -->
      <g transform="translate(40.630938 247.38098)scale(0.1 -0.1)">
       <defs>
        <path d="M 12.40625 8.296875 
L 28.515625 8.296875 
L 28.515625 63.921875 
L 10.984375 60.40625 
L 10.984375 69.390625 
L 28.421875 72.90625 
L 38.28125 72.90625 
L 38.28125 8.296875 
L 54.390625 8.296875 
L 54.390625 0 
L 12.40625 0 
z
" id="DejaVuSans-49"/>
       </defs>
       <use xlink:href="#DejaVuSans-49"/>
      </g>
     </g>
    </g>
    <g id="ytick_2">
     <g id="line2d_5">
      <g>
       <use style="stroke:#000000;stroke-width:0.8;" x="53.993437" xlink:href="#m29b4e1530c" y="213.051646"/>
      </g>
     </g>
     <g id="text_6">
      <!-- 2 -->
      <g transform="translate(40.630938 216.850865)scale(0.1 -0.1)">
       <use xlink:href="#DejaVuSans-50"/>
      </g>
     </g>
    </g>
    <g id="ytick_3">
     <g id="line2d_6">
      <g>
       <use style="stroke:#000000;stroke-width:0.8;" x="53.993437" xlink:href="#m29b4e1530c" y="182.521532"/>
      </g>
     </g>
     <g id="text_7">
      <!-- 3 -->
      <g transform="translate(40.630938 186.32075)scale(0.1 -0.1)">
       <use xlink:href="#DejaVuSans-51"/>
      </g>
     </g>
    </g>
    <g id="ytick_4">
     <g id="line2d_7">
      <g>
       <use style="stroke:#000000;stroke-width:0.8;" x="53.993437" xlink:href="#m29b4e1530c" y="151.991417"/>
      </g>
     </g>
     <g id="text_8">
      <!-- 4 -->
      <g transform="translate(40.630938 155.790636)scale(0.1 -0.1)">
       <use xlink:href="#DejaVuSans-52"/>
      </g>
     </g>
    </g>
    <g id="ytick_5">
     <g id="line2d_8">
      <g>
       <use style="stroke:#000000;stroke-width:0.8;" x="53.993437" xlink:href="#m29b4e1530c" y="121.461302"/>
      </g>
     </g>
     <g id="text_9">
      <!-- 5 -->
      <g transform="translate(40.630938 125.260521)scale(0.1 -0.1)">
       <defs>
        <path d="M 10.796875 72.90625 
L 49.515625 72.90625 
L 49.515625 64.59375 
L 19.828125 64.59375 
L 19.828125 46.734375 
Q 21.96875 47.46875 24.109375 47.828125 
Q 26.265625 48.1875 28.421875 48.1875 
Q 40.625 48.1875 47.75 41.5 
Q 54.890625 34.8125 54.890625 23.390625 
Q 54.890625 11.625 47.5625 5.09375 
Q 40.234375 -1.421875 26.90625 -1.421875 
Q 22.3125 -1.421875 17.546875 -0.640625 
Q 12.796875 0.140625 7.71875 1.703125 
L 7.71875 11.625 
Q 12.109375 9.234375 16.796875 8.0625 
Q 21.484375 6.890625 26.703125 6.890625 
Q 35.15625 6.890625 40.078125 11.328125 
Q 45.015625 15.765625 45.015625 23.390625 
Q 45.015625 31 40.078125 35.4375 
Q 35.15625 39.890625 26.703125 39.890625 
Q 22.75 39.890625 18.8125 39.015625 
Q 14.890625 38.140625 10.796875 36.28125 
z
" id="DejaVuSans-53"/>
       </defs>
       <use xlink:href="#DejaVuSans-53"/>
      </g>
     </g>
    </g>
    <g id="ytick_6">
     <g id="line2d_9">
      <g>
       <use style="stroke:#000000;stroke-width:0.8;" x="53.993437" xlink:href="#m29b4e1530c" y="90.931187"/>
      </g>
     </g>
     <g id="text_10">
      <!-- 6 -->
      <g transform="translate(40.630938 94.730406)scale(0.1 -0.1)">
       <defs>
        <path d="M 33.015625 40.375 
Q 26.375 40.375 22.484375 35.828125 
Q 18.609375 31.296875 18.609375 23.390625 
Q 18.609375 15.53125 22.484375 10.953125 
Q 26.375 6.390625 33.015625 6.390625 
Q 39.65625 6.390625 43.53125 10.953125 
Q 47.40625 15.53125 47.40625 23.390625 
Q 47.40625 31.296875 43.53125 35.828125 
Q 39.65625 40.375 33.015625 40.375 
z
M 52.59375 71.296875 
L 52.59375 62.3125 
Q 48.875 64.0625 45.09375 64.984375 
Q 41.3125 65.921875 37.59375 65.921875 
Q 27.828125 65.921875 22.671875 59.328125 
Q 17.53125 52.734375 16.796875 39.40625 
Q 19.671875 43.65625 24.015625 45.921875 
Q 28.375 48.1875 33.59375 48.1875 
Q 44.578125 48.1875 50.953125 41.515625 
Q 57.328125 34.859375 57.328125 23.390625 
Q 57.328125 12.15625 50.6875 5.359375 
Q 44.046875 -1.421875 33.015625 -1.421875 
Q 20.359375 -1.421875 13.671875 8.265625 
Q 6.984375 17.96875 6.984375 36.375 
Q 6.984375 53.65625 15.1875 63.9375 
Q 23.390625 74.21875 37.203125 74.21875 
Q 40.921875 74.21875 44.703125 73.484375 
Q 48.484375 72.75 52.59375 71.296875 
z
" id="DejaVuSans-54"/>
       </defs>
       <use xlink:href="#DejaVuSans-54"/>
      </g>
     </g>
    </g>
    <g id="ytick_7">
     <g id="line2d_10">
      <g>
       <use style="stroke:#000000;stroke-width:0.8;" x="53.993437" xlink:href="#m29b4e1530c" y="60.401072"/>
      </g>
     </g>
     <g id="text_11">
      <!-- 7 -->
      <g transform="translate(40.630938 64.200291)scale(0.1 -0.1)">
       <defs>
        <path d="M 8.203125 72.90625 
L 55.078125 72.90625 
L 55.078125 68.703125 
L 28.609375 0 
L 18.3125 0 
L 43.21875 64.59375 
L 8.203125 64.59375 
z
" id="DejaVuSans-55"/>
       </defs>
       <use xlink:href="#DejaVuSans-55"/>
      </g>
     </g>
    </g>
    <g id="ytick_8">
     <g id="line2d_11">
      <g>
       <use style="stroke:#000000;stroke-width:0.8;" x="53.993437" xlink:href="#m29b4e1530c" y="29.870957"/>
      </g>
     </g>
     <g id="text_12">
      <!-- 8 -->
      <g transform="translate(40.630938 33.670176)scale(0.1 -0.1)">
       <defs>
        <path d="M 31.78125 34.625 
Q 24.75 34.625 20.71875 30.859375 
Q 16.703125 27.09375 16.703125 20.515625 
Q 16.703125 13.921875 20.71875 10.15625 
Q 24.75 6.390625 31.78125 6.390625 
Q 38.8125 6.390625 42.859375 10.171875 
Q 46.921875 13.96875 46.921875 20.515625 
Q 46.921875 27.09375 42.890625 30.859375 
Q 38.875 34.625 31.78125 34.625 
z
M 21.921875 38.8125 
Q 15.578125 40.375 12.03125 44.71875 
Q 8.5 49.078125 8.5 55.328125 
Q 8.5 64.0625 14.71875 69.140625 
Q 20.953125 74.21875 31.78125 74.21875 
Q 42.671875 74.21875 48.875 69.140625 
Q 55.078125 64.0625 55.078125 55.328125 
Q 55.078125 49.078125 51.53125 44.71875 
Q 48 40.375 41.703125 38.8125 
Q 48.828125 37.15625 52.796875 32.3125 
Q 56.78125 27.484375 56.78125 20.515625 
Q 56.78125 9.90625 50.3125 4.234375 
Q 43.84375 -1.421875 31.78125 -1.421875 
Q 19.734375 -1.421875 13.25 4.234375 
Q 6.78125 9.90625 6.78125 20.515625 
Q 6.78125 27.484375 10.78125 32.3125 
Q 14.796875 37.15625 21.921875 38.8125 
z
M 18.3125 54.390625 
Q 18.3125 48.734375 21.84375 45.5625 
Q 25.390625 42.390625 31.78125 42.390625 
Q 38.140625 42.390625 41.71875 45.5625 
Q 45.3125 48.734375 45.3125 54.390625 
Q 45.3125 60.0625 41.71875 63.234375 
Q 38.140625 66.40625 31.78125 66.40625 
Q 25.390625 66.40625 21.84375 63.234375 
Q 18.3125 60.0625 18.3125 54.390625 
z
" id="DejaVuSans-56"/>
       </defs>
       <use xlink:href="#DejaVuSans-56"/>
      </g>
     </g>
    </g>
    <g id="text_13">
     <!-- Offering3 -->
     <g transform="translate(34.55125 161.719687)rotate(-90)scale(0.1 -0.1)">
      <defs>
       <path d="M 39.40625 66.21875 
Q 28.65625 66.21875 22.328125 58.203125 
Q 16.015625 50.203125 16.015625 36.375 
Q 16.015625 22.609375 22.328125 14.59375 
Q 28.65625 6.59375 39.40625 6.59375 
Q 50.140625 6.59375 56.421875 14.59375 
Q 62.703125 22.609375 62.703125 36.375 
Q 62.703125 50.203125 56.421875 58.203125 
Q 50.140625 66.21875 39.40625 66.21875 
z
M 39.40625 74.21875 
Q 54.734375 74.21875 63.90625 63.9375 
Q 73.09375 53.65625 73.09375 36.375 
Q 73.09375 19.140625 63.90625 8.859375 
Q 54.734375 -1.421875 39.40625 -1.421875 
Q 24.03125 -1.421875 14.8125 8.828125 
Q 5.609375 19.09375 5.609375 36.375 
Q 5.609375 53.65625 14.8125 63.9375 
Q 24.03125 74.21875 39.40625 74.21875 
z
" id="DejaVuSans-79"/>
       <path d="M 37.109375 75.984375 
L 37.109375 68.5 
L 28.515625 68.5 
Q 23.6875 68.5 21.796875 66.546875 
Q 19.921875 64.59375 19.921875 59.515625 
L 19.921875 54.6875 
L 34.71875 54.6875 
L 34.71875 47.703125 
L 19.921875 47.703125 
L 19.921875 0 
L 10.890625 0 
L 10.890625 47.703125 
L 2.296875 47.703125 
L 2.296875 54.6875 
L 10.890625 54.6875 
L 10.890625 58.5 
Q 10.890625 67.625 15.140625 71.796875 
Q 19.390625 75.984375 28.609375 75.984375 
z
" id="DejaVuSans-102"/>
       <path d="M 56.203125 29.59375 
L 56.203125 25.203125 
L 14.890625 25.203125 
Q 15.484375 15.921875 20.484375 11.0625 
Q 25.484375 6.203125 34.421875 6.203125 
Q 39.59375 6.203125 44.453125 7.46875 
Q 49.3125 8.734375 54.109375 11.28125 
L 54.109375 2.78125 
Q 49.265625 0.734375 44.1875 -0.34375 
Q 39.109375 -1.421875 33.890625 -1.421875 
Q 20.796875 -1.421875 13.15625 6.1875 
Q 5.515625 13.8125 5.515625 26.8125 
Q 5.515625 40.234375 12.765625 48.109375 
Q 20.015625 56 32.328125 56 
Q 43.359375 56 49.78125 48.890625 
Q 56.203125 41.796875 56.203125 29.59375 
z
M 47.21875 32.234375 
Q 47.125 39.59375 43.09375 43.984375 
Q 39.0625 48.390625 32.421875 48.390625 
Q 24.90625 48.390625 20.390625 44.140625 
Q 15.875 39.890625 15.1875 32.171875 
z
" id="DejaVuSans-101"/>
       <path d="M 41.109375 46.296875 
Q 39.59375 47.171875 37.8125 47.578125 
Q 36.03125 48 33.890625 48 
Q 26.265625 48 22.1875 43.046875 
Q 18.109375 38.09375 18.109375 28.8125 
L 18.109375 0 
L 9.078125 0 
L 9.078125 54.6875 
L 18.109375 54.6875 
L 18.109375 46.1875 
Q 20.953125 51.171875 25.484375 53.578125 
Q 30.03125 56 36.53125 56 
Q 37.453125 56 38.578125 55.875 
Q 39.703125 55.765625 41.0625 55.515625 
z
" id="DejaVuSans-114"/>
       <path d="M 9.421875 54.6875 
L 18.40625 54.6875 
L 18.40625 0 
L 9.421875 0 
z
M 9.421875 75.984375 
L 18.40625 75.984375 
L 18.40625 64.59375 
L 9.421875 64.59375 
z
" id="DejaVuSans-105"/>
       <path d="M 54.890625 33.015625 
L 54.890625 0 
L 45.90625 0 
L 45.90625 32.71875 
Q 45.90625 40.484375 42.875 44.328125 
Q 39.84375 48.1875 33.796875 48.1875 
Q 26.515625 48.1875 22.3125 43.546875 
Q 18.109375 38.921875 18.109375 30.90625 
L 18.109375 0 
L 9.078125 0 
L 9.078125 54.6875 
L 18.109375 54.6875 
L 18.109375 46.1875 
Q 21.34375 51.125 25.703125 53.5625 
Q 30.078125 56 35.796875 56 
Q 45.21875 56 50.046875 50.171875 
Q 54.890625 44.34375 54.890625 33.015625 
z
" id="DejaVuSans-110"/>
       <path d="M 45.40625 27.984375 
Q 45.40625 37.75 41.375 43.109375 
Q 37.359375 48.484375 30.078125 48.484375 
Q 22.859375 48.484375 18.828125 43.109375 
Q 14.796875 37.75 14.796875 27.984375 
Q 14.796875 18.265625 18.828125 12.890625 
Q 22.859375 7.515625 30.078125 7.515625 
Q 37.359375 7.515625 41.375 12.890625 
Q 45.40625 18.265625 45.40625 27.984375 
z
M 54.390625 6.78125 
Q 54.390625 -7.171875 48.1875 -13.984375 
Q 42 -20.796875 29.203125 -20.796875 
Q 24.46875 -20.796875 20.265625 -20.09375 
Q 16.0625 -19.390625 12.109375 -17.921875 
L 12.109375 -9.1875 
Q 16.0625 -11.328125 19.921875 -12.34375 
Q 23.78125 -13.375 27.78125 -13.375 
Q 36.625 -13.375 41.015625 -8.765625 
Q 45.40625 -4.15625 45.40625 5.171875 
L 45.40625 9.625 
Q 42.625 4.78125 38.28125 2.390625 
Q 33.9375 0 27.875 0 
Q 17.828125 0 11.671875 7.65625 
Q 5.515625 15.328125 5.515625 27.984375 
Q 5.515625 40.671875 11.671875 48.328125 
Q 17.828125 56 27.875 56 
Q 33.9375 56 38.28125 53.609375 
Q 42.625 51.21875 45.40625 46.390625 
L 45.40625 54.6875 
L 54.390625 54.6875 
z
" id="DejaVuSans-103"/>
      </defs>
      <use xlink:href="#DejaVuSans-79"/>
      <use x="78.710938" xlink:href="#DejaVuSans-102"/>
      <use x="113.916016" xlink:href="#DejaVuSans-102"/>
      <use x="149.121094" xlink:href="#DejaVuSans-101"/>
      <use x="210.644531" xlink:href="#DejaVuSans-114"/>
      <use x="251.757812" xlink:href="#DejaVuSans-105"/>
      <use x="279.541016" xlink:href="#DejaVuSans-110"/>
      <use x="342.919922" xlink:href="#DejaVuSans-103"/>
      <use x="406.396484" xlink:href="#DejaVuSans-51"/>
     </g>
    </g>
   </g>
   <g id="line2d_12">
    <path clip-path="url(#p52ee1a70bd)" d="M 53.993437 112.345339 
L 55.735104 112.068869 
L 57.476771 111.792399 
L 59.218437 111.515929 
L 60.960104 111.239458 
L 62.701771 110.962988 
L 64.443438 110.686518 
L 66.185104 110.410048 
L 67.926771 110.133577 
L 69.668437 109.857107 
L 71.410104 109.580637 
L 73.151771 109.304166 
L 74.893437 109.027696 
L 76.635104 108.751226 
L 78.376771 108.474756 
L 80.118437 108.198285 
L 81.860104 107.921815 
L 83.601771 107.645345 
L 85.343437 107.368875 
L 87.085104 107.092404 
L 88.826771 106.815934 
L 90.568437 106.539464 
L 92.310104 106.262993 
L 94.051771 105.986523 
L 95.793437 105.710053 
L 97.535104 105.433583 
L 99.276771 105.157112 
L 101.018438 104.880642 
L 102.760104 104.604172 
L 104.501771 104.327702 
L 106.243437 104.051231 
L 107.985104 103.774761 
L 109.726771 103.498291 
L 111.468437 103.22182 
L 113.210104 102.94535 
L 114.951771 102.66888 
L 116.693437 102.39241 
L 118.435104 102.115939 
L 120.176771 101.839469 
L 121.918437 101.562999 
L 123.660104 101.286529 
L 125.401771 101.010058 
L 127.143437 100.733588 
L 128.885104 100.457118 
L 130.626771 100.180647 
L 132.368437 99.904177 
L 134.110104 99.627707 
L 135.851771 99.351237 
L 137.593437 99.074766 
L 139.335104 98.798296 
L 141.076771 98.521826 
L 142.818437 98.245356 
L 144.560104 97.968885 
L 146.301771 97.692415 
L 148.043437 97.415945 
L 149.785104 97.139475 
L 151.526771 96.863004 
L 153.268437 96.586534 
L 155.010104 96.310064 
L 156.751771 96.033593 
L 158.493437 95.757123 
L 160.235104 95.480653 
L 161.976771 95.204183 
L 163.718437 94.927712 
L 165.460104 94.651242 
L 167.201771 94.374772 
L 168.943437 94.098302 
L 170.685104 93.821831 
L 172.426771 93.545361 
L 174.168438 93.268891 
L 175.910104 92.99242 
L 177.651771 92.71595 
L 179.393437 92.43948 
L 181.135104 92.16301 
L 182.876771 91.886539 
L 184.618437 91.610069 
L 186.360104 91.333599 
L 188.101771 91.057129 
L 189.843437 90.780658 
L 191.585104 90.504188 
L 193.326771 90.227718 
L 195.068437 89.951247 
L 196.810104 89.674777 
L 198.551771 89.398307 
L 200.293437 89.121837 
L 202.035104 88.845366 
L 203.776771 88.568896 
L 205.518437 88.292426 
L 207.260104 88.015956 
L 209.001771 87.739485 
L 210.743437 87.463015 
L 212.485104 87.186545 
L 214.226771 86.910074 
L 215.968437 86.633604 
L 217.710104 86.357134 
L 219.451771 86.080664 
L 221.193438 85.804193 
L 222.935104 85.527723 
L 224.676771 85.251253 
L 226.418437 84.974783 
" style="fill:none;stroke:#1f77b4;stroke-linecap:square;stroke-width:2.25;"/>
   </g>
   <g id="patch_3">
    <path d="M 53.993437 254.118125 
L 53.993437 22.318125 
" style="fill:none;stroke:#000000;stroke-linecap:square;stroke-linejoin:miter;stroke-width:0.8;"/>
   </g>
   <g id="patch_4">
    <path d="M 226.418437 254.118125 
L 226.418437 22.318125 
" style="fill:none;stroke:#000000;stroke-linecap:square;stroke-linejoin:miter;stroke-width:0.8;"/>
   </g>
   <g id="patch_5">
    <path d="M 53.993437 254.118125 
L 226.418437 254.118125 
" style="fill:none;stroke:#000000;stroke-linecap:square;stroke-linejoin:miter;stroke-width:0.8;"/>
   </g>
   <g id="patch_6">
    <path d="M 53.993437 22.318125 
L 226.418437 22.318125 
" style="fill:none;stroke:#000000;stroke-linecap:square;stroke-linejoin:miter;stroke-width:0.8;"/>
   </g>
   <g id="text_14">
    <!-- Group A -->
    <g transform="translate(53.993437 16.318125)scale(0.12 -0.12)">
     <defs>
      <path d="M 59.515625 10.40625 
L 59.515625 29.984375 
L 43.40625 29.984375 
L 43.40625 38.09375 
L 69.28125 38.09375 
L 69.28125 6.78125 
Q 63.578125 2.734375 56.6875 0.65625 
Q 49.8125 -1.421875 42 -1.421875 
Q 24.90625 -1.421875 15.25 8.5625 
Q 5.609375 18.5625 5.609375 36.375 
Q 5.609375 54.25 15.25 64.234375 
Q 24.90625 74.21875 42 74.21875 
Q 49.125 74.21875 55.546875 72.453125 
Q 61.96875 70.703125 67.390625 67.28125 
L 67.390625 56.78125 
Q 61.921875 61.421875 55.765625 63.765625 
Q 49.609375 66.109375 42.828125 66.109375 
Q 29.4375 66.109375 22.71875 58.640625 
Q 16.015625 51.171875 16.015625 36.375 
Q 16.015625 21.625 22.71875 14.15625 
Q 29.4375 6.6875 42.828125 6.6875 
Q 48.046875 6.6875 52.140625 7.59375 
Q 56.25 8.5 59.515625 10.40625 
z
" id="DejaVuSans-71"/>
      <path d="M 30.609375 48.390625 
Q 23.390625 48.390625 19.1875 42.75 
Q 14.984375 37.109375 14.984375 27.296875 
Q 14.984375 17.484375 19.15625 11.84375 
Q 23.34375 6.203125 30.609375 6.203125 
Q 37.796875 6.203125 41.984375 11.859375 
Q 46.1875 17.53125 46.1875 27.296875 
Q 46.1875 37.015625 41.984375 42.703125 
Q 37.796875 48.390625 30.609375 48.390625 
z
M 30.609375 56 
Q 42.328125 56 49.015625 48.375 
Q 55.71875 40.765625 55.71875 27.296875 
Q 55.71875 13.875 49.015625 6.21875 
Q 42.328125 -1.421875 30.609375 -1.421875 
Q 18.84375 -1.421875 12.171875 6.21875 
Q 5.515625 13.875 5.515625 27.296875 
Q 5.515625 40.765625 12.171875 48.375 
Q 18.84375 56 30.609375 56 
z
" id="DejaVuSans-111"/>
      <path d="M 8.5 21.578125 
L 8.5 54.6875 
L 17.484375 54.6875 
L 17.484375 21.921875 
Q 17.484375 14.15625 20.5 10.265625 
Q 23.53125 6.390625 29.59375 6.390625 
Q 36.859375 6.390625 41.078125 11.03125 
Q 45.3125 15.671875 45.3125 23.6875 
L 45.3125 54.6875 
L 54.296875 54.6875 
L 54.296875 0 
L 45.3125 0 
L 45.3125 8.40625 
Q 42.046875 3.421875 37.71875 1 
Q 33.40625 -1.421875 27.6875 -1.421875 
Q 18.265625 -1.421875 13.375 4.4375 
Q 8.5 10.296875 8.5 21.578125 
z
M 31.109375 56 
z
" id="DejaVuSans-117"/>
      <path d="M 18.109375 8.203125 
L 18.109375 -20.796875 
L 9.078125 -20.796875 
L 9.078125 54.6875 
L 18.109375 54.6875 
L 18.109375 46.390625 
Q 20.953125 51.265625 25.265625 53.625 
Q 29.59375 56 35.59375 56 
Q 45.5625 56 51.78125 48.09375 
Q 58.015625 40.1875 58.015625 27.296875 
Q 58.015625 14.40625 51.78125 6.484375 
Q 45.5625 -1.421875 35.59375 -1.421875 
Q 29.59375 -1.421875 25.265625 0.953125 
Q 20.953125 3.328125 18.109375 8.203125 
z
M 48.6875 27.296875 
Q 48.6875 37.203125 44.609375 42.84375 
Q 40.53125 48.484375 33.40625 48.484375 
Q 26.265625 48.484375 22.1875 42.84375 
Q 18.109375 37.203125 18.109375 27.296875 
Q 18.109375 17.390625 22.1875 11.75 
Q 26.265625 6.109375 33.40625 6.109375 
Q 40.53125 6.109375 44.609375 11.75 
Q 48.6875 17.390625 48.6875 27.296875 
z
" id="DejaVuSans-112"/>
      <path id="DejaVuSans-32"/>
      <path d="M 34.1875 63.1875 
L 20.796875 26.90625 
L 47.609375 26.90625 
z
M 28.609375 72.90625 
L 39.796875 72.90625 
L 67.578125 0 
L 57.328125 0 
L 50.6875 18.703125 
L 17.828125 18.703125 
L 11.1875 0 
L 0.78125 0 
z
" id="DejaVuSans-65"/>
     </defs>
     <use xlink:href="#DejaVuSans-71"/>
     <use x="77.490234" xlink:href="#DejaVuSans-114"/>
     <use x="116.353516" xlink:href="#DejaVuSans-111"/>
     <use x="177.535156" xlink:href="#DejaVuSans-117"/>
     <use x="240.914062" xlink:href="#DejaVuSans-112"/>
     <use x="304.390625" xlink:href="#DejaVuSans-32"/>
     <use x="336.177734" xlink:href="#DejaVuSans-65"/>
    </g>
   </g>
  </g>
  <g id="axes_2">
   <g id="patch_7">
    <path d="M 264.593437 254.118125 
L 437.018438 254.118125 
L 437.018438 22.318125 
L 264.593437 22.318125 
z
" style="fill:#ffffff;"/>
   </g>
   <g id="PathCollection_2">
    <g clip-path="url(#p7c373b8ac3)">
     <use style="fill:#1f77b4;fill-opacity:0.8;stroke:#1f77b4;stroke-opacity:0.8;" x="264.593437" xlink:href="#m614c3cf77a" y="243.581761"/>
     <use style="fill:#1f77b4;fill-opacity:0.8;stroke:#1f77b4;stroke-opacity:0.8;" x="277.856899" xlink:href="#m614c3cf77a" y="201.436307"/>
     <use style="fill:#1f77b4;fill-opacity:0.8;stroke:#1f77b4;stroke-opacity:0.8;" x="397.228053" xlink:href="#m614c3cf77a" y="74.999943"/>
     <use style="fill:#1f77b4;fill-opacity:0.8;stroke:#1f77b4;stroke-opacity:0.8;" x="357.437668" xlink:href="#m614c3cf77a" y="32.854489"/>
     <use style="fill:#1f77b4;fill-opacity:0.8;stroke:#1f77b4;stroke-opacity:0.8;" x="330.910745" xlink:href="#m614c3cf77a" y="74.999943"/>
     <use style="fill:#1f77b4;fill-opacity:0.8;stroke:#1f77b4;stroke-opacity:0.8;" x="397.228053" xlink:href="#m614c3cf77a" y="117.145398"/>
     <use style="fill:#1f77b4;fill-opacity:0.8;stroke:#1f77b4;stroke-opacity:0.8;" x="330.910745" xlink:href="#m614c3cf77a" y="32.854489"/>
     <use style="fill:#1f77b4;fill-opacity:0.8;stroke:#1f77b4;stroke-opacity:0.8;" x="357.437668" xlink:href="#m614c3cf77a" y="243.581761"/>
     <use style="fill:#1f77b4;fill-opacity:0.8;stroke:#1f77b4;stroke-opacity:0.8;" x="357.437668" xlink:href="#m614c3cf77a" y="74.999943"/>
     <use style="fill:#1f77b4;fill-opacity:0.8;stroke:#1f77b4;stroke-opacity:0.8;" x="383.964591" xlink:href="#m614c3cf77a" y="32.854489"/>
     <use style="fill:#1f77b4;fill-opacity:0.8;stroke:#1f77b4;stroke-opacity:0.8;" x="357.437668" xlink:href="#m614c3cf77a" y="159.290852"/>
     <use style="fill:#1f77b4;fill-opacity:0.8;stroke:#1f77b4;stroke-opacity:0.8;" x="397.228053" xlink:href="#m614c3cf77a" y="32.854489"/>
     <use style="fill:#1f77b4;fill-opacity:0.8;stroke:#1f77b4;stroke-opacity:0.8;" x="357.437668" xlink:href="#m614c3cf77a" y="117.145398"/>
     <use style="fill:#1f77b4;fill-opacity:0.8;stroke:#1f77b4;stroke-opacity:0.8;" x="410.491514" xlink:href="#m614c3cf77a" y="74.999943"/>
     <use style="fill:#1f77b4;fill-opacity:0.8;stroke:#1f77b4;stroke-opacity:0.8;" x="370.70113" xlink:href="#m614c3cf77a" y="117.145398"/>
     <use style="fill:#1f77b4;fill-opacity:0.8;stroke:#1f77b4;stroke-opacity:0.8;" x="410.491514" xlink:href="#m614c3cf77a" y="32.854489"/>
     <use style="fill:#1f77b4;fill-opacity:0.8;stroke:#1f77b4;stroke-opacity:0.8;" x="370.70113" xlink:href="#m614c3cf77a" y="117.145398"/>
     <use style="fill:#1f77b4;fill-opacity:0.8;stroke:#1f77b4;stroke-opacity:0.8;" x="330.910745" xlink:href="#m614c3cf77a" y="74.999943"/>
     <use style="fill:#1f77b4;fill-opacity:0.8;stroke:#1f77b4;stroke-opacity:0.8;" x="383.964591" xlink:href="#m614c3cf77a" y="74.999943"/>
     <use style="fill:#1f77b4;fill-opacity:0.8;stroke:#1f77b4;stroke-opacity:0.8;" x="291.120361" xlink:href="#m614c3cf77a" y="201.436307"/>
     <use style="fill:#1f77b4;fill-opacity:0.8;stroke:#1f77b4;stroke-opacity:0.8;" x="437.018438" xlink:href="#m614c3cf77a" y="159.290852"/>
     <use style="fill:#1f77b4;fill-opacity:0.8;stroke:#1f77b4;stroke-opacity:0.8;" x="330.910745" xlink:href="#m614c3cf77a" y="159.290852"/>
     <use style="fill:#1f77b4;fill-opacity:0.8;stroke:#1f77b4;stroke-opacity:0.8;" x="383.964591" xlink:href="#m614c3cf77a" y="74.999943"/>
     <use style="fill:#1f77b4;fill-opacity:0.8;stroke:#1f77b4;stroke-opacity:0.8;" x="397.228053" xlink:href="#m614c3cf77a" y="159.290852"/>
     <use style="fill:#1f77b4;fill-opacity:0.8;stroke:#1f77b4;stroke-opacity:0.8;" x="397.228053" xlink:href="#m614c3cf77a" y="243.581761"/>
     <use style="fill:#1f77b4;fill-opacity:0.8;stroke:#1f77b4;stroke-opacity:0.8;" x="330.910745" xlink:href="#m614c3cf77a" y="32.854489"/>
     <use style="fill:#1f77b4;fill-opacity:0.8;stroke:#1f77b4;stroke-opacity:0.8;" x="330.910745" xlink:href="#m614c3cf77a" y="74.999943"/>
     <use style="fill:#1f77b4;fill-opacity:0.8;stroke:#1f77b4;stroke-opacity:0.8;" x="330.910745" xlink:href="#m614c3cf77a" y="32.854489"/>
     <use style="fill:#1f77b4;fill-opacity:0.8;stroke:#1f77b4;stroke-opacity:0.8;" x="397.228053" xlink:href="#m614c3cf77a" y="159.290852"/>
     <use style="fill:#1f77b4;fill-opacity:0.8;stroke:#1f77b4;stroke-opacity:0.8;" x="397.228053" xlink:href="#m614c3cf77a" y="159.290852"/>
     <use style="fill:#1f77b4;fill-opacity:0.8;stroke:#1f77b4;stroke-opacity:0.8;" x="264.593437" xlink:href="#m614c3cf77a" y="117.145398"/>
     <use style="fill:#1f77b4;fill-opacity:0.8;stroke:#1f77b4;stroke-opacity:0.8;" x="344.174207" xlink:href="#m614c3cf77a" y="74.999943"/>
     <use style="fill:#1f77b4;fill-opacity:0.8;stroke:#1f77b4;stroke-opacity:0.8;" x="370.70113" xlink:href="#m614c3cf77a" y="74.999943"/>
     <use style="fill:#1f77b4;fill-opacity:0.8;stroke:#1f77b4;stroke-opacity:0.8;" x="330.910745" xlink:href="#m614c3cf77a" y="117.145398"/>
     <use style="fill:#1f77b4;fill-opacity:0.8;stroke:#1f77b4;stroke-opacity:0.8;" x="357.437668" xlink:href="#m614c3cf77a" y="32.854489"/>
     <use style="fill:#1f77b4;fill-opacity:0.8;stroke:#1f77b4;stroke-opacity:0.8;" x="344.174207" xlink:href="#m614c3cf77a" y="74.999943"/>
     <use style="fill:#1f77b4;fill-opacity:0.8;stroke:#1f77b4;stroke-opacity:0.8;" x="330.910745" xlink:href="#m614c3cf77a" y="159.290852"/>
     <use style="fill:#1f77b4;fill-opacity:0.8;stroke:#1f77b4;stroke-opacity:0.8;" x="383.964591" xlink:href="#m614c3cf77a" y="74.999943"/>
     <use style="fill:#1f77b4;fill-opacity:0.8;stroke:#1f77b4;stroke-opacity:0.8;" x="330.910745" xlink:href="#m614c3cf77a" y="74.999943"/>
     <use style="fill:#1f77b4;fill-opacity:0.8;stroke:#1f77b4;stroke-opacity:0.8;" x="330.910745" xlink:href="#m614c3cf77a" y="32.854489"/>
     <use style="fill:#1f77b4;fill-opacity:0.8;stroke:#1f77b4;stroke-opacity:0.8;" x="330.910745" xlink:href="#m614c3cf77a" y="32.854489"/>
     <use style="fill:#1f77b4;fill-opacity:0.8;stroke:#1f77b4;stroke-opacity:0.8;" x="397.228053" xlink:href="#m614c3cf77a" y="74.999943"/>
    </g>
   </g>
   <g id="PolyCollection_2">
    <path clip-path="url(#p7c373b8ac3)" d="M 264.593437 59.132465 
L 264.593437 177.965979 
L 266.335104 176.726109 
L 268.076771 175.486238 
L 269.818438 174.142397 
L 271.560104 172.942837 
L 273.301771 171.766627 
L 275.043437 170.349749 
L 276.785104 169.088641 
L 278.526771 167.827534 
L 280.268438 166.566426 
L 282.010104 165.349926 
L 283.751771 164.043209 
L 285.493438 162.783103 
L 287.235104 161.521995 
L 288.976771 160.278195 
L 290.718438 159.008228 
L 292.460104 157.716784 
L 294.201771 156.43929 
L 295.943438 155.025694 
L 297.685104 153.798392 
L 299.426771 152.605305 
L 301.168438 151.387173 
L 302.910104 150.052297 
L 304.651771 148.774882 
L 306.393438 147.497468 
L 308.135104 146.220053 
L 309.876771 145.132892 
L 311.618438 143.969072 
L 313.360104 143.031836 
L 315.101771 141.797171 
L 316.843438 140.635039 
L 318.585104 139.433226 
L 320.326771 138.234512 
L 322.068438 137.08213 
L 323.810104 135.991114 
L 325.551771 135.328086 
L 327.293437 134.425329 
L 329.035104 133.533241 
L 330.776771 132.709743 
L 332.518438 131.876888 
L 334.260104 131.130263 
L 336.001771 130.272706 
L 337.743438 129.401329 
L 339.485104 128.576574 
L 341.226771 127.399799 
L 342.968438 126.672508 
L 344.710104 125.717481 
L 346.451771 125.101776 
L 348.193438 124.06701 
L 349.935104 123.708654 
L 351.676771 123.072349 
L 353.418438 122.355423 
L 355.160104 122.12072 
L 356.901771 121.578716 
L 358.643438 121.283387 
L 360.385104 120.763987 
L 362.126771 120.48006 
L 363.868438 120.008084 
L 365.610104 119.744587 
L 367.351771 119.596459 
L 369.093438 119.638663 
L 370.835104 119.35664 
L 372.576771 119.384318 
L 374.318438 118.824283 
L 376.060104 118.982493 
L 377.801771 118.959877 
L 379.543438 118.580561 
L 381.285104 119.427016 
L 383.026771 118.889668 
L 384.768438 118.843082 
L 386.510104 118.901468 
L 388.251771 119.466972 
L 389.993438 119.902339 
L 391.735104 120.254841 
L 393.476771 120.612928 
L 395.218438 121.046397 
L 396.960104 121.318391 
L 398.701771 121.671247 
L 400.443438 122.463721 
L 402.185104 123.596369 
L 403.926771 124.555507 
L 405.668438 125.074837 
L 407.410104 125.631966 
L 409.151771 126.167896 
L 410.893438 126.479168 
L 412.635104 126.788473 
L 414.376771 127.198991 
L 416.118438 127.836907 
L 417.860104 128.48586 
L 419.601771 129.03763 
L 421.343438 129.686635 
L 423.085104 130.530578 
L 424.826771 130.674652 
L 426.568438 131.08896 
L 428.310104 131.692979 
L 430.051771 132.296058 
L 431.793438 132.899138 
L 433.535104 133.498193 
L 435.276771 134.341635 
L 437.018438 134.760141 
L 437.018438 37.38191 
L 437.018438 37.38191 
L 435.276771 38.561152 
L 433.535104 39.807586 
L 431.793438 41.054021 
L 430.051771 42.300456 
L 428.310104 43.54689 
L 426.568438 44.793325 
L 424.826771 46.03976 
L 423.085104 47.286194 
L 421.343438 48.437628 
L 419.601771 49.509992 
L 417.860104 50.582355 
L 416.118438 51.783586 
L 414.376771 53.001718 
L 412.635104 54.249091 
L 410.893438 55.433164 
L 409.151771 56.647672 
L 407.410104 57.864126 
L 405.668438 59.082326 
L 403.926771 60.296409 
L 402.185104 61.37125 
L 400.443438 62.447907 
L 398.701771 63.261469 
L 396.960104 64.014594 
L 395.218438 65.223038 
L 393.476771 66.399641 
L 391.735104 67.592388 
L 389.993438 68.785134 
L 388.251771 69.555376 
L 386.510104 70.521538 
L 384.768438 71.339856 
L 383.026771 72.358893 
L 381.285104 73.233543 
L 379.543438 74.1629 
L 377.801771 75.528209 
L 376.060104 76.882894 
L 374.318438 78.109153 
L 372.576771 79.421886 
L 370.835104 80.285175 
L 369.093438 81.170373 
L 367.351771 81.824417 
L 365.610104 82.641789 
L 363.868438 83.088852 
L 362.126771 83.295272 
L 360.385104 83.637196 
L 358.643438 83.95254 
L 356.901771 84.323018 
L 355.160104 84.835409 
L 353.418438 84.923081 
L 351.676771 85.063604 
L 349.935104 85.404497 
L 348.193438 85.291232 
L 346.451771 85.609594 
L 344.710104 85.679453 
L 342.968438 85.587532 
L 341.226771 85.172983 
L 339.485104 84.758752 
L 337.743438 84.336292 
L 336.001771 83.841547 
L 334.260104 83.0775 
L 332.518438 82.192423 
L 330.776771 81.425957 
L 329.035104 80.686185 
L 327.293437 80.122107 
L 325.551771 79.776275 
L 323.810104 78.947017 
L 322.068438 78.330126 
L 320.326771 78.008022 
L 318.585104 77.841294 
L 316.843438 77.636389 
L 315.101771 76.958585 
L 313.360104 76.466364 
L 311.618438 75.828761 
L 309.876771 75.478337 
L 308.135104 75.231064 
L 306.393438 74.98379 
L 304.651771 74.712877 
L 302.910104 74.043018 
L 301.168438 73.506655 
L 299.426771 72.985433 
L 297.685104 72.011465 
L 295.943438 71.323159 
L 294.201771 70.634852 
L 292.460104 69.951689 
L 290.718438 69.275124 
L 288.976771 68.598558 
L 287.235104 67.921992 
L 285.493438 67.245426 
L 283.751771 66.57315 
L 282.010104 65.902492 
L 280.268438 65.231835 
L 278.526771 64.561177 
L 276.785104 63.884216 
L 275.043437 63.203179 
L 273.301771 62.522141 
L 271.560104 61.841104 
L 269.818438 61.160067 
L 268.076771 60.479769 
L 266.335104 59.804803 
L 264.593437 59.132465 
z
" style="fill:#1f77b4;fill-opacity:0.15;"/>
   </g>
   <g id="matplotlib.axis_3">
    <g id="xtick_4">
     <g id="line2d_13">
      <g>
       <use style="stroke:#000000;stroke-width:0.8;" x="304.383822" xlink:href="#m3bb482b2cb" y="254.118125"/>
      </g>
     </g>
     <g id="text_15">
      <!-- 2 -->
      <g transform="translate(301.202572 268.716562)scale(0.1 -0.1)">
       <use xlink:href="#DejaVuSans-50"/>
      </g>
     </g>
    </g>
    <g id="xtick_5">
     <g id="line2d_14">
      <g>
       <use style="stroke:#000000;stroke-width:0.8;" x="357.437668" xlink:href="#m3bb482b2cb" y="254.118125"/>
      </g>
     </g>
     <g id="text_16">
      <!-- 3 -->
      <g transform="translate(354.256418 268.716562)scale(0.1 -0.1)">
       <use xlink:href="#DejaVuSans-51"/>
      </g>
     </g>
    </g>
    <g id="xtick_6">
     <g id="line2d_15">
      <g>
       <use style="stroke:#000000;stroke-width:0.8;" x="410.491514" xlink:href="#m3bb482b2cb" y="254.118125"/>
      </g>
     </g>
     <g id="text_17">
      <!-- 4 -->
      <g transform="translate(407.310264 268.716562)scale(0.1 -0.1)">
       <use xlink:href="#DejaVuSans-52"/>
      </g>
     </g>
    </g>
    <g id="text_18">
     <!-- E -->
     <g transform="translate(347.646563 282.394687)scale(0.1 -0.1)">
      <use xlink:href="#DejaVuSans-69"/>
     </g>
    </g>
   </g>
   <g id="matplotlib.axis_4">
    <g id="ytick_9">
     <g id="line2d_16">
      <g>
       <use style="stroke:#000000;stroke-width:0.8;" x="264.593437" xlink:href="#m29b4e1530c" y="243.581761"/>
      </g>
     </g>
     <g id="text_19">
      <!-- 2 -->
      <g transform="translate(251.230937 247.38098)scale(0.1 -0.1)">
       <use xlink:href="#DejaVuSans-50"/>
      </g>
     </g>
    </g>
    <g id="ytick_10">
     <g id="line2d_17">
      <g>
       <use style="stroke:#000000;stroke-width:0.8;" x="264.593437" xlink:href="#m29b4e1530c" y="201.436307"/>
      </g>
     </g>
     <g id="text_20">
      <!-- 3 -->
      <g transform="translate(251.230937 205.235526)scale(0.1 -0.1)">
       <use xlink:href="#DejaVuSans-51"/>
      </g>
     </g>
    </g>
    <g id="ytick_11">
     <g id="line2d_18">
      <g>
       <use style="stroke:#000000;stroke-width:0.8;" x="264.593437" xlink:href="#m29b4e1530c" y="159.290852"/>
      </g>
     </g>
     <g id="text_21">
      <!-- 4 -->
      <g transform="translate(251.230937 163.090071)scale(0.1 -0.1)">
       <use xlink:href="#DejaVuSans-52"/>
      </g>
     </g>
    </g>
    <g id="ytick_12">
     <g id="line2d_19">
      <g>
       <use style="stroke:#000000;stroke-width:0.8;" x="264.593437" xlink:href="#m29b4e1530c" y="117.145398"/>
      </g>
     </g>
     <g id="text_22">
      <!-- 5 -->
      <g transform="translate(251.230937 120.944616)scale(0.1 -0.1)">
       <use xlink:href="#DejaVuSans-53"/>
      </g>
     </g>
    </g>
    <g id="ytick_13">
     <g id="line2d_20">
      <g>
       <use style="stroke:#000000;stroke-width:0.8;" x="264.593437" xlink:href="#m29b4e1530c" y="74.999943"/>
      </g>
     </g>
     <g id="text_23">
      <!-- 6 -->
      <g transform="translate(251.230937 78.799162)scale(0.1 -0.1)">
       <use xlink:href="#DejaVuSans-54"/>
      </g>
     </g>
    </g>
    <g id="ytick_14">
     <g id="line2d_21">
      <g>
       <use style="stroke:#000000;stroke-width:0.8;" x="264.593437" xlink:href="#m29b4e1530c" y="32.854489"/>
      </g>
     </g>
     <g id="text_24">
      <!-- 7 -->
      <g transform="translate(251.230937 36.653707)scale(0.1 -0.1)">
       <use xlink:href="#DejaVuSans-55"/>
      </g>
     </g>
    </g>
    <g id="text_25">
     <!-- Offering3 -->
     <g transform="translate(245.15125 161.719687)rotate(-90)scale(0.1 -0.1)">
      <use xlink:href="#DejaVuSans-79"/>
      <use x="78.710938" xlink:href="#DejaVuSans-102"/>
      <use x="113.916016" xlink:href="#DejaVuSans-102"/>
      <use x="149.121094" xlink:href="#DejaVuSans-101"/>
      <use x="210.644531" xlink:href="#DejaVuSans-114"/>
      <use x="251.757812" xlink:href="#DejaVuSans-105"/>
      <use x="279.541016" xlink:href="#DejaVuSans-110"/>
      <use x="342.919922" xlink:href="#DejaVuSans-103"/>
      <use x="406.396484" xlink:href="#DejaVuSans-51"/>
     </g>
    </g>
   </g>
   <g id="line2d_22">
    <path clip-path="url(#p7c373b8ac3)" d="M 264.593437 125.927974 
L 266.335104 125.496752 
L 268.076771 125.06553 
L 269.818438 124.634308 
L 271.560104 124.203087 
L 273.301771 123.771865 
L 275.043437 123.340643 
L 276.785104 122.909421 
L 278.526771 122.478199 
L 280.268438 122.046978 
L 282.010104 121.615756 
L 283.751771 121.184534 
L 285.493438 120.753312 
L 287.235104 120.322091 
L 288.976771 119.890869 
L 290.718438 119.459647 
L 292.460104 119.028425 
L 294.201771 118.597203 
L 295.943438 118.165982 
L 297.685104 117.73476 
L 299.426771 117.303538 
L 301.168438 116.872316 
L 302.910104 116.441095 
L 304.651771 116.009873 
L 306.393438 115.578651 
L 308.135104 115.147429 
L 309.876771 114.716207 
L 311.618438 114.284986 
L 313.360104 113.853764 
L 315.101771 113.422542 
L 316.843438 112.99132 
L 318.585104 112.560099 
L 320.326771 112.128877 
L 322.068438 111.697655 
L 323.810104 111.266433 
L 325.551771 110.835211 
L 327.293437 110.40399 
L 329.035104 109.972768 
L 330.776771 109.541546 
L 332.518438 109.110324 
L 334.260104 108.679103 
L 336.001771 108.247881 
L 337.743438 107.816659 
L 339.485104 107.385437 
L 341.226771 106.954215 
L 342.968438 106.522994 
L 344.710104 106.091772 
L 346.451771 105.66055 
L 348.193438 105.229328 
L 349.935104 104.798106 
L 351.676771 104.366885 
L 353.418438 103.935663 
L 355.160104 103.504441 
L 356.901771 103.073219 
L 358.643438 102.641998 
L 360.385104 102.210776 
L 362.126771 101.779554 
L 363.868438 101.348332 
L 365.610104 100.91711 
L 367.351771 100.485889 
L 369.093438 100.054667 
L 370.835104 99.623445 
L 372.576771 99.192223 
L 374.318438 98.761002 
L 376.060104 98.32978 
L 377.801771 97.898558 
L 379.543438 97.467336 
L 381.285104 97.036114 
L 383.026771 96.604893 
L 384.768438 96.173671 
L 386.510104 95.742449 
L 388.251771 95.311227 
L 389.993438 94.880006 
L 391.735104 94.448784 
L 393.476771 94.017562 
L 395.218438 93.58634 
L 396.960104 93.155118 
L 398.701771 92.723897 
L 400.443438 92.292675 
L 402.185104 91.861453 
L 403.926771 91.430231 
L 405.668438 90.99901 
L 407.410104 90.567788 
L 409.151771 90.136566 
L 410.893438 89.705344 
L 412.635104 89.274122 
L 414.376771 88.842901 
L 416.118438 88.411679 
L 417.860104 87.980457 
L 419.601771 87.549235 
L 421.343438 87.118014 
L 423.085104 86.686792 
L 424.826771 86.25557 
L 426.568438 85.824348 
L 428.310104 85.393126 
L 430.051771 84.961905 
L 431.793438 84.530683 
L 433.535104 84.099461 
L 435.276771 83.668239 
L 437.018438 83.237018 
" style="fill:none;stroke:#1f77b4;stroke-linecap:square;stroke-width:2.25;"/>
   </g>
   <g id="patch_8">
    <path d="M 264.593437 254.118125 
L 264.593437 22.318125 
" style="fill:none;stroke:#000000;stroke-linecap:square;stroke-linejoin:miter;stroke-width:0.8;"/>
   </g>
   <g id="patch_9">
    <path d="M 437.018438 254.118125 
L 437.018438 22.318125 
" style="fill:none;stroke:#000000;stroke-linecap:square;stroke-linejoin:miter;stroke-width:0.8;"/>
   </g>
   <g id="patch_10">
    <path d="M 264.593437 254.118125 
L 437.018438 254.118125 
" style="fill:none;stroke:#000000;stroke-linecap:square;stroke-linejoin:miter;stroke-width:0.8;"/>
   </g>
   <g id="patch_11">
    <path d="M 264.593437 22.318125 
L 437.018438 22.318125 
" style="fill:none;stroke:#000000;stroke-linecap:square;stroke-linejoin:miter;stroke-width:0.8;"/>
   </g>
   <g id="text_26">
    <!-- Group B -->
    <g transform="translate(264.593437 16.318125)scale(0.12 -0.12)">
     <defs>
      <path d="M 19.671875 34.8125 
L 19.671875 8.109375 
L 35.5 8.109375 
Q 43.453125 8.109375 47.28125 11.40625 
Q 51.125 14.703125 51.125 21.484375 
Q 51.125 28.328125 47.28125 31.5625 
Q 43.453125 34.8125 35.5 34.8125 
z
M 19.671875 64.796875 
L 19.671875 42.828125 
L 34.28125 42.828125 
Q 41.5 42.828125 45.03125 45.53125 
Q 48.578125 48.25 48.578125 53.8125 
Q 48.578125 59.328125 45.03125 62.0625 
Q 41.5 64.796875 34.28125 64.796875 
z
M 9.8125 72.90625 
L 35.015625 72.90625 
Q 46.296875 72.90625 52.390625 68.21875 
Q 58.5 63.53125 58.5 54.890625 
Q 58.5 48.1875 55.375 44.234375 
Q 52.25 40.28125 46.1875 39.3125 
Q 53.46875 37.75 57.5 32.78125 
Q 61.53125 27.828125 61.53125 20.40625 
Q 61.53125 10.640625 54.890625 5.3125 
Q 48.25 0 35.984375 0 
L 9.8125 0 
z
" id="DejaVuSans-66"/>
     </defs>
     <use xlink:href="#DejaVuSans-71"/>
     <use x="77.490234" xlink:href="#DejaVuSans-114"/>
     <use x="116.353516" xlink:href="#DejaVuSans-111"/>
     <use x="177.535156" xlink:href="#DejaVuSans-117"/>
     <use x="240.914062" xlink:href="#DejaVuSans-112"/>
     <use x="304.390625" xlink:href="#DejaVuSans-32"/>
     <use x="336.177734" xlink:href="#DejaVuSans-66"/>
    </g>
   </g>
  </g>
  <g id="text_27">
   <!-- How influential do you perceive the chatbots offer to help you find a bike? -->
   <g transform="translate(7.2 22.79625)scale(0.12 -0.12)">
    <defs>
     <path d="M 9.8125 72.90625 
L 19.671875 72.90625 
L 19.671875 43.015625 
L 55.515625 43.015625 
L 55.515625 72.90625 
L 65.375 72.90625 
L 65.375 0 
L 55.515625 0 
L 55.515625 34.71875 
L 19.671875 34.71875 
L 19.671875 0 
L 9.8125 0 
z
" id="DejaVuSans-72"/>
     <path d="M 4.203125 54.6875 
L 13.1875 54.6875 
L 24.421875 12.015625 
L 35.59375 54.6875 
L 46.1875 54.6875 
L 57.421875 12.015625 
L 68.609375 54.6875 
L 77.59375 54.6875 
L 63.28125 0 
L 52.6875 0 
L 40.921875 44.828125 
L 29.109375 0 
L 18.5 0 
z
" id="DejaVuSans-119"/>
     <path d="M 9.421875 75.984375 
L 18.40625 75.984375 
L 18.40625 0 
L 9.421875 0 
z
" id="DejaVuSans-108"/>
     <path d="M 18.3125 70.21875 
L 18.3125 54.6875 
L 36.8125 54.6875 
L 36.8125 47.703125 
L 18.3125 47.703125 
L 18.3125 18.015625 
Q 18.3125 11.328125 20.140625 9.421875 
Q 21.96875 7.515625 27.59375 7.515625 
L 36.8125 7.515625 
L 36.8125 0 
L 27.59375 0 
Q 17.1875 0 13.234375 3.875 
Q 9.28125 7.765625 9.28125 18.015625 
L 9.28125 47.703125 
L 2.6875 47.703125 
L 2.6875 54.6875 
L 9.28125 54.6875 
L 9.28125 70.21875 
z
" id="DejaVuSans-116"/>
     <path d="M 34.28125 27.484375 
Q 23.390625 27.484375 19.1875 25 
Q 14.984375 22.515625 14.984375 16.5 
Q 14.984375 11.71875 18.140625 8.90625 
Q 21.296875 6.109375 26.703125 6.109375 
Q 34.1875 6.109375 38.703125 11.40625 
Q 43.21875 16.703125 43.21875 25.484375 
L 43.21875 27.484375 
z
M 52.203125 31.203125 
L 52.203125 0 
L 43.21875 0 
L 43.21875 8.296875 
Q 40.140625 3.328125 35.546875 0.953125 
Q 30.953125 -1.421875 24.3125 -1.421875 
Q 15.921875 -1.421875 10.953125 3.296875 
Q 6 8.015625 6 15.921875 
Q 6 25.140625 12.171875 29.828125 
Q 18.359375 34.515625 30.609375 34.515625 
L 43.21875 34.515625 
L 43.21875 35.40625 
Q 43.21875 41.609375 39.140625 45 
Q 35.0625 48.390625 27.6875 48.390625 
Q 23 48.390625 18.546875 47.265625 
Q 14.109375 46.140625 10.015625 43.890625 
L 10.015625 52.203125 
Q 14.9375 54.109375 19.578125 55.046875 
Q 24.21875 56 28.609375 56 
Q 40.484375 56 46.34375 49.84375 
Q 52.203125 43.703125 52.203125 31.203125 
z
" id="DejaVuSans-97"/>
     <path d="M 45.40625 46.390625 
L 45.40625 75.984375 
L 54.390625 75.984375 
L 54.390625 0 
L 45.40625 0 
L 45.40625 8.203125 
Q 42.578125 3.328125 38.25 0.953125 
Q 33.9375 -1.421875 27.875 -1.421875 
Q 17.96875 -1.421875 11.734375 6.484375 
Q 5.515625 14.40625 5.515625 27.296875 
Q 5.515625 40.1875 11.734375 48.09375 
Q 17.96875 56 27.875 56 
Q 33.9375 56 38.25 53.625 
Q 42.578125 51.265625 45.40625 46.390625 
z
M 14.796875 27.296875 
Q 14.796875 17.390625 18.875 11.75 
Q 22.953125 6.109375 30.078125 6.109375 
Q 37.203125 6.109375 41.296875 11.75 
Q 45.40625 17.390625 45.40625 27.296875 
Q 45.40625 37.203125 41.296875 42.84375 
Q 37.203125 48.484375 30.078125 48.484375 
Q 22.953125 48.484375 18.875 42.84375 
Q 14.796875 37.203125 14.796875 27.296875 
z
" id="DejaVuSans-100"/>
     <path d="M 32.171875 -5.078125 
Q 28.375 -14.84375 24.75 -17.8125 
Q 21.140625 -20.796875 15.09375 -20.796875 
L 7.90625 -20.796875 
L 7.90625 -13.28125 
L 13.1875 -13.28125 
Q 16.890625 -13.28125 18.9375 -11.515625 
Q 21 -9.765625 23.484375 -3.21875 
L 25.09375 0.875 
L 2.984375 54.6875 
L 12.5 54.6875 
L 29.59375 11.921875 
L 46.6875 54.6875 
L 56.203125 54.6875 
z
" id="DejaVuSans-121"/>
     <path d="M 48.78125 52.59375 
L 48.78125 44.1875 
Q 44.96875 46.296875 41.140625 47.34375 
Q 37.3125 48.390625 33.40625 48.390625 
Q 24.65625 48.390625 19.8125 42.84375 
Q 14.984375 37.3125 14.984375 27.296875 
Q 14.984375 17.28125 19.8125 11.734375 
Q 24.65625 6.203125 33.40625 6.203125 
Q 37.3125 6.203125 41.140625 7.25 
Q 44.96875 8.296875 48.78125 10.40625 
L 48.78125 2.09375 
Q 45.015625 0.34375 40.984375 -0.53125 
Q 36.96875 -1.421875 32.421875 -1.421875 
Q 20.0625 -1.421875 12.78125 6.34375 
Q 5.515625 14.109375 5.515625 27.296875 
Q 5.515625 40.671875 12.859375 48.328125 
Q 20.21875 56 33.015625 56 
Q 37.15625 56 41.109375 55.140625 
Q 45.0625 54.296875 48.78125 52.59375 
z
" id="DejaVuSans-99"/>
     <path d="M 2.984375 54.6875 
L 12.5 54.6875 
L 29.59375 8.796875 
L 46.6875 54.6875 
L 56.203125 54.6875 
L 35.6875 0 
L 23.484375 0 
z
" id="DejaVuSans-118"/>
     <path d="M 54.890625 33.015625 
L 54.890625 0 
L 45.90625 0 
L 45.90625 32.71875 
Q 45.90625 40.484375 42.875 44.328125 
Q 39.84375 48.1875 33.796875 48.1875 
Q 26.515625 48.1875 22.3125 43.546875 
Q 18.109375 38.921875 18.109375 30.90625 
L 18.109375 0 
L 9.078125 0 
L 9.078125 75.984375 
L 18.109375 75.984375 
L 18.109375 46.1875 
Q 21.34375 51.125 25.703125 53.5625 
Q 30.078125 56 35.796875 56 
Q 45.21875 56 50.046875 50.171875 
Q 54.890625 44.34375 54.890625 33.015625 
z
" id="DejaVuSans-104"/>
     <path d="M 48.6875 27.296875 
Q 48.6875 37.203125 44.609375 42.84375 
Q 40.53125 48.484375 33.40625 48.484375 
Q 26.265625 48.484375 22.1875 42.84375 
Q 18.109375 37.203125 18.109375 27.296875 
Q 18.109375 17.390625 22.1875 11.75 
Q 26.265625 6.109375 33.40625 6.109375 
Q 40.53125 6.109375 44.609375 11.75 
Q 48.6875 17.390625 48.6875 27.296875 
z
M 18.109375 46.390625 
Q 20.953125 51.265625 25.265625 53.625 
Q 29.59375 56 35.59375 56 
Q 45.5625 56 51.78125 48.09375 
Q 58.015625 40.1875 58.015625 27.296875 
Q 58.015625 14.40625 51.78125 6.484375 
Q 45.5625 -1.421875 35.59375 -1.421875 
Q 29.59375 -1.421875 25.265625 0.953125 
Q 20.953125 3.328125 18.109375 8.203125 
L 18.109375 0 
L 9.078125 0 
L 9.078125 75.984375 
L 18.109375 75.984375 
z
" id="DejaVuSans-98"/>
     <path d="M 12.703125 72.90625 
L 23 72.90625 
L 23 65.484375 
L 14.984375 49.90625 
L 8.6875 49.90625 
L 12.703125 65.484375 
z
" id="DejaVuSans-8217"/>
     <path d="M 44.28125 53.078125 
L 44.28125 44.578125 
Q 40.484375 46.53125 36.375 47.5 
Q 32.28125 48.484375 27.875 48.484375 
Q 21.1875 48.484375 17.84375 46.4375 
Q 14.5 44.390625 14.5 40.28125 
Q 14.5 37.15625 16.890625 35.375 
Q 19.28125 33.59375 26.515625 31.984375 
L 29.59375 31.296875 
Q 39.15625 29.25 43.1875 25.515625 
Q 47.21875 21.78125 47.21875 15.09375 
Q 47.21875 7.46875 41.1875 3.015625 
Q 35.15625 -1.421875 24.609375 -1.421875 
Q 20.21875 -1.421875 15.453125 -0.5625 
Q 10.6875 0.296875 5.421875 2 
L 5.421875 11.28125 
Q 10.40625 8.6875 15.234375 7.390625 
Q 20.0625 6.109375 24.8125 6.109375 
Q 31.15625 6.109375 34.5625 8.28125 
Q 37.984375 10.453125 37.984375 14.40625 
Q 37.984375 18.0625 35.515625 20.015625 
Q 33.0625 21.96875 24.703125 23.78125 
L 21.578125 24.515625 
Q 13.234375 26.265625 9.515625 29.90625 
Q 5.8125 33.546875 5.8125 39.890625 
Q 5.8125 47.609375 11.28125 51.796875 
Q 16.75 56 26.8125 56 
Q 31.78125 56 36.171875 55.265625 
Q 40.578125 54.546875 44.28125 53.078125 
z
" id="DejaVuSans-115"/>
     <path d="M 9.078125 75.984375 
L 18.109375 75.984375 
L 18.109375 31.109375 
L 44.921875 54.6875 
L 56.390625 54.6875 
L 27.390625 29.109375 
L 57.625 0 
L 45.90625 0 
L 18.109375 26.703125 
L 18.109375 0 
L 9.078125 0 
z
" id="DejaVuSans-107"/>
     <path d="M 19.09375 12.40625 
L 29 12.40625 
L 29 0 
L 19.09375 0 
z
M 28.71875 19.578125 
L 19.390625 19.578125 
L 19.390625 27.09375 
Q 19.390625 32.03125 20.75 35.203125 
Q 22.125 38.375 26.515625 42.578125 
L 30.90625 46.921875 
Q 33.6875 49.515625 34.9375 51.8125 
Q 36.1875 54.109375 36.1875 56.5 
Q 36.1875 60.84375 32.984375 63.53125 
Q 29.78125 66.21875 24.515625 66.21875 
Q 20.65625 66.21875 16.28125 64.5 
Q 11.921875 62.796875 7.171875 59.515625 
L 7.171875 68.703125 
Q 11.765625 71.484375 16.46875 72.84375 
Q 21.1875 74.21875 26.21875 74.21875 
Q 35.203125 74.21875 40.640625 69.484375 
Q 46.09375 64.75 46.09375 56.984375 
Q 46.09375 53.265625 44.328125 49.921875 
Q 42.578125 46.578125 38.1875 42.390625 
L 33.890625 38.1875 
Q 31.59375 35.890625 30.640625 34.59375 
Q 29.6875 33.296875 29.296875 32.078125 
Q 29 31.0625 28.859375 29.59375 
Q 28.71875 28.125 28.71875 25.59375 
z
" id="DejaVuSans-63"/>
    </defs>
    <use xlink:href="#DejaVuSans-72"/>
    <use x="75.195312" xlink:href="#DejaVuSans-111"/>
    <use x="136.376953" xlink:href="#DejaVuSans-119"/>
    <use x="218.164062" xlink:href="#DejaVuSans-32"/>
    <use x="249.951172" xlink:href="#DejaVuSans-105"/>
    <use x="277.734375" xlink:href="#DejaVuSans-110"/>
    <use x="341.113281" xlink:href="#DejaVuSans-102"/>
    <use x="376.318359" xlink:href="#DejaVuSans-108"/>
    <use x="404.101562" xlink:href="#DejaVuSans-117"/>
    <use x="467.480469" xlink:href="#DejaVuSans-101"/>
    <use x="529.003906" xlink:href="#DejaVuSans-110"/>
    <use x="592.382812" xlink:href="#DejaVuSans-116"/>
    <use x="631.591797" xlink:href="#DejaVuSans-105"/>
    <use x="659.375" xlink:href="#DejaVuSans-97"/>
    <use x="720.654297" xlink:href="#DejaVuSans-108"/>
    <use x="748.4375" xlink:href="#DejaVuSans-32"/>
    <use x="780.224609" xlink:href="#DejaVuSans-100"/>
    <use x="843.701172" xlink:href="#DejaVuSans-111"/>
    <use x="904.882812" xlink:href="#DejaVuSans-32"/>
    <use x="936.669922" xlink:href="#DejaVuSans-121"/>
    <use x="995.849609" xlink:href="#DejaVuSans-111"/>
    <use x="1057.03125" xlink:href="#DejaVuSans-117"/>
    <use x="1120.410156" xlink:href="#DejaVuSans-32"/>
    <use x="1152.197266" xlink:href="#DejaVuSans-112"/>
    <use x="1215.673828" xlink:href="#DejaVuSans-101"/>
    <use x="1277.197266" xlink:href="#DejaVuSans-114"/>
    <use x="1316.060547" xlink:href="#DejaVuSans-99"/>
    <use x="1371.041016" xlink:href="#DejaVuSans-101"/>
    <use x="1432.564453" xlink:href="#DejaVuSans-105"/>
    <use x="1460.347656" xlink:href="#DejaVuSans-118"/>
    <use x="1519.527344" xlink:href="#DejaVuSans-101"/>
    <use x="1581.050781" xlink:href="#DejaVuSans-32"/>
    <use x="1612.837891" xlink:href="#DejaVuSans-116"/>
    <use x="1652.046875" xlink:href="#DejaVuSans-104"/>
    <use x="1715.425781" xlink:href="#DejaVuSans-101"/>
    <use x="1776.949219" xlink:href="#DejaVuSans-32"/>
    <use x="1808.736328" xlink:href="#DejaVuSans-99"/>
    <use x="1863.716797" xlink:href="#DejaVuSans-104"/>
    <use x="1927.095703" xlink:href="#DejaVuSans-97"/>
    <use x="1988.375" xlink:href="#DejaVuSans-116"/>
    <use x="2027.583984" xlink:href="#DejaVuSans-98"/>
    <use x="2091.060547" xlink:href="#DejaVuSans-111"/>
    <use x="2152.242188" xlink:href="#DejaVuSans-116"/>
    <use x="2191.451172" xlink:href="#DejaVuSans-8217"/>
    <use x="2223.238281" xlink:href="#DejaVuSans-115"/>
    <use x="2275.337891" xlink:href="#DejaVuSans-32"/>
    <use x="2307.125" xlink:href="#DejaVuSans-111"/>
    <use x="2368.306641" xlink:href="#DejaVuSans-102"/>
    <use x="2403.511719" xlink:href="#DejaVuSans-102"/>
    <use x="2438.716797" xlink:href="#DejaVuSans-101"/>
    <use x="2500.240234" xlink:href="#DejaVuSans-114"/>
    <use x="2541.353516" xlink:href="#DejaVuSans-32"/>
    <use x="2573.140625" xlink:href="#DejaVuSans-116"/>
    <use x="2612.349609" xlink:href="#DejaVuSans-111"/>
    <use x="2673.53125" xlink:href="#DejaVuSans-32"/>
    <use x="2705.318359" xlink:href="#DejaVuSans-104"/>
    <use x="2768.697266" xlink:href="#DejaVuSans-101"/>
    <use x="2830.220703" xlink:href="#DejaVuSans-108"/>
    <use x="2858.003906" xlink:href="#DejaVuSans-112"/>
    <use x="2921.480469" xlink:href="#DejaVuSans-32"/>
    <use x="2953.267578" xlink:href="#DejaVuSans-121"/>
    <use x="3012.447266" xlink:href="#DejaVuSans-111"/>
    <use x="3073.628906" xlink:href="#DejaVuSans-117"/>
    <use x="3137.007812" xlink:href="#DejaVuSans-32"/>
    <use x="3168.794922" xlink:href="#DejaVuSans-102"/>
    <use x="3204" xlink:href="#DejaVuSans-105"/>
    <use x="3231.783203" xlink:href="#DejaVuSans-110"/>
    <use x="3295.162109" xlink:href="#DejaVuSans-100"/>
    <use x="3358.638672" xlink:href="#DejaVuSans-32"/>
    <use x="3390.425781" xlink:href="#DejaVuSans-97"/>
    <use x="3451.705078" xlink:href="#DejaVuSans-32"/>
    <use x="3483.492188" xlink:href="#DejaVuSans-98"/>
    <use x="3546.96875" xlink:href="#DejaVuSans-105"/>
    <use x="3574.751953" xlink:href="#DejaVuSans-107"/>
    <use x="3629.037109" xlink:href="#DejaVuSans-101"/>
    <use x="3690.560547" xlink:href="#DejaVuSans-63"/>
   </g>
  </g>
 </g>
 <defs>
  <clipPath id="p52ee1a70bd">
   <rect height="231.8" width="172.425" x="53.993437" y="22.318125"/>
  </clipPath>
  <clipPath id="p7c373b8ac3">
   <rect height="231.8" width="172.425" x="264.593437" y="22.318125"/>
  </clipPath>
 </defs>
</svg>
