<?xml version="1.0" encoding="utf-8" standalone="no"?>
<!DOCTYPE svg PUBLIC "-//W3C//DTD SVG 1.1//EN"
  "http://www.w3.org/Graphics/SVG/1.1/DTD/svg11.dtd">
<!-- Created with matplotlib (https://matplotlib.org/) -->
<svg height="291.674375pt" version="1.1" viewBox="0 0 526.54875 291.674375" width="526.54875pt" xmlns="http://www.w3.org/2000/svg" xmlns:xlink="http://www.w3.org/1999/xlink">
 <metadata>
  <rdf:RDF xmlns:cc="http://creativecommons.org/ns#" xmlns:dc="http://purl.org/dc/elements/1.1/" xmlns:rdf="http://www.w3.org/1999/02/22-rdf-syntax-ns#">
   <cc:Work>
    <dc:type rdf:resource="http://purl.org/dc/dcmitype/StillImage"/>
    <dc:date>2021-02-20T15:29:23.717686</dc:date>
    <dc:format>image/svg+xml</dc:format>
    <dc:creator>
     <cc:Agent>
      <dc:title>Matplotlib v3.3.2, https://matplotlib.org/</dc:title>
     </cc:Agent>
    </dc:creator>
   </cc:Work>
  </rdf:RDF>
 </metadata>
 <defs>
  <style type="text/css">*{stroke-linecap:butt;stroke-linejoin:round;}</style>
 </defs>
 <g id="figure_1">
  <g id="patch_1">
   <path d="M 0 291.674375 
L 526.54875 291.674375 
L 526.54875 0 
L 0 0 
z
" style="fill:none;"/>
  </g>
  <g id="axes_1">
   <g id="patch_2">
    <path d="M 85.449375 254.118125 
L 253.061875 254.118125 
L 253.061875 22.318125 
L 85.449375 22.318125 
z
" style="fill:#ffffff;"/>
   </g>
   <g id="PathCollection_1">
    <defs>
     <path d="M 0 3 
C 0.795609 3 1.55874 2.683901 2.12132 2.12132 
C 2.683901 1.55874 3 0.795609 3 0 
C 3 -0.795609 2.683901 -1.55874 2.12132 -2.12132 
C 1.55874 -2.683901 0.795609 -3 0 -3 
C -0.795609 -3 -1.55874 -2.683901 -2.12132 -2.12132 
C -2.683901 -1.55874 -3 -0.795609 -3 0 
C -3 0.795609 -2.683901 1.55874 -2.12132 2.12132 
C -1.55874 2.683901 -0.795609 3 0 3 
z
" id="maccecd432a" style="stroke:#1f77b4;stroke-opacity:0.8;"/>
    </defs>
    <g clip-path="url(#p30dc50be24)">
     <use style="fill:#1f77b4;fill-opacity:0.8;stroke:#1f77b4;stroke-opacity:0.8;" x="188.595529" xlink:href="#maccecd432a" y="157.495413"/>
     <use style="fill:#1f77b4;fill-opacity:0.8;stroke:#1f77b4;stroke-opacity:0.8;" x="111.235913" xlink:href="#maccecd432a" y="71.409065"/>
     <use style="fill:#1f77b4;fill-opacity:0.8;stroke:#1f77b4;stroke-opacity:0.8;" x="124.129183" xlink:href="#maccecd432a" y="114.452239"/>
     <use style="fill:#1f77b4;fill-opacity:0.8;stroke:#1f77b4;stroke-opacity:0.8;" x="188.595529" xlink:href="#maccecd432a" y="71.409065"/>
     <use style="fill:#1f77b4;fill-opacity:0.8;stroke:#1f77b4;stroke-opacity:0.8;" x="214.382067" xlink:href="#maccecd432a" y="114.452239"/>
     <use style="fill:#1f77b4;fill-opacity:0.8;stroke:#1f77b4;stroke-opacity:0.8;" x="175.70226" xlink:href="#maccecd432a" y="71.409065"/>
     <use style="fill:#1f77b4;fill-opacity:0.8;stroke:#1f77b4;stroke-opacity:0.8;" x="227.275337" xlink:href="#maccecd432a" y="71.409065"/>
     <use style="fill:#1f77b4;fill-opacity:0.8;stroke:#1f77b4;stroke-opacity:0.8;" x="175.70226" xlink:href="#maccecd432a" y="157.495413"/>
     <use style="fill:#1f77b4;fill-opacity:0.8;stroke:#1f77b4;stroke-opacity:0.8;" x="124.129183" xlink:href="#maccecd432a" y="114.452239"/>
     <use style="fill:#1f77b4;fill-opacity:0.8;stroke:#1f77b4;stroke-opacity:0.8;" x="162.80899" xlink:href="#maccecd432a" y="71.409065"/>
     <use style="fill:#1f77b4;fill-opacity:0.8;stroke:#1f77b4;stroke-opacity:0.8;" x="162.80899" xlink:href="#maccecd432a" y="71.409065"/>
     <use style="fill:#1f77b4;fill-opacity:0.8;stroke:#1f77b4;stroke-opacity:0.8;" x="214.382067" xlink:href="#maccecd432a" y="71.409065"/>
     <use style="fill:#1f77b4;fill-opacity:0.8;stroke:#1f77b4;stroke-opacity:0.8;" x="137.022452" xlink:href="#maccecd432a" y="71.409065"/>
     <use style="fill:#1f77b4;fill-opacity:0.8;stroke:#1f77b4;stroke-opacity:0.8;" x="175.70226" xlink:href="#maccecd432a" y="157.495413"/>
     <use style="fill:#1f77b4;fill-opacity:0.8;stroke:#1f77b4;stroke-opacity:0.8;" x="175.70226" xlink:href="#maccecd432a" y="157.495413"/>
     <use style="fill:#1f77b4;fill-opacity:0.8;stroke:#1f77b4;stroke-opacity:0.8;" x="201.488798" xlink:href="#maccecd432a" y="71.409065"/>
     <use style="fill:#1f77b4;fill-opacity:0.8;stroke:#1f77b4;stroke-opacity:0.8;" x="162.80899" xlink:href="#maccecd432a" y="114.452239"/>
     <use style="fill:#1f77b4;fill-opacity:0.8;stroke:#1f77b4;stroke-opacity:0.8;" x="149.915721" xlink:href="#maccecd432a" y="114.452239"/>
     <use style="fill:#1f77b4;fill-opacity:0.8;stroke:#1f77b4;stroke-opacity:0.8;" x="201.488798" xlink:href="#maccecd432a" y="71.409065"/>
     <use style="fill:#1f77b4;fill-opacity:0.8;stroke:#1f77b4;stroke-opacity:0.8;" x="85.449375" xlink:href="#maccecd432a" y="243.581761"/>
     <use style="fill:#1f77b4;fill-opacity:0.8;stroke:#1f77b4;stroke-opacity:0.8;" x="137.022452" xlink:href="#maccecd432a" y="114.452239"/>
     <use style="fill:#1f77b4;fill-opacity:0.8;stroke:#1f77b4;stroke-opacity:0.8;" x="253.061875" xlink:href="#maccecd432a" y="71.409065"/>
     <use style="fill:#1f77b4;fill-opacity:0.8;stroke:#1f77b4;stroke-opacity:0.8;" x="162.80899" xlink:href="#maccecd432a" y="71.409065"/>
     <use style="fill:#1f77b4;fill-opacity:0.8;stroke:#1f77b4;stroke-opacity:0.8;" x="162.80899" xlink:href="#maccecd432a" y="114.452239"/>
     <use style="fill:#1f77b4;fill-opacity:0.8;stroke:#1f77b4;stroke-opacity:0.8;" x="162.80899" xlink:href="#maccecd432a" y="71.409065"/>
     <use style="fill:#1f77b4;fill-opacity:0.8;stroke:#1f77b4;stroke-opacity:0.8;" x="162.80899" xlink:href="#maccecd432a" y="114.452239"/>
     <use style="fill:#1f77b4;fill-opacity:0.8;stroke:#1f77b4;stroke-opacity:0.8;" x="149.915721" xlink:href="#maccecd432a" y="71.409065"/>
     <use style="fill:#1f77b4;fill-opacity:0.8;stroke:#1f77b4;stroke-opacity:0.8;" x="137.022452" xlink:href="#maccecd432a" y="71.409065"/>
     <use style="fill:#1f77b4;fill-opacity:0.8;stroke:#1f77b4;stroke-opacity:0.8;" x="149.915721" xlink:href="#maccecd432a" y="114.452239"/>
     <use style="fill:#1f77b4;fill-opacity:0.8;stroke:#1f77b4;stroke-opacity:0.8;" x="162.80899" xlink:href="#maccecd432a" y="71.409065"/>
     <use style="fill:#1f77b4;fill-opacity:0.8;stroke:#1f77b4;stroke-opacity:0.8;" x="162.80899" xlink:href="#maccecd432a" y="114.452239"/>
     <use style="fill:#1f77b4;fill-opacity:0.8;stroke:#1f77b4;stroke-opacity:0.8;" x="137.022452" xlink:href="#maccecd432a" y="71.409065"/>
     <use style="fill:#1f77b4;fill-opacity:0.8;stroke:#1f77b4;stroke-opacity:0.8;" x="175.70226" xlink:href="#maccecd432a" y="71.409065"/>
     <use style="fill:#1f77b4;fill-opacity:0.8;stroke:#1f77b4;stroke-opacity:0.8;" x="175.70226" xlink:href="#maccecd432a" y="114.452239"/>
     <use style="fill:#1f77b4;fill-opacity:0.8;stroke:#1f77b4;stroke-opacity:0.8;" x="149.915721" xlink:href="#maccecd432a" y="71.409065"/>
     <use style="fill:#1f77b4;fill-opacity:0.8;stroke:#1f77b4;stroke-opacity:0.8;" x="149.915721" xlink:href="#maccecd432a" y="114.452239"/>
     <use style="fill:#1f77b4;fill-opacity:0.8;stroke:#1f77b4;stroke-opacity:0.8;" x="137.022452" xlink:href="#maccecd432a" y="114.452239"/>
     <use style="fill:#1f77b4;fill-opacity:0.8;stroke:#1f77b4;stroke-opacity:0.8;" x="162.80899" xlink:href="#maccecd432a" y="114.452239"/>
     <use style="fill:#1f77b4;fill-opacity:0.8;stroke:#1f77b4;stroke-opacity:0.8;" x="149.915721" xlink:href="#maccecd432a" y="71.409065"/>
     <use style="fill:#1f77b4;fill-opacity:0.8;stroke:#1f77b4;stroke-opacity:0.8;" x="137.022452" xlink:href="#maccecd432a" y="157.495413"/>
     <use style="fill:#1f77b4;fill-opacity:0.8;stroke:#1f77b4;stroke-opacity:0.8;" x="98.342644" xlink:href="#maccecd432a" y="71.409065"/>
    </g>
   </g>
   <g id="PolyCollection_1">
    <path clip-path="url(#p30dc50be24)" d="M 85.449375 85.732578 
L 85.449375 165.658062 
L 87.142431 164.412185 
L 88.835486 163.13422 
L 90.528542 161.856255 
L 92.221597 160.57829 
L 93.914653 159.300325 
L 95.607708 158.02236 
L 97.300764 156.81303 
L 98.993819 155.718701 
L 100.686875 154.624373 
L 102.379931 153.413292 
L 104.072986 152.06972 
L 105.766042 150.726147 
L 107.459097 149.376527 
L 109.152153 148.027626 
L 110.845208 146.684373 
L 112.538264 145.336927 
L 114.231319 144.089151 
L 115.924375 142.9808 
L 117.617431 141.650177 
L 119.310486 140.429551 
L 121.003542 139.248199 
L 122.696597 138.107302 
L 124.389653 136.959469 
L 126.082708 135.789096 
L 127.775764 134.566478 
L 129.468819 133.418995 
L 131.161875 132.243359 
L 132.854931 130.978373 
L 134.547986 129.736645 
L 136.241042 128.265048 
L 137.934097 127.066178 
L 139.627153 125.7799 
L 141.320208 124.738334 
L 143.013264 123.365998 
L 144.706319 122.323095 
L 146.399375 121.225345 
L 148.092431 120.008957 
L 149.785486 118.789659 
L 151.478542 117.812731 
L 153.171597 116.747362 
L 154.864653 115.918435 
L 156.557708 115.057839 
L 158.250764 114.155483 
L 159.943819 113.261796 
L 161.636875 112.459129 
L 163.329931 111.605132 
L 165.022986 110.55912 
L 166.716042 109.952128 
L 168.409097 109.432182 
L 170.102153 108.806965 
L 171.795208 108.26456 
L 173.488264 107.725709 
L 175.181319 107.434274 
L 176.874375 107.112129 
L 178.567431 106.582298 
L 180.260486 106.492115 
L 181.953542 106.446278 
L 183.646597 106.249145 
L 185.339653 106.367016 
L 187.032708 106.477964 
L 188.725764 106.837398 
L 190.418819 107.054426 
L 192.111875 107.619078 
L 193.804931 107.925606 
L 195.497986 107.971332 
L 197.191042 108.006911 
L 198.884097 108.078394 
L 200.577153 108.148047 
L 202.270208 108.374202 
L 203.963264 108.765572 
L 205.656319 108.999751 
L 207.349375 109.23393 
L 209.042431 109.468755 
L 210.735486 109.875513 
L 212.428542 110.276844 
L 214.121597 110.583186 
L 215.814653 110.666588 
L 217.507708 110.743957 
L 219.200764 110.957373 
L 220.893819 111.063762 
L 222.586875 111.29106 
L 224.279931 111.582048 
L 225.972986 111.885551 
L 227.666042 112.189053 
L 229.359097 112.492555 
L 231.052153 112.796058 
L 232.745208 113.09956 
L 234.438264 113.399723 
L 236.131319 113.697264 
L 237.824375 114.065931 
L 239.517431 114.32759 
L 241.210486 114.599219 
L 242.903542 114.903304 
L 244.596597 115.20739 
L 246.289653 115.511476 
L 247.982708 115.815561 
L 249.675764 116.114965 
L 251.368819 116.413066 
L 253.061875 116.711168 
L 253.061875 32.854489 
L 253.061875 32.854489 
L 251.368819 34.077178 
L 249.675764 35.330651 
L 247.982708 36.784142 
L 246.289653 38.237632 
L 244.596597 39.691123 
L 242.903542 41.133596 
L 241.210486 42.290345 
L 239.517431 43.447109 
L 237.824375 44.603873 
L 236.131319 45.760636 
L 234.438264 46.9174 
L 232.745208 48.250592 
L 231.052153 49.594063 
L 229.359097 50.937535 
L 227.666042 52.281007 
L 225.972986 53.624478 
L 224.279931 54.96795 
L 222.586875 56.311421 
L 220.893819 57.484205 
L 219.200764 58.622369 
L 217.507708 59.761897 
L 215.814653 60.901424 
L 214.121597 62.040952 
L 212.428542 63.180479 
L 210.735486 64.315405 
L 209.042431 65.604522 
L 207.349375 66.65147 
L 205.656319 67.979414 
L 203.963264 69.310855 
L 202.270208 70.644684 
L 200.577153 71.734967 
L 198.884097 72.987804 
L 197.191042 74.331841 
L 195.497986 75.594621 
L 193.804931 76.882996 
L 192.111875 78.281577 
L 190.418819 79.602634 
L 188.725764 80.675234 
L 187.032708 81.584624 
L 185.339653 82.696656 
L 183.646597 83.432145 
L 181.953542 84.320769 
L 180.260486 85.069997 
L 178.567431 85.840259 
L 176.874375 86.527737 
L 175.181319 87.114423 
L 173.488264 87.484318 
L 171.795208 87.891651 
L 170.102153 88.476888 
L 168.409097 89.032643 
L 166.716042 89.189665 
L 165.022986 89.321578 
L 163.329931 89.486041 
L 161.636875 89.645417 
L 159.943819 89.98668 
L 158.250764 90.069742 
L 156.557708 90.089889 
L 154.864653 90.173187 
L 153.171597 90.354286 
L 151.478542 90.525832 
L 149.785486 90.284398 
L 148.092431 90.366109 
L 146.399375 90.4872 
L 144.706319 90.699586 
L 143.013264 90.707514 
L 141.320208 90.569592 
L 139.627153 90.498251 
L 137.934097 90.46044 
L 136.241042 90.307244 
L 134.547986 90.19324 
L 132.854931 90.090207 
L 131.161875 89.985431 
L 129.468819 89.978942 
L 127.775764 89.78217 
L 126.082708 89.680577 
L 124.389653 89.640094 
L 122.696597 89.630646 
L 121.003542 89.369306 
L 119.310486 88.988382 
L 117.617431 88.917599 
L 115.924375 88.907052 
L 114.231319 88.743672 
L 112.538264 88.767568 
L 110.845208 88.42421 
L 109.152153 88.137294 
L 107.459097 87.914545 
L 105.766042 87.830279 
L 104.072986 87.746013 
L 102.379931 87.666202 
L 100.686875 87.589065 
L 98.993819 87.336813 
L 97.300764 86.904906 
L 95.607708 86.580503 
L 93.914653 86.504423 
L 92.221597 86.428756 
L 90.528542 86.364617 
L 88.835486 86.051132 
L 87.142431 85.709534 
L 85.449375 85.732578 
z
" style="fill:#1f77b4;fill-opacity:0.15;"/>
   </g>
   <g id="matplotlib.axis_1">
    <g id="xtick_1">
     <g id="line2d_1">
      <defs>
       <path d="M 0 0 
L 0 3.5 
" id="m454f65556a" style="stroke:#000000;stroke-width:0.8;"/>
      </defs>
      <g>
       <use style="stroke:#000000;stroke-width:0.8;" x="111.235913" xlink:href="#m454f65556a" y="254.118125"/>
      </g>
     </g>
     <g id="text_1">
      <!-- 2 -->
      <g transform="translate(108.054663 268.716562)scale(0.1 -0.1)">
       <defs>
        <path d="M 19.1875 8.296875 
L 53.609375 8.296875 
L 53.609375 0 
L 7.328125 0 
L 7.328125 8.296875 
Q 12.9375 14.109375 22.625 23.890625 
Q 32.328125 33.6875 34.8125 36.53125 
Q 39.546875 41.84375 41.421875 45.53125 
Q 43.3125 49.21875 43.3125 52.78125 
Q 43.3125 58.59375 39.234375 62.25 
Q 35.15625 65.921875 28.609375 65.921875 
Q 23.96875 65.921875 18.8125 64.3125 
Q 13.671875 62.703125 7.8125 59.421875 
L 7.8125 69.390625 
Q 13.765625 71.78125 18.9375 73 
Q 24.125 74.21875 28.421875 74.21875 
Q 39.75 74.21875 46.484375 68.546875 
Q 53.21875 62.890625 53.21875 53.421875 
Q 53.21875 48.921875 51.53125 44.890625 
Q 49.859375 40.875 45.40625 35.40625 
Q 44.1875 33.984375 37.640625 27.21875 
Q 31.109375 20.453125 19.1875 8.296875 
z
" id="DejaVuSans-50"/>
       </defs>
       <use xlink:href="#DejaVuSans-50"/>
      </g>
     </g>
    </g>
    <g id="xtick_2">
     <g id="line2d_2">
      <g>
       <use style="stroke:#000000;stroke-width:0.8;" x="162.80899" xlink:href="#m454f65556a" y="254.118125"/>
      </g>
     </g>
     <g id="text_2">
      <!-- 3 -->
      <g transform="translate(159.62774 268.716562)scale(0.1 -0.1)">
       <defs>
        <path d="M 40.578125 39.3125 
Q 47.65625 37.796875 51.625 33 
Q 55.609375 28.21875 55.609375 21.1875 
Q 55.609375 10.40625 48.1875 4.484375 
Q 40.765625 -1.421875 27.09375 -1.421875 
Q 22.515625 -1.421875 17.65625 -0.515625 
Q 12.796875 0.390625 7.625 2.203125 
L 7.625 11.71875 
Q 11.71875 9.328125 16.59375 8.109375 
Q 21.484375 6.890625 26.8125 6.890625 
Q 36.078125 6.890625 40.9375 10.546875 
Q 45.796875 14.203125 45.796875 21.1875 
Q 45.796875 27.640625 41.28125 31.265625 
Q 36.765625 34.90625 28.71875 34.90625 
L 20.21875 34.90625 
L 20.21875 43.015625 
L 29.109375 43.015625 
Q 36.375 43.015625 40.234375 45.921875 
Q 44.09375 48.828125 44.09375 54.296875 
Q 44.09375 59.90625 40.109375 62.90625 
Q 36.140625 65.921875 28.71875 65.921875 
Q 24.65625 65.921875 20.015625 65.03125 
Q 15.375 64.15625 9.8125 62.3125 
L 9.8125 71.09375 
Q 15.4375 72.65625 20.34375 73.4375 
Q 25.25 74.21875 29.59375 74.21875 
Q 40.828125 74.21875 47.359375 69.109375 
Q 53.90625 64.015625 53.90625 55.328125 
Q 53.90625 49.265625 50.4375 45.09375 
Q 46.96875 40.921875 40.578125 39.3125 
z
" id="DejaVuSans-51"/>
       </defs>
       <use xlink:href="#DejaVuSans-51"/>
      </g>
     </g>
    </g>
    <g id="xtick_3">
     <g id="line2d_3">
      <g>
       <use style="stroke:#000000;stroke-width:0.8;" x="214.382067" xlink:href="#m454f65556a" y="254.118125"/>
      </g>
     </g>
     <g id="text_3">
      <!-- 4 -->
      <g transform="translate(211.200817 268.716562)scale(0.1 -0.1)">
       <defs>
        <path d="M 37.796875 64.3125 
L 12.890625 25.390625 
L 37.796875 25.390625 
z
M 35.203125 72.90625 
L 47.609375 72.90625 
L 47.609375 25.390625 
L 58.015625 25.390625 
L 58.015625 17.1875 
L 47.609375 17.1875 
L 47.609375 0 
L 37.796875 0 
L 37.796875 17.1875 
L 4.890625 17.1875 
L 4.890625 26.703125 
z
" id="DejaVuSans-52"/>
       </defs>
       <use xlink:href="#DejaVuSans-52"/>
      </g>
     </g>
    </g>
    <g id="text_4">
     <!-- E -->
     <g transform="translate(166.09625 282.394687)scale(0.1 -0.1)">
      <defs>
       <path d="M 9.8125 72.90625 
L 55.90625 72.90625 
L 55.90625 64.59375 
L 19.671875 64.59375 
L 19.671875 43.015625 
L 54.390625 43.015625 
L 54.390625 34.71875 
L 19.671875 34.71875 
L 19.671875 8.296875 
L 56.78125 8.296875 
L 56.78125 0 
L 9.8125 0 
z
" id="DejaVuSans-69"/>
      </defs>
      <use xlink:href="#DejaVuSans-69"/>
     </g>
    </g>
   </g>
   <g id="matplotlib.axis_2">
    <g id="ytick_1">
     <g id="line2d_4">
      <defs>
       <path d="M 0 0 
L -3.5 0 
" id="m9a3d1e7586" style="stroke:#000000;stroke-width:0.8;"/>
      </defs>
      <g>
       <use style="stroke:#000000;stroke-width:0.8;" x="85.449375" xlink:href="#m9a3d1e7586" y="243.581761"/>
      </g>
     </g>
     <g id="text_5">
      <!-- 1 -->
      <g transform="translate(72.086875 247.38098)scale(0.1 -0.1)">
       <defs>
        <path d="M 12.40625 8.296875 
L 28.515625 8.296875 
L 28.515625 63.921875 
L 10.984375 60.40625 
L 10.984375 69.390625 
L 28.421875 72.90625 
L 38.28125 72.90625 
L 38.28125 8.296875 
L 54.390625 8.296875 
L 54.390625 0 
L 12.40625 0 
z
" id="DejaVuSans-49"/>
       </defs>
       <use xlink:href="#DejaVuSans-49"/>
      </g>
     </g>
    </g>
    <g id="ytick_2">
     <g id="line2d_5">
      <g>
       <use style="stroke:#000000;stroke-width:0.8;" x="85.449375" xlink:href="#m9a3d1e7586" y="200.538587"/>
      </g>
     </g>
     <g id="text_6">
      <!-- 2 -->
      <g transform="translate(72.086875 204.337806)scale(0.1 -0.1)">
       <use xlink:href="#DejaVuSans-50"/>
      </g>
     </g>
    </g>
    <g id="ytick_3">
     <g id="line2d_6">
      <g>
       <use style="stroke:#000000;stroke-width:0.8;" x="85.449375" xlink:href="#m9a3d1e7586" y="157.495413"/>
      </g>
     </g>
     <g id="text_7">
      <!-- 3 -->
      <g transform="translate(72.086875 161.294632)scale(0.1 -0.1)">
       <use xlink:href="#DejaVuSans-51"/>
      </g>
     </g>
    </g>
    <g id="ytick_4">
     <g id="line2d_7">
      <g>
       <use style="stroke:#000000;stroke-width:0.8;" x="85.449375" xlink:href="#m9a3d1e7586" y="114.452239"/>
      </g>
     </g>
     <g id="text_8">
      <!-- 4 -->
      <g transform="translate(72.086875 118.251457)scale(0.1 -0.1)">
       <use xlink:href="#DejaVuSans-52"/>
      </g>
     </g>
    </g>
    <g id="ytick_5">
     <g id="line2d_8">
      <g>
       <use style="stroke:#000000;stroke-width:0.8;" x="85.449375" xlink:href="#m9a3d1e7586" y="71.409065"/>
      </g>
     </g>
     <g id="text_9">
      <!-- 5 -->
      <g transform="translate(72.086875 75.208283)scale(0.1 -0.1)">
       <defs>
        <path d="M 10.796875 72.90625 
L 49.515625 72.90625 
L 49.515625 64.59375 
L 19.828125 64.59375 
L 19.828125 46.734375 
Q 21.96875 47.46875 24.109375 47.828125 
Q 26.265625 48.1875 28.421875 48.1875 
Q 40.625 48.1875 47.75 41.5 
Q 54.890625 34.8125 54.890625 23.390625 
Q 54.890625 11.625 47.5625 5.09375 
Q 40.234375 -1.421875 26.90625 -1.421875 
Q 22.3125 -1.421875 17.546875 -0.640625 
Q 12.796875 0.140625 7.71875 1.703125 
L 7.71875 11.625 
Q 12.109375 9.234375 16.796875 8.0625 
Q 21.484375 6.890625 26.703125 6.890625 
Q 35.15625 6.890625 40.078125 11.328125 
Q 45.015625 15.765625 45.015625 23.390625 
Q 45.015625 31 40.078125 35.4375 
Q 35.15625 39.890625 26.703125 39.890625 
Q 22.75 39.890625 18.8125 39.015625 
Q 14.890625 38.140625 10.796875 36.28125 
z
" id="DejaVuSans-53"/>
       </defs>
       <use xlink:href="#DejaVuSans-53"/>
      </g>
     </g>
    </g>
    <g id="ytick_6">
     <g id="line2d_9">
      <g>
       <use style="stroke:#000000;stroke-width:0.8;" x="85.449375" xlink:href="#m9a3d1e7586" y="28.36589"/>
      </g>
     </g>
     <g id="text_10">
      <!-- 6 -->
      <g transform="translate(72.086875 32.165109)scale(0.1 -0.1)">
       <defs>
        <path d="M 33.015625 40.375 
Q 26.375 40.375 22.484375 35.828125 
Q 18.609375 31.296875 18.609375 23.390625 
Q 18.609375 15.53125 22.484375 10.953125 
Q 26.375 6.390625 33.015625 6.390625 
Q 39.65625 6.390625 43.53125 10.953125 
Q 47.40625 15.53125 47.40625 23.390625 
Q 47.40625 31.296875 43.53125 35.828125 
Q 39.65625 40.375 33.015625 40.375 
z
M 52.59375 71.296875 
L 52.59375 62.3125 
Q 48.875 64.0625 45.09375 64.984375 
Q 41.3125 65.921875 37.59375 65.921875 
Q 27.828125 65.921875 22.671875 59.328125 
Q 17.53125 52.734375 16.796875 39.40625 
Q 19.671875 43.65625 24.015625 45.921875 
Q 28.375 48.1875 33.59375 48.1875 
Q 44.578125 48.1875 50.953125 41.515625 
Q 57.328125 34.859375 57.328125 23.390625 
Q 57.328125 12.15625 50.6875 5.359375 
Q 44.046875 -1.421875 33.015625 -1.421875 
Q 20.359375 -1.421875 13.671875 8.265625 
Q 6.984375 17.96875 6.984375 36.375 
Q 6.984375 53.65625 15.1875 63.9375 
Q 23.390625 74.21875 37.203125 74.21875 
Q 40.921875 74.21875 44.703125 73.484375 
Q 48.484375 72.75 52.59375 71.296875 
z
" id="DejaVuSans-54"/>
       </defs>
       <use xlink:href="#DejaVuSans-54"/>
      </g>
     </g>
    </g>
    <g id="text_11">
     <!-- Expectation2 -->
     <g transform="translate(66.007187 171.119687)rotate(-90)scale(0.1 -0.1)">
      <defs>
       <path d="M 54.890625 54.6875 
L 35.109375 28.078125 
L 55.90625 0 
L 45.3125 0 
L 29.390625 21.484375 
L 13.484375 0 
L 2.875 0 
L 24.125 28.609375 
L 4.6875 54.6875 
L 15.28125 54.6875 
L 29.78125 35.203125 
L 44.28125 54.6875 
z
" id="DejaVuSans-120"/>
       <path d="M 18.109375 8.203125 
L 18.109375 -20.796875 
L 9.078125 -20.796875 
L 9.078125 54.6875 
L 18.109375 54.6875 
L 18.109375 46.390625 
Q 20.953125 51.265625 25.265625 53.625 
Q 29.59375 56 35.59375 56 
Q 45.5625 56 51.78125 48.09375 
Q 58.015625 40.1875 58.015625 27.296875 
Q 58.015625 14.40625 51.78125 6.484375 
Q 45.5625 -1.421875 35.59375 -1.421875 
Q 29.59375 -1.421875 25.265625 0.953125 
Q 20.953125 3.328125 18.109375 8.203125 
z
M 48.6875 27.296875 
Q 48.6875 37.203125 44.609375 42.84375 
Q 40.53125 48.484375 33.40625 48.484375 
Q 26.265625 48.484375 22.1875 42.84375 
Q 18.109375 37.203125 18.109375 27.296875 
Q 18.109375 17.390625 22.1875 11.75 
Q 26.265625 6.109375 33.40625 6.109375 
Q 40.53125 6.109375 44.609375 11.75 
Q 48.6875 17.390625 48.6875 27.296875 
z
" id="DejaVuSans-112"/>
       <path d="M 56.203125 29.59375 
L 56.203125 25.203125 
L 14.890625 25.203125 
Q 15.484375 15.921875 20.484375 11.0625 
Q 25.484375 6.203125 34.421875 6.203125 
Q 39.59375 6.203125 44.453125 7.46875 
Q 49.3125 8.734375 54.109375 11.28125 
L 54.109375 2.78125 
Q 49.265625 0.734375 44.1875 -0.34375 
Q 39.109375 -1.421875 33.890625 -1.421875 
Q 20.796875 -1.421875 13.15625 6.1875 
Q 5.515625 13.8125 5.515625 26.8125 
Q 5.515625 40.234375 12.765625 48.109375 
Q 20.015625 56 32.328125 56 
Q 43.359375 56 49.78125 48.890625 
Q 56.203125 41.796875 56.203125 29.59375 
z
M 47.21875 32.234375 
Q 47.125 39.59375 43.09375 43.984375 
Q 39.0625 48.390625 32.421875 48.390625 
Q 24.90625 48.390625 20.390625 44.140625 
Q 15.875 39.890625 15.1875 32.171875 
z
" id="DejaVuSans-101"/>
       <path d="M 48.78125 52.59375 
L 48.78125 44.1875 
Q 44.96875 46.296875 41.140625 47.34375 
Q 37.3125 48.390625 33.40625 48.390625 
Q 24.65625 48.390625 19.8125 42.84375 
Q 14.984375 37.3125 14.984375 27.296875 
Q 14.984375 17.28125 19.8125 11.734375 
Q 24.65625 6.203125 33.40625 6.203125 
Q 37.3125 6.203125 41.140625 7.25 
Q 44.96875 8.296875 48.78125 10.40625 
L 48.78125 2.09375 
Q 45.015625 0.34375 40.984375 -0.53125 
Q 36.96875 -1.421875 32.421875 -1.421875 
Q 20.0625 -1.421875 12.78125 6.34375 
Q 5.515625 14.109375 5.515625 27.296875 
Q 5.515625 40.671875 12.859375 48.328125 
Q 20.21875 56 33.015625 56 
Q 37.15625 56 41.109375 55.140625 
Q 45.0625 54.296875 48.78125 52.59375 
z
" id="DejaVuSans-99"/>
       <path d="M 18.3125 70.21875 
L 18.3125 54.6875 
L 36.8125 54.6875 
L 36.8125 47.703125 
L 18.3125 47.703125 
L 18.3125 18.015625 
Q 18.3125 11.328125 20.140625 9.421875 
Q 21.96875 7.515625 27.59375 7.515625 
L 36.8125 7.515625 
L 36.8125 0 
L 27.59375 0 
Q 17.1875 0 13.234375 3.875 
Q 9.28125 7.765625 9.28125 18.015625 
L 9.28125 47.703125 
L 2.6875 47.703125 
L 2.6875 54.6875 
L 9.28125 54.6875 
L 9.28125 70.21875 
z
" id="DejaVuSans-116"/>
       <path d="M 34.28125 27.484375 
Q 23.390625 27.484375 19.1875 25 
Q 14.984375 22.515625 14.984375 16.5 
Q 14.984375 11.71875 18.140625 8.90625 
Q 21.296875 6.109375 26.703125 6.109375 
Q 34.1875 6.109375 38.703125 11.40625 
Q 43.21875 16.703125 43.21875 25.484375 
L 43.21875 27.484375 
z
M 52.203125 31.203125 
L 52.203125 0 
L 43.21875 0 
L 43.21875 8.296875 
Q 40.140625 3.328125 35.546875 0.953125 
Q 30.953125 -1.421875 24.3125 -1.421875 
Q 15.921875 -1.421875 10.953125 3.296875 
Q 6 8.015625 6 15.921875 
Q 6 25.140625 12.171875 29.828125 
Q 18.359375 34.515625 30.609375 34.515625 
L 43.21875 34.515625 
L 43.21875 35.40625 
Q 43.21875 41.609375 39.140625 45 
Q 35.0625 48.390625 27.6875 48.390625 
Q 23 48.390625 18.546875 47.265625 
Q 14.109375 46.140625 10.015625 43.890625 
L 10.015625 52.203125 
Q 14.9375 54.109375 19.578125 55.046875 
Q 24.21875 56 28.609375 56 
Q 40.484375 56 46.34375 49.84375 
Q 52.203125 43.703125 52.203125 31.203125 
z
" id="DejaVuSans-97"/>
       <path d="M 9.421875 54.6875 
L 18.40625 54.6875 
L 18.40625 0 
L 9.421875 0 
z
M 9.421875 75.984375 
L 18.40625 75.984375 
L 18.40625 64.59375 
L 9.421875 64.59375 
z
" id="DejaVuSans-105"/>
       <path d="M 30.609375 48.390625 
Q 23.390625 48.390625 19.1875 42.75 
Q 14.984375 37.109375 14.984375 27.296875 
Q 14.984375 17.484375 19.15625 11.84375 
Q 23.34375 6.203125 30.609375 6.203125 
Q 37.796875 6.203125 41.984375 11.859375 
Q 46.1875 17.53125 46.1875 27.296875 
Q 46.1875 37.015625 41.984375 42.703125 
Q 37.796875 48.390625 30.609375 48.390625 
z
M 30.609375 56 
Q 42.328125 56 49.015625 48.375 
Q 55.71875 40.765625 55.71875 27.296875 
Q 55.71875 13.875 49.015625 6.21875 
Q 42.328125 -1.421875 30.609375 -1.421875 
Q 18.84375 -1.421875 12.171875 6.21875 
Q 5.515625 13.875 5.515625 27.296875 
Q 5.515625 40.765625 12.171875 48.375 
Q 18.84375 56 30.609375 56 
z
" id="DejaVuSans-111"/>
       <path d="M 54.890625 33.015625 
L 54.890625 0 
L 45.90625 0 
L 45.90625 32.71875 
Q 45.90625 40.484375 42.875 44.328125 
Q 39.84375 48.1875 33.796875 48.1875 
Q 26.515625 48.1875 22.3125 43.546875 
Q 18.109375 38.921875 18.109375 30.90625 
L 18.109375 0 
L 9.078125 0 
L 9.078125 54.6875 
L 18.109375 54.6875 
L 18.109375 46.1875 
Q 21.34375 51.125 25.703125 53.5625 
Q 30.078125 56 35.796875 56 
Q 45.21875 56 50.046875 50.171875 
Q 54.890625 44.34375 54.890625 33.015625 
z
" id="DejaVuSans-110"/>
      </defs>
      <use xlink:href="#DejaVuSans-69"/>
      <use x="63.183594" xlink:href="#DejaVuSans-120"/>
      <use x="122.363281" xlink:href="#DejaVuSans-112"/>
      <use x="185.839844" xlink:href="#DejaVuSans-101"/>
      <use x="247.363281" xlink:href="#DejaVuSans-99"/>
      <use x="302.34375" xlink:href="#DejaVuSans-116"/>
      <use x="341.552734" xlink:href="#DejaVuSans-97"/>
      <use x="402.832031" xlink:href="#DejaVuSans-116"/>
      <use x="442.041016" xlink:href="#DejaVuSans-105"/>
      <use x="469.824219" xlink:href="#DejaVuSans-111"/>
      <use x="531.005859" xlink:href="#DejaVuSans-110"/>
      <use x="594.384766" xlink:href="#DejaVuSans-50"/>
     </g>
    </g>
   </g>
   <g id="line2d_10">
    <path clip-path="url(#p30dc50be24)" d="M 85.449375 124.056452 
L 87.142431 123.541286 
L 88.835486 123.02612 
L 90.528542 122.510955 
L 92.221597 121.995789 
L 93.914653 121.480623 
L 95.607708 120.965457 
L 97.300764 120.450292 
L 98.993819 119.935126 
L 100.686875 119.41996 
L 102.379931 118.904794 
L 104.072986 118.389629 
L 105.766042 117.874463 
L 107.459097 117.359297 
L 109.152153 116.844132 
L 110.845208 116.328966 
L 112.538264 115.8138 
L 114.231319 115.298634 
L 115.924375 114.783469 
L 117.617431 114.268303 
L 119.310486 113.753137 
L 121.003542 113.237971 
L 122.696597 112.722806 
L 124.389653 112.20764 
L 126.082708 111.692474 
L 127.775764 111.177308 
L 129.468819 110.662143 
L 131.161875 110.146977 
L 132.854931 109.631811 
L 134.547986 109.116646 
L 136.241042 108.60148 
L 137.934097 108.086314 
L 139.627153 107.571148 
L 141.320208 107.055983 
L 143.013264 106.540817 
L 144.706319 106.025651 
L 146.399375 105.510485 
L 148.092431 104.99532 
L 149.785486 104.480154 
L 151.478542 103.964988 
L 153.171597 103.449823 
L 154.864653 102.934657 
L 156.557708 102.419491 
L 158.250764 101.904325 
L 159.943819 101.38916 
L 161.636875 100.873994 
L 163.329931 100.358828 
L 165.022986 99.843662 
L 166.716042 99.328497 
L 168.409097 98.813331 
L 170.102153 98.298165 
L 171.795208 97.783 
L 173.488264 97.267834 
L 175.181319 96.752668 
L 176.874375 96.237502 
L 178.567431 95.722337 
L 180.260486 95.207171 
L 181.953542 94.692005 
L 183.646597 94.176839 
L 185.339653 93.661674 
L 187.032708 93.146508 
L 188.725764 92.631342 
L 190.418819 92.116176 
L 192.111875 91.601011 
L 193.804931 91.085845 
L 195.497986 90.570679 
L 197.191042 90.055514 
L 198.884097 89.540348 
L 200.577153 89.025182 
L 202.270208 88.510016 
L 203.963264 87.994851 
L 205.656319 87.479685 
L 207.349375 86.964519 
L 209.042431 86.449353 
L 210.735486 85.934188 
L 212.428542 85.419022 
L 214.121597 84.903856 
L 215.814653 84.388691 
L 217.507708 83.873525 
L 219.200764 83.358359 
L 220.893819 82.843193 
L 222.586875 82.328028 
L 224.279931 81.812862 
L 225.972986 81.297696 
L 227.666042 80.78253 
L 229.359097 80.267365 
L 231.052153 79.752199 
L 232.745208 79.237033 
L 234.438264 78.721867 
L 236.131319 78.206702 
L 237.824375 77.691536 
L 239.517431 77.17637 
L 241.210486 76.661205 
L 242.903542 76.146039 
L 244.596597 75.630873 
L 246.289653 75.115707 
L 247.982708 74.600542 
L 249.675764 74.085376 
L 251.368819 73.57021 
L 253.061875 73.055044 
" style="fill:none;stroke:#1f77b4;stroke-linecap:square;stroke-width:2.25;"/>
   </g>
   <g id="patch_3">
    <path d="M 85.449375 254.118125 
L 85.449375 22.318125 
" style="fill:none;stroke:#000000;stroke-linecap:square;stroke-linejoin:miter;stroke-width:0.8;"/>
   </g>
   <g id="patch_4">
    <path d="M 253.061875 254.118125 
L 253.061875 22.318125 
" style="fill:none;stroke:#000000;stroke-linecap:square;stroke-linejoin:miter;stroke-width:0.8;"/>
   </g>
   <g id="patch_5">
    <path d="M 85.449375 254.118125 
L 253.061875 254.118125 
" style="fill:none;stroke:#000000;stroke-linecap:square;stroke-linejoin:miter;stroke-width:0.8;"/>
   </g>
   <g id="patch_6">
    <path d="M 85.449375 22.318125 
L 253.061875 22.318125 
" style="fill:none;stroke:#000000;stroke-linecap:square;stroke-linejoin:miter;stroke-width:0.8;"/>
   </g>
   <g id="text_12">
    <!-- Group A -->
    <g transform="translate(85.449375 16.318125)scale(0.12 -0.12)">
     <defs>
      <path d="M 59.515625 10.40625 
L 59.515625 29.984375 
L 43.40625 29.984375 
L 43.40625 38.09375 
L 69.28125 38.09375 
L 69.28125 6.78125 
Q 63.578125 2.734375 56.6875 0.65625 
Q 49.8125 -1.421875 42 -1.421875 
Q 24.90625 -1.421875 15.25 8.5625 
Q 5.609375 18.5625 5.609375 36.375 
Q 5.609375 54.25 15.25 64.234375 
Q 24.90625 74.21875 42 74.21875 
Q 49.125 74.21875 55.546875 72.453125 
Q 61.96875 70.703125 67.390625 67.28125 
L 67.390625 56.78125 
Q 61.921875 61.421875 55.765625 63.765625 
Q 49.609375 66.109375 42.828125 66.109375 
Q 29.4375 66.109375 22.71875 58.640625 
Q 16.015625 51.171875 16.015625 36.375 
Q 16.015625 21.625 22.71875 14.15625 
Q 29.4375 6.6875 42.828125 6.6875 
Q 48.046875 6.6875 52.140625 7.59375 
Q 56.25 8.5 59.515625 10.40625 
z
" id="DejaVuSans-71"/>
      <path d="M 41.109375 46.296875 
Q 39.59375 47.171875 37.8125 47.578125 
Q 36.03125 48 33.890625 48 
Q 26.265625 48 22.1875 43.046875 
Q 18.109375 38.09375 18.109375 28.8125 
L 18.109375 0 
L 9.078125 0 
L 9.078125 54.6875 
L 18.109375 54.6875 
L 18.109375 46.1875 
Q 20.953125 51.171875 25.484375 53.578125 
Q 30.03125 56 36.53125 56 
Q 37.453125 56 38.578125 55.875 
Q 39.703125 55.765625 41.0625 55.515625 
z
" id="DejaVuSans-114"/>
      <path d="M 8.5 21.578125 
L 8.5 54.6875 
L 17.484375 54.6875 
L 17.484375 21.921875 
Q 17.484375 14.15625 20.5 10.265625 
Q 23.53125 6.390625 29.59375 6.390625 
Q 36.859375 6.390625 41.078125 11.03125 
Q 45.3125 15.671875 45.3125 23.6875 
L 45.3125 54.6875 
L 54.296875 54.6875 
L 54.296875 0 
L 45.3125 0 
L 45.3125 8.40625 
Q 42.046875 3.421875 37.71875 1 
Q 33.40625 -1.421875 27.6875 -1.421875 
Q 18.265625 -1.421875 13.375 4.4375 
Q 8.5 10.296875 8.5 21.578125 
z
M 31.109375 56 
z
" id="DejaVuSans-117"/>
      <path id="DejaVuSans-32"/>
      <path d="M 34.1875 63.1875 
L 20.796875 26.90625 
L 47.609375 26.90625 
z
M 28.609375 72.90625 
L 39.796875 72.90625 
L 67.578125 0 
L 57.328125 0 
L 50.6875 18.703125 
L 17.828125 18.703125 
L 11.1875 0 
L 0.78125 0 
z
" id="DejaVuSans-65"/>
     </defs>
     <use xlink:href="#DejaVuSans-71"/>
     <use x="77.490234" xlink:href="#DejaVuSans-114"/>
     <use x="116.353516" xlink:href="#DejaVuSans-111"/>
     <use x="177.535156" xlink:href="#DejaVuSans-117"/>
     <use x="240.914062" xlink:href="#DejaVuSans-112"/>
     <use x="304.390625" xlink:href="#DejaVuSans-32"/>
     <use x="336.177734" xlink:href="#DejaVuSans-65"/>
    </g>
   </g>
  </g>
  <g id="axes_2">
   <g id="patch_7">
    <path d="M 300.861875 254.118125 
L 468.474375 254.118125 
L 468.474375 22.318125 
L 300.861875 22.318125 
z
" style="fill:#ffffff;"/>
   </g>
   <g id="PathCollection_2">
    <g clip-path="url(#pcfe3b4f05e)">
     <use style="fill:#1f77b4;fill-opacity:0.8;stroke:#1f77b4;stroke-opacity:0.8;" x="300.861875" xlink:href="#maccecd432a" y="85.536307"/>
     <use style="fill:#1f77b4;fill-opacity:0.8;stroke:#1f77b4;stroke-opacity:0.8;" x="313.755144" xlink:href="#maccecd432a" y="85.536307"/>
     <use style="fill:#1f77b4;fill-opacity:0.8;stroke:#1f77b4;stroke-opacity:0.8;" x="429.794567" xlink:href="#maccecd432a" y="85.536307"/>
     <use style="fill:#1f77b4;fill-opacity:0.8;stroke:#1f77b4;stroke-opacity:0.8;" x="391.11476" xlink:href="#maccecd432a" y="85.536307"/>
     <use style="fill:#1f77b4;fill-opacity:0.8;stroke:#1f77b4;stroke-opacity:0.8;" x="365.328221" xlink:href="#maccecd432a" y="85.536307"/>
     <use style="fill:#1f77b4;fill-opacity:0.8;stroke:#1f77b4;stroke-opacity:0.8;" x="429.794567" xlink:href="#maccecd432a" y="85.536307"/>
     <use style="fill:#1f77b4;fill-opacity:0.8;stroke:#1f77b4;stroke-opacity:0.8;" x="365.328221" xlink:href="#maccecd432a" y="85.536307"/>
     <use style="fill:#1f77b4;fill-opacity:0.8;stroke:#1f77b4;stroke-opacity:0.8;" x="391.11476" xlink:href="#maccecd432a" y="138.218125"/>
     <use style="fill:#1f77b4;fill-opacity:0.8;stroke:#1f77b4;stroke-opacity:0.8;" x="391.11476" xlink:href="#maccecd432a" y="32.854489"/>
     <use style="fill:#1f77b4;fill-opacity:0.8;stroke:#1f77b4;stroke-opacity:0.8;" x="416.901298" xlink:href="#maccecd432a" y="85.536307"/>
     <use style="fill:#1f77b4;fill-opacity:0.8;stroke:#1f77b4;stroke-opacity:0.8;" x="391.11476" xlink:href="#maccecd432a" y="85.536307"/>
     <use style="fill:#1f77b4;fill-opacity:0.8;stroke:#1f77b4;stroke-opacity:0.8;" x="429.794567" xlink:href="#maccecd432a" y="32.854489"/>
     <use style="fill:#1f77b4;fill-opacity:0.8;stroke:#1f77b4;stroke-opacity:0.8;" x="391.11476" xlink:href="#maccecd432a" y="85.536307"/>
     <use style="fill:#1f77b4;fill-opacity:0.8;stroke:#1f77b4;stroke-opacity:0.8;" x="442.687837" xlink:href="#maccecd432a" y="85.536307"/>
     <use style="fill:#1f77b4;fill-opacity:0.8;stroke:#1f77b4;stroke-opacity:0.8;" x="404.008029" xlink:href="#maccecd432a" y="85.536307"/>
     <use style="fill:#1f77b4;fill-opacity:0.8;stroke:#1f77b4;stroke-opacity:0.8;" x="442.687837" xlink:href="#maccecd432a" y="85.536307"/>
     <use style="fill:#1f77b4;fill-opacity:0.8;stroke:#1f77b4;stroke-opacity:0.8;" x="404.008029" xlink:href="#maccecd432a" y="85.536307"/>
     <use style="fill:#1f77b4;fill-opacity:0.8;stroke:#1f77b4;stroke-opacity:0.8;" x="365.328221" xlink:href="#maccecd432a" y="85.536307"/>
     <use style="fill:#1f77b4;fill-opacity:0.8;stroke:#1f77b4;stroke-opacity:0.8;" x="416.901298" xlink:href="#maccecd432a" y="32.854489"/>
     <use style="fill:#1f77b4;fill-opacity:0.8;stroke:#1f77b4;stroke-opacity:0.8;" x="326.648413" xlink:href="#maccecd432a" y="243.581761"/>
     <use style="fill:#1f77b4;fill-opacity:0.8;stroke:#1f77b4;stroke-opacity:0.8;" x="468.474375" xlink:href="#maccecd432a" y="85.536307"/>
     <use style="fill:#1f77b4;fill-opacity:0.8;stroke:#1f77b4;stroke-opacity:0.8;" x="365.328221" xlink:href="#maccecd432a" y="32.854489"/>
     <use style="fill:#1f77b4;fill-opacity:0.8;stroke:#1f77b4;stroke-opacity:0.8;" x="416.901298" xlink:href="#maccecd432a" y="85.536307"/>
     <use style="fill:#1f77b4;fill-opacity:0.8;stroke:#1f77b4;stroke-opacity:0.8;" x="429.794567" xlink:href="#maccecd432a" y="138.218125"/>
     <use style="fill:#1f77b4;fill-opacity:0.8;stroke:#1f77b4;stroke-opacity:0.8;" x="429.794567" xlink:href="#maccecd432a" y="85.536307"/>
     <use style="fill:#1f77b4;fill-opacity:0.8;stroke:#1f77b4;stroke-opacity:0.8;" x="365.328221" xlink:href="#maccecd432a" y="85.536307"/>
     <use style="fill:#1f77b4;fill-opacity:0.8;stroke:#1f77b4;stroke-opacity:0.8;" x="365.328221" xlink:href="#maccecd432a" y="85.536307"/>
     <use style="fill:#1f77b4;fill-opacity:0.8;stroke:#1f77b4;stroke-opacity:0.8;" x="365.328221" xlink:href="#maccecd432a" y="85.536307"/>
     <use style="fill:#1f77b4;fill-opacity:0.8;stroke:#1f77b4;stroke-opacity:0.8;" x="429.794567" xlink:href="#maccecd432a" y="85.536307"/>
     <use style="fill:#1f77b4;fill-opacity:0.8;stroke:#1f77b4;stroke-opacity:0.8;" x="429.794567" xlink:href="#maccecd432a" y="32.854489"/>
     <use style="fill:#1f77b4;fill-opacity:0.8;stroke:#1f77b4;stroke-opacity:0.8;" x="300.861875" xlink:href="#maccecd432a" y="85.536307"/>
     <use style="fill:#1f77b4;fill-opacity:0.8;stroke:#1f77b4;stroke-opacity:0.8;" x="378.22149" xlink:href="#maccecd432a" y="85.536307"/>
     <use style="fill:#1f77b4;fill-opacity:0.8;stroke:#1f77b4;stroke-opacity:0.8;" x="404.008029" xlink:href="#maccecd432a" y="32.854489"/>
     <use style="fill:#1f77b4;fill-opacity:0.8;stroke:#1f77b4;stroke-opacity:0.8;" x="365.328221" xlink:href="#maccecd432a" y="85.536307"/>
     <use style="fill:#1f77b4;fill-opacity:0.8;stroke:#1f77b4;stroke-opacity:0.8;" x="391.11476" xlink:href="#maccecd432a" y="85.536307"/>
     <use style="fill:#1f77b4;fill-opacity:0.8;stroke:#1f77b4;stroke-opacity:0.8;" x="378.22149" xlink:href="#maccecd432a" y="85.536307"/>
     <use style="fill:#1f77b4;fill-opacity:0.8;stroke:#1f77b4;stroke-opacity:0.8;" x="365.328221" xlink:href="#maccecd432a" y="85.536307"/>
     <use style="fill:#1f77b4;fill-opacity:0.8;stroke:#1f77b4;stroke-opacity:0.8;" x="416.901298" xlink:href="#maccecd432a" y="32.854489"/>
     <use style="fill:#1f77b4;fill-opacity:0.8;stroke:#1f77b4;stroke-opacity:0.8;" x="365.328221" xlink:href="#maccecd432a" y="138.218125"/>
     <use style="fill:#1f77b4;fill-opacity:0.8;stroke:#1f77b4;stroke-opacity:0.8;" x="365.328221" xlink:href="#maccecd432a" y="85.536307"/>
     <use style="fill:#1f77b4;fill-opacity:0.8;stroke:#1f77b4;stroke-opacity:0.8;" x="365.328221" xlink:href="#maccecd432a" y="32.854489"/>
     <use style="fill:#1f77b4;fill-opacity:0.8;stroke:#1f77b4;stroke-opacity:0.8;" x="429.794567" xlink:href="#maccecd432a" y="85.536307"/>
    </g>
   </g>
   <g id="PolyCollection_2">
    <path clip-path="url(#pcfe3b4f05e)" d="M 300.861875 73.049187 
L 300.861875 146.643906 
L 302.554931 145.694843 
L 304.247986 144.74578 
L 305.941042 143.796718 
L 307.634097 142.847655 
L 309.327153 141.894359 
L 311.020208 140.938297 
L 312.713264 139.982235 
L 314.406319 139.026173 
L 316.099375 138.070111 
L 317.792431 137.062384 
L 319.485486 135.951294 
L 321.178542 134.756485 
L 322.871597 133.607085 
L 324.564653 132.572651 
L 326.257708 131.797273 
L 327.950764 131.035436 
L 329.643819 130.2736 
L 331.336875 129.508077 
L 333.029931 128.561997 
L 334.722986 127.615916 
L 336.416042 126.663921 
L 338.109097 125.711278 
L 339.802153 124.758634 
L 341.495208 123.805162 
L 343.188264 122.654733 
L 344.881319 121.556167 
L 346.574375 120.634137 
L 348.267431 119.588489 
L 349.960486 118.471701 
L 351.653542 117.354912 
L 353.346597 116.236677 
L 355.039653 115.072361 
L 356.732708 113.859809 
L 358.425764 112.683696 
L 360.118819 111.737165 
L 361.811875 110.65418 
L 363.504931 109.537391 
L 365.197986 108.420602 
L 366.891042 107.303814 
L 368.584097 106.272386 
L 370.277153 105.16208 
L 371.970208 104.255505 
L 373.663264 103.488953 
L 375.356319 102.231034 
L 377.049375 101.393136 
L 378.742431 100.997289 
L 380.435486 99.905188 
L 382.128542 98.860668 
L 383.821597 97.960067 
L 385.514653 96.839619 
L 387.207708 95.86206 
L 388.900764 94.629005 
L 390.593819 93.626878 
L 392.286875 92.903419 
L 393.979931 92.202282 
L 395.672986 91.333927 
L 397.366042 90.678472 
L 399.059097 90.326559 
L 400.752153 89.708953 
L 402.445208 89.440459 
L 404.138264 88.820834 
L 405.831319 88.306594 
L 407.524375 88.02234 
L 409.217431 87.778301 
L 410.910486 87.610411 
L 412.603542 87.40032 
L 414.296597 87.17757 
L 415.989653 86.943688 
L 417.682708 86.678606 
L 419.375764 86.406872 
L 421.068819 86.303395 
L 422.761875 86.27475 
L 424.454931 86.251526 
L 426.147986 86.279651 
L 427.841042 86.192263 
L 429.534097 85.937738 
L 431.227153 85.786799 
L 432.920208 85.795077 
L 434.613264 85.856695 
L 436.306319 85.795235 
L 437.999375 85.925828 
L 439.692431 85.864779 
L 441.385486 85.777151 
L 443.078542 85.8783 
L 444.771597 85.784775 
L 446.464653 85.740839 
L 448.157708 85.751663 
L 449.850764 85.676513 
L 451.543819 85.603098 
L 453.236875 85.667502 
L 454.929931 85.803997 
L 456.622986 85.784622 
L 458.316042 85.825749 
L 460.009097 85.897896 
L 461.702153 86.019783 
L 463.395208 86.167446 
L 465.088264 86.315108 
L 466.781319 86.462771 
L 468.474375 86.61153 
L 468.474375 35.62323 
L 468.474375 35.62323 
L 466.781319 36.699039 
L 465.088264 37.776169 
L 463.395208 38.8533 
L 461.702153 39.815824 
L 460.009097 40.738589 
L 458.316042 41.661354 
L 456.622986 42.595338 
L 454.929931 43.620553 
L 453.236875 44.650184 
L 451.543819 45.813996 
L 449.850764 47.258795 
L 448.157708 48.24562 
L 446.464653 49.460017 
L 444.771597 50.335794 
L 443.078542 51.10717 
L 441.385486 51.866229 
L 439.692431 52.817703 
L 437.999375 53.892264 
L 436.306319 54.928616 
L 434.613264 55.955825 
L 432.920208 56.985189 
L 431.227153 57.970152 
L 429.534097 58.938524 
L 427.841042 59.794214 
L 426.147986 60.70997 
L 424.454931 61.502246 
L 422.761875 62.347512 
L 421.068819 62.901777 
L 419.375764 63.868576 
L 417.682708 64.584671 
L 415.989653 65.579813 
L 414.296597 66.429098 
L 412.603542 66.860653 
L 410.910486 67.536802 
L 409.217431 67.952377 
L 407.524375 68.674676 
L 405.831319 68.977238 
L 404.138264 69.237437 
L 402.445208 70.215375 
L 400.752153 70.674341 
L 399.059097 71.198247 
L 397.366042 71.53611 
L 395.672986 71.982285 
L 393.979931 72.357992 
L 392.286875 72.853848 
L 390.593819 73.038967 
L 388.900764 73.190428 
L 387.207708 73.613892 
L 385.514653 73.881033 
L 383.821597 74.074763 
L 382.128542 74.166008 
L 380.435486 74.418945 
L 378.742431 74.539395 
L 377.049375 74.675311 
L 375.356319 74.773979 
L 373.663264 74.872648 
L 371.970208 74.972414 
L 370.277153 75.071337 
L 368.584097 75.075065 
L 366.891042 75.080703 
L 365.197986 75.271054 
L 363.504931 75.105256 
L 361.811875 75.060591 
L 360.118819 75.132271 
L 358.425764 75.106467 
L 356.732708 75.10752 
L 355.039653 75.168521 
L 353.346597 75.163151 
L 351.653542 75.36079 
L 349.960486 75.384855 
L 348.267431 75.381387 
L 346.574375 75.364145 
L 344.881319 75.31017 
L 343.188264 75.211999 
L 341.495208 75.113829 
L 339.802153 75.015659 
L 338.109097 74.917776 
L 336.416042 74.822739 
L 334.722986 74.727702 
L 333.029931 74.610954 
L 331.336875 74.534645 
L 329.643819 74.436424 
L 327.950764 74.310471 
L 326.257708 74.100095 
L 324.564653 73.905777 
L 322.871597 73.864584 
L 321.178542 73.851679 
L 319.485486 73.820148 
L 317.792431 73.760921 
L 316.099375 73.701334 
L 314.406319 73.659153 
L 312.713264 73.616972 
L 311.020208 73.574791 
L 309.327153 73.532609 
L 307.634097 73.490428 
L 305.941042 73.401836 
L 304.247986 73.284286 
L 302.554931 73.166737 
L 300.861875 73.049187 
z
" style="fill:#1f77b4;fill-opacity:0.15;"/>
   </g>
   <g id="matplotlib.axis_3">
    <g id="xtick_4">
     <g id="line2d_11">
      <g>
       <use style="stroke:#000000;stroke-width:0.8;" x="339.541683" xlink:href="#m454f65556a" y="254.118125"/>
      </g>
     </g>
     <g id="text_13">
      <!-- 2 -->
      <g transform="translate(336.360433 268.716562)scale(0.1 -0.1)">
       <use xlink:href="#DejaVuSans-50"/>
      </g>
     </g>
    </g>
    <g id="xtick_5">
     <g id="line2d_12">
      <g>
       <use style="stroke:#000000;stroke-width:0.8;" x="391.11476" xlink:href="#m454f65556a" y="254.118125"/>
      </g>
     </g>
     <g id="text_14">
      <!-- 3 -->
      <g transform="translate(387.93351 268.716562)scale(0.1 -0.1)">
       <use xlink:href="#DejaVuSans-51"/>
      </g>
     </g>
    </g>
    <g id="xtick_6">
     <g id="line2d_13">
      <g>
       <use style="stroke:#000000;stroke-width:0.8;" x="442.687837" xlink:href="#m454f65556a" y="254.118125"/>
      </g>
     </g>
     <g id="text_15">
      <!-- 4 -->
      <g transform="translate(439.506587 268.716562)scale(0.1 -0.1)">
       <use xlink:href="#DejaVuSans-52"/>
      </g>
     </g>
    </g>
    <g id="text_16">
     <!-- E -->
     <g transform="translate(381.50875 282.394687)scale(0.1 -0.1)">
      <use xlink:href="#DejaVuSans-69"/>
     </g>
    </g>
   </g>
   <g id="matplotlib.axis_4">
    <g id="ytick_7">
     <g id="line2d_14">
      <g>
       <use style="stroke:#000000;stroke-width:0.8;" x="300.861875" xlink:href="#m9a3d1e7586" y="243.581761"/>
      </g>
     </g>
     <g id="text_17">
      <!-- 1.0 -->
      <g transform="translate(277.95875 247.38098)scale(0.1 -0.1)">
       <defs>
        <path d="M 10.6875 12.40625 
L 21 12.40625 
L 21 0 
L 10.6875 0 
z
" id="DejaVuSans-46"/>
        <path d="M 31.78125 66.40625 
Q 24.171875 66.40625 20.328125 58.90625 
Q 16.5 51.421875 16.5 36.375 
Q 16.5 21.390625 20.328125 13.890625 
Q 24.171875 6.390625 31.78125 6.390625 
Q 39.453125 6.390625 43.28125 13.890625 
Q 47.125 21.390625 47.125 36.375 
Q 47.125 51.421875 43.28125 58.90625 
Q 39.453125 66.40625 31.78125 66.40625 
z
M 31.78125 74.21875 
Q 44.046875 74.21875 50.515625 64.515625 
Q 56.984375 54.828125 56.984375 36.375 
Q 56.984375 17.96875 50.515625 8.265625 
Q 44.046875 -1.421875 31.78125 -1.421875 
Q 19.53125 -1.421875 13.0625 8.265625 
Q 6.59375 17.96875 6.59375 36.375 
Q 6.59375 54.828125 13.0625 64.515625 
Q 19.53125 74.21875 31.78125 74.21875 
z
" id="DejaVuSans-48"/>
       </defs>
       <use xlink:href="#DejaVuSans-49"/>
       <use x="63.623047" xlink:href="#DejaVuSans-46"/>
       <use x="95.410156" xlink:href="#DejaVuSans-48"/>
      </g>
     </g>
    </g>
    <g id="ytick_8">
     <g id="line2d_15">
      <g>
       <use style="stroke:#000000;stroke-width:0.8;" x="300.861875" xlink:href="#m9a3d1e7586" y="217.240852"/>
      </g>
     </g>
     <g id="text_18">
      <!-- 1.5 -->
      <g transform="translate(277.95875 221.040071)scale(0.1 -0.1)">
       <use xlink:href="#DejaVuSans-49"/>
       <use x="63.623047" xlink:href="#DejaVuSans-46"/>
       <use x="95.410156" xlink:href="#DejaVuSans-53"/>
      </g>
     </g>
    </g>
    <g id="ytick_9">
     <g id="line2d_16">
      <g>
       <use style="stroke:#000000;stroke-width:0.8;" x="300.861875" xlink:href="#m9a3d1e7586" y="190.899943"/>
      </g>
     </g>
     <g id="text_19">
      <!-- 2.0 -->
      <g transform="translate(277.95875 194.699162)scale(0.1 -0.1)">
       <use xlink:href="#DejaVuSans-50"/>
       <use x="63.623047" xlink:href="#DejaVuSans-46"/>
       <use x="95.410156" xlink:href="#DejaVuSans-48"/>
      </g>
     </g>
    </g>
    <g id="ytick_10">
     <g id="line2d_17">
      <g>
       <use style="stroke:#000000;stroke-width:0.8;" x="300.861875" xlink:href="#m9a3d1e7586" y="164.559034"/>
      </g>
     </g>
     <g id="text_20">
      <!-- 2.5 -->
      <g transform="translate(277.95875 168.358253)scale(0.1 -0.1)">
       <use xlink:href="#DejaVuSans-50"/>
       <use x="63.623047" xlink:href="#DejaVuSans-46"/>
       <use x="95.410156" xlink:href="#DejaVuSans-53"/>
      </g>
     </g>
    </g>
    <g id="ytick_11">
     <g id="line2d_18">
      <g>
       <use style="stroke:#000000;stroke-width:0.8;" x="300.861875" xlink:href="#m9a3d1e7586" y="138.218125"/>
      </g>
     </g>
     <g id="text_21">
      <!-- 3.0 -->
      <g transform="translate(277.95875 142.017344)scale(0.1 -0.1)">
       <use xlink:href="#DejaVuSans-51"/>
       <use x="63.623047" xlink:href="#DejaVuSans-46"/>
       <use x="95.410156" xlink:href="#DejaVuSans-48"/>
      </g>
     </g>
    </g>
    <g id="ytick_12">
     <g id="line2d_19">
      <g>
       <use style="stroke:#000000;stroke-width:0.8;" x="300.861875" xlink:href="#m9a3d1e7586" y="111.877216"/>
      </g>
     </g>
     <g id="text_22">
      <!-- 3.5 -->
      <g transform="translate(277.95875 115.676435)scale(0.1 -0.1)">
       <use xlink:href="#DejaVuSans-51"/>
       <use x="63.623047" xlink:href="#DejaVuSans-46"/>
       <use x="95.410156" xlink:href="#DejaVuSans-53"/>
      </g>
     </g>
    </g>
    <g id="ytick_13">
     <g id="line2d_20">
      <g>
       <use style="stroke:#000000;stroke-width:0.8;" x="300.861875" xlink:href="#m9a3d1e7586" y="85.536307"/>
      </g>
     </g>
     <g id="text_23">
      <!-- 4.0 -->
      <g transform="translate(277.95875 89.335526)scale(0.1 -0.1)">
       <use xlink:href="#DejaVuSans-52"/>
       <use x="63.623047" xlink:href="#DejaVuSans-46"/>
       <use x="95.410156" xlink:href="#DejaVuSans-48"/>
      </g>
     </g>
    </g>
    <g id="ytick_14">
     <g id="line2d_21">
      <g>
       <use style="stroke:#000000;stroke-width:0.8;" x="300.861875" xlink:href="#m9a3d1e7586" y="59.195398"/>
      </g>
     </g>
     <g id="text_24">
      <!-- 4.5 -->
      <g transform="translate(277.95875 62.994616)scale(0.1 -0.1)">
       <use xlink:href="#DejaVuSans-52"/>
       <use x="63.623047" xlink:href="#DejaVuSans-46"/>
       <use x="95.410156" xlink:href="#DejaVuSans-53"/>
      </g>
     </g>
    </g>
    <g id="ytick_15">
     <g id="line2d_22">
      <g>
       <use style="stroke:#000000;stroke-width:0.8;" x="300.861875" xlink:href="#m9a3d1e7586" y="32.854489"/>
      </g>
     </g>
     <g id="text_25">
      <!-- 5.0 -->
      <g transform="translate(277.95875 36.653707)scale(0.1 -0.1)">
       <use xlink:href="#DejaVuSans-53"/>
       <use x="63.623047" xlink:href="#DejaVuSans-46"/>
       <use x="95.410156" xlink:href="#DejaVuSans-48"/>
      </g>
     </g>
    </g>
    <g id="text_26">
     <!-- Expectation2 -->
     <g transform="translate(271.879062 171.119687)rotate(-90)scale(0.1 -0.1)">
      <use xlink:href="#DejaVuSans-69"/>
      <use x="63.183594" xlink:href="#DejaVuSans-120"/>
      <use x="122.363281" xlink:href="#DejaVuSans-112"/>
      <use x="185.839844" xlink:href="#DejaVuSans-101"/>
      <use x="247.363281" xlink:href="#DejaVuSans-99"/>
      <use x="302.34375" xlink:href="#DejaVuSans-116"/>
      <use x="341.552734" xlink:href="#DejaVuSans-97"/>
      <use x="402.832031" xlink:href="#DejaVuSans-116"/>
      <use x="442.041016" xlink:href="#DejaVuSans-105"/>
      <use x="469.824219" xlink:href="#DejaVuSans-111"/>
      <use x="531.005859" xlink:href="#DejaVuSans-110"/>
      <use x="594.384766" xlink:href="#DejaVuSans-50"/>
     </g>
    </g>
   </g>
   <g id="line2d_23">
    <path clip-path="url(#pcfe3b4f05e)" d="M 300.861875 104.028811 
L 302.554931 103.632152 
L 304.247986 103.235492 
L 305.941042 102.838833 
L 307.634097 102.442173 
L 309.327153 102.045514 
L 311.020208 101.648854 
L 312.713264 101.252194 
L 314.406319 100.855535 
L 316.099375 100.458875 
L 317.792431 100.062216 
L 319.485486 99.665556 
L 321.178542 99.268897 
L 322.871597 98.872237 
L 324.564653 98.475578 
L 326.257708 98.078918 
L 327.950764 97.682258 
L 329.643819 97.285599 
L 331.336875 96.888939 
L 333.029931 96.49228 
L 334.722986 96.09562 
L 336.416042 95.698961 
L 338.109097 95.302301 
L 339.802153 94.905641 
L 341.495208 94.508982 
L 343.188264 94.112322 
L 344.881319 93.715663 
L 346.574375 93.319003 
L 348.267431 92.922344 
L 349.960486 92.525684 
L 351.653542 92.129024 
L 353.346597 91.732365 
L 355.039653 91.335705 
L 356.732708 90.939046 
L 358.425764 90.542386 
L 360.118819 90.145727 
L 361.811875 89.749067 
L 363.504931 89.352407 
L 365.197986 88.955748 
L 366.891042 88.559088 
L 368.584097 88.162429 
L 370.277153 87.765769 
L 371.970208 87.36911 
L 373.663264 86.97245 
L 375.356319 86.57579 
L 377.049375 86.179131 
L 378.742431 85.782471 
L 380.435486 85.385812 
L 382.128542 84.989152 
L 383.821597 84.592493 
L 385.514653 84.195833 
L 387.207708 83.799173 
L 388.900764 83.402514 
L 390.593819 83.005854 
L 392.286875 82.609195 
L 393.979931 82.212535 
L 395.672986 81.815876 
L 397.366042 81.419216 
L 399.059097 81.022556 
L 400.752153 80.625897 
L 402.445208 80.229237 
L 404.138264 79.832578 
L 405.831319 79.435918 
L 407.524375 79.039259 
L 409.217431 78.642599 
L 410.910486 78.24594 
L 412.603542 77.84928 
L 414.296597 77.45262 
L 415.989653 77.055961 
L 417.682708 76.659301 
L 419.375764 76.262642 
L 421.068819 75.865982 
L 422.761875 75.469323 
L 424.454931 75.072663 
L 426.147986 74.676003 
L 427.841042 74.279344 
L 429.534097 73.882684 
L 431.227153 73.486025 
L 432.920208 73.089365 
L 434.613264 72.692706 
L 436.306319 72.296046 
L 437.999375 71.899386 
L 439.692431 71.502727 
L 441.385486 71.106067 
L 443.078542 70.709408 
L 444.771597 70.312748 
L 446.464653 69.916089 
L 448.157708 69.519429 
L 449.850764 69.122769 
L 451.543819 68.72611 
L 453.236875 68.32945 
L 454.929931 67.932791 
L 456.622986 67.536131 
L 458.316042 67.139472 
L 460.009097 66.742812 
L 461.702153 66.346152 
L 463.395208 65.949493 
L 465.088264 65.552833 
L 466.781319 65.156174 
L 468.474375 64.759514 
" style="fill:none;stroke:#1f77b4;stroke-linecap:square;stroke-width:2.25;"/>
   </g>
   <g id="patch_8">
    <path d="M 300.861875 254.118125 
L 300.861875 22.318125 
" style="fill:none;stroke:#000000;stroke-linecap:square;stroke-linejoin:miter;stroke-width:0.8;"/>
   </g>
   <g id="patch_9">
    <path d="M 468.474375 254.118125 
L 468.474375 22.318125 
" style="fill:none;stroke:#000000;stroke-linecap:square;stroke-linejoin:miter;stroke-width:0.8;"/>
   </g>
   <g id="patch_10">
    <path d="M 300.861875 254.118125 
L 468.474375 254.118125 
" style="fill:none;stroke:#000000;stroke-linecap:square;stroke-linejoin:miter;stroke-width:0.8;"/>
   </g>
   <g id="patch_11">
    <path d="M 300.861875 22.318125 
L 468.474375 22.318125 
" style="fill:none;stroke:#000000;stroke-linecap:square;stroke-linejoin:miter;stroke-width:0.8;"/>
   </g>
   <g id="text_27">
    <!-- Group B -->
    <g transform="translate(300.861875 16.318125)scale(0.12 -0.12)">
     <defs>
      <path d="M 19.671875 34.8125 
L 19.671875 8.109375 
L 35.5 8.109375 
Q 43.453125 8.109375 47.28125 11.40625 
Q 51.125 14.703125 51.125 21.484375 
Q 51.125 28.328125 47.28125 31.5625 
Q 43.453125 34.8125 35.5 34.8125 
z
M 19.671875 64.796875 
L 19.671875 42.828125 
L 34.28125 42.828125 
Q 41.5 42.828125 45.03125 45.53125 
Q 48.578125 48.25 48.578125 53.8125 
Q 48.578125 59.328125 45.03125 62.0625 
Q 41.5 64.796875 34.28125 64.796875 
z
M 9.8125 72.90625 
L 35.015625 72.90625 
Q 46.296875 72.90625 52.390625 68.21875 
Q 58.5 63.53125 58.5 54.890625 
Q 58.5 48.1875 55.375 44.234375 
Q 52.25 40.28125 46.1875 39.3125 
Q 53.46875 37.75 57.5 32.78125 
Q 61.53125 27.828125 61.53125 20.40625 
Q 61.53125 10.640625 54.890625 5.3125 
Q 48.25 0 35.984375 0 
L 9.8125 0 
z
" id="DejaVuSans-66"/>
     </defs>
     <use xlink:href="#DejaVuSans-71"/>
     <use x="77.490234" xlink:href="#DejaVuSans-114"/>
     <use x="116.353516" xlink:href="#DejaVuSans-111"/>
     <use x="177.535156" xlink:href="#DejaVuSans-117"/>
     <use x="240.914062" xlink:href="#DejaVuSans-112"/>
     <use x="304.390625" xlink:href="#DejaVuSans-32"/>
     <use x="336.177734" xlink:href="#DejaVuSans-66"/>
    </g>
   </g>
  </g>
  <g id="text_28">
   <!-- The chatbot's messages corresponded to how I expected it to communicate with me. -->
   <g transform="translate(7.2 22.79625)scale(0.12 -0.12)">
    <defs>
     <path d="M -0.296875 72.90625 
L 61.375 72.90625 
L 61.375 64.59375 
L 35.5 64.59375 
L 35.5 0 
L 25.59375 0 
L 25.59375 64.59375 
L -0.296875 64.59375 
z
" id="DejaVuSans-84"/>
     <path d="M 54.890625 33.015625 
L 54.890625 0 
L 45.90625 0 
L 45.90625 32.71875 
Q 45.90625 40.484375 42.875 44.328125 
Q 39.84375 48.1875 33.796875 48.1875 
Q 26.515625 48.1875 22.3125 43.546875 
Q 18.109375 38.921875 18.109375 30.90625 
L 18.109375 0 
L 9.078125 0 
L 9.078125 75.984375 
L 18.109375 75.984375 
L 18.109375 46.1875 
Q 21.34375 51.125 25.703125 53.5625 
Q 30.078125 56 35.796875 56 
Q 45.21875 56 50.046875 50.171875 
Q 54.890625 44.34375 54.890625 33.015625 
z
" id="DejaVuSans-104"/>
     <path d="M 48.6875 27.296875 
Q 48.6875 37.203125 44.609375 42.84375 
Q 40.53125 48.484375 33.40625 48.484375 
Q 26.265625 48.484375 22.1875 42.84375 
Q 18.109375 37.203125 18.109375 27.296875 
Q 18.109375 17.390625 22.1875 11.75 
Q 26.265625 6.109375 33.40625 6.109375 
Q 40.53125 6.109375 44.609375 11.75 
Q 48.6875 17.390625 48.6875 27.296875 
z
M 18.109375 46.390625 
Q 20.953125 51.265625 25.265625 53.625 
Q 29.59375 56 35.59375 56 
Q 45.5625 56 51.78125 48.09375 
Q 58.015625 40.1875 58.015625 27.296875 
Q 58.015625 14.40625 51.78125 6.484375 
Q 45.5625 -1.421875 35.59375 -1.421875 
Q 29.59375 -1.421875 25.265625 0.953125 
Q 20.953125 3.328125 18.109375 8.203125 
L 18.109375 0 
L 9.078125 0 
L 9.078125 75.984375 
L 18.109375 75.984375 
z
" id="DejaVuSans-98"/>
     <path d="M 17.921875 72.90625 
L 17.921875 45.796875 
L 9.625 45.796875 
L 9.625 72.90625 
z
" id="DejaVuSans-39"/>
     <path d="M 44.28125 53.078125 
L 44.28125 44.578125 
Q 40.484375 46.53125 36.375 47.5 
Q 32.28125 48.484375 27.875 48.484375 
Q 21.1875 48.484375 17.84375 46.4375 
Q 14.5 44.390625 14.5 40.28125 
Q 14.5 37.15625 16.890625 35.375 
Q 19.28125 33.59375 26.515625 31.984375 
L 29.59375 31.296875 
Q 39.15625 29.25 43.1875 25.515625 
Q 47.21875 21.78125 47.21875 15.09375 
Q 47.21875 7.46875 41.1875 3.015625 
Q 35.15625 -1.421875 24.609375 -1.421875 
Q 20.21875 -1.421875 15.453125 -0.5625 
Q 10.6875 0.296875 5.421875 2 
L 5.421875 11.28125 
Q 10.40625 8.6875 15.234375 7.390625 
Q 20.0625 6.109375 24.8125 6.109375 
Q 31.15625 6.109375 34.5625 8.28125 
Q 37.984375 10.453125 37.984375 14.40625 
Q 37.984375 18.0625 35.515625 20.015625 
Q 33.0625 21.96875 24.703125 23.78125 
L 21.578125 24.515625 
Q 13.234375 26.265625 9.515625 29.90625 
Q 5.8125 33.546875 5.8125 39.890625 
Q 5.8125 47.609375 11.28125 51.796875 
Q 16.75 56 26.8125 56 
Q 31.78125 56 36.171875 55.265625 
Q 40.578125 54.546875 44.28125 53.078125 
z
" id="DejaVuSans-115"/>
     <path d="M 52 44.1875 
Q 55.375 50.25 60.0625 53.125 
Q 64.75 56 71.09375 56 
Q 79.640625 56 84.28125 50.015625 
Q 88.921875 44.046875 88.921875 33.015625 
L 88.921875 0 
L 79.890625 0 
L 79.890625 32.71875 
Q 79.890625 40.578125 77.09375 44.375 
Q 74.3125 48.1875 68.609375 48.1875 
Q 61.625 48.1875 57.5625 43.546875 
Q 53.515625 38.921875 53.515625 30.90625 
L 53.515625 0 
L 44.484375 0 
L 44.484375 32.71875 
Q 44.484375 40.625 41.703125 44.40625 
Q 38.921875 48.1875 33.109375 48.1875 
Q 26.21875 48.1875 22.15625 43.53125 
Q 18.109375 38.875 18.109375 30.90625 
L 18.109375 0 
L 9.078125 0 
L 9.078125 54.6875 
L 18.109375 54.6875 
L 18.109375 46.1875 
Q 21.1875 51.21875 25.484375 53.609375 
Q 29.78125 56 35.6875 56 
Q 41.65625 56 45.828125 52.96875 
Q 50 49.953125 52 44.1875 
z
" id="DejaVuSans-109"/>
     <path d="M 45.40625 27.984375 
Q 45.40625 37.75 41.375 43.109375 
Q 37.359375 48.484375 30.078125 48.484375 
Q 22.859375 48.484375 18.828125 43.109375 
Q 14.796875 37.75 14.796875 27.984375 
Q 14.796875 18.265625 18.828125 12.890625 
Q 22.859375 7.515625 30.078125 7.515625 
Q 37.359375 7.515625 41.375 12.890625 
Q 45.40625 18.265625 45.40625 27.984375 
z
M 54.390625 6.78125 
Q 54.390625 -7.171875 48.1875 -13.984375 
Q 42 -20.796875 29.203125 -20.796875 
Q 24.46875 -20.796875 20.265625 -20.09375 
Q 16.0625 -19.390625 12.109375 -17.921875 
L 12.109375 -9.1875 
Q 16.0625 -11.328125 19.921875 -12.34375 
Q 23.78125 -13.375 27.78125 -13.375 
Q 36.625 -13.375 41.015625 -8.765625 
Q 45.40625 -4.15625 45.40625 5.171875 
L 45.40625 9.625 
Q 42.625 4.78125 38.28125 2.390625 
Q 33.9375 0 27.875 0 
Q 17.828125 0 11.671875 7.65625 
Q 5.515625 15.328125 5.515625 27.984375 
Q 5.515625 40.671875 11.671875 48.328125 
Q 17.828125 56 27.875 56 
Q 33.9375 56 38.28125 53.609375 
Q 42.625 51.21875 45.40625 46.390625 
L 45.40625 54.6875 
L 54.390625 54.6875 
z
" id="DejaVuSans-103"/>
     <path d="M 45.40625 46.390625 
L 45.40625 75.984375 
L 54.390625 75.984375 
L 54.390625 0 
L 45.40625 0 
L 45.40625 8.203125 
Q 42.578125 3.328125 38.25 0.953125 
Q 33.9375 -1.421875 27.875 -1.421875 
Q 17.96875 -1.421875 11.734375 6.484375 
Q 5.515625 14.40625 5.515625 27.296875 
Q 5.515625 40.1875 11.734375 48.09375 
Q 17.96875 56 27.875 56 
Q 33.9375 56 38.25 53.625 
Q 42.578125 51.265625 45.40625 46.390625 
z
M 14.796875 27.296875 
Q 14.796875 17.390625 18.875 11.75 
Q 22.953125 6.109375 30.078125 6.109375 
Q 37.203125 6.109375 41.296875 11.75 
Q 45.40625 17.390625 45.40625 27.296875 
Q 45.40625 37.203125 41.296875 42.84375 
Q 37.203125 48.484375 30.078125 48.484375 
Q 22.953125 48.484375 18.875 42.84375 
Q 14.796875 37.203125 14.796875 27.296875 
z
" id="DejaVuSans-100"/>
     <path d="M 4.203125 54.6875 
L 13.1875 54.6875 
L 24.421875 12.015625 
L 35.59375 54.6875 
L 46.1875 54.6875 
L 57.421875 12.015625 
L 68.609375 54.6875 
L 77.59375 54.6875 
L 63.28125 0 
L 52.6875 0 
L 40.921875 44.828125 
L 29.109375 0 
L 18.5 0 
z
" id="DejaVuSans-119"/>
     <path d="M 9.8125 72.90625 
L 19.671875 72.90625 
L 19.671875 0 
L 9.8125 0 
z
" id="DejaVuSans-73"/>
    </defs>
    <use xlink:href="#DejaVuSans-84"/>
    <use x="61.083984" xlink:href="#DejaVuSans-104"/>
    <use x="124.462891" xlink:href="#DejaVuSans-101"/>
    <use x="185.986328" xlink:href="#DejaVuSans-32"/>
    <use x="217.773438" xlink:href="#DejaVuSans-99"/>
    <use x="272.753906" xlink:href="#DejaVuSans-104"/>
    <use x="336.132812" xlink:href="#DejaVuSans-97"/>
    <use x="397.412109" xlink:href="#DejaVuSans-116"/>
    <use x="436.621094" xlink:href="#DejaVuSans-98"/>
    <use x="500.097656" xlink:href="#DejaVuSans-111"/>
    <use x="561.279297" xlink:href="#DejaVuSans-116"/>
    <use x="600.488281" xlink:href="#DejaVuSans-39"/>
    <use x="627.978516" xlink:href="#DejaVuSans-115"/>
    <use x="680.078125" xlink:href="#DejaVuSans-32"/>
    <use x="711.865234" xlink:href="#DejaVuSans-109"/>
    <use x="809.277344" xlink:href="#DejaVuSans-101"/>
    <use x="870.800781" xlink:href="#DejaVuSans-115"/>
    <use x="922.900391" xlink:href="#DejaVuSans-115"/>
    <use x="975" xlink:href="#DejaVuSans-97"/>
    <use x="1036.279297" xlink:href="#DejaVuSans-103"/>
    <use x="1099.755859" xlink:href="#DejaVuSans-101"/>
    <use x="1161.279297" xlink:href="#DejaVuSans-115"/>
    <use x="1213.378906" xlink:href="#DejaVuSans-32"/>
    <use x="1245.166016" xlink:href="#DejaVuSans-99"/>
    <use x="1300.146484" xlink:href="#DejaVuSans-111"/>
    <use x="1361.328125" xlink:href="#DejaVuSans-114"/>
    <use x="1400.691406" xlink:href="#DejaVuSans-114"/>
    <use x="1439.554688" xlink:href="#DejaVuSans-101"/>
    <use x="1501.078125" xlink:href="#DejaVuSans-115"/>
    <use x="1553.177734" xlink:href="#DejaVuSans-112"/>
    <use x="1616.654297" xlink:href="#DejaVuSans-111"/>
    <use x="1677.835938" xlink:href="#DejaVuSans-110"/>
    <use x="1741.214844" xlink:href="#DejaVuSans-100"/>
    <use x="1804.691406" xlink:href="#DejaVuSans-101"/>
    <use x="1866.214844" xlink:href="#DejaVuSans-100"/>
    <use x="1929.691406" xlink:href="#DejaVuSans-32"/>
    <use x="1961.478516" xlink:href="#DejaVuSans-116"/>
    <use x="2000.6875" xlink:href="#DejaVuSans-111"/>
    <use x="2061.869141" xlink:href="#DejaVuSans-32"/>
    <use x="2093.65625" xlink:href="#DejaVuSans-104"/>
    <use x="2157.035156" xlink:href="#DejaVuSans-111"/>
    <use x="2218.216797" xlink:href="#DejaVuSans-119"/>
    <use x="2300.003906" xlink:href="#DejaVuSans-32"/>
    <use x="2331.791016" xlink:href="#DejaVuSans-73"/>
    <use x="2361.283203" xlink:href="#DejaVuSans-32"/>
    <use x="2393.070312" xlink:href="#DejaVuSans-101"/>
    <use x="2452.84375" xlink:href="#DejaVuSans-120"/>
    <use x="2512.023438" xlink:href="#DejaVuSans-112"/>
    <use x="2575.5" xlink:href="#DejaVuSans-101"/>
    <use x="2637.023438" xlink:href="#DejaVuSans-99"/>
    <use x="2692.003906" xlink:href="#DejaVuSans-116"/>
    <use x="2731.212891" xlink:href="#DejaVuSans-101"/>
    <use x="2792.736328" xlink:href="#DejaVuSans-100"/>
    <use x="2856.212891" xlink:href="#DejaVuSans-32"/>
    <use x="2888" xlink:href="#DejaVuSans-105"/>
    <use x="2915.783203" xlink:href="#DejaVuSans-116"/>
    <use x="2954.992188" xlink:href="#DejaVuSans-32"/>
    <use x="2986.779297" xlink:href="#DejaVuSans-116"/>
    <use x="3025.988281" xlink:href="#DejaVuSans-111"/>
    <use x="3087.169922" xlink:href="#DejaVuSans-32"/>
    <use x="3118.957031" xlink:href="#DejaVuSans-99"/>
    <use x="3173.9375" xlink:href="#DejaVuSans-111"/>
    <use x="3235.119141" xlink:href="#DejaVuSans-109"/>
    <use x="3332.53125" xlink:href="#DejaVuSans-109"/>
    <use x="3429.943359" xlink:href="#DejaVuSans-117"/>
    <use x="3493.322266" xlink:href="#DejaVuSans-110"/>
    <use x="3556.701172" xlink:href="#DejaVuSans-105"/>
    <use x="3584.484375" xlink:href="#DejaVuSans-99"/>
    <use x="3639.464844" xlink:href="#DejaVuSans-97"/>
    <use x="3700.744141" xlink:href="#DejaVuSans-116"/>
    <use x="3739.953125" xlink:href="#DejaVuSans-101"/>
    <use x="3801.476562" xlink:href="#DejaVuSans-32"/>
    <use x="3833.263672" xlink:href="#DejaVuSans-119"/>
    <use x="3915.050781" xlink:href="#DejaVuSans-105"/>
    <use x="3942.833984" xlink:href="#DejaVuSans-116"/>
    <use x="3982.042969" xlink:href="#DejaVuSans-104"/>
    <use x="4045.421875" xlink:href="#DejaVuSans-32"/>
    <use x="4077.208984" xlink:href="#DejaVuSans-109"/>
    <use x="4174.621094" xlink:href="#DejaVuSans-101"/>
    <use x="4236.144531" xlink:href="#DejaVuSans-46"/>
   </g>
  </g>
 </g>
 <defs>
  <clipPath id="p30dc50be24">
   <rect height="231.8" width="167.6125" x="85.449375" y="22.318125"/>
  </clipPath>
  <clipPath id="pcfe3b4f05e">
   <rect height="231.8" width="167.6125" x="300.861875" y="22.318125"/>
  </clipPath>
 </defs>
</svg>
