<?xml version="1.0" encoding="utf-8" standalone="no"?>
<!DOCTYPE svg PUBLIC "-//W3C//DTD SVG 1.1//EN"
  "http://www.w3.org/Graphics/SVG/1.1/DTD/svg11.dtd">
<!-- Created with matplotlib (https://matplotlib.org/) -->
<svg height="291.674375pt" version="1.1" viewBox="0 0 424.38125 291.674375" width="424.38125pt" xmlns="http://www.w3.org/2000/svg" xmlns:xlink="http://www.w3.org/1999/xlink">
 <metadata>
  <rdf:RDF xmlns:cc="http://creativecommons.org/ns#" xmlns:dc="http://purl.org/dc/elements/1.1/" xmlns:rdf="http://www.w3.org/1999/02/22-rdf-syntax-ns#">
   <cc:Work>
    <dc:type rdf:resource="http://purl.org/dc/dcmitype/StillImage"/>
    <dc:date>2021-02-20T15:29:24.822605</dc:date>
    <dc:format>image/svg+xml</dc:format>
    <dc:creator>
     <cc:Agent>
      <dc:title>Matplotlib v3.3.2, https://matplotlib.org/</dc:title>
     </cc:Agent>
    </dc:creator>
   </cc:Work>
  </rdf:RDF>
 </metadata>
 <defs>
  <style type="text/css">*{stroke-linecap:butt;stroke-linejoin:round;}</style>
 </defs>
 <g id="figure_1">
  <g id="patch_1">
   <path d="M 0 291.674375 
L 424.38125 291.674375 
L 424.38125 0 
L 0 0 
z
" style="fill:none;"/>
  </g>
  <g id="axes_1">
   <g id="patch_2">
    <path d="M 43.78125 254.118125 
L 206.58125 254.118125 
L 206.58125 22.318125 
L 43.78125 22.318125 
z
" style="fill:#ffffff;"/>
   </g>
   <g id="PathCollection_1">
    <defs>
     <path d="M 0 3 
C 0.795609 3 1.55874 2.683901 2.12132 2.12132 
C 2.683901 1.55874 3 0.795609 3 0 
C 3 -0.795609 2.683901 -1.55874 2.12132 -2.12132 
C 1.55874 -2.683901 0.795609 -3 0 -3 
C -0.795609 -3 -1.55874 -2.683901 -2.12132 -2.12132 
C -2.683901 -1.55874 -3 -0.795609 -3 0 
C -3 0.795609 -2.683901 1.55874 -2.12132 2.12132 
C -1.55874 2.683901 -0.795609 3 0 3 
z
" id="m6bb1db23c1" style="stroke:#1f77b4;stroke-opacity:0.8;"/>
    </defs>
    <g clip-path="url(#pf72e108dcf)">
     <use style="fill:#1f77b4;fill-opacity:0.8;stroke:#1f77b4;stroke-opacity:0.8;" x="143.965865" xlink:href="#m6bb1db23c1" y="124.502764"/>
     <use style="fill:#1f77b4;fill-opacity:0.8;stroke:#1f77b4;stroke-opacity:0.8;" x="68.827404" xlink:href="#m6bb1db23c1" y="124.502764"/>
     <use style="fill:#1f77b4;fill-opacity:0.8;stroke:#1f77b4;stroke-opacity:0.8;" x="81.350481" xlink:href="#m6bb1db23c1" y="124.502764"/>
     <use style="fill:#1f77b4;fill-opacity:0.8;stroke:#1f77b4;stroke-opacity:0.8;" x="143.965865" xlink:href="#m6bb1db23c1" y="124.502764"/>
     <use style="fill:#1f77b4;fill-opacity:0.8;stroke:#1f77b4;stroke-opacity:0.8;" x="169.012019" xlink:href="#m6bb1db23c1" y="64.963266"/>
     <use style="fill:#1f77b4;fill-opacity:0.8;stroke:#1f77b4;stroke-opacity:0.8;" x="131.442788" xlink:href="#m6bb1db23c1" y="64.963266"/>
     <use style="fill:#1f77b4;fill-opacity:0.8;stroke:#1f77b4;stroke-opacity:0.8;" x="181.535096" xlink:href="#m6bb1db23c1" y="64.963266"/>
     <use style="fill:#1f77b4;fill-opacity:0.8;stroke:#1f77b4;stroke-opacity:0.8;" x="131.442788" xlink:href="#m6bb1db23c1" y="124.502764"/>
     <use style="fill:#1f77b4;fill-opacity:0.8;stroke:#1f77b4;stroke-opacity:0.8;" x="81.350481" xlink:href="#m6bb1db23c1" y="124.502764"/>
     <use style="fill:#1f77b4;fill-opacity:0.8;stroke:#1f77b4;stroke-opacity:0.8;" x="118.919712" xlink:href="#m6bb1db23c1" y="124.502764"/>
     <use style="fill:#1f77b4;fill-opacity:0.8;stroke:#1f77b4;stroke-opacity:0.8;" x="118.919712" xlink:href="#m6bb1db23c1" y="124.502764"/>
     <use style="fill:#1f77b4;fill-opacity:0.8;stroke:#1f77b4;stroke-opacity:0.8;" x="169.012019" xlink:href="#m6bb1db23c1" y="64.963266"/>
     <use style="fill:#1f77b4;fill-opacity:0.8;stroke:#1f77b4;stroke-opacity:0.8;" x="93.873558" xlink:href="#m6bb1db23c1" y="124.502764"/>
     <use style="fill:#1f77b4;fill-opacity:0.8;stroke:#1f77b4;stroke-opacity:0.8;" x="131.442788" xlink:href="#m6bb1db23c1" y="124.502764"/>
     <use style="fill:#1f77b4;fill-opacity:0.8;stroke:#1f77b4;stroke-opacity:0.8;" x="131.442788" xlink:href="#m6bb1db23c1" y="124.502764"/>
     <use style="fill:#1f77b4;fill-opacity:0.8;stroke:#1f77b4;stroke-opacity:0.8;" x="156.488942" xlink:href="#m6bb1db23c1" y="124.502764"/>
     <use style="fill:#1f77b4;fill-opacity:0.8;stroke:#1f77b4;stroke-opacity:0.8;" x="118.919712" xlink:href="#m6bb1db23c1" y="64.963266"/>
     <use style="fill:#1f77b4;fill-opacity:0.8;stroke:#1f77b4;stroke-opacity:0.8;" x="106.396635" xlink:href="#m6bb1db23c1" y="64.963266"/>
     <use style="fill:#1f77b4;fill-opacity:0.8;stroke:#1f77b4;stroke-opacity:0.8;" x="156.488942" xlink:href="#m6bb1db23c1" y="184.042263"/>
     <use style="fill:#1f77b4;fill-opacity:0.8;stroke:#1f77b4;stroke-opacity:0.8;" x="43.78125" xlink:href="#m6bb1db23c1" y="243.581761"/>
     <use style="fill:#1f77b4;fill-opacity:0.8;stroke:#1f77b4;stroke-opacity:0.8;" x="93.873558" xlink:href="#m6bb1db23c1" y="124.502764"/>
     <use style="fill:#1f77b4;fill-opacity:0.8;stroke:#1f77b4;stroke-opacity:0.8;" x="206.58125" xlink:href="#m6bb1db23c1" y="64.963266"/>
     <use style="fill:#1f77b4;fill-opacity:0.8;stroke:#1f77b4;stroke-opacity:0.8;" x="118.919712" xlink:href="#m6bb1db23c1" y="124.502764"/>
     <use style="fill:#1f77b4;fill-opacity:0.8;stroke:#1f77b4;stroke-opacity:0.8;" x="118.919712" xlink:href="#m6bb1db23c1" y="124.502764"/>
     <use style="fill:#1f77b4;fill-opacity:0.8;stroke:#1f77b4;stroke-opacity:0.8;" x="118.919712" xlink:href="#m6bb1db23c1" y="124.502764"/>
     <use style="fill:#1f77b4;fill-opacity:0.8;stroke:#1f77b4;stroke-opacity:0.8;" x="118.919712" xlink:href="#m6bb1db23c1" y="64.963266"/>
     <use style="fill:#1f77b4;fill-opacity:0.8;stroke:#1f77b4;stroke-opacity:0.8;" x="106.396635" xlink:href="#m6bb1db23c1" y="124.502764"/>
     <use style="fill:#1f77b4;fill-opacity:0.8;stroke:#1f77b4;stroke-opacity:0.8;" x="93.873558" xlink:href="#m6bb1db23c1" y="64.963266"/>
     <use style="fill:#1f77b4;fill-opacity:0.8;stroke:#1f77b4;stroke-opacity:0.8;" x="106.396635" xlink:href="#m6bb1db23c1" y="64.963266"/>
     <use style="fill:#1f77b4;fill-opacity:0.8;stroke:#1f77b4;stroke-opacity:0.8;" x="118.919712" xlink:href="#m6bb1db23c1" y="64.963266"/>
     <use style="fill:#1f77b4;fill-opacity:0.8;stroke:#1f77b4;stroke-opacity:0.8;" x="118.919712" xlink:href="#m6bb1db23c1" y="64.963266"/>
     <use style="fill:#1f77b4;fill-opacity:0.8;stroke:#1f77b4;stroke-opacity:0.8;" x="93.873558" xlink:href="#m6bb1db23c1" y="124.502764"/>
     <use style="fill:#1f77b4;fill-opacity:0.8;stroke:#1f77b4;stroke-opacity:0.8;" x="131.442788" xlink:href="#m6bb1db23c1" y="124.502764"/>
     <use style="fill:#1f77b4;fill-opacity:0.8;stroke:#1f77b4;stroke-opacity:0.8;" x="131.442788" xlink:href="#m6bb1db23c1" y="124.502764"/>
     <use style="fill:#1f77b4;fill-opacity:0.8;stroke:#1f77b4;stroke-opacity:0.8;" x="106.396635" xlink:href="#m6bb1db23c1" y="124.502764"/>
     <use style="fill:#1f77b4;fill-opacity:0.8;stroke:#1f77b4;stroke-opacity:0.8;" x="106.396635" xlink:href="#m6bb1db23c1" y="184.042263"/>
     <use style="fill:#1f77b4;fill-opacity:0.8;stroke:#1f77b4;stroke-opacity:0.8;" x="93.873558" xlink:href="#m6bb1db23c1" y="184.042263"/>
     <use style="fill:#1f77b4;fill-opacity:0.8;stroke:#1f77b4;stroke-opacity:0.8;" x="118.919712" xlink:href="#m6bb1db23c1" y="124.502764"/>
     <use style="fill:#1f77b4;fill-opacity:0.8;stroke:#1f77b4;stroke-opacity:0.8;" x="106.396635" xlink:href="#m6bb1db23c1" y="124.502764"/>
     <use style="fill:#1f77b4;fill-opacity:0.8;stroke:#1f77b4;stroke-opacity:0.8;" x="93.873558" xlink:href="#m6bb1db23c1" y="184.042263"/>
     <use style="fill:#1f77b4;fill-opacity:0.8;stroke:#1f77b4;stroke-opacity:0.8;" x="56.304327" xlink:href="#m6bb1db23c1" y="64.963266"/>
    </g>
   </g>
   <g id="PolyCollection_1">
    <path clip-path="url(#pf72e108dcf)" d="M 43.78125 107.516354 
L 43.78125 191.302753 
L 45.425694 189.69958 
L 47.070139 188.306158 
L 48.714583 186.71349 
L 50.359028 185.032393 
L 52.003472 183.346795 
L 53.647917 181.661117 
L 55.292361 180.139775 
L 56.936806 178.519685 
L 58.58125 176.855369 
L 60.225694 175.164066 
L 61.870139 173.44044 
L 63.514583 171.916667 
L 65.159028 170.302528 
L 66.803472 168.626303 
L 68.447917 166.950077 
L 70.092361 165.477068 
L 71.736806 163.590294 
L 73.38125 161.915715 
L 75.025694 160.314457 
L 76.670139 159.049819 
L 78.314583 157.409051 
L 79.959028 156.054149 
L 81.603472 154.711915 
L 83.247917 153.491901 
L 84.892361 152.161278 
L 86.536806 150.645862 
L 88.18125 149.256234 
L 89.825694 147.896231 
L 91.470139 146.400748 
L 93.114583 145.123444 
L 94.759028 143.671933 
L 96.403472 142.302698 
L 98.047917 140.840339 
L 99.692361 139.721856 
L 101.336806 138.382383 
L 102.98125 137.037262 
L 104.625694 135.578004 
L 106.270139 134.321486 
L 107.914583 132.965065 
L 109.559028 131.843349 
L 111.203472 130.605423 
L 112.847917 129.631039 
L 114.492361 128.466906 
L 116.136806 127.232947 
L 117.78125 126.086575 
L 119.425694 125.139143 
L 121.070139 124.218101 
L 122.714583 123.371647 
L 124.359028 122.524854 
L 126.003472 121.556723 
L 127.647917 120.775031 
L 129.292361 119.736112 
L 130.936806 118.765996 
L 132.58125 118.265727 
L 134.225694 117.357214 
L 135.870139 116.838687 
L 137.514583 116.454804 
L 139.159028 116.260628 
L 140.803472 116.225179 
L 142.447917 115.961816 
L 144.092361 115.914134 
L 145.736806 115.798692 
L 147.38125 115.803546 
L 149.025694 115.80766 
L 150.670139 115.808319 
L 152.314583 115.800039 
L 153.959028 115.601173 
L 155.603472 115.791422 
L 157.247917 115.796111 
L 158.892361 115.854258 
L 160.536806 115.792173 
L 162.18125 115.782434 
L 163.825694 115.748928 
L 165.470139 115.792038 
L 167.114583 115.571035 
L 168.759028 115.393144 
L 170.403472 115.473989 
L 172.047917 115.723908 
L 173.692361 115.798219 
L 175.336806 115.808457 
L 176.98125 115.823654 
L 178.625694 115.907916 
L 180.270139 115.992177 
L 181.914583 116.076439 
L 183.559028 116.157609 
L 185.203472 116.232377 
L 186.847917 116.307145 
L 188.492361 116.381913 
L 190.136806 116.29559 
L 191.78125 116.060626 
L 193.425694 115.825662 
L 195.070139 115.812667 
L 196.714583 115.81474 
L 198.359028 115.816813 
L 200.003472 115.818886 
L 201.647917 115.820959 
L 203.292361 115.82288 
L 204.936806 115.822157 
L 206.58125 115.83353 
L 206.58125 32.854489 
L 206.58125 32.854489 
L 204.936806 34.381577 
L 203.292361 35.908666 
L 201.647917 37.435754 
L 200.003472 38.962842 
L 198.359028 40.489931 
L 196.714583 42.017019 
L 195.070139 43.544108 
L 193.425694 45.071196 
L 191.78125 46.598285 
L 190.136806 48.129379 
L 188.492361 49.661921 
L 186.847917 51.154447 
L 185.203472 52.57365 
L 183.559028 54.14008 
L 181.914583 55.493979 
L 180.270139 56.847878 
L 178.625694 58.222254 
L 176.98125 59.634203 
L 175.336806 61.168998 
L 173.692361 62.735626 
L 172.047917 64.342409 
L 170.403472 65.870612 
L 168.759028 67.303083 
L 167.114583 68.440954 
L 165.470139 69.759081 
L 163.825694 71.300359 
L 162.18125 72.923632 
L 160.536806 74.550686 
L 158.892361 76.177741 
L 157.247917 77.810932 
L 155.603472 79.333998 
L 153.959028 80.425588 
L 152.314583 81.413204 
L 150.670139 82.923063 
L 149.025694 84.351242 
L 147.38125 86.008165 
L 145.736806 87.291556 
L 144.092361 88.744931 
L 142.447917 90.091726 
L 140.803472 91.161238 
L 139.159028 92.161414 
L 137.514583 93.287763 
L 135.870139 94.163266 
L 134.225694 95.293853 
L 132.58125 96.156841 
L 130.936806 97.33903 
L 129.292361 98.154124 
L 127.647917 99.064985 
L 126.003472 99.61557 
L 124.359028 100.38747 
L 122.714583 101.163308 
L 121.070139 101.959759 
L 119.425694 102.659546 
L 117.78125 103.120688 
L 116.136806 103.500933 
L 114.492361 103.953465 
L 112.847917 104.397702 
L 111.203472 104.748461 
L 109.559028 105.203399 
L 107.914583 105.45053 
L 106.270139 105.682866 
L 104.625694 105.915201 
L 102.98125 106.14768 
L 101.336806 106.456933 
L 99.692361 106.774807 
L 98.047917 106.979156 
L 96.403472 107.172933 
L 94.759028 107.298269 
L 93.114583 107.445762 
L 91.470139 107.757667 
L 89.825694 107.84429 
L 88.18125 107.712919 
L 86.536806 107.944503 
L 84.892361 108.201239 
L 83.247917 108.3627 
L 81.603472 108.573204 
L 79.959028 108.529451 
L 78.314583 108.269751 
L 76.670139 108.261411 
L 75.025694 107.994261 
L 73.38125 107.823131 
L 71.736806 107.602636 
L 70.092361 107.386023 
L 68.447917 107.380823 
L 66.803472 107.398379 
L 65.159028 107.495318 
L 63.514583 107.527874 
L 61.870139 107.622117 
L 60.225694 107.716429 
L 58.58125 107.66506 
L 56.936806 107.538325 
L 55.292361 107.455748 
L 53.647917 107.484766 
L 52.003472 107.710918 
L 50.359028 107.631555 
L 48.714583 107.552192 
L 47.070139 107.502394 
L 45.425694 107.509374 
L 43.78125 107.516354 
z
" style="fill:#1f77b4;fill-opacity:0.15;"/>
   </g>
   <g id="matplotlib.axis_1">
    <g id="xtick_1">
     <g id="line2d_1">
      <defs>
       <path d="M 0 0 
L 0 3.5 
" id="m1c09da8f7f" style="stroke:#000000;stroke-width:0.8;"/>
      </defs>
      <g>
       <use style="stroke:#000000;stroke-width:0.8;" x="68.827404" xlink:href="#m1c09da8f7f" y="254.118125"/>
      </g>
     </g>
     <g id="text_1">
      <!-- 2 -->
      <g transform="translate(65.646154 268.716562)scale(0.1 -0.1)">
       <defs>
        <path d="M 19.1875 8.296875 
L 53.609375 8.296875 
L 53.609375 0 
L 7.328125 0 
L 7.328125 8.296875 
Q 12.9375 14.109375 22.625 23.890625 
Q 32.328125 33.6875 34.8125 36.53125 
Q 39.546875 41.84375 41.421875 45.53125 
Q 43.3125 49.21875 43.3125 52.78125 
Q 43.3125 58.59375 39.234375 62.25 
Q 35.15625 65.921875 28.609375 65.921875 
Q 23.96875 65.921875 18.8125 64.3125 
Q 13.671875 62.703125 7.8125 59.421875 
L 7.8125 69.390625 
Q 13.765625 71.78125 18.9375 73 
Q 24.125 74.21875 28.421875 74.21875 
Q 39.75 74.21875 46.484375 68.546875 
Q 53.21875 62.890625 53.21875 53.421875 
Q 53.21875 48.921875 51.53125 44.890625 
Q 49.859375 40.875 45.40625 35.40625 
Q 44.1875 33.984375 37.640625 27.21875 
Q 31.109375 20.453125 19.1875 8.296875 
z
" id="DejaVuSans-50"/>
       </defs>
       <use xlink:href="#DejaVuSans-50"/>
      </g>
     </g>
    </g>
    <g id="xtick_2">
     <g id="line2d_2">
      <g>
       <use style="stroke:#000000;stroke-width:0.8;" x="118.919712" xlink:href="#m1c09da8f7f" y="254.118125"/>
      </g>
     </g>
     <g id="text_2">
      <!-- 3 -->
      <g transform="translate(115.738462 268.716562)scale(0.1 -0.1)">
       <defs>
        <path d="M 40.578125 39.3125 
Q 47.65625 37.796875 51.625 33 
Q 55.609375 28.21875 55.609375 21.1875 
Q 55.609375 10.40625 48.1875 4.484375 
Q 40.765625 -1.421875 27.09375 -1.421875 
Q 22.515625 -1.421875 17.65625 -0.515625 
Q 12.796875 0.390625 7.625 2.203125 
L 7.625 11.71875 
Q 11.71875 9.328125 16.59375 8.109375 
Q 21.484375 6.890625 26.8125 6.890625 
Q 36.078125 6.890625 40.9375 10.546875 
Q 45.796875 14.203125 45.796875 21.1875 
Q 45.796875 27.640625 41.28125 31.265625 
Q 36.765625 34.90625 28.71875 34.90625 
L 20.21875 34.90625 
L 20.21875 43.015625 
L 29.109375 43.015625 
Q 36.375 43.015625 40.234375 45.921875 
Q 44.09375 48.828125 44.09375 54.296875 
Q 44.09375 59.90625 40.109375 62.90625 
Q 36.140625 65.921875 28.71875 65.921875 
Q 24.65625 65.921875 20.015625 65.03125 
Q 15.375 64.15625 9.8125 62.3125 
L 9.8125 71.09375 
Q 15.4375 72.65625 20.34375 73.4375 
Q 25.25 74.21875 29.59375 74.21875 
Q 40.828125 74.21875 47.359375 69.109375 
Q 53.90625 64.015625 53.90625 55.328125 
Q 53.90625 49.265625 50.4375 45.09375 
Q 46.96875 40.921875 40.578125 39.3125 
z
" id="DejaVuSans-51"/>
       </defs>
       <use xlink:href="#DejaVuSans-51"/>
      </g>
     </g>
    </g>
    <g id="xtick_3">
     <g id="line2d_3">
      <g>
       <use style="stroke:#000000;stroke-width:0.8;" x="169.012019" xlink:href="#m1c09da8f7f" y="254.118125"/>
      </g>
     </g>
     <g id="text_3">
      <!-- 4 -->
      <g transform="translate(165.830769 268.716562)scale(0.1 -0.1)">
       <defs>
        <path d="M 37.796875 64.3125 
L 12.890625 25.390625 
L 37.796875 25.390625 
z
M 35.203125 72.90625 
L 47.609375 72.90625 
L 47.609375 25.390625 
L 58.015625 25.390625 
L 58.015625 17.1875 
L 47.609375 17.1875 
L 47.609375 0 
L 37.796875 0 
L 37.796875 17.1875 
L 4.890625 17.1875 
L 4.890625 26.703125 
z
" id="DejaVuSans-52"/>
       </defs>
       <use xlink:href="#DejaVuSans-52"/>
      </g>
     </g>
    </g>
    <g id="text_4">
     <!-- E -->
     <g transform="translate(122.021875 282.394687)scale(0.1 -0.1)">
      <defs>
       <path d="M 9.8125 72.90625 
L 55.90625 72.90625 
L 55.90625 64.59375 
L 19.671875 64.59375 
L 19.671875 43.015625 
L 54.390625 43.015625 
L 54.390625 34.71875 
L 19.671875 34.71875 
L 19.671875 8.296875 
L 56.78125 8.296875 
L 56.78125 0 
L 9.8125 0 
z
" id="DejaVuSans-69"/>
      </defs>
      <use xlink:href="#DejaVuSans-69"/>
     </g>
    </g>
   </g>
   <g id="matplotlib.axis_2">
    <g id="ytick_1">
     <g id="line2d_4">
      <defs>
       <path d="M 0 0 
L -3.5 0 
" id="md9d89a375d" style="stroke:#000000;stroke-width:0.8;"/>
      </defs>
      <g>
       <use style="stroke:#000000;stroke-width:0.8;" x="43.78125" xlink:href="#md9d89a375d" y="243.581761"/>
      </g>
     </g>
     <g id="text_5">
      <!-- 2.0 -->
      <g transform="translate(20.878125 247.38098)scale(0.1 -0.1)">
       <defs>
        <path d="M 10.6875 12.40625 
L 21 12.40625 
L 21 0 
L 10.6875 0 
z
" id="DejaVuSans-46"/>
        <path d="M 31.78125 66.40625 
Q 24.171875 66.40625 20.328125 58.90625 
Q 16.5 51.421875 16.5 36.375 
Q 16.5 21.390625 20.328125 13.890625 
Q 24.171875 6.390625 31.78125 6.390625 
Q 39.453125 6.390625 43.28125 13.890625 
Q 47.125 21.390625 47.125 36.375 
Q 47.125 51.421875 43.28125 58.90625 
Q 39.453125 66.40625 31.78125 66.40625 
z
M 31.78125 74.21875 
Q 44.046875 74.21875 50.515625 64.515625 
Q 56.984375 54.828125 56.984375 36.375 
Q 56.984375 17.96875 50.515625 8.265625 
Q 44.046875 -1.421875 31.78125 -1.421875 
Q 19.53125 -1.421875 13.0625 8.265625 
Q 6.59375 17.96875 6.59375 36.375 
Q 6.59375 54.828125 13.0625 64.515625 
Q 19.53125 74.21875 31.78125 74.21875 
z
" id="DejaVuSans-48"/>
       </defs>
       <use xlink:href="#DejaVuSans-50"/>
       <use x="63.623047" xlink:href="#DejaVuSans-46"/>
       <use x="95.410156" xlink:href="#DejaVuSans-48"/>
      </g>
     </g>
    </g>
    <g id="ytick_2">
     <g id="line2d_5">
      <g>
       <use style="stroke:#000000;stroke-width:0.8;" x="43.78125" xlink:href="#md9d89a375d" y="213.812012"/>
      </g>
     </g>
     <g id="text_6">
      <!-- 2.5 -->
      <g transform="translate(20.878125 217.611231)scale(0.1 -0.1)">
       <defs>
        <path d="M 10.796875 72.90625 
L 49.515625 72.90625 
L 49.515625 64.59375 
L 19.828125 64.59375 
L 19.828125 46.734375 
Q 21.96875 47.46875 24.109375 47.828125 
Q 26.265625 48.1875 28.421875 48.1875 
Q 40.625 48.1875 47.75 41.5 
Q 54.890625 34.8125 54.890625 23.390625 
Q 54.890625 11.625 47.5625 5.09375 
Q 40.234375 -1.421875 26.90625 -1.421875 
Q 22.3125 -1.421875 17.546875 -0.640625 
Q 12.796875 0.140625 7.71875 1.703125 
L 7.71875 11.625 
Q 12.109375 9.234375 16.796875 8.0625 
Q 21.484375 6.890625 26.703125 6.890625 
Q 35.15625 6.890625 40.078125 11.328125 
Q 45.015625 15.765625 45.015625 23.390625 
Q 45.015625 31 40.078125 35.4375 
Q 35.15625 39.890625 26.703125 39.890625 
Q 22.75 39.890625 18.8125 39.015625 
Q 14.890625 38.140625 10.796875 36.28125 
z
" id="DejaVuSans-53"/>
       </defs>
       <use xlink:href="#DejaVuSans-50"/>
       <use x="63.623047" xlink:href="#DejaVuSans-46"/>
       <use x="95.410156" xlink:href="#DejaVuSans-53"/>
      </g>
     </g>
    </g>
    <g id="ytick_3">
     <g id="line2d_6">
      <g>
       <use style="stroke:#000000;stroke-width:0.8;" x="43.78125" xlink:href="#md9d89a375d" y="184.042263"/>
      </g>
     </g>
     <g id="text_7">
      <!-- 3.0 -->
      <g transform="translate(20.878125 187.841482)scale(0.1 -0.1)">
       <use xlink:href="#DejaVuSans-51"/>
       <use x="63.623047" xlink:href="#DejaVuSans-46"/>
       <use x="95.410156" xlink:href="#DejaVuSans-48"/>
      </g>
     </g>
    </g>
    <g id="ytick_4">
     <g id="line2d_7">
      <g>
       <use style="stroke:#000000;stroke-width:0.8;" x="43.78125" xlink:href="#md9d89a375d" y="154.272514"/>
      </g>
     </g>
     <g id="text_8">
      <!-- 3.5 -->
      <g transform="translate(20.878125 158.071732)scale(0.1 -0.1)">
       <use xlink:href="#DejaVuSans-51"/>
       <use x="63.623047" xlink:href="#DejaVuSans-46"/>
       <use x="95.410156" xlink:href="#DejaVuSans-53"/>
      </g>
     </g>
    </g>
    <g id="ytick_5">
     <g id="line2d_8">
      <g>
       <use style="stroke:#000000;stroke-width:0.8;" x="43.78125" xlink:href="#md9d89a375d" y="124.502764"/>
      </g>
     </g>
     <g id="text_9">
      <!-- 4.0 -->
      <g transform="translate(20.878125 128.301983)scale(0.1 -0.1)">
       <use xlink:href="#DejaVuSans-52"/>
       <use x="63.623047" xlink:href="#DejaVuSans-46"/>
       <use x="95.410156" xlink:href="#DejaVuSans-48"/>
      </g>
     </g>
    </g>
    <g id="ytick_6">
     <g id="line2d_9">
      <g>
       <use style="stroke:#000000;stroke-width:0.8;" x="43.78125" xlink:href="#md9d89a375d" y="94.733015"/>
      </g>
     </g>
     <g id="text_10">
      <!-- 4.5 -->
      <g transform="translate(20.878125 98.532234)scale(0.1 -0.1)">
       <use xlink:href="#DejaVuSans-52"/>
       <use x="63.623047" xlink:href="#DejaVuSans-46"/>
       <use x="95.410156" xlink:href="#DejaVuSans-53"/>
      </g>
     </g>
    </g>
    <g id="ytick_7">
     <g id="line2d_10">
      <g>
       <use style="stroke:#000000;stroke-width:0.8;" x="43.78125" xlink:href="#md9d89a375d" y="64.963266"/>
      </g>
     </g>
     <g id="text_11">
      <!-- 5.0 -->
      <g transform="translate(20.878125 68.762485)scale(0.1 -0.1)">
       <use xlink:href="#DejaVuSans-53"/>
       <use x="63.623047" xlink:href="#DejaVuSans-46"/>
       <use x="95.410156" xlink:href="#DejaVuSans-48"/>
      </g>
     </g>
    </g>
    <g id="ytick_8">
     <g id="line2d_11">
      <g>
       <use style="stroke:#000000;stroke-width:0.8;" x="43.78125" xlink:href="#md9d89a375d" y="35.193517"/>
      </g>
     </g>
     <g id="text_12">
      <!-- 5.5 -->
      <g transform="translate(20.878125 38.992735)scale(0.1 -0.1)">
       <use xlink:href="#DejaVuSans-53"/>
       <use x="63.623047" xlink:href="#DejaVuSans-46"/>
       <use x="95.410156" xlink:href="#DejaVuSans-53"/>
      </g>
     </g>
    </g>
    <g id="text_13">
     <!-- Trust2 -->
     <g transform="translate(14.798438 153.504844)rotate(-90)scale(0.1 -0.1)">
      <defs>
       <path d="M -0.296875 72.90625 
L 61.375 72.90625 
L 61.375 64.59375 
L 35.5 64.59375 
L 35.5 0 
L 25.59375 0 
L 25.59375 64.59375 
L -0.296875 64.59375 
z
" id="DejaVuSans-84"/>
       <path d="M 41.109375 46.296875 
Q 39.59375 47.171875 37.8125 47.578125 
Q 36.03125 48 33.890625 48 
Q 26.265625 48 22.1875 43.046875 
Q 18.109375 38.09375 18.109375 28.8125 
L 18.109375 0 
L 9.078125 0 
L 9.078125 54.6875 
L 18.109375 54.6875 
L 18.109375 46.1875 
Q 20.953125 51.171875 25.484375 53.578125 
Q 30.03125 56 36.53125 56 
Q 37.453125 56 38.578125 55.875 
Q 39.703125 55.765625 41.0625 55.515625 
z
" id="DejaVuSans-114"/>
       <path d="M 8.5 21.578125 
L 8.5 54.6875 
L 17.484375 54.6875 
L 17.484375 21.921875 
Q 17.484375 14.15625 20.5 10.265625 
Q 23.53125 6.390625 29.59375 6.390625 
Q 36.859375 6.390625 41.078125 11.03125 
Q 45.3125 15.671875 45.3125 23.6875 
L 45.3125 54.6875 
L 54.296875 54.6875 
L 54.296875 0 
L 45.3125 0 
L 45.3125 8.40625 
Q 42.046875 3.421875 37.71875 1 
Q 33.40625 -1.421875 27.6875 -1.421875 
Q 18.265625 -1.421875 13.375 4.4375 
Q 8.5 10.296875 8.5 21.578125 
z
M 31.109375 56 
z
" id="DejaVuSans-117"/>
       <path d="M 44.28125 53.078125 
L 44.28125 44.578125 
Q 40.484375 46.53125 36.375 47.5 
Q 32.28125 48.484375 27.875 48.484375 
Q 21.1875 48.484375 17.84375 46.4375 
Q 14.5 44.390625 14.5 40.28125 
Q 14.5 37.15625 16.890625 35.375 
Q 19.28125 33.59375 26.515625 31.984375 
L 29.59375 31.296875 
Q 39.15625 29.25 43.1875 25.515625 
Q 47.21875 21.78125 47.21875 15.09375 
Q 47.21875 7.46875 41.1875 3.015625 
Q 35.15625 -1.421875 24.609375 -1.421875 
Q 20.21875 -1.421875 15.453125 -0.5625 
Q 10.6875 0.296875 5.421875 2 
L 5.421875 11.28125 
Q 10.40625 8.6875 15.234375 7.390625 
Q 20.0625 6.109375 24.8125 6.109375 
Q 31.15625 6.109375 34.5625 8.28125 
Q 37.984375 10.453125 37.984375 14.40625 
Q 37.984375 18.0625 35.515625 20.015625 
Q 33.0625 21.96875 24.703125 23.78125 
L 21.578125 24.515625 
Q 13.234375 26.265625 9.515625 29.90625 
Q 5.8125 33.546875 5.8125 39.890625 
Q 5.8125 47.609375 11.28125 51.796875 
Q 16.75 56 26.8125 56 
Q 31.78125 56 36.171875 55.265625 
Q 40.578125 54.546875 44.28125 53.078125 
z
" id="DejaVuSans-115"/>
       <path d="M 18.3125 70.21875 
L 18.3125 54.6875 
L 36.8125 54.6875 
L 36.8125 47.703125 
L 18.3125 47.703125 
L 18.3125 18.015625 
Q 18.3125 11.328125 20.140625 9.421875 
Q 21.96875 7.515625 27.59375 7.515625 
L 36.8125 7.515625 
L 36.8125 0 
L 27.59375 0 
Q 17.1875 0 13.234375 3.875 
Q 9.28125 7.765625 9.28125 18.015625 
L 9.28125 47.703125 
L 2.6875 47.703125 
L 2.6875 54.6875 
L 9.28125 54.6875 
L 9.28125 70.21875 
z
" id="DejaVuSans-116"/>
      </defs>
      <use xlink:href="#DejaVuSans-84"/>
      <use x="46.333984" xlink:href="#DejaVuSans-114"/>
      <use x="87.447266" xlink:href="#DejaVuSans-117"/>
      <use x="150.826172" xlink:href="#DejaVuSans-115"/>
      <use x="202.925781" xlink:href="#DejaVuSans-116"/>
      <use x="242.134766" xlink:href="#DejaVuSans-50"/>
     </g>
    </g>
   </g>
   <g id="line2d_12">
    <path clip-path="url(#pf72e108dcf)" d="M 43.78125 149.939957 
L 45.425694 149.151159 
L 47.070139 148.362361 
L 48.714583 147.573562 
L 50.359028 146.784764 
L 52.003472 145.995966 
L 53.647917 145.207168 
L 55.292361 144.41837 
L 56.936806 143.629571 
L 58.58125 142.840773 
L 60.225694 142.051975 
L 61.870139 141.263177 
L 63.514583 140.474379 
L 65.159028 139.68558 
L 66.803472 138.896782 
L 68.447917 138.107984 
L 70.092361 137.319186 
L 71.736806 136.530388 
L 73.38125 135.74159 
L 75.025694 134.952791 
L 76.670139 134.163993 
L 78.314583 133.375195 
L 79.959028 132.586397 
L 81.603472 131.797599 
L 83.247917 131.0088 
L 84.892361 130.220002 
L 86.536806 129.431204 
L 88.18125 128.642406 
L 89.825694 127.853608 
L 91.470139 127.06481 
L 93.114583 126.276011 
L 94.759028 125.487213 
L 96.403472 124.698415 
L 98.047917 123.909617 
L 99.692361 123.120819 
L 101.336806 122.33202 
L 102.98125 121.543222 
L 104.625694 120.754424 
L 106.270139 119.965626 
L 107.914583 119.176828 
L 109.559028 118.388029 
L 111.203472 117.599231 
L 112.847917 116.810433 
L 114.492361 116.021635 
L 116.136806 115.232837 
L 117.78125 114.444039 
L 119.425694 113.65524 
L 121.070139 112.866442 
L 122.714583 112.077644 
L 124.359028 111.288846 
L 126.003472 110.500048 
L 127.647917 109.711249 
L 129.292361 108.922451 
L 130.936806 108.133653 
L 132.58125 107.344855 
L 134.225694 106.556057 
L 135.870139 105.767259 
L 137.514583 104.97846 
L 139.159028 104.189662 
L 140.803472 103.400864 
L 142.447917 102.612066 
L 144.092361 101.823268 
L 145.736806 101.034469 
L 147.38125 100.245671 
L 149.025694 99.456873 
L 150.670139 98.668075 
L 152.314583 97.879277 
L 153.959028 97.090478 
L 155.603472 96.30168 
L 157.247917 95.512882 
L 158.892361 94.724084 
L 160.536806 93.935286 
L 162.18125 93.146488 
L 163.825694 92.357689 
L 165.470139 91.568891 
L 167.114583 90.780093 
L 168.759028 89.991295 
L 170.403472 89.202497 
L 172.047917 88.413698 
L 173.692361 87.6249 
L 175.336806 86.836102 
L 176.98125 86.047304 
L 178.625694 85.258506 
L 180.270139 84.469708 
L 181.914583 83.680909 
L 183.559028 82.892111 
L 185.203472 82.103313 
L 186.847917 81.314515 
L 188.492361 80.525717 
L 190.136806 79.736918 
L 191.78125 78.94812 
L 193.425694 78.159322 
L 195.070139 77.370524 
L 196.714583 76.581726 
L 198.359028 75.792928 
L 200.003472 75.004129 
L 201.647917 74.215331 
L 203.292361 73.426533 
L 204.936806 72.637735 
L 206.58125 71.848937 
" style="fill:none;stroke:#1f77b4;stroke-linecap:square;stroke-width:2.25;"/>
   </g>
   <g id="patch_3">
    <path d="M 43.78125 254.118125 
L 43.78125 22.318125 
" style="fill:none;stroke:#000000;stroke-linecap:square;stroke-linejoin:miter;stroke-width:0.8;"/>
   </g>
   <g id="patch_4">
    <path d="M 206.58125 254.118125 
L 206.58125 22.318125 
" style="fill:none;stroke:#000000;stroke-linecap:square;stroke-linejoin:miter;stroke-width:0.8;"/>
   </g>
   <g id="patch_5">
    <path d="M 43.78125 254.118125 
L 206.58125 254.118125 
" style="fill:none;stroke:#000000;stroke-linecap:square;stroke-linejoin:miter;stroke-width:0.8;"/>
   </g>
   <g id="patch_6">
    <path d="M 43.78125 22.318125 
L 206.58125 22.318125 
" style="fill:none;stroke:#000000;stroke-linecap:square;stroke-linejoin:miter;stroke-width:0.8;"/>
   </g>
   <g id="text_14">
    <!-- Group A -->
    <g transform="translate(43.78125 16.318125)scale(0.12 -0.12)">
     <defs>
      <path d="M 59.515625 10.40625 
L 59.515625 29.984375 
L 43.40625 29.984375 
L 43.40625 38.09375 
L 69.28125 38.09375 
L 69.28125 6.78125 
Q 63.578125 2.734375 56.6875 0.65625 
Q 49.8125 -1.421875 42 -1.421875 
Q 24.90625 -1.421875 15.25 8.5625 
Q 5.609375 18.5625 5.609375 36.375 
Q 5.609375 54.25 15.25 64.234375 
Q 24.90625 74.21875 42 74.21875 
Q 49.125 74.21875 55.546875 72.453125 
Q 61.96875 70.703125 67.390625 67.28125 
L 67.390625 56.78125 
Q 61.921875 61.421875 55.765625 63.765625 
Q 49.609375 66.109375 42.828125 66.109375 
Q 29.4375 66.109375 22.71875 58.640625 
Q 16.015625 51.171875 16.015625 36.375 
Q 16.015625 21.625 22.71875 14.15625 
Q 29.4375 6.6875 42.828125 6.6875 
Q 48.046875 6.6875 52.140625 7.59375 
Q 56.25 8.5 59.515625 10.40625 
z
" id="DejaVuSans-71"/>
      <path d="M 30.609375 48.390625 
Q 23.390625 48.390625 19.1875 42.75 
Q 14.984375 37.109375 14.984375 27.296875 
Q 14.984375 17.484375 19.15625 11.84375 
Q 23.34375 6.203125 30.609375 6.203125 
Q 37.796875 6.203125 41.984375 11.859375 
Q 46.1875 17.53125 46.1875 27.296875 
Q 46.1875 37.015625 41.984375 42.703125 
Q 37.796875 48.390625 30.609375 48.390625 
z
M 30.609375 56 
Q 42.328125 56 49.015625 48.375 
Q 55.71875 40.765625 55.71875 27.296875 
Q 55.71875 13.875 49.015625 6.21875 
Q 42.328125 -1.421875 30.609375 -1.421875 
Q 18.84375 -1.421875 12.171875 6.21875 
Q 5.515625 13.875 5.515625 27.296875 
Q 5.515625 40.765625 12.171875 48.375 
Q 18.84375 56 30.609375 56 
z
" id="DejaVuSans-111"/>
      <path d="M 18.109375 8.203125 
L 18.109375 -20.796875 
L 9.078125 -20.796875 
L 9.078125 54.6875 
L 18.109375 54.6875 
L 18.109375 46.390625 
Q 20.953125 51.265625 25.265625 53.625 
Q 29.59375 56 35.59375 56 
Q 45.5625 56 51.78125 48.09375 
Q 58.015625 40.1875 58.015625 27.296875 
Q 58.015625 14.40625 51.78125 6.484375 
Q 45.5625 -1.421875 35.59375 -1.421875 
Q 29.59375 -1.421875 25.265625 0.953125 
Q 20.953125 3.328125 18.109375 8.203125 
z
M 48.6875 27.296875 
Q 48.6875 37.203125 44.609375 42.84375 
Q 40.53125 48.484375 33.40625 48.484375 
Q 26.265625 48.484375 22.1875 42.84375 
Q 18.109375 37.203125 18.109375 27.296875 
Q 18.109375 17.390625 22.1875 11.75 
Q 26.265625 6.109375 33.40625 6.109375 
Q 40.53125 6.109375 44.609375 11.75 
Q 48.6875 17.390625 48.6875 27.296875 
z
" id="DejaVuSans-112"/>
      <path id="DejaVuSans-32"/>
      <path d="M 34.1875 63.1875 
L 20.796875 26.90625 
L 47.609375 26.90625 
z
M 28.609375 72.90625 
L 39.796875 72.90625 
L 67.578125 0 
L 57.328125 0 
L 50.6875 18.703125 
L 17.828125 18.703125 
L 11.1875 0 
L 0.78125 0 
z
" id="DejaVuSans-65"/>
     </defs>
     <use xlink:href="#DejaVuSans-71"/>
     <use x="77.490234" xlink:href="#DejaVuSans-114"/>
     <use x="116.353516" xlink:href="#DejaVuSans-111"/>
     <use x="177.535156" xlink:href="#DejaVuSans-117"/>
     <use x="240.914062" xlink:href="#DejaVuSans-112"/>
     <use x="304.390625" xlink:href="#DejaVuSans-32"/>
     <use x="336.177734" xlink:href="#DejaVuSans-65"/>
    </g>
   </g>
  </g>
  <g id="axes_2">
   <g id="patch_7">
    <path d="M 254.38125 254.118125 
L 417.18125 254.118125 
L 417.18125 22.318125 
L 254.38125 22.318125 
z
" style="fill:#ffffff;"/>
   </g>
   <g id="PathCollection_2">
    <g clip-path="url(#p940a89069c)">
     <use style="fill:#1f77b4;fill-opacity:0.8;stroke:#1f77b4;stroke-opacity:0.8;" x="254.38125" xlink:href="#m6bb1db23c1" y="178.498363"/>
     <use style="fill:#1f77b4;fill-opacity:0.8;stroke:#1f77b4;stroke-opacity:0.8;" x="266.904327" xlink:href="#m6bb1db23c1" y="178.498363"/>
     <use style="fill:#1f77b4;fill-opacity:0.8;stroke:#1f77b4;stroke-opacity:0.8;" x="379.612019" xlink:href="#m6bb1db23c1" y="113.414965"/>
     <use style="fill:#1f77b4;fill-opacity:0.8;stroke:#1f77b4;stroke-opacity:0.8;" x="342.042788" xlink:href="#m6bb1db23c1" y="113.414965"/>
     <use style="fill:#1f77b4;fill-opacity:0.8;stroke:#1f77b4;stroke-opacity:0.8;" x="316.996635" xlink:href="#m6bb1db23c1" y="113.414965"/>
     <use style="fill:#1f77b4;fill-opacity:0.8;stroke:#1f77b4;stroke-opacity:0.8;" x="379.612019" xlink:href="#m6bb1db23c1" y="113.414965"/>
     <use style="fill:#1f77b4;fill-opacity:0.8;stroke:#1f77b4;stroke-opacity:0.8;" x="316.996635" xlink:href="#m6bb1db23c1" y="113.414965"/>
     <use style="fill:#1f77b4;fill-opacity:0.8;stroke:#1f77b4;stroke-opacity:0.8;" x="342.042788" xlink:href="#m6bb1db23c1" y="178.498363"/>
     <use style="fill:#1f77b4;fill-opacity:0.8;stroke:#1f77b4;stroke-opacity:0.8;" x="342.042788" xlink:href="#m6bb1db23c1" y="48.331567"/>
     <use style="fill:#1f77b4;fill-opacity:0.8;stroke:#1f77b4;stroke-opacity:0.8;" x="367.088942" xlink:href="#m6bb1db23c1" y="113.414965"/>
     <use style="fill:#1f77b4;fill-opacity:0.8;stroke:#1f77b4;stroke-opacity:0.8;" x="342.042788" xlink:href="#m6bb1db23c1" y="113.414965"/>
     <use style="fill:#1f77b4;fill-opacity:0.8;stroke:#1f77b4;stroke-opacity:0.8;" x="379.612019" xlink:href="#m6bb1db23c1" y="113.414965"/>
     <use style="fill:#1f77b4;fill-opacity:0.8;stroke:#1f77b4;stroke-opacity:0.8;" x="342.042788" xlink:href="#m6bb1db23c1" y="113.414965"/>
     <use style="fill:#1f77b4;fill-opacity:0.8;stroke:#1f77b4;stroke-opacity:0.8;" x="392.135096" xlink:href="#m6bb1db23c1" y="113.414965"/>
     <use style="fill:#1f77b4;fill-opacity:0.8;stroke:#1f77b4;stroke-opacity:0.8;" x="354.565865" xlink:href="#m6bb1db23c1" y="113.414965"/>
     <use style="fill:#1f77b4;fill-opacity:0.8;stroke:#1f77b4;stroke-opacity:0.8;" x="392.135096" xlink:href="#m6bb1db23c1" y="48.331567"/>
     <use style="fill:#1f77b4;fill-opacity:0.8;stroke:#1f77b4;stroke-opacity:0.8;" x="354.565865" xlink:href="#m6bb1db23c1" y="113.414965"/>
     <use style="fill:#1f77b4;fill-opacity:0.8;stroke:#1f77b4;stroke-opacity:0.8;" x="316.996635" xlink:href="#m6bb1db23c1" y="48.331567"/>
     <use style="fill:#1f77b4;fill-opacity:0.8;stroke:#1f77b4;stroke-opacity:0.8;" x="367.088942" xlink:href="#m6bb1db23c1" y="48.331567"/>
     <use style="fill:#1f77b4;fill-opacity:0.8;stroke:#1f77b4;stroke-opacity:0.8;" x="279.427404" xlink:href="#m6bb1db23c1" y="178.498363"/>
     <use style="fill:#1f77b4;fill-opacity:0.8;stroke:#1f77b4;stroke-opacity:0.8;" x="417.18125" xlink:href="#m6bb1db23c1" y="113.414965"/>
     <use style="fill:#1f77b4;fill-opacity:0.8;stroke:#1f77b4;stroke-opacity:0.8;" x="316.996635" xlink:href="#m6bb1db23c1" y="243.581761"/>
     <use style="fill:#1f77b4;fill-opacity:0.8;stroke:#1f77b4;stroke-opacity:0.8;" x="367.088942" xlink:href="#m6bb1db23c1" y="48.331567"/>
     <use style="fill:#1f77b4;fill-opacity:0.8;stroke:#1f77b4;stroke-opacity:0.8;" x="379.612019" xlink:href="#m6bb1db23c1" y="48.331567"/>
     <use style="fill:#1f77b4;fill-opacity:0.8;stroke:#1f77b4;stroke-opacity:0.8;" x="379.612019" xlink:href="#m6bb1db23c1" y="113.414965"/>
     <use style="fill:#1f77b4;fill-opacity:0.8;stroke:#1f77b4;stroke-opacity:0.8;" x="316.996635" xlink:href="#m6bb1db23c1" y="113.414965"/>
     <use style="fill:#1f77b4;fill-opacity:0.8;stroke:#1f77b4;stroke-opacity:0.8;" x="316.996635" xlink:href="#m6bb1db23c1" y="48.331567"/>
     <use style="fill:#1f77b4;fill-opacity:0.8;stroke:#1f77b4;stroke-opacity:0.8;" x="316.996635" xlink:href="#m6bb1db23c1" y="48.331567"/>
     <use style="fill:#1f77b4;fill-opacity:0.8;stroke:#1f77b4;stroke-opacity:0.8;" x="379.612019" xlink:href="#m6bb1db23c1" y="48.331567"/>
     <use style="fill:#1f77b4;fill-opacity:0.8;stroke:#1f77b4;stroke-opacity:0.8;" x="379.612019" xlink:href="#m6bb1db23c1" y="48.331567"/>
     <use style="fill:#1f77b4;fill-opacity:0.8;stroke:#1f77b4;stroke-opacity:0.8;" x="254.38125" xlink:href="#m6bb1db23c1" y="113.414965"/>
     <use style="fill:#1f77b4;fill-opacity:0.8;stroke:#1f77b4;stroke-opacity:0.8;" x="329.519712" xlink:href="#m6bb1db23c1" y="113.414965"/>
     <use style="fill:#1f77b4;fill-opacity:0.8;stroke:#1f77b4;stroke-opacity:0.8;" x="354.565865" xlink:href="#m6bb1db23c1" y="48.331567"/>
     <use style="fill:#1f77b4;fill-opacity:0.8;stroke:#1f77b4;stroke-opacity:0.8;" x="316.996635" xlink:href="#m6bb1db23c1" y="113.414965"/>
     <use style="fill:#1f77b4;fill-opacity:0.8;stroke:#1f77b4;stroke-opacity:0.8;" x="342.042788" xlink:href="#m6bb1db23c1" y="113.414965"/>
     <use style="fill:#1f77b4;fill-opacity:0.8;stroke:#1f77b4;stroke-opacity:0.8;" x="329.519712" xlink:href="#m6bb1db23c1" y="178.498363"/>
     <use style="fill:#1f77b4;fill-opacity:0.8;stroke:#1f77b4;stroke-opacity:0.8;" x="316.996635" xlink:href="#m6bb1db23c1" y="113.414965"/>
     <use style="fill:#1f77b4;fill-opacity:0.8;stroke:#1f77b4;stroke-opacity:0.8;" x="367.088942" xlink:href="#m6bb1db23c1" y="48.331567"/>
     <use style="fill:#1f77b4;fill-opacity:0.8;stroke:#1f77b4;stroke-opacity:0.8;" x="316.996635" xlink:href="#m6bb1db23c1" y="113.414965"/>
     <use style="fill:#1f77b4;fill-opacity:0.8;stroke:#1f77b4;stroke-opacity:0.8;" x="316.996635" xlink:href="#m6bb1db23c1" y="48.331567"/>
     <use style="fill:#1f77b4;fill-opacity:0.8;stroke:#1f77b4;stroke-opacity:0.8;" x="316.996635" xlink:href="#m6bb1db23c1" y="48.331567"/>
     <use style="fill:#1f77b4;fill-opacity:0.8;stroke:#1f77b4;stroke-opacity:0.8;" x="379.612019" xlink:href="#m6bb1db23c1" y="48.331567"/>
    </g>
   </g>
   <g id="PolyCollection_2">
    <path clip-path="url(#p940a89069c)" d="M 254.38125 109.43794 
L 254.38125 181.326913 
L 256.025694 179.906152 
L 257.670139 178.484306 
L 259.314583 176.996655 
L 260.959028 175.593945 
L 262.603472 174.188806 
L 264.247917 172.808537 
L 265.892361 171.39387 
L 267.536806 170.015239 
L 269.18125 168.723805 
L 270.825694 167.472096 
L 272.470139 166.067751 
L 274.114583 164.954091 
L 275.759028 163.720375 
L 277.403472 162.30523 
L 279.047917 161.069914 
L 280.692361 159.829573 
L 282.336806 158.298618 
L 283.98125 156.75552 
L 285.625694 155.51996 
L 287.270139 154.23176 
L 288.914583 152.856792 
L 290.559028 151.611501 
L 292.203472 150.270183 
L 293.847917 148.846294 
L 295.492361 147.697202 
L 297.136806 146.565032 
L 298.78125 145.281821 
L 300.425694 144.1174 
L 302.070139 142.66168 
L 303.714583 141.205961 
L 305.359028 139.745789 
L 307.003472 138.280803 
L 308.647917 136.977659 
L 310.292361 135.782505 
L 311.936806 134.704613 
L 313.58125 133.517905 
L 315.225694 132.707753 
L 316.870139 131.468439 
L 318.514583 129.946992 
L 320.159028 128.48277 
L 321.803472 127.058606 
L 323.447917 126.064234 
L 325.092361 125.06789 
L 326.736806 124.080676 
L 328.38125 122.890563 
L 330.025694 121.813043 
L 331.670139 120.414852 
L 333.314583 119.268508 
L 334.959028 118.089374 
L 336.603472 116.858369 
L 338.247917 116.081502 
L 339.892361 115.309212 
L 341.536806 114.241285 
L 343.18125 113.645669 
L 344.825694 113.053164 
L 346.470139 112.208578 
L 348.114583 111.269514 
L 349.759028 110.07777 
L 351.403472 109.29986 
L 353.047917 108.532205 
L 354.692361 107.725644 
L 356.336806 106.71079 
L 357.98125 106.064788 
L 359.625694 105.434223 
L 361.270139 104.717158 
L 362.914583 104.020378 
L 364.559028 103.386164 
L 366.203472 102.572077 
L 367.847917 101.684367 
L 369.492361 101.113525 
L 371.136806 100.468505 
L 372.78125 99.981702 
L 374.425694 99.569464 
L 376.070139 98.891 
L 377.714583 98.147261 
L 379.359028 97.656815 
L 381.003472 97.227163 
L 382.647917 96.66556 
L 384.292361 96.099163 
L 385.936806 95.470567 
L 387.58125 95.01618 
L 389.225694 94.405408 
L 390.870139 93.985578 
L 392.514583 93.62277 
L 394.159028 93.204424 
L 395.803472 92.59199 
L 397.447917 92.225663 
L 399.092361 91.654607 
L 400.736806 90.994371 
L 402.38125 90.349127 
L 404.025694 89.931542 
L 405.670139 89.71224 
L 407.314583 89.492938 
L 408.959028 89.132404 
L 410.603472 88.685562 
L 412.247917 88.234806 
L 413.892361 87.779296 
L 415.536806 87.47276 
L 417.18125 86.868276 
L 417.18125 32.854489 
L 417.18125 32.854489 
L 415.536806 34.168403 
L 413.892361 35.482318 
L 412.247917 36.801283 
L 410.603472 38.186403 
L 408.959028 39.632686 
L 407.314583 40.860614 
L 405.670139 42.370217 
L 404.025694 43.910711 
L 402.38125 45.455468 
L 400.736806 47.000225 
L 399.092361 48.546361 
L 397.447917 50.205827 
L 395.803472 51.638622 
L 394.159028 53.199277 
L 392.514583 54.809796 
L 390.870139 56.173964 
L 389.225694 57.429255 
L 387.58125 58.6592 
L 385.936806 59.755655 
L 384.292361 60.949001 
L 382.647917 62.423736 
L 381.003472 63.862626 
L 379.359028 65.098029 
L 377.714583 66.215712 
L 376.070139 67.434102 
L 374.425694 68.539943 
L 372.78125 69.648861 
L 371.136806 70.68418 
L 369.492361 71.716175 
L 367.847917 72.856021 
L 366.203472 73.790414 
L 364.559028 74.983202 
L 362.914583 75.859916 
L 361.270139 76.853276 
L 359.625694 77.945513 
L 357.98125 78.807619 
L 356.336806 79.697259 
L 354.692361 80.38823 
L 353.047917 81.402895 
L 351.403472 82.18089 
L 349.759028 83.106392 
L 348.114583 84.02079 
L 346.470139 84.979738 
L 344.825694 85.568334 
L 343.18125 86.225908 
L 341.536806 86.815611 
L 339.892361 87.586741 
L 338.247917 88.423622 
L 336.603472 89.169787 
L 334.959028 90.062811 
L 333.314583 90.72406 
L 331.670139 91.382557 
L 330.025694 91.731441 
L 328.38125 92.332444 
L 326.736806 93.187627 
L 325.092361 93.711494 
L 323.447917 94.235361 
L 321.803472 94.759228 
L 320.159028 95.474475 
L 318.514583 95.846138 
L 316.870139 96.314759 
L 315.225694 96.781124 
L 313.58125 97.15069 
L 311.936806 97.195931 
L 310.292361 97.455625 
L 308.647917 98.157105 
L 307.003472 98.913237 
L 305.359028 99.191222 
L 303.714583 99.136381 
L 302.070139 99.081541 
L 300.425694 99.536827 
L 298.78125 100.171843 
L 297.136806 100.390334 
L 295.492361 100.608826 
L 293.847917 100.827317 
L 292.203472 101.045809 
L 290.559028 101.293424 
L 288.914583 101.732706 
L 287.270139 102.171988 
L 285.625694 102.61127 
L 283.98125 103.052212 
L 282.336806 103.497465 
L 280.692361 103.942718 
L 279.047917 104.387971 
L 277.403472 104.862915 
L 275.759028 105.420517 
L 274.114583 105.931355 
L 272.470139 106.156379 
L 270.825694 106.590228 
L 269.18125 107.027311 
L 267.536806 107.458886 
L 265.892361 107.712605 
L 264.247917 108.036676 
L 262.603472 108.261012 
L 260.959028 108.475145 
L 259.314583 108.702262 
L 257.670139 108.947488 
L 256.025694 109.192714 
L 254.38125 109.43794 
z
" style="fill:#1f77b4;fill-opacity:0.15;"/>
   </g>
   <g id="matplotlib.axis_3">
    <g id="xtick_4">
     <g id="line2d_13">
      <g>
       <use style="stroke:#000000;stroke-width:0.8;" x="291.950481" xlink:href="#m1c09da8f7f" y="254.118125"/>
      </g>
     </g>
     <g id="text_15">
      <!-- 2 -->
      <g transform="translate(288.769231 268.716562)scale(0.1 -0.1)">
       <use xlink:href="#DejaVuSans-50"/>
      </g>
     </g>
    </g>
    <g id="xtick_5">
     <g id="line2d_14">
      <g>
       <use style="stroke:#000000;stroke-width:0.8;" x="342.042788" xlink:href="#m1c09da8f7f" y="254.118125"/>
      </g>
     </g>
     <g id="text_16">
      <!-- 3 -->
      <g transform="translate(338.861538 268.716562)scale(0.1 -0.1)">
       <use xlink:href="#DejaVuSans-51"/>
      </g>
     </g>
    </g>
    <g id="xtick_6">
     <g id="line2d_15">
      <g>
       <use style="stroke:#000000;stroke-width:0.8;" x="392.135096" xlink:href="#m1c09da8f7f" y="254.118125"/>
      </g>
     </g>
     <g id="text_17">
      <!-- 4 -->
      <g transform="translate(388.953846 268.716562)scale(0.1 -0.1)">
       <use xlink:href="#DejaVuSans-52"/>
      </g>
     </g>
    </g>
    <g id="text_18">
     <!-- E -->
     <g transform="translate(332.621875 282.394687)scale(0.1 -0.1)">
      <use xlink:href="#DejaVuSans-69"/>
     </g>
    </g>
   </g>
   <g id="matplotlib.axis_4">
    <g id="ytick_9">
     <g id="line2d_16">
      <g>
       <use style="stroke:#000000;stroke-width:0.8;" x="254.38125" xlink:href="#md9d89a375d" y="243.581761"/>
      </g>
     </g>
     <g id="text_19">
      <!-- 2.0 -->
      <g transform="translate(231.478125 247.38098)scale(0.1 -0.1)">
       <use xlink:href="#DejaVuSans-50"/>
       <use x="63.623047" xlink:href="#DejaVuSans-46"/>
       <use x="95.410156" xlink:href="#DejaVuSans-48"/>
      </g>
     </g>
    </g>
    <g id="ytick_10">
     <g id="line2d_17">
      <g>
       <use style="stroke:#000000;stroke-width:0.8;" x="254.38125" xlink:href="#md9d89a375d" y="211.040062"/>
      </g>
     </g>
     <g id="text_20">
      <!-- 2.5 -->
      <g transform="translate(231.478125 214.839281)scale(0.1 -0.1)">
       <use xlink:href="#DejaVuSans-50"/>
       <use x="63.623047" xlink:href="#DejaVuSans-46"/>
       <use x="95.410156" xlink:href="#DejaVuSans-53"/>
      </g>
     </g>
    </g>
    <g id="ytick_11">
     <g id="line2d_18">
      <g>
       <use style="stroke:#000000;stroke-width:0.8;" x="254.38125" xlink:href="#md9d89a375d" y="178.498363"/>
      </g>
     </g>
     <g id="text_21">
      <!-- 3.0 -->
      <g transform="translate(231.478125 182.297582)scale(0.1 -0.1)">
       <use xlink:href="#DejaVuSans-51"/>
       <use x="63.623047" xlink:href="#DejaVuSans-46"/>
       <use x="95.410156" xlink:href="#DejaVuSans-48"/>
      </g>
     </g>
    </g>
    <g id="ytick_12">
     <g id="line2d_19">
      <g>
       <use style="stroke:#000000;stroke-width:0.8;" x="254.38125" xlink:href="#md9d89a375d" y="145.956664"/>
      </g>
     </g>
     <g id="text_22">
      <!-- 3.5 -->
      <g transform="translate(231.478125 149.755883)scale(0.1 -0.1)">
       <use xlink:href="#DejaVuSans-51"/>
       <use x="63.623047" xlink:href="#DejaVuSans-46"/>
       <use x="95.410156" xlink:href="#DejaVuSans-53"/>
      </g>
     </g>
    </g>
    <g id="ytick_13">
     <g id="line2d_20">
      <g>
       <use style="stroke:#000000;stroke-width:0.8;" x="254.38125" xlink:href="#md9d89a375d" y="113.414965"/>
      </g>
     </g>
     <g id="text_23">
      <!-- 4.0 -->
      <g transform="translate(231.478125 117.214184)scale(0.1 -0.1)">
       <use xlink:href="#DejaVuSans-52"/>
       <use x="63.623047" xlink:href="#DejaVuSans-46"/>
       <use x="95.410156" xlink:href="#DejaVuSans-48"/>
      </g>
     </g>
    </g>
    <g id="ytick_14">
     <g id="line2d_21">
      <g>
       <use style="stroke:#000000;stroke-width:0.8;" x="254.38125" xlink:href="#md9d89a375d" y="80.873266"/>
      </g>
     </g>
     <g id="text_24">
      <!-- 4.5 -->
      <g transform="translate(231.478125 84.672485)scale(0.1 -0.1)">
       <use xlink:href="#DejaVuSans-52"/>
       <use x="63.623047" xlink:href="#DejaVuSans-46"/>
       <use x="95.410156" xlink:href="#DejaVuSans-53"/>
      </g>
     </g>
    </g>
    <g id="ytick_15">
     <g id="line2d_22">
      <g>
       <use style="stroke:#000000;stroke-width:0.8;" x="254.38125" xlink:href="#md9d89a375d" y="48.331567"/>
      </g>
     </g>
     <g id="text_25">
      <!-- 5.0 -->
      <g transform="translate(231.478125 52.130785)scale(0.1 -0.1)">
       <use xlink:href="#DejaVuSans-53"/>
       <use x="63.623047" xlink:href="#DejaVuSans-46"/>
       <use x="95.410156" xlink:href="#DejaVuSans-48"/>
      </g>
     </g>
    </g>
    <g id="text_26">
     <!-- Trust2 -->
     <g transform="translate(225.398437 153.504844)rotate(-90)scale(0.1 -0.1)">
      <use xlink:href="#DejaVuSans-84"/>
      <use x="46.333984" xlink:href="#DejaVuSans-114"/>
      <use x="87.447266" xlink:href="#DejaVuSans-117"/>
      <use x="150.826172" xlink:href="#DejaVuSans-115"/>
      <use x="202.925781" xlink:href="#DejaVuSans-116"/>
      <use x="242.134766" xlink:href="#DejaVuSans-50"/>
     </g>
    </g>
   </g>
   <g id="line2d_23">
    <path clip-path="url(#p940a89069c)" d="M 254.38125 145.762913 
L 256.025694 144.917796 
L 257.670139 144.072679 
L 259.314583 143.227561 
L 260.959028 142.382444 
L 262.603472 141.537326 
L 264.247917 140.692209 
L 265.892361 139.847092 
L 267.536806 139.001974 
L 269.18125 138.156857 
L 270.825694 137.311739 
L 272.470139 136.466622 
L 274.114583 135.621505 
L 275.759028 134.776387 
L 277.403472 133.93127 
L 279.047917 133.086153 
L 280.692361 132.241035 
L 282.336806 131.395918 
L 283.98125 130.5508 
L 285.625694 129.705683 
L 287.270139 128.860566 
L 288.914583 128.015448 
L 290.559028 127.170331 
L 292.203472 126.325214 
L 293.847917 125.480096 
L 295.492361 124.634979 
L 297.136806 123.789861 
L 298.78125 122.944744 
L 300.425694 122.099627 
L 302.070139 121.254509 
L 303.714583 120.409392 
L 305.359028 119.564275 
L 307.003472 118.719157 
L 308.647917 117.87404 
L 310.292361 117.028922 
L 311.936806 116.183805 
L 313.58125 115.338688 
L 315.225694 114.49357 
L 316.870139 113.648453 
L 318.514583 112.803335 
L 320.159028 111.958218 
L 321.803472 111.113101 
L 323.447917 110.267983 
L 325.092361 109.422866 
L 326.736806 108.577749 
L 328.38125 107.732631 
L 330.025694 106.887514 
L 331.670139 106.042396 
L 333.314583 105.197279 
L 334.959028 104.352162 
L 336.603472 103.507044 
L 338.247917 102.661927 
L 339.892361 101.81681 
L 341.536806 100.971692 
L 343.18125 100.126575 
L 344.825694 99.281457 
L 346.470139 98.43634 
L 348.114583 97.591223 
L 349.759028 96.746105 
L 351.403472 95.900988 
L 353.047917 95.05587 
L 354.692361 94.210753 
L 356.336806 93.365636 
L 357.98125 92.520518 
L 359.625694 91.675401 
L 361.270139 90.830284 
L 362.914583 89.985166 
L 364.559028 89.140049 
L 366.203472 88.294931 
L 367.847917 87.449814 
L 369.492361 86.604697 
L 371.136806 85.759579 
L 372.78125 84.914462 
L 374.425694 84.069345 
L 376.070139 83.224227 
L 377.714583 82.37911 
L 379.359028 81.533992 
L 381.003472 80.688875 
L 382.647917 79.843758 
L 384.292361 78.99864 
L 385.936806 78.153523 
L 387.58125 77.308405 
L 389.225694 76.463288 
L 390.870139 75.618171 
L 392.514583 74.773053 
L 394.159028 73.927936 
L 395.803472 73.082819 
L 397.447917 72.237701 
L 399.092361 71.392584 
L 400.736806 70.547466 
L 402.38125 69.702349 
L 404.025694 68.857232 
L 405.670139 68.012114 
L 407.314583 67.166997 
L 408.959028 66.32188 
L 410.603472 65.476762 
L 412.247917 64.631645 
L 413.892361 63.786527 
L 415.536806 62.94141 
L 417.18125 62.096293 
" style="fill:none;stroke:#1f77b4;stroke-linecap:square;stroke-width:2.25;"/>
   </g>
   <g id="patch_8">
    <path d="M 254.38125 254.118125 
L 254.38125 22.318125 
" style="fill:none;stroke:#000000;stroke-linecap:square;stroke-linejoin:miter;stroke-width:0.8;"/>
   </g>
   <g id="patch_9">
    <path d="M 417.18125 254.118125 
L 417.18125 22.318125 
" style="fill:none;stroke:#000000;stroke-linecap:square;stroke-linejoin:miter;stroke-width:0.8;"/>
   </g>
   <g id="patch_10">
    <path d="M 254.38125 254.118125 
L 417.18125 254.118125 
" style="fill:none;stroke:#000000;stroke-linecap:square;stroke-linejoin:miter;stroke-width:0.8;"/>
   </g>
   <g id="patch_11">
    <path d="M 254.38125 22.318125 
L 417.18125 22.318125 
" style="fill:none;stroke:#000000;stroke-linecap:square;stroke-linejoin:miter;stroke-width:0.8;"/>
   </g>
   <g id="text_27">
    <!-- Group B -->
    <g transform="translate(254.38125 16.318125)scale(0.12 -0.12)">
     <defs>
      <path d="M 19.671875 34.8125 
L 19.671875 8.109375 
L 35.5 8.109375 
Q 43.453125 8.109375 47.28125 11.40625 
Q 51.125 14.703125 51.125 21.484375 
Q 51.125 28.328125 47.28125 31.5625 
Q 43.453125 34.8125 35.5 34.8125 
z
M 19.671875 64.796875 
L 19.671875 42.828125 
L 34.28125 42.828125 
Q 41.5 42.828125 45.03125 45.53125 
Q 48.578125 48.25 48.578125 53.8125 
Q 48.578125 59.328125 45.03125 62.0625 
Q 41.5 64.796875 34.28125 64.796875 
z
M 9.8125 72.90625 
L 35.015625 72.90625 
Q 46.296875 72.90625 52.390625 68.21875 
Q 58.5 63.53125 58.5 54.890625 
Q 58.5 48.1875 55.375 44.234375 
Q 52.25 40.28125 46.1875 39.3125 
Q 53.46875 37.75 57.5 32.78125 
Q 61.53125 27.828125 61.53125 20.40625 
Q 61.53125 10.640625 54.890625 5.3125 
Q 48.25 0 35.984375 0 
L 9.8125 0 
z
" id="DejaVuSans-66"/>
     </defs>
     <use xlink:href="#DejaVuSans-71"/>
     <use x="77.490234" xlink:href="#DejaVuSans-114"/>
     <use x="116.353516" xlink:href="#DejaVuSans-111"/>
     <use x="177.535156" xlink:href="#DejaVuSans-117"/>
     <use x="240.914062" xlink:href="#DejaVuSans-112"/>
     <use x="304.390625" xlink:href="#DejaVuSans-32"/>
     <use x="336.177734" xlink:href="#DejaVuSans-66"/>
    </g>
   </g>
  </g>
  <g id="text_28">
   <!-- The bike chatbot made me feel good. -->
   <g transform="translate(99.404375 22.79625)scale(0.12 -0.12)">
    <defs>
     <path d="M 54.890625 33.015625 
L 54.890625 0 
L 45.90625 0 
L 45.90625 32.71875 
Q 45.90625 40.484375 42.875 44.328125 
Q 39.84375 48.1875 33.796875 48.1875 
Q 26.515625 48.1875 22.3125 43.546875 
Q 18.109375 38.921875 18.109375 30.90625 
L 18.109375 0 
L 9.078125 0 
L 9.078125 75.984375 
L 18.109375 75.984375 
L 18.109375 46.1875 
Q 21.34375 51.125 25.703125 53.5625 
Q 30.078125 56 35.796875 56 
Q 45.21875 56 50.046875 50.171875 
Q 54.890625 44.34375 54.890625 33.015625 
z
" id="DejaVuSans-104"/>
     <path d="M 56.203125 29.59375 
L 56.203125 25.203125 
L 14.890625 25.203125 
Q 15.484375 15.921875 20.484375 11.0625 
Q 25.484375 6.203125 34.421875 6.203125 
Q 39.59375 6.203125 44.453125 7.46875 
Q 49.3125 8.734375 54.109375 11.28125 
L 54.109375 2.78125 
Q 49.265625 0.734375 44.1875 -0.34375 
Q 39.109375 -1.421875 33.890625 -1.421875 
Q 20.796875 -1.421875 13.15625 6.1875 
Q 5.515625 13.8125 5.515625 26.8125 
Q 5.515625 40.234375 12.765625 48.109375 
Q 20.015625 56 32.328125 56 
Q 43.359375 56 49.78125 48.890625 
Q 56.203125 41.796875 56.203125 29.59375 
z
M 47.21875 32.234375 
Q 47.125 39.59375 43.09375 43.984375 
Q 39.0625 48.390625 32.421875 48.390625 
Q 24.90625 48.390625 20.390625 44.140625 
Q 15.875 39.890625 15.1875 32.171875 
z
" id="DejaVuSans-101"/>
     <path d="M 48.6875 27.296875 
Q 48.6875 37.203125 44.609375 42.84375 
Q 40.53125 48.484375 33.40625 48.484375 
Q 26.265625 48.484375 22.1875 42.84375 
Q 18.109375 37.203125 18.109375 27.296875 
Q 18.109375 17.390625 22.1875 11.75 
Q 26.265625 6.109375 33.40625 6.109375 
Q 40.53125 6.109375 44.609375 11.75 
Q 48.6875 17.390625 48.6875 27.296875 
z
M 18.109375 46.390625 
Q 20.953125 51.265625 25.265625 53.625 
Q 29.59375 56 35.59375 56 
Q 45.5625 56 51.78125 48.09375 
Q 58.015625 40.1875 58.015625 27.296875 
Q 58.015625 14.40625 51.78125 6.484375 
Q 45.5625 -1.421875 35.59375 -1.421875 
Q 29.59375 -1.421875 25.265625 0.953125 
Q 20.953125 3.328125 18.109375 8.203125 
L 18.109375 0 
L 9.078125 0 
L 9.078125 75.984375 
L 18.109375 75.984375 
z
" id="DejaVuSans-98"/>
     <path d="M 9.421875 54.6875 
L 18.40625 54.6875 
L 18.40625 0 
L 9.421875 0 
z
M 9.421875 75.984375 
L 18.40625 75.984375 
L 18.40625 64.59375 
L 9.421875 64.59375 
z
" id="DejaVuSans-105"/>
     <path d="M 9.078125 75.984375 
L 18.109375 75.984375 
L 18.109375 31.109375 
L 44.921875 54.6875 
L 56.390625 54.6875 
L 27.390625 29.109375 
L 57.625 0 
L 45.90625 0 
L 18.109375 26.703125 
L 18.109375 0 
L 9.078125 0 
z
" id="DejaVuSans-107"/>
     <path d="M 48.78125 52.59375 
L 48.78125 44.1875 
Q 44.96875 46.296875 41.140625 47.34375 
Q 37.3125 48.390625 33.40625 48.390625 
Q 24.65625 48.390625 19.8125 42.84375 
Q 14.984375 37.3125 14.984375 27.296875 
Q 14.984375 17.28125 19.8125 11.734375 
Q 24.65625 6.203125 33.40625 6.203125 
Q 37.3125 6.203125 41.140625 7.25 
Q 44.96875 8.296875 48.78125 10.40625 
L 48.78125 2.09375 
Q 45.015625 0.34375 40.984375 -0.53125 
Q 36.96875 -1.421875 32.421875 -1.421875 
Q 20.0625 -1.421875 12.78125 6.34375 
Q 5.515625 14.109375 5.515625 27.296875 
Q 5.515625 40.671875 12.859375 48.328125 
Q 20.21875 56 33.015625 56 
Q 37.15625 56 41.109375 55.140625 
Q 45.0625 54.296875 48.78125 52.59375 
z
" id="DejaVuSans-99"/>
     <path d="M 34.28125 27.484375 
Q 23.390625 27.484375 19.1875 25 
Q 14.984375 22.515625 14.984375 16.5 
Q 14.984375 11.71875 18.140625 8.90625 
Q 21.296875 6.109375 26.703125 6.109375 
Q 34.1875 6.109375 38.703125 11.40625 
Q 43.21875 16.703125 43.21875 25.484375 
L 43.21875 27.484375 
z
M 52.203125 31.203125 
L 52.203125 0 
L 43.21875 0 
L 43.21875 8.296875 
Q 40.140625 3.328125 35.546875 0.953125 
Q 30.953125 -1.421875 24.3125 -1.421875 
Q 15.921875 -1.421875 10.953125 3.296875 
Q 6 8.015625 6 15.921875 
Q 6 25.140625 12.171875 29.828125 
Q 18.359375 34.515625 30.609375 34.515625 
L 43.21875 34.515625 
L 43.21875 35.40625 
Q 43.21875 41.609375 39.140625 45 
Q 35.0625 48.390625 27.6875 48.390625 
Q 23 48.390625 18.546875 47.265625 
Q 14.109375 46.140625 10.015625 43.890625 
L 10.015625 52.203125 
Q 14.9375 54.109375 19.578125 55.046875 
Q 24.21875 56 28.609375 56 
Q 40.484375 56 46.34375 49.84375 
Q 52.203125 43.703125 52.203125 31.203125 
z
" id="DejaVuSans-97"/>
     <path d="M 52 44.1875 
Q 55.375 50.25 60.0625 53.125 
Q 64.75 56 71.09375 56 
Q 79.640625 56 84.28125 50.015625 
Q 88.921875 44.046875 88.921875 33.015625 
L 88.921875 0 
L 79.890625 0 
L 79.890625 32.71875 
Q 79.890625 40.578125 77.09375 44.375 
Q 74.3125 48.1875 68.609375 48.1875 
Q 61.625 48.1875 57.5625 43.546875 
Q 53.515625 38.921875 53.515625 30.90625 
L 53.515625 0 
L 44.484375 0 
L 44.484375 32.71875 
Q 44.484375 40.625 41.703125 44.40625 
Q 38.921875 48.1875 33.109375 48.1875 
Q 26.21875 48.1875 22.15625 43.53125 
Q 18.109375 38.875 18.109375 30.90625 
L 18.109375 0 
L 9.078125 0 
L 9.078125 54.6875 
L 18.109375 54.6875 
L 18.109375 46.1875 
Q 21.1875 51.21875 25.484375 53.609375 
Q 29.78125 56 35.6875 56 
Q 41.65625 56 45.828125 52.96875 
Q 50 49.953125 52 44.1875 
z
" id="DejaVuSans-109"/>
     <path d="M 45.40625 46.390625 
L 45.40625 75.984375 
L 54.390625 75.984375 
L 54.390625 0 
L 45.40625 0 
L 45.40625 8.203125 
Q 42.578125 3.328125 38.25 0.953125 
Q 33.9375 -1.421875 27.875 -1.421875 
Q 17.96875 -1.421875 11.734375 6.484375 
Q 5.515625 14.40625 5.515625 27.296875 
Q 5.515625 40.1875 11.734375 48.09375 
Q 17.96875 56 27.875 56 
Q 33.9375 56 38.25 53.625 
Q 42.578125 51.265625 45.40625 46.390625 
z
M 14.796875 27.296875 
Q 14.796875 17.390625 18.875 11.75 
Q 22.953125 6.109375 30.078125 6.109375 
Q 37.203125 6.109375 41.296875 11.75 
Q 45.40625 17.390625 45.40625 27.296875 
Q 45.40625 37.203125 41.296875 42.84375 
Q 37.203125 48.484375 30.078125 48.484375 
Q 22.953125 48.484375 18.875 42.84375 
Q 14.796875 37.203125 14.796875 27.296875 
z
" id="DejaVuSans-100"/>
     <path d="M 37.109375 75.984375 
L 37.109375 68.5 
L 28.515625 68.5 
Q 23.6875 68.5 21.796875 66.546875 
Q 19.921875 64.59375 19.921875 59.515625 
L 19.921875 54.6875 
L 34.71875 54.6875 
L 34.71875 47.703125 
L 19.921875 47.703125 
L 19.921875 0 
L 10.890625 0 
L 10.890625 47.703125 
L 2.296875 47.703125 
L 2.296875 54.6875 
L 10.890625 54.6875 
L 10.890625 58.5 
Q 10.890625 67.625 15.140625 71.796875 
Q 19.390625 75.984375 28.609375 75.984375 
z
" id="DejaVuSans-102"/>
     <path d="M 9.421875 75.984375 
L 18.40625 75.984375 
L 18.40625 0 
L 9.421875 0 
z
" id="DejaVuSans-108"/>
     <path d="M 45.40625 27.984375 
Q 45.40625 37.75 41.375 43.109375 
Q 37.359375 48.484375 30.078125 48.484375 
Q 22.859375 48.484375 18.828125 43.109375 
Q 14.796875 37.75 14.796875 27.984375 
Q 14.796875 18.265625 18.828125 12.890625 
Q 22.859375 7.515625 30.078125 7.515625 
Q 37.359375 7.515625 41.375 12.890625 
Q 45.40625 18.265625 45.40625 27.984375 
z
M 54.390625 6.78125 
Q 54.390625 -7.171875 48.1875 -13.984375 
Q 42 -20.796875 29.203125 -20.796875 
Q 24.46875 -20.796875 20.265625 -20.09375 
Q 16.0625 -19.390625 12.109375 -17.921875 
L 12.109375 -9.1875 
Q 16.0625 -11.328125 19.921875 -12.34375 
Q 23.78125 -13.375 27.78125 -13.375 
Q 36.625 -13.375 41.015625 -8.765625 
Q 45.40625 -4.15625 45.40625 5.171875 
L 45.40625 9.625 
Q 42.625 4.78125 38.28125 2.390625 
Q 33.9375 0 27.875 0 
Q 17.828125 0 11.671875 7.65625 
Q 5.515625 15.328125 5.515625 27.984375 
Q 5.515625 40.671875 11.671875 48.328125 
Q 17.828125 56 27.875 56 
Q 33.9375 56 38.28125 53.609375 
Q 42.625 51.21875 45.40625 46.390625 
L 45.40625 54.6875 
L 54.390625 54.6875 
z
" id="DejaVuSans-103"/>
    </defs>
    <use xlink:href="#DejaVuSans-84"/>
    <use x="61.083984" xlink:href="#DejaVuSans-104"/>
    <use x="124.462891" xlink:href="#DejaVuSans-101"/>
    <use x="185.986328" xlink:href="#DejaVuSans-32"/>
    <use x="217.773438" xlink:href="#DejaVuSans-98"/>
    <use x="281.25" xlink:href="#DejaVuSans-105"/>
    <use x="309.033203" xlink:href="#DejaVuSans-107"/>
    <use x="363.318359" xlink:href="#DejaVuSans-101"/>
    <use x="424.841797" xlink:href="#DejaVuSans-32"/>
    <use x="456.628906" xlink:href="#DejaVuSans-99"/>
    <use x="511.609375" xlink:href="#DejaVuSans-104"/>
    <use x="574.988281" xlink:href="#DejaVuSans-97"/>
    <use x="636.267578" xlink:href="#DejaVuSans-116"/>
    <use x="675.476562" xlink:href="#DejaVuSans-98"/>
    <use x="738.953125" xlink:href="#DejaVuSans-111"/>
    <use x="800.134766" xlink:href="#DejaVuSans-116"/>
    <use x="839.34375" xlink:href="#DejaVuSans-32"/>
    <use x="871.130859" xlink:href="#DejaVuSans-109"/>
    <use x="968.542969" xlink:href="#DejaVuSans-97"/>
    <use x="1029.822266" xlink:href="#DejaVuSans-100"/>
    <use x="1093.298828" xlink:href="#DejaVuSans-101"/>
    <use x="1154.822266" xlink:href="#DejaVuSans-32"/>
    <use x="1186.609375" xlink:href="#DejaVuSans-109"/>
    <use x="1284.021484" xlink:href="#DejaVuSans-101"/>
    <use x="1345.544922" xlink:href="#DejaVuSans-32"/>
    <use x="1377.332031" xlink:href="#DejaVuSans-102"/>
    <use x="1412.537109" xlink:href="#DejaVuSans-101"/>
    <use x="1474.060547" xlink:href="#DejaVuSans-101"/>
    <use x="1535.583984" xlink:href="#DejaVuSans-108"/>
    <use x="1563.367188" xlink:href="#DejaVuSans-32"/>
    <use x="1595.154297" xlink:href="#DejaVuSans-103"/>
    <use x="1658.630859" xlink:href="#DejaVuSans-111"/>
    <use x="1719.8125" xlink:href="#DejaVuSans-111"/>
    <use x="1780.994141" xlink:href="#DejaVuSans-100"/>
    <use x="1844.470703" xlink:href="#DejaVuSans-46"/>
   </g>
  </g>
 </g>
 <defs>
  <clipPath id="pf72e108dcf">
   <rect height="231.8" width="162.8" x="43.78125" y="22.318125"/>
  </clipPath>
  <clipPath id="p940a89069c">
   <rect height="231.8" width="162.8" x="254.38125" y="22.318125"/>
  </clipPath>
 </defs>
</svg>
