<?xml version="1.0" encoding="utf-8" standalone="no"?>
<!DOCTYPE svg PUBLIC "-//W3C//DTD SVG 1.1//EN"
  "http://www.w3.org/Graphics/SVG/1.1/DTD/svg11.dtd">
<!-- Created with matplotlib (https://matplotlib.org/) -->
<svg height="291.674375pt" version="1.1" viewBox="0 0 424.465625 291.674375" width="424.465625pt" xmlns="http://www.w3.org/2000/svg" xmlns:xlink="http://www.w3.org/1999/xlink">
 <metadata>
  <rdf:RDF xmlns:cc="http://creativecommons.org/ns#" xmlns:dc="http://purl.org/dc/elements/1.1/" xmlns:rdf="http://www.w3.org/1999/02/22-rdf-syntax-ns#">
   <cc:Work>
    <dc:type rdf:resource="http://purl.org/dc/dcmitype/StillImage"/>
    <dc:date>2021-02-20T15:29:25.877238</dc:date>
    <dc:format>image/svg+xml</dc:format>
    <dc:creator>
     <cc:Agent>
      <dc:title>Matplotlib v3.3.2, https://matplotlib.org/</dc:title>
     </cc:Agent>
    </dc:creator>
   </cc:Work>
  </rdf:RDF>
 </metadata>
 <defs>
  <style type="text/css">*{stroke-linecap:butt;stroke-linejoin:round;}</style>
 </defs>
 <g id="figure_1">
  <g id="patch_1">
   <path d="M 0 291.674375 
L 424.465625 291.674375 
L 424.465625 0 
L 0 0 
z
" style="fill:none;"/>
  </g>
  <g id="axes_1">
   <g id="patch_2">
    <path d="M 34.240625 254.118125 
L 206.665625 254.118125 
L 206.665625 22.318125 
L 34.240625 22.318125 
z
" style="fill:#ffffff;"/>
   </g>
   <g id="PathCollection_1">
    <defs>
     <path d="M 0 3 
C 0.795609 3 1.55874 2.683901 2.12132 2.12132 
C 2.683901 1.55874 3 0.795609 3 0 
C 3 -0.795609 2.683901 -1.55874 2.12132 -2.12132 
C 1.55874 -2.683901 0.795609 -3 0 -3 
C -0.795609 -3 -1.55874 -2.683901 -2.12132 -2.12132 
C -2.683901 -1.55874 -3 -0.795609 -3 0 
C -3 0.795609 -2.683901 1.55874 -2.12132 2.12132 
C -1.55874 2.683901 -0.795609 3 0 3 
z
" id="mb082fda0e3" style="stroke:#1f77b4;stroke-opacity:0.8;"/>
    </defs>
    <g clip-path="url(#p1a11cffd34)">
     <use style="fill:#1f77b4;fill-opacity:0.8;stroke:#1f77b4;stroke-opacity:0.8;" x="140.348317" xlink:href="#mb082fda0e3" y="106.297471"/>
     <use style="fill:#1f77b4;fill-opacity:0.8;stroke:#1f77b4;stroke-opacity:0.8;" x="60.767548" xlink:href="#mb082fda0e3" y="60.536041"/>
     <use style="fill:#1f77b4;fill-opacity:0.8;stroke:#1f77b4;stroke-opacity:0.8;" x="74.03101" xlink:href="#mb082fda0e3" y="152.058901"/>
     <use style="fill:#1f77b4;fill-opacity:0.8;stroke:#1f77b4;stroke-opacity:0.8;" x="140.348317" xlink:href="#mb082fda0e3" y="106.297471"/>
     <use style="fill:#1f77b4;fill-opacity:0.8;stroke:#1f77b4;stroke-opacity:0.8;" x="166.87524" xlink:href="#mb082fda0e3" y="106.297471"/>
     <use style="fill:#1f77b4;fill-opacity:0.8;stroke:#1f77b4;stroke-opacity:0.8;" x="127.084856" xlink:href="#mb082fda0e3" y="60.536041"/>
     <use style="fill:#1f77b4;fill-opacity:0.8;stroke:#1f77b4;stroke-opacity:0.8;" x="180.138702" xlink:href="#mb082fda0e3" y="60.536041"/>
     <use style="fill:#1f77b4;fill-opacity:0.8;stroke:#1f77b4;stroke-opacity:0.8;" x="127.084856" xlink:href="#mb082fda0e3" y="152.058901"/>
     <use style="fill:#1f77b4;fill-opacity:0.8;stroke:#1f77b4;stroke-opacity:0.8;" x="74.03101" xlink:href="#mb082fda0e3" y="197.820331"/>
     <use style="fill:#1f77b4;fill-opacity:0.8;stroke:#1f77b4;stroke-opacity:0.8;" x="113.821394" xlink:href="#mb082fda0e3" y="106.297471"/>
     <use style="fill:#1f77b4;fill-opacity:0.8;stroke:#1f77b4;stroke-opacity:0.8;" x="113.821394" xlink:href="#mb082fda0e3" y="106.297471"/>
     <use style="fill:#1f77b4;fill-opacity:0.8;stroke:#1f77b4;stroke-opacity:0.8;" x="166.87524" xlink:href="#mb082fda0e3" y="60.536041"/>
     <use style="fill:#1f77b4;fill-opacity:0.8;stroke:#1f77b4;stroke-opacity:0.8;" x="87.294471" xlink:href="#mb082fda0e3" y="106.297471"/>
     <use style="fill:#1f77b4;fill-opacity:0.8;stroke:#1f77b4;stroke-opacity:0.8;" x="127.084856" xlink:href="#mb082fda0e3" y="106.297471"/>
     <use style="fill:#1f77b4;fill-opacity:0.8;stroke:#1f77b4;stroke-opacity:0.8;" x="127.084856" xlink:href="#mb082fda0e3" y="106.297471"/>
     <use style="fill:#1f77b4;fill-opacity:0.8;stroke:#1f77b4;stroke-opacity:0.8;" x="153.611779" xlink:href="#mb082fda0e3" y="60.536041"/>
     <use style="fill:#1f77b4;fill-opacity:0.8;stroke:#1f77b4;stroke-opacity:0.8;" x="113.821394" xlink:href="#mb082fda0e3" y="106.297471"/>
     <use style="fill:#1f77b4;fill-opacity:0.8;stroke:#1f77b4;stroke-opacity:0.8;" x="100.557933" xlink:href="#mb082fda0e3" y="60.536041"/>
     <use style="fill:#1f77b4;fill-opacity:0.8;stroke:#1f77b4;stroke-opacity:0.8;" x="153.611779" xlink:href="#mb082fda0e3" y="60.536041"/>
     <use style="fill:#1f77b4;fill-opacity:0.8;stroke:#1f77b4;stroke-opacity:0.8;" x="34.240625" xlink:href="#mb082fda0e3" y="152.058901"/>
     <use style="fill:#1f77b4;fill-opacity:0.8;stroke:#1f77b4;stroke-opacity:0.8;" x="87.294471" xlink:href="#mb082fda0e3" y="106.297471"/>
     <use style="fill:#1f77b4;fill-opacity:0.8;stroke:#1f77b4;stroke-opacity:0.8;" x="206.665625" xlink:href="#mb082fda0e3" y="243.581761"/>
     <use style="fill:#1f77b4;fill-opacity:0.8;stroke:#1f77b4;stroke-opacity:0.8;" x="113.821394" xlink:href="#mb082fda0e3" y="60.536041"/>
     <use style="fill:#1f77b4;fill-opacity:0.8;stroke:#1f77b4;stroke-opacity:0.8;" x="113.821394" xlink:href="#mb082fda0e3" y="106.297471"/>
     <use style="fill:#1f77b4;fill-opacity:0.8;stroke:#1f77b4;stroke-opacity:0.8;" x="113.821394" xlink:href="#mb082fda0e3" y="106.297471"/>
     <use style="fill:#1f77b4;fill-opacity:0.8;stroke:#1f77b4;stroke-opacity:0.8;" x="113.821394" xlink:href="#mb082fda0e3" y="60.536041"/>
     <use style="fill:#1f77b4;fill-opacity:0.8;stroke:#1f77b4;stroke-opacity:0.8;" x="100.557933" xlink:href="#mb082fda0e3" y="60.536041"/>
     <use style="fill:#1f77b4;fill-opacity:0.8;stroke:#1f77b4;stroke-opacity:0.8;" x="87.294471" xlink:href="#mb082fda0e3" y="106.297471"/>
     <use style="fill:#1f77b4;fill-opacity:0.8;stroke:#1f77b4;stroke-opacity:0.8;" x="100.557933" xlink:href="#mb082fda0e3" y="106.297471"/>
     <use style="fill:#1f77b4;fill-opacity:0.8;stroke:#1f77b4;stroke-opacity:0.8;" x="113.821394" xlink:href="#mb082fda0e3" y="106.297471"/>
     <use style="fill:#1f77b4;fill-opacity:0.8;stroke:#1f77b4;stroke-opacity:0.8;" x="113.821394" xlink:href="#mb082fda0e3" y="60.536041"/>
     <use style="fill:#1f77b4;fill-opacity:0.8;stroke:#1f77b4;stroke-opacity:0.8;" x="87.294471" xlink:href="#mb082fda0e3" y="60.536041"/>
     <use style="fill:#1f77b4;fill-opacity:0.8;stroke:#1f77b4;stroke-opacity:0.8;" x="127.084856" xlink:href="#mb082fda0e3" y="60.536041"/>
     <use style="fill:#1f77b4;fill-opacity:0.8;stroke:#1f77b4;stroke-opacity:0.8;" x="127.084856" xlink:href="#mb082fda0e3" y="106.297471"/>
     <use style="fill:#1f77b4;fill-opacity:0.8;stroke:#1f77b4;stroke-opacity:0.8;" x="100.557933" xlink:href="#mb082fda0e3" y="106.297471"/>
     <use style="fill:#1f77b4;fill-opacity:0.8;stroke:#1f77b4;stroke-opacity:0.8;" x="100.557933" xlink:href="#mb082fda0e3" y="106.297471"/>
     <use style="fill:#1f77b4;fill-opacity:0.8;stroke:#1f77b4;stroke-opacity:0.8;" x="87.294471" xlink:href="#mb082fda0e3" y="152.058901"/>
     <use style="fill:#1f77b4;fill-opacity:0.8;stroke:#1f77b4;stroke-opacity:0.8;" x="113.821394" xlink:href="#mb082fda0e3" y="60.536041"/>
     <use style="fill:#1f77b4;fill-opacity:0.8;stroke:#1f77b4;stroke-opacity:0.8;" x="100.557933" xlink:href="#mb082fda0e3" y="106.297471"/>
     <use style="fill:#1f77b4;fill-opacity:0.8;stroke:#1f77b4;stroke-opacity:0.8;" x="87.294471" xlink:href="#mb082fda0e3" y="152.058901"/>
     <use style="fill:#1f77b4;fill-opacity:0.8;stroke:#1f77b4;stroke-opacity:0.8;" x="47.504087" xlink:href="#mb082fda0e3" y="60.536041"/>
    </g>
   </g>
   <g id="PolyCollection_1">
    <path clip-path="url(#p1a11cffd34)" d="M 34.240625 53.424916 
L 34.240625 151.161439 
L 35.982292 149.887322 
L 37.723958 149.050011 
L 39.465625 148.2127 
L 41.207292 147.375389 
L 42.948958 146.538078 
L 44.690625 145.700766 
L 46.432292 144.793989 
L 48.173958 143.797672 
L 49.915625 142.79638 
L 51.657292 141.795088 
L 53.398958 140.772791 
L 55.140625 139.701618 
L 56.882292 138.630446 
L 58.623958 137.559273 
L 60.365625 136.4881 
L 62.107292 135.416927 
L 63.848958 134.345754 
L 65.590625 133.274581 
L 67.332292 132.203408 
L 69.073958 131.124655 
L 70.815625 130.044038 
L 72.557292 128.781579 
L 74.298958 127.829672 
L 76.040625 126.823112 
L 77.782292 125.751961 
L 79.523958 124.533387 
L 81.265625 123.447926 
L 83.007292 122.473719 
L 84.748958 121.427462 
L 86.490625 120.388611 
L 88.232292 119.560805 
L 89.973958 118.561329 
L 91.715625 117.919737 
L 93.457292 117.141067 
L 95.198958 115.960906 
L 96.940625 114.976669 
L 98.682292 114.547778 
L 100.423958 113.707981 
L 102.165625 113.133835 
L 103.907292 113.167608 
L 105.648958 113.513824 
L 107.390625 113.840068 
L 109.132292 114.247582 
L 110.873958 114.19463 
L 112.615625 114.693909 
L 114.357292 114.854419 
L 116.098958 115.25306 
L 117.840625 115.805391 
L 119.582292 116.298728 
L 121.323958 116.557189 
L 123.065625 116.883589 
L 124.807292 117.345904 
L 126.548958 117.829405 
L 128.290625 118.660314 
L 130.032292 119.274502 
L 131.773958 119.821035 
L 133.515625 120.522669 
L 135.257292 121.49275 
L 136.998958 122.061529 
L 138.740625 122.758973 
L 140.482292 123.915947 
L 142.223958 124.683342 
L 143.965625 125.309556 
L 145.707292 125.943349 
L 147.448958 127.024805 
L 149.190625 127.831143 
L 150.932292 129.217611 
L 152.673958 129.970257 
L 154.415625 131.086216 
L 156.157292 132.17636 
L 157.898958 133.17762 
L 159.640625 134.246741 
L 161.382292 135.308891 
L 163.123958 135.967768 
L 164.865625 136.62034 
L 166.607292 137.631385 
L 168.348958 138.596292 
L 170.090625 139.637088 
L 171.832292 140.610901 
L 173.573958 141.716186 
L 175.315625 142.76527 
L 177.057292 143.810644 
L 178.798958 144.856018 
L 180.540625 145.901392 
L 182.282292 146.946766 
L 184.023958 147.99214 
L 185.765625 149.037514 
L 187.507292 150.082887 
L 189.248958 151.128261 
L 190.990625 152.173635 
L 192.732292 153.216379 
L 194.473958 154.256106 
L 196.215625 155.295833 
L 197.957292 156.33556 
L 199.698958 157.321551 
L 201.440625 158.424422 
L 203.182292 159.473312 
L 204.923958 160.522202 
L 206.665625 161.569529 
L 206.665625 32.854489 
L 206.665625 32.854489 
L 204.923958 33.921511 
L 203.182292 34.988534 
L 201.440625 36.371694 
L 199.698958 37.530407 
L 197.957292 38.618241 
L 196.215625 39.706074 
L 194.473958 40.919745 
L 192.732292 42.34358 
L 190.990625 43.500343 
L 189.248958 44.548438 
L 187.507292 45.596532 
L 185.765625 46.741646 
L 184.023958 47.916191 
L 182.282292 49.090736 
L 180.540625 50.265281 
L 178.798958 51.408371 
L 177.057292 52.499832 
L 175.315625 53.595234 
L 173.573958 54.690636 
L 171.832292 55.857785 
L 170.090625 57.136443 
L 168.348958 58.427039 
L 166.607292 59.684659 
L 164.865625 60.868528 
L 163.123958 62.030209 
L 161.382292 63.231361 
L 159.640625 64.186235 
L 157.898958 65.133558 
L 156.157292 66.051488 
L 154.415625 66.979755 
L 152.673958 68.356008 
L 150.932292 69.243701 
L 149.190625 70.382826 
L 147.448958 71.744846 
L 145.707292 72.920253 
L 143.965625 73.988895 
L 142.223958 75.057538 
L 140.482292 75.996705 
L 138.740625 76.674664 
L 136.998958 77.667714 
L 135.257292 78.743639 
L 133.515625 79.768398 
L 131.773958 80.652267 
L 130.032292 81.47049 
L 128.290625 82.285707 
L 126.548958 82.929261 
L 124.807292 83.72014 
L 123.065625 84.447128 
L 121.323958 85.297453 
L 119.582292 86.064095 
L 117.840625 86.814733 
L 116.098958 87.564493 
L 114.357292 87.91808 
L 112.615625 88.530847 
L 110.873958 88.759927 
L 109.132292 89.022512 
L 107.390625 89.191077 
L 105.648958 89.307613 
L 103.907292 88.996151 
L 102.165625 88.715209 
L 100.423958 88.076479 
L 98.682292 87.40372 
L 96.940625 87.07437 
L 95.198958 86.377775 
L 93.457292 85.602386 
L 91.715625 84.870485 
L 89.973958 84.05659 
L 88.232292 83.193591 
L 86.490625 82.238146 
L 84.748958 81.284954 
L 83.007292 80.702805 
L 81.265625 79.85668 
L 79.523958 79.204162 
L 77.782292 78.02035 
L 76.040625 77.131952 
L 74.298958 76.318218 
L 72.557292 75.442173 
L 70.815625 74.553295 
L 69.073958 73.548862 
L 67.332292 72.54443 
L 65.590625 71.539997 
L 63.848958 70.577852 
L 62.107292 69.645535 
L 60.365625 68.713219 
L 58.623958 67.780902 
L 56.882292 66.848586 
L 55.140625 65.916269 
L 53.398958 64.885588 
L 51.657292 63.631651 
L 49.915625 62.481089 
L 48.173958 61.47492 
L 46.432292 60.497323 
L 44.690625 59.616971 
L 42.948958 58.672179 
L 41.207292 57.51122 
L 39.465625 56.48718 
L 37.723958 55.509571 
L 35.982292 54.526946 
L 34.240625 53.424916 
z
" style="fill:#1f77b4;fill-opacity:0.15;"/>
   </g>
   <g id="matplotlib.axis_1">
    <g id="xtick_1">
     <g id="line2d_1">
      <defs>
       <path d="M 0 0 
L 0 3.5 
" id="m55b9cea487" style="stroke:#000000;stroke-width:0.8;"/>
      </defs>
      <g>
       <use style="stroke:#000000;stroke-width:0.8;" x="60.767548" xlink:href="#m55b9cea487" y="254.118125"/>
      </g>
     </g>
     <g id="text_1">
      <!-- 2 -->
      <g transform="translate(57.586298 268.716562)scale(0.1 -0.1)">
       <defs>
        <path d="M 19.1875 8.296875 
L 53.609375 8.296875 
L 53.609375 0 
L 7.328125 0 
L 7.328125 8.296875 
Q 12.9375 14.109375 22.625 23.890625 
Q 32.328125 33.6875 34.8125 36.53125 
Q 39.546875 41.84375 41.421875 45.53125 
Q 43.3125 49.21875 43.3125 52.78125 
Q 43.3125 58.59375 39.234375 62.25 
Q 35.15625 65.921875 28.609375 65.921875 
Q 23.96875 65.921875 18.8125 64.3125 
Q 13.671875 62.703125 7.8125 59.421875 
L 7.8125 69.390625 
Q 13.765625 71.78125 18.9375 73 
Q 24.125 74.21875 28.421875 74.21875 
Q 39.75 74.21875 46.484375 68.546875 
Q 53.21875 62.890625 53.21875 53.421875 
Q 53.21875 48.921875 51.53125 44.890625 
Q 49.859375 40.875 45.40625 35.40625 
Q 44.1875 33.984375 37.640625 27.21875 
Q 31.109375 20.453125 19.1875 8.296875 
z
" id="DejaVuSans-50"/>
       </defs>
       <use xlink:href="#DejaVuSans-50"/>
      </g>
     </g>
    </g>
    <g id="xtick_2">
     <g id="line2d_2">
      <g>
       <use style="stroke:#000000;stroke-width:0.8;" x="113.821394" xlink:href="#m55b9cea487" y="254.118125"/>
      </g>
     </g>
     <g id="text_2">
      <!-- 3 -->
      <g transform="translate(110.640144 268.716562)scale(0.1 -0.1)">
       <defs>
        <path d="M 40.578125 39.3125 
Q 47.65625 37.796875 51.625 33 
Q 55.609375 28.21875 55.609375 21.1875 
Q 55.609375 10.40625 48.1875 4.484375 
Q 40.765625 -1.421875 27.09375 -1.421875 
Q 22.515625 -1.421875 17.65625 -0.515625 
Q 12.796875 0.390625 7.625 2.203125 
L 7.625 11.71875 
Q 11.71875 9.328125 16.59375 8.109375 
Q 21.484375 6.890625 26.8125 6.890625 
Q 36.078125 6.890625 40.9375 10.546875 
Q 45.796875 14.203125 45.796875 21.1875 
Q 45.796875 27.640625 41.28125 31.265625 
Q 36.765625 34.90625 28.71875 34.90625 
L 20.21875 34.90625 
L 20.21875 43.015625 
L 29.109375 43.015625 
Q 36.375 43.015625 40.234375 45.921875 
Q 44.09375 48.828125 44.09375 54.296875 
Q 44.09375 59.90625 40.109375 62.90625 
Q 36.140625 65.921875 28.71875 65.921875 
Q 24.65625 65.921875 20.015625 65.03125 
Q 15.375 64.15625 9.8125 62.3125 
L 9.8125 71.09375 
Q 15.4375 72.65625 20.34375 73.4375 
Q 25.25 74.21875 29.59375 74.21875 
Q 40.828125 74.21875 47.359375 69.109375 
Q 53.90625 64.015625 53.90625 55.328125 
Q 53.90625 49.265625 50.4375 45.09375 
Q 46.96875 40.921875 40.578125 39.3125 
z
" id="DejaVuSans-51"/>
       </defs>
       <use xlink:href="#DejaVuSans-51"/>
      </g>
     </g>
    </g>
    <g id="xtick_3">
     <g id="line2d_3">
      <g>
       <use style="stroke:#000000;stroke-width:0.8;" x="166.87524" xlink:href="#m55b9cea487" y="254.118125"/>
      </g>
     </g>
     <g id="text_3">
      <!-- 4 -->
      <g transform="translate(163.69399 268.716562)scale(0.1 -0.1)">
       <defs>
        <path d="M 37.796875 64.3125 
L 12.890625 25.390625 
L 37.796875 25.390625 
z
M 35.203125 72.90625 
L 47.609375 72.90625 
L 47.609375 25.390625 
L 58.015625 25.390625 
L 58.015625 17.1875 
L 47.609375 17.1875 
L 47.609375 0 
L 37.796875 0 
L 37.796875 17.1875 
L 4.890625 17.1875 
L 4.890625 26.703125 
z
" id="DejaVuSans-52"/>
       </defs>
       <use xlink:href="#DejaVuSans-52"/>
      </g>
     </g>
    </g>
    <g id="text_4">
     <!-- E -->
     <g transform="translate(117.29375 282.394687)scale(0.1 -0.1)">
      <defs>
       <path d="M 9.8125 72.90625 
L 55.90625 72.90625 
L 55.90625 64.59375 
L 19.671875 64.59375 
L 19.671875 43.015625 
L 54.390625 43.015625 
L 54.390625 34.71875 
L 19.671875 34.71875 
L 19.671875 8.296875 
L 56.78125 8.296875 
L 56.78125 0 
L 9.8125 0 
z
" id="DejaVuSans-69"/>
      </defs>
      <use xlink:href="#DejaVuSans-69"/>
     </g>
    </g>
   </g>
   <g id="matplotlib.axis_2">
    <g id="ytick_1">
     <g id="line2d_4">
      <defs>
       <path d="M 0 0 
L -3.5 0 
" id="mf30ae97b1d" style="stroke:#000000;stroke-width:0.8;"/>
      </defs>
      <g>
       <use style="stroke:#000000;stroke-width:0.8;" x="34.240625" xlink:href="#mf30ae97b1d" y="243.581761"/>
      </g>
     </g>
     <g id="text_5">
      <!-- 1 -->
      <g transform="translate(20.878125 247.38098)scale(0.1 -0.1)">
       <defs>
        <path d="M 12.40625 8.296875 
L 28.515625 8.296875 
L 28.515625 63.921875 
L 10.984375 60.40625 
L 10.984375 69.390625 
L 28.421875 72.90625 
L 38.28125 72.90625 
L 38.28125 8.296875 
L 54.390625 8.296875 
L 54.390625 0 
L 12.40625 0 
z
" id="DejaVuSans-49"/>
       </defs>
       <use xlink:href="#DejaVuSans-49"/>
      </g>
     </g>
    </g>
    <g id="ytick_2">
     <g id="line2d_5">
      <g>
       <use style="stroke:#000000;stroke-width:0.8;" x="34.240625" xlink:href="#mf30ae97b1d" y="197.820331"/>
      </g>
     </g>
     <g id="text_6">
      <!-- 2 -->
      <g transform="translate(20.878125 201.61955)scale(0.1 -0.1)">
       <use xlink:href="#DejaVuSans-50"/>
      </g>
     </g>
    </g>
    <g id="ytick_3">
     <g id="line2d_6">
      <g>
       <use style="stroke:#000000;stroke-width:0.8;" x="34.240625" xlink:href="#mf30ae97b1d" y="152.058901"/>
      </g>
     </g>
     <g id="text_7">
      <!-- 3 -->
      <g transform="translate(20.878125 155.85812)scale(0.1 -0.1)">
       <use xlink:href="#DejaVuSans-51"/>
      </g>
     </g>
    </g>
    <g id="ytick_4">
     <g id="line2d_7">
      <g>
       <use style="stroke:#000000;stroke-width:0.8;" x="34.240625" xlink:href="#mf30ae97b1d" y="106.297471"/>
      </g>
     </g>
     <g id="text_8">
      <!-- 4 -->
      <g transform="translate(20.878125 110.09669)scale(0.1 -0.1)">
       <use xlink:href="#DejaVuSans-52"/>
      </g>
     </g>
    </g>
    <g id="ytick_5">
     <g id="line2d_8">
      <g>
       <use style="stroke:#000000;stroke-width:0.8;" x="34.240625" xlink:href="#mf30ae97b1d" y="60.536041"/>
      </g>
     </g>
     <g id="text_9">
      <!-- 5 -->
      <g transform="translate(20.878125 64.33526)scale(0.1 -0.1)">
       <defs>
        <path d="M 10.796875 72.90625 
L 49.515625 72.90625 
L 49.515625 64.59375 
L 19.828125 64.59375 
L 19.828125 46.734375 
Q 21.96875 47.46875 24.109375 47.828125 
Q 26.265625 48.1875 28.421875 48.1875 
Q 40.625 48.1875 47.75 41.5 
Q 54.890625 34.8125 54.890625 23.390625 
Q 54.890625 11.625 47.5625 5.09375 
Q 40.234375 -1.421875 26.90625 -1.421875 
Q 22.3125 -1.421875 17.546875 -0.640625 
Q 12.796875 0.140625 7.71875 1.703125 
L 7.71875 11.625 
Q 12.109375 9.234375 16.796875 8.0625 
Q 21.484375 6.890625 26.703125 6.890625 
Q 35.15625 6.890625 40.078125 11.328125 
Q 45.015625 15.765625 45.015625 23.390625 
Q 45.015625 31 40.078125 35.4375 
Q 35.15625 39.890625 26.703125 39.890625 
Q 22.75 39.890625 18.8125 39.015625 
Q 14.890625 38.140625 10.796875 36.28125 
z
" id="DejaVuSans-53"/>
       </defs>
       <use xlink:href="#DejaVuSans-53"/>
      </g>
     </g>
    </g>
    <g id="text_10">
     <!-- Trust6 -->
     <g transform="translate(14.798438 153.504844)rotate(-90)scale(0.1 -0.1)">
      <defs>
       <path d="M -0.296875 72.90625 
L 61.375 72.90625 
L 61.375 64.59375 
L 35.5 64.59375 
L 35.5 0 
L 25.59375 0 
L 25.59375 64.59375 
L -0.296875 64.59375 
z
" id="DejaVuSans-84"/>
       <path d="M 41.109375 46.296875 
Q 39.59375 47.171875 37.8125 47.578125 
Q 36.03125 48 33.890625 48 
Q 26.265625 48 22.1875 43.046875 
Q 18.109375 38.09375 18.109375 28.8125 
L 18.109375 0 
L 9.078125 0 
L 9.078125 54.6875 
L 18.109375 54.6875 
L 18.109375 46.1875 
Q 20.953125 51.171875 25.484375 53.578125 
Q 30.03125 56 36.53125 56 
Q 37.453125 56 38.578125 55.875 
Q 39.703125 55.765625 41.0625 55.515625 
z
" id="DejaVuSans-114"/>
       <path d="M 8.5 21.578125 
L 8.5 54.6875 
L 17.484375 54.6875 
L 17.484375 21.921875 
Q 17.484375 14.15625 20.5 10.265625 
Q 23.53125 6.390625 29.59375 6.390625 
Q 36.859375 6.390625 41.078125 11.03125 
Q 45.3125 15.671875 45.3125 23.6875 
L 45.3125 54.6875 
L 54.296875 54.6875 
L 54.296875 0 
L 45.3125 0 
L 45.3125 8.40625 
Q 42.046875 3.421875 37.71875 1 
Q 33.40625 -1.421875 27.6875 -1.421875 
Q 18.265625 -1.421875 13.375 4.4375 
Q 8.5 10.296875 8.5 21.578125 
z
M 31.109375 56 
z
" id="DejaVuSans-117"/>
       <path d="M 44.28125 53.078125 
L 44.28125 44.578125 
Q 40.484375 46.53125 36.375 47.5 
Q 32.28125 48.484375 27.875 48.484375 
Q 21.1875 48.484375 17.84375 46.4375 
Q 14.5 44.390625 14.5 40.28125 
Q 14.5 37.15625 16.890625 35.375 
Q 19.28125 33.59375 26.515625 31.984375 
L 29.59375 31.296875 
Q 39.15625 29.25 43.1875 25.515625 
Q 47.21875 21.78125 47.21875 15.09375 
Q 47.21875 7.46875 41.1875 3.015625 
Q 35.15625 -1.421875 24.609375 -1.421875 
Q 20.21875 -1.421875 15.453125 -0.5625 
Q 10.6875 0.296875 5.421875 2 
L 5.421875 11.28125 
Q 10.40625 8.6875 15.234375 7.390625 
Q 20.0625 6.109375 24.8125 6.109375 
Q 31.15625 6.109375 34.5625 8.28125 
Q 37.984375 10.453125 37.984375 14.40625 
Q 37.984375 18.0625 35.515625 20.015625 
Q 33.0625 21.96875 24.703125 23.78125 
L 21.578125 24.515625 
Q 13.234375 26.265625 9.515625 29.90625 
Q 5.8125 33.546875 5.8125 39.890625 
Q 5.8125 47.609375 11.28125 51.796875 
Q 16.75 56 26.8125 56 
Q 31.78125 56 36.171875 55.265625 
Q 40.578125 54.546875 44.28125 53.078125 
z
" id="DejaVuSans-115"/>
       <path d="M 18.3125 70.21875 
L 18.3125 54.6875 
L 36.8125 54.6875 
L 36.8125 47.703125 
L 18.3125 47.703125 
L 18.3125 18.015625 
Q 18.3125 11.328125 20.140625 9.421875 
Q 21.96875 7.515625 27.59375 7.515625 
L 36.8125 7.515625 
L 36.8125 0 
L 27.59375 0 
Q 17.1875 0 13.234375 3.875 
Q 9.28125 7.765625 9.28125 18.015625 
L 9.28125 47.703125 
L 2.6875 47.703125 
L 2.6875 54.6875 
L 9.28125 54.6875 
L 9.28125 70.21875 
z
" id="DejaVuSans-116"/>
       <path d="M 33.015625 40.375 
Q 26.375 40.375 22.484375 35.828125 
Q 18.609375 31.296875 18.609375 23.390625 
Q 18.609375 15.53125 22.484375 10.953125 
Q 26.375 6.390625 33.015625 6.390625 
Q 39.65625 6.390625 43.53125 10.953125 
Q 47.40625 15.53125 47.40625 23.390625 
Q 47.40625 31.296875 43.53125 35.828125 
Q 39.65625 40.375 33.015625 40.375 
z
M 52.59375 71.296875 
L 52.59375 62.3125 
Q 48.875 64.0625 45.09375 64.984375 
Q 41.3125 65.921875 37.59375 65.921875 
Q 27.828125 65.921875 22.671875 59.328125 
Q 17.53125 52.734375 16.796875 39.40625 
Q 19.671875 43.65625 24.015625 45.921875 
Q 28.375 48.1875 33.59375 48.1875 
Q 44.578125 48.1875 50.953125 41.515625 
Q 57.328125 34.859375 57.328125 23.390625 
Q 57.328125 12.15625 50.6875 5.359375 
Q 44.046875 -1.421875 33.015625 -1.421875 
Q 20.359375 -1.421875 13.671875 8.265625 
Q 6.984375 17.96875 6.984375 36.375 
Q 6.984375 53.65625 15.1875 63.9375 
Q 23.390625 74.21875 37.203125 74.21875 
Q 40.921875 74.21875 44.703125 73.484375 
Q 48.484375 72.75 52.59375 71.296875 
z
" id="DejaVuSans-54"/>
      </defs>
      <use xlink:href="#DejaVuSans-84"/>
      <use x="46.333984" xlink:href="#DejaVuSans-114"/>
      <use x="87.447266" xlink:href="#DejaVuSans-117"/>
      <use x="150.826172" xlink:href="#DejaVuSans-115"/>
      <use x="202.925781" xlink:href="#DejaVuSans-116"/>
      <use x="242.134766" xlink:href="#DejaVuSans-54"/>
     </g>
    </g>
   </g>
   <g id="line2d_9">
    <path clip-path="url(#p1a11cffd34)" d="M 34.240625 102.12653 
L 35.982292 102.095297 
L 37.723958 102.064063 
L 39.465625 102.03283 
L 41.207292 102.001596 
L 42.948958 101.970363 
L 44.690625 101.93913 
L 46.432292 101.907896 
L 48.173958 101.876663 
L 49.915625 101.84543 
L 51.657292 101.814196 
L 53.398958 101.782963 
L 55.140625 101.751729 
L 56.882292 101.720496 
L 58.623958 101.689263 
L 60.365625 101.658029 
L 62.107292 101.626796 
L 63.848958 101.595563 
L 65.590625 101.564329 
L 67.332292 101.533096 
L 69.073958 101.501863 
L 70.815625 101.470629 
L 72.557292 101.439396 
L 74.298958 101.408162 
L 76.040625 101.376929 
L 77.782292 101.345696 
L 79.523958 101.314462 
L 81.265625 101.283229 
L 83.007292 101.251996 
L 84.748958 101.220762 
L 86.490625 101.189529 
L 88.232292 101.158296 
L 89.973958 101.127062 
L 91.715625 101.095829 
L 93.457292 101.064595 
L 95.198958 101.033362 
L 96.940625 101.002129 
L 98.682292 100.970895 
L 100.423958 100.939662 
L 102.165625 100.908429 
L 103.907292 100.877195 
L 105.648958 100.845962 
L 107.390625 100.814728 
L 109.132292 100.783495 
L 110.873958 100.752262 
L 112.615625 100.721028 
L 114.357292 100.689795 
L 116.098958 100.658562 
L 117.840625 100.627328 
L 119.582292 100.596095 
L 121.323958 100.564862 
L 123.065625 100.533628 
L 124.807292 100.502395 
L 126.548958 100.471161 
L 128.290625 100.439928 
L 130.032292 100.408695 
L 131.773958 100.377461 
L 133.515625 100.346228 
L 135.257292 100.314995 
L 136.998958 100.283761 
L 138.740625 100.252528 
L 140.482292 100.221295 
L 142.223958 100.190061 
L 143.965625 100.158828 
L 145.707292 100.127594 
L 147.448958 100.096361 
L 149.190625 100.065128 
L 150.932292 100.033894 
L 152.673958 100.002661 
L 154.415625 99.971428 
L 156.157292 99.940194 
L 157.898958 99.908961 
L 159.640625 99.877727 
L 161.382292 99.846494 
L 163.123958 99.815261 
L 164.865625 99.784027 
L 166.607292 99.752794 
L 168.348958 99.721561 
L 170.090625 99.690327 
L 171.832292 99.659094 
L 173.573958 99.627861 
L 175.315625 99.596627 
L 177.057292 99.565394 
L 178.798958 99.53416 
L 180.540625 99.502927 
L 182.282292 99.471694 
L 184.023958 99.44046 
L 185.765625 99.409227 
L 187.507292 99.377994 
L 189.248958 99.34676 
L 190.990625 99.315527 
L 192.732292 99.284294 
L 194.473958 99.25306 
L 196.215625 99.221827 
L 197.957292 99.190593 
L 199.698958 99.15936 
L 201.440625 99.128127 
L 203.182292 99.096893 
L 204.923958 99.06566 
L 206.665625 99.034427 
" style="fill:none;stroke:#1f77b4;stroke-linecap:square;stroke-width:2.25;"/>
   </g>
   <g id="patch_3">
    <path d="M 34.240625 254.118125 
L 34.240625 22.318125 
" style="fill:none;stroke:#000000;stroke-linecap:square;stroke-linejoin:miter;stroke-width:0.8;"/>
   </g>
   <g id="patch_4">
    <path d="M 206.665625 254.118125 
L 206.665625 22.318125 
" style="fill:none;stroke:#000000;stroke-linecap:square;stroke-linejoin:miter;stroke-width:0.8;"/>
   </g>
   <g id="patch_5">
    <path d="M 34.240625 254.118125 
L 206.665625 254.118125 
" style="fill:none;stroke:#000000;stroke-linecap:square;stroke-linejoin:miter;stroke-width:0.8;"/>
   </g>
   <g id="patch_6">
    <path d="M 34.240625 22.318125 
L 206.665625 22.318125 
" style="fill:none;stroke:#000000;stroke-linecap:square;stroke-linejoin:miter;stroke-width:0.8;"/>
   </g>
   <g id="text_11">
    <!-- Group A -->
    <g transform="translate(34.240625 16.318125)scale(0.12 -0.12)">
     <defs>
      <path d="M 59.515625 10.40625 
L 59.515625 29.984375 
L 43.40625 29.984375 
L 43.40625 38.09375 
L 69.28125 38.09375 
L 69.28125 6.78125 
Q 63.578125 2.734375 56.6875 0.65625 
Q 49.8125 -1.421875 42 -1.421875 
Q 24.90625 -1.421875 15.25 8.5625 
Q 5.609375 18.5625 5.609375 36.375 
Q 5.609375 54.25 15.25 64.234375 
Q 24.90625 74.21875 42 74.21875 
Q 49.125 74.21875 55.546875 72.453125 
Q 61.96875 70.703125 67.390625 67.28125 
L 67.390625 56.78125 
Q 61.921875 61.421875 55.765625 63.765625 
Q 49.609375 66.109375 42.828125 66.109375 
Q 29.4375 66.109375 22.71875 58.640625 
Q 16.015625 51.171875 16.015625 36.375 
Q 16.015625 21.625 22.71875 14.15625 
Q 29.4375 6.6875 42.828125 6.6875 
Q 48.046875 6.6875 52.140625 7.59375 
Q 56.25 8.5 59.515625 10.40625 
z
" id="DejaVuSans-71"/>
      <path d="M 30.609375 48.390625 
Q 23.390625 48.390625 19.1875 42.75 
Q 14.984375 37.109375 14.984375 27.296875 
Q 14.984375 17.484375 19.15625 11.84375 
Q 23.34375 6.203125 30.609375 6.203125 
Q 37.796875 6.203125 41.984375 11.859375 
Q 46.1875 17.53125 46.1875 27.296875 
Q 46.1875 37.015625 41.984375 42.703125 
Q 37.796875 48.390625 30.609375 48.390625 
z
M 30.609375 56 
Q 42.328125 56 49.015625 48.375 
Q 55.71875 40.765625 55.71875 27.296875 
Q 55.71875 13.875 49.015625 6.21875 
Q 42.328125 -1.421875 30.609375 -1.421875 
Q 18.84375 -1.421875 12.171875 6.21875 
Q 5.515625 13.875 5.515625 27.296875 
Q 5.515625 40.765625 12.171875 48.375 
Q 18.84375 56 30.609375 56 
z
" id="DejaVuSans-111"/>
      <path d="M 18.109375 8.203125 
L 18.109375 -20.796875 
L 9.078125 -20.796875 
L 9.078125 54.6875 
L 18.109375 54.6875 
L 18.109375 46.390625 
Q 20.953125 51.265625 25.265625 53.625 
Q 29.59375 56 35.59375 56 
Q 45.5625 56 51.78125 48.09375 
Q 58.015625 40.1875 58.015625 27.296875 
Q 58.015625 14.40625 51.78125 6.484375 
Q 45.5625 -1.421875 35.59375 -1.421875 
Q 29.59375 -1.421875 25.265625 0.953125 
Q 20.953125 3.328125 18.109375 8.203125 
z
M 48.6875 27.296875 
Q 48.6875 37.203125 44.609375 42.84375 
Q 40.53125 48.484375 33.40625 48.484375 
Q 26.265625 48.484375 22.1875 42.84375 
Q 18.109375 37.203125 18.109375 27.296875 
Q 18.109375 17.390625 22.1875 11.75 
Q 26.265625 6.109375 33.40625 6.109375 
Q 40.53125 6.109375 44.609375 11.75 
Q 48.6875 17.390625 48.6875 27.296875 
z
" id="DejaVuSans-112"/>
      <path id="DejaVuSans-32"/>
      <path d="M 34.1875 63.1875 
L 20.796875 26.90625 
L 47.609375 26.90625 
z
M 28.609375 72.90625 
L 39.796875 72.90625 
L 67.578125 0 
L 57.328125 0 
L 50.6875 18.703125 
L 17.828125 18.703125 
L 11.1875 0 
L 0.78125 0 
z
" id="DejaVuSans-65"/>
     </defs>
     <use xlink:href="#DejaVuSans-71"/>
     <use x="77.490234" xlink:href="#DejaVuSans-114"/>
     <use x="116.353516" xlink:href="#DejaVuSans-111"/>
     <use x="177.535156" xlink:href="#DejaVuSans-117"/>
     <use x="240.914062" xlink:href="#DejaVuSans-112"/>
     <use x="304.390625" xlink:href="#DejaVuSans-32"/>
     <use x="336.177734" xlink:href="#DejaVuSans-65"/>
    </g>
   </g>
  </g>
  <g id="axes_2">
   <g id="patch_7">
    <path d="M 244.840625 254.118125 
L 417.265625 254.118125 
L 417.265625 22.318125 
L 244.840625 22.318125 
z
" style="fill:#ffffff;"/>
   </g>
   <g id="PathCollection_2">
    <g clip-path="url(#p211e5522c0)">
     <use style="fill:#1f77b4;fill-opacity:0.8;stroke:#1f77b4;stroke-opacity:0.8;" x="244.840625" xlink:href="#mb082fda0e3" y="91.155187"/>
     <use style="fill:#1f77b4;fill-opacity:0.8;stroke:#1f77b4;stroke-opacity:0.8;" x="258.104087" xlink:href="#mb082fda0e3" y="91.155187"/>
     <use style="fill:#1f77b4;fill-opacity:0.8;stroke:#1f77b4;stroke-opacity:0.8;" x="377.47524" xlink:href="#mb082fda0e3" y="243.581761"/>
     <use style="fill:#1f77b4;fill-opacity:0.8;stroke:#1f77b4;stroke-opacity:0.8;" x="337.684856" xlink:href="#mb082fda0e3" y="91.155187"/>
     <use style="fill:#1f77b4;fill-opacity:0.8;stroke:#1f77b4;stroke-opacity:0.8;" x="311.157933" xlink:href="#mb082fda0e3" y="91.155187"/>
     <use style="fill:#1f77b4;fill-opacity:0.8;stroke:#1f77b4;stroke-opacity:0.8;" x="377.47524" xlink:href="#mb082fda0e3" y="40.346328"/>
     <use style="fill:#1f77b4;fill-opacity:0.8;stroke:#1f77b4;stroke-opacity:0.8;" x="311.157933" xlink:href="#mb082fda0e3" y="91.155187"/>
     <use style="fill:#1f77b4;fill-opacity:0.8;stroke:#1f77b4;stroke-opacity:0.8;" x="337.684856" xlink:href="#mb082fda0e3" y="141.964045"/>
     <use style="fill:#1f77b4;fill-opacity:0.8;stroke:#1f77b4;stroke-opacity:0.8;" x="337.684856" xlink:href="#mb082fda0e3" y="91.155187"/>
     <use style="fill:#1f77b4;fill-opacity:0.8;stroke:#1f77b4;stroke-opacity:0.8;" x="364.211779" xlink:href="#mb082fda0e3" y="91.155187"/>
     <use style="fill:#1f77b4;fill-opacity:0.8;stroke:#1f77b4;stroke-opacity:0.8;" x="337.684856" xlink:href="#mb082fda0e3" y="91.155187"/>
     <use style="fill:#1f77b4;fill-opacity:0.8;stroke:#1f77b4;stroke-opacity:0.8;" x="377.47524" xlink:href="#mb082fda0e3" y="243.581761"/>
     <use style="fill:#1f77b4;fill-opacity:0.8;stroke:#1f77b4;stroke-opacity:0.8;" x="337.684856" xlink:href="#mb082fda0e3" y="141.964045"/>
     <use style="fill:#1f77b4;fill-opacity:0.8;stroke:#1f77b4;stroke-opacity:0.8;" x="390.738702" xlink:href="#mb082fda0e3" y="40.346328"/>
     <use style="fill:#1f77b4;fill-opacity:0.8;stroke:#1f77b4;stroke-opacity:0.8;" x="350.948317" xlink:href="#mb082fda0e3" y="91.155187"/>
     <use style="fill:#1f77b4;fill-opacity:0.8;stroke:#1f77b4;stroke-opacity:0.8;" x="390.738702" xlink:href="#mb082fda0e3" y="192.772903"/>
     <use style="fill:#1f77b4;fill-opacity:0.8;stroke:#1f77b4;stroke-opacity:0.8;" x="350.948317" xlink:href="#mb082fda0e3" y="141.964045"/>
     <use style="fill:#1f77b4;fill-opacity:0.8;stroke:#1f77b4;stroke-opacity:0.8;" x="311.157933" xlink:href="#mb082fda0e3" y="91.155187"/>
     <use style="fill:#1f77b4;fill-opacity:0.8;stroke:#1f77b4;stroke-opacity:0.8;" x="364.211779" xlink:href="#mb082fda0e3" y="91.155187"/>
     <use style="fill:#1f77b4;fill-opacity:0.8;stroke:#1f77b4;stroke-opacity:0.8;" x="271.367548" xlink:href="#mb082fda0e3" y="192.772903"/>
     <use style="fill:#1f77b4;fill-opacity:0.8;stroke:#1f77b4;stroke-opacity:0.8;" x="417.265625" xlink:href="#mb082fda0e3" y="91.155187"/>
     <use style="fill:#1f77b4;fill-opacity:0.8;stroke:#1f77b4;stroke-opacity:0.8;" x="311.157933" xlink:href="#mb082fda0e3" y="40.346328"/>
     <use style="fill:#1f77b4;fill-opacity:0.8;stroke:#1f77b4;stroke-opacity:0.8;" x="364.211779" xlink:href="#mb082fda0e3" y="91.155187"/>
     <use style="fill:#1f77b4;fill-opacity:0.8;stroke:#1f77b4;stroke-opacity:0.8;" x="377.47524" xlink:href="#mb082fda0e3" y="141.964045"/>
     <use style="fill:#1f77b4;fill-opacity:0.8;stroke:#1f77b4;stroke-opacity:0.8;" x="377.47524" xlink:href="#mb082fda0e3" y="91.155187"/>
     <use style="fill:#1f77b4;fill-opacity:0.8;stroke:#1f77b4;stroke-opacity:0.8;" x="311.157933" xlink:href="#mb082fda0e3" y="91.155187"/>
     <use style="fill:#1f77b4;fill-opacity:0.8;stroke:#1f77b4;stroke-opacity:0.8;" x="311.157933" xlink:href="#mb082fda0e3" y="91.155187"/>
     <use style="fill:#1f77b4;fill-opacity:0.8;stroke:#1f77b4;stroke-opacity:0.8;" x="311.157933" xlink:href="#mb082fda0e3" y="40.346328"/>
     <use style="fill:#1f77b4;fill-opacity:0.8;stroke:#1f77b4;stroke-opacity:0.8;" x="377.47524" xlink:href="#mb082fda0e3" y="192.772903"/>
     <use style="fill:#1f77b4;fill-opacity:0.8;stroke:#1f77b4;stroke-opacity:0.8;" x="377.47524" xlink:href="#mb082fda0e3" y="40.346328"/>
     <use style="fill:#1f77b4;fill-opacity:0.8;stroke:#1f77b4;stroke-opacity:0.8;" x="244.840625" xlink:href="#mb082fda0e3" y="91.155187"/>
     <use style="fill:#1f77b4;fill-opacity:0.8;stroke:#1f77b4;stroke-opacity:0.8;" x="324.421394" xlink:href="#mb082fda0e3" y="91.155187"/>
     <use style="fill:#1f77b4;fill-opacity:0.8;stroke:#1f77b4;stroke-opacity:0.8;" x="350.948317" xlink:href="#mb082fda0e3" y="91.155187"/>
     <use style="fill:#1f77b4;fill-opacity:0.8;stroke:#1f77b4;stroke-opacity:0.8;" x="311.157933" xlink:href="#mb082fda0e3" y="40.346328"/>
     <use style="fill:#1f77b4;fill-opacity:0.8;stroke:#1f77b4;stroke-opacity:0.8;" x="337.684856" xlink:href="#mb082fda0e3" y="91.155187"/>
     <use style="fill:#1f77b4;fill-opacity:0.8;stroke:#1f77b4;stroke-opacity:0.8;" x="324.421394" xlink:href="#mb082fda0e3" y="91.155187"/>
     <use style="fill:#1f77b4;fill-opacity:0.8;stroke:#1f77b4;stroke-opacity:0.8;" x="311.157933" xlink:href="#mb082fda0e3" y="91.155187"/>
     <use style="fill:#1f77b4;fill-opacity:0.8;stroke:#1f77b4;stroke-opacity:0.8;" x="364.211779" xlink:href="#mb082fda0e3" y="141.964045"/>
     <use style="fill:#1f77b4;fill-opacity:0.8;stroke:#1f77b4;stroke-opacity:0.8;" x="311.157933" xlink:href="#mb082fda0e3" y="141.964045"/>
     <use style="fill:#1f77b4;fill-opacity:0.8;stroke:#1f77b4;stroke-opacity:0.8;" x="311.157933" xlink:href="#mb082fda0e3" y="91.155187"/>
     <use style="fill:#1f77b4;fill-opacity:0.8;stroke:#1f77b4;stroke-opacity:0.8;" x="311.157933" xlink:href="#mb082fda0e3" y="40.346328"/>
     <use style="fill:#1f77b4;fill-opacity:0.8;stroke:#1f77b4;stroke-opacity:0.8;" x="377.47524" xlink:href="#mb082fda0e3" y="91.155187"/>
    </g>
   </g>
   <g id="PolyCollection_2">
    <path clip-path="url(#p211e5522c0)" d="M 244.840625 32.854489 
L 244.840625 116.225389 
L 246.582292 115.931755 
L 248.323958 115.863816 
L 250.065625 115.386689 
L 251.807292 114.900314 
L 253.548958 114.730286 
L 255.290625 114.792033 
L 257.032292 114.569222 
L 258.773958 114.784431 
L 260.515625 114.502524 
L 262.257292 114.216802 
L 263.998958 113.921749 
L 265.740625 113.749121 
L 267.482292 114.063881 
L 269.223958 113.751804 
L 270.965625 113.439368 
L 272.707292 113.274075 
L 274.448958 113.1687 
L 276.190625 113.213237 
L 277.932292 113.505197 
L 279.673958 113.185211 
L 281.415625 113.1382 
L 283.157292 113.02867 
L 284.898958 113.126541 
L 286.640625 113.220018 
L 288.382292 112.965365 
L 290.123958 113.179767 
L 291.865625 113.40129 
L 293.607292 113.530529 
L 295.348958 113.597608 
L 297.090625 113.30095 
L 298.832292 113.078866 
L 300.573958 113.28147 
L 302.315625 113.40335 
L 304.057292 113.435547 
L 305.798958 113.772926 
L 307.540625 113.804302 
L 309.282292 113.992833 
L 311.023958 114.182108 
L 312.765625 114.511667 
L 314.507292 114.836297 
L 316.248958 115.119911 
L 317.990625 115.097623 
L 319.732292 115.258295 
L 321.473958 115.567097 
L 323.215625 116.251359 
L 324.957292 116.772146 
L 326.698958 117.056511 
L 328.440625 117.891567 
L 330.182292 118.122015 
L 331.923958 118.56687 
L 333.665625 119.328912 
L 335.407292 119.906333 
L 337.148958 120.746583 
L 338.890625 121.194144 
L 340.632292 121.991863 
L 342.373958 122.778961 
L 344.115625 123.578945 
L 345.857292 125.127245 
L 347.598958 125.160888 
L 349.340625 125.98122 
L 351.082292 126.731553 
L 352.823958 127.532444 
L 354.565625 128.522154 
L 356.307292 129.119308 
L 358.048958 130.081556 
L 359.790625 131.080628 
L 361.532292 132.029968 
L 363.273958 132.984536 
L 365.015625 134.143469 
L 366.757292 135.683228 
L 368.498958 136.607015 
L 370.240625 137.668279 
L 371.982292 139.132297 
L 373.723958 140.594888 
L 375.465625 141.850008 
L 377.207292 143.334181 
L 378.948958 144.86449 
L 380.690625 146.229584 
L 382.432292 147.399383 
L 384.173958 148.731328 
L 385.915625 150.278164 
L 387.657292 151.462643 
L 389.398958 152.662201 
L 391.140625 153.984224 
L 392.882292 155.01081 
L 394.623958 156.192566 
L 396.365625 157.460005 
L 398.107292 158.688782 
L 399.848958 159.864889 
L 401.590625 161.019304 
L 403.332292 162.500314 
L 405.073958 163.700003 
L 406.815625 165.077392 
L 408.557292 166.297808 
L 410.298958 167.714742 
L 412.040625 169.131677 
L 413.782292 170.548611 
L 415.523958 171.874413 
L 417.265625 173.195446 
L 417.265625 84.373463 
L 417.265625 84.373463 
L 415.523958 84.620049 
L 413.782292 84.866635 
L 412.040625 85.113221 
L 410.298958 85.359807 
L 408.557292 85.606393 
L 406.815625 85.853921 
L 405.073958 86.103789 
L 403.332292 86.353657 
L 401.590625 86.61169 
L 399.848958 86.871184 
L 398.107292 87.073015 
L 396.365625 87.168922 
L 394.623958 87.636183 
L 392.882292 87.892408 
L 391.140625 88.265927 
L 389.398958 88.476699 
L 387.657292 88.645666 
L 385.915625 88.892351 
L 384.173958 89.139036 
L 382.432292 89.33282 
L 380.690625 89.364728 
L 378.948958 89.5731 
L 377.207292 89.68251 
L 375.465625 89.79192 
L 373.723958 89.901329 
L 371.982292 90.012522 
L 370.240625 90.124054 
L 368.498958 90.148562 
L 366.757292 90.055263 
L 365.015625 90.208992 
L 363.273958 90.134054 
L 361.532292 90.367058 
L 359.790625 90.545414 
L 358.048958 90.813949 
L 356.307292 90.844027 
L 354.565625 90.816381 
L 352.823958 90.896617 
L 351.082292 90.939129 
L 349.340625 91.238479 
L 347.598958 91.039779 
L 345.857292 91.143031 
L 344.115625 90.937773 
L 342.373958 90.612322 
L 340.632292 90.597544 
L 338.890625 90.484132 
L 337.148958 90.560844 
L 335.407292 90.454738 
L 333.665625 90.26278 
L 331.923958 89.974124 
L 330.182292 89.919894 
L 328.440625 89.546776 
L 326.698958 88.956549 
L 324.957292 88.273171 
L 323.215625 87.632912 
L 321.473958 86.953376 
L 319.732292 86.365175 
L 317.990625 85.741147 
L 316.248958 84.984584 
L 314.507292 84.131497 
L 312.765625 83.120187 
L 311.023958 82.227981 
L 309.282292 81.335775 
L 307.540625 80.443569 
L 305.798958 79.546834 
L 304.057292 78.549312 
L 302.315625 77.49489 
L 300.573958 76.435898 
L 298.832292 75.379894 
L 297.090625 74.185903 
L 295.348958 73.037206 
L 293.607292 71.543954 
L 291.865625 70.175151 
L 290.123958 69.236144 
L 288.382292 68.141895 
L 286.640625 66.863169 
L 284.898958 65.488465 
L 283.157292 64.081156 
L 281.415625 62.741457 
L 279.673958 61.329006 
L 277.932292 59.871549 
L 276.190625 58.435748 
L 274.448958 56.990189 
L 272.707292 55.562836 
L 270.965625 54.152349 
L 269.223958 52.732491 
L 267.482292 51.312634 
L 265.740625 49.892777 
L 263.998958 48.472919 
L 262.257292 46.950433 
L 260.515625 45.516135 
L 258.773958 44.213347 
L 257.032292 42.79349 
L 255.290625 41.373633 
L 253.548958 39.953775 
L 251.807292 38.533918 
L 250.065625 37.114061 
L 248.323958 35.694203 
L 246.582292 34.274346 
L 244.840625 32.854489 
z
" style="fill:#1f77b4;fill-opacity:0.15;"/>
   </g>
   <g id="matplotlib.axis_3">
    <g id="xtick_4">
     <g id="line2d_10">
      <g>
       <use style="stroke:#000000;stroke-width:0.8;" x="284.63101" xlink:href="#m55b9cea487" y="254.118125"/>
      </g>
     </g>
     <g id="text_12">
      <!-- 2 -->
      <g transform="translate(281.44976 268.716562)scale(0.1 -0.1)">
       <use xlink:href="#DejaVuSans-50"/>
      </g>
     </g>
    </g>
    <g id="xtick_5">
     <g id="line2d_11">
      <g>
       <use style="stroke:#000000;stroke-width:0.8;" x="337.684856" xlink:href="#m55b9cea487" y="254.118125"/>
      </g>
     </g>
     <g id="text_13">
      <!-- 3 -->
      <g transform="translate(334.503606 268.716562)scale(0.1 -0.1)">
       <use xlink:href="#DejaVuSans-51"/>
      </g>
     </g>
    </g>
    <g id="xtick_6">
     <g id="line2d_12">
      <g>
       <use style="stroke:#000000;stroke-width:0.8;" x="390.738702" xlink:href="#m55b9cea487" y="254.118125"/>
      </g>
     </g>
     <g id="text_14">
      <!-- 4 -->
      <g transform="translate(387.557452 268.716562)scale(0.1 -0.1)">
       <use xlink:href="#DejaVuSans-52"/>
      </g>
     </g>
    </g>
    <g id="text_15">
     <!-- E -->
     <g transform="translate(327.89375 282.394687)scale(0.1 -0.1)">
      <use xlink:href="#DejaVuSans-69"/>
     </g>
    </g>
   </g>
   <g id="matplotlib.axis_4">
    <g id="ytick_6">
     <g id="line2d_13">
      <g>
       <use style="stroke:#000000;stroke-width:0.8;" x="244.840625" xlink:href="#mf30ae97b1d" y="243.581761"/>
      </g>
     </g>
     <g id="text_16">
      <!-- 1 -->
      <g transform="translate(231.478125 247.38098)scale(0.1 -0.1)">
       <use xlink:href="#DejaVuSans-49"/>
      </g>
     </g>
    </g>
    <g id="ytick_7">
     <g id="line2d_14">
      <g>
       <use style="stroke:#000000;stroke-width:0.8;" x="244.840625" xlink:href="#mf30ae97b1d" y="192.772903"/>
      </g>
     </g>
     <g id="text_17">
      <!-- 2 -->
      <g transform="translate(231.478125 196.572122)scale(0.1 -0.1)">
       <use xlink:href="#DejaVuSans-50"/>
      </g>
     </g>
    </g>
    <g id="ytick_8">
     <g id="line2d_15">
      <g>
       <use style="stroke:#000000;stroke-width:0.8;" x="244.840625" xlink:href="#mf30ae97b1d" y="141.964045"/>
      </g>
     </g>
     <g id="text_18">
      <!-- 3 -->
      <g transform="translate(231.478125 145.763264)scale(0.1 -0.1)">
       <use xlink:href="#DejaVuSans-51"/>
      </g>
     </g>
    </g>
    <g id="ytick_9">
     <g id="line2d_16">
      <g>
       <use style="stroke:#000000;stroke-width:0.8;" x="244.840625" xlink:href="#mf30ae97b1d" y="91.155187"/>
      </g>
     </g>
     <g id="text_19">
      <!-- 4 -->
      <g transform="translate(231.478125 94.954405)scale(0.1 -0.1)">
       <use xlink:href="#DejaVuSans-52"/>
      </g>
     </g>
    </g>
    <g id="ytick_10">
     <g id="line2d_17">
      <g>
       <use style="stroke:#000000;stroke-width:0.8;" x="244.840625" xlink:href="#mf30ae97b1d" y="40.346328"/>
      </g>
     </g>
     <g id="text_20">
      <!-- 5 -->
      <g transform="translate(231.478125 44.145547)scale(0.1 -0.1)">
       <use xlink:href="#DejaVuSans-53"/>
      </g>
     </g>
    </g>
    <g id="text_21">
     <!-- Trust6 -->
     <g transform="translate(225.398437 153.504844)rotate(-90)scale(0.1 -0.1)">
      <use xlink:href="#DejaVuSans-84"/>
      <use x="46.333984" xlink:href="#DejaVuSans-114"/>
      <use x="87.447266" xlink:href="#DejaVuSans-117"/>
      <use x="150.826172" xlink:href="#DejaVuSans-115"/>
      <use x="202.925781" xlink:href="#DejaVuSans-116"/>
      <use x="242.134766" xlink:href="#DejaVuSans-54"/>
     </g>
    </g>
   </g>
   <g id="line2d_18">
    <path clip-path="url(#p211e5522c0)" d="M 244.840625 80.915814 
L 246.582292 81.360548 
L 248.323958 81.805282 
L 250.065625 82.250015 
L 251.807292 82.694749 
L 253.548958 83.139483 
L 255.290625 83.584217 
L 257.032292 84.028951 
L 258.773958 84.473684 
L 260.515625 84.918418 
L 262.257292 85.363152 
L 263.998958 85.807886 
L 265.740625 86.252619 
L 267.482292 86.697353 
L 269.223958 87.142087 
L 270.965625 87.586821 
L 272.707292 88.031555 
L 274.448958 88.476288 
L 276.190625 88.921022 
L 277.932292 89.365756 
L 279.673958 89.81049 
L 281.415625 90.255223 
L 283.157292 90.699957 
L 284.898958 91.144691 
L 286.640625 91.589425 
L 288.382292 92.034159 
L 290.123958 92.478892 
L 291.865625 92.923626 
L 293.607292 93.36836 
L 295.348958 93.813094 
L 297.090625 94.257827 
L 298.832292 94.702561 
L 300.573958 95.147295 
L 302.315625 95.592029 
L 304.057292 96.036763 
L 305.798958 96.481496 
L 307.540625 96.92623 
L 309.282292 97.370964 
L 311.023958 97.815698 
L 312.765625 98.260432 
L 314.507292 98.705165 
L 316.248958 99.149899 
L 317.990625 99.594633 
L 319.732292 100.039367 
L 321.473958 100.4841 
L 323.215625 100.928834 
L 324.957292 101.373568 
L 326.698958 101.818302 
L 328.440625 102.263036 
L 330.182292 102.707769 
L 331.923958 103.152503 
L 333.665625 103.597237 
L 335.407292 104.041971 
L 337.148958 104.486704 
L 338.890625 104.931438 
L 340.632292 105.376172 
L 342.373958 105.820906 
L 344.115625 106.26564 
L 345.857292 106.710373 
L 347.598958 107.155107 
L 349.340625 107.599841 
L 351.082292 108.044575 
L 352.823958 108.489308 
L 354.565625 108.934042 
L 356.307292 109.378776 
L 358.048958 109.82351 
L 359.790625 110.268244 
L 361.532292 110.712977 
L 363.273958 111.157711 
L 365.015625 111.602445 
L 366.757292 112.047179 
L 368.498958 112.491912 
L 370.240625 112.936646 
L 371.982292 113.38138 
L 373.723958 113.826114 
L 375.465625 114.270848 
L 377.207292 114.715581 
L 378.948958 115.160315 
L 380.690625 115.605049 
L 382.432292 116.049783 
L 384.173958 116.494517 
L 385.915625 116.93925 
L 387.657292 117.383984 
L 389.398958 117.828718 
L 391.140625 118.273452 
L 392.882292 118.718185 
L 394.623958 119.162919 
L 396.365625 119.607653 
L 398.107292 120.052387 
L 399.848958 120.497121 
L 401.590625 120.941854 
L 403.332292 121.386588 
L 405.073958 121.831322 
L 406.815625 122.276056 
L 408.557292 122.720789 
L 410.298958 123.165523 
L 412.040625 123.610257 
L 413.782292 124.054991 
L 415.523958 124.499725 
L 417.265625 124.944458 
" style="fill:none;stroke:#1f77b4;stroke-linecap:square;stroke-width:2.25;"/>
   </g>
   <g id="patch_8">
    <path d="M 244.840625 254.118125 
L 244.840625 22.318125 
" style="fill:none;stroke:#000000;stroke-linecap:square;stroke-linejoin:miter;stroke-width:0.8;"/>
   </g>
   <g id="patch_9">
    <path d="M 417.265625 254.118125 
L 417.265625 22.318125 
" style="fill:none;stroke:#000000;stroke-linecap:square;stroke-linejoin:miter;stroke-width:0.8;"/>
   </g>
   <g id="patch_10">
    <path d="M 244.840625 254.118125 
L 417.265625 254.118125 
" style="fill:none;stroke:#000000;stroke-linecap:square;stroke-linejoin:miter;stroke-width:0.8;"/>
   </g>
   <g id="patch_11">
    <path d="M 244.840625 22.318125 
L 417.265625 22.318125 
" style="fill:none;stroke:#000000;stroke-linecap:square;stroke-linejoin:miter;stroke-width:0.8;"/>
   </g>
   <g id="text_22">
    <!-- Group B -->
    <g transform="translate(244.840625 16.318125)scale(0.12 -0.12)">
     <defs>
      <path d="M 19.671875 34.8125 
L 19.671875 8.109375 
L 35.5 8.109375 
Q 43.453125 8.109375 47.28125 11.40625 
Q 51.125 14.703125 51.125 21.484375 
Q 51.125 28.328125 47.28125 31.5625 
Q 43.453125 34.8125 35.5 34.8125 
z
M 19.671875 64.796875 
L 19.671875 42.828125 
L 34.28125 42.828125 
Q 41.5 42.828125 45.03125 45.53125 
Q 48.578125 48.25 48.578125 53.8125 
Q 48.578125 59.328125 45.03125 62.0625 
Q 41.5 64.796875 34.28125 64.796875 
z
M 9.8125 72.90625 
L 35.015625 72.90625 
Q 46.296875 72.90625 52.390625 68.21875 
Q 58.5 63.53125 58.5 54.890625 
Q 58.5 48.1875 55.375 44.234375 
Q 52.25 40.28125 46.1875 39.3125 
Q 53.46875 37.75 57.5 32.78125 
Q 61.53125 27.828125 61.53125 20.40625 
Q 61.53125 10.640625 54.890625 5.3125 
Q 48.25 0 35.984375 0 
L 9.8125 0 
z
" id="DejaVuSans-66"/>
     </defs>
     <use xlink:href="#DejaVuSans-71"/>
     <use x="77.490234" xlink:href="#DejaVuSans-114"/>
     <use x="116.353516" xlink:href="#DejaVuSans-111"/>
     <use x="177.535156" xlink:href="#DejaVuSans-117"/>
     <use x="240.914062" xlink:href="#DejaVuSans-112"/>
     <use x="304.390625" xlink:href="#DejaVuSans-32"/>
     <use x="336.177734" xlink:href="#DejaVuSans-66"/>
    </g>
   </g>
  </g>
  <g id="text_23">
   <!-- I believe the bike chatbot didn’t make false claims. -->
   <g transform="translate(58.76 22.79625)scale(0.12 -0.12)">
    <defs>
     <path d="M 9.8125 72.90625 
L 19.671875 72.90625 
L 19.671875 0 
L 9.8125 0 
z
" id="DejaVuSans-73"/>
     <path d="M 48.6875 27.296875 
Q 48.6875 37.203125 44.609375 42.84375 
Q 40.53125 48.484375 33.40625 48.484375 
Q 26.265625 48.484375 22.1875 42.84375 
Q 18.109375 37.203125 18.109375 27.296875 
Q 18.109375 17.390625 22.1875 11.75 
Q 26.265625 6.109375 33.40625 6.109375 
Q 40.53125 6.109375 44.609375 11.75 
Q 48.6875 17.390625 48.6875 27.296875 
z
M 18.109375 46.390625 
Q 20.953125 51.265625 25.265625 53.625 
Q 29.59375 56 35.59375 56 
Q 45.5625 56 51.78125 48.09375 
Q 58.015625 40.1875 58.015625 27.296875 
Q 58.015625 14.40625 51.78125 6.484375 
Q 45.5625 -1.421875 35.59375 -1.421875 
Q 29.59375 -1.421875 25.265625 0.953125 
Q 20.953125 3.328125 18.109375 8.203125 
L 18.109375 0 
L 9.078125 0 
L 9.078125 75.984375 
L 18.109375 75.984375 
z
" id="DejaVuSans-98"/>
     <path d="M 56.203125 29.59375 
L 56.203125 25.203125 
L 14.890625 25.203125 
Q 15.484375 15.921875 20.484375 11.0625 
Q 25.484375 6.203125 34.421875 6.203125 
Q 39.59375 6.203125 44.453125 7.46875 
Q 49.3125 8.734375 54.109375 11.28125 
L 54.109375 2.78125 
Q 49.265625 0.734375 44.1875 -0.34375 
Q 39.109375 -1.421875 33.890625 -1.421875 
Q 20.796875 -1.421875 13.15625 6.1875 
Q 5.515625 13.8125 5.515625 26.8125 
Q 5.515625 40.234375 12.765625 48.109375 
Q 20.015625 56 32.328125 56 
Q 43.359375 56 49.78125 48.890625 
Q 56.203125 41.796875 56.203125 29.59375 
z
M 47.21875 32.234375 
Q 47.125 39.59375 43.09375 43.984375 
Q 39.0625 48.390625 32.421875 48.390625 
Q 24.90625 48.390625 20.390625 44.140625 
Q 15.875 39.890625 15.1875 32.171875 
z
" id="DejaVuSans-101"/>
     <path d="M 9.421875 75.984375 
L 18.40625 75.984375 
L 18.40625 0 
L 9.421875 0 
z
" id="DejaVuSans-108"/>
     <path d="M 9.421875 54.6875 
L 18.40625 54.6875 
L 18.40625 0 
L 9.421875 0 
z
M 9.421875 75.984375 
L 18.40625 75.984375 
L 18.40625 64.59375 
L 9.421875 64.59375 
z
" id="DejaVuSans-105"/>
     <path d="M 2.984375 54.6875 
L 12.5 54.6875 
L 29.59375 8.796875 
L 46.6875 54.6875 
L 56.203125 54.6875 
L 35.6875 0 
L 23.484375 0 
z
" id="DejaVuSans-118"/>
     <path d="M 54.890625 33.015625 
L 54.890625 0 
L 45.90625 0 
L 45.90625 32.71875 
Q 45.90625 40.484375 42.875 44.328125 
Q 39.84375 48.1875 33.796875 48.1875 
Q 26.515625 48.1875 22.3125 43.546875 
Q 18.109375 38.921875 18.109375 30.90625 
L 18.109375 0 
L 9.078125 0 
L 9.078125 75.984375 
L 18.109375 75.984375 
L 18.109375 46.1875 
Q 21.34375 51.125 25.703125 53.5625 
Q 30.078125 56 35.796875 56 
Q 45.21875 56 50.046875 50.171875 
Q 54.890625 44.34375 54.890625 33.015625 
z
" id="DejaVuSans-104"/>
     <path d="M 9.078125 75.984375 
L 18.109375 75.984375 
L 18.109375 31.109375 
L 44.921875 54.6875 
L 56.390625 54.6875 
L 27.390625 29.109375 
L 57.625 0 
L 45.90625 0 
L 18.109375 26.703125 
L 18.109375 0 
L 9.078125 0 
z
" id="DejaVuSans-107"/>
     <path d="M 48.78125 52.59375 
L 48.78125 44.1875 
Q 44.96875 46.296875 41.140625 47.34375 
Q 37.3125 48.390625 33.40625 48.390625 
Q 24.65625 48.390625 19.8125 42.84375 
Q 14.984375 37.3125 14.984375 27.296875 
Q 14.984375 17.28125 19.8125 11.734375 
Q 24.65625 6.203125 33.40625 6.203125 
Q 37.3125 6.203125 41.140625 7.25 
Q 44.96875 8.296875 48.78125 10.40625 
L 48.78125 2.09375 
Q 45.015625 0.34375 40.984375 -0.53125 
Q 36.96875 -1.421875 32.421875 -1.421875 
Q 20.0625 -1.421875 12.78125 6.34375 
Q 5.515625 14.109375 5.515625 27.296875 
Q 5.515625 40.671875 12.859375 48.328125 
Q 20.21875 56 33.015625 56 
Q 37.15625 56 41.109375 55.140625 
Q 45.0625 54.296875 48.78125 52.59375 
z
" id="DejaVuSans-99"/>
     <path d="M 34.28125 27.484375 
Q 23.390625 27.484375 19.1875 25 
Q 14.984375 22.515625 14.984375 16.5 
Q 14.984375 11.71875 18.140625 8.90625 
Q 21.296875 6.109375 26.703125 6.109375 
Q 34.1875 6.109375 38.703125 11.40625 
Q 43.21875 16.703125 43.21875 25.484375 
L 43.21875 27.484375 
z
M 52.203125 31.203125 
L 52.203125 0 
L 43.21875 0 
L 43.21875 8.296875 
Q 40.140625 3.328125 35.546875 0.953125 
Q 30.953125 -1.421875 24.3125 -1.421875 
Q 15.921875 -1.421875 10.953125 3.296875 
Q 6 8.015625 6 15.921875 
Q 6 25.140625 12.171875 29.828125 
Q 18.359375 34.515625 30.609375 34.515625 
L 43.21875 34.515625 
L 43.21875 35.40625 
Q 43.21875 41.609375 39.140625 45 
Q 35.0625 48.390625 27.6875 48.390625 
Q 23 48.390625 18.546875 47.265625 
Q 14.109375 46.140625 10.015625 43.890625 
L 10.015625 52.203125 
Q 14.9375 54.109375 19.578125 55.046875 
Q 24.21875 56 28.609375 56 
Q 40.484375 56 46.34375 49.84375 
Q 52.203125 43.703125 52.203125 31.203125 
z
" id="DejaVuSans-97"/>
     <path d="M 45.40625 46.390625 
L 45.40625 75.984375 
L 54.390625 75.984375 
L 54.390625 0 
L 45.40625 0 
L 45.40625 8.203125 
Q 42.578125 3.328125 38.25 0.953125 
Q 33.9375 -1.421875 27.875 -1.421875 
Q 17.96875 -1.421875 11.734375 6.484375 
Q 5.515625 14.40625 5.515625 27.296875 
Q 5.515625 40.1875 11.734375 48.09375 
Q 17.96875 56 27.875 56 
Q 33.9375 56 38.25 53.625 
Q 42.578125 51.265625 45.40625 46.390625 
z
M 14.796875 27.296875 
Q 14.796875 17.390625 18.875 11.75 
Q 22.953125 6.109375 30.078125 6.109375 
Q 37.203125 6.109375 41.296875 11.75 
Q 45.40625 17.390625 45.40625 27.296875 
Q 45.40625 37.203125 41.296875 42.84375 
Q 37.203125 48.484375 30.078125 48.484375 
Q 22.953125 48.484375 18.875 42.84375 
Q 14.796875 37.203125 14.796875 27.296875 
z
" id="DejaVuSans-100"/>
     <path d="M 54.890625 33.015625 
L 54.890625 0 
L 45.90625 0 
L 45.90625 32.71875 
Q 45.90625 40.484375 42.875 44.328125 
Q 39.84375 48.1875 33.796875 48.1875 
Q 26.515625 48.1875 22.3125 43.546875 
Q 18.109375 38.921875 18.109375 30.90625 
L 18.109375 0 
L 9.078125 0 
L 9.078125 54.6875 
L 18.109375 54.6875 
L 18.109375 46.1875 
Q 21.34375 51.125 25.703125 53.5625 
Q 30.078125 56 35.796875 56 
Q 45.21875 56 50.046875 50.171875 
Q 54.890625 44.34375 54.890625 33.015625 
z
" id="DejaVuSans-110"/>
     <path d="M 12.703125 72.90625 
L 23 72.90625 
L 23 65.484375 
L 14.984375 49.90625 
L 8.6875 49.90625 
L 12.703125 65.484375 
z
" id="DejaVuSans-8217"/>
     <path d="M 52 44.1875 
Q 55.375 50.25 60.0625 53.125 
Q 64.75 56 71.09375 56 
Q 79.640625 56 84.28125 50.015625 
Q 88.921875 44.046875 88.921875 33.015625 
L 88.921875 0 
L 79.890625 0 
L 79.890625 32.71875 
Q 79.890625 40.578125 77.09375 44.375 
Q 74.3125 48.1875 68.609375 48.1875 
Q 61.625 48.1875 57.5625 43.546875 
Q 53.515625 38.921875 53.515625 30.90625 
L 53.515625 0 
L 44.484375 0 
L 44.484375 32.71875 
Q 44.484375 40.625 41.703125 44.40625 
Q 38.921875 48.1875 33.109375 48.1875 
Q 26.21875 48.1875 22.15625 43.53125 
Q 18.109375 38.875 18.109375 30.90625 
L 18.109375 0 
L 9.078125 0 
L 9.078125 54.6875 
L 18.109375 54.6875 
L 18.109375 46.1875 
Q 21.1875 51.21875 25.484375 53.609375 
Q 29.78125 56 35.6875 56 
Q 41.65625 56 45.828125 52.96875 
Q 50 49.953125 52 44.1875 
z
" id="DejaVuSans-109"/>
     <path d="M 37.109375 75.984375 
L 37.109375 68.5 
L 28.515625 68.5 
Q 23.6875 68.5 21.796875 66.546875 
Q 19.921875 64.59375 19.921875 59.515625 
L 19.921875 54.6875 
L 34.71875 54.6875 
L 34.71875 47.703125 
L 19.921875 47.703125 
L 19.921875 0 
L 10.890625 0 
L 10.890625 47.703125 
L 2.296875 47.703125 
L 2.296875 54.6875 
L 10.890625 54.6875 
L 10.890625 58.5 
Q 10.890625 67.625 15.140625 71.796875 
Q 19.390625 75.984375 28.609375 75.984375 
z
" id="DejaVuSans-102"/>
     <path d="M 10.6875 12.40625 
L 21 12.40625 
L 21 0 
L 10.6875 0 
z
" id="DejaVuSans-46"/>
    </defs>
    <use xlink:href="#DejaVuSans-73"/>
    <use x="29.492188" xlink:href="#DejaVuSans-32"/>
    <use x="61.279297" xlink:href="#DejaVuSans-98"/>
    <use x="124.755859" xlink:href="#DejaVuSans-101"/>
    <use x="186.279297" xlink:href="#DejaVuSans-108"/>
    <use x="214.0625" xlink:href="#DejaVuSans-105"/>
    <use x="241.845703" xlink:href="#DejaVuSans-101"/>
    <use x="303.369141" xlink:href="#DejaVuSans-118"/>
    <use x="362.548828" xlink:href="#DejaVuSans-101"/>
    <use x="424.072266" xlink:href="#DejaVuSans-32"/>
    <use x="455.859375" xlink:href="#DejaVuSans-116"/>
    <use x="495.068359" xlink:href="#DejaVuSans-104"/>
    <use x="558.447266" xlink:href="#DejaVuSans-101"/>
    <use x="619.970703" xlink:href="#DejaVuSans-32"/>
    <use x="651.757812" xlink:href="#DejaVuSans-98"/>
    <use x="715.234375" xlink:href="#DejaVuSans-105"/>
    <use x="743.017578" xlink:href="#DejaVuSans-107"/>
    <use x="797.302734" xlink:href="#DejaVuSans-101"/>
    <use x="858.826172" xlink:href="#DejaVuSans-32"/>
    <use x="890.613281" xlink:href="#DejaVuSans-99"/>
    <use x="945.59375" xlink:href="#DejaVuSans-104"/>
    <use x="1008.972656" xlink:href="#DejaVuSans-97"/>
    <use x="1070.251953" xlink:href="#DejaVuSans-116"/>
    <use x="1109.460938" xlink:href="#DejaVuSans-98"/>
    <use x="1172.9375" xlink:href="#DejaVuSans-111"/>
    <use x="1234.119141" xlink:href="#DejaVuSans-116"/>
    <use x="1273.328125" xlink:href="#DejaVuSans-32"/>
    <use x="1305.115234" xlink:href="#DejaVuSans-100"/>
    <use x="1368.591797" xlink:href="#DejaVuSans-105"/>
    <use x="1396.375" xlink:href="#DejaVuSans-100"/>
    <use x="1459.851562" xlink:href="#DejaVuSans-110"/>
    <use x="1523.230469" xlink:href="#DejaVuSans-8217"/>
    <use x="1555.017578" xlink:href="#DejaVuSans-116"/>
    <use x="1594.226562" xlink:href="#DejaVuSans-32"/>
    <use x="1626.013672" xlink:href="#DejaVuSans-109"/>
    <use x="1723.425781" xlink:href="#DejaVuSans-97"/>
    <use x="1784.705078" xlink:href="#DejaVuSans-107"/>
    <use x="1838.990234" xlink:href="#DejaVuSans-101"/>
    <use x="1900.513672" xlink:href="#DejaVuSans-32"/>
    <use x="1932.300781" xlink:href="#DejaVuSans-102"/>
    <use x="1967.505859" xlink:href="#DejaVuSans-97"/>
    <use x="2028.785156" xlink:href="#DejaVuSans-108"/>
    <use x="2056.568359" xlink:href="#DejaVuSans-115"/>
    <use x="2108.667969" xlink:href="#DejaVuSans-101"/>
    <use x="2170.191406" xlink:href="#DejaVuSans-32"/>
    <use x="2201.978516" xlink:href="#DejaVuSans-99"/>
    <use x="2256.958984" xlink:href="#DejaVuSans-108"/>
    <use x="2284.742188" xlink:href="#DejaVuSans-97"/>
    <use x="2346.021484" xlink:href="#DejaVuSans-105"/>
    <use x="2373.804688" xlink:href="#DejaVuSans-109"/>
    <use x="2471.216797" xlink:href="#DejaVuSans-115"/>
    <use x="2523.316406" xlink:href="#DejaVuSans-46"/>
   </g>
  </g>
 </g>
 <defs>
  <clipPath id="p1a11cffd34">
   <rect height="231.8" width="172.425" x="34.240625" y="22.318125"/>
  </clipPath>
  <clipPath id="p211e5522c0">
   <rect height="231.8" width="172.425" x="244.840625" y="22.318125"/>
  </clipPath>
 </defs>
</svg>
